<?xml version="1.0" encoding="utf-8"?>
<!-- Generator: Adobe Illustrator 22.0.0, SVG Export Plug-In . SVG Version: 6.00 Build 0)  -->
<svg version="1.1" id="Layer_1" xmlns="http://www.w3.org/2000/svg" xmlns:xlink="http://www.w3.org/1999/xlink" x="0px" y="0px"
	 viewBox="0 0 83.6 96.4" style="enable-background:new 0 0 83.6 96.4;" xml:space="preserve">
<path d="M13.6,61.3c1.8,0,3.3,1.5,3.3,3.3v21.8c0,1.8-1.5,3.3-3.3,3.3H10c-1.8,0-3.3-1.5-3.3-3.3V64.6c0-1.8,1.5-3.3,3.3-3.3
	L13.6,61.3 M13.6,54.6H10c-5.5,0-10,4.5-10,10v21.8c0,5.5,4.5,10,10,10h3.6c5.5,0,10-4.5,10-10V64.6C23.6,59.1,19.1,54.6,13.6,54.6"
	/>
<path d="M43.6,47.4c1.8,0,3.3,1.5,3.3,3.3v35.7c0,1.8-1.5,3.3-3.3,3.3H40c-1.8,0-3.3-1.5-3.3-3.3V50.7c0-1.8,1.5-3.3,3.3-3.3H43.6
	 M43.6,40.7H40c-5.5,0-10,4.5-10,10v35.7c0,5.6,4.5,10,10,10h3.6c5.5,0,10-4.5,10-10V50.7C53.6,45.2,49.1,40.7,43.6,40.7"/>
<path d="M73.6,26.5c1.8,0,3.3,1.5,3.3,3.3v56.6c0,1.8-1.5,3.3-3.3,3.3H70c-1.8,0-3.3-1.5-3.3-3.3V29.8c0-1.8,1.5-3.3,3.3-3.3H73.6
	 M73.6,19.8H70c-5.5,0-10,4.5-10,10v56.6c0,5.5,4.5,10,10,10h3.6c5.5,0,10-4.5,10-10V29.8C83.6,24.3,79.1,19.8,73.6,19.8"/>
<path d="M63.5,3.1c-0.1-1-0.5-1.8-1.2-2.3c-0.7-0.6-1.5-0.9-2.5-0.8l-11,0.8c-1.8,0.1-3.2,1.7-3.1,3.6c0.1,1.8,1.6,3.1,3.3,3.1
	c0.1,0,0.2,0,0.3,0l3-0.3C30.8,34.3,9.1,31.7,8.1,31.6c-1.8-0.3-3.5,1-3.8,2.8s1,3.5,2.8,3.8c0.2,0,1.3,0.2,3.1,0.2
	c7.6,0,27.7-2.6,47-26.9l0.2,3c0.1,1.8,1.6,3.1,3.3,3.1c0.1,0,0.1,0,0.2,0c1.8-0.1,3.2-1.7,3.1-3.6L63.5,3.1z"/>
</svg>
