<?xml version="1.0" encoding="utf-8"?>
<!-- Generator: Adobe Illustrator 22.0.0, SVG Export Plug-In . SVG Version: 6.00 Build 0)  -->
<svg version="1.1" id="Layer_1" xmlns="http://www.w3.org/2000/svg" xmlns:xlink="http://www.w3.org/1999/xlink" x="0px" y="0px"
	 viewBox="0 0 69.9 76" style="enable-background:new 0 0 69.9 76;" xml:space="preserve">
<path d="M0.8,35.5l9.4,2.2l4.5,12.7c0.1,0.3,0.4,0.6,0.7,0.6l31.3,7.2c0.1,0,0.1,0,0.2,0c0.3,0,0.6-0.1,0.8-0.4l12.4-16.2l1.1,3.2
	c-1.7,1.1-2.5,3.2-1.8,5.2l2.1,5.7c0.1,0.2,0.3,0.5,0.5,0.6c0.1,0.1,0.3,0.1,0.4,0.1s0.2,0,0.3-0.1l6.5-2.3c0.5-0.2,0.8-0.8,0.6-1.3
	L67.7,47c-0.4-1.1-1.2-2-2.3-2.5c-0.7-0.4-1.5-0.5-2.3-0.4l-1.6-4.4l5.6-7.4c0.2-0.3,0.3-0.6,0.1-0.9l-4.5-12.7l5.9-7.7
	c0.2-0.3,0.3-0.6,0.1-0.9S68.3,9.5,68,9.5L26.9,0c-0.4-0.1-0.8,0.1-1,0.4L0.2,33.9c-0.2,0.3-0.3,0.6-0.1,0.9S0.4,35.4,0.8,35.5z
	 M64.6,46.3c0.6,0.3,1,0.8,1.3,1.4l1.7,4.8L63,54.1l-1.7-4.8c-0.2-0.6-0.2-1.3,0.1-1.9c0.3-0.6,0.8-1,1.4-1.3
	c0.3-0.1,0.5-0.1,0.8-0.1C64,46.1,64.3,46.2,64.6,46.3z M46.5,56.1l-30.1-6.9l-3.9-11L41.9,45c0.1,0,0.1,0,0.2,0
	c0.3,0,0.6-0.1,0.8-0.4l12.4-16.2l3.9,11L46.5,56.1z M65.2,31.6l-4.5,5.9l-3.9-11l4.5-5.9L65.2,31.6z M27,2.1l39,9L55.2,25.3
	l-21.1-5c-0.5-0.1-1.1,0.2-1.2,0.7c-0.1,0.5,0.2,1.1,0.7,1.2L53.8,27L41.7,42.9l-39-9L27,2.1z"/>
<path d="M22.5,59.7v15.1c0,0.6,0.4,1,1,1s1-0.4,1-1V59.7c0-0.6-0.4-1-1-1S22.5,59.2,22.5,59.7z"/>
<path d="M30.1,61.7c0-0.6-0.4-1-1-1s-1,0.4-1,1v4.6c0,0.6,0.4,1,1,1s1-0.4,1-1V61.7z"/>
<path d="M29.1,69.4c-0.6,0-1,0.4-1,1V75c0,0.6,0.4,1,1,1s1-0.4,1-1v-4.6C30.1,69.8,29.6,69.4,29.1,69.4z"/>
<path d="M41.9,62v4.6c0,0.6,0.4,1,1,1s1-0.4,1-1V62c0-0.6-0.4-1-1-1S41.9,61.4,41.9,62z"/>
<path d="M46.3,62.8v12c0,0.6,0.4,1,1,1s1-0.4,1-1v-12c0-0.6-0.4-1-1-1S46.3,62.2,46.3,62.8z"/>
<path d="M63.2,59.7c0-0.6-0.4-1-1-1s-1,0.4-1,1v6.5c0,0.6,0.4,1,1,1s1-0.4,1-1V59.7z"/>
<path d="M62.2,69.3c-0.6,0-1,0.4-1,1v4.6c0,0.6,0.4,1,1,1s1-0.4,1-1v-4.6C63.2,69.8,62.8,69.3,62.2,69.3z"/>
</svg>
