<?xml version="1.0" encoding="utf-8"?>
<!-- Generator: Adobe Illustrator 22.0.0, SVG Export Plug-In . SVG Version: 6.00 Build 0)  -->
<svg version="1.1" id="Layer_1" xmlns="http://www.w3.org/2000/svg" xmlns:xlink="http://www.w3.org/1999/xlink" x="0px" y="0px"
	 viewBox="0 0 94 64" style="enable-background:new 0 0 94 64;" xml:space="preserve">
<path d="M15,44.4l1.9,1.3l10-15L25,29.4L15,44.4z M18,29.4l-10,15l1.9,1.3l10-15L18,29.4z M21,51c-1.1,0-2,0.9-2,2s0.9,2,2,2
	s2-0.9,2-2S22.1,51,21,51z M73,25c1.1,0,2-0.9,2-2s-0.9-2-2-2s-2,0.9-2,2S71.9,25,73,25z M21,25c1.1,0,2-0.9,2-2s-0.9-2-2-2
	s-2,0.9-2,2S19.9,25,21,25z M90,12H4c-2.2,0-4,1.8-4,4v44c0,2.2,1.8,4,4,4h86c2.2,0,4-1.8,4-4V16C94,13.8,92.2,12,90,12z M92,60
	c0,1.1-0.9,2-2,2H4c-1.1,0-2-0.9-2-2V16c0-1.1,0.9-2,2-2h86c1.1,0,2,0.9,2,2V60z M76,29.8c-4.5,0-8.2,3.7-8.2,8.2s3.7,8.2,8.2,8.2
	s8.2-3.7,8.2-8.2S80.5,29.8,76,29.8z M76,43.8c-3.2,0-5.8-2.6-5.8-5.8s2.6-5.8,5.8-5.8s5.8,2.6,5.8,5.8S79.2,43.8,76,43.8z
	 M52.4,24.7c-1.7-0.7-3.5-1-5.4-1c-7.3,0-13.4,5.5-14.2,12.6c-0.1,0.6-0.1,1.2-0.1,1.8c0,7.9,6.4,14.3,14.3,14.3
	c7.9,0,14.3-6.4,14.3-14.3C61.3,32,57.6,26.8,52.4,24.7z M48.3,44.6h-0.5v1.6c0,0.4-0.4,0.8-0.8,0.8c-0.4,0-0.8-0.4-0.8-0.8v-1.6
	h-2.7c-0.4,0-0.8-0.4-0.8-0.8c0-0.4,0.4-0.8,0.8-0.8h4.8c1.2,0,2.1-1,2.1-2.1s-1-2.1-2.1-2.1h-2.6c0,0,0,0,0,0
	c-2-0.1-3.6-1.7-3.6-3.7c0-2.1,1.7-3.7,3.7-3.7h0.5v-1.6c0-0.4,0.4-0.8,0.8-0.8c0.4,0,0.8,0.4,0.8,0.8v1.6h2.5
	c0.4,0,0.8,0.4,0.8,0.8c0,0.4-0.4,0.8-0.8,0.8h-4.6c-1.2,0-2.1,1-2.1,2.1c0,1.2,1,2.1,2.1,2.1h2.5c2.1,0,3.7,1.7,3.7,3.7
	S50.3,44.6,48.3,44.6z M80,17v-1H14v1c0,3.7-1.2,10-9,10H4v22h1c7.8,0,9,6.3,9,10v1h66v-1c0-3.7,1.2-10,9-10h1V29h-1
	C82.8,29,80,22.8,80,17z M88,47c-6,0.4-9.6,4.4-10,11H16c-0.3-6.6-4-10.6-10-11V29c6-0.4,9.6-4.4,10-11H78c0.3,6.1,3.5,12.4,10,13
	L88,47L88,47z M73,51c-1.1,0-2,0.9-2,2s0.9,2,2,2s2-0.9,2-2S74.1,51,73,51z M10.5,8h73C84.3,8,85,7.6,85,7s-0.7-1-1.5-1h-73
	C9.7,6,9,6.4,9,7S9.7,8,10.5,8z M15,2h64c0.8,0,1.5-0.4,1.5-1S79.8,0,79,0H15c-0.8,0-1.5,0.4-1.5,1S14.2,2,15,2z"/>
</svg>
