<?xml version="1.0" encoding="utf-8"?>
<!-- Generator: Adobe Illustrator 22.0.0, SVG Export Plug-In . SVG Version: 6.00 Build 0)  -->
<svg version="1.1"
	 id="Layer_1" xmlns:cc="http://creativecommons.org/ns#" xmlns:dc="http://purl.org/dc/elements/1.1/" xmlns:inkscape="http://www.inkscape.org/namespaces/inkscape" xmlns:rdf="http://www.w3.org/1999/02/22-rdf-syntax-ns#" xmlns:sodipodi="http://sodipodi.sourceforge.net/DTD/sodipodi-0.dtd" xmlns:svg="http://www.w3.org/2000/svg"
	 xmlns="http://www.w3.org/2000/svg" xmlns:xlink="http://www.w3.org/1999/xlink" x="0px" y="0px" viewBox="0 0 34 97.9"
	 style="enable-background:new 0 0 34 97.9;" xml:space="preserve">
<g transform="translate(0,-952.36218)">
	<path d="M5.3,954l-3,6c-0.4,0.8-0.4,1.9,0,2.7l4.6,9.2L0,1033c-0.1,0.9,0.2,1.8,0.8,2.4l14,14c1.1,1.1,3.1,1.1,4.3,0l14-14
		c0.6-0.6,0.9-1.6,0.8-2.4L27,971.9l4.6-9.2c0.4-0.8,0.4-1.9,0-2.7l-3-6c-0.5-1-1.6-1.7-2.7-1.7H8C6.8,952.4,5.7,953.2,5.3,954
		L5.3,954z M9.9,958.4h14.3l1.5,3l-3.5,7H11.9l-3.5-7L9.9,958.4z M12.6,974.4h8.7l6.5,57.9L17,1043.1l-10.9-10.9L12.6,974.4z"/>
</g>
</svg>
