<svg id="Layer_1" data-name="Layer 1" xmlns="http://www.w3.org/2000/svg" viewBox="0 0 49.75 49.75"><path d="M24.88.25A24.63,24.63,0,1,0,49.5,24.88,24.65,24.65,0,0,0,24.88.25Zm0,47.73A23.1,23.1,0,1,1,48,24.88,23.13,23.13,0,0,1,24.88,48Z" style="fill:#8bc052;stroke:#8bc052;stroke-miterlimit:10;stroke-width:0.5px"/><path d="M24,9.18a4.48,4.48,0,0,1,4.47,4.47,4.47,4.47,0,0,1-.23,1.28h6.61a1,1,0,0,1,1,1v6.61a4.39,4.39,0,0,1,1.28-.22,4.47,4.47,0,1,1,0,8.94A4.4,4.4,0,0,1,35.82,31v6.61a1,1,0,0,1-1,1H13.13a1,1,0,0,1-1-1V28.77a1,1,0,0,1,.66-.93,1,1,0,0,1,1.09.37,2.55,2.55,0,1,0,0-2.93,1,1,0,0,1-1.08.37,1,1,0,0,1-.67-.92V15.88a1,1,0,0,1,1-1h6.62a4.47,4.47,0,0,1-.23-1.28A4.48,4.48,0,0,1,24,9.18Zm0,1.91a2.56,2.56,0,0,0-2,4.18,1,1,0,0,1,.14,1,1,1,0,0,1-.87.55H14.09v5.88A4.47,4.47,0,1,1,16,31.22a4.38,4.38,0,0,1-1.91-.46v5.9H33.91V29.47a1,1,0,0,1,.54-.87,1,1,0,0,1,1,.12,2.5,2.5,0,0,0,1.63.59,2.56,2.56,0,1,0-1.63-4.54,1,1,0,0,1-1,.12,1,1,0,0,1-.54-.86V16.84H26.72A1,1,0,0,1,26,15.27a2.47,2.47,0,0,0,.59-1.62A2.55,2.55,0,0,0,24,11.09Z" style="fill:#8bc052"/></svg>