<?xml version="1.0" encoding="utf-8"?>
<!-- Generator: Adobe Illustrator 21.1.0, SVG Export Plug-In . SVG Version: 6.00 Build 0)  -->
<svg version="1.1" id="Layer_1" xmlns="http://www.w3.org/2000/svg" xmlns:xlink="http://www.w3.org/1999/xlink" x="0px" y="0px"
	 viewBox="0 0 77 77" style="enable-background:new 0 0 77 77;" xml:space="preserve">
<style type="text/css">
	.st0{fill:#B59141;stroke:#B59141;stroke-width:2;stroke-miterlimit:10;}
</style>
<g>
	<path class="st0" d="M74.7,30.9c-0.2-0.8-0.4-1.6-0.6-2.4c1.3-2.6,1.9-5.4,1.9-8.4c0-5.1-2-9.9-5.6-13.5C66.8,3,62,1,56.9,1
		c-2.9,0-5.8,0.7-8.4,1.9c-0.8-0.2-1.6-0.4-2.4-0.6c-0.2-0.1-0.5-0.1-0.7-0.2c-2.3-0.5-4.7-0.7-7.2-0.7c-9.9,0-19.3,3.9-26.3,10.9
		C4.9,19.4,1,28.8,1,38.7s3.9,19.3,10.9,26.3c7,7,16.4,10.9,26.3,10.9s19.3-3.9,26.3-10.9c7-7,10.9-16.4,10.9-26.3
		c0-2.4-0.2-4.8-0.7-7.2C74.8,31.3,74.7,31.1,74.7,30.9z M62.9,63.4C56.3,70,47.6,73.7,38.3,73.7S20.2,70,13.6,63.4
		C7,56.8,3.3,48.1,3.3,38.7S7,20.7,13.6,14.1C20.2,7.5,28.9,3.8,38.3,3.8c1.6,0,3.1,0.1,4.6,0.3c0.2,0,0.4,0.1,0.6,0.1
		c0.7,0.1,1.5,0.3,2.2,0.4c-0.8,0.6-1.6,1.2-2.3,2c-3.6,3.6-5.6,8.4-5.6,13.5c0,5.1,2,9.9,5.6,13.5c3.6,3.6,8.4,5.6,13.5,5.6
		c5.1,0,9.9-2,13.5-5.6c0.7-0.7,1.4-1.5,2-2.3c0.2,0.7,0.3,1.5,0.4,2.2c0,0.2,0.1,0.4,0.1,0.6c0.2,1.5,0.3,3.1,0.3,4.6
		C73.2,48.1,69.5,56.8,62.9,63.4z M73,25.3c-0.3,1.1-0.8,2.1-1.4,3.1c-0.7,1.3-1.7,2.6-2.8,3.7c-3.2,3.2-7.5,5-12,5
		c-4.5,0-8.8-1.8-12-5c-3.2-3.2-5-7.5-5-12s1.8-8.8,5-12c1.1-1.1,2.3-2,3.7-2.8c1-0.6,2-1,3.1-1.4c1.7-0.5,3.4-0.8,5.2-0.8
		c4.5,0,8.8,1.8,12,5c3.2,3.2,5,7.5,5,12C73.8,21.9,73.5,23.7,73,25.3z"/>
	<polygon class="st0" points="58.9,17.3 56.8,10.7 54.7,17.3 47.8,17.3 53.4,21.3 51.2,27.9 56.8,23.8 62.4,27.9 60.3,21.3 
		65.9,17.3 	"/>
</g>
</svg>
