<?xml version="1.0" encoding="utf-8"?>
<!-- Generator: Adobe Illustrator 22.0.1, SVG Export Plug-In . SVG Version: 6.00 Build 0)  -->
<svg version="1.1"
	 id="Layer_1" xmlns:cc="http://creativecommons.org/ns#" xmlns:dc="http://purl.org/dc/elements/1.1/" xmlns:inkscape="http://www.inkscape.org/namespaces/inkscape" xmlns:rdf="http://www.w3.org/1999/02/22-rdf-syntax-ns#" xmlns:sodipodi="http://sodipodi.sourceforge.net/DTD/sodipodi-0.dtd" xmlns:svg="http://www.w3.org/2000/svg"
	 xmlns="http://www.w3.org/2000/svg" xmlns:xlink="http://www.w3.org/1999/xlink" x="0px" y="0px" viewBox="0 0 49.8 49.8"
	 style="enable-background:new 0 0 49.8 49.8;" xml:space="preserve">
<style type="text/css">
	.st0{fill:#8BC052;stroke:#8BC052;stroke-width:0.5;stroke-miterlimit:10;}
	.st1{fill:#13A2B0;}
	.st2{fill:#8BC052;stroke:#8BC052;stroke-width:0.25;stroke-miterlimit:10;}
	.st3{fill:none;stroke:#8BC052;stroke-width:2;stroke-miterlimit:10;}
	.st4{fill:#8BC052;stroke:#8BC052;stroke-width:0.6;stroke-miterlimit:10;}
	.st5{fill:#8BC052;}
	.st6{fill:#B59141;}
	.st7{fill:none;stroke:#B59141;stroke-width:2;stroke-miterlimit:10;}
</style>
<g>
	<path class="st6" d="M24.9,0C11.2,0,0,11.2,0,24.9s11.2,24.9,24.9,24.9s24.9-11.2,24.9-24.9S38.6,0,24.9,0z M47.7,24.9
		c0,12.6-10.3,22.9-22.9,22.9C12.3,47.7,2,37.5,2,24.9S12.3,2,24.9,2C37.5,2,47.7,12.3,47.7,24.9z"/>
</g>
<path class="st6" d="M26.8,24.9c0,1.6-1.2,2.8-2.8,2.8c-1.6,0-2.8-1.2-2.8-2.8c0-1.6,1.2-2.8,2.8-2.8C25.6,22.1,26.8,23.3,26.8,24.9
	z M42.9,24.9l-2.6,2.6c-4.1,4.1-9.6,6.3-15.3,6.3h0c0,0,0,0,0,0c0,0,0,0,0,0c-5.7,0-11.3-2.3-15.3-6.3l-2.6-2.6c0,0,0,0,0-0.1
	l2.6-2.6c4.1-4.1,9.6-6.3,15.3-6.3h0c0,0,0,0,0,0c0,0,0,0,0,0c5.7,0,11.3,2.3,15.3,6.3L42.9,24.9C42.9,24.9,42.9,24.9,42.9,24.9z
	 M31.4,23.4c0-2.6-2.1-5.9-7.4-5.9c-4.1,0-7.4,3.3-7.4,7.4c0,4.1,3.3,7.4,7.4,7.4c1.3,0,2.5-0.3,3.6-0.9c0.4,0.4,1,0.7,1.6,0.7
	c1.2,0,2.2-1,2.2-2.2V23.4z"/>
</svg>
