<?xml version="1.0" encoding="utf-8"?>
<!-- Generator: Adobe Illustrator 22.0.1, SVG Export Plug-In . SVG Version: 6.00 Build 0)  -->
<svg version="1.1"
	 id="Layer_1" xmlns:cc="http://creativecommons.org/ns#" xmlns:dc="http://purl.org/dc/elements/1.1/" xmlns:inkscape="http://www.inkscape.org/namespaces/inkscape" xmlns:rdf="http://www.w3.org/1999/02/22-rdf-syntax-ns#" xmlns:sodipodi="http://sodipodi.sourceforge.net/DTD/sodipodi-0.dtd" xmlns:svg="http://www.w3.org/2000/svg"
	 xmlns="http://www.w3.org/2000/svg" xmlns:xlink="http://www.w3.org/1999/xlink" x="0px" y="0px" viewBox="0 0 49.8 49.8"
	 style="enable-background:new 0 0 49.8 49.8;" xml:space="preserve">
<style type="text/css">
	.st0{fill:#8BC052;stroke:#8BC052;stroke-width:0.5;stroke-miterlimit:10;}
	.st1{fill:#13A2B0;}
	.st2{fill:#8BC052;stroke:#8BC052;stroke-width:0.25;stroke-miterlimit:10;}
	.st3{fill:none;stroke:#8BC052;stroke-width:2;stroke-miterlimit:10;}
	.st4{fill:#8BC052;stroke:#8BC052;stroke-width:0.6;stroke-miterlimit:10;}
	.st5{fill:#8BC052;}
	.st6{fill:none;}
	.st7{fill:#B59141;}
</style>
<g>
	<path class="st6" d="M24.9,2.5c-12.3,0-22.4,10-22.4,22.4c0,12.3,10,22.4,22.4,22.4c12.3,0,22.4-10,22.4-22.4
		C47.2,12.5,37.2,2.5,24.9,2.5z M40.2,27.6c-4.1,4.1-9.6,6.3-15.3,6.3h0c0,0,0,0,0,0c0,0,0,0,0,0c-5.7,0-11.3-2.3-15.3-6.3l-2.6-2.6
		c0,0,0,0,0-0.1l2.6-2.6c4.1-4.1,9.6-6.3,15.3-6.3h0c0,0,0,0,0,0c0,0,0,0,0,0c5.7,0,11.3,2.3,15.3,6.3l2.6,2.6c0,0,0,0,0,0.1
		L40.2,27.6z"/>
	<path class="st6" d="M24,17.5c-4.1,0-7.4,3.3-7.4,7.4c0,4.1,3.3,7.4,7.4,7.4c1.3,0,2.5-0.3,3.6-0.9c0.4,0.4,1,0.7,1.6,0.7
		c1.2,0,2.2-1,2.2-2.2v-6.4C31.4,20.8,29.3,17.5,24,17.5z M24,27.7c-1.6,0-2.8-1.2-2.8-2.8s1.2-2.8,2.8-2.8c1.6,0,2.8,1.2,2.8,2.8
		S25.6,27.7,24,27.7z"/>
	<path class="st7" d="M24,22.1c-1.6,0-2.8,1.2-2.8,2.8s1.2,2.8,2.8,2.8c1.6,0,2.8-1.2,2.8-2.8S25.6,22.1,24,22.1z"/>
	<path class="st7" d="M40.2,22.2c-4.1-4.1-9.6-6.3-15.3-6.3c0,0,0,0,0,0c0,0,0,0,0,0h0c-5.7,0-11.2,2.3-15.3,6.3l-2.6,2.6
		c0,0,0,0,0,0.1l2.6,2.6c4.1,4.1,9.6,6.3,15.3,6.3c0,0,0,0,0,0c0,0,0,0,0,0h0c5.7,0,11.2-2.3,15.3-6.3l2.6-2.6c0,0,0,0,0-0.1
		L40.2,22.2z M31.4,29.9c0,1.2-1,2.2-2.2,2.2c-0.6,0-1.2-0.3-1.6-0.7c-1.1,0.6-2.3,0.9-3.6,0.9c-4.1,0-7.4-3.3-7.4-7.4
		c0-4.1,3.3-7.4,7.4-7.4c5.2,0,7.4,3.3,7.4,5.9V29.9z"/>
	<path class="st7" d="M24.9,0C11.2,0,0,11.2,0,24.9s11.2,24.9,24.9,24.9s24.9-11.2,24.9-24.9S38.6,0,24.9,0z M24.9,47.2
		c-12.3,0-22.4-10-22.4-22.4c0-12.3,10-22.4,22.4-22.4c12.3,0,22.4,10,22.4,22.4C47.2,37.2,37.2,47.2,24.9,47.2z"/>
</g>
</svg>
