<?xml version="1.0" encoding="utf-8"?>
<!-- Generator: Adobe Illustrator 21.1.0, SVG Export Plug-In . SVG Version: 6.00 Build 0)  -->
<svg version="1.1" xmlns="http://www.w3.org/2000/svg" xmlns:xlink="http://www.w3.org/1999/xlink" x="0px" y="0px"
	 viewBox="0 0 57 57" style="enable-background:new 0 0 57 57;" xml:space="preserve">
<style type="text/css">
	.st0{display:none;}
	.st1{display:inline;}
	.st2{fill:#1E1E1E;}
	.st3{fill:#B59141;stroke:#B59141;stroke-width:2;stroke-miterlimit:10;}
</style>
<g id="Layer_1" class="st0">
	<g class="st1">
		<path class="st2" d="M-44.1,77.8c-7.5,0-14.5-2.9-19.8-8.2s-8.2-12.3-8.2-19.8c0-7.5,2.9-14.5,8.2-19.8c5.3-5.3,12.3-8.2,19.8-8.2
			h1l0,27l27,0v1c0,7.5-2.9,14.5-8.2,19.8C-29.6,74.9-36.6,77.8-44.1,77.8L-44.1,77.8C-44.1,77.8-44.1,77.8-44.1,77.8z M-45.1,23.8
			c-6.6,0.2-12.8,2.9-17.4,7.6c-4.9,4.9-7.6,11.4-7.6,18.4c0,6.9,2.7,13.5,7.6,18.4c4.9,4.9,11.4,7.6,18.4,7.6c0,0,0,0,0,0h0
			c6.9,0,13.5-2.7,18.4-7.6c4.7-4.7,7.3-10.8,7.6-17.4l-27,0V23.8z"/>
	</g>
	<g class="st1">
		<path class="st2" d="M-16.1,50.8h-29v-29h1c7.5,0,14.6,2.9,19.8,8.2c5.3,5.3,8.2,12.3,8.2,19.8V50.8z M-43.1,48.8h25
			c-0.2-6.6-2.9-12.7-7.6-17.4c-4.7-4.7-10.8-7.4-17.4-7.6V48.8z"/>
	</g>
</g>
<g id="Layer_2">
	<g>
		<path class="st3" d="M28.5,56.5c-7.5,0-14.5-2.9-19.8-8.2C3.4,43,0.5,36,0.5,28.5S3.4,14,8.7,8.7C14,3.4,21,0.5,28.5,0.5
			S43,3.4,48.3,8.7c5.3,5.3,8.2,12.3,8.2,19.8S53.6,43,48.3,48.3C43,53.6,36,56.5,28.5,56.5z M28.5,2.2c-7,0-13.6,2.7-18.6,7.7
			c-5,5-7.7,11.5-7.7,18.6S5,42.1,9.9,47.1c5,5,11.5,7.7,18.6,7.7s13.6-2.7,18.6-7.7c5-5,7.7-11.5,7.7-18.6S52,14.9,47.1,9.9
			C42.1,5,35.5,2.2,28.5,2.2z"/>
	</g>
</g>
</svg>
