<?xml version="1.0" encoding="utf-8"?>
<!-- Generator: Adobe Illustrator 21.1.0, SVG Export Plug-In . SVG Version: 6.00 Build 0)  -->
<svg version="1.1" id="Layer_1" xmlns="http://www.w3.org/2000/svg" xmlns:xlink="http://www.w3.org/1999/xlink" x="0px" y="0px"
	 viewBox="0 0 77 77" style="enable-background:new 0 0 77 77;" xml:space="preserve">
<style type="text/css">
	.st0{display:none;}
	.st1{display:inline;}
	.st2{fill:#1E1E1E;}
	.st3{fill:#B59141;stroke:#B59141;stroke-width:2;stroke-miterlimit:10;}
</style>
<g id="Layer_2">
	<g>
		<path class="st3" d="M38.5,76c-10,0-19.4-3.9-26.5-11S1,48.5,1,38.5S4.9,19.1,12,12S28.5,1,38.5,1S57.9,4.9,65,12s11,16.5,11,26.5
			S72.1,57.9,65,65S48.5,76,38.5,76z M38.5,3.3c-9.4,0-18.2,3.6-24.9,10.3S3.3,29,3.3,38.5S7,56.7,13.6,63.4
			c6.7,6.7,15.4,10.3,24.9,10.3s18.2-3.6,24.9-10.3S73.7,48,73.7,38.5S70,20.3,63.4,13.6C56.7,7,47.9,3.3,38.5,3.3z"/>
	</g>
</g>
</svg>
