<svg id="Layer_1" data-name="Layer 1" xmlns="http://www.w3.org/2000/svg" viewBox="0 0 49.76 49.76"><defs><style>.cls-1,.cls-2{fill:#8bc052;}.cls-1{stroke:#8bc052;stroke-miterlimit:10;stroke-width:0.5px;}</style></defs><title>layers-icon</title><path class="cls-1" d="M24.88,0.25A24.63,24.63,0,1,0,49.5,24.89h0A24.65,24.65,0,0,0,24.88.25Zm0,47.73A23.1,23.1,0,1,1,48,24.88,23.1,23.1,0,0,1,24.88,48v0Z" transform="translate(0.01 0)"/><polygon class="cls-2" points="24.9 31.75 9.04 23.84 7.93 26.1 24.9 34.61 41.9 26.1 40.79 23.84 24.9 31.75"/><path class="cls-2" d="M42.77,19L24.89,9.19,7,19l17.89,9.79ZM24.89,12.05L37.49,19l-12.6,6.93L12.28,19Z" transform="translate(0.01 0)"/><polygon class="cls-2" points="24.9 37.89 9.04 29.94 7.93 32.24 24.9 40.71 41.9 32.24 40.79 29.94 24.9 37.89"/></svg>