<?xml version="1.0" encoding="utf-8"?>
<!-- Generator: Adobe Illustrator 22.0.1, SVG Export Plug-In . SVG Version: 6.00 Build 0)  -->
<svg version="1.1"
	 id="Layer_1" xmlns:cc="http://creativecommons.org/ns#" xmlns:dc="http://purl.org/dc/elements/1.1/" xmlns:inkscape="http://www.inkscape.org/namespaces/inkscape" xmlns:rdf="http://www.w3.org/1999/02/22-rdf-syntax-ns#" xmlns:sodipodi="http://sodipodi.sourceforge.net/DTD/sodipodi-0.dtd" xmlns:svg="http://www.w3.org/2000/svg"
	 xmlns="http://www.w3.org/2000/svg" xmlns:xlink="http://www.w3.org/1999/xlink" x="0px" y="0px" viewBox="0 0 49.8 49.8"
	 style="enable-background:new 0 0 49.8 49.8;" xml:space="preserve">
<style type="text/css">
	.st0{fill:#8BC052;stroke:#8BC052;stroke-width:0.5;stroke-miterlimit:10;}
	.st1{fill:#13A2B0;}
	.st2{fill:#8BC052;stroke:#8BC052;stroke-width:0.25;stroke-miterlimit:10;}
	.st3{fill:none;stroke:#8BC052;stroke-width:2;stroke-miterlimit:10;}
	.st4{fill:#8BC052;stroke:#8BC052;stroke-width:0.6;stroke-miterlimit:10;}
	.st5{fill:#8BC052;}
	.st6{fill:none;}
	.st7{fill:#B59141;}
</style>
<g>
	<path class="st6" d="M20.2,25.5c-0.3,0-0.5,0.1-0.8,0.3C19.6,25.6,19.9,25.5,20.2,25.5z"/>
	<path class="st6" d="M24.9,2.5c-12.3,0-22.4,10-22.4,22.4c0,12.3,10,22.4,22.4,22.4c12.3,0,22.4-10,22.4-22.4
		C47.2,12.5,37.2,2.5,24.9,2.5z M26.6,31.5L19,39c-0.5,0.5-1.2,0.8-1.9,0.8c-0.7,0-1.4-0.3-1.9-0.8l-4.5-4.5c-1-1-1-2.7,0-3.7
		l7.5-7.5c0.5-0.5,1.2-0.8,1.9-0.8c0.7,0,1.4,0.3,1.9,0.8l0.8,0.8l0.4,0.4l-0.4,0.4l-1.5,1.5l-0.4,0.4l-0.4-0.4
		c-0.1-0.1-0.2-0.2-0.4-0.2c-0.2,0-0.3,0.1-0.4,0.2l-6,6c-0.2,0.2-0.2,0.6,0,0.8l3,3c0.1,0.1,0.2,0.2,0.4,0.2c0.2,0,0.3-0.1,0.4-0.2
		l6-6c0.2-0.2,0.2-0.6,0-0.8l-0.3-0.4l0.3-0.3l1.5-1.5l0.4-0.4l0.4,0.4l0.8,0.8c0.5,0.5,0.8,1.2,0.8,1.9
		C27.4,30.3,27.1,31,26.6,31.5z M28.5,19c0.3-0.3,0.7-0.5,1.1-0.5c0.4,0,0.8,0.2,1.1,0.4c0.6,0.6,0.6,1.6,0,2.2l-9.1,9.1
		c-0.3,0.3-0.7,0.5-1.1,0.5c-0.4,0-0.8-0.2-1.1-0.4c-0.6-0.6-0.6-1.6,0-2.2L28.5,19z M39,19l-7.5,7.5c-0.5,0.5-1.2,0.8-1.9,0.8
		c-0.7,0-1.4-0.3-1.9-0.8L27,25.8l-0.4-0.4l0.4-0.4l1.5-1.5l0.4-0.4l0.4,0.4c0.1,0.1,0.2,0.2,0.4,0.2c0.2,0,0.3-0.1,0.4-0.2l6-6
		c0.2-0.2,0.2-0.6,0-0.8l-3-3c-0.1-0.1-0.2-0.2-0.4-0.2c-0.2,0-0.3,0.1-0.4,0.2l-6,6c-0.2,0.2-0.2,0.6,0,0.8l0.3,0.3l-0.3,0.3
		l-1.5,1.5l-0.4,0.4L24,22.8L23.2,22c-1-1-1-2.7,0-3.7l7.5-7.5c0.5-0.5,1.2-0.8,1.9-0.8s1.4,0.3,1.9,0.8l4.5,4.5
		C40,16.3,40,18,39,19z"/>
	<path class="st7" d="M19.4,30.3c0.3,0.3,0.7,0.4,1.1,0.4c0.4,0,0.8-0.2,1.1-0.5l9.1-9.1c0.6-0.6,0.6-1.6,0-2.2
		c-0.3-0.3-0.7-0.4-1.1-0.4c-0.4,0-0.8,0.2-1.1,0.5l-9.1,9.1C18.8,28.8,18.8,29.7,19.4,30.3z"/>
	<path class="st7" d="M34.5,10.7C34,10.2,33.3,10,32.6,10s-1.4,0.3-1.9,0.8l-7.5,7.5c-1,1-1,2.7,0,3.7l0.8,0.8l0.4,0.4l0.4-0.4
		l1.5-1.5l0.3-0.3l-0.3-0.3c-0.2-0.2-0.2-0.6,0-0.8l6-6c0.1-0.1,0.3-0.2,0.4-0.2c0.2,0,0.3,0.1,0.4,0.2l3,3c0.2,0.2,0.2,0.6,0,0.8
		l-6,6c-0.1,0.1-0.3,0.2-0.4,0.2c-0.2,0-0.3-0.1-0.4-0.2l-0.4-0.4l-0.4,0.4L27,25.1l-0.4,0.4l0.4,0.4l0.8,0.8
		c0.5,0.5,1.2,0.8,1.9,0.8c0.7,0,1.4-0.3,1.9-0.8L39,19c1-1,1-2.7,0-3.7L34.5,10.7z"/>
	<path class="st7" d="M25.8,27l-0.4-0.4L25.1,27l-1.5,1.5l-0.3,0.3l0.3,0.4c0.2,0.2,0.2,0.6,0,0.8l-6,6c-0.1,0.1-0.3,0.2-0.4,0.2
		c-0.2,0-0.3-0.1-0.4-0.2l-3-3c-0.2-0.2-0.2-0.6,0-0.8l6-6c0.1-0.1,0.3-0.2,0.4-0.2c0.2,0,0.3,0.1,0.4,0.2l0.4,0.4l0.4-0.4l1.5-1.5
		l0.4-0.4L22.8,24L22,23.2c-0.5-0.5-1.2-0.8-1.9-0.8c-0.7,0-1.4,0.3-1.9,0.8l-7.5,7.5c-1,1-1,2.7,0,3.7l4.5,4.5
		c0.5,0.5,1.2,0.8,1.9,0.8c0.7,0,1.4-0.3,1.9-0.8l7.6-7.5c0.5-0.5,0.8-1.2,0.8-1.9c0-0.7-0.3-1.4-0.8-1.9L25.8,27z M19.4,25.8
		c0.2-0.2,0.5-0.3,0.8-0.3C19.9,25.5,19.6,25.6,19.4,25.8z"/>
	<path class="st7" d="M24.9,0C11.2,0,0,11.2,0,24.9s11.2,24.9,24.9,24.9s24.9-11.2,24.9-24.9S38.6,0,24.9,0z M47.2,24.9
		c0,12.3-10,22.4-22.4,22.4c-12.3,0-22.4-10-22.4-22.4c0-12.3,10-22.4,22.4-22.4C37.2,2.5,47.2,12.5,47.2,24.9z"/>
</g>
</svg>
