<?xml version="1.0" encoding="utf-8"?>
<!-- Generator: Adobe Illustrator 22.0.1, SVG Export Plug-In . SVG Version: 6.00 Build 0)  -->
<svg version="1.1"
	 id="Layer_1" xmlns:cc="http://creativecommons.org/ns#" xmlns:dc="http://purl.org/dc/elements/1.1/" xmlns:inkscape="http://www.inkscape.org/namespaces/inkscape" xmlns:rdf="http://www.w3.org/1999/02/22-rdf-syntax-ns#" xmlns:sodipodi="http://sodipodi.sourceforge.net/DTD/sodipodi-0.dtd" xmlns:svg="http://www.w3.org/2000/svg"
	 xmlns="http://www.w3.org/2000/svg" xmlns:xlink="http://www.w3.org/1999/xlink" x="0px" y="0px" viewBox="0 0 49.8 49.8"
	 style="enable-background:new 0 0 49.8 49.8;" xml:space="preserve">
<style type="text/css">
	.st0{fill:#8BC052;stroke:#8BC052;stroke-width:0.5;stroke-miterlimit:10;}
	.st1{fill:#13A2B0;}
	.st2{fill:#8BC052;stroke:#8BC052;stroke-width:0.25;stroke-miterlimit:10;}
	.st3{fill:none;stroke:#8BC052;stroke-width:2;stroke-miterlimit:10;}
	.st4{fill:#8BC052;stroke:#8BC052;stroke-width:0.6;stroke-miterlimit:10;}
	.st5{fill:#8BC052;}
	.st6{fill:#B59141;}
	.st7{fill:none;stroke:#B59141;stroke-width:2;stroke-miterlimit:10;}
</style>
<g>
	<path class="st6" d="M24.9,0C11.2,0,0,11.2,0,24.9s11.2,24.9,24.9,24.9s24.9-11.2,24.9-24.9S38.6,0,24.9,0z M47.7,24.9
		c0,12.6-10.3,22.9-22.9,22.9C12.3,47.7,2,37.5,2,24.9S12.3,2,24.9,2C37.5,2,47.7,12.3,47.7,24.9z"/>
</g>
<g>
	<path class="st6" d="M38.7,18.6l-7.5,7.5c-0.8,0.8-2.2,0.8-3,0l-0.8-0.8l1.5-1.5c0.4,0.4,1.1,0.4,1.5,0l6-6c0.4-0.4,0.4-1.1,0-1.5
		l-3-3c-0.4-0.4-1.1-0.4-1.5,0l-6,6c-0.4,0.4-0.4,1.1,0,1.5l-1.5,1.5l-0.8-0.8c-0.8-0.8-0.8-2.2,0-3l7.5-7.5c0.8-0.8,2.2-0.8,3,0
		l4.5,4.5C39.5,16.5,39.5,17.8,38.7,18.6z M19.8,30c-0.4-0.4-0.4-1.1,0-1.5l9.1-9.1c0.4-0.4,1.1-0.4,1.5,0c0.4,0.4,0.4,1.1,0,1.5
		L21.3,30C20.9,30.4,20.2,30.4,19.8,30z M19.4,25.8l-6,6c-0.4,0.4-0.4,1.1,0,1.5l3,3c0.4,0.4,1.1,0.4,1.5,0l6-6
		c0.4-0.4,0.4-1.1,0-1.5l1.5-1.5l0.8,0.8c0.8,0.8,0.8,2.2,0,3l-7.6,7.5c-0.8,0.8-2.2,0.8-3,0l-4.5-4.5c-0.8-0.8-0.8-2.2,0-3l7.5-7.5
		c0.8-0.8,2.2-0.8,3,0l0.8,0.8l-1.5,1.5C20.5,25.4,19.8,25.4,19.4,25.8z"/>
</g>
</svg>
