<?xml version="1.0" encoding="utf-8"?>
<!-- Generator: Adobe Illustrator 22.0.1, SVG Export Plug-In . SVG Version: 6.00 Build 0)  -->
<svg version="1.1"
	 id="Layer_1" xmlns:cc="http://creativecommons.org/ns#" xmlns:dc="http://purl.org/dc/elements/1.1/" xmlns:inkscape="http://www.inkscape.org/namespaces/inkscape" xmlns:rdf="http://www.w3.org/1999/02/22-rdf-syntax-ns#" xmlns:sodipodi="http://sodipodi.sourceforge.net/DTD/sodipodi-0.dtd" xmlns:svg="http://www.w3.org/2000/svg"
	 xmlns="http://www.w3.org/2000/svg" xmlns:xlink="http://www.w3.org/1999/xlink" x="0px" y="0px" viewBox="0 0 49.8 49.8"
	 style="enable-background:new 0 0 49.8 49.8;" xml:space="preserve">
<style type="text/css">
	.st0{fill:#8BC052;stroke:#8BC052;stroke-width:0.5;stroke-miterlimit:10;}
	.st1{fill:#13A2B0;}
	.st2{fill:#8BC052;stroke:#8BC052;stroke-width:0.25;stroke-miterlimit:10;}
	.st3{fill:none;stroke:#8BC052;stroke-width:2;stroke-miterlimit:10;}
	.st4{fill:#8BC052;stroke:#8BC052;stroke-width:0.6;stroke-miterlimit:10;}
	.st5{fill:#8BC052;}
	.st6{fill:none;}
	.st7{fill:#B59141;}
</style>
<g>
	<path class="st6" d="M24.6,2.5c-12.3,0-22.4,10-22.4,22.4c0,12.3,10,22.4,22.4,22.4c12.3,0,22.4-10,22.4-22.4
		C47,12.5,36.9,2.5,24.6,2.5z M38.1,14.8L25.4,38.2c-0.2,0.5-0.7,0.8-1.2,0.8h-0.2h0l0,0c-0.6-0.1-1.1-0.6-1.2-1.2l-1.7-11.3
		l-10.7-3.9c-0.6-0.2-0.9-0.7-0.9-1.4c0-0.7,0.5-1.2,1-1.3l26-7.2c0.1,0,0.2,0,0.4,0c0.4,0,0.8,0.2,1.1,0.5
		C38.3,13.7,38.3,14.3,38.1,14.8z"/>
	<path class="st6" d="M23.9,25.2l1.2,8l9.1-16.8l-18.6,5.1l7.4,2.6C23.4,24.3,23.8,24.8,23.9,25.2z"/>
	<path class="st7" d="M36.9,12.8c-0.1,0-0.2,0-0.4,0l-26,7.2c-0.6,0.1-1,0.7-1,1.3c0,0.6,0.4,1.2,0.9,1.4l10.7,3.9l1.7,11.3
		c0.1,0.6,0.6,1.1,1.2,1.2l0,0h0h0.2c0.5,0,1-0.3,1.2-0.8l12.7-23.4c0.2-0.5,0.2-1.1-0.1-1.5C37.7,13,37.3,12.8,36.9,12.8z
		 M34.1,16.4L25,33.2l-1.2-8c-0.1-0.5-0.4-0.9-0.9-1.1l-7.4-2.6L34.1,16.4z"/>
	<path class="st7" d="M24.6,0C10.9,0-0.3,11.2-0.3,24.9s11.2,24.9,24.9,24.9s24.9-11.2,24.9-24.9S38.3,0,24.6,0z M47,24.9
		c0,12.3-10,22.4-22.4,22.4c-12.3,0-22.4-10-22.4-22.4c0-12.3,10-22.4,22.4-22.4C36.9,2.5,47,12.5,47,24.9z"/>
</g>
</svg>
