<?xml version="1.0" encoding="utf-8"?>
<!-- Generator: Adobe Illustrator 22.0.1, SVG Export Plug-In . SVG Version: 6.00 Build 0)  -->
<svg version="1.1"
	 id="Layer_1" xmlns:cc="http://creativecommons.org/ns#" xmlns:dc="http://purl.org/dc/elements/1.1/" xmlns:inkscape="http://www.inkscape.org/namespaces/inkscape" xmlns:rdf="http://www.w3.org/1999/02/22-rdf-syntax-ns#" xmlns:sodipodi="http://sodipodi.sourceforge.net/DTD/sodipodi-0.dtd" xmlns:svg="http://www.w3.org/2000/svg"
	 xmlns="http://www.w3.org/2000/svg" xmlns:xlink="http://www.w3.org/1999/xlink" x="0px" y="0px" viewBox="0 0 49.8 49.8"
	 style="enable-background:new 0 0 49.8 49.8;" xml:space="preserve">
<style type="text/css">
	.st0{fill:#8BC052;stroke:#8BC052;stroke-width:0.5;stroke-miterlimit:10;}
	.st1{fill:#13A2B0;}
	.st2{fill:#8BC052;stroke:#8BC052;stroke-width:0.25;stroke-miterlimit:10;}
	.st3{fill:none;stroke:#8BC052;stroke-width:2;stroke-miterlimit:10;}
	.st4{fill:#8BC052;stroke:#8BC052;stroke-width:0.6;stroke-miterlimit:10;}
	.st5{fill:#8BC052;}
	.st6{fill:#B59141;}
	.st7{fill:none;stroke:#B59141;stroke-width:2;stroke-miterlimit:10;}
</style>
<g>
	<path class="st6" d="M24.6,0C10.9,0-0.3,11.2-0.3,24.9s11.2,24.9,24.9,24.9s24.9-11.2,24.9-24.9S38.3,0,24.6,0z M47.5,24.9
		c0,12.6-10.3,22.9-22.9,22.9C12,47.7,1.8,37.5,1.8,24.9S12,2,24.6,2C37.2,2,47.5,12.3,47.5,24.9z"/>
</g>
<g>
	<path class="st6" d="M24.2,38.5c-0.1,0-0.1,0-0.2,0c-0.4-0.1-0.7-0.4-0.7-0.7l-1.7-11.6l-11-4c-0.4-0.1-0.6-0.5-0.6-0.9
		c0-0.4,0.3-0.7,0.6-0.8l26-7.2c0.3-0.1,0.7,0,0.9,0.3s0.2,0.7,0.1,1L25,38C24.8,38.3,24.6,38.5,24.2,38.5z M13.9,21.4l8.9,3.2
		c0.3,0.1,0.5,0.4,0.6,0.7l1.4,9.4l10.4-19.2L13.9,21.4z"/>
</g>
</svg>
