<svg id="Layer_1" data-name="Layer 1" xmlns="http://www.w3.org/2000/svg" viewBox="0 0 49.25 49.25"><title>Icons</title><path d="M34.59,20.79a.78.78,0,0,0-.56-.24.8.8,0,0,0-.79.78v3.44a8.61,8.61,0,0,1-17.22,0V21.35a.79.79,0,0,0-.78-.8.79.79,0,0,0-.8.78v3.44a10.23,10.23,0,0,0,9.34,10.14h.06v4H20.35a.79.79,0,1,0,0,1.58H28.9a.79.79,0,1,0,0-1.58H25.41v-4h.06a10.23,10.23,0,0,0,9.34-10.14V21.35A.79.79,0,0,0,34.59,20.79Z" style="fill:#8bc052;stroke:#8bc052;stroke-miterlimit:10;stroke-width:0.5px"/><path d="M24.63,31.09A6.35,6.35,0,0,0,31,24.75v-9.4a6.34,6.34,0,1,0-12.68,0v9.4A6.35,6.35,0,0,0,24.63,31.09Zm-4.76-6.34v-9.4a4.76,4.76,0,0,1,9.53,0v9.4a4.76,4.76,0,1,1-9.53,0Z" style="fill:#8bc052;stroke:#8bc052;stroke-miterlimit:10;stroke-width:0.5px"/><path d="M24.63,0A24.63,24.63,0,1,0,49.25,24.63,24.65,24.65,0,0,0,24.63,0Zm0,47.73a23.1,23.1,0,1,1,23.1-23.1A23.13,23.13,0,0,1,24.63,47.73Z" style="fill:#8bc052;stroke:#8bc052;stroke-miterlimit:10;stroke-width:0.5px"/></svg>