<svg id="Layer_1" data-name="Layer 1" xmlns="http://www.w3.org/2000/svg" viewBox="0 0 49.76 49.76"><defs><style>.cls-1,.cls-2{fill:#8bc052;}.cls-1{stroke:#8bc052;stroke-miterlimit:10;stroke-width:0.5px;}</style></defs><title>paper-icon</title><path class="cls-1" d="M24.88,0.25A24.63,24.63,0,1,0,49.5,24.89h0A24.65,24.65,0,0,0,24.88.25Zm0,47.73A23.1,23.1,0,1,1,48,24.88,23.1,23.1,0,0,1,24.88,48v0Z" transform="translate(0.01 0)"/><path class="cls-2" d="M34.47,40.38H15.57A2.73,2.73,0,0,1,13,37.52V10a2.73,2.73,0,0,1,2.57-2.86h14.7a0.84,0.84,0,0,1,.62.29L36.78,14a1,1,0,0,1,.26.69V37.52A2.73,2.73,0,0,1,34.47,40.38ZM15.57,9.13a0.87,0.87,0,0,0-.82.91V37.52a0.87,0.87,0,0,0,.82.91h18.9a0.88,0.88,0,0,0,.82-0.91V15.11l-5.38-6H15.57Z" transform="translate(0.01 0)"/><path class="cls-2" d="M36.16,15.69H30.28a0.93,0.93,0,0,1-.88-1V8.16a1,1,0,0,1,.54-0.9,0.81,0.81,0,0,1,1,.21L36.78,14A1.06,1.06,0,0,1,37,15.08,0.88,0.88,0,0,1,36.16,15.69Zm-5-2H34l-2.89-3.22v3.22Z" transform="translate(0.01 0)"/></svg>