<?xml version="1.0" encoding="utf-8"?>
<!-- Generator: Adobe Illustrator 21.1.0, SVG Export Plug-In . SVG Version: 6.00 Build 0)  -->
<svg version="1.1" id="Layer_1" xmlns="http://www.w3.org/2000/svg" xmlns:xlink="http://www.w3.org/1999/xlink" x="0px" y="0px"
	 viewBox="0 0 75 75" style="enable-background:new 0 0 75 75;" xml:space="preserve">
<style type="text/css">
	.st0{display:none;}
	.st1{display:inline;}
	.st2{fill:#1E1E1E;}
	.st3{fill:#B59141;stroke:#B59141;stroke-width:2;stroke-miterlimit:10;}
	.st4{fill:#B59141;}
	.st5{fill:#FFFFFF;}
</style>
<g>
	<g>
		<path class="st4" d="M42.7,4.7C49.6,5.8,55.9,9,60.9,14c5,5,8.2,11.3,9.3,18.3H42.7V4.7 M40.7,2.5v31.8h31.8
			c-0.7-8.2-4.3-15.8-10.2-21.7C56.5,6.7,48.9,3.2,40.7,2.5L40.7,2.5z"/>
	</g>
	<g>
		<path class="st4" d="M32.3,4.7v29.6v5.2v1.2v2h2h35.9c-1.1,6.9-4.3,13.2-9.3,18.3c-6.3,6.3-14.6,9.7-23.4,9.7
			c-8.9,0-17.2-3.4-23.4-9.7c-6.3-6.3-9.7-14.6-9.7-23.4S7.8,20.3,14.1,14C19.1,9,25.4,5.8,32.3,4.7 M34.3,2.5
			c-8.2,0.7-15.8,4.3-21.7,10.2C6,19.3,2.3,28.1,2.3,37.5S6,55.7,12.6,62.3c6.6,6.6,15.5,10.3,24.9,10.3S55.7,69,62.4,62.3
			c5.9-5.9,9.4-13.5,10.2-21.7H34.3v-1.2v-5.2V2.5L34.3,2.5z"/>
	</g>
	<g>
		<path class="st5" d="M39.7,35.3V1c0.3,0,0.6,0,0.9,0.1c8.6,0.7,16.6,4.5,22.7,10.6c6.1,6.1,9.8,14.2,10.6,22.7
			c0,0.3,0,0.6,0.1,0.9H39.7z M39.7,35.3h33.9l-0.1-1.1c-0.8-8.5-4.4-16.2-10.4-22.3C57,5.8,49.3,2.2,40.8,1.5l-1.1-0.1V35.3z"/>
		<path class="st4" d="M38.7,0v2.3v31.9v2h2h31.9H75c0-0.7-0.1-1.3-0.1-2c-0.7-8.8-4.5-17-10.8-23.3C57.7,4.6,49.5,0.8,40.7,0.1
			C40,0.1,39.3,0,38.7,0L38.7,0z M40.7,34.3V2.5c8.2,0.7,15.8,4.3,21.7,10.2c5.9,5.9,9.4,13.5,10.2,21.7H40.7L40.7,34.3z"/>
	</g>
	<g>
		<path class="st5" d="M37.5,74c-9.7,0-18.9-3.8-25.8-10.7C4.8,56.4,1,47.2,1,37.5c0-9.7,3.8-18.9,10.7-25.8
			c6.1-6.1,14.2-9.8,22.7-10.6c0.3,0,0.6,0,0.9-0.1v38.6h38.6c0,0.3,0,0.6-0.1,0.9c-0.7,8.6-4.5,16.6-10.6,22.7
			C56.4,70.2,47.2,74,37.5,74z M34.2,1.5C25.7,2.2,18,5.8,11.9,11.9C5.1,18.7,1.3,27.8,1.3,37.5S5.1,56.2,11.9,63
			c6.8,6.8,15.9,10.6,25.6,10.6c9.7,0,18.7-3.8,25.6-10.6c6.1-6.1,9.7-13.8,10.4-22.3l0.1-1.1H35.3V1.4L34.2,1.5z"/>
		<path class="st4" d="M36.3,0c-0.7,0-1.3,0.1-2,0.1C25.5,0.8,17.3,4.6,11,11C3.9,18,0,27.5,0,37.5c0,10,3.9,19.4,11,26.5
			c7.1,7.1,16.5,11,26.5,11S56.9,71.1,64,64c6.3-6.3,10.1-14.5,10.8-23.3c0.1-0.7,0.1-1.3,0.1-2h-2.3H40.7h-4.4v-1.2v-1.2v-2V2.3V0
			L36.3,0z M37.5,72.6c-9.4,0-18.2-3.7-24.9-10.3C6,55.7,2.3,46.9,2.3,37.5c0-9.4,3.7-18.2,10.3-24.9c5.9-5.9,13.5-9.4,21.7-10.2
			v31.8v5.2v1.2h38.2c-0.7,8.2-4.3,15.8-10.2,21.7C55.7,69,46.9,72.6,37.5,72.6L37.5,72.6z"/>
	</g>
</g>
</svg>
