<?xml version="1.0" encoding="utf-8"?>
<!-- Generator: Adobe Illustrator 21.1.0, SVG Export Plug-In . SVG Version: 6.00 Build 0)  -->
<svg version="1.1" id="Layer_1" xmlns="http://www.w3.org/2000/svg" xmlns:xlink="http://www.w3.org/1999/xlink" x="0px" y="0px"
	 viewBox="0 0 77 77" style="enable-background:new 0 0 77 77;" xml:space="preserve">
<style type="text/css">
	.st0{fill:#B59141;}
</style>
<path class="st0" d="M65.7,11.3C58.4,4,48.8,0,38.5,0C28.2,0,18.6,4,11.3,11.3S0,28.2,0,38.5c0,10.3,4,19.9,11.3,27.2
	C18.6,73,28.2,77,38.5,77c10.3,0,19.9-4,27.2-11.3S77,48.8,77,38.5C77,28.2,73,18.6,65.7,11.3z M38.5,72.7c-9.3,0-17.6-3.5-24.2-10
	c-6.5-6.6-10-15.1-10-24.2c0-9.3,3.5-17.6,10-24.2c6.5-6.5,15-10,24.2-10c9,0,17.6,3.6,24.2,10c6.5,6.6,10,15.1,10,24.2
	c0,9.3-3.5,17.6-10,24.2C56.1,69.2,47.8,72.7,38.5,72.7z"/>
<g>
	<path class="st0" d="M32.3,59.3c-0.4,0-0.8-0.1-1.2-0.2l-0.5-0.2c-0.5-0.2-1-0.6-1.4-1.1C28.9,57.9,28.4,58,28,58
		c-0.5,0-1.1-0.1-1.5-0.4l-1-0.5c-0.5-0.3-1-0.7-1.3-1.2c-0.1,0-0.2,0-0.2,0.1c-0.2,0-0.4,0.1-0.6,0.1c-0.7,0-1.3-0.2-1.8-0.6
		l-0.9-0.7c-0.8-0.6-1.3-1.5-1.4-2.4c-0.5-0.1-0.9-0.3-1.3-0.5L17,51.1c-1.4-1-1.8-3-0.8-4.5l1.4-2l-3.4-4.4
		c-0.6,0.4-1.2,0.6-1.9,0.6c-0.6,0-1.2-0.2-1.7-0.5l-0.9-0.6c-0.7-0.5-1.2-1.2-1.4-2c-0.2-0.8,0-1.7,0.4-2.4l8.6-13.6
		c0.5-0.7,1.2-1.2,2-1.4c0.2-0.1,0.5-0.1,0.7-0.1c0.6,0,1.2,0.2,1.7,0.5l0.9,0.6c1.1,0.7,1.7,2.1,1.4,3.4l1.9,1
		c0.1,0,0.1,0.1,0.2,0.1l4.1,0.6c0.9-0.8,2.1-1.4,3.3-1.6l4.5-0.8c1.3-0.2,2.6-0.4,3.9-0.4c1.5,0,3,0.2,4.4,0.5l4.8,1
		c0,0,0.1,0,0.1,0c0.1,0,0.2,0,0.2,0l1.5-0.6c-0.4-1.4,0.2-2.8,1.4-3.6l0.9-0.6c0.5-0.3,1.1-0.5,1.7-0.5c0.2,0,0.5,0,0.7,0.1
		c0.8,0.2,1.6,0.7,2,1.4l8.6,13.6c0.5,0.7,0.6,1.6,0.4,2.4c-0.2,0.8-0.7,1.6-1.4,2l-0.9,0.6c-0.5,0.3-1.1,0.5-1.7,0.5
		c-0.4,0-0.9-0.1-1.3-0.3L59.3,44c0.1,0.2,0.1,0.3,0.2,0.5c0.2,0.8,0,1.7-0.5,2.4l-1,1.5c-0.6,0.9-1.6,1.4-2.7,1.4c0,0-0.1,0-0.1,0
		L53.8,52c-0.6,0.9-1.6,1.4-2.6,1.4c-0.2,0.4-0.7,1-1.4,2.2c-0.6,0.9-1.6,1.5-2.7,1.5c-0.3,0-0.5,0-0.8-0.1l-0.9,1
		c-0.6,0.7-1.5,1.1-2.4,1.1c-0.2,0-0.3,0-0.5,0l-7.5-1.1C34.3,58.8,33.3,59.3,32.3,59.3z M33.7,52.4c-0.2,0-0.3,0.1-0.4,0.2l-2.1,3
		c0,0.1,0,0.2,0,0.3c0,0.1,0.1,0.3,0.4,0.4l0.5,0.2c0.1,0,0.2,0,0.2,0c0.2,0,0.4-0.1,0.5-0.3l1.9-2.7c0.2-0.3,0.1-0.6-0.1-0.8
		l-0.4-0.3C34.1,52.5,34,52.4,33.7,52.4C33.8,52.4,33.8,52.4,33.7,52.4z M42.8,56.5C42.8,56.5,42.8,56.5,42.8,56.5
		c0.3,0,0.5-0.1,0.6-0.2l0.4-0.5L39,53.4c-0.3-0.2-0.5-0.4-0.6-0.8c-0.1-0.3-0.1-0.7,0.1-1c0.2-0.4,0.7-0.7,1.2-0.7
		c0.2,0,0.4,0,0.6,0.1l6.5,3.3c0.1,0,0.2,0.1,0.3,0.1c0.2,0,0.4-0.1,0.5-0.3c0.5-0.7,0.8-1.3,1.1-1.7l-7.4-4
		c-0.6-0.3-0.9-1.1-0.5-1.8c0.2-0.4,0.7-0.7,1.1-0.7c0.2,0,0.4,0.1,0.6,0.2l8.4,4.6c0.1,0,0.2,0.1,0.3,0.1c0.2,0,0.4-0.1,0.5-0.3
		l1.1-1.7l-9.3-5.5c-0.3-0.2-0.5-0.5-0.6-0.8c-0.1-0.3,0-0.7,0.1-1c0.2-0.4,0.7-0.6,1.1-0.6c0.2,0,0.5,0.1,0.7,0.2L55,47.2
		c0.1,0.1,0.2,0.1,0.3,0.1c0.2,0,0.4-0.1,0.5-0.3l1-1.5c0.1-0.1,0.1-0.3,0.1-0.5c0-0.2-0.1-0.3-0.3-0.4L38.4,32.8
		c-0.1-0.1-0.2-0.1-0.3-0.1c-0.1,0-0.2,0-0.3,0.1L29.6,37c-0.5,0.2-1,0.4-1.5,0.4c-0.7,0-1.4-0.2-1.9-0.6c-0.7-0.5-1.1-1.3-1.2-2.1
		c-0.1-0.9,0.1-1.7,0.6-2.4l2.7-3.5l-2.6-0.4c-0.3-0.1-0.7-0.2-1-0.3l-1.9-1l-7,11.1l3.3,4.4c0.6-0.7,1.5-1,2.4-1
		c0.6,0,1.2,0.2,1.7,0.5l0.9,0.6c0.2,0.1,0.4,0.3,0.6,0.5l0.1-0.1c0.6-0.9,1.6-1.4,2.7-1.4c0.6,0,1.2,0.2,1.7,0.5l1,0.6
		c0.7,0.5,1.2,1.2,1.4,2.1c0,0.2,0.1,0.4,0.1,0.6c0.5,0.1,1,0.3,1.3,0.6l0.9,0.7c1,0.8,1.4,2.2,1,3.5c0.3,0.1,0.6,0.3,0.9,0.5
		l0.4,0.3c1.3,1.1,1.5,3,0.6,4.3l-0.3,0.4L42.8,56.5z M30.9,47.7c-0.2,0-0.3,0.1-0.4,0.3l-4.1,6.1c0,0.1-0.1,0.2,0,0.3
		c0,0.2,0.2,0.3,0.3,0.4l1,0.5c0.1,0,0.2,0.1,0.3,0.1c0.2,0,0.4-0.1,0.5-0.3l0.6-0.9c0.1-0.1,0.1-0.2,0.1-0.3l2-2.8l0.2,0.1
		l-0.2-0.2l1.2-1.7c0.2-0.3,0.1-0.6-0.1-0.8l-0.9-0.7C31.3,47.8,31.1,47.7,30.9,47.7C31,47.7,30.9,47.7,30.9,47.7z M27.5,44
		c-0.2,0-0.4,0.1-0.5,0.3l-1.8,2.6c-0.8,1.3-1.9,2.9-2.7,4L22.4,51l-0.5,0.7c-0.2,0.3-0.1,0.7,0.2,0.9l0.9,0.7
		c0.1,0.1,0.2,0.1,0.4,0.1c0,0,0.1,0,0.1,0c0.2,0,0.3-0.1,0.4-0.3l0.3-0.4c0.1-0.1,0.1-0.2,0.2-0.3l4.7-6.8c0.1-0.1,0.1-0.3,0.1-0.5
		s-0.1-0.3-0.3-0.4l-1-0.6C27.7,44.1,27.6,44,27.5,44z M21.6,44c-0.2,0-0.4,0.1-0.5,0.3l-2.7,3.9c-0.2,0.3-0.1,0.7,0.1,0.9l0.9,0.7
		c0.1,0.1,0.2,0.1,0.4,0.1c0,0,0.1,0,0.1,0c0.2,0,0.3-0.1,0.4-0.2l2.8-4c0.1-0.1,0.1-0.3,0.1-0.4c0-0.2-0.1-0.3-0.3-0.4l-0.9-0.6
		C21.8,44,21.7,44,21.6,44z M38,30.1c0.6,0,1.2,0.2,1.8,0.5l17.7,11.5l4.1-3.9l-7.3-11.6l-1.8,0.7c-0.4,0.2-0.8,0.2-1.2,0.2
		c-0.2,0-0.4,0-0.7-0.1l-4.8-1c-1.3-0.3-2.6-0.4-3.9-0.4c-1.2,0-2.3,0.1-3.5,0.3L34,27.3c-1,0.2-1.9,0.7-2.5,1.5l-3.8,5
		c-0.1,0.1-0.1,0.3-0.1,0.5c0,0.2,0.1,0.3,0.2,0.4c0.1,0.1,0.2,0.1,0.4,0.1c0.1,0,0.2,0,0.3-0.1l8.1-4.2C37,30.2,37.5,30.1,38,30.1z
		 M20.1,22.8c0,0-0.1,0-0.1,0c-0.2,0-0.3,0.1-0.4,0.3l-8.6,13.6c-0.2,0.3-0.1,0.7,0.2,0.9l0.9,0.6c0.1,0.1,0.2,0.1,0.3,0.1
		c0.2,0,0.4-0.1,0.5-0.3l8.6-13.6c0.1-0.1,0.1-0.3,0.1-0.5s-0.1-0.3-0.3-0.4l-0.9-0.6C20.3,22.8,20.2,22.8,20.1,22.8z M56.9,22.3
		c-0.1,0-0.2,0-0.3,0.1L55.7,23c-0.3,0.2-0.4,0.6-0.2,0.9l8.6,13.6c0.1,0.2,0.3,0.3,0.5,0.3c0.1,0,0.2,0,0.3-0.1l0.9-0.6
		c0.3-0.2,0.4-0.6,0.2-0.9l-8.6-13.6c-0.1-0.1-0.2-0.2-0.4-0.3C57,22.3,57,22.3,56.9,22.3z"/>
	<path class="st0" d="M56.9,20c0.2,0,0.4,0,0.7,0.1c0.8,0.2,1.4,0.6,1.9,1.3L68,35c0.9,1.4,0.5,3.2-0.9,4.1v0l-0.9,0.6
		c-0.5,0.3-1,0.5-1.6,0.5c-0.5,0-0.9-0.1-1.3-0.3L59,43.9c0.1,0.2,0.2,0.4,0.2,0.6c0.2,0.8,0,1.6-0.4,2.2l-1,1.5
		c-0.6,0.9-1.5,1.3-2.5,1.3c-0.1,0-0.2,0-0.2,0l-1.5,2.3c-0.6,0.9-1.5,1.3-2.5,1.3c0,0,0,0-0.1,0c-0.2,0.3-0.7,1-1.5,2.3
		c-0.6,0.9-1.5,1.4-2.5,1.4c-0.3,0-0.6,0-0.9-0.1l-1,1.1c-0.6,0.7-1.4,1-2.2,1c-0.2,0-0.3,0-0.5,0l-7.6-1.2l0,0.1
		c-0.6,0.8-1.5,1.3-2.4,1.3c-0.4,0-0.8-0.1-1.1-0.2l-0.5-0.2c-0.6-0.2-1-0.7-1.4-1.2c-0.4,0.2-0.9,0.4-1.4,0.4c-0.5,0-1-0.1-1.4-0.4
		l-1-0.5c-0.5-0.3-1-0.8-1.3-1.3c-0.1,0-0.3,0.1-0.4,0.1c-0.2,0-0.4,0-0.5,0c-0.6,0-1.2-0.2-1.7-0.5l-0.9-0.7
		c-0.8-0.6-1.3-1.5-1.3-2.5c-0.5-0.1-1-0.2-1.4-0.5l-0.9-0.7c-1.3-0.9-1.6-2.8-0.7-4.1l1.5-2.2l-3.6-4.8c-0.5,0.5-1.2,0.7-2,0.7
		c-0.5,0-1.1-0.1-1.6-0.5l-0.9-0.6c-1.4-0.9-1.8-2.7-0.9-4.1l8.6-13.6c0.4-0.7,1.1-1.1,1.9-1.3c0.2,0,0.4-0.1,0.7-0.1
		c0.6,0,1.1,0.2,1.6,0.5l0.9,0.6c1.1,0.7,1.6,2.1,1.3,3.3l2.1,1.1c0.1,0,0.2,0.1,0.3,0.1l4.2,0.7c0.9-0.8,2-1.4,3.2-1.6l4.5-0.8
		c1.3-0.2,2.6-0.4,3.9-0.4c1.5,0,2.9,0.2,4.4,0.5l4.8,1c0.1,0,0.1,0,0.2,0c0.1,0,0.2,0,0.3-0.1l1.7-0.7c-0.5-1.3,0-2.8,1.2-3.5
		l0.9-0.6C55.8,20.1,56.4,20,56.9,20 M64.6,38c0.2,0,0.3,0,0.5-0.1l0.9-0.6c0,0,0,0,0,0c0.4-0.3,0.5-0.8,0.3-1.2l-8.6-13.6
		c-0.1-0.2-0.3-0.3-0.5-0.4c-0.1,0-0.1,0-0.2,0c-0.2,0-0.3,0-0.5,0.1l-0.9,0.6c-0.4,0.3-0.5,0.8-0.3,1.2l8.6,13.6
		C64.1,37.8,64.4,38,64.6,38 M12.4,38.5c0.3,0,0.6-0.1,0.7-0.4l8.6-13.6c0.3-0.4,0.1-0.9-0.3-1.2c0,0,0,0,0,0l-0.9-0.6
		c-0.1-0.1-0.3-0.1-0.5-0.1c-0.1,0-0.1,0-0.2,0c-0.2,0.1-0.4,0.2-0.5,0.4l-8.6,13.6c-0.3,0.4-0.1,0.9,0.3,1.2l0.9,0.6
		C12,38.4,12.2,38.5,12.4,38.5 M28.2,35c0.1,0,0.3,0,0.4-0.1l8.1-4.2c0.4-0.2,0.9-0.3,1.4-0.3c0.6,0,1.1,0.2,1.6,0.5l17.8,11.6
		l4.4-4.1l-7.5-11.9l-2,0.8c-0.4,0.1-0.7,0.2-1.1,0.2c-0.2,0-0.4,0-0.6-0.1l-4.8-1c-1.3-0.3-2.6-0.4-3.9-0.4c-1.2,0-2.3,0.1-3.5,0.3
		L34,27c-1.1,0.2-2,0.8-2.7,1.6l-3.8,5c-0.1,0.2-0.2,0.4-0.2,0.6c0,0.2,0.2,0.4,0.3,0.6C27.8,35,28,35,28.2,35 M19.2,42.8
		c0.6-0.8,1.5-1.2,2.4-1.2c0.5,0,1.1,0.1,1.5,0.4l0.9,0.6c0.3,0.2,0.5,0.4,0.8,0.7l0.2-0.4c0.6-0.8,1.5-1.3,2.5-1.3
		c0.6,0,1.1,0.2,1.6,0.5l1,0.6c0.7,0.4,1.1,1.1,1.3,1.9c0.1,0.3,0.1,0.5,0,0.8c0.5,0.1,1,0.3,1.4,0.6l0.9,0.7c1,0.8,1.4,2.2,0.9,3.4
		c0.4,0.1,0.7,0.3,1.1,0.6l0.4,0.3c1.2,1,1.4,2.7,0.5,4l-0.5,0.7l6.6,1c0,0,0.1,0,0.1,0c0.3,0,0.5-0.1,0.7-0.3l0.6-0.7l-5-2.6
		c-0.5-0.3-0.7-0.9-0.5-1.4c0.2-0.4,0.6-0.6,0.9-0.6c0.2,0,0.3,0,0.5,0.1l6.5,3.3c0.1,0.1,0.3,0.1,0.4,0.1c0.3,0,0.6-0.1,0.7-0.4
		c0.6-0.9,0.9-1.5,1.2-1.9l-7.7-4.2c-0.5-0.3-0.7-0.9-0.4-1.4c0.2-0.3,0.5-0.5,0.9-0.5c0.2,0,0.3,0,0.5,0.1l8.4,4.6
		c0.1,0.1,0.3,0.1,0.4,0.1c0.3,0,0.6-0.1,0.7-0.4l1.3-1.9l-9.5-5.7c-0.5-0.3-0.7-0.9-0.4-1.4c0.2-0.3,0.5-0.5,0.9-0.5
		c0.2,0,0.4,0,0.5,0.1l10.2,6.1c0.1,0.1,0.3,0.1,0.4,0.1c0.3,0,0.6-0.1,0.7-0.4l1-1.5c0.1-0.2,0.2-0.4,0.1-0.7
		c0-0.2-0.2-0.4-0.4-0.6L38.5,32.6c-0.1-0.1-0.3-0.1-0.5-0.1c-0.1,0-0.3,0-0.4,0.1l-8.1,4.2c-0.4,0.2-0.9,0.3-1.4,0.3
		c-0.6,0-1.3-0.2-1.8-0.6c-0.6-0.5-1-1.2-1.2-2c-0.1-0.8,0.1-1.6,0.6-2.2l3-3.9l-3-0.5c-0.3-0.1-0.6-0.1-0.9-0.3l-2.1-1.1L15.6,38
		L19.2,42.8 M19.8,50c0.1,0,0.1,0,0.2,0c0.2,0,0.4-0.2,0.5-0.3l2.8-4.1c0.1-0.2,0.2-0.4,0.1-0.6c-0.1-0.2-0.2-0.4-0.4-0.6L22,43.8
		c-0.1-0.1-0.3-0.1-0.5-0.1c-0.3,0-0.5,0.1-0.7,0.4L18.2,48c-0.3,0.4-0.2,0.9,0.2,1.2l0.9,0.7C19.4,49.9,19.6,50,19.8,50 M23.4,53.6
		c0.1,0,0.1,0,0.2,0c0.2,0,0.4-0.2,0.6-0.4l0.3-0.4c0.1-0.1,0.1-0.2,0.2-0.3l4.1-5.9c0,0,0,0,0,0l0.6-0.9c0.1-0.2,0.2-0.4,0.1-0.7
		c0-0.2-0.2-0.4-0.4-0.6l-1-0.6c-0.1-0.1-0.3-0.1-0.5-0.1c-0.3,0-0.6,0.1-0.7,0.4L25,46.8c0,0,0,0,0,0.1c-0.8,1.2-1.9,2.8-2.7,4
		c0,0-0.1,0.1-0.1,0.1l-0.5,0.7c-0.3,0.4-0.2,0.9,0.2,1.2l0.9,0.7C23,53.6,23.2,53.6,23.4,53.6 M28,55.7c0.3,0,0.5-0.1,0.7-0.4
		c0,0,0,0,0,0l0.6-0.9c0-0.1,0.1-0.2,0.1-0.3l2-2.8c0,0,0,0,0.1-0.1l1.2-1.7c0.3-0.4,0.2-0.9-0.2-1.2l-0.9-0.7
		c-0.2-0.1-0.3-0.2-0.5-0.2c0,0-0.1,0-0.1,0c-0.2,0-0.4,0.2-0.6,0.4l-4.1,6.1c-0.1,0.2-0.1,0.4-0.1,0.5c0.1,0.2,0.2,0.4,0.4,0.6
		l1,0.5C27.7,55.6,27.8,55.7,28,55.7 M32.3,56.9c0.3,0,0.6-0.1,0.7-0.4l1.9-2.7c0.3-0.4,0.2-0.9-0.2-1.2l-0.4-0.3
		c-0.2-0.1-0.4-0.2-0.6-0.2c0,0-0.1,0-0.1,0c-0.2,0-0.4,0.2-0.6,0.3L31,55.6c-0.1,0.2,0,0.4,0,0.5c0,0.1,0.2,0.4,0.5,0.6l0.5,0.2
		C32.1,56.9,32.2,56.9,32.3,56.9 M56.9,19.5c-0.7,0-1.3,0.2-1.8,0.5l-0.9,0.6c-1.2,0.8-1.8,2.2-1.5,3.6l-1.3,0.5c0,0-0.1,0-0.1,0
		c0,0-0.1,0-0.1,0l-4.8-1c-1.5-0.3-3-0.5-4.5-0.5c-1.3,0-2.7,0.1-4,0.4l-4.5,0.8c-1.2,0.2-2.4,0.8-3.3,1.6l-4-0.6c0,0-0.1,0-0.1,0
		l-1.7-0.9c0.2-1.4-0.4-2.7-1.6-3.5l-0.9-0.6c-0.6-0.4-1.2-0.5-1.8-0.5c-0.3,0-0.5,0-0.8,0.1c-0.9,0.2-1.7,0.7-2.2,1.5L8.5,35.2
		C8,36,7.9,36.9,8.1,37.8c0.2,0.9,0.7,1.7,1.5,2.2l0.9,0.6c0.6,0.3,1.2,0.5,1.8,0.5c0.7,0,1.3-0.2,1.9-0.5l3.1,4.1L16,46.5
		c-1.1,1.6-0.7,3.7,0.8,4.8l0.9,0.7c0.4,0.3,0.8,0.4,1.2,0.5c0.1,1,0.6,1.9,1.4,2.4l0.9,0.7c0.6,0.4,1.3,0.6,2,0.6
		c0.2,0,0.4,0,0.6-0.1c0,0,0.1,0,0.1,0c0.3,0.5,0.7,0.9,1.3,1.1l1,0.5c0.5,0.3,1.1,0.4,1.6,0.4c0.4,0,0.8-0.1,1.2-0.2
		c0.4,0.4,0.8,0.8,1.3,1l0.5,0.2c0.4,0.2,0.9,0.3,1.3,0.3c1,0,2-0.5,2.7-1.3l7.3,1.1c0.2,0,0.4,0,0.5,0c1,0,2-0.4,2.6-1.2l0.8-0.9
		c0.2,0.1,0.5,0.1,0.7,0.1c1.2,0,2.3-0.6,2.9-1.6c0.6-0.9,1-1.6,1.3-2.1c1.1-0.1,2.1-0.6,2.7-1.6l1.3-2c1.2,0,2.2-0.6,2.9-1.6l1-1.5
		c0.5-0.8,0.7-1.7,0.5-2.6c0-0.1-0.1-0.3-0.1-0.4l3.9-3.7c0.4,0.1,0.8,0.2,1.2,0.2c0.7,0,1.3-0.2,1.8-0.5l0.9-0.6
		c0.8-0.5,1.3-1.3,1.5-2.2c0.2-0.9,0-1.8-0.4-2.6l-8.6-13.6c-0.5-0.8-1.3-1.3-2.2-1.5C57.5,19.5,57.2,19.5,56.9,19.5L56.9,19.5z
		 M64.6,37.5c-0.1,0-0.2-0.1-0.3-0.2l-8.6-13.6c-0.1-0.2-0.1-0.4,0.1-0.5l0.9-0.6c0.1,0,0.1-0.1,0.2-0.1c0,0,0.1,0,0.1,0
		c0.1,0,0.2,0.1,0.2,0.2l8.6,13.6c0.1,0.1,0.1,0.2,0,0.3c0,0.1-0.1,0.2-0.2,0.2l-0.9,0.6C64.8,37.5,64.7,37.5,64.6,37.5L64.6,37.5z
		 M12.4,38c-0.1,0-0.1,0-0.2-0.1l-0.9-0.6c-0.1-0.1-0.1-0.1-0.2-0.2c0-0.1,0-0.2,0-0.3l8.6-13.6c0.1-0.1,0.1-0.1,0.2-0.2
		c0,0,0.1,0,0.1,0c0.1,0,0.1,0,0.2,0.1l0.9,0.6c0.2,0.1,0.2,0.3,0.1,0.5l-8.6,13.6C12.6,37.9,12.5,38,12.4,38L12.4,38z M28.2,34.5
		c-0.1,0-0.2,0-0.2-0.1c-0.1-0.1-0.1-0.1-0.1-0.2c0-0.1,0-0.2,0.1-0.3l3.8-5c0.6-0.8,1.4-1.3,2.4-1.4l4.5-0.8
		c1.1-0.2,2.3-0.3,3.4-0.3c1.3,0,2.6,0.1,3.8,0.4l4.8,1c0.2,0,0.5,0.1,0.7,0.1c0.4,0,0.9-0.1,1.3-0.3l1.6-0.6l7.1,11.2l-3.8,3.6
		L39.9,30.4c-0.6-0.4-1.2-0.6-1.9-0.6c-0.6,0-1.1,0.1-1.6,0.4l-8.1,4.2C28.3,34.5,28.2,34.5,28.2,34.5L28.2,34.5z M16.2,38L23,27.3
		l1.7,0.9c0.3,0.2,0.7,0.3,1.1,0.3l2.1,0.3l-2.5,3.2c-0.6,0.7-0.8,1.7-0.7,2.6c0.1,0.9,0.6,1.7,1.3,2.3c0.6,0.5,1.3,0.7,2.1,0.7
		c0.6,0,1.1-0.1,1.6-0.4l8.1-4.2c0.1,0,0.1,0,0.2,0c0.1,0,0.1,0,0.2,0.1l18.2,11.8c0.1,0.1,0.1,0.1,0.2,0.2c0,0.1,0,0.2-0.1,0.3
		l-1,1.5c-0.1,0.1-0.2,0.2-0.3,0.2c-0.1,0-0.1,0-0.2-0.1l-10.2-6.1c-0.2-0.1-0.5-0.2-0.8-0.2c-0.5,0-1.1,0.3-1.3,0.8
		c-0.2,0.4-0.3,0.8-0.2,1.2c0.1,0.4,0.4,0.7,0.7,1l9,5.4l-1,1.5c-0.1,0.1-0.2,0.2-0.3,0.2c-0.1,0-0.1,0-0.2,0L42.6,46
		c-0.2-0.1-0.5-0.2-0.7-0.2c-0.6,0-1.1,0.3-1.4,0.8c-0.2,0.4-0.2,0.8-0.1,1.2c0.1,0.4,0.4,0.7,0.7,0.9l7.2,3.9
		c-0.3,0.4-0.6,0.9-0.9,1.5c-0.1,0.1-0.2,0.2-0.3,0.2c-0.1,0-0.1,0-0.2,0l-6.5-3.3c-0.2-0.1-0.5-0.2-0.7-0.2c-0.6,0-1.1,0.3-1.4,0.8
		C38,52,38,52.4,38.1,52.8c0.1,0.4,0.4,0.7,0.8,0.9l4.5,2.3l-0.2,0.2c-0.1,0.1-0.2,0.1-0.3,0.1c0,0,0,0-0.1,0L37,55.4l0,0
		c1-1.5,0.7-3.5-0.6-4.7L36,50.4c-0.2-0.2-0.5-0.4-0.8-0.5c0.3-1.3-0.1-2.7-1.2-3.5l-0.9-0.7c-0.4-0.3-0.8-0.5-1.3-0.6
		c0-0.2,0-0.3-0.1-0.4c-0.2-0.9-0.7-1.7-1.5-2.2l-1-0.6c-0.6-0.4-1.2-0.6-1.9-0.6c-1.1,0-2.1,0.5-2.8,1.4c-0.1-0.1-0.3-0.2-0.4-0.3
		l-0.9-0.6c-0.5-0.3-1.2-0.5-1.8-0.5c-0.9,0-1.7,0.3-2.3,0.9L16.2,38L16.2,38z M19.8,49.5c-0.1,0-0.1,0-0.2-0.1l-0.9-0.7
		c-0.2-0.1-0.2-0.3-0.1-0.5l2.7-3.9c0.1-0.1,0.2-0.2,0.3-0.2c0.1,0,0.1,0,0.2,0.1l0.9,0.6c0.1,0.1,0.1,0.1,0.2,0.2
		c0,0.1,0,0.2-0.1,0.3l-2.8,4C20,49.4,19.9,49.5,19.8,49.5C19.8,49.5,19.8,49.5,19.8,49.5L19.8,49.5z M23.4,53.1
		c-0.1,0-0.1,0-0.2-0.1l-0.9-0.7C22,52.3,22,52,22.1,51.9l0.5-0.7c0,0,0.1-0.1,0.1-0.1c0.8-1.2,1.9-2.8,2.7-4l0,0l0-0.1l1.8-2.6
		c0.1-0.1,0.2-0.2,0.3-0.2c0.1,0,0.1,0,0.2,0.1l1,0.6c0.1,0.1,0.1,0.1,0.2,0.2c0,0.1,0,0.2-0.1,0.3l-0.6,0.9l0,0l0,0l-4.1,5.9
		c-0.1,0.1-0.1,0.2-0.2,0.3l0,0.1L23.7,53C23.6,53,23.5,53.1,23.4,53.1C23.4,53.1,23.4,53.1,23.4,53.1L23.4,53.1z M26.6,54.2l4.1-6
		c0.1-0.1,0.1-0.1,0.2-0.1c0,0,0,0,0.1,0c0.1,0,0.2,0,0.2,0.1l0.9,0.7c0.1,0.1,0.2,0.3,0.1,0.5L31,51c0,0,0,0-0.1,0.1l-2,2.8
		c-0.1,0.1-0.1,0.2-0.1,0.2l0,0.1L28.3,55c-0.1,0.1-0.2,0.2-0.3,0.2c-0.1,0-0.1,0-0.2,0l-1-0.5c-0.1-0.1-0.2-0.1-0.2-0.2
		C26.6,54.3,26.6,54.3,26.6,54.2L26.6,54.2z M31.5,55.8l2.1-3c0-0.1,0.1-0.1,0.2-0.1c0,0,0,0,0.1,0c0.1,0,0.2,0,0.2,0.1l0.4,0.3
		c0.1,0.1,0.2,0.3,0.1,0.5l-1.9,2.7c-0.1,0.1-0.2,0.2-0.3,0.2c0,0-0.1,0-0.1,0l-0.5-0.2c-0.1,0-0.2-0.1-0.2-0.2
		C31.5,55.9,31.5,55.9,31.5,55.8L31.5,55.8z"/>
</g>
</svg>
