<?xml version="1.0" encoding="utf-8"?>
<!-- Generator: Adobe Illustrator 22.0.1, SVG Export Plug-In . SVG Version: 6.00 Build 0)  -->
<svg version="1.1"
	 id="Layer_1" xmlns:cc="http://creativecommons.org/ns#" xmlns:dc="http://purl.org/dc/elements/1.1/" xmlns:inkscape="http://www.inkscape.org/namespaces/inkscape" xmlns:rdf="http://www.w3.org/1999/02/22-rdf-syntax-ns#" xmlns:sodipodi="http://sodipodi.sourceforge.net/DTD/sodipodi-0.dtd" xmlns:svg="http://www.w3.org/2000/svg"
	 xmlns="http://www.w3.org/2000/svg" xmlns:xlink="http://www.w3.org/1999/xlink" x="0px" y="0px" viewBox="0 0 49.8 49.8"
	 style="enable-background:new 0 0 49.8 49.8;" xml:space="preserve">
<style type="text/css">
	.st0{fill:#8BC052;stroke:#8BC052;stroke-width:0.5;stroke-miterlimit:10;}
	.st1{fill:#13A2B0;}
	.st2{fill:#8BC052;stroke:#8BC052;stroke-width:0.25;stroke-miterlimit:10;}
	.st3{fill:none;stroke:#8BC052;stroke-width:2;stroke-miterlimit:10;}
	.st4{fill:#8BC052;stroke:#8BC052;stroke-width:0.6;stroke-miterlimit:10;}
	.st5{fill:#8BC052;}
	.st6{fill:none;}
	.st7{fill:#B59141;}
</style>
<g>
	<path class="st6" d="M19.7,33.7l2.7-3.5c0.3-0.4,0.8-0.6,1.3-0.6h10.8c0.7,0,1.3-0.6,1.3-1.2V15.2c0-0.7-0.6-1.3-1.3-1.3H14.8
		c-0.7,0-1.3,0.6-1.3,1.3v13.1c0,0.7,0.7,1.3,1.3,1.3h3.6c0.1,0,0.2,0,0.2,0c0.9,0.1,1.5,0.9,1.4,1.8L19.7,33.7z"/>
	<path class="st6" d="M24.6,2.5c-12.3,0-22.4,10-22.4,22.4c0,12.3,10,22.4,22.4,22.4c12.3,0,22.4-10,22.4-22.4
		C47,12.6,36.9,2.5,24.6,2.5z M39,28.3c0,2.4-2,4.4-4.5,4.4h-10l-6,7.9c-0.3,0.4-0.8,0.6-1.3,0.6c-0.1,0-0.2,0-0.2,0
		c-0.4-0.1-0.8-0.3-1.1-0.6c-0.3-0.3-0.4-0.8-0.3-1.2l1-6.6h-1.7c-2.5,0-4.5-2.1-4.5-4.5V15.2c0-2.5,2-4.5,4.5-4.5h19.7
		c2.5,0,4.5,2.1,4.5,4.5V28.3z"/>
	<path class="st7" d="M34.4,10.6H14.8c-2.5,0-4.5,2-4.5,4.5v13.1c0,2.5,2.1,4.5,4.5,4.5h1.7l-1,6.6c-0.1,0.4,0,0.8,0.3,1.2
		c0.3,0.3,0.6,0.6,1.1,0.6c0.1,0,0.2,0,0.2,0c0.5,0,1-0.2,1.3-0.6l6-7.9h10c2.5,0,4.5-2,4.5-4.4V15.2C39,12.7,36.9,10.6,34.4,10.6z
		 M18.7,29.6c-0.1,0-0.2,0-0.2,0h-3.6c-0.7,0-1.3-0.7-1.3-1.3V15.2c0-0.7,0.6-1.3,1.3-1.3h19.7c0.7,0,1.3,0.6,1.3,1.3v13.2
		c0,0.7-0.6,1.2-1.3,1.2H23.6c-0.5,0-1,0.2-1.3,0.6l-2.7,3.5l0.4-2.3C20.1,30.5,19.5,29.7,18.7,29.6z"/>
	<path class="st7" d="M24.6,0C10.9,0-0.3,11.2-0.3,24.9s11.2,24.9,24.9,24.9c13.7,0,24.9-11.2,24.9-24.9S38.3,0,24.6,0z M24.6,47.2
		c-12.3,0-22.4-10-22.4-22.4c0-12.3,10-22.4,22.4-22.4c12.3,0,22.4,10,22.4,22.4C47,37.2,36.9,47.2,24.6,47.2z"/>
</g>
</svg>
