<svg id="Layer_1" data-name="Layer 1" xmlns="http://www.w3.org/2000/svg" viewBox="0 0 49.75 49.75"><path d="M38.12,11.09H36.81a19,19,0,0,0-16.26,9.28c-.23.38-.43.76-.62,1.14L13.35,21a.69.69,0,0,0-.54.2L7.16,26.87a.69.69,0,0,0,.46,1.19l7.63.24.78.78a8,8,0,0,0-4.81,7.33v.71a.69.69,0,0,0,.69.69h.71A8,8,0,0,0,19.95,33l1.37,1.37L21.55,42a.69.69,0,0,0,1.17.47l5.62-5.64a.69.69,0,0,0,.2-.53l-.42-6.19c.56-.27,1.12-.58,1.67-.91a18.76,18.76,0,0,0,9-16.09V11.78A.69.69,0,0,0,38.12,11.09ZM12.63,36.44h0v0a6.62,6.62,0,0,1,4.49-6.28L18.9,32A6.64,6.64,0,0,1,12.63,36.44Zm24.8-23.35A17.39,17.39,0,0,1,29.07,28a17.63,17.63,0,0,1-2,1,.69.69,0,0,0-.41.69l.43,6.34-4.26,4.27-.18-6.28a.69.69,0,0,0-.2-.47L16,27.14a.69.69,0,0,0-.46-.2l-6.31-.2,4.31-4.31,6.74.48a.69.69,0,0,0,.69-.4c.22-.48.47-1,.76-1.45a17.59,17.59,0,0,1,15.07-8.59h.63Z" style="fill:#8bc052;stroke:#8bc052;stroke-miterlimit:10;stroke-width:0.5px"/><path d="M24.88.25A24.63,24.63,0,1,0,49.5,24.88,24.65,24.65,0,0,0,24.88.25Zm0,47.73A23.1,23.1,0,1,1,48,24.88,23.13,23.13,0,0,1,24.88,48Z" style="fill:#8bc052;stroke:#8bc052;stroke-miterlimit:10;stroke-width:0.5px"/></svg>