<svg id="Layer_1" data-name="Layer 1" xmlns="http://www.w3.org/2000/svg" viewBox="0 0 49.75 49.75"><path d="M24.88.25A24.63,24.63,0,1,0,49.5,24.88,24.65,24.65,0,0,0,24.88.25Zm0,47.73A23.1,23.1,0,1,1,48,24.88,23.13,23.13,0,0,1,24.88,48Z" style="fill:#8bc052;stroke:#8bc052;stroke-miterlimit:10;stroke-width:0.5px"/><path d="M15.41,9.53a.72.72,0,0,0-.72.72V40.54a.72.72,0,0,0,1.44,0V29L18,28.6a14.3,14.3,0,0,1,7.77.61l.11,0a15.84,15.84,0,0,0,9.28.5l2.59-.65a.69.69,0,0,0,.54-.68V14.28a.75.75,0,0,0-.9-.72l-2.59.65a14.44,14.44,0,0,1-8.45-.47l-.11,0a15.76,15.76,0,0,0-8.56-.65l-1.62.32V10.25A.67.67,0,0,0,15.41,9.53Zm2.66,5a14.3,14.3,0,0,1,7.77.61l.11,0a16,16,0,0,0,9.28.5L37,15.22V27.88l-2.05.5a14.44,14.44,0,0,1-8.45-.47l-.11,0a15.78,15.78,0,0,0-5.47-1,17.67,17.67,0,0,0-3.09.29l-1.62.32V14.86Z" style="fill:#8bc052;stroke:#8bc052;stroke-miterlimit:10;stroke-width:0.6000000238418579px"/></svg>