<svg id="Layer_1" data-name="Layer 1" xmlns="http://www.w3.org/2000/svg" viewBox="0 0 49.75 49.75"><path d="M24.88.25A24.63,24.63,0,1,0,49.5,24.88,24.65,24.65,0,0,0,24.88.25Zm0,47.73A23.1,23.1,0,1,1,48,24.88,23.13,23.13,0,0,1,24.88,48Z" style="fill:#8bc052;stroke:#8bc052;stroke-miterlimit:10;stroke-width:0.5px"/><path d="M38.19,29.73A13.44,13.44,0,0,0,24.88,16.16,13.44,13.44,0,0,0,11.58,29.73" style="fill:none;stroke:#8bc052;stroke-miterlimit:10;stroke-width:2px"/><path d="M10.44,30.23a1.53,1.53,0,0,0-1.53,1.53h0a1.53,1.53,0,0,0,1.53,1.53H39.31a1.53,1.53,0,0,0,1.53-1.53h0a1.53,1.53,0,0,0-1.53-1.53Z" style="fill:none;stroke:#8bc052;stroke-miterlimit:10;stroke-width:2px"/><ellipse cx="24.88" cy="14.32" rx="1.9" ry="1.85" style="fill:none;stroke:#8bc052;stroke-miterlimit:10;stroke-width:2px"/></svg>