<?xml version="1.0" encoding="utf-8"?>
<!-- Generator: Adobe Illustrator 22.0.1, SVG Export Plug-In . SVG Version: 6.00 Build 0)  -->
<svg version="1.1"
	 id="Layer_1" xmlns:cc="http://creativecommons.org/ns#" xmlns:dc="http://purl.org/dc/elements/1.1/" xmlns:inkscape="http://www.inkscape.org/namespaces/inkscape" xmlns:rdf="http://www.w3.org/1999/02/22-rdf-syntax-ns#" xmlns:sodipodi="http://sodipodi.sourceforge.net/DTD/sodipodi-0.dtd" xmlns:svg="http://www.w3.org/2000/svg"
	 xmlns="http://www.w3.org/2000/svg" xmlns:xlink="http://www.w3.org/1999/xlink" x="0px" y="0px" viewBox="0 0 49.8 49.8"
	 style="enable-background:new 0 0 49.8 49.8;" xml:space="preserve">
<style type="text/css">
	.st0{fill:#8BC052;stroke:#8BC052;stroke-width:0.5;stroke-miterlimit:10;}
	.st1{fill:#13A2B0;}
	.st2{fill:#8BC052;stroke:#8BC052;stroke-width:0.25;stroke-miterlimit:10;}
	.st3{fill:none;stroke:#8BC052;stroke-width:2;stroke-miterlimit:10;}
	.st4{fill:#8BC052;stroke:#8BC052;stroke-width:0.6;stroke-miterlimit:10;}
	.st5{fill:#8BC052;}
	.st6{fill:#B59141;}
	.st7{fill:none;stroke:#B59141;stroke-width:2;stroke-miterlimit:10;}
</style>
<g>
	<path class="st6" d="M24.9,0C11.2,0,0,11.2,0,24.9s11.2,24.9,24.9,24.9s24.9-11.2,24.9-24.9S38.6,0,24.9,0z M47.7,24.9
		c0,12.6-10.3,22.9-22.9,22.9C12.3,47.7,2,37.5,2,24.9S12.3,2,24.9,2C37.5,2,47.7,12.3,47.7,24.9z"/>
</g>
<g>
	<path class="st7" d="M28,21.9h10.2l-8.2,6l3.1,9.6l-8.2-6l-8.2,6l3.2-9.6l-8.2-6h10.2l3.1-9.6L28,21.9z"/>
</g>
</svg>
