<?xml version="1.0" encoding="utf-8"?>
<!-- Generator: Adobe Illustrator 22.0.1, SVG Export Plug-In . SVG Version: 6.00 Build 0)  -->
<svg version="1.1"
	 id="Layer_1" xmlns:cc="http://creativecommons.org/ns#" xmlns:dc="http://purl.org/dc/elements/1.1/" xmlns:inkscape="http://www.inkscape.org/namespaces/inkscape" xmlns:rdf="http://www.w3.org/1999/02/22-rdf-syntax-ns#" xmlns:sodipodi="http://sodipodi.sourceforge.net/DTD/sodipodi-0.dtd" xmlns:svg="http://www.w3.org/2000/svg"
	 xmlns="http://www.w3.org/2000/svg" xmlns:xlink="http://www.w3.org/1999/xlink" x="0px" y="0px" viewBox="0 0 49.8 49.8"
	 style="enable-background:new 0 0 49.8 49.8;" xml:space="preserve">
<style type="text/css">
	.st0{fill:#8BC052;stroke:#8BC052;stroke-width:0.5;stroke-miterlimit:10;}
	.st1{fill:#13A2B0;}
	.st2{fill:#8BC052;stroke:#8BC052;stroke-width:0.25;stroke-miterlimit:10;}
	.st3{fill:none;stroke:#8BC052;stroke-width:2;stroke-miterlimit:10;}
	.st4{fill:#8BC052;stroke:#8BC052;stroke-width:0.6;stroke-miterlimit:10;}
	.st5{fill:#8BC052;}
	.st6{fill:none;}
	.st7{fill:#B59141;}
</style>
<g>
	<path class="st6" d="M24.9,2.5c-12.3,0-22.4,10-22.4,22.4c0,12.3,10,22.4,22.4,22.4c12.3,0,22.4-10,22.4-22.4
		C47.2,12.5,37.2,2.5,24.9,2.5z M42.8,20.4l-1.2,0.9l-9.8,7.1L35.5,40l0.5,1.5l-1.3-0.9l-9.8-7.2L15,40.5l-1.3,0.9l0.5-1.5l3.8-11.5
		l-9.8-7.1L7,20.4h1.5h12.2l3.7-11.5l0.5-1.5l0.5,1.5l3.7,11.5h12.2H42.8z"/>
	<polygon class="st6" points="26.9,23.4 26.8,23.1 24.9,17.2 23,23.1 22.8,23.4 22.5,23.4 16.2,23.4 21.3,27.1 21.6,27.3 21.5,27.6 
		19.5,33.5 24.6,29.8 24.9,29.6 25.2,29.8 30.2,33.5 28.3,27.6 28.2,27.3 28.5,27.1 33.5,23.4 27.2,23.4 	"/>
	<path class="st7" d="M25.3,8.9l-0.5-1.5l-0.5,1.5l-3.7,11.5H8.5H7l1.2,0.9l9.8,7.1L14.2,40l-0.5,1.5l1.3-0.9l9.9-7.2l9.8,7.2
		l1.3,0.9L35.5,40l-3.8-11.5l9.8-7.1l1.2-0.9h-1.5H29.1L25.3,8.9z M28.5,27.1l-0.3,0.2l0.1,0.3l1.9,5.9l-5.1-3.7l-0.3-0.2l-0.3,0.2
		l-5,3.7l1.9-5.9l0.1-0.3l-0.3-0.2l-5.1-3.7h6.3h0.4l0.1-0.3l1.9-5.9l1.9,5.9l0.1,0.3h0.4h6.3L28.5,27.1z"/>
	<path class="st7" d="M24.9,0C11.2,0,0,11.2,0,24.9s11.2,24.9,24.9,24.9s24.9-11.2,24.9-24.9S38.6,0,24.9,0z M47.2,24.9
		c0,12.3-10,22.4-22.4,22.4c-12.3,0-22.4-10-22.4-22.4c0-12.3,10-22.4,22.4-22.4C37.2,2.5,47.2,12.5,47.2,24.9z"/>
</g>
</svg>
