<svg id="Layer_1" data-name="Layer 1" xmlns="http://www.w3.org/2000/svg" viewBox="0 0 49.76 49.76"><defs><style>.cls-1,.cls-2{fill:#8bc052;}.cls-1{stroke:#8bc052;stroke-miterlimit:10;stroke-width:0.5px;}</style></defs><title>tie-icon</title><path class="cls-1" d="M24.88,0.25A24.63,24.63,0,1,0,49.5,24.89h0A24.65,24.65,0,0,0,24.88.25Zm0,47.73A23.1,23.1,0,1,1,48,24.88,23.1,23.1,0,0,1,24.88,48v0Z" transform="translate(0.01 0)"/><path class="cls-2" d="M29.23,15.68L30.54,12a2.48,2.48,0,0,0-1.88-3.17,3.22,3.22,0,0,0-.87-0.12H21.65a2.72,2.72,0,0,0-2.88,2.52,2.25,2.25,0,0,0,.13.77l1.31,3.65L16.57,34.93a1,1,0,0,0,.2.83l4.71,5.6a4.24,4.24,0,0,0,3.24,1.48h0A4.28,4.28,0,0,0,28,41.47l5-5.71a1,1,0,0,0,.25-0.87Zm-7.91-4.62a0.43,0.43,0,0,1,.33-0.14h6.14a0.39,0.39,0,0,1,.43.34,0.32,0.32,0,0,1,0,.13L27.1,14.53H22.39l-1.15-3.14A0.33,0.33,0,0,1,21.32,11.06Zm4.75,29.08a1.69,1.69,0,0,1-1.31.54,1.72,1.72,0,0,1-1.31-.58l-4.38-5.27,3.44-18.13H27l3.81,18.13Z" transform="translate(0.01 0)"/></svg>