<?xml version="1.0" encoding="utf-8"?>
<!-- Generator: Adobe Illustrator 22.0.1, SVG Export Plug-In . SVG Version: 6.00 Build 0)  -->
<svg version="1.1" id="BTM_Innovation_Core" xmlns="http://www.w3.org/2000/svg" xmlns:xlink="http://www.w3.org/1999/xlink"
	 x="0px" y="0px" viewBox="0 0 266.8 147.4" enable-background="new 0 0 266.8 147.4" xml:space="preserve">
<g>
	<path fill="#B49141" d="M124.3,13.8L124.3,13.8c0-2.6-1.4-3.9-3.6-4.7c1.4-0.8,2.5-2,2.5-4.1V4.9c0-1.3-0.4-2.4-1.3-3.2
		c-1.1-1.1-2.8-1.7-5-1.7h-8.8v19h9C121.5,19,124.3,17.2,124.3,13.8z M112.2,3.7h4.1c1.8,0,2.7,0.7,2.7,2v0.1c0,1.4-1.2,2-3,2h-3.8
		V3.7z M112.2,11.1h4.8c2.1,0,3.1,0.8,3.1,2.1v0.1c0,1.4-1.1,2.1-3,2.1h-5V11.1z"/>
	<polygon fill="#B49141" points="131.9,19 136,19 136,3.8 141.8,3.8 141.8,0 126.1,0 126.1,3.8 131.9,3.8 	"/>
	<polygon fill="#B49141" points="149.1,6.7 154.4,14.7 154.5,14.7 159.8,6.6 159.8,19 164,19 164,0 159.5,0 154.5,8 149.5,0 145,0 
		145,19 149.1,19 	"/>
	<polygon fill="#B49141" points="16.5,42.8 12.7,56.9 22.1,56.9 25.9,42.8 26,42.8 32.7,56.9 41.1,56.9 44.9,42.8 42.2,42.8 
		46.1,28.5 36.6,28.5 33,42 26.5,28.5 17.6,28.5 13.8,42.8 	"/>
	<path fill="#B49141" d="M48,42.8l-3.8,14.1h9.4l3.8-14.1h0l6.7,14.1h8.5l3.8-14.1h2.4c-0.1,0.6-0.1,1.2-0.1,1.8
		c0,7.3,5.8,12.9,14.2,12.9c8.8,0,15.6-6.7,16.6-14.7h-2.7c0.1-0.7,0.1-1.3,0.1-2c0-7.3-5.8-12.9-14.1-12.9
		c-8.9,0-15.7,6.8-16.6,14.9h-2.4l3.8-14.3h-9.4L64.5,42l-6.5-13.6h-8.9l-3.8,14.3H48z M92.2,36.3c3.4,0,5.2,2.4,5.2,5.4
		c0,0.4,0,0.8-0.1,1.2h2.7c-0.5,3.2-2.9,6.3-6.5,6.3c-3.4,0-5.2-2.4-5.2-5.4c0-0.3,0-0.6,0.1-1h-2.7C86.1,39.5,88.5,36.3,92.2,36.3z
		"/>
	<path fill="#B49141" d="M120.9,42.8h-1.1l-1.1-14.3h-10.4l1.9,14.3h2.7l1.9,14.3h9.1l9.6-14.3h-2.7l9.6-14.3h-10.7L120.9,42.8z
		 M122.6,44.4l-0.1-1.6h1.1L122.6,44.4z"/>
	<polygon fill="#B49141" points="171.2,36.5 169.5,42.8 172.2,42.8 168.4,56.9 177.9,56.9 181.7,42.8 179,42.8 180.7,36.5 
		189.1,36.5 191.2,28.5 164.9,28.5 162.8,36.5 	"/>
	<path fill="#B49141" d="M266.8,28.5h-9.4L253.7,42l-6.5-13.6h-8.9l-3.8,14.3h-2.4c0.1-0.7,0.1-1.3,0.1-2c0-7.3-5.8-12.9-14.1-12.9
		c-8.9,0-15.7,6.8-16.6,14.9H199l3.8-14.3h-9.5l-3.8,14.3h2.7l-3.8,14.1h9.5l3.8-14.1h2.4c-0.1,0.6-0.1,1.2-0.1,1.8
		c0,7.3,5.8,12.9,14.2,12.9c8.8,0,15.6-6.7,16.6-14.7h2.4l-3.8,14.1h9.4l3.8-14.1h0l6.7,14.1h8.5l3.8-14.1H263L266.8,28.5z
		 M218.9,49.1c-3.4,0-5.2-2.4-5.2-5.4c0-0.3,0-0.6,0.1-1H211c0.4-3.3,2.8-6.5,6.5-6.5c3.4,0,5.2,2.4,5.2,5.4c0,0.4,0,0.8-0.1,1.2
		h2.7C224.9,46,222.4,49.1,218.9,49.1z"/>
	<polygon fill="#B49141" points="9.5,56.9 13.3,42.8 10.6,42.8 14.4,28.5 4.9,28.5 1.1,42.8 3.8,42.8 0,56.9 	"/>
	<path fill="#B49141" d="M141,56.9l2.5-3.8h10l0.5,3.8h10.1l-2.1-14.1h-2.7L157,28.3h-9.4l-10,14.5h2.7l-9.7,14.1H141z M152.5,42.8
		l0.4,3.6h-5.2l2.3-3.6H152.5z M149.4,39.4l0.4,3.4h-2.5L149.4,39.4z"/>
	<path fill="#B49141" d="M189.1,70.5c-4.1-4.1-11.2-6.5-22.4-6.5h-23.7l-8.2,30.4h-5.1c0.2-1.3,0.3-2.7,0.3-4.1
		c0-15.5-12.3-27.5-30.2-27.5c-18.9,0-33.5,14.5-35.5,31.6h5.4c-0.2,1.3-0.2,2.7-0.2,4.1c0,15.5,12.3,27.5,30.2,27.5
		c18.9,0,33.5-14.5,35.5-31.6h5.1l-8.2,30.4h20.3l4.7-17.3h5l6.8,17.3h21.9l-8.4-20.2c6.8-2.1,11.4-5.7,14-10.1H191
		c2-3.3,2.9-7.1,2.9-11.2C193.9,78.4,192.5,73.9,189.1,70.5z M101.1,108c-7.3,0-11.2-5-11.2-11.5c0-0.7,0.1-1.5,0.2-2.3h-5.4
		c0.9-6.9,6.1-13.7,13.8-13.7c7.3,0,11.2,5,11.2,11.5c0,0.7-0.1,1.5-0.2,2.3h5.4C114,101.3,108.8,108,101.1,108z M158.8,81h7.2
		c2.9,0,4.9,0.6,6,1.7c0.9,0.9,1.3,2,1.3,3.2c0,3.8-3.6,6.9-10.3,6.9h-7.4L158.8,81z"/>
	<polygon fill="#B49141" points="196.8,94.3 202.2,94.3 194,124.7 246.2,124.7 250.7,108 218.4,108 220.2,101.5 249.9,101.5 
		251.8,94.3 246.4,94.3 248.4,86.8 218.7,86.8 220.4,80.6 252.2,80.6 256.7,64 204.9,64 	"/>
	<path fill="#B49141" d="M63.7,112.7l-14.1-11.1c-3.3,4.1-7.1,6.3-11.8,6.3c-5.4,0-9.5-3.7-9.5-10.4c0-1.1,0.1-2.2,0.3-3.2h-5.4
		c1.3-7.1,6.8-13.4,14.7-13.4c4.6,0,8.2,2.4,9.5,7.4l18.1-7.9C63,69.6,53.7,62.7,40.6,62.7C17,62.7,4.3,79,2.1,94.3h5.4
		c-0.3,1.7-0.4,3.4-0.4,5c0,16.3,11.8,26.6,28.8,26.6C48.8,126,57.7,120.7,63.7,112.7z"/>
	<path fill="#B49141" d="M50.6,136.7l-0.8-1.6c-3.5,1.4-5.5,4-5.5,7.1c0,1.9,0.9,3.6,2.6,4.9l1.3-1.4c-1-1-1.7-2.3-1.7-3.6
		C46.5,140,47.9,138,50.6,136.7z"/>
	<path fill="#B49141" d="M55.4,135.3h-2.9l-2.6,9.8h3.6c2.3,0,4-0.6,5.1-1.8c1.1-1,1.6-2.4,1.6-3.9c0-1.2-0.3-2.1-1.1-2.9
		C58.5,135.8,57.3,135.3,55.4,135.3z M57.1,142c-0.8,0.8-2,1.2-3.3,1.2h-1.2l1.6-5.9h1c1.1,0,1.8,0.3,2.3,0.7
		c0.4,0.4,0.6,0.9,0.6,1.6C58.1,140.5,57.7,141.3,57.1,142z"/>
	<path fill="#B49141" d="M66.6,139.7l0.6-2.2c-1.2-0.1-2.1,0.5-2.9,1.7l0.4-1.5h-2.1l-2,7.5h2.1l0.7-2.7c0.5-1.9,1.6-2.8,3-2.8H66.6
		z"/>
	<path fill="#B49141" d="M70.9,137.5c-1.1,0-2,0.2-2.8,0.5l0.3,1.7c0.5-0.2,1.3-0.4,2-0.4c1.1,0,1.4,0.4,1.4,0.9
		c0,0.2,0,0.4-0.1,0.6l0,0.1c-0.6-0.2-1.3-0.3-2.1-0.3c-1.8,0-3.2,1-3.2,2.7c0,1.2,0.9,2,2.2,2c0.9,0,1.6-0.4,2.2-1l-0.2,0.9h2.1
		l1.1-4.1c0.1-0.4,0.2-0.7,0.2-1.1C73.9,138.3,72.9,137.5,70.9,137.5z M71.4,142.3c-0.2,0.8-1,1.5-1.9,1.5c-0.6,0-1-0.3-1-0.8
		c0-0.7,0.6-1.2,1.5-1.2c0.5,0,1,0.1,1.4,0.3L71.4,142.3z"/>
	<path fill="#B49141" d="M81.5,138.8c-0.4-0.7-1-1.3-2.3-1.3c-2.1,0-4.1,1.9-4.1,4.4c0,1.7,1.3,2.6,2.8,2.6c0.9,0,1.6-0.3,2.4-1
		l-0.1,0.3c-0.2,0.6-0.4,1-0.7,1.3c-0.4,0.4-0.9,0.6-1.6,0.6c-0.9,0-1.9-0.3-2.7-0.8l-1.1,1.5c1,0.7,2.5,1,4,1c1.4,0,2.3-0.3,3-1
		c0.6-0.6,0.9-1.2,1.3-2.7l1.6-6h-2.1L81.5,138.8z M78.7,142.8c-0.8,0-1.4-0.4-1.4-1.3c0-1.2,1-2.2,2.2-2.2c0.9,0,1.5,0.5,1.5,1.4
		C81,141.8,79.9,142.8,78.7,142.8z"/>
	<path fill="#B49141" d="M88.8,137.5c-2.4,0-4.3,2.1-4.3,4.3c0,2,1.4,3.5,3.6,3.5c2.4,0,4.3-2.1,4.3-4.3
		C92.4,138.9,91.1,137.5,88.8,137.5z M88.2,143.4c-1,0-1.6-0.6-1.6-1.7c0-1.1,0.9-2.5,2.2-2.5c1,0,1.6,0.6,1.6,1.7
		C90.4,142,89.5,143.4,88.2,143.4z"/>
	<path fill="#B49141" d="M99,137.5c-0.8,0-1.5,0.4-2,0.9l0.2-0.8H95l-2,7.5h2.1l1.1-4.2c0.2-0.9,0.8-1.5,1.6-1.5c0.7,0,1,0.3,1,0.9
		c0,0.2,0,0.5-0.1,0.7l-1.1,4.1h2.1l1.1-4c0.1-0.5,0.3-1,0.3-1.4C101.2,138.3,100.3,137.5,99,137.5z"/>
	<path fill="#B49141" d="M105.6,139.1c0.6,0,1.2,0.2,2,0.8l1.1-1.3c-0.6-0.5-1.7-1.1-3-1.1c-1.9,0-3,1.1-3,2.6c0,1.2,1,1.7,2.2,2.2
		c0.5,0.2,0.9,0.4,0.9,0.7c0,0.4-0.3,0.7-0.9,0.7c-0.7,0-1.5-0.2-2.3-1l-1.2,1.3c0.9,0.9,2.2,1.4,3.4,1.4c1.8,0,3.1-1,3.1-2.6
		c0-1.2-1.1-1.7-2.1-2.1c-0.6-0.3-1-0.5-1-0.8C104.8,139.3,105.1,139.1,105.6,139.1z"/>
	<path fill="#B49141" d="M110.7,137.5h0.9c-0.1,0.8-0.7,1.3-1.8,1.4l0.1,0.9c1.7,0,2.7-0.8,3.2-2.6l0.5-1.9h-2.3L110.7,137.5z"/>
	<path fill="#B49141" d="M123,135.3h-2.9l-2.6,9.8h3.6c2.3,0,4-0.6,5.1-1.8c1.1-1,1.6-2.4,1.6-3.9c0-1.2-0.3-2.1-1.1-2.9
		C126.1,135.8,124.9,135.3,123,135.3z M124.7,142c-0.8,0.8-2,1.2-3.3,1.2h-1.2l1.6-5.9h1c1.1,0,1.8,0.3,2.3,0.7
		c0.4,0.4,0.6,0.9,0.6,1.6C125.7,140.5,125.3,141.3,124.7,142z"/>
	<path fill="#B49141" d="M133.3,137.5c-2.7,0-4.5,2.3-4.5,4.5c0,2.1,1.3,3.3,3.5,3.3c1.3,0,2.2-0.4,2.9-1l-1-1.3
		c-0.6,0.4-1.1,0.6-1.7,0.6c-1.1,0-1.7-0.6-1.7-1.5h5.2c0.2-0.6,0.4-1.2,0.4-1.7C136.3,138.7,135.2,137.5,133.3,137.5z M134.3,140.8
		H131c0.4-1,1.1-1.6,2.1-1.6c0.9,0,1.2,0.5,1.2,1.1C134.3,140.5,134.3,140.6,134.3,140.8z"/>
	<path fill="#B49141" d="M142.7,137.5c-0.8,0-1.5,0.4-2,0.9l0.2-0.8h-2.1l-2,7.5h2.1l1.1-4.2c0.2-0.9,0.8-1.5,1.6-1.5
		c0.7,0,1,0.3,1,0.9c0,0.2,0,0.5-0.1,0.7l-1.1,4.1h2.1l1.1-4c0.1-0.5,0.3-1,0.3-1.4C144.9,138.3,144,137.5,142.7,137.5z"/>
	<path fill="#B49141" d="M154,137.6l0.1-0.2c0.2-0.5,0.5-0.8,1.1-0.8c0.3,0,0.6,0.1,0.9,0.2l0.5-1.8c-0.3-0.1-0.9-0.2-1.5-0.2
		c-1.6,0-2.6,0.7-3,2.4l-0.1,0.4h-0.9l-0.5,1.8h0.9l-1.5,5.7h2.1l1.5-5.7h1.8l0.5-1.8H154z"/>
	<path fill="#B49141" d="M160.2,137.5c-2.4,0-4.3,2.1-4.3,4.3c0,2,1.4,3.5,3.6,3.5c2.4,0,4.3-2.1,4.3-4.3
		C163.8,138.9,162.4,137.5,160.2,137.5z M159.5,143.4c-1,0-1.6-0.6-1.6-1.7c0-1.1,0.9-2.5,2.2-2.5c1,0,1.6,0.6,1.6,1.7
		C161.7,142,160.8,143.4,159.5,143.4z"/>
	<path fill="#B49141" d="M168,139.1l0.4-1.5h-2.1l-2,7.5h2.1l0.7-2.7c0.5-1.9,1.6-2.8,3-2.8h0.1l0.6-2.2
		C169.7,137.4,168.8,138,168,139.1z"/>
	<path fill="#B49141" d="M181,135.3h-3.8l-2.6,9.8h4.8c2.7,0,4.2-1.2,4.2-3c0-1-0.6-1.6-1.4-2c1.3-0.3,2.1-1.1,2.1-2.4
		C184.3,136.4,183.3,135.3,181,135.3z M179.7,143.2h-2.5l0.6-2.2h2.4c0.9,0,1.3,0.4,1.3,0.9C181.5,142.7,180.8,143.2,179.7,143.2z
		 M180.4,139.3h-2.2l0.5-2.1h2c1,0,1.4,0.4,1.4,0.9C182.2,138.9,181.5,139.3,180.4,139.3z"/>
	<polygon fill="#B49141" points="194.2,135.3 186,135.3 185.5,137.3 188.5,137.3 186.4,145.1 188.6,145.1 190.7,137.3 193.6,137.3 	
		"/>
	<polygon fill="#B49141" points="203,135.3 199.3,139.4 197.9,135.3 195.7,135.3 193,145.1 195.2,145.1 196.9,138.7 198.5,142.9 
		198.5,142.9 202.3,138.7 200.6,145.1 202.8,145.1 205.5,135.3 	"/>
	<path fill="#B49141" d="M208,135.1l-1.3,1.4c1,1,1.7,2.3,1.7,3.6c0,2.1-1.4,4.1-4.2,5.4l0.8,1.6c3.5-1.4,5.5-4,5.5-7.1
		C210.6,138,209.6,136.4,208,135.1z"/>
</g>
<g>
</g>
<g>
</g>
<g>
</g>
<g>
</g>
<g>
</g>
<g>
</g>
</svg>
