<?xml version="1.0" encoding="utf-8"?>
<!-- Generator: Adobe Illustrator 22.0.1, SVG Export Plug-In . SVG Version: 6.00 Build 0)  -->
<svg version="1.1" id="ITMSA" xmlns="http://www.w3.org/2000/svg" xmlns:xlink="http://www.w3.org/1999/xlink" x="0px" y="0px"
	 viewBox="0 0 206.6 36" enable-background="new 0 0 206.6 36" xml:space="preserve">
<g>
	<g>
		<polygon fill="#FFFFFF" points="8.2,22.7 10.4,22.7 10.4,12.5 8.2,12.5 8.2,22.7 		"/>
		<polygon fill="#FFFFFF" points="18.3,14.5 21.4,14.5 21.4,22.7 23.7,22.7 23.7,14.5 26.8,14.5 26.8,12.5 18.3,12.5 18.3,14.5 		
			"/>
		<polygon fill="#FFFFFF" points="43,22.7 45.2,22.7 45.2,12.5 42.8,12.5 40.1,16.8 37.4,12.5 36.6,12.5 36.6,12.5 35,12.5 35,22.7 
			37.2,22.7 37.2,16.1 40,20.4 40.1,20.4 43,16 43,22.7 		"/>
		<path fill="#FFFFFF" d="M61.7,19.7L61.7,19.7c0-1.8-1.1-3.1-3.2-3.1c-2,0-2.2-0.6-2.2-1.2c0-0.5,0.2-1.1,1.3-1.1
			c0.9,0,2.6,0,3.6,0v-2c-1.1,0-2.1,0-3.6,0c-2.1,0-3.6,1.2-3.6,3.1v0c0,2,1.3,3.1,3.4,3.1c1.9,0,2.1,0.5,2.1,1.1
			c0,0.5-0.2,1.2-1.5,1.2c-1.2,0-3,0-4,0v2c1.2,0,2.4,0,3.9,0C60.1,22.8,61.7,21.7,61.7,19.7L61.7,19.7z"/>
		<polygon fill="#FFFFFF" points="75.1,15.1 78.2,22.7 80.6,22.7 76.2,12.4 74.1,12.4 69.8,22.7 72,22.7 75.1,15.1 		"/>
		<path fill="#FFFFFF" d="M37.4,8.4c0,0-2.4-8.4-17.9-8.4C5,0,0,12.5,0,12.5S5,2,18.5,2C31.3,2,35,8.4,35,8.4L37.4,8.4L37.4,8.4z"/>
		<path fill="#FFFFFF" d="M67.8,34c-19,0-22.6-7.2-22.6-7.2l-2.4,0c0,0,2.4,9.2,24,9.2c17.8,0,21.9-13.3,21.9-13.3S84.7,34,67.8,34
			L67.8,34z"/>
	</g>
	<g>
		<path fill="none" d="M127.4,11.8c0.4,0,0.7,0,0.8-0.1c0.2-0.1,0.4-0.2,0.5-0.3c0.1-0.2,0.2-0.3,0.2-0.6c0-0.2-0.1-0.4-0.2-0.6
			c-0.1-0.2-0.3-0.3-0.4-0.3c-0.2-0.1-0.5-0.1-1-0.1h-1.2L126,9.9v1.7l0.1,0.1H127.4z"/>
		<polygon fill="none" points="139,19.1 137.4,22.9 137.4,23 140.6,23 140.6,22.9 		"/>
		<path fill="none" d="M151.2,12.7c0-0.3-0.1-0.6-0.2-0.7c-0.2-0.3-0.5-0.5-0.9-0.5c-0.4,0-0.7,0.1-0.9,0.4
			c-0.2,0.2-0.3,0.5-0.3,0.8l0.1,0.1h2.1L151.2,12.7z"/>
		<path fill="none" d="M175.4,18.1h-2.8l-0.2,0.2V21l0.2,0.2h2.5c0.6,0,1-0.1,1.3-0.2c0.3-0.1,0.6-0.3,0.7-0.6
			c0.2-0.3,0.2-0.5,0.2-0.8c0-0.4-0.2-0.8-0.5-1.1C176.6,18.2,176.1,18.1,175.4,18.1z"/>
		<path fill="none" d="M127.6,14.8c0.3,0,0.5,0,0.6,0c0.2,0,0.4-0.1,0.5-0.2c0.1-0.1,0.2-0.2,0.3-0.4c0.1-0.2,0.1-0.3,0.1-0.6
			c0-0.2-0.1-0.5-0.2-0.6c-0.1-0.2-0.3-0.3-0.5-0.4c-0.2-0.1-0.5-0.1-1-0.1h-1.4l-0.1,0.1v2l0.1,0.1H127.6z"/>
		<path fill="none" d="M202.7,25.5c0.4,0,0.7,0,0.9,0c0.3-0.1,0.5-0.1,0.7-0.3c0.2-0.1,0.3-0.3,0.5-0.5c0.1-0.2,0.2-0.5,0.2-0.8
			c0-0.3-0.1-0.6-0.3-0.9c-0.2-0.3-0.4-0.4-0.7-0.5c-0.3-0.1-0.8-0.2-1.4-0.2h-2.1l-0.1,0.1v3l0.1,0.1H202.7z"/>
		<path fill="none" d="M204.2,18.7c-0.1-0.2-0.3-0.4-0.6-0.5c-0.3-0.1-0.8-0.1-1.5-0.1h-1.7l-0.1,0.1v2.5l0.1,0.1h1.9
			c0.6,0,1,0,1.2-0.1c0.3-0.1,0.5-0.2,0.7-0.4c0.1-0.2,0.2-0.5,0.2-0.8C204.5,19.1,204.4,18.9,204.2,18.7z"/>
		<path fill="none" d="M148.9,21.2c0.6,0,1-0.1,1.3-0.2c0.3-0.1,0.6-0.3,0.7-0.6c0.2-0.3,0.2-0.5,0.2-0.8c0-0.4-0.2-0.8-0.5-1.1
			c-0.3-0.3-0.8-0.4-1.5-0.4h-2.8l-0.2,0.2V21l0.2,0.2H148.9z"/>
		<path fill="#FFFFFF" d="M126.9,26.2c0.7,0.4,1.6,0.7,2.7,0.7c1.1,0,2-0.3,2.7-0.9c0.7-0.5,1.2-1.3,1.5-2.3l0,0l-0.2-0.2h-1
			l-0.3,0.2l0,0c-0.2,0.6-0.5,1-0.9,1.3c-0.5,0.4-1.1,0.6-1.8,0.6c-0.6,0-1.2-0.2-1.7-0.5v0c-0.5-0.3-0.9-0.8-1.1-1.4
			c-0.2-0.6-0.4-1.4-0.4-2.2c0-0.7,0.1-1.3,0.3-1.9c0.2-0.6,0.6-1.1,1.1-1.5c0.5-0.4,1.1-0.5,1.9-0.5c0.7,0,1.2,0.2,1.6,0.5
			c0.4,0.3,0.7,0.8,0.9,1.4l0,0l0.3,0.2h1l0.2-0.2l0,0c0,0,0,0,0,0l0,0l0-0.1c-0.3-0.9-0.8-1.7-1.5-2.2c-0.7-0.5-1.6-0.8-2.6-0.8
			c-0.9,0-1.7,0.2-2.5,0.6c-0.8,0.4-1.3,1-1.8,1.8c-0.4,0.8-0.6,1.7-0.6,2.8c0,1,0.2,1.9,0.5,2.7C125.7,25.1,126.2,25.8,126.9,26.2z
			"/>
		<path fill="#FFFFFF" d="M144.9,16.7l-0.2,0.2v9.8l0.2,0.2h1l0.3-0.3v-4l0.1-0.1h1.3c0.1,0,0.2,0,0.3,0c0,0,0.3,0,0.7,0l2.9,4.4h1
			v-1.4l-2-3v-0.2c0.6-0.2,1.1-0.4,1.5-0.8c0.4-0.5,0.7-1.1,0.7-1.9c0-0.6-0.1-1.1-0.4-1.6c-0.3-0.5-0.7-0.8-1.1-1
			c-0.5-0.2-1.1-0.3-2-0.3L144.9,16.7L144.9,16.7z M146.2,21v-2.8l0.2-0.2h2.8c0.7,0,1.2,0.1,1.5,0.4c0.3,0.3,0.5,0.6,0.5,1.1
			c0,0.3-0.1,0.6-0.2,0.8c-0.2,0.3-0.4,0.4-0.7,0.6c-0.3,0.1-0.8,0.2-1.3,0.2h-2.5L146.2,21z"/>
		<polygon fill="#FFFFFF" points="154.2,16.9 154.2,26.6 154.5,26.9 160.8,26.9 161.1,26.6 161.1,25.7 160.8,25.4 155.9,25.4 
			155.7,25.3 155.7,22.5 155.9,22.3 160.6,22.3 160.8,22.1 160.8,21.2 160.6,21 155.8,21 155.7,20.8 155.7,18.3 155.9,18.1 
			160.8,18.1 161.1,17.9 161.1,16.9 160.8,16.7 154.4,16.7 		"/>
		<polygon fill="#FFFFFF" points="164.3,18.1 169.2,18.1 169.5,17.9 169.5,16.9 169.3,16.7 162.9,16.7 162.6,16.9 162.6,26.6 
			162.9,26.9 169.2,26.9 169.5,26.6 169.5,25.7 169.3,25.4 164.3,25.4 164.1,25.3 164.1,22.5 164.3,22.3 169,22.3 169.3,22.1 
			169.3,21.2 169,21 164.3,21 164.1,20.8 164.1,18.3 		"/>
		<path fill="#FFFFFF" d="M178.3,21.5c0.4-0.5,0.7-1.1,0.7-1.9c0-0.6-0.1-1.1-0.4-1.6c-0.3-0.5-0.7-0.8-1.1-1
			c-0.5-0.2-1.1-0.3-2-0.3l-4.2,0l0,0l-0.2,0.2v9.8l0.2,0.2h1l0.3-0.3v-4l0.1-0.1h1.3c0.1,0,0.2,0,0.3,0c0,0,0.3,0,0.7,0l2.9,4.4h1
			v-1.4l-2-3v-0.2C177.5,22.2,177.9,21.9,178.3,21.5z M177.4,19.6c0,0.3-0.1,0.6-0.2,0.8c-0.2,0.3-0.4,0.4-0.7,0.6
			c-0.3,0.1-0.8,0.2-1.3,0.2h-2.5l-0.2-0.2v-2.8l0.2-0.2h2.8c0.7,0,1.2,0.1,1.5,0.4C177.3,18.8,177.4,19.1,177.4,19.6z"/>
		<path fill="#FFFFFF" d="M134.7,26.9l1.1,0l0.8-2.2l0.2-0.2h4.2l0.2,0.2l0.9,2.3h1.2v-1.3l-3.5-8.8l0-0.1l-1.6,0l-3.5,8.8
			L134.7,26.9z M137.4,23v-0.2l1.6-3.8l1.6,3.8V23H137.4z"/>
		<path fill="#FFFFFF" d="M125.1,9.1v6.3l0.1,0.1h2.4c0.4,0,0.8,0,1.1-0.1c0.3-0.1,0.5-0.2,0.7-0.3c0.2-0.1,0.4-0.3,0.5-0.6
			c0.1-0.3,0.2-0.5,0.2-0.9c0-0.4-0.1-0.7-0.3-1c-0.2-0.3-0.5-0.5-0.9-0.6c0.3-0.2,0.5-0.4,0.7-0.6c0.2-0.2,0.2-0.5,0.2-0.8
			c0-0.3-0.1-0.6-0.3-0.9c-0.2-0.3-0.4-0.5-0.7-0.6c-0.3-0.1-0.7-0.2-1.2-0.2h-2.3L125.1,9.1z M126,9.9l0.1-0.1h1.2
			c0.5,0,0.8,0,1,0.1c0.2,0.1,0.3,0.2,0.4,0.3c0.1,0.2,0.2,0.4,0.2,0.6c0,0.2-0.1,0.4-0.2,0.6c-0.1,0.2-0.3,0.3-0.5,0.3
			c-0.2,0.1-0.4,0.1-0.8,0.1h-1.3l-0.1-0.1V9.9z M126,12.7l0.1-0.1h1.4c0.4,0,0.7,0,1,0.1c0.2,0.1,0.4,0.2,0.5,0.4
			c0.1,0.2,0.2,0.4,0.2,0.6c0,0.2,0,0.4-0.1,0.6c-0.1,0.2-0.2,0.3-0.3,0.4c-0.1,0.1-0.3,0.1-0.5,0.2c-0.1,0-0.3,0-0.6,0h-1.5
			l-0.1-0.1V12.7z"/>
		<path fill="#FFFFFF" d="M138.7,14.5c-0.2,0.1-0.4,0.2-0.8,0.2c-0.3,0-0.5-0.1-0.7-0.2c-0.1-0.1-0.2-0.3-0.3-0.5l-0.1-0.1l-0.7,0
			l-0.1,0.1c0,0.5,0.2,0.9,0.5,1.2c0.3,0.3,0.8,0.4,1.4,0.4c0.4,0,0.6-0.1,0.9-0.2c0.3-0.1,0.5-0.3,0.7-0.6c0.2-0.2,0.2-0.5,0.2-0.8
			c0-0.3-0.1-0.5-0.2-0.7c-0.1-0.2-0.3-0.3-0.5-0.4c-0.2-0.1-0.4-0.1-1-0.3c-0.4-0.1-0.6-0.2-0.7-0.2c-0.1,0-0.2-0.1-0.3-0.2
			c0-0.1,0-0.2,0-0.2c0-0.1,0.1-0.2,0.2-0.3c0.1-0.1,0.4-0.1,0.7-0.1c0.3,0,0.5,0.1,0.6,0.2c0.1,0.1,0.2,0.2,0.2,0.3l0.1,0.1l0.6,0
			l0.1-0.1c0-0.3-0.1-0.6-0.2-0.8c-0.1-0.2-0.3-0.3-0.6-0.4c-0.3-0.1-0.6-0.2-1-0.2c-0.2,0-0.5,0-0.7,0.1c-0.2,0.1-0.4,0.1-0.5,0.2
			c-0.2,0.1-0.3,0.3-0.4,0.5c-0.1,0.2-0.1,0.3-0.1,0.5c0,0.2,0.1,0.4,0.2,0.6c0.1,0.2,0.3,0.3,0.5,0.5c0.2,0.1,0.6,0.2,1.2,0.4
			c0.4,0.1,0.5,0.2,0.6,0.2c0.1,0.1,0.2,0.2,0.2,0.4C138.9,14.3,138.9,14.4,138.7,14.5z"/>
		<polygon fill="#FFFFFF" points="141.7,10.2 141.8,10 141.8,9.3 141.7,9.2 140.9,9.2 140.8,9.3 140.8,10 140.9,10.2 		"/>
		<path fill="#FFFFFF" d="M155.5,14.5c-0.2,0.1-0.4,0.2-0.8,0.2c-0.3,0-0.5-0.1-0.7-0.2c-0.1-0.1-0.2-0.3-0.3-0.5l-0.1-0.1l-0.7,0
			l-0.1,0.1c0,0.5,0.2,0.9,0.5,1.2c0.3,0.3,0.8,0.4,1.4,0.4c0.4,0,0.6-0.1,0.9-0.2c0.3-0.1,0.5-0.3,0.7-0.6c0.2-0.2,0.2-0.5,0.2-0.8
			c0-0.3-0.1-0.5-0.2-0.7c-0.1-0.2-0.3-0.3-0.5-0.4c-0.2-0.1-0.4-0.1-1-0.3c-0.4-0.1-0.6-0.2-0.7-0.2c-0.1,0-0.2-0.1-0.3-0.2
			c0-0.1,0-0.2,0-0.2c0-0.1,0.1-0.2,0.2-0.3c0.1-0.1,0.4-0.1,0.7-0.1c0.3,0,0.5,0.1,0.6,0.2c0.1,0.1,0.2,0.2,0.2,0.3l0.1,0.1l0.6,0
			l0.1-0.1c0-0.3-0.1-0.6-0.2-0.8c-0.1-0.2-0.3-0.3-0.6-0.4c-0.3-0.1-0.6-0.2-1-0.2c-0.2,0-0.5,0-0.7,0.1c-0.2,0.1-0.4,0.1-0.5,0.2
			c-0.2,0.1-0.3,0.3-0.4,0.5c-0.1,0.2-0.1,0.3-0.1,0.5c0,0.2,0.1,0.4,0.2,0.6c0.1,0.2,0.3,0.3,0.5,0.5c0.2,0.1,0.6,0.2,1.2,0.4
			c0.4,0.1,0.5,0.2,0.6,0.2c0.1,0.1,0.2,0.2,0.2,0.4C155.7,14.3,155.6,14.4,155.5,14.5z"/>
		<path fill="#FFFFFF" d="M146.4,11.4c-0.1-0.2-0.3-0.3-0.5-0.4c-0.3-0.1-0.6-0.2-0.8-0.2c-0.6,0-0.9,0.1-1.3,0.6l-0.2-0.6h-0.6
			l-0.1,0.1v4.4l0.1,0.1h0.6l0.1-0.1v-2.2c0-0.4,0-0.7,0.1-0.9c0.1-0.2,0.2-0.4,0.4-0.5c0.2-0.1,0.4-0.2,0.6-0.2
			c0.2,0,0.4,0.1,0.5,0.2c0.2,0.1,0.3,0.3,0.3,0.5c0,0.1,0,0.4,0,0.8v2.3l0.1,0.1h0.7l0.1-0.1v-2.7c0-0.3-0.1-0.6-0.1-0.7
			C146.6,11.8,146.5,11.6,146.4,11.4z"/>
		<polygon fill="#FFFFFF" points="140.8,15.4 140.9,15.6 141.7,15.6 141.8,15.4 141.8,11 141.7,10.9 140.9,10.9 140.8,11 		"/>
		<path fill="#FFFFFF" d="M160.1,14.5c-0.2,0.1-0.4,0.2-0.8,0.2c-0.3,0-0.5-0.1-0.7-0.2c-0.1-0.1-0.2-0.3-0.3-0.5l-0.1-0.1l-0.7,0
			l-0.1,0.1c0,0.5,0.2,0.9,0.5,1.2c0.3,0.3,0.8,0.4,1.4,0.4c0.4,0,0.6-0.1,0.9-0.2c0.3-0.1,0.5-0.3,0.7-0.6c0.2-0.2,0.2-0.5,0.2-0.8
			c0-0.3-0.1-0.5-0.2-0.7c-0.1-0.2-0.3-0.3-0.5-0.4c-0.2-0.1-0.4-0.1-1-0.3c-0.4-0.1-0.6-0.2-0.7-0.2c-0.1,0-0.2-0.1-0.3-0.2
			c0-0.1,0-0.2,0-0.2c0-0.1,0.1-0.2,0.2-0.3c0.1-0.1,0.4-0.1,0.7-0.1c0.3,0,0.5,0.1,0.6,0.2c0.1,0.1,0.2,0.2,0.2,0.3l0.1,0.1l0.6,0
			l0.1-0.1c0-0.3-0.1-0.6-0.2-0.8c-0.1-0.2-0.3-0.3-0.6-0.4c-0.3-0.1-0.6-0.2-1-0.2c-0.2,0-0.5,0-0.7,0.1c-0.2,0.1-0.4,0.1-0.5,0.2
			c-0.2,0.1-0.3,0.3-0.4,0.5c-0.1,0.2-0.1,0.3-0.1,0.5c0,0.2,0.1,0.4,0.2,0.6c0.1,0.2,0.3,0.3,0.5,0.5c0.2,0.1,0.6,0.2,1.2,0.4
			c0.4,0.1,0.5,0.2,0.6,0.2c0.1,0.1,0.2,0.2,0.2,0.4C160.4,14.3,160.3,14.4,160.1,14.5z"/>
		<path fill="#FFFFFF" d="M152,13.5l0.1-0.1c0-0.1,0-0.1,0-0.2c0-0.8-0.2-1.4-0.6-1.8c-0.4-0.4-0.9-0.7-1.5-0.7
			c-0.7,0-1.2,0.2-1.6,0.7c-0.4,0.4-0.6,1.1-0.6,1.9c0,0.8,0.2,1.3,0.6,1.7c0.4,0.4,0.9,0.6,1.6,0.6c0.5,0,1-0.1,1.3-0.4
			c0.3-0.2,0.5-0.5,0.6-0.8v-0.3l-0.8,0c-0.1,0.3-0.2,0.4-0.4,0.5c-0.2,0.1-0.4,0.2-0.7,0.2c-0.3,0-0.6-0.1-0.9-0.3
			c-0.2-0.2-0.3-0.5-0.4-0.9l0.1-0.1H152z M148.8,12.7c0-0.3,0.1-0.6,0.3-0.8c0.2-0.2,0.5-0.4,0.9-0.4c0.4,0,0.7,0.2,0.9,0.5
			c0.1,0.2,0.2,0.4,0.2,0.7l-0.1,0.1H149L148.8,12.7z"/>
		<path fill="#FFFFFF" d="M132,10.8h-0.6l-0.1,0.1v2.7c0,0.3,0.1,0.6,0.1,0.7c0,0.2,0.1,0.4,0.2,0.6c0.1,0.2,0.2,0.3,0.5,0.4
			c0.2,0.1,0.5,0.2,0.8,0.2c0.6,0,0.9-0.1,1.3-0.6l0.2,0.6h0.6l0.1-0.1V11l-0.1-0.1h-0.6l-0.1,0.1v2.2c0,0.4,0,0.7-0.1,0.9
			c-0.1,0.2-0.2,0.4-0.5,0.5c-0.2,0.1-0.4,0.2-0.6,0.2c-0.2,0-0.4-0.1-0.5-0.2c-0.2-0.1-0.3-0.3-0.3-0.5c0-0.1,0-0.4,0-0.9V11
			L132,10.8z"/>
		<path fill="#FFFFFF" d="M197,16.6L197,16.6l-0.1-0.1H196h-0.1l0,0.1l-0.2,0.2l0,0v0.1v5.6c0,1.2-0.2,1.9-0.6,2.3
			c-0.4,0.4-1,0.6-1.9,0.6c-0.5,0-1-0.1-1.3-0.3c-0.3-0.2-0.6-0.5-0.7-0.8c-0.2-0.4-0.2-1-0.2-1.8v-5.6v-0.1l0,0l-0.2-0.2l-0.1-0.1
			h-0.1h-0.9h-0.1l0,0.1l-0.2,0.2l0,0v0.1v5.6c0,1.1,0.1,1.9,0.4,2.5c0.3,0.6,0.7,1.1,1.3,1.5c0.6,0.3,1.4,0.5,2.3,0.5
			c1,0,1.7-0.2,2.3-0.6c0.6-0.4,1-0.9,1.3-1.5c0.2-0.6,0.3-1.4,0.3-2.4v-5.6v-0.1l0,0L197,16.6z"/>
		<path fill="#FFFFFF" d="M204.9,21.4c0.3-0.2,0.6-0.5,0.8-0.8c0.2-0.4,0.4-0.8,0.4-1.3c0-0.5-0.1-1-0.4-1.4c-0.3-0.5-0.7-0.8-1.2-1
			c-0.5-0.2-1.1-0.3-1.9-0.3H199h-0.1l0,0l-0.2,0.2l0,0v0.1v9.7v0.1l0,0l0.2,0.2l0,0h0.1h3.6c0.7,0,1.2-0.1,1.7-0.2
			c0.5-0.1,0.9-0.3,1.2-0.5c0.3-0.2,0.6-0.6,0.8-1c0.2-0.4,0.3-0.9,0.3-1.4c0-0.6-0.2-1.2-0.5-1.6C205.8,21.9,205.4,21.6,204.9,21.4
			z M203.6,20.7c-0.2,0.1-0.7,0.1-1.2,0.1h-1.9l-0.1-0.1v-2.5l0.1-0.1h1.7c0.7,0,1.2,0,1.5,0.1c0.3,0.1,0.5,0.2,0.6,0.5
			c0.1,0.2,0.2,0.5,0.2,0.8c0,0.3-0.1,0.6-0.2,0.8C204.1,20.4,203.9,20.6,203.6,20.7z M200.3,22.4l0.1-0.1h2.1
			c0.6,0,1.1,0.1,1.4,0.2c0.3,0.1,0.5,0.3,0.7,0.5c0.2,0.2,0.3,0.5,0.3,0.9c0,0.3-0.1,0.6-0.2,0.8c-0.1,0.2-0.3,0.4-0.5,0.5
			c-0.2,0.1-0.4,0.2-0.7,0.3c-0.2,0-0.5,0-0.9,0h-2.3l-0.1-0.1V22.4z"/>
		<polygon fill="#FFFFFF" points="181.6,16.9 181.6,16.8 181.4,16.6 181.3,16.6 181.3,16.6 180.2,16.6 180.1,16.6 180.1,16.6 
			179.9,16.8 179.8,16.9 179.8,17 179.8,26.6 179.8,26.7 179.9,26.7 180.1,26.9 180.2,27 180.2,27 181.2,27 181.3,27 181.3,26.9 
			181.6,26.7 181.6,26.7 181.6,26.6 181.6,22.6 181.7,22.5 186.1,22.5 186.2,22.6 186.2,26.6 186.2,26.7 186.2,26.7 186.5,26.9 
			186.5,27 186.6,27 187.6,27 187.6,27 187.7,26.9 187.9,26.7 188,26.7 188,26.6 188,17 188,16.9 187.9,16.8 187.7,16.6 187.7,16.6 
			187.6,16.6 186.5,16.6 186.5,16.6 186.4,16.6 186.2,16.8 186.2,16.9 186.2,17 186.2,20.8 186.1,20.9 181.7,20.9 181.6,20.8 
			181.6,17 		"/>
	</g>
</g>
<line fill="none" stroke="#FFFFFF" stroke-width="0.25" stroke-miterlimit="10" x1="106.8" y1="1.3" x2="106.8" y2="36"/>
</svg>
