<svg xmlns="http://www.w3.org/2000/svg" xmlns:xlink="http://www.w3.org/1999/xlink" viewBox="0 0 702.33 295.82"><defs><style>.cls-1{isolation:isolate;}.cls-2,.cls-3{mix-blend-mode:multiply;}.cls-2{fill:url(#linear-gradient);}.cls-3{fill:url(#linear-gradient-2);}.cls-4{fill:#a35d00;}.cls-5{fill:#fa940b;}.cls-6{fill:#e8890a;}.cls-7{fill:#c97300;}.cls-11,.cls-8{fill:#fff;}.cls-9{fill:#ebebeb;}.cls-10{font-size:70px;}.cls-10,.cls-11{font-family:Myriad Pro;}.cls-11{font-size:50px;}.cls-12{letter-spacing:-1px;}</style><linearGradient id="linear-gradient" x1="194.72" y1="248.25" x2="150.85" y2="130.63" gradientUnits="userSpaceOnUse"><stop offset="0" stop-color="#fff"/><stop offset="0.21" stop-color="#f7f9fa"/><stop offset="0.54" stop-color="#e0e9ee"/><stop offset="0.94" stop-color="#bbced9"/><stop offset="1" stop-color="#b5cad6"/></linearGradient><linearGradient id="linear-gradient-2" x1="269.98" y1="236.2" x2="252.99" y2="190.66" xlink:href="#linear-gradient"/></defs><title>averageattendance-metric</title><g class="cls-1"><g id="Objects"><polygon class="cls-2" points="351.69 295.82 122.67 295.82 0 99.47 229.01 99.47 351.69 295.82"/><polygon class="cls-3" points="330.75 254.62 242.08 254.62 194.58 178.6 283.34 178.6 330.75 254.62"/><polygon class="cls-4" points="307.2 0 416.09 95.53 293.17 95.53 196.31 0 307.2 0"/><polygon class="cls-4" points="404.06 183.66 546.86 72.77 423.95 72.77 293.17 183.66 404.06 183.66"/><rect class="cls-5" x="74.07" y="16.71" width="628.27" height="79.49"/><polygon class="cls-6" points="702.33 175.69 302.53 175.69 251.76 96.2 702.33 96.2 702.33 175.69"/><polygon class="cls-7" points="404.06 183.66 293.17 183.66 196.31 0 307.2 0 404.06 183.66"/><path class="cls-5" d="M349.51,701.47a1,1,0,0,1-.89-0.53l-2.8-5.3a1,1,0,0,1,1.77-.93l2.8,5.3A1,1,0,0,1,349.51,701.47Zm-5.61-10.61a1,1,0,0,1-.89-0.53l-2.8-5.3a1,1,0,0,1,1.77-.93l2.8,5.3A1,1,0,0,1,343.9,690.86Zm-5.61-10.61a1,1,0,0,1-.89-0.53l-2.8-5.3a1,1,0,0,1,1.77-.93l2.8,5.3A1,1,0,0,1,338.29,680.25Zm-5.61-10.61a1,1,0,0,1-.89-0.53L329,663.8a1,1,0,0,1,1.77-.93l2.8,5.31A1,1,0,0,1,332.69,669.64ZM327.08,659a1,1,0,0,1-.89-0.53l-2.8-5.31a1,1,0,0,1,1.77-.93l2.8,5.31A1,1,0,0,1,327.08,659Zm-5.61-10.61a1,1,0,0,1-.89-0.53l-2.8-5.31a1,1,0,0,1,1.77-.93l2.8,5.31A1,1,0,0,1,321.48,648.42Zm-5.61-10.61a1,1,0,0,1-.89-0.53l-2.8-5.3A1,1,0,0,1,314,631l2.8,5.3A1,1,0,0,1,315.87,637.81Zm-5.61-10.61a1,1,0,0,1-.89-0.53l-2.8-5.3a1,1,0,0,1,1.77-.93l2.8,5.3A1,1,0,0,1,310.27,627.2Zm-5.61-10.61a1,1,0,0,1-.89-0.53l-2.8-5.3a1,1,0,0,1,1.77-.93l2.8,5.3A1,1,0,0,1,304.66,616.59ZM299.05,606a1,1,0,0,1-.89-0.53l-2.8-5.31a1,1,0,0,1,1.77-.93l2.8,5.31A1,1,0,0,1,299.05,606Zm-5.61-10.61a1,1,0,0,1-.89-0.53l-2.8-5.31a1,1,0,0,1,1.77-.93l2.8,5.31A1,1,0,0,1,293.45,595.37Zm-5.61-10.61a1,1,0,0,1-.89-0.53l-2.8-5.3a1,1,0,0,1,1.77-.93l2.8,5.3A1,1,0,0,1,287.84,584.76Zm-5.61-10.61a1,1,0,0,1-.89-0.53l-2.8-5.3a1,1,0,0,1,1.77-.93l2.8,5.3A1,1,0,0,1,282.24,574.15Zm-5.61-10.61a1,1,0,0,1-.89-0.53l-2.8-5.3a1,1,0,0,1,1.77-.93l2.8,5.3A1,1,0,0,1,276.63,563.54ZM271,552.93a1,1,0,0,1-.89-0.53l-2.8-5.3a1,1,0,0,1,1.77-.93l2.8,5.3A1,1,0,0,1,271,552.93Zm-5.61-10.61a1,1,0,0,1-.89-0.53l-2.8-5.31a1,1,0,0,1,1.77-.93l2.8,5.31A1,1,0,0,1,265.42,542.32Zm-5.61-10.61a1,1,0,0,1-.89-0.53l-2.25-4.25a1,1,0,0,1,1.77-.93l2.25,4.25A1,1,0,0,1,259.81,531.71Z" transform="translate(-48.83 -522.41)"/><path class="cls-5" d="M439.29,701.47a1,1,0,0,1-.88-0.53l-2.25-4.25a1,1,0,1,1,1.77-.93l2.25,4.25a1,1,0,0,1-.42,1.35A1,1,0,0,1,439.29,701.47Zm-5-9.56a1,1,0,0,1-.88-0.53l-2.8-5.3a1,1,0,0,1,1.77-.93l2.8,5.3a1,1,0,0,1-.42,1.35A1,1,0,0,1,434.24,691.91Zm-5.61-10.61a1,1,0,0,1-.88-0.53l-2.8-5.31a1,1,0,1,1,1.77-.93l2.8,5.31a1,1,0,0,1-.42,1.35A1,1,0,0,1,428.63,681.3ZM423,670.69a1,1,0,0,1-.88-0.53l-2.8-5.31a1,1,0,1,1,1.77-.93l2.8,5.31A1,1,0,0,1,423,670.69Zm-5.61-10.61a1,1,0,0,1-.88-0.53l-2.8-5.31a1,1,0,0,1,1.77-.93l2.8,5.31A1,1,0,0,1,417.42,660.08Zm-5.61-10.61a1,1,0,0,1-.88-0.53l-2.8-5.3a1,1,0,1,1,1.77-.93l2.8,5.3A1,1,0,0,1,411.82,649.47Zm-5.61-10.61a1,1,0,0,1-.88-0.53l-2.8-5.3a1,1,0,0,1,1.77-.93l2.8,5.3A1,1,0,0,1,406.21,638.86Zm-5.61-10.61a1,1,0,0,1-.89-0.53l-2.8-5.31a1,1,0,0,1,1.77-.93l2.8,5.31A1,1,0,0,1,400.6,628.25ZM395,617.64a1,1,0,0,1-.89-0.53l-2.8-5.31a1,1,0,0,1,1.77-.93l2.8,5.31A1,1,0,0,1,395,617.64ZM389.39,607a1,1,0,0,1-.89-0.53l-2.8-5.3a1,1,0,0,1,1.77-.93l2.8,5.3A1,1,0,0,1,389.39,607Zm-5.61-10.61a1,1,0,0,1-.89-0.53l-2.8-5.3a1,1,0,0,1,1.77-.93l2.8,5.3A1,1,0,0,1,383.79,596.42Zm-5.61-10.61a1,1,0,0,1-.89-0.53l-2.8-5.3a1,1,0,0,1,1.77-.93l2.8,5.3A1,1,0,0,1,378.18,585.81Zm-5.61-10.61a1,1,0,0,1-.89-0.53l-2.8-5.31a1,1,0,0,1,1.77-.93l2.8,5.31A1,1,0,0,1,372.58,575.2ZM367,564.59a1,1,0,0,1-.89-0.53l-2.8-5.31a1,1,0,0,1,1.77-.93l2.8,5.31A1,1,0,0,1,367,564.59ZM361.36,554a1,1,0,0,1-.89-0.53l-2.8-5.3a1,1,0,0,1,1.77-.93l2.8,5.3A1,1,0,0,1,361.36,554Zm-5.61-10.61a1,1,0,0,1-.89-0.53l-2.8-5.3a1,1,0,0,1,1.77-.93l2.8,5.3A1,1,0,0,1,355.76,543.37Zm-5.61-10.61a1,1,0,0,1-.89-0.53l-2.8-5.3a1,1,0,0,1,1.77-.93l2.8,5.3A1,1,0,0,1,350.15,532.76Z" transform="translate(-48.83 -522.41)"/><polygon class="cls-6" points="57.25 198.64 0 99.47 57.25 0.31 171.76 0.31 229.01 99.47 171.76 198.64 57.25 198.64"/><polygon class="cls-8" points="68.03 179.97 21.56 99.47 68.03 18.98 160.98 18.98 207.46 99.47 160.98 179.97 68.03 179.97"/><polygon class="cls-9" points="21.56 99.47 207.46 99.47 160.98 179.97 68.03 179.97 21.56 99.47"/><polygon class="cls-7" points="214.63 218.27 191.72 178.6 214.63 138.93 260.43 138.93 283.34 178.6 260.43 218.27 214.63 218.27"/><polygon class="cls-8" points="221.25 206.78 204.98 178.6 221.25 150.41 253.8 150.41 270.08 178.6 253.8 206.78 221.25 206.78"/><polygon class="cls-9" points="204.98 178.6 270.08 178.6 253.8 206.78 221.25 206.78 204.98 178.6"/><text class="cls-10" transform="translate(64.4 117.59)">70+</text><text class="cls-11" transform="translate(382.72 77.59)"><tspan class="cls-12">A</tspan><tspan x="29.55" y="0">v</tspan><tspan x="53.1" y="0">e</tspan><tspan x="78.15" y="0">r</tspan><tspan x="94.25" y="0">age </tspan><tspan x="181.95" y="0">E</tspan><tspan x="206.2" y="0">v</tspan><tspan x="229.75" y="0">e</tspan><tspan x="254.8" y="0">n</tspan><tspan x="282.35" y="0">t</tspan><tspan x="28" y="60">A</tspan><tspan x="58.1" y="60">t</tspan><tspan x="74.65" y="60">t</tspan><tspan x="90.9" y="60">endan</tspan><tspan x="223.75" y="60">c</tspan><tspan x="245.85" y="60">e</tspan></text></g></g></svg>