<svg xmlns="http://www.w3.org/2000/svg" xmlns:xlink="http://www.w3.org/1999/xlink" viewBox="0 0 702.33 295.82"><defs><style>.cls-1{isolation:isolate;}.cls-2,.cls-3{mix-blend-mode:multiply;}.cls-2{fill:url(#linear-gradient);}.cls-3{fill:url(#linear-gradient-2);}.cls-4{fill:#960046;}.cls-5{fill:#ec2c85;}.cls-6{fill:#d62779;}.cls-7{fill:#bd1d68;}.cls-11,.cls-8{fill:#fff;}.cls-9{fill:#ebebeb;}.cls-10{font-size:60px;}.cls-10,.cls-11{font-family:Myriad Pro;}.cls-11{font-size:48px;}.cls-12{letter-spacing:-1px;}</style><linearGradient id="linear-gradient" x1="194.72" y1="248.25" x2="150.85" y2="130.63" gradientUnits="userSpaceOnUse"><stop offset="0" stop-color="#fff"/><stop offset="0.21" stop-color="#f7f9fa"/><stop offset="0.54" stop-color="#e0e9ee"/><stop offset="0.94" stop-color="#bbced9"/><stop offset="1" stop-color="#b5cad6"/></linearGradient><linearGradient id="linear-gradient-2" x1="269.98" y1="236.2" x2="252.99" y2="190.66" xlink:href="#linear-gradient"/></defs><title>BTMstudents-metric</title><g class="cls-1"><g id="Objects"><polygon class="cls-2" points="351.69 295.82 122.67 295.82 0 99.47 229.01 99.47 351.69 295.82"/><polygon class="cls-3" points="330.75 254.62 242.08 254.62 194.58 178.6 283.34 178.6 330.75 254.62"/><polygon class="cls-4" points="307.2 0 416.09 95.53 293.17 95.53 196.31 0 307.2 0"/><polygon class="cls-4" points="404.06 183.66 546.86 72.77 423.95 72.77 293.17 183.66 404.06 183.66"/><rect class="cls-5" x="74.07" y="16.71" width="628.27" height="79.49"/><polygon class="cls-6" points="702.33 175.69 302.53 175.69 251.76 96.2 702.33 96.2 702.33 175.69"/><polygon class="cls-7" points="404.06 183.66 293.17 183.66 196.31 0 307.2 0 404.06 183.66"/><path class="cls-5" d="M349.51,231a1,1,0,0,1-.89-0.53l-2.8-5.31a1,1,0,1,1,1.77-.93l2.8,5.31A1,1,0,0,1,349.51,231Zm-5.61-10.61a1,1,0,0,1-.89-0.53l-2.8-5.3a1,1,0,0,1,1.77-.93l2.8,5.3A1,1,0,0,1,343.9,220.36Zm-5.61-10.61a1,1,0,0,1-.89-0.53l-2.8-5.31a1,1,0,0,1,1.77-.93l2.8,5.31A1,1,0,0,1,338.29,209.75Zm-5.61-10.61a1,1,0,0,1-.89-0.53L329,193.3a1,1,0,1,1,1.77-.93l2.8,5.31A1,1,0,0,1,332.69,199.14Zm-5.61-10.61a1,1,0,0,1-.89-0.53l-2.8-5.3a1,1,0,0,1,1.77-.93l2.8,5.3A1,1,0,0,1,327.08,188.52Zm-5.61-10.61a1,1,0,0,1-.89-0.53l-2.8-5.31a1,1,0,1,1,1.77-.93l2.8,5.31A1,1,0,0,1,321.48,177.92Zm-5.61-10.61a1,1,0,0,1-.89-0.53l-2.8-5.31a1,1,0,1,1,1.77-.93l2.8,5.31A1,1,0,0,1,315.87,167.3Zm-5.61-10.61a1,1,0,0,1-.89-0.53l-2.8-5.31a1,1,0,0,1,1.77-.93l2.8,5.31A1,1,0,0,1,310.27,156.69Zm-5.61-10.61a1,1,0,0,1-.89-0.53l-2.8-5.31a1,1,0,1,1,1.77-.93l2.8,5.31A1,1,0,0,1,304.66,146.08Zm-5.61-10.61a1,1,0,0,1-.89-0.53l-2.8-5.31a1,1,0,0,1,1.77-.93l2.8,5.31A1,1,0,0,1,299.05,135.47Zm-5.61-10.61a1,1,0,0,1-.89-0.53l-2.8-5.31a1,1,0,1,1,1.77-.93l2.8,5.31A1,1,0,0,1,293.45,124.86Zm-5.61-10.61a1,1,0,0,1-.89-0.53l-2.8-5.31a1,1,0,0,1,1.77-.93l2.8,5.31A1,1,0,0,1,287.84,114.25Zm-5.61-10.61a1,1,0,0,1-.89-0.53l-2.8-5.31a1,1,0,1,1,1.77-.93l2.8,5.31A1,1,0,0,1,282.24,103.64ZM276.63,93a1,1,0,0,1-.89-0.53l-2.8-5.31a1,1,0,0,1,1.77-.93l2.8,5.31A1,1,0,0,1,276.63,93ZM271,82.42a1,1,0,0,1-.89-0.53l-2.8-5.31a1,1,0,0,1,1.77-.93l2.8,5.31A1,1,0,0,1,271,82.42Zm-5.61-10.61a1,1,0,0,1-.89-0.53L261.73,66A1,1,0,0,1,263.5,65l2.8,5.31A1,1,0,0,1,265.42,71.81ZM259.81,61.2a1,1,0,0,1-.89-0.53l-2.25-4.25a1,1,0,0,1,1.77-.93l2.25,4.25A1,1,0,0,1,259.81,61.2Z" transform="translate(-48.83 -51.91)"/><path class="cls-5" d="M439.29,231a1,1,0,0,1-.88-0.53l-2.25-4.25a1,1,0,1,1,1.77-.93l2.25,4.25A1,1,0,0,1,439.29,231Zm-5-9.56a1,1,0,0,1-.88-0.53l-2.8-5.31a1,1,0,1,1,1.77-.93l2.8,5.31A1,1,0,0,1,434.24,221.41Zm-5.61-10.61a1,1,0,0,1-.88-0.53l-2.8-5.3a1,1,0,1,1,1.77-.93l2.8,5.3A1,1,0,0,1,428.63,210.8ZM423,200.19a1,1,0,0,1-.88-0.53l-2.8-5.31a1,1,0,1,1,1.77-.93l2.8,5.31A1,1,0,0,1,423,200.19Zm-5.61-10.61a1,1,0,0,1-.88-0.53l-2.8-5.31a1,1,0,1,1,1.77-.93l2.8,5.31A1,1,0,0,1,417.42,189.58ZM411.82,179a1,1,0,0,1-.88-0.53l-2.8-5.31a1,1,0,1,1,1.77-.93l2.8,5.31A1,1,0,0,1,411.82,179Zm-5.61-10.61a1,1,0,0,1-.88-0.53l-2.8-5.31a1,1,0,1,1,1.77-.93l2.8,5.31A1,1,0,0,1,406.21,168.36Zm-5.61-10.61a1,1,0,0,1-.89-0.53l-2.8-5.3a1,1,0,1,1,1.77-.93l2.8,5.3A1,1,0,0,1,400.6,157.75ZM395,147.14a1,1,0,0,1-.89-0.53l-2.8-5.31a1,1,0,1,1,1.77-.93l2.8,5.31A1,1,0,0,1,395,147.14Zm-5.61-10.61a1,1,0,0,1-.89-0.53l-2.8-5.31a1,1,0,1,1,1.77-.93l2.8,5.31A1,1,0,0,1,389.39,136.53Zm-5.61-10.61a1,1,0,0,1-.89-0.53l-2.8-5.3a1,1,0,0,1,1.77-.93l2.8,5.3A1,1,0,0,1,383.79,125.92Zm-5.61-10.61a1,1,0,0,1-.89-0.53l-2.8-5.31a1,1,0,0,1,1.77-.93l2.8,5.31A1,1,0,0,1,378.18,115.31Zm-5.61-10.61a1,1,0,0,1-.89-0.53l-2.8-5.31a1,1,0,1,1,1.77-.93l2.8,5.31A1,1,0,0,1,372.58,104.7ZM367,94.09a1,1,0,0,1-.89-0.53l-2.8-5.31a1,1,0,0,1,1.77-.93l2.8,5.31A1,1,0,0,1,367,94.09Zm-5.61-10.61a1,1,0,0,1-.89-0.53l-2.8-5.31a1,1,0,1,1,1.77-.93l2.8,5.31A1,1,0,0,1,361.36,83.48Zm-5.61-10.61a1,1,0,0,1-.89-0.53l-2.8-5.3a1,1,0,0,1,1.77-.93l2.8,5.3A1,1,0,0,1,355.76,72.87Zm-5.61-10.61a1,1,0,0,1-.89-0.53l-2.8-5.31a1,1,0,1,1,1.77-.93l2.8,5.31A1,1,0,0,1,350.15,62.26Z" transform="translate(-48.83 -51.91)"/><polygon class="cls-6" points="57.25 198.64 0 99.47 57.25 0.31 171.76 0.31 229.01 99.47 171.76 198.64 57.25 198.64"/><polygon class="cls-8" points="68.03 179.97 21.56 99.47 68.03 18.98 160.98 18.98 207.46 99.47 160.98 179.97 68.03 179.97"/><polygon class="cls-9" points="21.56 99.47 207.46 99.47 160.98 179.97 68.03 179.97 21.56 99.47"/><polygon class="cls-7" points="214.63 218.27 191.72 178.6 214.63 138.93 260.43 138.93 283.34 178.6 260.43 218.27 214.63 218.27"/><polygon class="cls-8" points="221.25 206.78 204.98 178.6 221.25 150.41 253.8 150.41 270.08 178.6 253.8 206.78 221.25 206.78"/><polygon class="cls-9" points="204.98 178.6 270.08 178.6 253.8 206.78 221.25 206.78 204.98 178.6"/><text class="cls-10" transform="translate(39.17 117.09)">1700+</text><text class="cls-11" transform="translate(447.37 79.09)"><tspan class="cls-12">F</tspan><tspan x="21.7" y="0">ull</tspan><tspan class="cls-12" x="70.8" y="0"> </tspan><tspan x="79.01" y="0">T</tspan><tspan x="102.29" y="0">ime</tspan><tspan x="-49.46" y="57.6">B</tspan><tspan x="-23.88" y="57.6">TM </tspan><tspan x="48.74" y="57.6">S</tspan><tspan x="72.26" y="57.6">tude</tspan><tspan x="165.72" y="57.6">n</tspan><tspan x="192.17" y="57.6">ts</tspan></text></g></g></svg>