<?xml version="1.0" encoding="utf-8"?>
<!-- Generator: Adobe Illustrator 22.0.1, SVG Export Plug-In . SVG Version: 6.00 Build 0)  -->
<svg version="1.1" id="Layer_1" xmlns="http://www.w3.org/2000/svg" xmlns:xlink="http://www.w3.org/1999/xlink" x="0px" y="0px"
	 viewBox="0 0 500 500" enable-background="new 0 0 500 500" xml:space="preserve">
<g>
	<path d="M192.9,329c-3.5,1.8-5.8,5.6-6.2,9.5c-0.2,5.3,3.6,10.3,8.8,11.4c7.5,2.1,15.6-5.6,13.4-13.3
		C207.6,329.8,199.1,325.5,192.9,329L192.9,329z"/>
	<path d="M360.1,258.5c-5-0.1-10,0-15,0c0,7.3,0,14.6,0,21.9c4.8,0,9.7,0,14.6,0c5.1,0.1,9.8-3.9,10.7-8.9
		C371.9,265.3,366.5,258.7,360.1,258.5L360.1,258.5z"/>
	<path d="M75.1,258.8c0,7.7,0,15.5,0,23.2c4.9-0.2,9.8,0.4,14.6-0.3c8.1-1.6,12.1-12.8,6.4-18.9C90.9,256.6,82,259.4,75.1,258.8
		L75.1,258.8z"/>
	<path d="M242.7,208.7c7.3,3.7,16.7,2.8,23.1-2.4c6.9-5.2,10.3-14.6,8.3-23c-2.4-11.4-14.7-19.9-26.2-17.1
		c-9.1,1.8-16.4,10-17.6,19.1C228.8,194.7,234,204.7,242.7,208.7L242.7,208.7z"/>
	<path d="M275.7,343.6c3.8,0,7.6,0,11.4,0c-1.9-4.3-3.8-8.6-5.7-13C279.4,334.8,277.6,339.3,275.7,343.6L275.7,343.6z"/>
	<path d="M263.6,329.3c-2.7-2-6.3-1.2-9.4-1.3c0,4.2,0,8.3,0,12.5c2.4-0.1,4.9,0.2,7.3-0.2C266.1,338.9,267.2,332.3,263.6,329.3
		L263.6,329.3z"/>
	<path d="M289.5,300.4c6.3,3.2,14,2.9,20.2-0.4c8.7-4.7,13.6-15.4,11.2-25c-2.4-11.4-14.6-19.9-26.1-17.2
		c-9.2,1.8-16.5,10-17.7,19.2C275.7,286.3,280.9,296.3,289.5,300.4L289.5,300.4z"/>
	<path d="M210.6,179.9c1.5-6.3-3.9-12.8-10.2-13c-5-0.1-10,0-15,0c0,7.3,0,14.6,0,21.9c4.8,0,9.7,0,14.5,0
		C204.9,189,209.6,184.9,210.6,179.9L210.6,179.9z"/>
	<path d="M428.6,209.2c-9.9,9.3-26.8,9.4-36.8,0.2c-8.2-7.2-11.3-19.4-7.9-29.7c2.8-9.1,10.5-16.5,19.7-18.6
		c10-2.5,21.3,1.2,27.8,9.4C440.7,181.5,439.5,199.6,428.6,209.2L428.6,209.2z M428.5,306.9c-11.6-14.5-23-29-34.6-43.5
		c-0.1,14.1,0.1,28.3-0.1,42.4c-1.1,1.9-3.5,0.7-5.2,1c-0.6-17.6-0.1-35.3-0.3-52.9c-0.4-2.1,1.8-2,3.2-2.1
		c11.6,14.7,23.3,29.4,34.9,44.1c0.1-13.9-0.1-27.9,0.1-41.8c1.1-1.8,5.9-1.8,5.5,1c0,17,0,34,0,51
		C432.6,308.2,429.3,308.7,428.5,306.9L428.5,306.9z M378.5,166.2c-4.7,0.6-9.5,0.1-14.3,0.3c0,15.6,0,31.2,0,46.9
		c0.4,2.7-3.1,2-4.8,2c-1.5-0.8-0.9-2.6-1.1-4c0-14.9,0-29.9,0-44.8c-4.7-0.1-9.5,0.2-14.2-0.2c-1-1.4-0.3-3.2-0.2-4.8
		c10.9-0.2,21.9-0.1,32.8-0.1C379.5,160.8,379.4,164.5,378.5,166.2L378.5,166.2z M376.4,271.5c-0.8,6.2-5.6,10.9-11.1,13.4
		c3.5,6.7,7.2,13.2,10.4,20c0.7,3.2-4.1,1.6-6,2c-3.6-7.1-7-14.2-10.4-21.4c-4.9,0-9.7,0-14.6,0c-0.2,7.1,0.4,14.3-0.3,21.4
		c-1.8-0.3-5.6,0.9-5.5-2c0-17-0.1-34,0.1-50.9c0.2-0.2,0.7-0.7,1-1c7.2-0.1,14.3-0.1,21.5,0C370.5,253.6,378.1,262.5,376.4,271.5
		L376.4,271.5z M336,339.5c-0.3,4.4,0.1,8.8-0.2,13.2c-0.7,0-2.1-0.1-2.8-0.1c-0.2-4.4,0.1-8.7-0.2-13.1c-2.8-4.9-6.8-9.1-9.4-14.2
		c0.8,0,2.3-0.1,3.1-0.1c2.6,3.8,5.3,7.5,7.9,11.3c2.8-3.6,5.3-7.4,7.9-11.2c0.8,0,2.5-0.1,3.3-0.1C343,330.3,338.9,334.6,336,339.5
		L336,339.5z M319.6,353.1c-1.2-0.6-2.2-1.4-2.9-2.5c-5.2-6.7-10.6-13.3-15.8-20c-0.1,7.4,0,14.8,0,22.1c-0.6,0-1.9,0-2.5-0.1
		c0-9.3-0.1-18.5,0.1-27.8c1.1,0.3,1.9,0.9,2.6,1.8c5.4,6.6,10.8,13.4,16.2,20c0-7.2,0-14.4,0-21.6c0.6,0.1,1.8,0.3,2.4,0.4
		C319.8,334.7,319.7,343.9,319.6,353.1L319.6,353.1z M288.1,345.9c-4.5,0-9.1,0-13.6,0c-1,2.3-2,4.6-3,6.9c-0.7,0-2.1-0.1-2.8-0.2
		c2.9-7.6,6.6-15,9.8-22.5c0.9-1.8,1.3-4.1,3.2-5.2c4.1,9.3,8.6,18.5,12.1,28C289.8,353.6,289.8,348.5,288.1,345.9L288.1,345.9z
		 M264.8,341.9c-3.1,2.2-7.1,1.2-10.6,1.4c0,3.1,0,6.3-0.1,9.4c-0.7,0-2,0-2.7,0c0-9.1-0.1-18.3,0.1-27.4c4.7,0.2,10.1-1.2,14.1,2
		C270.1,330.9,269.6,338.7,264.8,341.9L264.8,341.9z M242.1,352.6c-1.5-6.8-2.4-13.8-3.8-20.7c-2.5,6.9-4.7,13.9-7.3,20.7
		c-0.4,0-1.2,0.1-1.6,0.1c-2.6-6.8-4.8-13.8-7.2-20.7c-1.4,6.8-2.3,13.7-3.5,20.5c-0.7,0-2.2,0.1-2.9,0.1c1.6-9.2,3.3-18.4,5.2-27.5
		c0.4,0,1.1,0,1.4,0.1c2.9,7.2,5.2,14.6,7.9,21.9c2.7-7.3,4.9-14.8,7.8-22c0.4,0,1.1,0,1.4,0c1.9,9.2,3.7,18.4,5.2,27.6
		C244.1,352.8,242.8,352.7,242.1,352.6L242.1,352.6z M210,215.3c-3.6-7.1-7-14.2-10.4-21.4c-4.9,0-9.7,0-14.6,0
		c-0.2,7.1,0.4,14.3-0.3,21.4c-1.8-0.4-4.3,0.7-5.4-1.1c-0.2-16.3,0-32.6-0.1-48.9c0.1-1.4-0.5-3.2,1.1-3.9c7.2-0.1,14.4-0.1,21.5,0
		c9,0.5,16.5,9.5,14.9,18.5c-0.8,6.2-5.6,10.9-11.1,13.4c3.5,6.6,7.2,13.2,10.4,20C216.6,216.5,211.8,214.9,210,215.3L210,215.3z
		 M212.4,271.4c-0.4,7.9-6.7,15-14.5,16c-5,0.4-10,0.1-14.9,0.2c0,5.8,0.1,11.6,0,17.4c0.4,2.7-3.1,1.9-4.8,1.9
		c-1.5-0.8-0.9-2.6-1.1-4c0.1-16.3-0.1-32.6,0.1-49c0.2-0.2,0.7-0.7,0.9-0.9c6.3-0.1,12.5-0.1,18.8,0
		C206,253.6,213.3,262.4,212.4,271.4L212.4,271.4z M201.5,352.3c-7.1,2.1-15.2-2.6-16.8-9.8c-1.9-6.8,2.2-14.7,9.1-16.6
		c7.2-2.5,15.9,2.1,17.5,9.6C213.4,342.5,208.7,350.7,201.5,352.3L201.5,352.3z M161.3,348.2c-5.6-5.9-4.3-16.5,2.7-20.8
		c5.3-3.6,12.8-2.7,17.3,1.8c-0.5,0.5-1.5,1.5-1.9,2c-3.1-2.5-7.3-4.2-11.3-2.7c-5.9,1.9-9,9.5-6.3,15c2,4.9,8.1,7.7,13.1,5.8
		c2.3-0.8,4.6-4,6.5-0.8C176.1,354.1,166.4,354.1,161.3,348.2L161.3,348.2z M155.3,301.3c-10.7,9.6-29,8.6-38.4-2.4
		c-10.1-10.9-9.3-29.6,1.7-39.6c3.5-3.1,7.7-5.5,12.2-6.6c10.1-2.5,21.4,1.2,27.8,9.4C168,273.4,166.6,291.9,155.3,301.3
		L155.3,301.3z M105.6,150.7c-6.2,0.4-12.4,0-18.6,0.2c0,21,0.1,42.1-0.1,63.1c-1.4,2.1-4.2,1.1-6.3,1.2c-1.5-0.8-1.2-2.5-1.2-4
		c0-20.1,0-40.2,0-60.3c-6.1-0.1-12.1,0.1-18.2-0.1c-2.2-0.9-2.1-5.5-0.1-6.7c14.3-0.2,28.6-0.1,42.9-0.1
		C107.5,143.5,107.4,149.1,105.6,150.7L105.6,150.7z M95.7,285.4c-6.3,3.6-13.8,1.7-20.6,2.2c-0.2,6.2,0.3,12.5-0.2,18.8
		c-1.6,1-5.8,1.4-5.6-1.4c0-17-0.1-34,0.1-51c0.2-0.2,0.7-0.7,0.9-0.9c5.9-0.2,11.7,0,17.6-0.1c6.7,0.1,13.2,4.5,15.5,10.8
		C106.6,271.5,103.3,281.6,95.7,285.4L95.7,285.4z M121.1,167.3c3.4-3,7.4-5.2,11.8-6.2c10-2.5,21.3,1.2,27.7,9.4
		c9.4,11.2,8,29.7-3.3,39.2c-10.9,9.8-29.6,8.5-38.9-2.9C108.7,195.6,109.9,177,121.1,167.3L121.1,167.3z M227.5,258.6
		c10.3-9.3,27.5-8.7,37.1,1.4c-1,1.5-2.1,3-3.6,4.1c-4.4-3.2-9.2-6.4-14.8-6.5c-9.1-0.7-17.8,5.7-20.8,14.2
		c-2.9,7.3-1.6,16.1,3.3,22.3c5.1,6.7,14.5,10.1,22.5,7.4c3.1-0.9,5.7-2.9,8.3-4.8c1.9-1.9,3.5,1.3,5,2.2c-1.2,3-4.3,4.5-6.9,6.1
		c-10.9,5.8-25.5,2.8-33.2-6.7C214.6,287,216.1,268.2,227.5,258.6L227.5,258.6z M233.5,167.8c3.5-3.2,7.7-5.6,12.4-6.7
		c10.1-2.5,21.4,1.2,27.8,9.4c9.4,11.2,7.9,29.7-3.3,39.1c-10.7,9.6-29,8.6-38.4-2.4C221.9,196.4,222.6,177.8,233.5,167.8
		L233.5,167.8z M280.9,258.9c3.4-3,7.4-5.2,11.8-6.2c10-2.5,21.3,1.2,27.8,9.4c9.4,11.2,8,29.8-3.4,39.2c-10.9,9.8-29.6,8.4-38.9-3
		C268.5,287.2,269.7,268.6,280.9,258.9L280.9,258.9z M294.9,160.2c11.6,14.7,23.3,29.4,34.9,44.1c0.1-14-0.1-27.9,0.1-41.9
		c1.1-1.8,5.9-1.8,5.5,1c-0.1,17.7,0.4,35.3-0.3,53c-2.8,0.6-4.1-2.2-5.6-3.9c-10.7-13.5-21.5-27.1-32.3-40.6
		c-0.1,14.1,0.1,28.3-0.1,42.4c-1.1,1.8-5.9,1.8-5.5-1c0-17,0-33.9,0-50.9C291.2,160.2,293.5,160.4,294.9,160.2L294.9,160.2z
		 M491.9,98.5c-161.2,0-322.4,0-483.5,0c0,101.1,0,202.2,0,303.4c161.2,0,322.4,0,483.5,0C491.9,300.7,491.9,199.6,491.9,98.5
		L491.9,98.5z"/>
	<path d="M159.1,275c-2.4-11.4-14.6-19.9-26.2-17.2c-9.2,1.8-16.5,9.9-17.7,19.1c-1.4,9.4,3.8,19.5,12.4,23.5
		c6.2,3.1,14,2.9,20.1-0.4C156.5,295.3,161.4,284.6,159.1,275L159.1,275z"/>
	<path d="M129.7,208.7c7.3,3.7,16.8,2.8,23.1-2.4c6.9-5.2,10.3-14.6,8.3-23c-2.4-11.4-14.7-19.9-26.2-17.2
		c-9.2,1.8-16.4,10-17.6,19.1C115.8,194.7,121.1,204.7,129.7,208.7L129.7,208.7z"/>
	<path d="M183,258.8c0,7.7,0,15.5,0,23.2c4.9-0.2,9.8,0.4,14.6-0.3c8.1-1.6,12.1-12.7,6.4-18.9C198.8,256.6,189.9,259.4,183,258.8
		L183,258.8z"/>
	<path d="M405.7,166.1c-9.2,1.8-16.5,10-17.6,19.1c-1.4,9.4,3.8,19.5,12.4,23.5c7.1,3.6,16.3,2.8,22.6-2.1
		c7.2-5.1,10.8-14.8,8.8-23.4C429.5,171.9,417.2,163.4,405.7,166.1L405.7,166.1z"/>
	<path fill="#FFFFFF" d="M8.4,98.5c161.2,0,322.4,0,483.5,0c0,101.1,0,202.2,0,303.4c-161.2,0-322.4,0-483.5,0
		C8.4,300.7,8.4,199.6,8.4,98.5L8.4,98.5z M500,409.9c0-106.6,0-213.2,0-319.8h0H0v319.8v0.1C166.7,409.9,333.3,410,500,409.9
		L500,409.9z"/>
	<path fill="#FFFFFF" d="M104,144.1c-14.3,0-28.6-0.1-42.9,0.1c-2,1.2-2.1,5.8,0.1,6.7c6.1,0.2,12.1,0,18.2,0.1
		c0,20.1,0,40.2,0,60.3c0.1,1.4-0.3,3.2,1.2,4c2.1,0,5,1,6.3-1.2c0.1-21,0-42.1,0.1-63.1c6.2-0.1,12.4,0.2,18.6-0.2
		C107.4,149.1,107.5,143.5,104,144.1L104,144.1z"/>
	<path fill="#FFFFFF" d="M117.3,185.3c1.2-9.2,8.4-17.4,17.6-19.1c11.6-2.7,23.8,5.8,26.2,17.2c2,8.4-1.4,17.8-8.3,23
		c-6.4,5.2-15.8,6.1-23.1,2.4C121.1,204.7,115.8,194.7,117.3,185.3L117.3,185.3z M157.3,209.7c11.3-9.4,12.8-28,3.3-39.2
		c-6.4-8.1-17.7-11.9-27.7-9.4c-4.4,1-8.4,3.2-11.8,6.2c-11.2,9.7-12.4,28.4-2.7,39.5C127.7,218.2,146.4,219.5,157.3,209.7
		L157.3,209.7z"/>
	<path fill="#FFFFFF" d="M230.3,185.3c1.2-9.2,8.4-17.3,17.6-19.1c11.5-2.7,23.8,5.7,26.2,17.1c2,8.4-1.3,17.8-8.3,23
		c-6.4,5.2-15.8,6.1-23.1,2.4C234,204.7,228.8,194.7,230.3,185.3L230.3,185.3z M270.3,209.6c11.3-9.4,12.7-27.9,3.3-39.1
		c-6.4-8.2-17.8-11.9-27.8-9.4c-4.6,1.1-8.9,3.5-12.4,6.7c-10.9,10-11.6,28.6-1.6,39.5C241.4,218.2,259.6,219.3,270.3,209.6
		L270.3,209.6z"/>
	<path fill="#FFFFFF" d="M291.7,213.3c-0.4,2.8,4.4,2.8,5.5,1c0.2-14.1,0-28.3,0.1-42.4c10.8,13.5,21.5,27.1,32.3,40.6
		c1.5,1.8,2.8,4.6,5.6,3.9c0.7-17.6,0.1-35.3,0.3-53c0.4-2.8-4.4-2.8-5.5-1c-0.2,14,0,27.9-0.1,41.9c-11.6-14.7-23.3-29.3-34.9-44.1
		c-1.4,0.2-3.7,0-3.2,2.2C291.7,179.3,291.7,196.3,291.7,213.3L291.7,213.3z"/>
	<path fill="#FFFFFF" d="M423.1,206.7c-6.3,4.9-15.5,5.6-22.6,2.1c-8.6-4-13.9-14.1-12.4-23.5c1.2-9.2,8.5-17.4,17.6-19.1
		c11.5-2.7,23.8,5.8,26.2,17.2C433.9,191.9,430.3,201.6,423.1,206.7L423.1,206.7z M403.6,161.1c-9.3,2.1-17,9.5-19.7,18.6
		c-3.4,10.3-0.3,22.5,7.9,29.7c10,9.2,26.9,9.1,36.8-0.2c10.9-9.6,12.1-27.7,2.8-38.7C425,162.3,413.7,158.6,403.6,161.1
		L403.6,161.1z"/>
	<path fill="#FFFFFF" d="M185.3,188.8c0-7.3,0-14.6,0-21.9c5,0,10-0.1,15,0c6.3,0.2,11.7,6.7,10.2,13c-1,5-5.6,9-10.8,8.9
		C195,188.9,190.1,188.8,185.3,188.8L185.3,188.8z M216,213.3c-3.2-6.8-6.9-13.3-10.4-20c5.5-2.5,10.3-7.2,11.1-13.4
		c1.6-9-5.9-17.9-14.9-18.5c-7.2-0.1-14.4-0.1-21.5,0c-1.5,0.8-0.9,2.6-1.1,3.9c0.1,16.3-0.1,32.6,0.1,48.9c1.2,1.8,3.7,0.7,5.4,1.1
		c0.8-7.1,0.1-14.3,0.3-21.4c4.9,0,9.7,0,14.6,0c3.4,7.2,6.9,14.3,10.4,21.4C211.8,214.9,216.6,216.5,216,213.3L216,213.3z"/>
	<path fill="#FFFFFF" d="M376.7,161.4c-10.9,0-21.9-0.1-32.8,0.1c-0.1,1.6-0.8,3.4,0.2,4.8c4.7,0.4,9.5,0.1,14.2,0.2
		c0,14.9,0,29.9,0,44.8c0.1,1.4-0.5,3.2,1.1,4c1.7,0,5.1,0.8,4.8-2c0.1-15.6,0-31.2,0-46.9c4.8-0.2,9.6,0.4,14.3-0.3
		C379.4,164.5,379.5,160.8,376.7,161.4L376.7,161.4z"/>
	<path fill="#FFFFFF" d="M147.8,300c-6.1,3.3-13.9,3.6-20.1,0.4c-8.6-4-13.9-14.1-12.4-23.5c1.2-9.2,8.5-17.4,17.7-19.1
		c11.6-2.7,23.8,5.8,26.2,17.2C161.4,284.6,156.5,295.3,147.8,300L147.8,300z M158.6,262.1c-6.4-8.2-17.8-11.9-27.8-9.4
		c-4.6,1-8.8,3.4-12.2,6.6c-11,10-11.7,28.7-1.7,39.6c9.5,10.9,27.7,12,38.4,2.4C166.6,291.9,168,273.4,158.6,262.1L158.6,262.1z"/>
	<path fill="#FFFFFF" d="M257.7,305c2.6-1.6,5.7-3.1,6.9-6.1c-1.5-0.9-3.1-4.1-5-2.2c-2.6,1.9-5.2,3.8-8.3,4.8
		c-8.1,2.8-17.5-0.7-22.5-7.4c-4.8-6.2-6.2-15-3.3-22.3c3-8.5,11.7-14.9,20.8-14.2c5.6,0.1,10.4,3.3,14.8,6.5
		c1.4-1.1,2.5-2.6,3.6-4.1c-9.6-10-26.8-10.6-37.1-1.4c-11.4,9.6-13,28.5-3.1,39.7C232.2,307.8,246.8,310.8,257.7,305L257.7,305z"/>
	<path fill="#FFFFFF" d="M294.8,257.7c11.5-2.7,23.7,5.8,26.1,17.2c2.3,9.6-2.5,20.3-11.2,25c-6.1,3.4-13.9,3.6-20.2,0.4
		c-8.6-4-13.8-14.1-12.4-23.5C278.2,267.7,285.6,259.5,294.8,257.7L294.8,257.7z M278.2,298.4c9.3,11.4,27.9,12.7,38.9,3
		c11.3-9.4,12.8-28,3.4-39.2c-6.4-8.2-17.7-11.9-27.8-9.4c-4.4,1-8.5,3.2-11.8,6.2C269.7,268.6,268.5,287.2,278.2,298.4L278.2,298.4
		z"/>
	<path fill="#FFFFFF" d="M432.1,255c0.4-2.8-4.4-2.7-5.5-1c-0.2,13.9,0,27.9-0.1,41.8c-11.6-14.7-23.3-29.3-34.9-44.1
		c-1.4,0.2-3.7,0-3.2,2.1c0.1,17.6-0.4,35.3,0.3,52.9c1.7-0.3,4.2,0.9,5.2-1c0.2-14.1,0-28.3,0.1-42.4c11.5,14.5,23,29,34.6,43.5
		c0.8,1.8,4.1,1.3,3.6-1C432.1,288.9,432.1,272,432.1,255L432.1,255z"/>
	<path fill="#FFFFFF" d="M89.7,281.7c-4.8,0.7-9.8,0.1-14.6,0.3c0-7.7,0-15.5,0-23.2c7,0.6,15.8-2.2,21,4
		C101.8,268.9,97.8,280.1,89.7,281.7L89.7,281.7z M87.8,253c-5.9,0-11.7-0.1-17.6,0.1c-0.2,0.2-0.7,0.7-0.9,0.9c-0.2,17,0,34-0.1,51
		c-0.2,2.8,4,2.4,5.6,1.4c0.5-6.2,0.1-12.5,0.2-18.8c6.9-0.5,14.4,1.4,20.6-2.2c7.6-3.9,10.9-13.9,7.6-21.7
		C101,257.4,94.5,253,87.8,253L87.8,253z"/>
	<path fill="#FFFFFF" d="M197.6,281.7c-4.8,0.7-9.8,0.1-14.6,0.3c0-7.7,0-15.5,0-23.2c7,0.6,15.8-2.2,21,4
		C209.7,269,205.7,280.1,197.6,281.7L197.6,281.7z M196.9,253c-6.3-0.1-12.5-0.1-18.8,0c-0.2,0.2-0.7,0.7-0.9,0.9
		c-0.2,16.3,0,32.6-0.1,49c0.1,1.4-0.4,3.2,1.1,4c1.6,0,5.1,0.8,4.8-1.9c0.1-5.8,0-11.6,0-17.4c5-0.1,10,0.2,14.9-0.2
		c7.9-1,14.2-8.1,14.5-16C213.3,262.4,206,253.6,196.9,253L196.9,253z"/>
	<path fill="#FFFFFF" d="M370.4,271.6c-1,4.9-5.6,9-10.7,8.9c-4.9,0-9.7,0-14.6,0c0-7.3,0-14.6,0-21.9c5,0,10-0.1,15,0
		C366.5,258.7,371.9,265.3,370.4,271.6L370.4,271.6z M361.6,253c-7.2-0.1-14.3-0.1-21.5,0c-0.2,0.2-0.7,0.7-1,1
		c-0.2,17,0,34-0.1,50.9c-0.1,2.9,3.7,1.7,5.5,2c0.8-7.1,0.1-14.3,0.3-21.4c4.9,0,9.7,0,14.6,0c3.4,7.2,6.9,14.3,10.4,21.4
		c1.9-0.3,6.6,1.2,6-2c-3.2-6.8-6.9-13.3-10.4-20c5.5-2.5,10.3-7.2,11.1-13.4C378.1,262.5,370.5,253.6,361.6,253L361.6,253z"/>
	<path fill="#FFFFFF" d="M174.9,349.4c-5,2-11.1-0.9-13.1-5.8c-2.7-5.6,0.3-13.1,6.3-15c3.9-1.5,8.2,0.2,11.3,2.7
		c0.5-0.5,1.5-1.5,1.9-2c-4.5-4.4-12-5.4-17.3-1.8c-7,4.2-8.3,14.9-2.7,20.8c5,5.8,14.8,5.9,20.1,0.3
		C179.5,345.4,177.2,348.6,174.9,349.4L174.9,349.4z"/>
	<path fill="#FFFFFF" d="M195.5,349.9c-5.2-1.1-9-6.2-8.8-11.4c0.3-3.9,2.6-7.7,6.2-9.5c6.2-3.6,14.7,0.7,16,7.6
		C211.1,344.3,203,352,195.5,349.9L195.5,349.9z M193.8,325.9c-6.9,1.9-11,9.8-9.1,16.6c1.6,7.2,9.7,11.9,16.8,9.8
		c7.2-1.5,11.9-9.7,9.8-16.8C209.6,328,201,323.4,193.8,325.9L193.8,325.9z"/>
	<path fill="#FFFFFF" d="M238.1,325.3c-2.9,7.2-5.1,14.7-7.8,22c-2.7-7.3-5.1-14.7-7.9-21.9c-0.4,0-1.1,0-1.4-0.1
		c-2,9.1-3.7,18.3-5.2,27.5c0.7,0,2.2-0.1,2.9-0.1c1.2-6.8,2.1-13.7,3.5-20.5c2.4,6.9,4.7,13.8,7.2,20.7c0.4,0,1.2-0.1,1.6-0.1
		c2.7-6.8,4.8-13.8,7.3-20.7c1.3,6.9,2.2,13.8,3.8,20.7c0.7,0.1,2,0.2,2.7,0.2c-1.6-9.2-3.3-18.4-5.2-27.6
		C239.2,325.3,238.5,325.3,238.1,325.3L238.1,325.3z"/>
	<path fill="#FFFFFF" d="M261.5,340.3c-2.4,0.4-4.9,0.1-7.3,0.2c0-4.2,0-8.3,0-12.5c3.1,0.2,6.7-0.7,9.4,1.3
		C267.2,332.3,266.1,338.9,261.5,340.3L261.5,340.3z M265.6,327.3c-3.9-3.2-9.4-1.8-14.1-2c-0.2,9.1-0.1,18.3-0.1,27.4
		c0.7,0,2,0,2.7,0c0.1-3.1,0-6.3,0.1-9.4c3.5-0.2,7.5,0.8,10.6-1.4C269.6,338.7,270.1,330.9,265.6,327.3L265.6,327.3z"/>
	<path fill="#FFFFFF" d="M275.7,343.6c2-4.3,3.7-8.7,5.8-13c1.9,4.3,3.8,8.7,5.7,13C283.3,343.6,279.5,343.6,275.7,343.6
		L275.7,343.6z M278.6,330.1c-3.2,7.5-6.9,14.9-9.8,22.5c0.7,0.1,2.1,0.2,2.8,0.2c1-2.3,2-4.6,3-6.9c4.5,0,9,0,13.6,0
		c1.7,2.6,1.7,7.7,5.9,7c-3.6-9.5-8.1-18.7-12.1-28C280,326,279.5,328.2,278.6,330.1L278.6,330.1z"/>
	<path fill="#FFFFFF" d="M317.1,325.1c0,7.2,0,14.4,0,21.6c-5.4-6.6-10.7-13.4-16.2-20c-0.7-0.9-1.5-1.5-2.6-1.8
		c-0.2,9.2-0.1,18.5-0.1,27.8c0.6,0,1.9,0,2.5,0.1c0-7.4-0.1-14.8,0-22.1c5.3,6.7,10.6,13.3,15.8,20c0.7,1,1.7,1.9,2.9,2.5
		c0.1-9.2,0.2-18.4,0-27.6C318.9,325.4,317.7,325.2,317.1,325.1L317.1,325.1z"/>
	<path fill="#FFFFFF" d="M334.4,336.5c-2.6-3.8-5.3-7.5-7.9-11.3c-0.8,0-2.3,0.1-3.1,0.1c2.6,5.1,6.5,9.3,9.4,14.2
		c0.3,4.4-0.1,8.7,0.2,13.1c0.7,0,2.1,0.1,2.8,0.1c0.3-4.4-0.1-8.8,0.2-13.2c2.9-5,6.9-9.2,9.6-14.3c-0.8,0-2.5,0.1-3.3,0.1
		C339.7,329.1,337.2,332.9,334.4,336.5L334.4,336.5z"/>
</g>
</svg>
