<?xml version="1.0" encoding="utf-8"?>
<!-- Generator: Adobe Illustrator 22.0.1, SVG Export Plug-In . SVG Version: 6.00 Build 0)  -->
<svg version="1.1" id="Layer_1" xmlns="http://www.w3.org/2000/svg" xmlns:xlink="http://www.w3.org/1999/xlink" x="0px" y="0px"
	 viewBox="0 0 500 500" enable-background="new 0 0 500 500" xml:space="preserve">
<g>
	<g>
		<defs>
			<rect id="SVGID_13_" y="139.9" width="500" height="220.2"/>
		</defs>
		<clipPath id="SVGID_2_">
			<use xlink:href="#SVGID_13_"  overflow="visible"/>
		</clipPath>
		<path clip-path="url(#SVGID_2_)" d="M168.2,286.2c-3.7-3.8-8.8-5.9-14.2-6c-4.2,0-8.5,2.1-8.5,6.8c0,10.5,21.4,10,21.4,25.4
			c0,14.4-12,20.8-25.1,20.8c-5.5,0-13.8-1.2-18-5.1l1.3-12c4.5,4.4,10.5,6.9,16.8,7.2c4.8,0,9.8-2,9.8-7.7c0-10.8-21-9.4-21-25.3
			c0-13.8,11.6-20.5,24.1-20.5c5.2,0,11,0.7,15.2,4.1L168.2,286.2"/>
		<path clip-path="url(#SVGID_2_)" d="M210.2,332.8c-2.7,6.4-7.5,17.2-12.6,21.9c-4,3.6-9.3,5.6-14.7,5.4c-2.1,0.1-4.3-0.2-6.4-0.8
			c-0.9-4.4-2-8.7-3.1-13.1c2.5,1.2,5.2,1.8,8,1.8c9.2,0,12-7.1,15.2-14.6l4-9.6c-2.6,3.3-4.9,5.8-9.3,5.8c-7.7,0-8.4-8.7-8.5-14.4
			l-1.2-43.8h14.1l0.8,39c0,2.4,0,6.2,3.4,6.2c4.4,0,7.2-9.2,8.4-12.3l12.7-33h14.7L210.2,332.8"/>
	</g>
	<path d="M328.2,286.2l-8.1,46h-13.8l7-40c0.3-1.5,0.5-3.1,0.6-4.6c0.4-2.2-1.1-4.2-3.2-4.6c-0.5-0.1-1.1-0.1-1.6,0
		c-3.3,0.2-6.3,1.6-8.6,4c-10.8,10.3-12.8,31.8-15.2,45.2h-13.8l7-40c0.3-1.6,0.5-3.2,0.6-4.8c0.4-2.2-1.2-4.3-3.4-4.6
		c-0.5-0.1-1-0.1-1.5,0c-3.3,0.2-6.3,1.6-8.6,4c-10.8,10.4-12.8,31.8-15.2,45.3h-13.6l10.7-61.1h13.5l-2.7,15.9
		c5.5-9.8,13.2-16.8,25-16.8c6.2,0,10.8,2.4,10.8,9.2c0,2.4-0.3,4.8-0.8,7.2c5.5-9.3,12.8-16.5,24.3-16.5c6,0,11.4,2.2,11.4,9.1
		c-0.1,2.3-0.4,4.7-0.8,7"/>
	<path d="M383.8,286.7c-3.4-3.7-8.1-5.9-13.2-6c-13.3,0-19,15.8-19,27c0,7.9,2.7,14.4,11.5,14.4c6.5,0,11.3-2.9,16-7.2l2.2,8.6
		c-5.9,6.2-14.1,9.7-22.7,9.6c-14.2,0-21.7-9.1-21.7-22.8c0-19.4,12.6-40.5,33.9-40.5c5.2-0.4,10.4,1.3,14.4,4.6L383.8,286.7"/>
	<path d="M422.1,280.4c-12.6,0-15.9,19.9-15.9,29.1c0,6.6,1.3,13.7,9.3,13.7c12.6,0,15.9-19.9,15.9-29.2
		C431.4,287.4,430.1,280.4,422.1,280.4L422.1,280.4L422.1,280.4z M413.6,333.7c-14.9,0-22.5-8.3-22.5-23.1c0-19.8,10.7-40.9,33-40.9
		c14.9,0,22.4,8.4,22.4,23.1C446.5,312.5,435.7,333.7,413.6,333.7"/>
	<path d="M496.7,285.1c-1.9-0.9-4-1.4-6.1-1.4c-17.5,0-21.4,37.2-23.3,48.6h-13.8l10.7-61.1h13.6l-2.6,15.5
		c4.4-8.8,10-16.2,20.6-16.2c1.4,0,2.8,0.1,4.1,0.6L496.7,285.1"/>
	<polyline points="100.4,225.9 186.5,161.1 165.3,139.9 100.4,225.9 	"/>
	<polyline points="93.2,225.9 104,172.1 82.5,172.1 93.2,225.9 	"/>
	<polyline points="100.4,233.1 154.2,243.8 154.2,222.3 100.4,233.1 	"/>
	<polyline points="86,240.3 0,305 21.1,326.3 86,240.3 	"/>
	<polyline points="93.2,240.3 82.5,294 104,294 93.2,240.3 	"/>
	<polyline points="86,233.1 32.2,222.4 32.2,243.8 86,233.1 	"/>
</g>
</svg>
