<?xml version="1.0" encoding="utf-8"?>
<!-- Generator: Adobe Illustrator 22.0.1, SVG Export Plug-In . SVG Version: 6.00 Build 0)  -->
<svg version="1.1" id="Layer_1" xmlns="http://www.w3.org/2000/svg" xmlns:xlink="http://www.w3.org/1999/xlink" x="0px" y="0px"
	 viewBox="0 0 500 500" enable-background="new 0 0 500 500" xml:space="preserve">
<g>
	<g>
		<defs>
			<rect id="SVGID_15_" y="182.3" width="500" height="135.4"/>
		</defs>
		<clipPath id="SVGID_2_">
			<use xlink:href="#SVGID_15_"  overflow="visible"/>
		</clipPath>
		<path clip-path="url(#SVGID_2_)" fill="#EB232A" d="M417.2,210.1c0,10.3,0,20.6,0,30.9c-10.2,0-20.5,0-30.7,0
			c-0.1,6.1,0.1,12.3-0.1,18.4c10.2,0.2,20.5,0,30.7,0.1c0,10.2,0,20.5,0,30.7c6.2,0.1,12.4,0,18.7,0c0-10.2,0-20.5,0-30.7
			c10.2,0,20.5,0,30.7,0c-0.1-6.2,0.1-12.4-0.1-18.6c-10.2,0.1-20.4,0-30.6,0.1c0-10.3,0-20.6,0-30.9
			C429.6,210.1,423.4,210,417.2,210.1L417.2,210.1L417.2,210.1z M313.9,304.1c21.7,0,43.4,0,65.1,0c0-7.1,0-14.2,0-21.4
			c-14,0.1-28-0.1-41.9,0.1c-0.3-27.4,0-54.9-0.1-82.3c-7.7,0-15.4,0-23,0C313.9,235,313.8,269.6,313.9,304.1 M225,200.5
			c0,34.5,0,69,0,103.5c24.4,0,48.7,0,73.1,0c0-7.1,0-14.2,0-21.3c-16.7,0-33.3-0.1-50,0c-0.3-7,0-13.9-0.1-20.9
			c14.9-0.1,29.8,0.1,44.7-0.1c-0.1-7,0-14.1-0.1-21.1c-14.8,0.1-29.7-0.1-44.5,0.1c-0.1-6.4-0.2-12.8,0-19.2
			c15.7,0.1,31.4,0,47.2,0.1c0-7.1,0-14.1,0-21.2C271.8,200.5,248.4,200.5,225,200.5 M119.1,200.5c0,21.3,0,42.7,0,64
			c0,11.5,3.8,23.5,12.5,31.5c8.3,7.6,19.8,10.8,30.9,10.6c11.1,0.2,22.8-2.8,31.1-10.5c8.5-7.6,12.7-19.2,12.6-30.5
			c0-21.7,0-43.4,0-65.1c-7.6,0-15.2-0.1-22.8,0.1c0.1,20.9,0,41.7,0.1,62.6c-0.1,5.4-1.6,11-5.2,15.1c-5.4,6.8-15.4,8.9-23.3,5.6
			c-5.3-2.1-9.5-6.6-11.4-12c-1.8-4.6-1.5-9.6-1.5-14.4c0-19,0-38,0-57C134.4,200.4,126.8,200.5,119.1,200.5 M36.5,200.5
			c0,34.5,0,69.1,0,103.6c7.7-0.1,15.4,0.1,23.1-0.1c-0.1-13.4,0-26.8,0-40.2c14.2,0,28.5,0,42.7,0c0.2-7.1,0.3-14.2,0-21.3
			c-14.2,0-28.5,0-42.7,0c0-6.9,0-13.9,0-20.8c15.5,0,31,0,46.5,0c0-7.1,0-14.1,0-21.2C82.8,200.5,59.7,200.5,36.5,200.5 M2.4,183.3
			c2.1-1.6,4.8-0.9,7.2-1c161.5,0,323,0,484.5,0c3.1-0.3,6.2,2.5,5.9,5.6c0,41.4,0,82.7,0,124.1c0.2,2.8-2.2,5.2-4.9,5.6H5.3
			c-1.6-0.3-3.2-0.9-4.2-2.3c-1.6-2-1.1-4.7-1.2-7.1c0-39.9,0-79.8,0-119.7C-0.1,186.6,0.7,184.5,2.4,183.3"/>
	</g>
	<path fill="#FFFFFF" d="M417.2,210.1c6.2,0,12.4,0,18.6,0c0,10.3,0,20.6,0,30.9c10.2,0,20.4,0.1,30.6-0.1c0.2,6.2,0,12.4,0.1,18.6
		c-10.2,0-20.5,0-30.7,0c0,10.2,0,20.5,0,30.7c-6.2,0-12.4,0-18.7,0c0.1-10.2,0-20.5,0-30.7c-10.2-0.1-20.5,0.1-30.7-0.1
		c0.1-6.1,0-12.3,0.1-18.4c10.2,0,20.5,0,30.7,0C417.2,230.6,417.2,220.4,417.2,210.1L417.2,210.1L417.2,210.1z M313.9,304.1
		c-0.1-34.5,0-69,0-103.6c7.7,0,15.4,0,23,0c0.1,27.4-0.1,54.9,0.1,82.3c14-0.2,28,0,41.9-0.1c0.1,7.1,0,14.2,0,21.4
		C357.3,304.1,335.6,304.1,313.9,304.1 M225,200.5c23.4-0.1,46.8,0,70.3,0c0,7.1,0,14.1,0,21.2c-15.7-0.1-31.4,0.1-47.2-0.1
		c-0.2,6.4-0.1,12.8,0,19.2c14.8-0.1,29.7,0,44.5-0.1c0.1,7-0.1,14.1,0.1,21.1c-14.9,0.2-29.8,0-44.7,0.1c0.1,7-0.1,13.9,0.1,20.9
		c16.7-0.1,33.3-0.1,50,0c0,7.1,0,14.2,0,21.3c-24.4,0-48.7,0-73.1,0C225,269.6,225,235.1,225,200.5 M119.1,200.5
		c7.6,0,15.3-0.1,22.9,0.1c0,19,0,38,0,57c0,4.8-0.3,9.8,1.5,14.4c1.9,5.4,6,9.9,11.4,12c7.9,3.3,17.9,1.1,23.3-5.6
		c3.6-4.2,5.1-9.7,5.2-15.1c-0.1-20.9,0.1-41.7-0.1-62.6c7.6-0.2,15.2-0.1,22.8-0.1c0,21.7,0,43.4,0,65.1c0,11.3-4.1,22.9-12.6,30.5
		c-8.3,7.6-20,10.7-31.1,10.5c-11.1,0.2-22.6-3-30.9-10.6c-8.7-8-12.4-20-12.5-31.5C119.1,243.2,119.1,221.8,119.1,200.5
		 M36.5,200.5c23.2,0,46.3,0,69.5,0c0,7.1,0,14.1,0,21.2c-15.5,0-31,0-46.5,0c0,7,0,13.9,0,20.8c14.2,0,28.5,0,42.7,0
		c0.3,7.1,0.2,14.2,0,21.3c-14.2,0-28.5,0-42.7,0c0,13.4-0.1,26.8,0,40.2c-7.7,0.2-15.4,0-23.1,0.1C36.5,269.6,36.5,235,36.5,200.5"
		/>
</g>
</svg>
