<?xml version="1.0" encoding="utf-8"?>
<!-- Generator: Adobe Illustrator 22.0.1, SVG Export Plug-In . SVG Version: 6.00 Build 0)  -->
<svg version="1.1" id="Layer_1" xmlns="http://www.w3.org/2000/svg" xmlns:xlink="http://www.w3.org/1999/xlink" x="0px" y="0px"
	 viewBox="0 0 500 500" enable-background="new 0 0 500 500" xml:space="preserve">
<g>
	<g>
		<defs>
			<rect id="SVGID_11_" y="199.9" width="500" height="100.1"/>
		</defs>
		<clipPath id="SVGID_2_">
			<use xlink:href="#SVGID_11_"  overflow="visible"/>
		</clipPath>
		<polygon clip-path="url(#SVGID_2_)" fill="#231F20" points="362.4,222.5 353.3,222.5 351.7,202 359.7,211 365.4,199.9 371,211 
			379,202 377.5,222.5 362.4,222.5 		"/>
		<path clip-path="url(#SVGID_2_)" fill="#E67425" d="M0.7,260.5c6.2,2.1,12.7,3.3,19.3,3.7c3.9,0,5.2-1.1,5.2-2.5
			c0-1.4-1.8-2.1-4.8-2.8c-9.3-2.3-20.4-4.1-20.4-15c-0.1-8.7,9.7-13.9,22.1-13.9c6.1,0.1,12.2,1,18.1,2.5v11.3
			c-5.2-1.3-10.5-2-15.9-2.3c-3.8,0-5,0.9-5,2.5s1.4,1.9,4.4,2.5c10.6,2.3,20.8,5.5,20.8,14.7c0,10-8.9,14.6-23,14.6
			c-7.1-0.2-14.1-1.4-20.8-3.8V260.5L0.7,260.5z"/>
	</g>
	<path fill="#E67425" d="M85.8,245.5c-2.2-1.7-5-2.6-7.8-2.5c-7.3,0-10,4.3-10,9.8c0,5.6,2.7,9.8,10,9.8c2.8,0.1,5.5-0.7,7.8-2.3
		V245.5L85.8,245.5L85.8,245.5z M103.3,230v28.9c-0.4,2,0.9,4,2.9,4.4c0.4,0.1,0.9,0.1,1.3,0c1.1,0,2.2-0.2,3.3-0.7v10.6
		c-3.8,1.6-7.8,2.4-11.9,2.5c-3.9,0.2-7.7-1.1-10.7-3.6c-4.1,2.5-8.8,3.7-13.6,3.6c-16.1,0-24.5-9.3-24.5-22.9
		c0-13.6,8.5-22.9,24.6-22.9c5.2-0.1,10.3,1.3,14.6,4.1L103.3,230L103.3,230z"/>
	<polygon fill="#E67425" points="117.5,274.6 117.5,210.3 135.1,205.1 135.1,274.6 117.5,274.6 	"/>
	<path fill="#E67425" d="M179.8,245.5c-2.2-1.7-5-2.6-7.8-2.5c-7.3,0-10,4.3-10,9.8c0,5.6,2.7,9.8,10,9.8c2.8,0.1,5.5-0.7,7.8-2.3
		V245.5L179.8,245.5L179.8,245.5z M197.3,230v28.9c-0.4,2,0.9,4,2.9,4.4c0.5,0.1,0.9,0.1,1.4,0c1.1,0,2.2-0.2,3.3-0.7v10.6
		c-3.8,1.6-7.8,2.4-11.9,2.5c-3.9,0.2-7.7-1.1-10.7-3.6c-4.1,2.5-8.8,3.7-13.6,3.6c-16.1,0-24.5-9.3-24.5-22.9
		c0-13.6,8.4-22.9,24.5-22.9c5.2-0.1,10.3,1.3,14.6,4.1L197.3,230L197.3,230z"/>
	<path fill="#E67425" d="M244.2,245.5c-2.2-1.7-5-2.6-7.8-2.5c-7.3,0-10,4.3-10,9.8c0,5.6,2.7,9.8,10,9.8c2.8,0.1,5.5-0.7,7.8-2.3
		V245.5L244.2,245.5L244.2,245.5z M244.2,210.3l17.5-5.2v53.8c-0.4,2,0.9,4,2.9,4.4c0.5,0.1,0.9,0.1,1.4,0c1.1,0,2.2-0.2,3.3-0.7
		v10.6c-3.8,1.6-7.8,2.4-11.9,2.5c-3.9,0.2-7.7-1.1-10.7-3.6c-4.1,2.5-8.8,3.7-13.6,3.6c-16.1,0-24.5-9.3-24.5-22.9
		c0-13.6,8.5-22.9,24.6-22.9c3.8-0.1,7.5,0.7,11,2.2V210.3L244.2,210.3z"/>
	<path fill="#E67425" d="M314.9,274.6h-17.5v-64.2l17.5-5.2v40.3c16.4,1.2,15.6-8.7,12.8-14.4h18.2c3.6,9.1-0.5,19.5-9.5,23.5
		l15.2,20h-20.2l-12.2-16h-4.4V274.6L314.9,274.6z"/>
	<polygon fill="#E67425" points="374.3,228.9 374.3,274.6 356.8,274.6 356.8,234.1 374.3,228.9 	"/>
	<path fill="#E67425" d="M402.9,274.6h-17.5v-41l17.5-5.2v5.2c5.1-2,10.4-3.2,15.9-3.6c13.6,0,17.5,6.4,17.5,15.2v29.4h-17.5v-25
		c0-4.5-2.5-5.8-6.6-5.8c-3.2,0.2-6.3,1.1-9.1,2.5v28.3H402.9L402.9,274.6z"/>
	<path fill="#E67425" d="M467.9,254.9c5.3,0,7.3-2.8,7.3-6.3c0-3.5-1.9-6.3-7.3-6.3c-5.4,0-7.3,2.9-7.3,6.3
		C460.6,251.9,462.6,254.9,467.9,254.9L467.9,254.9z M457.5,286c0,2.5,1.5,3.7,10.7,3.7c9.1,0,10.8-1.2,10.8-3.7
		c0-2.5-1.9-3.8-10.8-3.8C459.2,282.2,457.4,283.4,457.5,286L457.5,286L457.5,286z M500,243.1h-10c0.6,1.8,0.9,3.6,0.9,5.4
		c0,10.2-7.3,17.5-22.7,17.5c-1,0-1.8,0-3.1,0c-3.1,0-4,1.5-4,3.1c-0.1,1.6,1.1,2.9,2.7,3c0.3,0,0.5,0,0.8-0.1c1.3,0,2.5,0,3.6,0
		c20,0,26.5,5.2,26.5,14c0,8.8-6.6,13.9-26.5,13.9s-26.4-5.3-26.4-14c-0.1-4.6,2.4-8.8,6.4-11c-1.6-1.5-2.5-3.6-2.5-5.8
		c0.1-3.6,2.2-6.8,5.3-8.4c-3.8-2.1-5.7-7.3-5.7-12.2c0-10.3,7.3-17.5,22.5-17.5h31.9v12.1L500,243.1L500,243.1z"/>
	<polygon fill="#231F20" points="297.7,282 303.9,282 303.9,293.7 307.1,293.7 307.1,282 313.3,282 313.3,279.5 297.7,279.5 
		297.7,282 	"/>
	<polygon fill="#231F20" points="327.7,285.1 318.8,285.1 318.8,279.5 315.6,279.5 315.6,293.7 318.8,293.7 318.8,287.5 
		327.7,287.5 327.7,293.7 331,293.7 331,279.5 327.7,279.5 327.7,285.1 	"/>
	<path fill="#231F20" d="M345.3,288.3H339l3.1-6L345.3,288.3L345.3,288.3z M340.3,279.5l-7.5,14.2h3.4l1.5-2.9h8.9l1.5,2.9h3.5
		l-7.5-14.2H340.3L340.3,279.5z"/>
	<polygon fill="#231F20" points="354.7,279.5 357.9,279.5 357.9,293.7 354.7,293.7 354.7,279.5 	"/>
	<polygon fill="#231F20" points="368.4,293.7 371.7,293.7 371.7,287.5 379.5,287.5 379.5,285.1 371.7,285.1 371.7,282 380,282 
		380,279.5 368.4,279.5 368.4,293.7 	"/>
	<path fill="#231F20" d="M395.6,286.6c0,3.4-1.5,4.8-5,4.8c-3.5,0-5-1.5-5-4.8c0-3.4,1.5-4.8,5-4.8
		C394.1,281.8,395.6,283.2,395.6,286.6L395.6,286.6z M390.6,279.3c-5.5,0-8.2,2.5-8.2,7.3c0,4.8,2.8,7.3,8.2,7.3
		c5.5,0,8.2-2.5,8.2-7.3C398.8,281.8,396.1,279.3,390.6,279.3L390.6,279.3z"/>
	<path fill="#231F20" d="M414.2,286.6c0,3.4-1.5,4.8-5,4.8c-3.5,0-5-1.5-5-4.8c0-3.4,1.5-4.8,5-4.8
		C412.7,281.8,414.2,283.2,414.2,286.6L414.2,286.6z M409.2,279.3c-5.5,0-8.2,2.5-8.2,7.3c0,4.8,2.8,7.3,8.2,7.3
		c5.5,0,8.2-2.5,8.2-7.3C417.4,281.8,414.7,279.3,409.2,279.3L409.2,279.3z"/>
	<path fill="#231F20" d="M426.7,291.2h-2.9V282h2.9c6.2,0,7,2.6,7,4.6C433.7,288.6,432.9,291.2,426.7,291.2L426.7,291.2z
		 M426.7,279.5h-6.1v14.2h6.1c8.9,0,10.2-4.5,10.2-7.1C436.9,283.9,435.6,279.5,426.7,279.5L426.7,279.5z"/>
</g>
</svg>
