<?xml version="1.0" encoding="utf-8"?>
<!-- Generator: Adobe Illustrator 22.0.1, SVG Export Plug-In . SVG Version: 6.00 Build 0)  -->
<svg version="1.1" id="Layer_1" xmlns="http://www.w3.org/2000/svg" xmlns:xlink="http://www.w3.org/1999/xlink" x="0px" y="0px"
	 viewBox="0 0 500 500" enable-background="new 0 0 500 500" xml:space="preserve">
<g>
	<g>
		<defs>
			<rect id="SVGID_7_" y="145.6" width="500" height="208.8"/>
		</defs>
		<clipPath id="SVGID_2_">
			<use xlink:href="#SVGID_7_"  overflow="visible"/>
		</clipPath>
		<path clip-path="url(#SVGID_2_)" fill="#00AE9E" d="M171.1,145.6H0v49.1h171.1V145.6L171.1,145.6L171.1,145.6z M160.4,184H10.7
			v-27.8h149.7V184L160.4,184z"/>
	</g>
	<polyline fill="#343536" points="10.7,275.9 0,275.9 0,226.8 10.7,226.8 10.7,246.2 29.8,246.2 29.8,226.8 40.5,226.8 40.5,275.9 
		29.8,275.9 29.8,255.6 10.7,255.6 10.7,275.9 	"/>
	<path fill="#343536" d="M64.8,276.7c-10.9,0-18.2-6.8-18.2-18.1c0-10.9,7.2-18.5,16.8-18.5c10.5,0,15.6,7,15.6,17.5v3.9H56.7
		c1.3,5.4,5.5,6.8,9.8,6.8c3.7,0,6.4-0.8,9.7-2.8h0.4v8.1C73.7,275.7,69.7,276.7,64.8,276.7 M56.7,254.4h12.7
		c-0.2-3.6-1.7-6.1-5.9-6.1C60.4,248.3,57.6,249.6,56.7,254.4L56.7,254.4L56.7,254.4z"/>
	<polyline fill="#343536" points="107,255.3 101.4,275.9 92.1,275.9 81.4,241.3 81.4,241 91.6,241 97.4,261.6 102.9,241 111.3,241 
		116.9,261.6 122.8,241 132.6,241 132.6,241.3 121.9,275.9 112.5,275.9 107,255.3 	"/>
	<path fill="#343536" d="M150,276.7c-8.5,0-12-3.4-12-11.3v-38.6h10.4v37.9c0,2.4,0.9,3.3,3,3.3c0.7,0,1.7-0.2,2.4-0.5h0.2v8.6
		C153,276.4,151.5,276.7,150,276.7"/>
	<path fill="#343536" d="M175.1,276.7c-10.9,0-18.2-6.8-18.2-18.1c0-10.9,7.2-18.5,16.8-18.5c10.5,0,15.6,7,15.6,17.5v3.9H167
		c1.3,5.4,5.5,6.8,9.8,6.8c3.7,0,6.4-0.8,9.7-2.8h0.4v8.1C183.9,275.7,179.9,276.7,175.1,276.7 M167,254.4h12.7
		c-0.2-3.6-1.7-6.1-5.9-6.1C170.7,248.3,167.9,249.6,167,254.4L167,254.4L167,254.4z"/>
	<path fill="#343536" d="M231.9,241h7.7v8.3h-7.7v14.2c0,3.1,1.2,4.5,4.3,4.5c0.9,0,2-0.1,3.1-0.5h0.2v8.2c-1.3,0.5-3.4,1-6.4,1
		c-8.4,0-11.7-3.9-11.7-12.7v-14.7h-13.3v14.2c0,3.1,1.2,4.5,4.3,4.5c0.9,0,2-0.1,3.1-0.5h0.2v8.2c-1.3,0.5-3.4,1-6.4,1
		c-8.4,0-11.7-3.9-11.7-12.7v-14.7h-5.3V241h5.3v-9.6h10.4v9.6h13.3v-9.6h10.4L231.9,241"/>
	<path fill="#343536" d="M293.5,243.5c0,10.7-7.2,16.5-18,16.5h-7.6v16h-10.7v-49.1h18.3C286.3,226.8,293.5,232.6,293.5,243.5
		 M274.6,250.9c5.4,0,8-3.1,8-7.5c0-4.6-2.6-7.6-8-7.6h-6.8v15.1H274.6L274.6,250.9L274.6,250.9z"/>
	<path fill="#343536" d="M316.6,272.5c-2.3,2.8-5.7,4.1-9.3,4.1c-6.8,0-12.4-4.2-12.4-11.6c0-6.8,5.6-11.4,13.6-11.4
		c2.5,0,5.1,0.4,7.8,1.2v-0.6c0-3.8-2.1-5.4-7.7-5.4c-3.5,0-6.9,1-9.8,2.7h-0.4v-8.3c2.7-1.6,7.4-2.9,12-2.9
		c10.5,0,16.3,5,16.3,13.8v21.9h-10.1L316.6,272.5 M316.3,264.9v-3c-1.6-0.9-3.6-1.2-5.7-1.2c-3.4,0-5.4,1.3-5.4,4.1
		c0,2.9,2,4.2,5.1,4.2C313.1,269,315.3,267.5,316.3,264.9L316.3,264.9L316.3,264.9z"/>
	<path fill="#343536" d="M331.9,258.5c0-11.2,7.9-18.3,18.3-18.3c3.7,0,7.2,0.8,9.8,2.7v8.9h-0.4c-2.3-1.7-5-2.8-8-2.8
		c-5.2,0-9.1,3.5-9.1,9.5c0,6,3.9,9.4,9.1,9.4c3.1,0,5.7-1,8-2.8h0.4v8.9c-2.6,1.9-6.1,2.7-9.8,2.7
		C339.9,276.7,331.9,269.7,331.9,258.5"/>
	<polyline fill="#343536" points="376.9,260.1 376.9,275.9 366.5,275.9 366.5,226.8 376.9,226.8 376.9,254.8 387.4,241 399.2,241 
		399.2,241.3 386.6,257.2 399.2,275.5 399.2,275.9 387.3,275.9 376.9,260.1 	"/>
	<path fill="#343536" d="M422.8,272.5c-2.3,2.8-5.7,4.1-9.3,4.1c-6.8,0-12.4-4.2-12.4-11.6c0-6.8,5.6-11.4,13.6-11.4
		c2.5,0,5.1,0.4,7.8,1.2v-0.6c0-3.8-2.1-5.4-7.7-5.4c-3.5,0-6.9,1-9.8,2.7h-0.4v-8.3c2.7-1.6,7.4-2.9,12-2.9
		c10.5,0,16.3,5,16.3,13.8v21.9h-10.1L422.8,272.5 M422.4,264.9v-3c-1.6-0.9-3.6-1.2-5.7-1.2c-3.4,0-5.4,1.3-5.4,4.1
		c0,2.9,2,4.2,5.1,4.2C419.3,269,421.5,267.5,422.4,264.9L422.4,264.9z"/>
	<g>
		<defs>
			<rect id="SVGID_9_" y="145.6" width="500" height="208.8"/>
		</defs>
		<clipPath id="SVGID_4_">
			<use xlink:href="#SVGID_9_"  overflow="visible"/>
		</clipPath>
		<path clip-path="url(#SVGID_4_)" fill="#343536" d="M450.3,246.6c1.9-3.9,4.6-6.1,8.5-6.1c1.4,0,2.8,0.3,3.4,0.6v9.9h-0.4
			c-1.2-0.5-2.6-0.8-4.6-0.8c-3.2,0-5.7,1.9-6.6,5.5v20.1h-10.4v-35h10.1V246.6"/>
		<path clip-path="url(#SVGID_4_)" fill="#343536" d="M490,272.3c-2.2,2.8-5.7,4.4-10.4,4.4c-9,0-14.7-8.2-14.7-18.2
			c0-10.1,5.7-18.3,14.7-18.3c4.6,0,7.9,1.4,10.1,4v-17.4h10.4v49.1H490V272.3 M489.7,264.1v-11.2c-1.7-2.5-4-3.6-6.6-3.6
			c-4.6,0-7.6,3.3-7.6,9.3c0,6,3.1,9.2,7.6,9.2C485.7,267.7,487.9,266.6,489.7,264.1L489.7,264.1z"/>
	</g>
	<polyline fill="#343536" points="0,292 30.4,292 30.4,298 6.8,298 6.8,313 28.2,313 28.2,318.8 6.8,318.8 6.8,335.2 30.4,335.2 
		30.4,341.1 0,341.1 0,292 	"/>
	<path fill="#343536" d="M55.4,305.8c7.8,0,12.1,5.1,12.1,13.5v21.8H61v-21.6c0-4.5-2.3-7.7-7.2-7.7c-4.1,0-7.5,2.6-8.7,6.3v23h-6.5
		v-34.6h6.5v5C47.1,308.3,50.6,305.8,55.4,305.8"/>
	<path fill="#343536" d="M85.1,306.5H94v5.6h-8.9v18.6c0,3.9,2,5.3,5.7,5.3c1,0,2.1-0.2,2.9-0.5H94v5.6c-0.9,0.4-2.3,0.7-4.1,0.7
		c-8.1,0-11.3-3.7-11.3-10.5v-19.3h-6v-5.6h6v-9.2h6.5L85.1,306.5"/>
	<path fill="#343536" d="M115.2,341.8c-10.1,0-17.1-6.8-17.1-17.6c0-10.9,6.4-18.4,15.8-18.4c9.5,0,14.5,6.8,14.5,17v3h-23.8
		c0.7,7,5.2,10.4,11.4,10.4c3.9,0,6.6-0.9,9.7-3.1h0.2v5.7C123.2,341,119.5,341.8,115.2,341.8 M104.9,320.4h17.2
		c-0.2-5.1-2.8-9-8.1-9C109.1,311.4,105.8,315.1,104.9,320.4L104.9,320.4z"/>
	<path fill="#343536" d="M142.7,311.9c1.5-3.7,4.8-5.9,8.6-5.9c1.5,0,2.8,0.2,3.4,0.5v6.4h-0.2c-0.9-0.5-2.5-0.7-4.1-0.7
		c-3.5,0-6.5,2.4-7.6,6.3v22.6h-6.5v-34.6h6.5V311.9"/>
	<path fill="#343536" d="M176.8,305.8c10.3,0,15.8,8.4,15.8,18c0,9.6-5.5,18-15.8,18c-4.2,0-7.9-2.2-9.7-4.6v17.1h-6.5v-47.9h6.5
		v3.9C168.9,308,172.5,305.8,176.8,305.8 M175.7,335.9c6.4,0,10.2-5.1,10.2-12.1c0-6.9-3.8-12.1-10.2-12.1c-3.5,0-6.8,2.1-8.6,5.5
		v13.3C168.8,333.9,172.1,335.9,175.7,335.9L175.7,335.9L175.7,335.9z"/>
	<path fill="#343536" d="M206.8,311.9c1.5-3.7,4.8-5.9,8.6-5.9c1.5,0,2.8,0.2,3.4,0.5v6.4h-0.2c-0.9-0.5-2.5-0.7-4.1-0.7
		c-3.5,0-6.5,2.4-7.6,6.3v22.6h-6.5v-34.6h6.5V311.9"/>
	<path fill="#343536" d="M228.2,292.5c2.3,0,4.2,1.8,4.2,4.1c0,2.3-1.9,4.1-4.2,4.1c-2.2,0-4.2-1.8-4.2-4.1
		C224,294.3,226,292.5,228.2,292.5"/>
	<polygon fill="#343536" points="225,341.1 231.5,341.1 231.5,306.5 225,306.5 225,341.1 225,341.1 	"/>
	<path fill="#343536" d="M254.8,320.9c5,1.6,10.5,3.6,10.5,10.2c0,7.1-5.8,10.7-13.3,10.7c-4.6,0-9.1-1.1-11.7-3.1v-6.2h0.3
		c2.9,2.7,7.2,3.9,11.3,3.9c3.7,0,7-1.4,7-4.4c0-3.1-2.7-3.8-8.2-5.6c-4.9-1.6-10.3-3.4-10.3-9.9c0-6.7,5.5-10.6,12.5-10.6
		c4.1,0,7.7,0.9,10.6,2.8v6.3h-0.2c-2.8-2.3-6.1-3.6-10.2-3.6c-4.1,0-6.4,1.8-6.4,4.2C246.7,318.3,249.2,319.1,254.8,320.9"/>
	<path fill="#343536" d="M288,341.8c-10.1,0-17.1-6.8-17.1-17.6c0-10.9,6.4-18.4,15.8-18.4c9.5,0,14.5,6.8,14.5,17v3h-23.7
		c0.7,7,5.2,10.4,11.4,10.4c3.9,0,6.6-0.9,9.7-3.1h0.2v5.7C295.9,341,292.2,341.8,288,341.8 M277.7,320.4h17.2c-0.2-5.1-2.7-9-8.1-9
		C281.8,311.4,278.6,315.1,277.7,320.4L277.7,320.4z"/>
</g>
</svg>
