<?xml version="1.0" encoding="utf-8"?>
<!-- Generator: Adobe Illustrator 22.0.1, SVG Export Plug-In . SVG Version: 6.00 Build 0)  -->
<svg version="1.1" id="Layer_1" xmlns="http://www.w3.org/2000/svg" xmlns:xlink="http://www.w3.org/1999/xlink" x="0px" y="0px"
	 viewBox="0 0 500 500" enable-background="new 0 0 500 500" xml:space="preserve">
<g>
	<path fill="none" d="M153.2,320.4c2.3,0,4.6,0,6.9-0.1c-1.2-3.5-2.2-7-3.5-10.5C155.4,313.4,154.4,316.9,153.2,320.4z"/>
	<path fill="none" d="M166.4,208c-4.7-5.1-12.2-7-19-5.7c-4,0.8-7.7,2.7-10.5,5.7c-4.8,4.9-6.5,12-7,18.7c-0.4,6.9,0.2,14,3.4,20.3
		c2.3,4.7,6.4,8.4,11.3,10.1c8.1,2.9,18.1,0.5,23.3-6.5c5.4-7.1,6.2-16.6,5.6-25.2C172.7,219.2,171,212.6,166.4,208z"/>
	<path fill="none" d="M212.5,308.4c-3.6,1.5-4.5,5.7-4.5,9.2c0.3,2,0.4,4.2,1.6,5.9c1.7,2.9,5.9,4.1,8.8,2.4c2.2-0.9,3.5-3.2,4-5.5
		c0.4-3.4,0.6-7.2-1.6-10C219,307.9,215.3,307.2,212.5,308.4z"/>
	<path fill="none" d="M421.4,320.4c2.3,0,4.6,0,6.9,0c-1.2-3.5-2.2-7-3.5-10.5C423.6,313.4,422.6,316.9,421.4,320.4z"/>
	<path fill="none" d="M84.2,312.9c-0.9,3.3-0.9,7,0.6,10.1c1.6,3.3,6.1,4.8,9.3,3c2.4-1,3.5-3.7,4-6.1c0.3-3.5,0.3-7.7-2.5-10.3
		C92.1,306.2,85.4,308.1,84.2,312.9z"/>
	<path fill="none" d="M9.3,320.4c2.3,0,4.6,0,6.9-0.1c-1.3-3.5-2.1-7.1-3.5-10.5C11.5,313.3,10.5,316.9,9.3,320.4z"/>
	<path fill="none" d="M284.5,326.2c3-1,4.4-4,4.8-6.9c0.3-3.4-0.1-7.2-2.6-9.7c-1.2-1.3-3-1.5-4.7-1.8c-2.5,0.1-4.8,1.5-6.1,3.6
		c0.7-0.7,1.4-1.4,2.2-2.1c1.2,4.2,2.6,8.4,4.1,12.6c-0.6-0.1-1.8-0.1-2.4-0.2c-1.9-3-3.4-6.4-4.2-9.8c-1.3,3.9-1.5,8.5,0.7,12.1
		C278.3,326.4,281.7,327.5,284.5,326.2z"/>
	<path fill="none" d="M446.8,308.3c0,5.9,0,11.8,0,17.8c2.3-0.1,4.5,0.1,6.8-0.1c3-0.7,4.6-4,4.7-6.9c0.1-3.2,0.4-7.1-2.2-9.5
		C453.3,307.6,449.8,308.5,446.8,308.3z"/>
	<path fill="none" d="M478.8,310c-0.9,3.5-2.2,6.9-3.2,10.4c2.3,0,4.6,0,6.8,0c-1-3.2-2.1-6.3-3-9.5
		C479.3,310.6,479,310.2,478.8,310z"/>
	<path fill="#FFFFFF" d="M367.2,320.4c2.3,0,4.6,0,6.9,0c-1.2-3.5-2.1-7.1-3.4-10.6C369.4,313.3,368.5,316.9,367.2,320.4z"/>
	<path fill="#B42812" d="M336.5,236.6c-3.1-1-6.4-1.4-9.5-2.4c-0.3-2.1-0.7-4.2-0.3-6.3c1.1-2.3,3.3-3.8,4.7-5.9
		c1.6-4,0.5-8.4,1.1-12.5c1.2-2.2,2.6-4.2,3.2-6.6c1.2-1,2.4-2,3.7-2.9c0-1.4,0.1-2.8,0.1-4.2c-2.3,1.8-5.3,2-7.8,3.4
		c-5.1,4.1-9.5,8.9-14.8,12.7c-4.2,0.4-8.5,0.1-12.7,0.1c-2.5,2.2-5,4.4-7.4,6.7c-1.9-0.2-3.7-0.5-5.6-0.7
		c-1.9-3.7-3.2-7.9-2.4-12.1c0.2-3.4,2.3-6.2,3.4-9.3c0.2-2.2-0.2-4.4-0.3-6.6c-3.7,0.7-5.2,4.6-8,6.6c-1.9,0.7-3.9,0.9-5.9,1.3
		c-5.4-6.2-10.8-12.4-16.1-18.7c-1.5-3.3-1.4-7.1-2.4-10.6c-1.7,2.5-3.8,4.9-4.2,8c-0.2,1.6-1,3.1-1.9,4.5
		c-3.1,4.4-4.6,9.7-6.8,14.6c-3.3,1.8-7.1,2.1-10.7,1.6c-1.6-1.7-2.5-3.9-3.9-5.8c-0.2,3.4-0.7,6.9,0.1,10.3
		c2.9,3.3,6.4,6.1,8.6,9.9c0.1,2.6-1.1,5.2-1.7,7.7c-2.5,0.7-5.1,0.7-7.5-0.3c-6.8-2.3-13.1-5.8-19.5-9c-4.1-2.2-8.6-3.6-13-5.1
		c1.6,4.8,4.2,9.3,7.9,12.7c1.5,1.5,3.3,2.9,4,5c-1.5,0.7-3,1.3-4.2,2.5c0.7,4.3,4.2,6.9,7.6,9.2c1.6,1,2.7,2.7,3.1,4.5
		c-0.7,1.1-1.7,2.1-2.6,3c-2.6,0.3-5.2,0.7-7.8,1.1c3.7,0.8,5,4.4,7.3,6.9c3.1,3.5,7.6,4.9,11.7,6.7c2.3,1,3.9,3,6.1,4.2
		c2.1,1.3,4.6,2,6.9,2.7c-1.6,4.3-6,6.1-9.8,7.8c0.9,0.9,1.8,1.8,2.7,2.7c3.6,0,7.3,0,10.9,0c1,1.2,1.9,2.5,3.3,3.3
		c3.4,2,7.1,3.7,11,4.2c1.1-1.6,2.4-3.2,4.2-4c2.3-1.4,5-0.2,7.4-0.1c0.9,6.3,0.9,12.7,2.6,18.9c0.8,3.1,1.2,6.3,2.4,9.3l0.7-0.5
		c0.8-0.5,1.6-1,2.4-1.6c-1.3-6.4-3.9-12.6-4.2-19.3c-0.2-2.4-0.1-4.9-0.1-7.4c1.4,0,2.8-0.1,4.2,0.1c2.1,0.7,3.7,2.5,5.8,3.3
		c3,0.4,5.9-0.4,8.9-0.7c0-1,0-2.1,0-3.1c2.2-1.5,4.7-2.5,7.4-2.2c3.7,0.3,7.4-0.6,11-1.6c0.4-0.6,0.8-1.2,1.1-1.7
		c4.5,0.3,9.7,0,12.7-3.9c-1.7-0.4-3.6-0.2-5.2-1c-2-2.6-5.3-3.3-7.4-5.8c0.5-1.9,1.3-3.8,2.3-5.6c3.5-1,6.7-2.8,9.6-4.8
		c2.1-1.3,2.6-3.9,4.5-5.4C330.6,242.2,332.8,238.6,336.5,236.6z"/>
	<path fill="#B42812" d="M5,253.5c4.3,9.3,13,16.2,23.1,18.2c10.2,2,21.5,1,30.2-5.1c7.9-5.4,12.4-14.6,14.1-23.9
		c-5.7,0-11.3,0-17,0c-1.1,5.7-4.4,11.3-10,13.6c-6.2,2.6-14.1,2.1-19.4-2.4c-4.6-3.9-6.8-9.8-7.8-15.6c-1-6.5-0.9-13.2,0.7-19.5
		c1.3-5.3,4-10.4,8.6-13.5c5.7-3.9,13.5-4,19.7-1c4.6,2.3,7.2,7.1,8.3,11.9c5.7,0,11.4,0,17,0c-0.7-6.1-3-12-6.9-16.7
		c-5.5-6.8-13.9-10.7-22.5-11.6c-10.6-1.4-22.2,1.2-30.2,8.6c-7.7,7-11.4,17.4-12.3,27.6c0,4.1,0.4,8.2-0.3,12.3
		C1.3,242.2,2.3,248.2,5,253.5z"/>
	<path fill="#B42812" d="M177.1,196.1c-8.7-7-20.6-9.7-31.6-8.1c-4.6,0.7-9.1,2-13.3,4.2c-7.2,3.7-12.9,10-15.8,17.5
		c-3.9,9.6-4.2,20.4-2.8,30.5c1.5,10.4,6.8,20.6,15.8,26.2c11,7,25.4,8,37.6,3.5c8.2-2.9,15.2-9.1,18.9-17c4.6-9.3,5.1-20,4.3-30.2
		C189.2,212.7,185.1,202.5,177.1,196.1z M167.8,250.7c-5.2,7-15.2,9.4-23.3,6.5c-4.9-1.7-9-5.4-11.3-10.1
		c-3.1-6.2-3.7-13.4-3.4-20.3c0.5-6.7,2.2-13.8,7-18.7c2.8-3,6.6-4.9,10.5-5.7c6.7-1.3,14.2,0.6,19,5.7c4.6,4.6,6.3,11.2,7,17.4
		C174,234.1,173.3,243.5,167.8,250.7z"/>
	<path fill="#B42812" d="M100.6,270.6c0.1-26.9,0-53.9,0.1-80.8c-5.6-0.1-11.2,0.2-16.8-0.3c0,27,0,54,0,81
		C89.4,270.6,95,270.5,100.6,270.6z"/>
	<path fill="#DB473B" d="M282.3,321.9c-1.6-4.1-2.9-8.3-4.1-12.6c-0.7,0.7-1.5,1.4-2.2,2.1l-0.3,0.4c0.8,3.5,2.2,6.9,4.2,9.8
		C280.5,321.7,281.7,321.8,282.3,321.9z"/>
	<path fill="#CA6949" d="M427.1,250.9c-1-0.2-2-0.4-3-0.6c-1.1-1.1-2.5-1.9-3.7-2.8c-0.4-0.3-1.1-0.9-0.8-1.5c0.8-4,6-3.4,7.9-6.4
		c1.8-2.7,4.5-4.6,6.6-7.1c-1.2-1.1-3.5-0.9-5.1-1.5c-0.4-2-0.6-4.3,1.2-5.7c2.8-2.3,1.6-6,2.1-9.1c0.8-2,1.8-4.1,3.5-5.5
		c1-0.6,0.7-1.9,0.9-2.9c-1.8,0.8-3.7,1.2-5.3,2.4c-2.9,2.3-5.3,5.1-8.4,7.1c-2.5,0.4-5.1-0.1-7.6,0.2c-1.7,1.1-2.9,2.8-4.6,3.9
		c-1.1,0-2.4,0.1-3.3-0.5c-2-3.2-2-7.4-0.2-10.7c1.1-1.8,0.8-3.8,0.7-5.8c-1.9,0.1-2.9,1.8-4.1,3c-1.1,1.3-3,1.7-4.6,1.3
		c-3-3.1-5.6-6.5-8.5-9.7c-2.1-2-1.8-5.1-2.5-7.7c-1.1,1.3-2.1,2.6-2.5,4.3c-0.7,3-2.9,5.3-3.8,8.2c-0.8,1.5-0.9,3.8-2.8,4.4
		c-1.7,0.8-3.6,0.5-5.4,0.4c-0.6-1.1-1.3-2.2-2.1-3.1c-0.2,2-0.6,4.1,0.1,6.1c1.6,2.1,3.9,3.6,5.1,6c-0.1,1.5-0.6,3-0.9,4.4
		c-1.2,0.2-2.4,0.6-3.6,0.1c-7.2-2-13.2-6.9-20.5-8.6c1.1,4.3,4.5,7.2,7.2,10.5c-0.8,0.6-2.4,0.8-2.4,2.1c0.4,3.8,5.3,4.4,6.4,7.8
		c-1.3,2.2-4,2.1-6.2,2.6c2.5,1,3.4,3.8,5.6,5.3c2.3,1.8,5.4,2.2,7.6,4c1.7,1.4,3.7,2.3,5.8,3c-1,2.5-3.5,3.5-5.8,4.6
		c1.7,3.5,6.4,0.2,8.8,2.5c2.2,2,5,3,7.8,3.7c1-1,2-2.3,3.4-2.8c1.2-0.1,2.5,0.1,3.7,0.2c0.7,9.1,2.4,18.4,6.6,26.7
		c0.4,0,1.3,0,1.7,0c-2.1-5.3-3.2-10.9-4.7-16.3c-0.9-3.3-1.5-6.8-1.2-10.2c1.7-1,3.5,0.3,4.8,1.2c1.8,1.3,4.2,0.4,6.2,0.2
		c0.1-1.6,1.1-2.9,2.8-3.1c3.3-0.2,6.8,0,9.8-1.9C422.5,253.4,425.3,253.1,427.1,250.9z"/>
	<path fill="#E6B19A" d="M496.1,214.3c1.4-1.6,0.8-3.9,1.4-5.8c0.7-1.8,2.4-3.2,2.5-5.2c-3,1-5.3,3.2-7.6,5.3
		c-1.8,1.9-4.9,0-6.8,1.7c-1,0.6-1.9,1.8-3.2,1.6c-1.5-0.6-1.6-2.3-1.7-3.6c-0.2-2.5,2.5-4.8,0.7-7.1c-1,0.9-1.9,1.9-3,2.7
		c-2.3,1.1-3.3-1.8-4.7-3c-2.1-2.1-4-4.5-4.1-7.6c-2.4,3-3.2,6.9-5.2,10.1c-2,1.4-4.3,0.5-5.4-1.5c0,1.3-0.1,2.5,0.2,3.8
		c1,1.4,2.5,2.4,3.2,4c0.1,1.2-0.4,3.2-2,2.9c-4.9-1-8.8-4.4-13.6-5.4c0.8,2.5,2.6,4.5,4.4,6.3c-0.5,0.5-1,1.1-1.5,1.6
		c0.9,1.9,2.8,2.9,4.1,4.6c-0.3,1.5-2.4,1.4-3.5,2c1.5,1.4,2.7,3.3,4.6,4.1c2.4,1.1,4.6,2.6,7,3.9c-0.7,1.4-3.2,1.8-3.2,3.4
		c1.4,0.4,2.9,0.3,4.3,0.5c1.8,0.7,3.2,2.3,5.3,2.5c1.6-0.9,3.1-2,5-1.4c0.2,4.5,1.1,8.9,2.5,13.1c0.5,1.5,1.1,3.2,2.7,3.8
		c-1.4-5.7-3.8-11.3-3.7-17.2c2.3,0.5,4.5,1.7,7,1.3c0.1-0.4,0.4-1.3,0.5-1.8c4-0.3,8-1.2,11.7-2.7c-1.6-1.1-3.1-2.1-4.7-3.2
		c0.7-2.3,3.3-2.6,4.9-4.1c1.6-1.6,3.2-3.2,4.8-4.9c-1.1-0.3-2.3-0.6-3.4-0.9C495,216.7,495.2,215.4,496.1,214.3z"/>
	<path d="M47.4,317.2c-3.7-2.3-8.4-2.3-12.4-3.9c-1.3-0.6-2.1-2.3-1.3-3.5c0.9-2.1,3.7-2.1,5.6-2.2c2.2,0.5,4.2,1.9,4.5,4.3
		c1.8,0,3.6,0,5.3,0c-0.3-2.9-1.6-5.8-4.2-7.2c-3.7-2-8.4-2-12.2-0.4c-4.6,1.8-5.9,8.6-2.8,12.2c3.6,3.2,8.8,2.6,13,4.6
		c1.7,0.8,2.2,2.9,0.9,4.3c-2.2,1.9-5.6,1.9-8.2,0.9c-1.7-0.5-2.3-2.3-2.7-3.8c-1.8,0-3.5,0-5.3,0c0.3,2.4,0.9,4.9,2.9,6.4
		c2,1.9,4.9,2.2,7.5,2.7h2.7c3.4-0.5,7.2-1.9,8.6-5.4C50.2,323.1,50.2,319.1,47.4,317.2z"/>
	<path d="M72.3,317.2c-4.1-2.7-9.5-2.1-13.7-4.7c0.1-1.2-0.4-2.8,0.8-3.6c0.8-0.6,1.8-0.9,2.8-1.3c1.8,0.1,3.7,0.2,5.2,1.4
		c0.8,0.8,1.1,2,1.6,3c1.8,0,3.5,0,5.3,0c-0.5-2.8-1.5-5.6-4.1-7.1c-3.8-2.2-8.7-2.1-12.6-0.5c-4.8,2.1-6,9.6-1.7,12.8
		c3.7,2.4,8.5,2.1,12.4,4.1c1.9,0.9,1.6,3.9-0.2,4.8c-2.3,1.2-5.2,1.2-7.5,0.2c-1.6-0.6-2.1-2.4-2.7-3.8c-1.7,0-3.5,0-5.2,0
		c0.5,2.1,0.8,4.5,2.5,6.1c2.1,2.1,5.1,2.6,7.8,3.1H66c2.4-0.6,4.9-1.1,6.6-2.9C75.7,325.6,75.9,319.8,72.3,317.2z"/>
	<path d="M82.2,306.2c-3.2,2.9-4.2,7.4-4.1,11.6c0.2,3.7,1.2,7.7,4,10.3c2,2,4.8,2.8,7.5,3.3h3.1c5-0.7,9.6-4.3,10.7-9.3
		c0.8-4.8,0.8-10.3-2.2-14.4C96.8,302.1,87.5,301.7,82.2,306.2z M98.1,319.8c-0.5,2.4-1.6,5.1-4,6.1c-3.2,1.8-7.6,0.3-9.3-3
		c-1.5-3.1-1.5-6.8-0.6-10.1c1.2-4.8,7.8-6.7,11.4-3.3C98.5,312.2,98.4,316.3,98.1,319.8z"/>
	<path d="M117.4,308.4c2.2-0.5,5-0.6,6.7,1.2c0.8,0.9,1.2,2,1.7,3.1c1.8,0,3.7,0,5.5,0c-0.4-2.7-1.7-5.4-3.9-7.1
		c-3.6-2.7-8.6-3.1-12.7-1.5c-4.1,1.6-6.5,5.8-7.2,10c-0.7,4.9,0,10.5,3.7,14.2c1.8,2,4.5,2.7,7,3.2h2.6c2.5-0.4,5.1-1.2,6.9-3.1
		c1.9-1.9,2.9-4.4,3.5-6.9c-1.8,0-3.7,0-5.5,0c-0.8,1.9-1.8,4.2-4,4.7c-2.3,0.9-5.1,0.2-6.6-1.7c-1.9-2.3-2.2-5.4-2.2-8.2
		C113.4,313.3,114.2,309.5,117.4,308.4z"/>
	<path d="M205.6,307.3c-2.3,2.5-3,6-3.2,9.2c-0.1,4.3,1,9.1,4.4,12c2,1.8,4.6,2.4,7.1,3h3.1c4.6-0.7,9.1-3.6,10.4-8.3
		c1.1-4.5,1.2-9.6-0.9-13.8C222.7,301.9,211,301,205.6,307.3z M222.4,320.5c-0.5,2.2-1.8,4.5-4,5.5c-3,1.6-7.1,0.5-8.8-2.4
		c-1.2-1.7-1.3-3.9-1.6-5.9c0-3.5,0.9-7.7,4.5-9.2c2.8-1.2,6.5-0.5,8.3,2.1C223,313.4,222.8,317.2,222.4,320.5z"/>
	<path d="M269.2,316.5c-0.2,4.2,0.8,8.9,4.1,11.8c1.9,1.8,4.5,2.6,7,3.2h3.1c4.1-0.6,8.2-2.8,10-6.7c2.1-4.9,2.1-10.9-0.4-15.7
		c-3.6-6.4-12.9-7.5-18.7-3.7l-0.7,0.5C270.7,308.5,269.1,312.5,269.2,316.5z M275.7,311.8l0.3-0.4c1.3-2.1,3.6-3.5,6.1-3.6
		c1.6,0.3,3.5,0.6,4.7,1.8c2.5,2.5,2.9,6.4,2.6,9.7c-0.5,2.9-1.9,5.9-4.8,6.9c-2.8,1.3-6.3,0.1-8.1-2.3
		C274.2,320.3,274.4,315.7,275.7,311.8z"/>
	<path d="M348.3,309.3c1,0.9,1.4,2.2,2,3.4c1.8,0,3.7,0,5.5,0c-0.5-2.3-1.4-4.7-3.2-6.4c-2.9-3-7.5-3.5-11.5-2.9
		c-4.6,0.9-8.1,5-8.9,9.5c-0.9,4.9-0.6,10.4,2.6,14.4c1.9,2.5,5,3.6,8,4.2h2.6c2.3-0.5,4.8-1.1,6.6-2.9c2.1-1.8,3.1-4.5,3.8-7.1
		c-1.9,0-3.7,0-5.5,0c-0.8,1.7-1.5,3.9-3.5,4.5c-2.5,1.2-5.8,0.5-7.4-1.8c-2.5-3.7-2.4-8.7-0.7-12.7
		C340.2,307.8,345.3,306.9,348.3,309.3z"/>
	<path d="M9.6,303.8c-3.2,8.9-6.3,17.9-9.6,26.8v0.2c2,0,3.9,0,5.9,0c0.7-1.9,1.3-3.8,2-5.7c3.3,0,6.7,0,10,0
		c0.5,1.9,1.1,3.8,1.7,5.7c2,0,4.1,0,6.1,0c-3.2-8.9-6.3-17.9-9.5-26.9C14,303.9,11.8,303.8,9.6,303.8z M9.3,320.4
		c1.2-3.5,2.2-7.1,3.5-10.6c1.3,3.4,2.2,7.1,3.5,10.5C13.9,320.4,11.6,320.4,9.3,320.4z"/>
	<path d="M135.2,330.8c1.8,0,3.7,0,5.5,0c0-9,0-17.9,0-26.9c-1.8,0-3.7,0-5.5,0C135.2,312.9,135.2,321.9,135.2,330.8z"/>
	<path d="M153.5,303.8c-3.3,9-6.3,18.1-9.7,27c2,0,4,0,6,0c0.3-1,0.7-2,1-2.9c0.3-0.9,0.7-1.8,1-2.8c3.3,0,6.7,0,10,0
		c0.5,1.9,1.1,3.8,1.7,5.7c2,0,4,0,6.1,0c-3.2-9-6.4-17.9-9.4-26.9C157.9,303.9,155.7,303.8,153.5,303.8z M153.2,320.4
		c1.2-3.5,2.2-7.1,3.5-10.5c1.3,3.5,2.2,7,3.5,10.5C157.8,320.4,155.5,320.4,153.2,320.4z"/>
	<path d="M168,303.8c0,1.6,0,3.2,0,4.8c2.7,0,5.5,0,8.2,0c-0.1,7.4,0,14.8,0,22.1c1.9,0,3.7,0,5.6,0c0-7.4,0-14.8,0-22.1
		c2.7,0,5.3,0,8,0c0-1.6,0-3.2,0-4.8C182.5,303.9,175.2,303.8,168,303.8z"/>
	<path d="M192.7,303.8c0,9,0,18,0,27c1.8,0,3.7,0,5.5,0c0-9,0-17.9,0-26.9C196.4,303.9,194.5,303.8,192.7,303.8z"/>
	<path d="M249.2,322.5c-3.5-6.2-7.2-12.3-10.5-18.6c-2.1-0.1-4.2-0.1-6.3-0.1c0,9,0,18,0,27c1.8,0,3.6,0,5.4,0c0-6.4,0-12.7,0-19.1
		c0.9,1.1,1.6,2.3,2.3,3.5c2.9,5.2,6,10.3,8.8,15.5c1.9,0,3.8,0,5.7,0c0-9,0-18,0-27c-1.8,0-3.5,0-5.3,0
		C249.2,310.1,249.3,316.3,249.2,322.5z"/>
	<path d="M299.4,303.8c0,9,0,18,0,27c2,0,3.9,0,5.9,0c0-3.9,0-7.7,0-11.6c3.9,0,7.8,0,11.7,0c0-1.6,0-3.2,0-4.7c-3.9,0-7.8,0-11.7,0
		c0-2,0-3.9,0-5.9c4.4,0,8.9,0,13.3,0c0-1.6,0-3.2,0-4.9C312.2,303.9,305.8,303.8,299.4,303.8z"/>
	<path d="M374.6,305.8c-0.1-0.4-0.3-1.3-0.4-1.8c-2.3-0.1-4.7-0.2-7-0.1c-0.1,0.5-0.3,1.4-0.4,1.8c-3.1,8.4-6,16.7-9,25.1
		c2,0,3.9,0,5.9,0c0.6-1.9,1.3-3.8,1.8-5.7c3.3,0,6.6,0,10,0c0.7,1.9,1.3,3.8,1.9,5.7c2,0,4,0,6.1,0c-0.4-1-0.7-2-1.1-2.9
		C379.8,320.5,377.3,313.1,374.6,305.8z M367.2,320.4c1.3-3.5,2.2-7,3.5-10.5c1.3,3.5,2.2,7.1,3.4,10.6
		C371.8,320.4,369.5,320.4,367.2,320.4z"/>
	<path d="M403.5,322.5c-3.6-6.1-7.3-12.2-10.5-18.6c-2.1-0.1-4.2-0.1-6.3,0c0,9,0,17.9,0,26.9c1.8,0,3.6,0,5.4,0
		c0-6.4,0-12.7,0-19.1c4,6.2,7.4,12.7,11.1,19.1c1.9,0,3.8,0,5.7,0c0-9,0-18,0-27c-1.8,0-3.5,0-5.3,0
		C403.5,310.1,403.6,316.3,403.5,322.5z"/>
	<path d="M428.2,303.9c-2.2,0-4.4,0-6.5,0c-3.2,9-6.3,18.1-9.7,27c2,0,4,0,5.9,0c0.7-1.9,1.3-3.8,2-5.7c3.3,0,6.6,0,10,0
		c0.5,1.9,1.1,3.8,1.7,5.7c2,0,4,0,6.1,0c-2.6-7.3-5.1-14.5-7.7-21.8C429.4,307.3,428.7,305.6,428.2,303.9z M421.4,320.4
		c1.2-3.5,2.2-7,3.5-10.5c1.3,3.4,2.2,7,3.5,10.5C426,320.4,423.7,320.4,421.4,320.4z"/>
	<path d="M453.7,303.9c-4.2,0-8.3,0-12.5,0c0,9,0,17.9,0,26.9c3.5,0,7,0,10.5,0.1c3.9,0.1,8.1-1.4,10-5c3-5.2,3.2-11.9,0.4-17.2
		C460.7,305.6,457.1,303.8,453.7,303.9z M458.2,319.1c-0.1,2.9-1.7,6.1-4.7,6.9c-2.3,0.2-4.5,0-6.8,0.1c0-5.9,0-11.8,0-17.8
		c3.1,0.2,6.6-0.7,9.3,1.3C458.6,312,458.3,315.9,458.2,319.1z"/>
	<path d="M485.3,312.2c-1-2.8-2.1-5.6-2.9-8.4c-2.2,0-4.3,0-6.5,0c-1.9,5.2-3.7,10.4-5.6,15.6c-1.1,3-2.2,6.1-3.3,9.1
		c-0.3,0.8-0.5,1.5-0.8,2.3c1.9,0,3.9,0,5.8,0c0.7-1.9,1.3-3.8,1.9-5.7c3.3,0,6.7,0,10,0c0.6,1.9,1.2,3.8,1.7,5.7c2,0,4.1,0,6.1,0
		c-0.9-2.5-1.7-5-2.6-7.5C487.9,319.6,486.6,315.9,485.3,312.2z M475.6,320.4c1-3.5,2.4-6.9,3.2-10.4c0.2,0.2,0.5,0.6,0.6,0.8
		c0.9,3.2,2,6.3,3,9.5C480.1,320.4,477.8,320.4,475.6,320.4z"/>
</g>
</svg>
