<?xml version="1.0" encoding="utf-8"?>
<!-- Generator: Adobe Illustrator 22.0.1, SVG Export Plug-In . SVG Version: 6.00 Build 0)  -->
<svg version="1.1" id="Layer_1" xmlns="http://www.w3.org/2000/svg" xmlns:xlink="http://www.w3.org/1999/xlink" x="0px" y="0px"
	 viewBox="0 0 500 500" enable-background="new 0 0 500 500" xml:space="preserve">
<g>
	<g>
		<path fill="#C91D20" d="M3.4,214.9c10.5-13.4,34.1-13.5,44.7-0.2c2.5,3.3,3.3,7.4,3.6,11.4c-3.8,0-7.5,0-11.3,0
			c-2.2-10.2-15.8-11.4-23.7-7.4c-5.2,1.9-7.3,10.2-1.7,12.9c9.6,4.5,21.4,2.7,30.2,9.1c9,7,8.3,22.4-0.7,29.1
			c-11,8.3-28.1,8.1-38.5-1.1c-4.1-3.6-5.8-9-6-14.3c3.8-0.1,7.6-0.1,11.3,0c1.1,7.5,9.5,10.2,16.1,9.6c4.8-0.4,10.7-2.2,12.3-7.3
			c1.4-3.3-0.8-7-4.1-8c-9-3-19.2-2.5-27.5-7.6C-0.7,235.9-2.3,222.9,3.4,214.9z"/>
		<path fill="#C91D20" d="M257.7,204.8c3.8,0,7.7,0,11.5,0c0,5.2,0,10.4,0,15.5c5,0,9.9,0,14.9,0c0,3.8,0,7.7,0,11.5
			c-4.9,0-9.9,0-14.8,0c0.1,7.4-0.3,14.8,0.2,22.2c1,6.9,8.4,10,14.6,10.2c0.1,3.9,0.1,7.7,0.1,11.6c-12,0.2-25.1-7.7-26.2-20.5
			C257.6,238.5,257.8,221.6,257.7,204.8z"/>
		<path fill="#C91D20" d="M287.4,204.8c3.9,0,7.9,0,11.8,0c0,6.2,0,12.3,0,18.5c8.2-3.8,18.2-4.3,26.2,0.4
			c7,3.7,11.4,11.6,11.3,19.5c0,10.8,0,21.7,0,32.5c-3.8,0-7.7,0-11.5,0c-0.1-11.2,0.2-22.3-0.2-33.5c-0.7-7.8-9.7-12-16.7-9.9
			c-5.1,1-9.3,5.6-9.1,10.9c-0.1,10.8,0,21.6,0,32.4c-3.9,0-7.9,0-11.8,0C287.4,252,287.4,228.4,287.4,204.8z"/>
		<path fill="#C91D20" d="M66.2,223.8c10.1-5.9,24.2-4.4,32.4,4.1c9.7-10.1,27.8-10.2,37.5-0.1c3.8,4.1,6.1,9.7,5.9,15.4
			c0,10.8,0,21.7,0,32.5c-3.8,0-7.7,0-11.5,0c-0.1-10.9,0.1-21.8-0.1-32.6c-0.1-8-9.2-12.9-16.4-10.8c-5.2,0.9-9.5,5.5-9.5,10.8
			c-0.1,10.9,0,21.7,0,32.6c-3.9,0-7.9,0-11.8,0c0-10.8,0.1-21.6,0-32.4c0.1-5.5-4.4-10.3-9.8-11.1c-6.7-1.7-15.3,2.3-16,9.7
			c-0.4,11.2,0,22.5-0.2,33.7c-3.8,0-7.7,0-11.5,0c0-10.8,0-21.6,0-32.5C54.9,235.4,59.4,227.6,66.2,223.8z"/>
		<g>
			<path fill="#C91D20" d="M164.5,221.1c11.1-2.6,24.7,0.8,30.6,11.2c3.8,6.1,2.7,13.6,2.8,20.5c0.4,9.2-6.1,17.7-14.6,20.8
				c-11.6,4.6-26.9,2.1-34.2-8.7c-4.8-6.6-3.4-15.2-3.5-22.9C145.8,231.6,154.6,223,164.5,221.1z M164.5,233.4
				c-8.9,3.3-7.9,14.3-6.9,21.9c4,12.4,26.4,11.7,28.7-1.5c0-5.6,1.5-12.3-2.5-17C179.2,231.5,170.8,230.7,164.5,233.4z"/>
		</g>
		<g>
			<path fill="#C91D20" d="M219.9,221.2c8.5-2.1,18.1-0.9,25.2,4.3c5.6,4,9.1,10.8,8.9,17.6c-0.1,7,1,14.7-3.1,20.9
				c-9.8,15.5-36.2,15.6-46.1,0.2c-4.4-6.6-3.1-14.9-3.1-22.4C201.9,231.8,210.3,223.3,219.9,221.2z M221.1,233.1
				c-4.3,1.5-7.9,5.5-7.9,10.2c0,5.8-1.3,13,3.8,17.1c7.1,5.8,20.5,4.9,24.7-4.1c1.4-5,1.1-10.5,0.4-15.7
				C239.4,232.4,228.5,230.1,221.1,233.1z"/>
		</g>
	</g>
	<g>
		<g>
			<path fill="#96989A" d="M347.9,204.8c9.8,0.2,19.7-0.5,29.5,0.8c6.6,0.9,13.3,4.1,17,10c5.7,9.3,2.7,22.9-6.7,28.7
				c-8.5,6.1-19.4,5.1-29.3,5.1c0,8.8,0,17.6,0,26.3c-3.5,0-7,0-10.5,0C347.9,252,347.9,228.4,347.9,204.8z M358.3,213.2
				c0,9.3,0,18.7,0,28c6.7-0.4,13.8,0.4,20.1-2.2c8.9-3.7,10.6-18.2,1.9-23.2C373.6,212.3,365.7,213.4,358.3,213.2z"/>
		</g>
		<g>
			<path fill="#96989A" d="M402.9,223.4c10.1-2.1,20.9-3.5,30.8-0.4c6.2,1.9,10.4,7.9,10.4,14.3c0.4,12.8,0.1,25.6,0.2,38.3
				c-3.4,0-6.8,0-10.2,0c0-1.3,0.1-3.9,0.1-5.2c-8.2,6.3-20.5,9.5-29.7,3.5c-9.3-5.9-9.7-21.7-0.1-27.6c9-5.3,19.9-4.7,30-5.9
				c-0.3-3.8-1.3-8.2-5.2-9.8c-8.7-3-18-0.2-26.4,2.3C402.9,229.8,402.9,226.6,402.9,223.4z M411.2,252.9c-5.1,3.7-4,12.9,2.1,14.8
				c7.3,2.6,15.1-0.9,20.9-5.3c0-4.8,0-9.7,0-14.5C426.6,249.1,417.9,248.1,411.2,252.9z"/>
		</g>
		<path fill="#96989A" d="M446.9,222.4c3.7,0,7.3,0,11,0c5.3,12.9,10.6,25.9,15.8,38.9c5.3-13,10.5-25.9,15.7-38.9
			c3.5,0,7.1,0,10.6,0.1c-10.4,24.3-21.1,48.5-31.4,72.8c-3.7,0.1-7.4,0-11.1,0c3.6-7.4,7.1-14.9,10.6-22.3
			C461,256,453.8,239.3,446.9,222.4z"/>
	</g>
</g>
</svg>
