<?xml version="1.0" encoding="utf-8"?>
<!-- Generator: Adobe Illustrator 22.0.1, SVG Export Plug-In . SVG Version: 6.00 Build 0)  -->
<svg version="1.1" id="Layer_1" xmlns="http://www.w3.org/2000/svg" xmlns:xlink="http://www.w3.org/1999/xlink" x="0px" y="0px"
	 viewBox="0 0 500 500" enable-background="new 0 0 500 500" xml:space="preserve">
<g>
	<path fill="#FFFFFF" d="M250,50c110.5,0,200,89.5,200,200c0,110.5-89.5,200-200,200c-110.5,0-200-89.5-200-200
		C50,139.5,139.5,50,250,50L250,50z"/>
	<path fill="#006341" d="M374.6,216.4c28.7-10,47.6,18.6,69.8,11.9c-21.5-22.8-39-48.8-36.7-78.8c0.1-1.8-1.4-2.8-2.9-1.7
		c-11,7.6-18.6,20.2-21,34.3c-15.2-9.8-33.1-11.2-47.8-5.1C351.1,187.7,364.2,201.1,374.6,216.4L374.6,216.4z M342.6,128.1
		c-14.7,1-27.4,6.1-37.7,14.5c4.4-12.4,9.9-23.2,17-33.8c-18.7,2-34.3,8.8-45.7,20.5l-8.9-23.4l19.8-17.5l-26.5-1.9L250,61.9
		l-10.6,24.6l-26.5,1.9l19.8,17.5l-8.9,23.4c-11.4-11.7-27-18.5-45.6-20.5c7,10.5,12.6,21.4,17,33.8c-10.3-8.4-23-13.4-37.7-14.5
		c8.8,11.3,16.6,23.4,22.4,36.3c0.7,1.5,2.1,1.9,3.6,1.2c20.1-10,42.7-15.6,66.6-15.6c23.9,0,46.6,5.6,66.6,15.6
		c1.5,0.8,2.9,0.3,3.6-1.2C326,151.4,333.8,139.4,342.6,128.1L342.6,128.1z M214.6,198.1c3.9-3.9,12.1-3.7,20.6-0.6
		c0.4-4.2-7.2-8.9-14.8-8.9c-5.5,0-8.2,1.9-8.2,4.6C212.2,194.9,212.8,196.4,214.6,198.1L214.6,198.1z M279.6,188.7
		c-4.5,0-9.7,1.4-12.9,5c-0.3,1-0.3,2.5,0.1,3.5c8.1-2.8,15.2-2.9,18.6,1c1.8-1.7,2.4-3.2,2.4-4.9
		C287.8,190.5,285.1,188.7,279.6,188.7L279.6,188.7z M250,159c-18.6,0-34.1,10.5-38.2,24.1c-0.3,1,0.1,1.7,1.3,1.2
		c3.3-1.5,7.1-2.2,11.3-2.2c7.6,0,14.2,2.8,18.2,7.6c1.7,5.8,1.9,14.1-0.1,18.9c-3.1-0.7-4.2-3.1-7.3-3.1c-3,0-5.4,2.1-10.6,2.1
		c-5.2,0-5.8-2.4-9.2-2.4c-4,0-4.7,4.1-4.7,8.8c0,20.7,19,49.2,39.2,49.2c20.2,0,39.2-28.5,39.2-49.2c0-4.6-1-8.6-5.1-9.1
		c-2.1,1.5-4,2.8-8.8,2.8c-5.2,0-6.6-2.1-9.6-2.1c-3.7,0-3.3,7.7-7.7,8.2c-2.9-7-3-15.9-0.6-23.9c4-4.8,10.6-7.6,18.2-7.6
		c4.1,0,8,0.7,11.3,2.2c1.2,0.5,1.6-0.1,1.3-1.2C284.1,169.5,268.6,159,250,159L250,159z M164,177.1c-14.7-6-32.5-4.6-47.8,5.1
		c-2.4-14.2-10-26.8-21-34.3c-1.5-1-3.1-0.1-2.9,1.7c2.3,29.9-15.2,55.9-36.7,78.8c22.2,6.7,41.1-21.9,69.8-11.9
		C135.8,201.1,148.9,187.7,164,177.1L164,177.1z M449.7,261c-0.3,4.8-0.7,9.5-1.3,14.2c-22.6,3.7-30.7-16.4-53.9-15.4
		c1.4,4.9,2.5,9.9,3.4,15.1c19.1,0,26.8,17.9,48.1,15.2c-1.1,5.5-2.5,10.9-4,16.2c-16.8,1.7-22.8-15.1-42.2-14.6
		c0.2,2.8,0.2,5.6,0.2,8.4c0,1.6,0,3.1-0.1,4.7c16.6-0.2,22,15.1,37.8,14.4c-2,5.4-4.2,10.6-6.6,15.8c-11.4-0.6-15.3-15.2-32.6-14
		c-0.5,3.7-1.2,7.4-2,11.1c15-1.1,18.2,12.8,29,13.9c-2.7,5-5.7,9.9-8.8,14.6c-6.4-3.4-11.9-13.7-24-14.3c1.2-3.8,2.3-7.7,3.2-11.7
		c-10.7,0-23-4.2-33.3-13.5c3.3-19-26.1-38.3-26.1-52.2c0-15.1,7.6-23.4,7.6-43.8c0-15.1-7.3-31.5-18.4-42.7
		c-2.1-2.2-4.3-3.9-6.8-5.5c10.2,12.6,18,27.5,18,44.7c0,19.2-8.9,29.3-8.9,47c0,17.7,25.9,33,25.9,51.2c0,7.2-2.3,14.2-9.9,27.9
		c11.6,11.6,26.7,17.9,36.5,17.9c3.2,0,4.9-1,6-3.5c1-2.1,1.9-4.3,2.8-6.5c10.5,0.4,15.3,10,21.1,13.8c-3.2,4.3-6.5,8.4-10.1,12.4
		c-3.9-4.3-9.1-11.6-16.8-13.6c-1.4,2.7-2.8,5.3-4.4,7.9c6.6,1.8,11.1,8.5,14.6,12.9c-3.8,3.9-7.7,7.7-11.8,11.2
		c-2.6-4-6.5-9-11-11.7c-1.6,2.2-3.4,4.4-5.1,6.5c3.8,2.6,7.1,7.2,9.3,11c-4.7,3.8-9.6,7.4-14.7,10.7c-2.5-20.3-30.2-34.2-22.7-57.8
		c-2.5,4.2-5.4,9.3-5.4,15.6c0,17.1,18.2,30.6,19.6,47.5c-3.8,2.3-7.6,4.4-11.5,6.4c-0.7-18.6-19.9-39-19.9-54.3
		c0-17.1,22.4-34.2,22.4-54.4c0-20.2-25.8-34.1-25.8-51.8c0-17.7,11-27.9,11-50.6c0-16.6-7.9-33.4-20.1-44.2
		c-2.2-1.9-4.3-3.4-6.8-4.7c11.5,13.8,18.2,26.3,18.2,45.3c0,21.3-12.6,33.2-12.6,54c0,20.9,25.3,32.5,25.3,52
		c0,19.5-23.6,35.9-23.6,55.9c0,18.2,20.8,36.4,21.1,57.9c-4.5,2-9.2,3.8-13.9,5.4c2.6-21.8-20.7-44.3-20.7-62.1
		c0-19.5,24.4-36.2,24.4-57.1c0-21-24.9-30.7-24.9-52.3c0-21.5,15.2-33.4,15.2-57.2c0-18.5-9.2-35.2-22.5-45.5
		c-0.3-0.2-0.6-0.4-0.8-0.6c-1.3-0.9-2.3,0.2-1.4,1.3c9.5,11.8,14.5,23.8,14.5,41.5c0,21.8-17.5,39.4-17.5,60.5
		c0,24.9,23.5,32,23.5,52.4c0,20.4-25.2,36.7-25.2,58.4c0,20.1,23.9,42.4,19.8,65.6c-4.8,1.2-9.6,2.3-14.6,3.2
		c4.5-28.9-18.9-49.6-18.9-68.5c0-20.5,26.1-38.7,26.1-58.7c0-18.9-18.7-25-21.2-44.3c-0.3-2.6-2.5-4.6-5.4-4.1
		c-3.8,0.7-8.7,3.2-16.4,3.2c-7.7,0-12.5-2.5-16.4-3.2c-2.9-0.5-5,1.5-5.4,4.1c-2.5,19.3-21.2,25.4-21.2,44.3
		c0,20,26.1,38.2,26.1,58.7c0,18.9-23.4,39.6-18.9,68.5c-4.9-0.9-9.8-2-14.6-3.2c-4.1-23.2,19.8-45.5,19.8-65.6
		c0-21.7-25.2-38-25.2-58.4c0-20.4,23.5-27.5,23.5-52.4c0-21.1-17.5-38.8-17.5-60.5c0-17.7,5.1-29.6,14.5-41.5
		c0.9-1.1-0.1-2.2-1.4-1.3c-0.3,0.2-0.6,0.4-0.8,0.6c-13.4,10.3-22.5,27-22.5,45.5c0,23.8,15.2,35.7,15.2,57.2
		c0,21.5-24.9,31.3-24.9,52.3c0,21,24.4,37.7,24.4,57.1c0,17.8-23.4,40.3-20.7,62.1c-4.7-1.6-9.3-3.5-13.9-5.4
		c0.3-21.6,21.1-39.8,21.1-57.9c0-20-23.5-36.4-23.5-55.9c0-19.5,25.3-31.1,25.3-52c0-20.9-12.6-32.7-12.6-54
		c0-19,6.7-31.5,18.2-45.3c-2.6,1.3-4.7,2.8-6.8,4.7c-12.2,10.7-20.1,27.6-20.1,44.2c0,22.7,11,32.9,11,50.5
		c0,17.7-25.8,31.7-25.8,51.8c0,20.1,22.4,37.3,22.4,54.4c0,15.3-19.3,35.7-19.9,54.3c-3.9-2-7.8-4.1-11.5-6.4
		c1.5-17,19.6-30.5,19.6-47.5c0-6.3-2.9-11.4-5.4-15.6c7.5,23.6-20.3,37.5-22.7,57.8c-5.1-3.4-9.9-7-14.7-10.7
		c2.2-3.8,5.5-8.4,9.3-10.9c-1.8-2.1-3.5-4.3-5.1-6.5c-4.5,2.7-8.4,7.8-11,11.7c-4.1-3.6-8-7.3-11.8-11.2c3.5-4.4,8-11.1,14.6-12.9
		c-1.5-2.6-3-5.2-4.4-7.9c-7.7,2-12.9,9.3-16.8,13.6c-3.5-4-6.9-8.2-10.1-12.4c5.8-3.8,10.6-13.4,21.1-13.8c0.9,2.2,1.8,4.4,2.8,6.5
		c1.1,2.5,2.8,3.5,6,3.5c9.8,0,24.9-6.3,36.5-17.9c-7.6-13.8-9.9-20.8-9.9-27.9c0-18.2,25.9-33.5,25.9-51.2c0-17.7-8.9-27.8-8.9-47
		c0-17.3,7.8-32.2,18-44.7c-2.5,1.6-4.7,3.3-6.9,5.5c-11.1,11.2-18.4,27.6-18.4,42.7c0,20.3,7.6,28.7,7.6,43.8
		c0,13.9-29.5,33.2-26.1,52.2c-10.3,9.4-22.5,13.5-33.3,13.5c0.9,3.9,2,7.8,3.2,11.7c-12.1,0.6-17.6,10.9-24,14.3
		c-3.1-4.7-6.1-9.6-8.8-14.6c10.8-1.1,14-14.9,29-13.9c-0.8-3.6-1.5-7.3-2-11.1c-17.3-1.2-21.2,13.4-32.6,14
		c-2.4-5.2-4.6-10.4-6.6-15.8c15.8,0.7,21.2-14.6,37.8-14.4c0-1.5-0.1-3.1-0.1-4.7c0-2.8,0.1-5.6,0.2-8.4
		c-19.5-0.5-25.4,16.3-42.2,14.6c-1.5-5.3-2.9-10.7-4-16.2c21.3,2.6,29-15.2,48.1-15.2c0.9-5.1,2-10.1,3.4-15.1
		c-23.2-1-31.3,19.2-53.9,15.4c-0.6-4.7-1-9.4-1.3-14.2c26.3,2.9,36.2-18.7,60.1-16c2.3-5.7,4.9-11.3,7.8-16.6
		c-30-5.3-40.2,19.8-68.2,16C53.1,136.5,141.5,50,250,50s196.9,86.5,199.9,194.3c-28,3.9-38.2-21.3-68.2-16c3,5.3,5.6,10.9,7.8,16.6
		C413.5,242.3,423.4,263.9,449.7,261L449.7,261z M250,223.1c-2.4,0-3-0.9-4.6-0.9c-1.6,0-4.6,1.3-5.3,2.4c0,0.6,0.3,1.1,0.7,1.6
		c3.5,0.5,5.1,2.5,9.3,2.5c4.1,0,5.7-2,9.3-2.5c0.4-0.5,0.6-1,0.7-1.6c-0.7-1.2-3.7-2.4-5.3-2.4C253,222.2,252.4,223.1,250,223.1
		L250,223.1z M235.5,235.5c0,0-1.1,0.4-1.3,1.3c4.2,3.2,7.1,10.6,15.9,10.6c8.8,0,11.7-7.3,15.8-10.6c-0.3-0.9-1.3-1.3-1.3-1.3
		s-5.5,1.3-14.5,1.3C241,236.8,235.5,235.5,235.5,235.5L235.5,235.5z M270.1,136.5c-1.8-0.3-10.2-1.7-20.1-1.7
		c-9.9,0-18.4,1.4-20.1,1.7c-1,0.2-1.4-0.8-0.6-1.4c0.7-0.5,20.7-15.8,20.7-15.8s20,15.3,20.7,15.8
		C271.5,135.7,271.1,136.6,270.1,136.5L270.1,136.5z"/>
</g>
</svg>
