<?xml version="1.0" encoding="utf-8"?>
<!-- Generator: Adobe Illustrator 22.0.1, SVG Export Plug-In . SVG Version: 6.00 Build 0)  -->
<svg version="1.1" id="Layer_1" xmlns="http://www.w3.org/2000/svg" xmlns:xlink="http://www.w3.org/1999/xlink" x="0px" y="0px"
	 viewBox="0 0 500 500" enable-background="new 0 0 500 500" xml:space="preserve">
<g>
	<g>
		<defs>
			<rect id="SVGID_1_" x="63.2" y="50" width="373.7" height="400"/>
		</defs>
		<clipPath id="SVGID_2_">
			<use xlink:href="#SVGID_1_"  overflow="visible"/>
		</clipPath>
		<path clip-path="url(#SVGID_2_)" fill="#D6382A" d="M127.4,103.8C159,85.9,190.6,67.9,222.3,50c-4,6.4-8,12.7-12.1,19
			c-0.9,1.5-2.7,2.1-4.1,3c-22.5,12.8-45,25.5-67.5,38.3c-0.2,3.6,0.4,7.1,0.3,10.7c0,22,0,44,0,66c0,1.9,0.2,3.7,0.2,5.6
			c0,20.7,0,41.4,0,62.1c23.9,13.6,48,26.9,71.9,40.4c0.7,0.3,1,1.1,1.4,1.7c2.7,5.5,5.4,11,8.2,16.5c-30.9-17.4-61.8-34.7-92.8-52
			c-0.1-28.8-0.2-57.7-0.2-86.5c0-6.6,0.1-13.2-0.2-19.8C127.5,138,127.4,120.9,127.4,103.8L127.4,103.8z"/>
	</g>
	<path fill="#D6382A" d="M281.4,50.3c17.2,9.3,34.3,19,51.5,28.4c14.6,8.1,29.3,16.2,43.9,24.3c0.2,23.1,0.4,46.2,0.6,69.4
		c0.3,15.2,0.3,30.5,0.4,45.7c0,14.1,0.3,28.2,0.4,42.3c-30.7,17.7-61.5,35.4-92.2,53.1c3.2-5.9,5.6-12.2,9-17.9
		c23.7-13.8,47.6-27.4,71.3-41.1c0.5-0.3,0.7-0.7,0.6-1.3c-0.4-19.3-0.2-38.7-0.7-58c0-25.9-0.4-51.8-0.7-77.7
		c-0.1-2.7,0.4-5.6-0.2-8.1c-22.5-12.6-45.2-25-67.8-37.5c-1.5-0.8-3.2-1.4-4.1-3C289.5,62.7,285.4,56.6,281.4,50.3L281.4,50.3z"/>
	<path fill="#D6382A" d="M252.7,110.3c26,45.8,51.8,91.7,77.7,137.6c-7.9,0-15.9,0.1-23.8,0c-2.5-3.9-4.6-8.2-7-12.2
		c-15.6-27.6-31.1-55.3-46.8-82.9c-17.9,31.7-35.8,63.4-53.7,95.1c-8,0-16,0-23.9,0c20.8-36.8,41.5-73.6,62.3-110.4
		C242.5,128.4,247.7,119.4,252.7,110.3L252.7,110.3z"/>
	<path fill="#D6382A" d="M252.7,179.9c12.9,22.6,25.6,45.3,38.5,67.9c-5.7,0-11.4,0-17,0c-7.2-12.6-14.2-25.3-21.4-37.8
		c-7.1,12.6-14.2,25.2-21.4,37.8c-5.7,0-11.4,0-17,0C227.1,225.2,239.9,202.6,252.7,179.9L252.7,179.9z"/>
	<path fill="#D6382A" d="M86.9,368.2c1.7,0,3.4,0,5.1,0c7.8,12,15.7,23.9,23.6,35.8c-2.6,0-5.1,0.1-7.7,0
		c-6.1-9.7-12.3-19.3-18.4-28.9c-6.2,9.7-12.5,19.3-18.7,28.9c-2.5,0-5,0-7.6,0C71.2,392.1,79,380.1,86.9,368.2L86.9,368.2z"/>
	<path fill="#D6382A" d="M132.9,382.7c7.9,0,15.8,0,23.6,0c1.6,0,3.6-0.3,4.3-1.9c0.3-1.9,0.3-3.8-0.1-5.6c-0.8-1.2-2.3-1.7-3.7-1.7
		c-8.1,0-16.1,0-24.2,0C132.9,376.5,132.8,379.6,132.9,382.7L132.9,382.7z M126.1,368.1c8.9,0.2,17.9,0,26.8,0.1
		c3.8,0,7.9-0.4,11.3,1.7c2,1.1,3.2,3.2,3.5,5.5c0.3,3.3,0.4,7-1.8,9.7c-1.7,2-4.4,2.5-6.8,2.9c2.7,5.4,5.5,10.7,8.4,16.1
		c-2.4,0-4.9,0-7.3,0c-2.7-5.4-5.6-10.6-8.3-16c-6.3,0-12.6,0-18.9,0c0,5.3,0,10.7,0,16c-2.3,0-4.5,0-6.8,0
		C126.1,392,126.1,380.1,126.1,368.1L126.1,368.1z"/>
	<path fill="#D6382A" d="M182.9,370.6c2.4-2,5.6-2.4,8.6-2.4c9.6,0,19.3,0,28.9,0c0,1.8,0,3.5,0,5.3c-9.8,0-19.6,0-29.4,0
		c-1.5,0-3.2,0.6-3.7,2.1c-0.3,1.4-0.2,2.8-0.2,4.2c0.1,5.4-0.1,10.8,0.1,16.2c0,1.9,2.1,2.8,3.8,2.8c9.8,0.1,19.6,0,29.4,0
		c0,1.7,0,3.5,0,5.3c-9.8,0-19.6,0-29.4,0c-3.1,0-6.5-0.6-8.7-2.9c-1.7-1.8-2-4.3-2-6.6c0-5.8,0-11.6,0-17.3
		C180.3,374.7,181,372.2,182.9,370.6L182.9,370.6z"/>
	<path fill="#D6382A" d="M233.4,368.2c2.3,0,4.5,0,6.8,0c0,4.8,0,9.5,0,14.3c9.8,0,19.6,0,29.4,0c-0.1-4.8,0-9.5,0-14.3
		c2.3,0,4.5,0,6.8,0c0,11.9,0,23.9,0,35.8c-2.3,0-4.5,0-6.8,0c0-5.4,0-10.8,0-16.3c-9.8,0-19.6,0-29.3,0c0,5.4,0,10.9,0,16.3
		c-2.3,0-4.5,0-6.8,0C233.4,392.1,233.4,380.1,233.4,368.2L233.4,368.2z"/>
	<path fill="#D6382A" d="M289.9,368.2c12.3-0.1,24.6,0,36.9,0c0,1.7,0,3.5,0,5.2c-10.1,0.1-20.1,0-30.2,0c0,3,0,6,0,9
		c9.6,0,19.1,0,28.7,0c0,1.7,0,3.5,0,5.2c-9.6,0-19.1,0-28.7,0c0,3.7,0,7.3,0,11c10.1,0,20.1,0,30.2,0c0,1.7,0,3.5,0,5.2
		c-12.3,0-24.6,0-36.9,0C289.9,392.1,289.9,380.1,289.9,368.2L289.9,368.2z"/>
	<g>
		<defs>
			<rect id="SVGID_3_" x="63.2" y="50" width="373.7" height="400"/>
		</defs>
		<clipPath id="SVGID_4_">
			<use xlink:href="#SVGID_3_"  overflow="visible"/>
		</clipPath>
		<path clip-path="url(#SVGID_4_)" fill="#D6382A" d="M346.4,373.5c0,3.1,0,6.2,0,9.2c8,0,16.1,0,24.1,0c1.7,0.1,3.7-0.6,4.1-2.5
			c0.2-1.6,0.3-3.3-0.2-4.9c-0.6-1.5-2.4-1.9-3.8-1.9C362.5,373.5,354.4,373.5,346.4,373.5L346.4,373.5z M339.6,368.2
			c10.4,0,20.9,0,31.3,0c3.6,0,7.3,1.2,9.5,4.2c1.2,3.3,1.3,7.1,0.3,10.5c-1.2,3.4-4.9,4.8-8.2,5.1c2.8,5.4,5.6,10.7,8.4,16
			c-2.4,0-4.8,0-7.3,0c-2.8-5.3-5.6-10.6-8.4-16c-6.1,0-12.2,0.1-18.2-0.1c-0.1,0-0.3,0.1-0.4,0.2c-0.1,0-0.2,0.1-0.3,0.1
			c0.1,5.3,0,10.5,0,15.8c-2.3,0-4.5,0-6.8,0C339.6,392.1,339.6,380.1,339.6,368.2L339.6,368.2z"/>
		<path clip-path="url(#SVGID_4_)" fill="#D6382A" d="M395,371.3c2.2-2.5,5.8-3.1,9-3.1c10.3,0,20.5,0,30.8,0c0,1.8,0,3.5,0,5.3
			c-10.3,0-20.5,0-30.8,0c-1.5,0-3.5,0.6-3.9,2.2c-0.2,1.6-0.3,3.2,0.1,4.8c0.8,1.3,2.3,1.7,3.7,1.7c7.3,0.1,14.6-0.1,21.9,0.1
			c3.3,0.1,7.1,0.7,9.3,3.4c2.1,2.6,1.6,6.2,1.6,9.4c0.1,2.6-0.8,5.4-3,7c-2.7,2-6.3,2.1-9.5,2.1c-10,0-19.9,0-29.9,0
			c0-1.8,0-3.5,0-5.3c10.3,0,20.6,0,31,0c1.5,0,3.3-0.2,4.2-1.5c0.7-1.3,0.4-2.9,0.5-4.3c-0.1-1.3,0.2-2.9-0.6-4
			c-1-1.2-2.7-1.4-4.1-1.3c-7.1,0-14.2,0-21.4,0c-3-0.1-6.3-0.6-8.6-2.8c-1.8-1.7-2.3-4.2-2.2-6.6
			C393.1,375.8,393.3,373.1,395,371.3L395,371.3z"/>
	</g>
	<path fill="#D6382A" d="M111.6,449.9c8-12,15.9-23.9,23.8-35.9c1.6,0,3.3,0,4.9,0c7.9,12,15.8,23.9,23.7,35.9c-2.6,0-5.1,0-7.7,0
		c-6.2-9.6-12.3-19.3-18.5-28.9c-6.3,9.7-12.5,19.3-18.8,28.9C116.6,449.9,114.1,449.9,111.6,449.9L111.6,449.9z"/>
	<path fill="#D6382A" d="M181.3,419.3c0,3.1,0,6.2,0,9.4c8,0,16,0,24,0c1.5,0,3.5-0.5,4-2.1c0.3-1.5,0.2-3.1,0.1-4.6
		c-0.4-2.1-2.8-2.6-4.6-2.5C196.9,419.3,189.1,419.3,181.3,419.3L181.3,419.3z M174.5,414c9.8,0,19.5,0,29.3,0
		c3.1,0,6.4,0.1,9.1,1.8c1.7,1.1,2.8,3,3.2,4.9c0.2,3.3,0.6,7.1-1.6,9.8c-1.7,2.2-4.5,2.8-7.1,3.3c2.8,5.3,5.6,10.7,8.5,16.1
		c-2.4,0-4.8,0-7.2,0c-2.8-5.3-5.7-10.7-8.4-16.1c-6.3,0-12.6,0-18.9,0c0,5.4,0,10.7,0,16.1c-2.3,0-4.5,0-6.8,0
		C174.5,438,174.6,426,174.5,414L174.5,414z"/>
	<g>
		<defs>
			<rect id="SVGID_5_" x="63.2" y="50" width="373.7" height="400"/>
		</defs>
		<clipPath id="SVGID_6_">
			<use xlink:href="#SVGID_5_"  overflow="visible"/>
		</clipPath>
		<path clip-path="url(#SVGID_6_)" fill="#D6382A" d="M228.8,414c12.3,0,24.6,0,36.8,0c0,1.7,0,3.5,0,5.2c-10,0-20.1,0-30.1,0
			c0,3,0,6,0,9.1c9.5,0,19.1,0,28.6,0c-0.1,1.8-0.1,3.6-0.1,5.3c-9.5,0-19,0-28.6,0c0,3.7,0,7.3,0,11c10,0,20.1,0,30.1,0
			c0,1.8,0,3.5,0,5.3c-12.3,0-24.6,0-36.9,0c0-6.9,0-13.8,0-20.7C228.8,424.2,228.8,419.1,228.8,414L228.8,414z"/>
		<path clip-path="url(#SVGID_6_)" fill="#D6382A" d="M278.5,414c1.9,0,3.8,0,5.8,0c12,8.9,23.9,17.8,35.8,26.7c0-8.9,0-17.8,0-26.7
			c2,0,3.9,0.1,5.9-0.1c0.1,12,0,24.1,0,36.1c-1.5-0.1-3.3,0.2-4.5-0.9c-12.3-9.1-24.7-18-37.1-27.1c0,9.3,0,18.7,0,28c-2,0-4,0-6,0
			C278.6,438,278.5,426,278.5,414L278.5,414z"/>
	</g>
	<path fill="#D6382A" d="M336.3,449.9c7.9-12,15.9-24,23.8-35.9c1.6,0,3.3,0,4.9,0c7.9,11.9,15.8,23.9,23.7,35.9c-2.5,0-5.1,0-7.6,0
		c-6.2-9.6-12.3-19.3-18.5-28.9c-6.4,9.6-12.5,19.3-18.9,28.9C341.3,449.9,338.8,449.9,336.3,449.9L336.3,449.9z"/>
</g>
</svg>
