<?xml version="1.0" encoding="utf-8"?>
<!-- Generator: Adobe Illustrator 22.0.1, SVG Export Plug-In . SVG Version: 6.00 Build 0)  -->
<svg version="1.1" id="Layer_1" xmlns="http://www.w3.org/2000/svg" xmlns:xlink="http://www.w3.org/1999/xlink" x="0px" y="0px"
	 viewBox="0 0 500 500" enable-background="new 0 0 500 500" xml:space="preserve">
<g>
	<g>
		<defs>
			<rect id="SVGID_17_" y="86.7" width="500" height="326.7"/>
		</defs>
		<clipPath id="SVGID_2_">
			<use xlink:href="#SVGID_17_"  overflow="visible"/>
		</clipPath>
		<path clip-path="url(#SVGID_2_)" fill="#CE2027" d="M362.4,344.6c-0.1-0.5-0.1-1-0.1-1.6l0-0.1c0-0.1,0-0.1,0-0.2
			c0-2.9,1.2-7.1,1.5-8.1l0.1-0.2c1.1-3.1,1.6-4.4,3.1-6.6c2.6-3.8,3.7-5,6.4-6.8c2.4-1.6,5.7-2,6-2l0.1,0c0.4-0.1,1.2-0.1,2-0.1
			c1,0,1.9,0.1,2.3,0.1l0.1,0c0.3,0,2.9,0.3,5.2,2.5c2.5,2.4,3.8,5.6,4.1,9.5c0.1,2,0,3.7-0.5,6.5c-0.9,4.9-2.7,8.2-4,10.1
			c-2.1,3-3.8,5.1-6.6,6.6c-1.4,0.8-3.9,2.2-8.1,2.2c-1.1,0-2.2-0.1-3.4-0.3c-1.3-0.2-3.2-1.4-3.3-1.5c-0.1-0.1-0.8-0.6-1.1-0.9
			C364.1,351.8,362.8,348.8,362.4,344.6 M407.8,317c-7.3-7.2-18.3-8.3-24.2-8.3c-3.1,0-5.2,0.3-5.4,0.3
			c-14.2,2.1-24.7,7.5-31.1,15.9c-6.6,8.6-6.4,17.2-6.2,19.6c1.1,12,8.2,19.2,21.2,21.2v0c0.2,0,4,0.7,9.6,0.7
			c6.7,0,12.8-1,18.1-2.9c5.6-1.9,9.4-5,9.5-5.1l0,0c7.2-5.2,10.3-11,10.4-11.3C414.2,338.8,417.6,326.6,407.8,317L407.8,317
			L407.8,317z M421.2,311.7c-0.3,0.2-1,0.4-1.7,0.6c-0.3,0-0.5,0.1-0.7,0.1c-0.7,0-1.2-0.1-1.6-0.5c-1-1-0.7-2.2-0.4-2.8
			c3.7-5.4,2.8-13.6,1.7-17.5l0-0.1l0,0l0-0.4c-0.2-1-0.3-1.9-0.3-2.8c0-4.3,2.6-6,2.9-6.1c0.1-0.1,0.3-0.2,0.7-0.4l0,0l0.2-0.1
			c0.1,0,0.5-0.2,0.9-0.3c0.2-0.1,0.4-0.1,0.5-0.1c0.1,0,0.2-0.1,0.3-0.1c0.1,0,0.1,0,0.3,0c1.2-0.2,3.2-0.3,5.3,0.5
			c0.1,0.1,0.3,0.1,0.4,0.2c1,0.5,1.9,1.2,2.7,2.2c0.7,0.9,1.2,2,1.5,3.3c0.4,1.7,0.5,3.7,0.2,6c0,0-0.3,2.8-1,4.6l-0.6,1.9
			c-0.6,1.4-0.9,2.2-1.6,3.4c-0.1,0.1-0.2,0.4-0.4,0.7c-0.1,0.2-0.2,0.3-0.3,0.5c-0.6,0.9-0.9,1.3-1.8,2.3c-0.2,0.2-0.4,0.4-0.7,0.7
			l-0.3,0.3c-0.5,0.5-1.2,1-1.9,1.6C423.6,310.7,422.1,311.4,421.2,311.7L421.2,311.7L421.2,311.7z M474.1,347.6
			c0.1,4-2.1,8.3-5.8,11.7c-3.4,3-8.3,5.4-13.7,6.5c-1.3,0.3-6.1,1.2-12,1.2c-4.4,0-8.5-0.5-12-1.5l0,0l-1.1-0.3
			c-3.1-1-5.7-2.3-7.5-4c-0.4-0.4-0.7-0.7-1-1c0,0-0.1-0.1-0.1-0.1c-2.5-3-2.9-6.6-1-10c1.1-2.1,2.9-3.7,4.8-4.5
			c3.4-1.4,6.6-1.4,7.7-1.4l0.2,0c0.1,0,0.3,0,0.4,0c1.4,0,4,0.4,5.1,1.8c0.4,0.5,0.5,1.2,0.4,1.9c-0.1,0.4-0.4,1-1.3,1.4
			c-2.5,1.3-4.2,2.4-4.5,3.6c-0.2,0.6,0,1.2,0.4,1.9c0.9,1.5,3.8,2.3,8.1,2.4h0.2c4.4,0,7.9-1.2,9.6-3.2c0.8-0.9,1.2-2,1.1-3
			c0-0.3-0.1-0.7-0.3-1.1c-1.9-3.8-7.3-8.8-17-15.6c-0.3-0.2-0.6-0.5-0.9-0.7c-5.9-4.2-5.8-7.8-5.7-8.9l0-0.1c0-0.1,0-0.1,0-0.2
			c0-1.5,0.4-2.4,0.5-2.5l0.1-0.2c2.3-7.8,11.3-10.1,16.5-10.8c1.9-0.2,3.4-0.3,4.2-0.3l0.3,0c0.9,0,1.7,0,2.5,0
			c4.3,0,7.5,0.4,8.9,0.8c0.8,0.2,1.6,0.3,2.2,0.3c2,0,2.8-1,3.5-2l0.1-0.2c0.5-0.7,1.6-1.6,3.1-1.5l0.2,0c1.6,0.1,2.4,0.9,2.3,4.5
			c-0.1,2.5-0.8,10.3-0.9,11.8c-0.1,1.4-0.5,2.3-1,2.7c-0.3,0.2-1,0.6-2,0.5c-1.4-0.1-2.6-2.1-2.8-2.6l0,0
			c-0.8-2.1-3.9-4.5-10.1-4.5l-0.4,0c-3.2,0.1-4.3,0.6-4.7,1.1c-0.2,0.3-0.2,0.5-0.2,0.9l0,0.1c0.1,1,1.9,2.2,3.3,3.1
			c0.5,0.4,1.1,0.7,1.5,1c3.1,2.3,5.6,4.1,7.6,5.5c2.2,1.6,3.8,2.7,5.1,3.8C470.1,337.7,474,340.8,474.1,347.6 M287.5,365.7
			L287.5,365.7L287.5,365.7L287.5,365.7L287.5,365.7z M281,339.3c0.1-1.5,0.3-2.8,0.6-4.2l0-0.2c0.4-1.6,1.1-3.1,2.1-4.6
			c6.1-10.4,17.6-11,17.7-11c1-0.1,1.9-0.2,2.8-0.2c5.7,0,7.2,2.4,7.6,3.6c0,0.3,0,0.6,0,0.8c0,1.1-1.2,11.6-2,16.1
			c-0.3,1.8-1.1,5.2-2.6,8c-0.6,1-1.2,1.9-1.8,2.5c-3.7,3.8-6.3,5.2-10.9,5.8c-0.5,0.1-1.1,0.1-1.8,0.1c-2.3,0-4.4-0.8-6.6-2.5
			C283.5,351.4,280.6,346.5,281,339.3 M335,350.8c-0.4-0.1-0.7-0.2-1.1-0.2h-0.1c-1.2,0-2.1,0.6-2.9,1.1c-0.7,0.5-1.4,0.8-2.2,0.8
			c-0.2,0-0.3-0.1-0.4-0.2c-0.9-1.2-0.2-5.6,0-7.2l0.1-0.5c0.4-2.4,0.8-5.3,1.3-9.1c0.3-1.9,0.6-3.8,0.9-5.6
			c0.7-4.6,2.5-14,3.6-18.9c2.9-13.3,6.2-22.1,7.8-26.3c0.8-2,1-2.7,1-3.1c0-0.7-0.1-2.7-1.8-3.6c-0.3-0.2-0.7-0.2-1.1-0.2
			c-2,0-5,2-6.6,3.2c-12.7,9.3-17.8,25.6-19.7,31.7c-0.2-0.1-0.4-0.2-0.6-0.3c-0.2-0.1-0.4-0.2-0.7-0.3c-5.1-2.3-12-2.7-12.2-2.8
			c0,0-1-0.1-2.6-0.1h-0.2c-1.3,0-2.6,0-3.9,0.2c-6.6,0.4-11.2,2-12.4,2.4c-1.4,0.5-3.2,1.2-4.6,1.9c-7.6,3.7-13.2,9.3-16.5,16.9
			c-0.7,1.8-6.4,18.2,6.5,28.7c0.2,0.2,0.5,0.4,0.7,0.6l0.3,0.2c0.4,0.3,0.8,0.6,1.2,0.8l0.4,0.3c0.2,0.1,0.3,0.2,0.5,0.3
			c1.5,0.9,3.1,1.8,4.9,2.5l0.1,0h0c1.4,0.6,3.5,1.2,5.9,1.7c1.7,0.4,5.3,0.7,6.7,0.7h0.1c0.1,0,0.2,0,0.3,0
			c8.4-0.3,13.8-2.3,17-4.1v0l0.9-0.5c1.9-1.2,3.2-2.4,3.9-3.2c0.2,0.3,0.3,0.5,0.4,0.7l0,0c1.1,1.9,4.9,5.6,11.4,5.7c1,0,2,0,3-0.2
			c3.7-0.5,10.3-2.3,12.3-8.9c0.3-0.9,0.6-2.5-0.1-3.7C336.3,351.4,335.8,351,335,350.8 M92.2,295.9L80.9,361h0
			c-0.1,0.4-0.4,2.5-0.4,2.5c-0.3,1.7-2.1,2.8-3.6,2.8l-0.1,0c-3.6,0-7.6-5.3-7.8-5.5l-0.4-0.6c-4.4-5.7-29-43.6-33.7-50.9l-6.9,40
			c0,0.1-1.3,6.1,2,7.5c5.2,2.3,5.2,4.1,4.7,5.7c-0.2,0.7-0.7,1.7-2.6,2c-0.1,0-0.3,0.1-0.5,0.1c-0.1,0-0.1,0-0.1,0l-0.1,0
			c-0.5,0-1-0.1-1.5-0.1c-0.5-0.1-0.9-0.1-1.4-0.2l-0.4,0c-1.3-0.1-5.1-0.4-10.7-0.4c-3.8,0-7.7,0.3-10.3,0.5
			c-1.2,0.1-2.2,0.2-2.8,0.2l-0.1,0c0,0-0.2,0-0.6,0c-0.7,0-2-0.1-2.8-1.1c-0.7-0.7-0.9-1.8-0.8-3.1c0.2-1.9,2.5-2.5,4.8-3l0.2,0
			c4.8-1.2,6.4-6.8,6.9-9.1c0-0.1,0-0.1,0-0.2c0.9-5.4,3.1-18.7,5-30.4c1.8-10.9,3.3-20.4,3.7-22.5c0.7-3.7-0.5-6.3-3.4-8.2l-0.1,0
			c-1.4-0.7-2-0.9-3.3-1.8c-0.9-0.6-1.8-2-1.7-3.1c0.1-1.2,0.9-2.2,2-2.5l0,0l0.2,0c0.1,0,0.1,0,0.2,0l0.1,0c0,0,1-0.2,2.5-0.3h0
			l0,0h0v0l0.1,0c2-0.2,4.1-0.3,6.1-0.3c0.7,0,1.3,0,2,0c0.6,0,1.1,0,1.6,0h0.2c0.6,0,1.6,0,2.9,0.2c0.6,0.1,0.8,0.1,0.8,0.1v0
			c9.2,1.5,17.5,9.2,27,25.1c3.5,5.8,7.8,12.7,11.2,18.3c1.2,2,2.3,3.7,3.2,5.2l5.5-32.6c0-0.1,0.9-6.8-3.7-8.7
			c-2.7-1.1-4.2-2.9-4-4.6c0.2-2,1.8-3.1,4.1-2.8l0.1,0c0.3,0,0.6,0.1,0.9,0.1c0.5,0.1,0.9,0.1,1.4,0.2l0.4,0
			c1.3,0.1,5.1,0.4,10.7,0.4c3.8,0,7.7-0.3,10.3-0.5c1.5-0.1,2.5-0.2,3.1-0.2c0.2,0,0.4,0,0.5,0h0c1,0,2,0.6,2.3,1.6l0,0l0.1,0.3
			c0.5,2.7-1.4,4.7-5.7,5.8c-5.4,1.4-6.3,8.7-6.3,8.7L92.2,295.9L92.2,295.9L92.2,295.9z M252.6,334.7c0,0.2,0,0.3,0,0.3
			c0,1.7-0.6,9.1-4.6,15c-4.6,6.7-10.6,10.8-14.8,13c-0.4,0.2-0.9,0.5-1.3,0.7c-2.7,1.4-5.4,2.9-8.7,3.6c-0.2,0-0.4,0-0.6,0
			c-0.2,0-0.8,0-1.2-0.2l-0.1,0c-0.6-0.3-1.5-0.6-1.5-1.9c0-0.3,0.1-0.7,0.8-2c2-2.7,8.5-12.2,10.2-26.1c0.9-7.7,0.1-13.1-2.5-15.9
			c-1.7-1.8-4.1-2.7-7.5-2.7c-0.4,0-0.9,0-1.3,0c-8.9,0.6-13.1,9-14,13.4c-0.9,5.1-2.2,12.4-3,17.7c-0.2,1.7-0.3,5.8,2.6,6.8
			c2.8,1,4.1,2.7,3.7,4.8c-0.3,1.6-1.4,2.5-3,2.6c-2.3,0.1-4.5,0-6.6-0.1c-1.3-0.1-2.5-0.1-3.7-0.2c-2.3,0-4.6-0.1-6.9-0.1
			c-1.1,0-2.1,0-3.1,0c-0.3,0-0.7,0-1,0c-0.6,0-1,0-1.4,0c-0.4,0-0.8,0-1.4,0c-0.3,0-0.6,0-1.1,0c-1,0-2.4,0.1-3.8,0
			c-1.6,0-2.3-0.2-2.7-0.6c-0.8-0.6-0.9-1.7-0.9-2.2c0-1.1,0.4-2.1,1.1-2.9c0.8-0.9,1.8-1.1,2.7-1.4c1.7-0.5,3.6-0.9,4.7-5.5
			c0.7-4.1,1.6-9.8,2.5-15.4c0.8-5.3,1.6-10.4,2.1-13.2c0-0.1,0-0.3,0-0.4c0-0.2,0.1-0.5,0-0.5c-0.1-0.1-0.4-0.2-1.1-0.1
			c-0.4,0-5.6,0.3-6.5-2.6c-1.2-3.5,1.2-4.4,2.4-4.8l0.3-0.1c1.3-0.5,14.2-4.2,16.8-4.4c0.3,0,0.6-0.1,0.9-0.1
			c0.5-0.1,1-0.1,1.5-0.1c0.8,0,1.4,0.2,1.8,0.6c2,1.6,1.9,4,1.8,6c3.4-3.2,8.7-6.6,16.2-7.2v0c0.5-0.1,1.5-0.2,3.6-0.2
			c0.2,0,0.4,0,0.5,0c2.5,0.1,4.8,0.4,5.5,0.5c7.5,1,12.8,3.9,17.2,9.3C249.6,321.2,252.7,326.6,252.6,334.7 M144.8,323.5
			c0,1.1-1.1,11.4-2,15.8c-0.4,2.2-1.7,7.7-4.5,10.6c-3.6,3.7-6.3,5.1-10.8,5.7c-0.5,0.1-1.1,0.1-1.7,0.1c-2.2,0-4.4-0.8-6.5-2.5
			c-2.7-2.1-5.5-7-5.2-14.1c0.1-1.5,0.3-2.8,0.6-4.1l0-0.2c0.4-1.6,1.1-3.1,2.1-4.6c6-10.3,17.4-10.9,17.5-10.9
			c1-0.1,1.9-0.2,2.8-0.2C144.6,319.2,144.8,323.3,144.8,323.5 M167.4,350.5c-0.4-0.1-0.7-0.2-1.1-0.2c-1.2,0-2.1,0.6-2.9,1.1
			c-0.7,0.5-1.3,0.8-2.1,0.8l-0.1,0c-0.2,0-0.3-0.1-0.4-0.2c-0.9-1.1-0.2-5.5,0-7.1l0.1-0.4c0.7-4.2,1.4-9.2,1.9-13.4l0,0l0.3-2.3
			c0.3-2.5,1-7.2,1-8.3c0.1-3.6-0.8-4.4-1.8-5.3l-0.3-0.3c-1.5-1.5-3.6-3.3-7.3-5.5c-0.9-0.5-2.4-1.4-3.6-1.2c-1,0.1-2,1.2-2.6,2.1
			c-0.2,0.4-0.5,1.1-0.9,2.1l-0.1,0.2c-0.1,0.1-0.2,0.2-0.3,0.2c-0.2,0.2-0.7-0.1-1.2-0.4c-0.2-0.1-0.4-0.2-0.7-0.3
			c-5.1-2.3-11.8-2.7-12.1-2.7c0,0-1-0.1-2.5-0.1c-1.3,0-2.6,0.1-3.9,0.2c-6.5,0.4-11,1.9-12.2,2.4c-1.4,0.5-3.1,1.2-4.5,1.9
			c-7.5,3.6-13,9.2-16.3,16.7c-0.7,1.8-6.4,18,6.4,28.4c0.2,0.2,0.5,0.4,0.7,0.6l0.3,0.2c0.4,0.3,0.8,0.6,1.2,0.8l0.4,0.2
			c0.2,0.1,0.3,0.2,0.5,0.3c1.5,0.9,3.1,1.7,4.8,2.4l1,0.3l0-0.1c2.1,0.8,3.8,1.2,4.7,1.4l0.3,0.1c1.8,0.5,5.4,0.7,6.7,0.7
			c0.1,0,0.2,0,0.3,0c8.3-0.3,13.6-2.2,16.8-4.1v0l0.9-0.5c1.9-1.2,3.2-2.4,3.9-3.2l0.1,0.2l0-0.1c0.1,0.3,0.2,0.5,0.3,0.6l0,0
			c1.1,2,5,5.6,11.6,5.6c0.8,0,1.6-0.1,2.5-0.2c3.7-0.5,10.2-2.2,12.2-8.8c0.3-0.9,0.6-2.5-0.1-3.7
			C168.7,351.1,168.2,350.7,167.4,350.5"/>
	</g>
	<path fill="#CE2027" d="M490.6,348.5h-2.5v3.5h2.5c1.1,0,1.9-0.7,1.9-1.8C492.5,349.2,491.7,348.5,490.6,348.5 M492.6,358.2
		l-2.4-4.7h-2.1v4.7h-1.7V347h4.4c2.1,0,3.5,1.4,3.5,3.3c0,1.6-1,2.6-2.2,3l2.6,5H492.6L492.6,358.2z M490,344.3
		c-4.7,0-8.3,3.7-8.3,8.3c0,4.7,3.7,8.4,8.3,8.4c4.7,0,8.3-3.7,8.3-8.4C498.3,348,494.7,344.3,490,344.3 M490,362.7
		c-5.6,0-10-4.4-10-10.1c0-5.6,4.4-10,10-10s10,4.4,10,10C500,358.3,495.6,362.7,490,362.7"/>
	<path fill="#CE2027" d="M144.8,323.5c0,1.1-1.1,11.4-2,15.8c-0.4,2.2-1.7,7.7-4.5,10.6c-3.6,3.7-6.3,5.1-10.8,5.7
		c-0.5,0.1-1.1,0.1-1.7,0.1c-2.2,0-4.4-0.8-6.5-2.5c-2.7-2.1-5.5-7-5.2-14.1c0.1-1.5,0.3-2.8,0.6-4.1l0-0.2c0.4-1.6,1.1-3.1,2.1-4.6
		c6-10.3,17.4-10.9,17.5-10.9c1-0.1,1.9-0.2,2.8-0.2C144.6,319.2,144.8,323.4,144.8,323.5 M167.4,350.5c-0.4-0.1-0.7-0.2-1.1-0.2
		c-1.2,0-2.1,0.6-2.9,1.1c-0.7,0.5-1.3,0.8-2.1,0.8l-0.1,0c-0.2,0-0.3-0.1-0.4-0.2c-0.9-1.1-0.2-5.5,0-7.1l0.1-0.5
		c0.7-4.2,1.4-9.2,1.9-13.4l0,0l0.3-2.3c0.3-2.5,1-7.2,1-8.3c0.1-3.6-0.8-4.4-1.8-5.3l-0.3-0.3c-1.5-1.5-3.6-3.3-7.3-5.5
		c-0.9-0.5-2.4-1.4-3.6-1.2c-1,0.1-2,1.2-2.6,2.1c-0.2,0.3-0.5,1.1-0.9,2.1l-0.1,0.2c-0.1,0.1-0.2,0.2-0.3,0.2
		c-0.2,0.2-0.7-0.1-1.2-0.4c-0.2-0.1-0.4-0.2-0.7-0.3c-5.1-2.3-11.8-2.7-12.1-2.7c0,0-1-0.1-2.5-0.1c-1.3,0-2.6,0-3.9,0.2
		c-6.5,0.4-11,1.9-12.2,2.4c-1.4,0.5-3.1,1.2-4.5,1.9c-7.5,3.6-13,9.2-16.3,16.7c-0.7,1.8-6.4,18,6.4,28.4c0.2,0.2,0.5,0.4,0.7,0.6
		l0.3,0.2c0.4,0.3,0.8,0.6,1.2,0.8l0.4,0.3c0.2,0.1,0.3,0.2,0.5,0.3c1.5,0.9,3.1,1.7,4.8,2.4l1,0.3l0-0.1c2.1,0.8,3.8,1.2,4.7,1.4
		l0.3,0.1c1.8,0.5,5.4,0.7,6.7,0.7c0.1,0,0.2,0,0.3,0c8.3-0.3,13.6-2.3,16.8-4.1v0l0.9-0.5c1.9-1.2,3.2-2.4,3.9-3.2l0.1,0.2l0-0.1
		c0.1,0.3,0.2,0.5,0.3,0.6l0,0c1.1,2,5,5.6,11.6,5.6c0.8,0,1.6-0.1,2.5-0.2c3.7-0.5,10.2-2.2,12.2-8.9c0.3-0.9,0.6-2.5-0.1-3.7
		C168.7,351.1,168.2,350.7,167.4,350.5"/>
	<g>
		<defs>
			<rect id="SVGID_19_" y="86.7" width="500" height="326.7"/>
		</defs>
		<clipPath id="SVGID_4_">
			<use xlink:href="#SVGID_19_"  overflow="visible"/>
		</clipPath>
		<path clip-path="url(#SVGID_4_)" fill="#CE2027" d="M247.1,318c-4.4-5.4-9.7-8.2-17.2-9.3c-0.7-0.1-3-0.4-5.5-0.5
			c-0.2,0-0.4,0-0.5,0c-2.1,0-3.1,0.1-3.6,0.2v0c-7.5,0.6-12.8,4.1-16.2,7.2c0.1-2,0.2-4.4-1.8-6c-0.5-0.4-1-0.6-1.8-0.6
			c-0.5,0-1,0.1-1.5,0.1c-0.3,0-0.6,0.1-0.9,0.1c-2.6,0.2-15.5,3.9-16.8,4.4l-0.3,0.1c-1.2,0.4-3.7,1.3-2.4,4.8
			c1,2.8,6.1,2.6,6.5,2.6c0.7-0.1,1,0,1.1,0.1c0.1,0.1,0,0.4,0,0.6c0,0.2,0,0.3,0,0.4c-0.5,2.8-1.3,7.8-2.1,13.1
			c-0.9,5.6-1.8,11.3-2.5,15.4c-1.1,4.5-2.9,5-4.7,5.5c-0.9,0.2-1.9,0.5-2.7,1.4c-0.7,0.8-1.1,1.8-1.1,2.9c0,0.5,0.1,1.6,0.9,2.2
			c0.5,0.4,1.2,0.6,2.7,0.6c1.4,0.1,2.8,0,3.8,0c0.4,0,0.8,0,1.1,0c0.6,0,1,0,1.4,0c0.4,0,0.8,0,1.4,0c0.3,0,0.6,0,1,0
			c0.9,0,2,0,3.1,0c2.3,0,4.6,0,6.9,0.1c1.2,0,2.4,0.1,3.7,0.2c2.1,0.1,4.3,0.2,6.6,0.1c1.6-0.1,2.7-1,3.1-2.6
			c0.4-2.1-0.9-3.8-3.7-4.8c-2.9-1-2.8-5.1-2.6-6.8c0.9-5.3,2.1-12.6,3-17.7c1-4.4,5.1-12.8,14-13.4c0.5,0,0.9,0,1.4,0
			c3.4,0,5.8,0.9,7.5,2.7c2.6,2.8,3.4,8.2,2.5,15.9c-1.7,13.9-8.2,23.5-10.2,26.1c-0.7,1.2-0.8,1.7-0.8,2c0,1.3,0.9,1.7,1.5,1.9
			l0.1,0c0.4,0.2,1.1,0.2,1.2,0.2c0.2,0,0.4,0,0.6,0c3.3-0.6,6.1-2.1,8.7-3.6c0.4-0.2,0.9-0.5,1.3-0.7c4.2-2.2,10.2-6.3,14.8-13
			c4-5.9,4.7-13.4,4.6-15c0-0.1,0-0.2,0-0.3C252.7,326.6,249.6,321.2,247.1,318"/>
		<path clip-path="url(#SVGID_4_)" fill="#CE2027" d="M92.2,295.9l0-0.3c0-0.1,0.9-7.4,6.3-8.7c4.3-1.1,6.2-3,5.7-5.8l-0.1-0.3l0,0
			c-0.4-1-1.3-1.6-2.3-1.6h0c-0.1,0-0.3,0-0.5,0c-0.6,0-1.7,0.1-3.1,0.2c-2.6,0.2-6.5,0.5-10.3,0.5c-5.6,0-9.5-0.3-10.7-0.4l-0.4,0
			c-0.5,0-1-0.1-1.4-0.2c-0.3,0-0.6-0.1-0.9-0.1l-0.1,0c-2.3-0.3-3.9,0.8-4.2,2.8c-0.2,1.8,1.3,3.6,4,4.6c4.7,1.9,3.7,8.7,3.7,8.7
			L72.4,328c-0.9-1.4-2-3.2-3.2-5.2c-3.5-5.6-7.7-12.5-11.2-18.3c-9.5-15.9-17.8-23.6-27-25.1c0,0-0.3-0.1-0.8-0.1
			c-1.3-0.2-2.3-0.2-2.9-0.2H27c-0.5,0-1,0-1.6,0c-0.7,0-1.4,0-2,0c-2,0-4.1,0.1-6.1,0.3l-0.1,0v0h0l0,0l0,0
			c-1.6,0.2-2.5,0.3-2.5,0.3l-0.1,0c0,0-0.1,0-0.2,0l-0.2,0v0c-1.1,0.3-2,1.3-2,2.5c-0.1,1.1,0.9,2.5,1.7,3.1
			c1.3,0.8,1.9,1.1,3.3,1.8l0.1,0c2.9,1.8,4,4.5,3.4,8.2c-0.4,2.1-1.9,11.6-3.7,22.5c-1.9,11.7-4.1,25-5,30.4c0,0,0,0.1,0,0.2
			c-0.5,2.3-2.1,7.9-6.9,9.1l-0.2,0c-2.3,0.6-4.7,1.1-4.8,3c-0.1,1.3,0.1,2.4,0.8,3.1c0.9,0.9,2.1,1.1,2.8,1.1c0.4,0,0.6,0,0.6,0
			l0.1,0c0.6,0,1.6-0.1,2.8-0.2c2.6-0.2,6.5-0.5,10.3-0.5c5.6,0,9.4,0.3,10.7,0.4l0.4,0c0.5,0,1,0.1,1.4,0.2c0.5,0.1,1,0.1,1.5,0.1
			l0.1,0c0,0,0.1,0,0.1,0c0.2,0,0.3,0,0.5-0.1c1.9-0.3,2.4-1.3,2.6-2c0.4-1.6,0.5-3.4-4.7-5.7c-3.3-1.5-2.1-7.4-2-7.5l6.9-40
			c4.7,7.3,29.3,45.2,33.7,50.9l0.4,0.6c0.2,0.2,4.2,5.6,7.8,5.6l0.1,0c1.4,0,3.2-1.1,3.5-2.8c0,0,0.4-2.1,0.4-2.5h0L92.2,295.9
			L92.2,295.9L92.2,295.9z"/>
	</g>
	<path fill="#CE2027" d="M287.5,365.7L287.5,365.7L287.5,365.7z M281,339.4c0.1-1.5,0.3-2.8,0.6-4.2l0-0.2c0.4-1.6,1.1-3.1,2.1-4.6
		c6.1-10.4,17.6-11,17.7-11c1-0.1,1.9-0.2,2.8-0.2c5.7,0,7.2,2.4,7.6,3.6c0,0.3,0,0.6,0,0.8c0,1.1-1.2,11.6-2,16.1
		c-0.3,1.8-1.1,5.2-2.6,8c-0.6,1-1.2,1.9-1.8,2.5c-3.7,3.8-6.3,5.2-10.9,5.8c-0.5,0.1-1.1,0.1-1.8,0.1c-2.3,0-4.4-0.8-6.6-2.5
		C283.5,351.4,280.6,346.6,281,339.4 M335,350.8c-0.4-0.1-0.7-0.2-1.1-0.2h-0.1c-1.2,0-2.1,0.6-2.9,1.1c-0.7,0.5-1.4,0.8-2.2,0.8
		c-0.2,0-0.3-0.1-0.4-0.2c-0.9-1.2-0.2-5.6,0-7.2l0.1-0.5c0.4-2.4,0.8-5.3,1.3-9.1c0.3-1.9,0.6-3.8,0.9-5.6c0.7-4.6,2.5-14,3.6-18.9
		c2.9-13.3,6.2-22.1,7.8-26.3c0.8-2,1-2.7,1-3.1c0-0.7-0.1-2.7-1.8-3.6c-0.3-0.2-0.7-0.2-1.1-0.2c-2,0-5,2-6.6,3.2
		c-12.7,9.3-17.8,25.6-19.7,31.7c-0.2-0.1-0.4-0.2-0.6-0.3c-0.2-0.1-0.4-0.2-0.7-0.3c-5.1-2.3-12-2.7-12.2-2.8c0,0-1-0.1-2.6-0.1
		h-0.2c-1.3,0-2.6,0.1-3.9,0.2c-6.6,0.4-11.1,2-12.4,2.4c-1.4,0.5-3.2,1.2-4.6,1.9c-7.6,3.7-13.2,9.3-16.5,16.9
		c-0.7,1.8-6.4,18.2,6.5,28.7c0.2,0.2,0.5,0.4,0.7,0.6l0.3,0.2c0.4,0.3,0.8,0.6,1.2,0.8l0.4,0.3c0.2,0.1,0.3,0.2,0.5,0.3
		c1.5,0.9,3.1,1.8,4.9,2.5l0.1,0h0c1.4,0.6,3.5,1.2,5.9,1.7c1.7,0.4,5.3,0.7,6.7,0.7h0.1c0.1,0,0.2,0,0.3,0c8.4-0.3,13.8-2.3,17-4.1
		v0l0.9-0.5c1.9-1.2,3.2-2.4,3.9-3.2c0.1,0.3,0.3,0.5,0.3,0.7l0,0c1.1,1.9,4.9,5.6,11.4,5.7c1,0,2,0,3-0.2
		c3.7-0.5,10.3-2.3,12.3-8.9c0.3-0.9,0.6-2.5-0.1-3.7C336.3,351.4,335.8,351,335,350.8"/>
	<path fill="#CE2027" d="M468,336c-1.3-1.1-2.9-2.2-5.1-3.8c-2-1.4-4.4-3.2-7.5-5.5c-0.5-0.3-1-0.7-1.5-1.1c-1.4-1-3.2-2.2-3.3-3.1
		l0-0.1c0-0.4-0.1-0.7,0.2-0.9c0.4-0.5,1.5-1,4.7-1.1l0.4,0c6.2,0,9.3,2.4,10.1,4.5l0,0c0.2,0.5,1.4,2.5,2.8,2.6
		c1,0.1,1.7-0.3,2-0.5c0.6-0.4,0.9-1.3,1-2.7c0.2-1.5,0.8-9.3,1-11.8c0.2-3.6-0.7-4.3-2.3-4.5l-0.2,0c-1.5-0.1-2.6,0.7-3.1,1.5
		l-0.1,0.2c-0.7,0.9-1.4,2-3.5,2c-0.6,0-1.4-0.1-2.2-0.3c-1.4-0.4-4.6-0.8-8.9-0.8c-0.8,0-1.7,0-2.5,0.1l-0.3,0
		c-0.8,0-2.3,0.1-4.2,0.3c-5.2,0.7-14.2,3-16.5,10.8l-0.1,0.2c0,0-0.5,1-0.5,2.5c0,0,0,0.1,0,0.2l0,0.1c-0.1,1.2-0.2,4.7,5.7,8.9
		c0.3,0.2,0.6,0.5,0.9,0.7c9.6,6.8,15,11.8,17,15.6c0.2,0.5,0.3,0.8,0.3,1.1c0.1,1.1-0.3,2.1-1.1,3c-1.8,2-5.3,3.2-9.6,3.2h-0.2
		c-4.3,0-7.3-0.9-8.1-2.4c-0.4-0.7-0.6-1.4-0.4-1.9c0.3-1.3,2-2.4,4.5-3.7c0.9-0.5,1.2-1,1.3-1.4c0.1-0.7,0-1.3-0.4-1.9
		c-1.1-1.4-3.7-1.8-5.1-1.8c-0.1,0-0.3,0-0.4,0l-0.2,0c-1.1,0-4.3,0.1-7.7,1.4c-2,0.8-3.7,2.4-4.8,4.5c-1.8,3.4-1.5,7,1,10
		c0,0.1,0.1,0.1,0.1,0.2c0.2,0.3,0.6,0.6,1,1c1.8,1.7,4.4,3,7.5,4l1.1,0.3l0,0c3.5,1,7.6,1.5,12,1.5c5.9,0,10.7-0.9,12-1.2
		c5.4-1.2,10.3-3.5,13.7-6.5c3.7-3.3,5.9-7.7,5.8-11.7C474,340.8,470.1,337.7,468,336"/>
	<path fill="#CE2027" d="M421.2,311.8c0.9-0.4,2.4-1.1,4.2-2.4c0.8-0.6,1.4-1.1,1.9-1.6l0.3-0.3c0.3-0.3,0.5-0.5,0.7-0.7
		c0.9-0.9,1.2-1.3,1.8-2.3c0.1-0.2,0.2-0.3,0.3-0.5c0.2-0.3,0.4-0.6,0.4-0.7c0.7-1.2,1.1-2,1.6-3.4l0.6-1.9c0.6-1.8,1-4.6,1-4.6
		c0.3-2.3,0.2-4.3-0.2-6c-0.3-1.3-0.8-2.4-1.5-3.3c-0.8-0.9-1.7-1.7-2.7-2.2c-0.1-0.1-0.3-0.1-0.4-0.2c-2.1-0.9-4.1-0.8-5.3-0.5
		c-0.2,0-0.2,0-0.3,0c-0.1,0-0.2,0.1-0.3,0.1c-0.1,0-0.3,0.1-0.5,0.2c-0.4,0.1-0.8,0.3-0.9,0.3l-0.2,0.1l0,0
		c-0.4,0.2-0.6,0.3-0.7,0.4c-0.3,0.2-2.9,1.8-2.9,6.1c0,0.9,0.1,1.8,0.3,2.8l0,0.4l0,0l0,0.1c1.1,4,1.9,12.1-1.7,17.5
		c-0.4,0.6-0.7,1.8,0.4,2.8c0.4,0.4,0.9,0.5,1.6,0.5c0.2,0,0.4,0,0.7-0.1C420.1,312.2,420.8,311.9,421.2,311.8L421.2,311.8
		L421.2,311.8z"/>
	<g>
		<defs>
			<rect id="SVGID_21_" y="86.7" width="500" height="326.7"/>
		</defs>
		<clipPath id="SVGID_6_">
			<use xlink:href="#SVGID_21_"  overflow="visible"/>
		</clipPath>
		<path clip-path="url(#SVGID_6_)" fill="#CE2027" d="M362.4,344.6c-0.1-0.5-0.1-1-0.1-1.6l0-0.1c0-0.1,0-0.1,0-0.2
			c0-2.9,1.2-7.1,1.5-8.1l0.1-0.2c1.1-3.1,1.6-4.4,3.1-6.6c2.6-3.7,3.7-5,6.4-6.8c2.4-1.6,5.7-2,6-2l0.1,0c0.4-0.1,1.2-0.1,2-0.1
			c1,0,1.9,0.1,2.3,0.1l0.1,0c0.3,0,2.9,0.3,5.2,2.5c2.5,2.4,3.8,5.6,4.1,9.5c0.1,2,0,3.7-0.5,6.5c-0.9,4.9-2.6,8.2-4,10.1
			c-2.1,3-3.8,5-6.6,6.6c-1.4,0.8-3.9,2.2-8.1,2.2c-1.1,0-2.2-0.1-3.4-0.3c-1.3-0.2-3.2-1.4-3.3-1.5c-0.1-0.1-0.8-0.6-1.1-0.9
			C364.1,351.8,362.8,348.8,362.4,344.6 M407.8,317.1c-7.3-7.2-18.3-8.3-24.2-8.3c-3.1,0-5.2,0.3-5.4,0.3
			c-14.2,2.1-24.7,7.5-31.1,15.9c-6.6,8.6-6.4,17.2-6.2,19.6c1.1,12,8.2,19.2,21.2,21.2v0c0.2,0,4,0.7,9.6,0.7
			c6.7,0,12.8-1,18.1-2.9c5.6-1.9,9.4-5,9.5-5.1l0,0c7.2-5.2,10.3-11,10.4-11.3C414.2,338.8,417.6,326.6,407.8,317.1L407.8,317.1
			L407.8,317.1z"/>
		<path clip-path="url(#SVGID_6_)" fill="#191A18" d="M255.8,139.5c-1.5,2.3-4.1,4.7-5.9,6.2c-0.1-4.9-0.9-8.5-2.2-11.2
			C252.4,136.2,255.8,139.5,255.8,139.5 M248.1,186.1c0.2-4.7,0.8-15.7,1.4-24.5c1,1.3,2.6,2.5,4.8,2c1.1-0.2,3.6-0.9,3.8-4.5
			c0.1-2.1-1.4-4.8-5.7-9.2c-0.2-0.3-0.6-0.5-1-0.8c2.4-2.3,6.2-6.1,8.1-9.5l0.5-0.8l-0.7-0.6c-3.9-3.3-9.3-6.4-11.8-7.7
			c-1.2-0.7-2.2-1.2-3.1-1.6c0.2-0.1,0.3-0.2,0.5-0.4c2.3-2.4,12-13.4,5.9-28.2c-6-14.6-21.3-14.6-29.4-12.7c-2.9,0.8-5.7,2.3-7,3
			c-5.3,3.5-9.3,8.8-10.6,15.1c-1.4,6.8,0.8,14.5,5.9,19.3c1,1,1.4,1.2,1.6,1.1c-0.1,0.1,0.2-1.3,2.4-3.3c0.7-0.6,4.6-4,10-2.2
			c3,1,4.4,2.6,5.4,4.8c0.5,1.1,0.7,2.4,0.7,3.6c-0.1,0-0.2,0.1-0.3,0.1c-4,2.4-8.3,8.2-7.3,21.5c1.2,15.5,2.3,28.2,3,35.4
			c-2.4,0.1-4.6,0.3-6.6,0.6c3.3-14,2.6-30.4-13-40c-14.8-9.2-35.6-6.3-48.7,4.8c-13.1,11.1-16.1,30.3-9,45.6c0.6,1.4,1.3,2.7,2.1,4
			c2.3,3.8,5.1,7.3,8.7,9.9c3.6,2.7,7.8,4.6,12.1,6c2.7,0.8,5.4,1.5,8.2,2c0.3,0.1,0.6-0.3,0.4-0.6c-0.2-0.3-0.3-0.6-0.4-0.7
			c-0.8-1.4-1.3-2.9-1.6-4.5c-1-5.6,0.8-12.2,5.5-15.7c4.4-3.3,10.7-3.3,15.1,0c0.8,0.6,1.4,1.2,2,2c-2.6,5.6-2.5,11.8-1.8,15.8
			c0.5,2.8,1.1,3.7,1.4,4.8c2.4,7.4,8.9,15.2,11.1,18c3.4,4.3,13.1,14.4,16.6,18.1v15c-1.2,0.8-9.6,6-13.1,13.7
			c-0.4,0.8,0.3,1.7,1.3,1.5c6.3-0.9,14.2-1.5,21.8-1.5c7.7,0,14.8,0.6,21.1,1.5c0.9,0.1,1.6-0.7,1.2-1.6
			c-3.6-7.7-11.9-13-13.1-13.7v-15c3.3-3.6,12.4-13.8,15.5-18.2c2.1-2.9,10.8-14.1,12.4-22.9C276.1,206.4,274.6,187.1,248.1,186.1"
			/>
	</g>
	<path fill="#CE2027" d="M233.8,126.7l0,0.2c0,0.2,0,0.4,0,0.5l0,0.1c0,0,0,0,0,0c2.3-0.4,4.5-0.4,6.4-0.1l0,0
		c4-3.1,6.8-8.1,7.8-13.7c1.1-6.3-0.3-12.3-4-16.3c-3.9-4.3-8.9-6.5-15-6.5c-0.3,0-0.6,0-0.8,0c-5.9,0.1-9.5,1.4-13.9,5
		c-1.7,1.4-5.7,5.3-6.3,11.5c-0.3,3.4,0.1,5.9,0.5,7.4c0.1,0.3,0.1,0.5,0.2,0.7c0.3,1.4,0.6,2.3,2,4.3c0,0,0,0,0.1-0.1
		c1.7-1.7,3.7-2.8,5.9-3.4c1.6-0.4,3.2-0.6,4.9-0.6c0.7,0,5,0.6,8,3C233.6,122,233.7,125,233.8,126.7 M246.7,202.8
		c-7-0.6-9.9,5.6-10,5.8c-0.1-0.2-3-6.4-10-5.8c-7.1,0.6-11.9,9.3-2.2,22.8c9.3,13,12,13.6,12.2,13.7v0l0,0l0,0v0
		c0.2,0,2.9-0.6,12.2-13.7C258.6,212.1,253.8,203.4,246.7,202.8 M207.9,153.9c-4.4-4.1-10.3-6.7-16-7.7c-15.7-2.6-32.9,4.2-40,18.9
		c-6,12.4-3.4,29.5,6.3,39.4c4.4,4.5,9,7.1,14.8,8.3c0.2,0-0.8-3.9,0.2-8.1c1.1-4.7,3.4-10.3,10.1-13c10.2-4,16,0.9,19.5,3.4
		c2.2-2.5,3.8-3.5,6.2-4.7c1.8-1,3-1.4,4.8-1.8c2-4.5,2.9-13.1,2-17.9C214.5,164.7,213.7,159.4,207.9,153.9 M254.6,157.7
		c0.5,0.9,0.2,2.1-0.7,2.5c-0.8,0.4-1.7,0.1-2.3-0.6l0,0c0,0,0,0-0.1-0.1c0-0.1-0.1-0.1-0.1-0.2c0-0.1-0.1-0.1-0.1-0.2
		c-0.2-0.4-0.4-0.9-0.6-1.7c-0.3-1.1-0.8-3.5-1-4.7c-0.1-0.4-0.1-0.5-0.1-0.6c0.1,0,0.1,0,0.4,0.4c0.9,0.9,2.7,2.7,3.3,3.5
		c0.5,0.7,0.9,1.2,1,1.5C254.5,157.6,254.5,157.6,254.6,157.7"/>
	<path fill="#FFFFFF" d="M247.7,134.5c1.3,2.7,2.1,6.3,2.2,11.2c1.8-1.5,4.4-3.9,5.9-6.2C255.8,139.5,252.4,136.2,247.7,134.5
		 M239.8,140.1c0-1.5-1.2-2.7-2.7-2.7c-1.5,0-2.7,1.2-2.7,2.7c0,1.5,1.2,2.7,2.7,2.7C238.6,142.8,239.8,141.6,239.8,140.1
		 M243.1,140.1c0,3.3-2.7,6-6,6c-3.3,0-6-2.7-6-6c0-3.3,2.7-6,6-6C240.4,134.1,243.1,136.8,243.1,140.1 M235.6,152.8
		c0.5-1.1,1.8-1.6,2.9-1.1c0.9,0.4,1.3,1.5,1.1,2.5l0,0c0,0,0,0.1-0.1,0.1c0,0.1-0.1,0.2-0.1,0.2c0,0.1-0.1,0.2-0.1,0.2
		c-0.2,0.4-0.6,1-1.2,1.8c-0.9,1.1-2.8,3.2-3.7,4.3c-0.3,0.4-0.4,0.5-0.5,0.5c-0.1,0,0-0.1,0-0.7c0.2-1.5,0.6-4.5,0.9-5.6
		c0.3-1,0.5-1.6,0.6-2C235.5,153,235.6,152.9,235.6,152.8"/>
	<path fill="#FFFFFF" d="M195.8,152.7c-1.6,0-3,1.3-3,3c0,1.6,1.3,3,3,3c1.6,0,3-1.3,3-3C198.7,154,197.4,152.7,195.8,152.7"/>
	<path fill="#FFFFFF" d="M204.1,166c1.6,0,3-1.3,3-3c0-1.6-1.3-3-3-3c-1.6,0-3,1.3-3,3C201.1,164.7,202.5,166,204.1,166"/>
	<path fill="#FFFFFF" d="M207,170.6c-1.6,0-3,1.3-3,3c0,1.6,1.3,3,3,3c1.6,0,3-1.3,3-3C210,171.9,208.7,170.6,207,170.6"/>
	<path fill="#FFFFFF" d="M164.9,198c-1.6,0-3,1.3-3,3c0,1.6,1.3,3,3,3c1.6,0,3-1.3,3-3C167.9,199.3,166.6,198,164.9,198"/>
	<path fill="#FFFFFF" d="M158.6,189.3c-1.6,0-3,1.3-3,3c0,1.6,1.3,3,3,3c1.6,0,3-1.3,3-3C161.5,190.6,160.2,189.3,158.6,189.3"/>
	<path fill="#FFFFFF" d="M159.1,181.9c0-1.6-1.3-3-3-3c-1.6,0-3,1.3-3,3c0,1.6,1.3,3,3,3C157.7,184.8,159.1,183.5,159.1,181.9"/>
	<path fill="#FFFFFF" d="M157.5,174.1c1.6,0,3-1.3,3-3c0-1.6-1.3-3-3-3s-3,1.3-3,3C154.6,172.8,155.9,174.1,157.5,174.1"/>
	<path fill="#FFFFFF" d="M163.2,164.8c1.6,0,3-1.3,3-3c0-1.6-1.3-3-3-3c-1.6,0-3,1.3-3,3C160.3,163.4,161.6,164.8,163.2,164.8"/>
	<path fill="#FFFFFF" d="M172.9,152.6c-1.6,0-3,1.3-3,3c0,1.6,1.3,3,3,3c1.6,0,3-1.3,3-3C175.8,153.9,174.5,152.6,172.9,152.6"/>
	<path fill="#FFFFFF" d="M184.4,150.4c-1.6,0-3,1.3-3,3c0,1.6,1.3,3,3,3s3-1.3,3-3C187.4,151.7,186,150.4,184.4,150.4"/>
	<path fill="#FFFFFF" d="M204.9,181c-1.6,0-3,1.3-3,3c0,1.6,1.3,3,3,3c1.6,0,3-1.3,3-3C207.9,182.4,206.6,181,204.9,181"/>
	<path fill="#876759" d="M93,394.2c0-2.5-1.7-4.2-4.5-4.2h-5.3c-0.2,0-0.2,0.1-0.2,0.2v7.9c0,0.2,0.1,0.2,0.2,0.2h5.3
		C91.3,398.4,93,396.8,93,394.2 M78.6,412.9c-0.2,0-0.4-0.2-0.4-0.4v-26.3c0-0.2,0.2-0.4,0.4-0.4h10.1c5.3,0,8.9,3.4,8.9,8.4
		c0,5.1-3.7,8.4-8.9,8.4h-5.6c-0.2,0-0.2,0.1-0.2,0.2v9.6c0,0.2-0.2,0.4-0.4,0.4H78.6L78.6,412.9z"/>
	<path fill="#876759" d="M102,386.2c0-0.2,0.2-0.4,0.4-0.4h17c0.2,0,0.4,0.2,0.4,0.4v3.4c0,0.2-0.2,0.4-0.4,0.4h-12.4
		c-0.2,0-0.2,0.1-0.2,0.2v6.6c0,0.2,0.1,0.2,0.2,0.2h10.5c0.2,0,0.4,0.2,0.4,0.4v3.4c0,0.2-0.2,0.4-0.4,0.4h-10.5
		c-0.2,0-0.2,0.1-0.2,0.2v6.8c0,0.2,0.1,0.2,0.2,0.2h12.4c0.2,0,0.4,0.2,0.4,0.4v3.4c0,0.2-0.2,0.4-0.4,0.4h-17
		c-0.2,0-0.4-0.2-0.4-0.4V386.2L102,386.2z"/>
	<path fill="#876759" d="M139.5,393.9c0-2.3-1.7-3.9-4.1-3.9h-5.8c-0.2,0-0.2,0.1-0.2,0.2v7.2c0,0.2,0.1,0.2,0.2,0.2h5.8
		C137.9,397.7,139.5,396.2,139.5,393.9 M140.1,412.9c-0.3,0-0.5-0.1-0.6-0.4l-5.2-10.5h-4.7c-0.2,0-0.2,0.1-0.2,0.2v10.3
		c0,0.2-0.2,0.4-0.4,0.4h-3.9c-0.2,0-0.4-0.2-0.4-0.4v-26.3c0-0.2,0.2-0.4,0.4-0.4h10.5c5,0,8.6,3.3,8.6,8.1c0,3.5-2,6.3-5.1,7.4
		l5.7,11c0.2,0.3,0,0.5-0.3,0.5H140.1L140.1,412.9z"/>
	<path fill="#876759" d="M149.6,412.9c-0.2,0-0.4-0.2-0.4-0.4v-18.4c0-0.2,0.2-0.4,0.4-0.4h3.7c0.2,0,0.4,0.2,0.4,0.4v18.4
		c0,0.2-0.2,0.4-0.4,0.4H149.6L149.6,412.9z M149.6,390.1c-0.2,0-0.4-0.2-0.4-0.4v-3.5c0-0.2,0.2-0.4,0.4-0.4h3.7
		c0.2,0,0.4,0.2,0.4,0.4v3.5c0,0.2-0.2,0.4-0.4,0.4H149.6L149.6,390.1z"/>
	<path fill="#876759" d="M158.4,403.9v-3.1c0-0.2,0.2-0.4,0.4-0.4h10.9c0.2,0,0.4,0.2,0.4,0.4v3.1c0,0.2-0.2,0.4-0.4,0.4h-10.9
		C158.5,404.3,158.4,404.2,158.4,403.9"/>
	<path fill="#876759" d="M189.7,394.2c0-2.5-1.7-4.2-4.5-4.2h-5.3c-0.2,0-0.2,0.1-0.2,0.2v7.9c0,0.2,0.1,0.2,0.2,0.2h5.3
		C188,398.4,189.7,396.8,189.7,394.2 M175.3,412.9c-0.2,0-0.4-0.2-0.4-0.4v-26.3c0-0.2,0.2-0.4,0.4-0.4h10.1c5.3,0,8.9,3.4,8.9,8.4
		c0,5.1-3.7,8.4-8.9,8.4h-5.6c-0.2,0-0.2,0.1-0.2,0.2v9.6c0,0.2-0.2,0.4-0.4,0.4H175.3L175.3,412.9z"/>
	<path fill="#876759" d="M198.7,386.2c0-0.2,0.2-0.4,0.4-0.4h17c0.2,0,0.4,0.2,0.4,0.4v3.4c0,0.2-0.2,0.4-0.4,0.4h-12.4
		c-0.2,0-0.2,0.1-0.2,0.2v6.6c0,0.2,0.1,0.2,0.2,0.2h10.5c0.2,0,0.4,0.2,0.4,0.4v3.4c0,0.2-0.2,0.4-0.4,0.4h-10.5
		c-0.2,0-0.2,0.1-0.2,0.2v6.8c0,0.2,0.1,0.2,0.2,0.2H216c0.2,0,0.4,0.2,0.4,0.4v3.4c0,0.2-0.2,0.4-0.4,0.4h-17
		c-0.2,0-0.4-0.2-0.4-0.4V386.2L198.7,386.2z"/>
	<path fill="#876759" d="M236.2,393.9c0-2.3-1.7-3.9-4.1-3.9h-5.8c-0.2,0-0.2,0.1-0.2,0.2v7.2c0,0.2,0.1,0.2,0.2,0.2h5.8
		C234.5,397.7,236.2,396.2,236.2,393.9 M236.7,412.9c-0.3,0-0.5-0.1-0.6-0.4L231,402h-4.7c-0.2,0-0.2,0.1-0.2,0.2v10.3
		c0,0.2-0.2,0.4-0.4,0.4h-3.9c-0.2,0-0.4-0.2-0.4-0.4v-26.3c0-0.2,0.2-0.4,0.4-0.4h10.5c5,0,8.6,3.3,8.6,8.1c0,3.5-2,6.3-5.1,7.4
		l5.7,11c0.2,0.3,0,0.5-0.3,0.5H236.7L236.7,412.9z"/>
	<path fill="#876759" d="M246.3,412.9c-0.2,0-0.4-0.2-0.4-0.4v-18.4c0-0.2,0.2-0.4,0.4-0.4h3.7c0.2,0,0.4,0.2,0.4,0.4v18.4
		c0,0.2-0.2,0.4-0.4,0.4H246.3L246.3,412.9z M246.3,390.1c-0.2,0-0.4-0.2-0.4-0.4v-3.5c0-0.2,0.2-0.4,0.4-0.4h3.7
		c0.2,0,0.4,0.2,0.4,0.4v3.5c0,0.2-0.2,0.4-0.4,0.4H246.3L246.3,390.1z"/>
	<path fill="#876759" d="M264.9,399.4c0-4.3,0.2-5.6,0.7-7.3c1.4-4.4,4.8-6.6,9.4-6.6c4.3,0,7.6,2.2,9.1,5.8c0.1,0.2,0,0.4-0.2,0.5
		l-3.4,1.6c-0.2,0.1-0.4,0-0.5-0.2c-0.9-1.9-2.4-3.5-5.1-3.5c-2.6,0-4.1,1.4-4.9,3.6c-0.4,1.1-0.5,2.2-0.5,6.2c0,4,0.1,5.1,0.5,6.2
		c0.8,2.2,2.3,3.6,4.9,3.6c2.7,0,4.2-1.6,5.1-3.5c0.1-0.2,0.3-0.3,0.5-0.2l3.4,1.6c0.2,0.1,0.3,0.3,0.2,0.5
		c-1.6,3.6-4.8,5.8-9.1,5.8c-4.6,0-8-2.2-9.4-6.6C265,405,264.9,403.7,264.9,399.4"/>
	<path fill="#876759" d="M288.5,386.2c0-0.2,0.2-0.4,0.4-0.4h3.9c0.2,0,0.4,0.2,0.4,0.4v10.7c0,0.2,0.1,0.2,0.2,0.2h10.3
		c0.2,0,0.2-0.1,0.2-0.2v-10.7c0-0.2,0.2-0.4,0.4-0.4h3.9c0.2,0,0.4,0.2,0.4,0.4v26.3c0,0.2-0.2,0.4-0.4,0.4h-3.9
		c-0.2,0-0.4-0.2-0.4-0.4v-10.9c0-0.2-0.1-0.2-0.2-0.2h-10.3c-0.2,0-0.2,0.1-0.2,0.2v10.9c0,0.2-0.2,0.4-0.4,0.4h-3.9
		c-0.2,0-0.4-0.2-0.4-0.4V386.2L288.5,386.2z"/>
	<path fill="#876759" d="M314.7,386.2c0-0.2,0.2-0.4,0.4-0.4h3.9c0.2,0,0.4,0.2,0.4,0.4v26.3c0,0.2-0.2,0.4-0.4,0.4h-3.9
		c-0.2,0-0.4-0.2-0.4-0.4V386.2L314.7,386.2z"/>
	<path fill="#876759" d="M324.5,399.4c0-4.3,0.2-5.6,0.7-7.3c1.4-4.4,4.8-6.6,9.4-6.6c4.3,0,7.6,2.2,9.1,5.8c0.1,0.2,0,0.4-0.2,0.5
		l-3.4,1.6c-0.2,0.1-0.4,0-0.5-0.2c-0.9-1.9-2.4-3.5-5.1-3.5c-2.6,0-4.1,1.4-4.9,3.6c-0.4,1.1-0.5,2.2-0.5,6.2c0,4,0.1,5.1,0.5,6.2
		c0.8,2.2,2.3,3.6,4.9,3.6c2.7,0,4.2-1.6,5.1-3.5c0.1-0.2,0.3-0.3,0.5-0.2l3.4,1.6c0.2,0.1,0.3,0.3,0.2,0.5
		c-1.6,3.6-4.8,5.8-9.1,5.8c-4.6,0-8-2.2-9.4-6.6C324.7,405,324.5,403.7,324.5,399.4"/>
	<path fill="#876759" d="M348.2,386.2c0-0.2,0.2-0.4,0.4-0.4h3.9c0.2,0,0.4,0.2,0.4,0.4V399l10.2-12.8c0.2-0.2,0.4-0.3,0.6-0.3h4.5
		c0.2,0,0.4,0.3,0.2,0.5l-8.4,10.1l9.4,16c0.2,0.3,0,0.5-0.3,0.5h-4.4c-0.3,0-0.4-0.1-0.6-0.3l-7.1-12.5l-4.1,5v7.4
		c0,0.2-0.2,0.4-0.4,0.4h-3.9c-0.2,0-0.4-0.2-0.4-0.4V386.2L348.2,386.2z"/>
	<path fill="#876759" d="M373.4,386.2c0-0.2,0.2-0.4,0.4-0.4h17c0.2,0,0.4,0.2,0.4,0.4v3.4c0,0.2-0.2,0.4-0.4,0.4h-12.4
		c-0.2,0-0.2,0.1-0.2,0.2v6.6c0,0.2,0.1,0.2,0.2,0.2h10.5c0.2,0,0.4,0.2,0.4,0.4v3.4c0,0.2-0.2,0.4-0.4,0.4h-10.5
		c-0.2,0-0.2,0.1-0.2,0.2v6.8c0,0.2,0.1,0.2,0.2,0.2h12.4c0.2,0,0.4,0.2,0.4,0.4v3.4c0,0.2-0.2,0.4-0.4,0.4h-17
		c-0.2,0-0.4-0.2-0.4-0.4V386.2L373.4,386.2z"/>
	<path fill="#876759" d="M396.1,386.2c0-0.2,0.2-0.4,0.4-0.4h3.7c0.3,0,0.5,0.1,0.7,0.4l11,18.7h0.2v-18.7c0-0.2,0.2-0.4,0.4-0.4
		h3.5c0.2,0,0.4,0.2,0.4,0.4v26.3c0,0.2-0.2,0.4-0.4,0.4h-3.6c-0.3,0-0.5-0.1-0.7-0.4l-11.1-18.6h-0.2v18.6c0,0.2-0.2,0.4-0.4,0.4
		h-3.5c-0.2,0-0.4-0.2-0.4-0.4V386.2L396.1,386.2z"/>
</g>
</svg>
