<?xml version="1.0" encoding="utf-8"?>
<!-- Generator: Adobe Illustrator 22.0.1, SVG Export Plug-In . SVG Version: 6.00 Build 0)  -->
<svg version="1.1" id="Layer_1" xmlns="http://www.w3.org/2000/svg" xmlns:xlink="http://www.w3.org/1999/xlink" x="0px" y="0px"
	 viewBox="0 0 500 500" enable-background="new 0 0 500 500" xml:space="preserve">
<g>
	<path fill="#006FBA" d="M68.7,145.4c3.8-0.5,7.6-0.3,11.4-0.3c13.7,0.7,27.1,5.1,38.5,12.7c12,8,21.7,19.5,27.5,32.7
		c8.2,18.6,8.6,40.5,0.9,59.3c-4.8,12-12.8,22.7-22.9,30.8c-15.4,12.5-35.7,18.5-55.4,16.4c-14.3-1.4-28.2-7-39.5-15.9
		C18.4,272.8,9.9,261.3,5,248.6c-6.2-16.1-6.7-34.4-1.4-50.8C8,184.2,16.3,172,27.2,162.8C38.9,153,53.5,146.8,68.7,145.4
		 M119.6,176.3c-3.6,0.4-6.8,2.4-9.1,5.1c-4,4.6-3.9,12-0.7,17c2.6,3.9,7.4,6,12,6.1c3.7,0.1,7-1.9,9.6-4.3
		c-3.5,0.7-7.4,0.7-10.6-1.2c-3.4-1.9-5.9-6.2-4.7-10.1c0.8-3,4.4-5,7.4-3.7c3.2,1.2,4.7,5.6,2.5,8.3c-1.3,1.9-3.6,2.4-5.7,2.5
		c2.5,2,5.9,3,9,2.3c2-0.5,4.5-1.2,5.4-3.3c2.3-5.6,0.1-12.4-4.7-15.9C127.1,176.9,123.2,175.8,119.6,176.3 M79.1,186.7
		c-5,3.2-8.8,7.8-13.1,11.9c-6.5,6.5-14,11.8-21,17.7c-2.9,2.5-5.3,5.7-6.2,9.4c-0.8,3.4-0.3,6.9,0.9,10.1c0.3,1,0.8,2,0.6,3
		c-0.3,1-1,1.8-1.5,2.7c-3.8,5.9-6.6,12.3-9.2,18.8c-0.7,2.2-3.1,2.9-4,4.9c-1.1,2-1.6,4.2-2.6,6.2c3.3-1,6.5-2.6,8.7-5.3
		c3.1-3.8,4.4-8.6,6.3-13c0.9-1.8,2.8-2.7,4.4-3.7c6.8-4.1,13.2-9.3,17.4-16.2c0.8-1.2,1.2-2.8,2.7-3.3c6.4-2.7,12.8-5.3,19.2-8
		c1.1-0.5,2.3-1.1,3.5-0.7c4.5,1.1,9,2.2,13.5,3.3c-2.2,2-4,4.5-6.7,6c-1.1,0.7-2.9,0.7-3.5,2.1c-0.9,1.8-1.5,3.6-2.3,5.5
		c4.1-0.7,8.1-2.4,11.1-5.2c2-1.9,3.9-3.8,5.8-5.8c1-1,2.1-2,2.6-3.3c0.5-1.5-0.7-2.7-1.8-3.4c-2.7-1.9-5.5-3.6-8.2-5.4
		c0.8-2.5,1.5-5.1,2.9-7.4c1.2-1.9,3.5-2.4,5.5-3c-0.6,1.6-1.6,3.2-1,5c0.3,1.4,2,2.6,3.4,2c3.7-1.2,7.2-2.8,10.8-4.3
		c0.5-0.2,1-0.5,1.5-0.8c-3.1-0.8-6.2-2.1-8.5-4.3c-3.3-3-5-7.5-5-11.9c0-1.4,0.4-3.1-0.9-4.1c-2.7-1.8-5.8-3.1-9-3.6
		C89.7,181.9,83.8,183.6,79.1,186.7 M34.1,220.1c-2.4,1-3.3,3.6-5.1,5.2c-1.3,1.4-3.1,2.1-4.9,2.6c1.2,0.5,2.5,1.1,3.9,1.1
		c1.8-0.1,3.5-0.9,4.7-2.2c1.9-2,3.9-3.9,5.9-5.8C37.2,220.3,35.7,219.5,34.1,220.1 M109.1,146.8c125.9,0,251.8,0,377.7,0
		c4.9-0.1,9.8,3,11.9,7.5c1.2,2.3,1.4,5,1.3,7.6c0,40.3,0,80.6,0,120.9c0.1,4.4-2.1,8.8-5.8,11.3c-2.3,1.6-5.1,2.3-7.8,2.3
		c-120.1,0-240.2,0-360.2,0c-6.2,0-12.4,0.1-18.6-0.1c5.5-2.6,10.9-5.3,15.8-8.9c10.5-7.5,19.1-17.4,25.1-28.8
		c9-17.2,11.5-37.7,6.8-56.6c-3.8-15.8-12.6-30.3-24.6-41.1C124.2,155.1,116.9,150.5,109.1,146.8 M316.8,167.7
		c-7.3,0.9-14.6,3.5-20.2,8.4c-5.5,4.7-9,11.5-9.8,18.6c-0.7,7.2,0.2,15,4.6,21c4.3,5.8,11.2,9,17.9,11.3c8.2,2.9,16.8,4.2,24.8,7.5
		c2.4,1,4.8,2.2,6.4,4.4c1.5,2,1.5,4.7,1.1,7.1c-0.8,3.3-3.7,5.6-6.8,6.6c-5.1,1.7-10.7,1.4-15.9,0.4c-8.6-1.6-16.4-6.3-23.1-11.8
		c-4.5,5.3-8.9,10.7-13.4,16c13.9,12.4,33.4,18.4,51.9,16c7.9-1.1,15.9-4.1,21.6-9.9c4.5-4.5,7.3-10.6,8.1-16.9
		c0.7-6.6,0.3-13.8-3.3-19.6c-3.8-6.2-10.3-9.9-16.8-12.6c-8.3-3.4-17.3-4.8-25.7-7.9c-2.6-1-5.4-2.1-7.3-4.3
		c-1.7-1.9-2-4.7-1.7-7.2c0.5-3,2.9-5.3,5.6-6.4c4.6-1.9,9.8-1.6,14.6-0.6c7.3,1.6,14,5.2,20,9.4c3.9-5.7,7.8-11.4,11.8-17
		C348.9,170.4,332.5,166,316.8,167.7 M182.5,168.7c0,34.5,0,69,0,103.5c7.5,0,15.1,0,22.6,0c0-11.1,0-22.1,0-33.2c6,0,12,0,18,0
		c7.5,11,14.8,22.1,22.3,33.2c8.8,0,17.6,0,26.4,0c-8.4-12.3-16.9-24.6-25.3-36.9c5.6-2.1,10.8-5.3,14.7-9.8
		c5.3-6.1,7.7-14.3,7.6-22.3c0.1-7.6-1.9-15.5-6.7-21.5c-4.7-6-11.8-9.7-19.1-11.4c-6.5-1.6-13.3-1.6-20-1.5
		C209.5,168.7,196,168.7,182.5,168.7 M382.7,168.7c0,18.8,0,37.6,0,56.4c-0.1,5.9,0.3,11.9,1.6,17.6c1.7,7.5,5.3,14.8,10.9,20.1
		c6.2,6,14.7,9.3,23.1,10.4c6,0.8,12.1,0.8,18.1,0c7.5-1,15-3.6,21-8.3c4.2-3.2,7.5-7.4,9.9-12c3.1-6,4.6-12.6,5.2-19.3
		c0.4-5.9,0.2-11.8,0.3-17.7c0-15.8,0-31.6,0-47.3c-7.5,0-15.1,0-22.6,0c0,17.4,0,34.7,0,52.1c0,6.2,0.5,12.6-1.7,18.6
		c-1.7,5.4-5.8,10.1-11.2,12c-6.1,2.2-13,2.3-19,0c-5.2-2-9.2-6.5-11-11.7c-1.5-4.1-2-8.5-1.9-12.9c0-19.4,0-38.7,0-58.1
		C397.8,168.7,390.2,168.7,382.7,168.7 M205.1,219.1c0-10,0-19.9,0-29.9c7.5,0,15.1,0,22.6,0c4.6,0,9.6,0.8,13.3,3.7
		c3.4,2.6,5,7,4.8,11.1c0.2,3.8-1.1,7.7-3.8,10.4c-3.3,3.2-8,4.6-12.6,4.7C221.3,219.1,213.2,219.1,205.1,219.1 M271.1,318.6
		c1.6,0,3.2,0,4.8,0c0,9.9,0,19.8,0,29.7c-1.6,0-3.2,0-4.8,0c0-1.1,0-2.2,0.1-3.4c-1.5,2-3.7,3.9-6.4,3.8c-3.4,0.3-6.7-1.7-8.4-4.6
		c-1.7-2.9-1.8-6.4-1.3-9.7c0.8-4.1,4.1-7.7,8.3-8c3.1-0.4,5.9,1.3,7.8,3.6C271.1,326.1,271.1,322.4,271.1,318.6 M263.2,331.2
		c-2.9,1.3-4.1,5-3.4,7.9c0.4,3.1,3.5,5.9,6.7,5.1c3.9-0.9,5.7-5.7,4.4-9.3C269.9,331.8,266.2,329.8,263.2,331.2 M438.6,318.9
		c1.7,0,3.4,0,5.1,0c0,1.6,0,3.2,0,4.8c-1.7,0-3.4,0-5.1,0C438.6,322.1,438.6,320.5,438.6,318.9 M195.8,320.6c4.8-2.4,11-1,14.9,2.5
		c-0.9,1.3-1.7,2.6-2.6,3.8c-2.7-2-6.3-3.8-9.7-2.4c-2.2,0.8-2.7,4.3-0.6,5.4c3.3,1.9,7.4,1.9,10.6,4.1c3.9,2.5,4,8.6,1,11.9
		c-1.9,2-4.8,2.9-7.5,2.8c-4.3,0.2-8.4-1.6-11.5-4.5c1-1.2,1.9-2.5,2.9-3.7c2.2,2,5,3.7,8.1,3.7c1.8,0.1,4-0.3,4.8-2.2
		c0.9-1.6-0.1-3.6-1.7-4.2c-3.7-1.7-8.2-1.7-11.2-4.7C190.1,329.4,191.3,322.7,195.8,320.6 M23.7,319.8c4.2,0,8.3,0,12.5,0
		c2.9,0,6,1,7.8,3.4c2,2.6,2.2,6.2,1.2,9.2c-0.9,2.6-3.2,4.4-5.8,5.3c2.4,3.5,4.8,7.1,7.2,10.7c-1.9,0-3.8,0-5.8,0
		c-2.2-3.3-4.4-6.6-6.6-9.9c-1.9,0-3.9,0-5.8,0c0,3.3,0,6.6,0,9.9c-1.6,0-3.2,0-4.8,0C23.7,338.8,23.7,329.3,23.7,319.8 M28.5,324.5
		c0,3.1,0,6.2,0,9.3c2.6,0,5.2,0.1,7.7-0.1c1.9-0.1,3.8-1.2,4.4-3.1c0.5-1.3,0.3-2.8-0.4-4c-0.9-1.5-2.8-2.1-4.4-2.1
		C33.4,324.5,30.9,324.5,28.5,324.5 M363.5,319.8c1.8,0,3.6,0,5.3,0c-0.1,2.9,0.5,5.9-0.8,8.6c-0.9,2-3.3,2.9-5.4,3
		c-0.2-0.7-0.3-1.5-0.4-2.2c1.8-0.3,3.5-1.7,3.3-3.7c-0.7,0-1.4,0-2,0C363.5,323.6,363.5,321.7,363.5,319.8 M385.7,319.8
		c1.6,0,3.2,0,4.8,0c0,5.2,0,10.3,0,15.5c0.1,1.9,0.2,3.9,1.1,5.6c2.2,4.1,9.2,4.2,11.3,0c0.9-1.6,1-3.4,1-5.2c0-5.3,0-10.6,0-15.9
		c1.6,0,3.3,0,4.9,0c0,5,0,10,0,15.1c0.1,3.4-0.4,7.1-2.5,9.9c-2.1,2.8-5.7,4-9,3.9c-3,0.1-6.2-0.8-8.3-2.9
		c-2.4-2.4-3.3-5.9-3.3-9.2C385.7,331,385.7,325.4,385.7,319.8 M217.1,320.9c1.6,0,3.2,0,4.9,0c0,1.9,0,3.9,0,5.8c1.8,0,3.6,0,5.4,0
		c0,1.5,0,2.9,0,4.4c-1.8,0-3.6,0-5.4,0c0.1,3.9-0.2,7.9,0.2,11.8c1,1.8,3.5,1.1,5.1,0.5c0,1.4,0,2.8,0,4.2
		c-2.4,1.2-5.4,1.5-7.8,0.2c-1.8-1.1-2.4-3.3-2.4-5.2c0-3.8,0-7.6,0-11.5c-0.9,0-1.7,0-2.6,0c0-1.5,0-2.9,0-4.4c0.8,0,1.7,0,2.6,0
		C217.1,324.8,217.1,322.9,217.1,320.9 M329.6,320.9c1.6,0,3.2,0,4.8,0c0,1.9,0,3.9,0,5.8c1.8,0,3.6,0,5.5,0c0,1.5,0,2.9,0,4.4
		c-1.8,0-3.7,0-5.5,0c0,3.6,0,7.1,0,10.7c0,0.8,0.4,1.6,1.1,2.1c1.4,0.5,3,0.1,4.3-0.4c0,1.4,0,2.8,0,4.1c-2.2,1.2-5,1.5-7.4,0.5
		c-1.9-0.8-2.8-3-2.8-5c-0.1-4,0-7.9,0-11.9c-0.9,0-1.7,0-2.6,0c0-1.5,0-2.9,0-4.4c0.9,0,1.7,0,2.6,0
		C329.6,324.8,329.6,322.8,329.6,320.9 M75.7,328.3c3.5-2.9,9.2-2.7,12.5,0.6c2.7,2.7,3.4,6.8,3.1,10.4c-5,0-9.9,0-14.9,0
		c0.4,2.4,2,4.7,4.5,5.1c2.5,0.6,5-0.7,6.8-2.4c0.9,0.9,1.9,1.7,2.8,2.6c-3.4,5-11.3,5.5-15.6,1.4C70.1,341.4,70.5,332.5,75.7,328.3
		 M78.8,331.4c-1.4,1-2.1,2.8-2.4,4.5c3.4,0,6.9,0,10.3,0c-0.3-1.6-0.8-3.2-2-4.3C83.1,330.2,80.4,330.1,78.8,331.4 M100.7,331.2
		c1.2-2.9,4-5.2,7.3-4.9c0,1.8,0,3.6,0,5.4c-1.4,0.1-3,0.2-4.2,1.1c-2.2,1.5-2.9,4.3-3.1,6.8c0,2.9,0,5.8,0,8.7c-1.6,0-3.2,0-4.7,0
		c0-7.2,0-14.4,0-21.5c1.6,0,3.1,0,4.7,0C100.7,328.3,100.7,329.7,100.7,331.2 M114.3,327.4c3.7-2.1,8.4-0.8,11.7,1.5
		c-0.6,1.2-1.3,2.4-1.9,3.6c-2.2-1.2-4.8-2.6-7.3-1.7c-1.3,0.4-1.7,2.4-0.5,3.2c2.7,1.7,6.3,1.8,8.6,4.2c2.8,2.9,1.5,8.3-2.2,9.8
		c-4.2,1.7-9.2,0.3-12.7-2.5c0.7-1.1,1.4-2.3,2.2-3.4c2.4,1.7,5.3,3.2,8.3,2.4c1.6-0.4,2-2.9,0.5-3.6c-2.6-1.5-6-1.6-8.3-3.7
		C110,334.4,111,329.2,114.3,327.4 M138.8,326.5c3.7-0.8,7.8,0.6,10.3,3.5c3.9,4.4,3.6,11.8-0.8,15.8c-4.1,4.1-11.6,3.9-15.4-0.5
		c-4.4-4.7-3.8-13,1.5-16.9C135.6,327.5,137.2,326.8,138.8,326.5 M138.7,331.1c-3.5,1.3-4.8,5.8-3.5,9.1c1,3.1,4.7,5,7.7,3.7
		c4.1-1.5,5-7.2,2.7-10.6C144.3,331.1,141.2,330.3,138.7,331.1 M164.3,327c2.6-1.3,6-0.8,8.1,1.2c1.7,1.6,2.3,4,2.3,6.3
		c0,4.6,0,9.2,0,13.8c-1.6,0-3.2,0-4.8,0c0-3.9,0-7.8,0-11.7c0-1.5-0.2-3.1-1.2-4.3c-1.6-1.8-4.9-1.7-6.4,0.2
		c-1.1,1.3-1.2,3-1.2,4.6c0,3.7,0,7.5,0,11.2c-1.6,0-3.2,0-4.8,0c0-7.2,0-14.3,0-21.5c1.6,0,3.2,0,4.8,0c0,1.1,0,2.1,0,3.2
		C162,328.8,163,327.6,164.3,327 M284.7,328.2c3.5-2.7,9.1-2.5,12.3,0.7c2.7,2.7,3.5,6.8,3.2,10.5c-5,0-10,0-15,0
		c0.4,2.3,2,4.7,4.5,5.1c2.6,0.6,5.1-0.6,6.8-2.4c0.9,0.9,1.9,1.8,2.8,2.7c-3.4,4.7-10.8,5.4-15.2,1.7
		C278.9,341.9,279.2,332.5,284.7,328.2 M287.5,331.5c-1.4,1.1-2,2.8-2.3,4.5c3.4,0,6.8,0,10.3,0c-0.2-1.5-0.7-3.1-1.8-4.2
		C292,330.2,289.3,330.1,287.5,331.5 M312.8,327c2.9-1.4,6.7-0.7,8.7,1.9c1.3,1.7,1.7,3.9,1.7,6c0,4.5,0,8.9,0,13.4
		c-1.6,0-3.3,0-4.9,0c0-4.3,0.1-8.5,0-12.8c0-1.9-1.1-4-3.1-4.5c-2.7-0.7-5.4,1.4-5.5,4.1c-0.2,4.4,0,8.8-0.1,13.1
		c-1.6,0-3.2,0-4.8,0c0-7.2,0-14.3,0-21.5c1.6,0,3.2,0,4.8,0c0,1,0,2.1,0,3.1C310.4,328.7,311.4,327.6,312.8,327 M346.8,327.5
		c3.7-2.1,8.4-0.8,11.8,1.4c-0.6,1.2-1.3,2.4-1.9,3.6c-2.2-1.2-4.8-2.6-7.3-1.7c-1.3,0.5-1.6,2.5-0.3,3.2c2.8,1.7,6.4,1.8,8.7,4.3
		c1.4,1.5,1.4,3.7,1.1,5.6c-0.5,2.2-2.3,3.9-4.5,4.5c-4.1,1.1-8.5-0.2-11.7-2.8c0.7-1.2,1.4-2.3,2.2-3.5c2.3,1.6,5.3,3.2,8.2,2.4
		c1.4-0.3,2.2-2.3,1-3.3c-2.5-1.8-6-1.7-8.4-3.8C342.6,334.9,343.4,329.3,346.8,327.5 M422.6,327c3.2-1.6,7.8-0.5,9.5,2.9
		c1.2,2.2,1,4.7,1,7.2c0,3.7,0,7.5,0,11.2c-1.6,0-3.2,0-4.7,0c0-3.7,0-7.5,0-11.2c0-1.7-0.1-3.5-1.2-4.8c-1.8-2-5.4-1.6-6.7,0.7
		c-0.8,1.2-0.8,2.7-0.8,4.1c0,3.7,0,7.5,0,11.2c-1.6,0-3.3,0-4.9,0c0-7.2,0-14.3,0-21.5c1.6,0,3.2,0,4.9,0c0,1,0,2,0,3
		C420.4,328.7,421.3,327.6,422.6,327 M456.9,326.6c3.8-0.9,8.1,0.5,10.7,3.5c3.8,4.4,3.5,11.7-0.8,15.7c-3.9,4-11.1,4-15,0
		c-4.3-4.1-4.5-11.6-0.5-15.9C452.7,328.2,454.7,327.1,456.9,326.6 M457.3,331.1c-4.1,1.4-5.2,7-3,10.4c1.5,2.7,5.4,3.7,8,2
		c4-2.4,4-8.9,0.4-11.6C461.2,330.7,459.1,330.6,457.3,331.1 M482.8,327c3-1.4,7-0.6,8.9,2.2c1.4,2,1.6,4.6,1.5,7c0,4,0,8.1,0,12.1
		c-1.6,0-3.2,0-4.9,0c0-4.2,0.1-8.4-0.1-12.6c0.1-2-1.1-4.2-3.2-4.6c-2.7-0.7-5.3,1.4-5.5,4.1c-0.3,4.4,0,8.8-0.1,13.1
		c-1.6,0-3.2,0-4.8,0c0-7.2,0-14.3,0-21.5c1.6,0,3.2,0,4.8,0c0,1.1,0,2.1,0,3.2C480.4,328.8,481.4,327.6,482.8,327 M49,326.8
		c1.7,0,3.4,0,5.1,0c2,5.2,3.8,10.4,5.7,15.6c1.8-5.2,3.4-10.4,5.3-15.6c1.7,0,3.3,0,5,0c-2.6,7.2-5.3,14.4-7.9,21.6
		c-0.8,2.2-1.8,4.7-4,5.9c-2.5,1.2-5.5,0.6-7.9-0.6c0.5-1.3,1-2.5,1.6-3.8c1.3,0.5,2.7,1.1,4,0.5c0.8-0.6,1.8-1.7,1.3-2.8
		C54.5,340.6,51.7,333.7,49,326.8 M231.7,326.8c1.6,0,3.2,0,4.8,0c0.1,4.3,0,8.6,0.1,12.8c0,1.7,0.8,3.6,2.5,4.3
		c1.5,0.4,3.4,0.3,4.6-0.8c1.3-1.2,1.6-3,1.6-4.7c0-3.9,0-7.7,0-11.6c1.6,0,3.2,0,4.8,0c0,7.2,0,14.3,0,21.5c-1.6,0-3.2,0-4.8,0
		c0-1,0-2.1,0-3.1c-1.1,1.6-2.7,3.1-4.8,3.5c-2,0.2-4.1,0.2-5.8-1c-2.3-1.5-3.1-4.5-3.2-7.1C231.7,335.9,231.6,331.3,231.7,326.8
		 M438.7,326.8c1.6,0,3.2,0,4.9,0c0.1,7.2,0,14.3,0,21.5c-1.6,0-3.3,0-4.9,0C438.7,341.1,438.7,333.9,438.7,326.8L438.7,326.8z"/>
</g>
</svg>
