<?xml version="1.0" encoding="utf-8"?>
<!-- Generator: Adobe Illustrator 22.0.1, SVG Export Plug-In . SVG Version: 6.00 Build 0)  -->
<svg version="1.1" id="Layer_1" xmlns="http://www.w3.org/2000/svg" xmlns:xlink="http://www.w3.org/1999/xlink" x="0px" y="0px"
	 viewBox="0 0 500 500" enable-background="new 0 0 500 500" xml:space="preserve">
<g>
	<path fill="none" d="M363.3,227.8c2.5-0.4,4.7-1.2,6.6-2.3c1.9-1.1,3.4-2.8,4.6-4.9c1.1-2.1,1.7-4.8,1.7-8.2c0-3.4-0.6-6.1-1.7-8.2
		c-1.1-2.1-2.7-3.7-4.6-4.9c-1.9-1.1-4.1-1.9-6.6-2.3c-2.5-0.4-5.1-0.6-7.8-0.6h-18.3v32h18.3C358.2,228.4,360.8,228.2,363.3,227.8z
		"/>
	<polygon fill="none" points="443.7,204.5 443.4,204.5 429.5,243.7 457.2,243.7 	"/>
	<path fill="#937936" d="M54.3,197.5c5-6.1,14.5-3.3,18.9-10.1c-2.3,0.3-4.5,1.1-6.8,1.7c0-2.8,5.2-8.8,0.1-8.2
		c-3.1,2.9-5.5,0.3-0.9-0.8c1.7-1.5,3.5-3.1,5.1-4.7c-6.4-0.1,4.7-3.2,2.4-6.9c4.2-3.7,1.9-12.7,8-13.4c0.9-2.6-0.2-7.2,3.6-7.9
		c-0.1,2.5-0.6,5-0.8,7.6c7.8-4.7,14.2-11.9,22.9-14.8c2.4,2.3-2.4,3.8-1.7,6.5c3.1-1,5.8-3,9.1-3.4c0.6,2.6-2.3,6.5,0.5,8.2
		c1.3-1.7,3.9-8.8,5.6-5.1c0,0.1,0.1,0.2,0.1,0.3c0.7,2.2,0.8,4.4,1.2,6.6c2.9-4.1,8-10.2,12.6-9.5c-0.5,10.6,7.3-3.3,12.3,0.3
		c-0.4,2.3-3.1,3.1-4.4,4.8c3.1-0.6,6.1-1,9.2-0.7c0.9,6.4-7.7,6.2-11.7,8.2c0.9,0.4,1.8,0.9,2.6,1.3c4.4-1,8.8-2.5,13.3-2.9
		c-0.7,1.8-2.5,2.7-3.7,4.2c1,1.2,2.7,1.6,4.1,1.9c5.9-0.1,11.8-0.8,17.7,0.4c3.6-0.3,5.8,4,1.6,5.2c-12.4,2.2,9.2,1.8,4.9,7.4
		c-4.7,4.8,6.9,0.8,8.9,4.9c1.6,2,3.6,3.8,6.3,4.3c5.2,1.2,10.2,3.3,15.3,4.8c0.4-0.2,1.2-0.6,1.6-0.8c-4.3-3.5-11.4-4.7-14.2-9.2
		c6.4-0.1,12.2,3.1,18.4,3.6c-5.1-3.9-9.8-8.5-15.8-11.1c-3.3-1.9-8-1.9-10-5.7c3.8-0.9,10.4,1.5,12.5-0.1c-6.6-4-16.9-1.9-24-6.3
		c1.7-0.4,3.9-0.2,5.1-1.7c-4.1-1-8.4-1-12.6-1.2c1.3-1.4,3.6-2,4.3-3.8c-5.6-4-13.2-1.6-19.2-3.1c-3.8-4.7,11.1-3.7,5.2-6
		c-3.6,0-7.1,0-10.7,0c-1.8,0.2-4.2,1.7-5.6-0.1c0.1-2.5,1.8-3.8,4.1-4.4c-0.8-0.2-1.7-0.4-2.6-0.6c-0.4,0-1.2,0.1-1.6,0.2
		c-3.3,0.9-6.6,2.3-10,2.5c0.9-3.6,5.1-4,8-5.3c7.2-1.9-4-1.6-6.3-1.4c-1.9,0.7-3.9,1.3-5.8,1.6c2.4-2.8,5.9-4.2,9-6
		c2-1.3,4.2-2.3,6.1-3.8c-9.5-1.4-18.3,3.3-27.3,4.6c-0.7-0.3-1.2-0.7-1.6-1.4c-4.2,0.6-7.1,5-11.4,5c-2.3-3.9,2.9-6.3,4.9-9
		c-10.2,2.4-19.1,8.5-27.3,14.9c-0.3-3.2,2.1-6,1.7-9.2c-4.5,3.6-6.5,9.5-10,14c-3.3-0.1,0.6-7-3-5.6c-3.4,3.5-1,11.9-8.9,9.3
		c-2.3,0.4-4.6,0.4-6.8,0.4c-1.1,0-2.3,0-3.4,0c-0.8,3.3,6.7,3,7.8,6.5c-4.1,0.8-7.2-2.3-10.8-3.4c-0.3,3.7,5.1,4.4,6.6,7.5
		c-2.6,0.2-5.2,0.1-7.7,0.1c1.1,1.6,4.8,0.6,4.3,3.2c-3.3,1-8.6-1.9-10.7,1.4c2.2,1,5.4,2.2,5.7,4.9c-2.9,2.3-5.8,2-9,0.2
		c0.1,3.2,5.5,8.5-0.8,7.6c1.2,3.8,3.3,5.1-4.2,4.3c1.6,0.7,3.3,1.5,4.4,3c-2.9-0.2-5.4-1.6-7.8-3c-3.9-0.3,6,7.8,2.1,11.3
		c0,0.4,0,1.2,0,1.6c5.2-4.6,11.6-8.8,12-16.6c0.4-4.2,9.4-4.3,7.5-8.8c-2.5-3.1,3.8-1.1,4.8-2c2.6-5.4,8.2-8.3,13.4-10.6
		c0.7,3.7-0.5,7.5-3,10.2c-2.1,2.2-7.1,1.8-6.9,5.6c0.3,1.5,0.7,3.9-1.4,4.2c-5.2,0.8-9.1,2.9-11.1,7.7c-1.6,1.2,2.1,1.3,0,1.9
		c-5.8,2.8-11.2,7.2-14.2,13c0.2,0.9,0.5,1.8,0.7,2.7l0.4-0.9c0.7-2.4,3.5-2.5,5.5-3.2c1.7-3.1,3.6-7.7,7.6-7.6
		c-1.2,3.6-4.9,5.3-7.6,7.6c1.6,0.7,3.3,1.5,4.4,2.9c-2.3,0.5-4.6,1-6.9,1.6c-0.5,4.8,5.1,7.9,4.4,11.8c1.1,0,2.3,0.1,3.4,0.2
		C47.2,207.7,50.6,202.4,54.3,197.5z M41.8,202.9c6.6-3,7.8-11,12.4-16c3.3-1.2,1.9,1.1,3.9,1.8c-4,6.1-10,10.8-14.3,16.7
		C41.1,206.8,44.6,202.5,41.8,202.9z"/>
	<path fill="#937936" d="M185.7,285.5c-0.2,2.5-0.5,5-1,7.5c-4.1-6.8-0.9-17.3-8-22.5c0,1.1,0.1,2.1,0.2,3.2c1.4,3.9,0.3,8,0,12
		c-0.1,2.2-0.2,4.4-0.3,6.6c-3.9-4.6-3.5-11.4-5.2-16.9c-1.7,6.6-3.5,13.1-5.9,19.5c-0.1,0.2-0.1,0.6-0.2,0.9h24.4
		c0.6-3.4,1.2-6.8,1.8-10.2C190,285.4,187.2,285.4,185.7,285.5z"/>
	<path fill="#C5B98A" d="M119,129.6c1.9-1.3-0.7-3.5-1.6-1.4C117.8,128.9,118.4,129.4,119,129.6z"/>
	<path fill="#F1E9B4" d="M131.3,134.9c2-0.4,3.9-0.9,5.8-1.6c1.1-1.4,2.8-2.6,3.2-4.4C137.2,130.7,133.6,132,131.3,134.9z"/>
	<path fill="#F4ECC5" d="M135.5,139.9c3.5-0.2,6.7-1.6,10-2.5c-0.5-1.5-3.4-0.3-2.1-2.8C140.5,135.9,136.3,136.3,135.5,139.9z"/>
	<path fill="#AAA286" d="M152.8,136.6c-1.6,0.3-5.4-1-5.7,0.7c0.9,0.2,1.7,0.4,2.6,0.6C151.1,138.1,153.6,139,152.8,136.6z"/>
	<path fill="#FAF8EC" d="M8,262.4c2,4.7,3.5,9.9,6.8,13.9c5.8,0.5,12.7-2.7,17.2,2.5c4.6,5.5,10.2-1.3,15.3-2.5
		c0.3-0.3,0.9-1,1.2-1.3c-1.7,0.7-7.6-1.6-3.5-1.8c9.5,0.6,1.3-1.2-0.9-2c-2.8-0.5-2.3-1.3,0.3-1.9c-1.4-0.6-5.1,0.8-4.2-1.7
		c1.9-1.8,4.8-1.7,7.1-0.8c0.3-0.8,0.6-1.5,0.9-2.3l-0.5-0.4c-2.9,1-3-1.7-0.3-2c1-0.8,1.9-1.7,3-2.2c0.5-0.1,1.4-0.3,1.8-0.4
		c1.7-0.3,3.7-0.2,5.2-1.2c-0.2-2.5-5.5-2.8-4.3-4.2c0.6-0.5,1.2-1,1.9-1.5c-7.5-0.4-15,0.6-22.3,2.2c-2.3-1.9,2.3-2.7,3.3-3.8
		c5.4-2.1,10.1-5.5,15.5-7.6c0.2-1.1,0.4-2.1,0.6-3.2c0.3-1.7,0.1-3.4-0.6-5c-0.7-3.7-3.9,0.6-1.8-4.3c3.2-7.5,14.4-4.3,17.6-12.2
		c-1.4,0-2.8,0.3-4,0.8c-1.5,1.3-3.5,2.5-5.3,1c-3.9-1.4-13.5,4-10.8,8.1c-2.7,1.8-6.7,3.2-6.7,7.1c-1.3,9.9,0-1.4-3.5-0.4
		c0.1,2.8-0.9,4.5-1.3,0.8c-2.2,4.5-6.6,6.8-11.2,8.4c1.4-2.4,2.9-4.7,4.5-7c8.1,0.6,7.7-11.4,15-12.5c3.7-1.5,6.8-4.1,10.2-6.3
		c0.1-3.1-2.9-3.2-4.9-1.7c-2.1-3.1,2.4-6.7,4-9c0.1,1.6-1.2,3.7,0.3,5c2.5-0.4,5.1-2.1,7.2,0.1c5.6,3.9,13.2,3,18.3,8
		c-2.3-0.7-3.5-0.2-2,2.1c2.1,2.9-0.3,4.1-3.2,4.2c4,3.7-5.2,4.6-7.1,6.5c-1.7,1.2-3.7,1.7-5.6,2.5c1.3,0.6,2.5,1.3,3.8,1.9
		c2.8,0.3,5.5,1.1,8.2,2.1c2,0.7,4,1.2,6.2,0.7c1.4-4.4,4.4-7.9,6.1-12.3c0.7-1.1,1.6-4.9,3.2-2.5c-0.1,1.3-0.4,3.8-0.6,5
		c-0.8,5-2.2,9.8-2.8,14.8c-0.7-0.9-1.4-1.7-2.2-2.6c0.8,4.7-4,7.4-3,12.1c-0.8,3.9-5.4-4.1-4-0.1c2.9,4.5-6.3,3.5-9,5.2
		c4,0.1,8,0.2,11.9,0.9c0.4,0,1.1,0.1,1.4,0.2c4.4,1-0.1-2.1,2-3.9c4.9-3.4,8.5-9.2,8.3-15.4c1.7,2.2,3.2,4.7,3,7.5
		c-3.1-1.4-2.2,0.8-1.9,3c-3.3,1.3-5.7,6.2-3.4,9.3c-0.8,0.4-1.6,0.8-2.3,1.1c0,1.7,1.1,2.4,2.6,2.6c-4.1,5.8-13.4,5.7-16.6,12
		c-0.1,0.5-0.4,1.4-0.6,1.8c-0.1,1.7-1.6,2.4-3.1,2.3l-0.2,0.7c-1.1,6-0.4,12.3-2.4,18.2c1.9-0.6,3.7-1.3,5.6-1.7
		c-3.2,5.1-6.1,8.7-6.6,15c3-0.2,4.9-3,7.5-4.3c-2.8,7.6-6.4,15.1-7.8,23.2c-2.2-3.2-2.4-7-3.2-10.7c-2.1-0.9-1.2,1.8-1.5,3
		c0,2.4,0,4.7-0.1,7.1c-0.6-1.4-1.1-2.8-1.3-4.3c-0.6-2.4-2.3-10.6-1.9-0.7c-2.5-1.7-0.9-5.4-1.5-7.7c2.7-6.6-3-4.3-2.8-0.8
		c0.2,0.7,0.4,1.3,0.8,2c-0.5-0.7-0.8-1.3-0.8-2c-1.6-5.8,4.5-11.6,5.3-17.3c-2.8,2.2-5.2,5-8.3,6.8c0.8-2.2,1.7-4.4,2.5-6.6
		c-5.3,2.5-8.1,7.9-10,13.2c1.4-1.1,2.7-2.3,4.1-3.4c-0.7,12.6,6.8,23.3,14.6,32.4c1.9,2.8-4.3,2.1-2.3,4.7
		c5.8,11.3,20.3,8.8,29.9,14.6c-0.2-3-0.4-8.9-4.2-9.8c-6,4.8-11.4-4.5-13.8-9.2c-0.1,1.2-0.3,2.4-0.5,3.7c-3.8-9-0.1-19.2,3.8-27.5
		c1.3-3,1.6,0.3,2,2c1.3-4.1,2.4-3.6,1.7,0.5c0.3,0.9,0.5,1.9,0.8,2.8c0.8-1.2,1.2-3,2.6-3.6c2.4,1.2,0.3,6.5,0.2,9.4
		c0,0.2,0,0.5,0,0.7c0.3,1.7-2.5,7.1,0.7,4.8c1.2-2.1,2.4-4.1,3.9-5.9c-0.7,2.4-1.8,4.6-3.1,6.8c-1.7,1.8-1.1,8.8-0.2,4
		c-0.1-3.5,1.9,1,3.1,1.8c0-6.8,5.7,7.3,6.7,5c-0.2-2.6-0.6-5.2-0.5-7.8c1.8,2.4,2.9,5.2,4,7.9c0.3-0.5,0.7-1.5,1-2.1
		c-1.1-3.7-2.1-7.4-2.9-11.2c-5.2-6-2.2-14.3,1.8-20.1c0.6,4.6-2,9-1.1,13.5c1.2-1.7,3.4-6.9,2.2,1.5c3,0.3,6.5-3.7,5.8,1.7
		c5-2,4.7-9.7,6.7-13.8c-0.2-0.5-0.8-1.5-1-2c-2.4,2.7-4.1,6.4-7.7,7.6c1.2-4.9,6-7.7,7.9-12.2c-0.3-0.9-0.5-1.8-0.8-2.7
		c-2.9,6.3-1.2-2.9-1.3-5.1c-2,2.8-3.8,5.7-5.8,8.5c-1.2,4.4-3.9,2.1-0.9-0.8l0.3-0.5c-1.3-0.6-1.4-2.5-0.2-3.2
		c2.8-10,7-21,17.5-25.2c-0.2-10.7-0.1-21.4-0.1-32l-0.8,0c-0.2,2.6-0.1,5.7-2.3,7.5c-1.7-4.6-0.6-9.5-0.3-14.3
		c-2.4,3.2-2.5,7.4-2.7,11.2c-1.1-3.5-0.9-7.2-1.5-10.8c-0.1-0.1-0.1-0.4-0.1-0.7c-0.4-2.1-0.8-4.3-1.2-6.3
		c-1.9,2.2-2.5,5.1-3.3,7.9c-2.9-9.5,6.3-15.5,7.4-24c-4.8-9-10.1,15.1-9.3,0.5c-1.8,1.6-3.8,4.6-4.8,0.3c-1-3.9-7.3-4.2-4.7-8.9
		c-1.1-1-1.6-2.8-0.3-3.8c0.2-0.9,1.9-3.8-0.1-2.3c-5.1,3.3,0.1-6.1,0.1-9c-3.6,2.6-4.3,7.4-6.4,11c-3.2-9.3,5.8-13.7,9.2-21
		c2.4-3.4,0.7,0.6,2.7,1.1c0.7-2,1.7-4,3.6-5.2c-0.4,1.8-1.6,3.5-1,5.4c2.4-1.7,2.4-5.4,4.9-6.8c1.7,2.2,3.4,4.6,7,3.5
		c-1.2,1.2-2.7,1.9-4.2,2.6c-0.2,2.2,4.3,5.1-0.1,4.6c-3.8,3.6,2,12.7,8.2,9.9c0.1-6.8-0.3-13.6,0.2-20.4v-4.8h0.5
		c0-0.4,0.1-0.9,0.1-1.2c-4.5-5.4-13-8.7-17.6-1.4c-4.9-0.8-3.3,4.2-5.2,6.5c-2.3,3.1-6.5,3.7-10.1,3.9c0-6.4,3.5-12,6.5-17.2
		c-0.6-1.6-3.7-1-5.1-2.4c3.2-0.7,7.9,1.2,8.9-3c3.7-0.5,7.2-2,10.8-2.7c0.4,4.2,5.6,0.3,8.5,0.4c-0.8,1.2-1.8,2.2-2.5,3.4
		c0.9,3.5,4.9-2.1,6.3,0.9c0,2.2-1.6,6,1.7,4.5c2.9-1.4,2.4,2.8,2.8,4.5c2.2,0.8,4.5,0.9,6.8,1.2c1.5-0.4,3.7-0.1,4.1-2
		c2.4-1.1,5.1-1.2,8.2-0.3c3.6,0.5,7.2,1,10.7,1.9c1.5,1.1,1.9,3.3,4.7,2.5c6.1-0.1,12.2-0.3,18.2,0.4c4.5,0.1,8.6,0.8,12.3,2.3
		c0.3,0.1,0.6,0.2,0.9,0.4c0.2-0.7,0.5-1.5,0.7-2.2c-2-4.2-13.6-0.1-8.9-4.9c4.3-5.6-17.3-5.2-4.9-7.4c4.2-1.2,2-5.5-1.6-5.2
		c-5.9,0-11.8,0.6-17.7-0.4c-1.5-0.3-3.1-0.7-4.1-1.9c1.2-1.5,2.9-2.4,3.7-4.2c-4.5,0.4-8.9,1.9-13.3,2.9c-2.6,2.3-5.6-0.2-2.6-1.3
		c4-2,12.6-1.8,11.7-8.2c-3.1-0.3-6.2,0.1-9.2,0.7c1.4-1.7,4-2.5,4.4-4.8c-5.1-3.5-12.8,10.3-12.3-0.3c-4.6-0.7-9.8,5.3-12.6,9.5
		c-2.8,4.3-0.9-4.7-1.2-6.6c0-0.1-0.1-0.2-0.1-0.3c-1.7-3.7-4.3,3.4-5.6,5.1c-2.8-1.7,0.1-5.6-0.5-8.2c-3.3,0.4-6,2.4-9.1,3.4
		c-0.7-2.7,4.1-4.3,1.7-6.5c-8.8,3-15.2,10.1-22.9,14.8c0.2-2.5,0.7-5,0.8-7.6c-3.7,0.7-2.6,5.3-3.6,7.9c-6.1,0.6-3.8,9.7-8,13.4
		c2.3,3.8-8.8,6.8-2.4,6.9c-1.6,1.7-3.4,3.2-5.1,4.7c0.2,0.2,0.7,0.6,0.9,0.8c5.2-0.7,0,5.4-0.1,8.2c2.3-0.6,4.5-1.4,6.8-1.7
		c-4.4,6.8-13.9,4-18.9,10.1c-3.7,4.9-7.1,10.1-8.2,15.7c-0.9,1.8-1.5,3.7-2.2,5.5c-2.9-0.6,1.1-6.9-1.9-3.9
		c-12.2,11.7-28.8,17.9-39.9,30.9c-4.6,1-0.7,10.9,1.8,7.5c-1.1-1.5-2.2-3.1-2.6-4.9c6.7,3.6,14,0.1,19.8-3.4
		c1,7.4-7.6,10.5-10.2,16.5c-1.6-1.3-2.6-3.1-3.8-4.7c-0.7-0.9-1.4-1.9-2.1-2.8c-1.8,2.1-0.6,4,1.5,5.2C7.6,259.9,8.1,261.1,8,262.4
		z M34.6,270.8C39.1,270.9,34.1,275.4,34.6,270.8L34.6,270.8z M33.7,263.4C38.5,261.7,33.6,267.7,33.7,263.4L33.7,263.4z
		 M25.5,268.3C29.3,267.4,24.6,272.1,25.5,268.3L25.5,268.3z M29.7,267.4C34,266.1,30.1,271.4,29.7,267.4L29.7,267.4z M26.3,262.6
		C31.3,262.1,25.9,267.5,26.3,262.6L26.3,262.6z M24.7,257.6C29.2,257.7,24.2,262.3,24.7,257.6L24.7,257.6z M85.1,315
		c-2.5-1.3,0.5-4.6,1.3-6.4C88.1,309,85.3,313.1,85.1,315z M88.5,329.1c-1.1-2.4-1.5-5.1,0.5-7.2C89.5,319.9,90.5,334.9,88.5,329.1z
		 M97.8,267.3c1,0.8,2,1.8,3.1,2.5c2.9-4,2.2-9.3,2.7-14c5.1,2.1,0.2-4.2-0.2-6.6c5.1,3.7,7.8,10.4,9.2,16.4
		c-3.3,3.1-3.7,7.8-7.7,11.3c-1.9,2.2-1,7.4-4.9,7.3c-2.2,0-1,4.9-3.3,4.1c-2.7-1.6-1.1,4.9-3.2,3.1c-2.8-3.3-3.9,7.6-5.8,2.4
		c-2.9,1.4-6.5,8.9-7.4,2.4c-1.7,1.7-2.2,4.2-4,5.9c0.7-8.5,6.8-15.3,14.2-18.9C97.2,280.5,97.2,273.2,97.8,267.3z M92.2,237.8
		C96.1,237.1,92.6,241.5,92.2,237.8L92.2,237.8z M142.4,162.4c5.3-0.6,10.8-0.1,15.9,1.5c1.1,1.7-3.8-0.4-3,1.4
		c1.8,2.6,6.1,2.8,8.2,5c-8.9-1-17-6.9-26.4-5C126.6,165.6,139.8,162.3,142.4,162.4z M72.2,213c1.6,0.1,4.7-0.7,4.9,1.5
		C75.7,216.4,71.7,215.8,72.2,213z M93.9,185.4c1.8,1.4-1.4,6.5-3.6,8c0.4-1.7,1.2-3.2,1.8-4.8c-2.6-0.4-7.8,1.4-9.1-1
		C86.6,187.5,90.5,187.1,93.9,185.4z M82.2,219.6c-1.7,0.1-3.7,0.4-4.3-1.6C79.5,217.9,81.6,217.6,82.2,219.6z M77.4,209
		C81.7,207.7,77.8,213,77.4,209L77.4,209z M62.2,208.8c1-3.9,2.1-7.7,3.6-11.4c2.3-0.9,3.2,1.3,3.4,3.2c3.1-0.4,5-3,7.4-4.7
		c1.7-0.9,3,1.2,3.8,2.4c1.3,3.4-4.7,3-3.1,6.3c1.5,6.9-7.3,0.4-10.6,0.1c-0.9,5.3-6.5,6.1-11.1,5.7C57.2,209,60.9,205.9,62.2,208.8
		z M52.7,202.6c1.3,0,0,5-1.9,5.6C51.2,206.2,51.8,204.3,52.7,202.6z M3.9,247.6c0.7-1.9,1.9-3.6,3.6-4.7
		C8.6,242.8,6.1,248.1,3.9,247.6z M21.4,262.5C25.7,262.4,19.7,267.3,21.4,262.5L21.4,262.5z M19,266.6C23,266.5,17.9,271,19,266.6
		L19,266.6z M14.9,260.8C19.4,260.7,14.8,265.6,14.9,260.8L14.9,260.8z"/>
	<path fill="#EDDBBB" d="M151.2,142.3c3.6,0,7.1,0,10.7,0C160.3,140.3,152.4,141.1,151.2,142.3z"/>
	<path fill="#BAAB81" d="M121.4,153.1c-0.4-2.2-0.5-4.5-1.2-6.6C120.5,148.4,118.6,157.4,121.4,153.1z"/>
	<path fill="#BAAB81" d="M120.3,146.5c0-0.1,0-0.3-0.1-0.3C120.2,146.3,120.2,146.4,120.3,146.5z"/>
	<path fill="#C5B37E" d="M56.6,148c2.3,0,4.6-0.1,6.8-0.4C61.4,147.6,57.4,146.1,56.6,148z"/>
	<path fill="#F4F0C6" d="M60.9,154.5c-1.1-3.5-8.5-3.2-7.8-6.5c-1.5-0.2-5.1,1.7-3,3.1C53.8,152.2,56.8,155.3,60.9,154.5z"/>
	<path fill="#F8F4E1" d="M48.3,185c2.1-0.6-1.7-0.8,0-1.9c2-4.8,5.9-6.9,11.1-7.7c0.1-1.5,0.3-3.1,1.4-4.2c-0.2-3.8,4.8-3.4,6.9-5.6
		c2.5-2.8,3.7-6.5,3-10.2c-5.2,2.2-10.9,5.2-13.4,10.6c-1,0.9-7.3-1.1-4.8,2c1.9,4.5-7.1,4.6-7.5,8.8c-0.5,7.8-6.8,11.9-12,16.6
		c0-0.4,0-1.2,0-1.6c-2.9,0.1-1.1,2.7,0.4,3.5c-1.1,2-2.1,4.7,0.1,6.3c0.2-1.2,0.3-2.4,0.7-3.5C37.1,192.2,42.4,187.9,48.3,185z"/>
	<path fill="#B6B194" d="M142.1,157.5c-0.9-0.5-1.7-0.9-2.6-1.3C136.5,157.3,139.5,159.8,142.1,157.5z"/>
	<path fill="#927835" d="M134,176.8c1,0,2,0,3,0c4.8-0.9,11.3,1.9,15.2-1.6c-3.5-0.9-7.1-1.4-10.7-1.9c-2.7,0.1-5.5,0.2-8.2,0.3
		c-0.4,1.9-2.6,1.6-4.1,2c-2.1,0-7.3,2.4-6.8-1.2c-0.3-1.8,0.1-5.9-2.8-4.5c-3.3,1.5-1.7-2.3-1.7-4.5c-1.4-3-5.4,2.7-6.3-0.9
		c0.8-1.2,1.7-2.3,2.5-3.4c-2.9-0.1-8.1,3.8-8.5-0.4c-3.7,0.7-7.1,2.2-10.8,2.7c-1,4.2-5.7,2.3-8.9,3c1.4,1.4,4.5,0.8,5.1,2.4
		c-3,5.2-6.6,10.8-6.5,17.2c3.6-0.2,7.8-0.8,10.1-3.9c1.9-2.3,0.3-7.3,5.2-6.5c4.6-7.3,13.1-4,17.6,1.4
		C122.9,178.1,128.5,176.2,134,176.8z"/>
	<path fill="#927835" d="M206.2,254.6c-1.4,7.5-0.4,15.2,1,22.6c0.5-0.6,0.9-1.2,1.4-1.9c0.7-1.4,0.1-7.2,2.4-4.5
		c2.4,0.9,5.8,9.1,7.7,4.6C218.8,266.5,212.4,260.1,206.2,254.6z"/>
	<path fill="#CBC09D" d="M155.9,160.6c5.8,1,11.8,0.4,17.7,0.4C167.7,159.8,161.8,160.6,155.9,160.6z"/>
	<path fill="#8E7D4B" d="M137.2,165.3c9.4-1.9,17.6,4,26.4,5c-2.1-2.2-6.5-2.4-8.2-5c-0.8-1.8,4.1,0.2,3-1.4
		c-5.1-1.6-10.6-2-15.9-1.5C139.8,162.3,126.6,165.6,137.2,165.3z"/>
	<path fill="#CBB88A" d="M60.7,171.2c-1.1,1.1-1.3,2.7-1.4,4.2C61.4,175.1,60.9,172.7,60.7,171.2z"/>
	<path fill="#C0AF92" d="M133.2,173.6c2.7-0.1,5.5-0.2,8.2-0.3C138.4,172.4,135.6,172.5,133.2,173.6z"/>
	<path fill="#DACC96" d="M129.2,175.6c-2.3-0.3-4.6-0.4-6.8-1.2C121.9,178,127,175.6,129.2,175.6z"/>
	<path fill="#7A755D" d="M137.1,176.8c0.2,0.3,0.6,0.8,0.8,1.3h19l0-0.4c-2.8,0.9-3.1-1.4-4.7-2.5
		C148.3,178.7,141.9,176,137.1,176.8z"/>
	<path fill="#7E7161" d="M134,176.8c-5.6-0.7-11.1,1.3-16.6,0.1c0,0.3-0.1,0.8-0.1,1.2h15.9C133.4,177.7,133.8,177.1,134,176.8z"/>
	<path fill="#D5D5C1" d="M137.1,176.8c-1,0-2,0-3,0c-0.2,0.3-0.6,0.9-0.9,1.3h4.7C137.6,177.7,137.3,177.2,137.1,176.8z"/>
	<path fill="#CBD5EE" d="M174.5,178.1c0.2,0,0.4,0,0.6,0c-6-0.7-12.1-0.5-18.2-0.4l0,0.4H174.5z"/>
	<path fill="#F6F3DB" d="M212.1,186.9c-3.8-5.5,7.6-2.7,4.2-5.6c-6.2-0.5-12-3.7-18.4-3.6C200.7,182.2,207.8,183.4,212.1,186.9z"/>
	<path fill="#627094" d="M116.8,182.9c-0.5,6.8-0.1,13.6-0.2,20.4l0.2,0V182.9z"/>
	<path fill="#0C1A4A" d="M204,197.3C204,197.3,204,197.3,204,197.3c-0.3-1.1-0.7-2.2-1-3.3c-0.2-0.4-0.7-1.2-1-1.5
		c-0.3-0.4-0.7-0.9-1-1.3c1,1.5,1.9,3.2,2.6,4.9C203.7,196.5,203.9,196.9,204,197.3z"/>
	<path fill="#83795C" d="M189,178.6c-0.2,0.7-0.5,1.5-0.7,2.2c3.5,1.5,6.5,3.5,9,6c1.4,1.4,2.6,2.8,3.7,4.4c0.3,0.4,0.7,0.9,1,1.3
		c2.4-0.1,4.7,0.3,7,1.2c0.1-0.3,0.3-0.8,0.4-1.1c-4.4-3.6-10.6-5.2-14.1-9.8C192.6,182.4,190.6,180.6,189,178.6z"/>
	<path fill="#E9DCA9" d="M34.2,180.4c-1.2-0.1-2.3,0-3.4,0c2.4,1.4,5,2.8,7.8,3C37.6,181.9,35.9,181.2,34.2,180.4z"/>
	<path fill="#E4CE94" d="M66.4,181c-0.2-0.2-0.7-0.6-0.9-0.8C61,181.3,63.4,183.9,66.4,181z"/>
	<path fill="#927935" d="M113.3,236.3l-0.5-0.1c-0.5,1.1-1,2.3-1.7,3.4c-2.4,4.9-0.7-6.6-0.5-7.8c0.7-2.7,4-3.6,5.6-5.6
		c0.1-0.3,0.3-0.8,0.5-1c0-7.3,0-14.5,0-21.8c-6.1,2.8-12-6.3-8.2-9.9c4.4,0.5-0.1-2.4,0.1-4.6c1.5-0.7,3-1.4,4.2-2.6
		c-3.6,1.1-5.3-1.3-7-3.5c-2.5,1.3-2.6,5-4.9,6.8c-0.3,1.7-1.3,2.4-2.9,1.6c-0.6,2.3-1.1,4.6-2.5,6.5c-0.1-3.2,0.8-6.3,0.2-9.5
		c-3.4,7.2-12.5,11.7-9.2,21c2.2-3.7,2.8-8.4,6.4-11c0,3-5.2,12.3-0.1,9c2-1.5,0.3,1.3,0.1,2.3c1.3,0.9,1.4,2.7,0.3,3.8
		c-2.7,4.6,3.7,5,4.7,8.9c1,4.3,3,1.3,4.8-0.3c-0.8,14.6,4.5-9.5,9.3-0.5c-1.1,8.5-10.3,14.5-7.4,24c0.8-2.7,1.4-5.6,3.3-7.9
		c2.9-2.1,1.1,4.1,1.2,6.3c0,0.2,0.1,0.4,0.1,0.7c0.7,3.6,0.5,7.3,1.5,10.8c0.2-3.8,0.3-8,2.7-11.2c-0.3,4.8-1.3,9.7,0.3,14.3
		c2.2-1.8,2.2-4.9,2.3-7.5c0-3.5-0.1-6.9-0.1-10.4C113.7,239.9,113,238.3,113.3,236.3z"/>
	<path fill="#A1936B" d="M100.8,189.4c-0.5-1.9,0.6-3.6,1-5.4c-1.9,1.2-2.9,3.1-3.6,5.2c-0.1,0.5-0.3,1.4-0.4,1.8
		C99.4,191.8,100.4,191.1,100.8,189.4z"/>
	<path fill="#8E8256" d="M92.1,188.6c-0.6,1.6-1.5,3.1-1.8,4.8c2.2-1.5,5.5-6.6,3.6-8c-3.4,1.7-7.2,2.1-10.9,2.2
		C84.3,190,89.5,188.2,92.1,188.6z"/>
	<path fill="#05287B" d="M188.9,234.7L188.9,234.7C188.9,234.7,188.8,234.7,188.9,234.7L188.9,234.7
		C188.8,234.7,188.9,234.7,188.9,234.7z"/>
	<path fill="#05287B" d="M204.9,200.3c0-0.5-0.1-1-0.1-1.5c-0.2-0.4-0.6-1.1-0.8-1.5c0,0,0,0,0,0
		C204.4,198.3,204.7,199.3,204.9,200.3z"/>
	<path fill="#F2EAC8" d="M54.3,186.8c-4.6,5.1-5.8,13.1-12.4,16c2.8-0.4-0.7,4,2,2.4c4.3-6,10.2-10.6,14.3-16.7
		C56.2,187.9,57.6,185.6,54.3,186.8z"/>
	<path fill="#EADFAE" d="M95.3,197.6c1.5-1.9,2-4.3,2.5-6.5c0.1-0.5,0.3-1.4,0.4-1.8c-2-0.6-0.4-4.5-2.7-1.1
		C96.1,191.3,95.2,194.4,95.3,197.6z"/>
	<path fill="#B9B7A6" d="M212.1,186.9c-0.4,0.2-1.2,0.6-1.6,0.8C211.9,189.9,216.5,187.2,212.1,186.9z"/>
	<path fill="#EFE0B2" d="M48.4,189.1c-4.1-0.1-5.9,4.5-7.6,7.6C43.5,194.4,47.2,192.6,48.4,189.1z"/>
	<path fill="#F5EECB" d="M202,192.5c0.2,0.4,0.7,1.2,1,1.5c2.3,1.9,4.7,3.6,7.2,5.2c-0.2-2.1-5.1-5.3-1.3-5.5
		C206.7,192.8,204.4,192.4,202,192.5z"/>
	<path fill="#142050" d="M161.9,226.2l-0.8-0.1c0,0.1-0.1,0.3-0.2,0.4h0.9C161.9,226.4,161.9,226.3,161.9,226.2z"/>
	<path fill="#142050" d="M140.5,196.6c6.5,0,13-0.3,19.6,0.1l0.7,0.2c4.1,0,10.3-1.2,13.5,1.4c2.9,0.7,5.1,2.6,6.5,4.9
		c-0.6-1.3-1.5-2.4-2.5-3.3c-2.7-2.3-6.7-3.5-12.1-3.5h-25.8v30.1h0.2C140.5,216.5,140.4,206.6,140.5,196.6z"/>
	<path fill="#142050" d="M165.3,226.1c0,0.1,0,0.3,0,0.4h0.8c0-0.1-0.1-0.2-0.1-0.3L165.3,226.1z"/>
	<path fill="#927836" d="M204,197.3c0.2,0.4,0.6,1.1,0.8,1.5c2.6,5.3,3,11.8,4.8,17.6c-1.4-0.2-2.8-0.5-4.2-0.9
		c-0.1,0.4-0.4,1.2-0.6,1.6c1.6,3.6,4,7.2,3,11.4c-4,3.8-9.9,4.3-14.9,6.2c-0.2,0.3-0.5,0.9-0.7,1.3c5.3,2.7,8.9,7.7,10.5,13.4
		c4.3,3.2,7.9,7.3,12.3,10.4c0.5,0.3,1.4,0.9,1.9,1.2c-1.6-4-5.3-7-7.7-10.5c-1.1-1.1-2.2-2.2-3.2-3.4c2.5,0.1,5.1,0.2,7.7,0.1
		c-0.3-3-1.8-5.6-2.5-8.4c0.3-3.6,5.7,1.7,6.2-0.5c-0.6-3.2-0.5-6.4,0-9.6c-1.5-7,1.5-3.8,4.4-2.2c0.2-4.6-2.9-8.3-4.5-12.4
		c-0.7-1.6-1.2-3.2-1.4-4.9c1.8,0.8,3.5,1.8,5.1,2.9c0.5,0.3,1.4,1,1.8,1.4c0.2-0.2,0.6-0.7,0.7-1c-0.7-6.8-8.3-9.9-13.4-13
		c-2.5-1.6-5-3.3-7.2-5.2C203.3,195.1,203.7,196.2,204,197.3z"/>
	<path fill="#907A3D" d="M66.7,204.8c3.3,0.3,12.2,6.8,10.6-0.1c-1.6-3.4,4.4-3,3.1-6.3c-0.8-1.2-2.1-3.3-3.8-2.4
		c-2.4,1.7-4.4,4.3-7.4,4.7c-0.2-1.9-1.1-4.1-3.4-3.2c-1.6,3.7-2.6,7.5-3.6,11.4c-1.3-2.9-5,0.2-6.5,1.7
		C60.2,210.9,65.8,210.1,66.7,204.8z"/>
	<path fill="#F5EED0" d="M40.7,196.7c-2,0.7-4.8,0.8-5.5,3.2c1,0.4,2,1,3.1,1.3c2.3-0.7,4.5-1.2,6.9-1.6
		C44,198.1,42.4,197.3,40.7,196.7z"/>
	<path fill="#7D7768" d="M146.1,225.5c-1.8,0.9-3.8,0.8-4.3-1.5c-1-8.2-0.4-16.5-0.4-24.8c5.6-3.2,12.8-1.7,18.9-1.2
		c-0.1-0.3-0.2-1-0.2-1.4c-6.5-0.4-13,0-19.6-0.1c-0.1,10-0.1,19.9,0,29.9h5.9C146.3,226.1,146.1,225.7,146.1,225.5z"/>
	<path fill="#F5F5ED" d="M174.2,198.3c-4.5-0.1-9.1,0-13.5-1.4l-0.7-0.2c0.1,0.3,0.2,1,0.2,1.4c3.8,3.9,10,3.2,14,6.4
		c-5.3,0.4-0.9,4.4,1.8,5.2c-5.9,1.4-4.6,7.6-4.4,12.4c-3.1-1.3-5.9-2.3-5.2,2.3c0,2.2,2.1,1.8,3.8,1.8c3.4-0.5,6-1.6,8-3.3
		c2.7-2.4,4-6.3,4-11.7c0-3.2-0.5-5.9-1.6-8C179.3,200.8,177.2,199,174.2,198.3z"/>
	<path fill="#6E7175" d="M160.7,196.9c4.3,1.4,9,1.3,13.5,1.4C171,195.6,164.8,196.9,160.7,196.9z"/>
	<path fill="#95772E" d="M171.6,222.1c-0.2-4.8-1.5-11,4.4-12.4c-2.7-0.9-7.1-4.9-1.8-5.2c-4-3.2-10.2-2.5-14-6.4
		c-6.1-0.5-13.3-2.1-18.9,1.2c0,8.2-0.6,16.6,0.4,24.8c0.5,2.3,2.5,2.5,4.3,1.5c-0.5-3.6,1.5-3.8,1.2-0.1c3.7,0.3,7.5,0.2,11.2-0.1
		c-0.5-4.2,1.4-0.9,2.6,0.8l0.8,0.1c-0.2-3.8-1.6-7.3-2.5-10.9c2.7,3.1,4.1,7.1,5.8,10.8l0.7,0.1c0.1-0.5,0.3-1.4,0.4-1.8
		C165.7,219.8,168.6,220.8,171.6,222.1z"/>
	<path fill="#AEAAA1" d="M33.4,201.6c-0.3,2.9,3.2,1.5,1.4-0.8c-0.3-0.9-0.5-1.8-0.7-2.7C33.7,199.2,33.5,200.4,33.4,201.6z"/>
	<path fill="#E5E1D6" d="M205.8,207.6c0,1.9-0.1,3.6-0.4,5.3c0,0.8,0,1.7,0,2.5c1.4,0.4,2.8,0.7,4.2,0.9c-1.8-5.8-2.1-12.2-4.8-17.6
		c0,0.5,0.1,1,0.1,1.5C205.5,202.7,205.8,205.1,205.8,207.6z"/>
	<path fill="#A3A193" d="M52.7,202.6c-0.9,1.8-1.5,3.7-1.9,5.6C52.7,207.5,54,202.6,52.7,202.6z"/>
	<path fill="#41434B" d="M116.8,225.1v-21.9l-0.2,0c0,7.3,0,14.5,0,21.8L116.8,225.1z"/>
	<path fill="#917C42" d="M59.3,227.8c2.9-1.7,5.5-4.3,8.8-4.9c1.4-0.5,3.7,1.8,1.6,2.4c-3.4,1.6-5.7,8.3-9.8,5.3
		c-4.8,4.1,4.1,3.8,6.8,3.2c1.9-1.8,11-2.8,7.1-6.5c2.9-0.1,5.3-1.3,3.2-4.2c-1.4-2.3-0.3-2.8,2-2.1c-5.1-5-12.7-4.1-18.3-8
		c-2.2-2.3-4.8-0.6-7.2-0.1c-1.5-1.3-0.1-3.4-0.3-5c-1.6,2.4-6.1,5.9-4,9c2-1.5,5.1-1.4,4.9,1.7c-3.3,2.1-6.4,4.8-10.2,6.3
		c-7.2,1-6.9,13.1-15,12.5c-1.6,2.3-3.1,4.6-4.5,7c4.6-1.6,9-3.8,11.2-8.4c0.4,3.7,1.5,2,1.3-0.8c3.5-0.9,2.2,10.3,3.5,0.4
		c0-3.9,4-5.3,6.7-7.1c-2.7-4,6.8-9.5,10.8-8.1c1.7-0.8,3.4-2,5.3-1c1.3-0.5,2.7-0.8,4-0.8c-3.3,7.9-14.5,4.7-17.6,12.2
		c2.5-1.5,5-3.1,7.7-4.4C58.5,225.9,59.3,226.5,59.3,227.8z"/>
	<path fill="#86836C" d="M77.4,209C77.8,213,81.7,207.7,77.4,209L77.4,209z"/>
	<path fill="#F0E8B4" d="M217.4,213.9c1.2-0.7,2.4-1.4,3.7-2c-1.6-1.2-3.3-2.2-5.1-2.9C216.3,210.6,216.7,212.3,217.4,213.9z"/>
	<path fill="#C3B589" d="M92.7,209.4c-1.3,1-0.9,2.8,0.3,3.8C94,212.1,94,210.3,92.7,209.4z"/>
	<path fill="#1A2B5D" d="M201.8,223.9c-2.6,4.6-7,8.1-13,10.5v0.3c0,0,0,0,0,0c0.4-0.2,1.2-0.6,1.6-0.9c7.6-2.6,12.1-9.5,14.4-16.8
		c0.1-0.4,0.4-1.2,0.6-1.6c0-0.8,0-1.7,0-2.5C204.8,217,203.7,220.7,201.8,223.9z"/>
	<path fill="#908255" d="M42,214.9c3-3-1,3.3,1.9,3.9c0.7-1.9,1.3-3.8,2.2-5.5c-1.1-0.1-2.3-0.1-3.4-0.2
		c-13.1,10.8-33.4,15.7-40.5,32.7C13.2,232.8,29.8,226.6,42,214.9z"/>
	<path fill="#8C8969" d="M72.2,213c-0.5,2.8,3.5,3.3,4.9,1.5C76.8,212.3,73.7,213.1,72.2,213z"/>
	<path fill="#EADFBC" d="M165.3,226.1c-1.7-3.7-3.1-7.7-5.8-10.8c0.9,3.6,2.3,7.1,2.5,10.9c0,0.1,0,0.2,0,0.3h3.3
		C165.3,226.4,165.3,226.2,165.3,226.1z"/>
	<path fill="#F0F1E6" d="M190.5,233.8c0.8,0.3,1.7,0.5,2.5,0.8c5-1.9,10.9-2.3,14.9-6.2c1-4.2-1.4-7.8-3-11.4
		C202.6,224.3,198,231.2,190.5,233.8z"/>
	<path fill="#8D8D79" d="M77.8,217.9c0.6,2,2.6,1.7,4.3,1.6C81.6,217.6,79.5,217.9,77.8,217.9z"/>
	<path fill="#C3BE99" d="M58.1,220.5c1.8,1.5,3.8,0.4,5.3-1C61.5,218.4,59.7,219.7,58.1,220.5z"/>
	<path fill="#E9D5AA" d="M146.1,225.5c0.1,0.2,0.2,0.6,0.3,1h0.6c0.1-0.4,0.3-0.8,0.4-1.1C147.6,221.7,145.6,222,146.1,225.5z"/>
	<path fill="#F6F0D0" d="M59.9,230.6c4.1,3,6.4-3.7,9.8-5.3c2.1-0.7-0.2-2.9-1.6-2.4c-3.4,0.6-5.9,3.3-8.8,4.9c-1.3,1.5-2.8,3-2.9,5
		c1.2,1.7,3,2.6,4.8,3.4c1.9-0.7,3.9-1.3,5.6-2.5C64.1,234.4,55.1,234.7,59.9,230.6z"/>
	<path fill="#D7CCB7" d="M158.5,225.3c0,0.3,0,0.8,0,1.2h2.5c0.1-0.1,0.1-0.2,0.2-0.4C159.9,224.4,158,221.1,158.5,225.3z"/>
	<path fill="#9EA4C2" d="M170.2,226.2c-1.6,0-3.8,0.4-3.8-1.8c-0.1,0.5-0.3,1.4-0.4,1.8c0,0.1,0,0.2,0.1,0.3h0
		C167.6,226.5,168.9,226.4,170.2,226.2z"/>
	<path fill="#937832" d="M67,260.6c2.7-1.7,12-0.7,9-5.2c-1.4-4,3.3,4,4,0.1c-1-4.7,3.8-7.4,3-12.1c0.8,0.8,1.5,1.7,2.2,2.6
		c0.5-5,1.9-9.9,2.8-14.8c0.1-1.3,0.4-3.8,0.6-5c-1.6-2.4-2.5,1.4-3.2,2.5c-1.6,4.3-4.7,7.9-6.1,12.3c-2.2,0.5-4.2,0-6.2-0.7
		c-4.6,0-9.2-0.6-13.8-0.6c-3.3,2.3,5.2,4.4,5.5,4.8c-2.6,2-9.3,0-13.2-1c-5.4,2.1-10.1,5.5-15.5,7.6c-1,1.1-5.6,1.8-3.3,3.8
		c7.3-1.6,14.8-2.6,22.3-2.2c1.8,0,3.5,0.5,5,1.5c-2.3,0.1-4.6,0-6.9,0c-1.2,1.3,4,1.7,4.3,4.2c-1.6,1-3.5,0.9-5.2,1.2
		C57,261.2,62,260.8,67,260.6z"/>
	<path fill="#646F93" d="M116.8,225.1l-0.2-0.1c-0.1,0.3-0.3,0.8-0.5,1c0.5,4.7,0.5,9.4,0.4,14.1c0,3.6,0.1,7.1,0.1,10.7
		c0,10.7-0.1,21.4,0.1,32c0,0,0.1-0.1,0.1-0.2V225.1z"/>
	<path fill="#7C7463" d="M147.3,225.4c-0.1,0.3-0.2,0.7-0.4,1.1h11.6c0-0.4,0-0.9,0-1.2C154.8,225.6,151,225.7,147.3,225.4z"/>
	<path fill="#AEAD85" d="M57.4,226.6c1.2,1.8-1.7,3-2.6,4.3c0.5,0.6,1,1.3,1.5,1.9c0.2-2.1,1.6-3.6,2.9-5
		C59.3,226.5,58.5,225.9,57.4,226.6z"/>
	<path fill="none" stroke="#BDB793" stroke-width="0" stroke-linecap="round" stroke-linejoin="round" d="M88.6,226.1
		c-0.1,1.3-0.4,3.8-0.6,5"/>
	<path fill="#F7F7E9" d="M110.6,231.7c0.2,2.6,0.3,5.2,0.5,7.8c0.6-1.1,1.1-2.2,1.7-3.4c-0.4-4.2,3.2-2.9,0.5,0.1
		c-0.2,2,0.4,3.6,2.5,4.2l0.8-0.3c0.1-4.7,0.1-9.4-0.4-14.1C114.6,228.1,111.4,229.1,110.6,231.7z"/>
	<path fill="#E9E3C6" d="M54.8,230.9c0.9-1.4,3.8-2.5,2.6-4.3c-2.7,1.3-5.1,2.9-7.7,4.4c-2.1,4.9,1.1,0.6,1.8,4.3
		C51.4,233,53.4,232.1,54.8,230.9z"/>
	<path fill="#D8CBA2" d="M217.5,238c0.6-3.2,0.3-6.4,0-9.6C217,231.6,216.8,234.8,217.5,238z"/>
	<path fill="#8B7945" d="M56.8,237.9c2.3-2.7,5.3,1.1,8.1,0.2c-1.3-0.6-2.5-1.3-3.8-1.9c-1.8-0.8-3.6-1.8-4.8-3.4
		c-0.5-0.6-1-1.3-1.5-1.9c-1.4,1.2-3.4,2.2-3.3,4.3c0.8,1.6,0.9,3.3,0.6,5C54,241.3,55.4,238.8,56.8,237.9z"/>
	<path fill="#BAA47A" d="M111.1,239.5c-0.2-2.6-0.3-5.2-0.5-7.8C110.4,233,108.7,244.5,111.1,239.5z"/>
	<path fill="#AEAEA7" d="M112.8,236.2l0.5,0.1C116,233.2,112.4,231.9,112.8,236.2z"/>
	<path fill="#83969D" d="M188.9,234.7L188.9,234.7c1,0.3,1.9,0.6,2.8,1c0.2,0.1,0.4,0.1,0.7,0.2c0.2-0.3,0.5-0.9,0.7-1.3
		c-0.8-0.2-1.7-0.5-2.5-0.8C190.1,234.1,189.3,234.5,188.9,234.7z"/>
	<path fill="#222F55" d="M196,238.4c1.9,1.6,3.4,3.6,4.6,5.8c1.2,2.2,2.1,4.7,2.6,7.4c0.5,2.3,0.8,4.6,1,6.9
		c-0.1-2.1-0.2-4.1-0.5-6.1c-0.4-1-0.7-2.1-1-3.2c-1.6-5.7-5.2-10.7-10.5-13.4c-0.2-0.1-0.4-0.1-0.7-0.2
		C193.3,236.4,194.8,237.3,196,238.4z"/>
	<path fill="#222F55" d="M185.7,285.5c1.4,0,4.3-0.1,5.7-0.1c1.4,0,4.3,0,5.8,0c3.3,0,6.6,0,10,0c1.1,0.3,1.4,0.1,1.3-0.4h-22.9
		C185.6,285.2,185.7,285.3,185.7,285.5z"/>
	<path fill="#222F55" d="M206.9,281.2c-0.3-1-0.6-2-0.8-3.1c0.1,0.5,0.2,0.9,0.3,1.4C206.6,280.1,206.8,280.7,206.9,281.2z"/>
	<path fill="#F4EFCE" d="M64.8,244.4c-0.3-0.4-8.8-2.5-5.5-4.8c4.6,0,9.2,0.6,13.8,0.6c-2.7-1-5.4-1.8-8.2-2.1
		c-2.8,0.8-5.8-2.9-8.1-0.2c-1.4,0.9-2.8,3.4-4.6,2.3c-0.2,1.1-0.3,2.1-0.6,3.2C55.5,244.4,62.1,246.4,64.8,244.4z"/>
	<path fill="#C6B884" d="M107.6,237.5c0.4,2.1,0.7,4.2,1.2,6.3C108.8,241.6,110.5,235.3,107.6,237.5z"/>
	<path fill="#C6B884" d="M109,244.5c0-0.2-0.1-0.4-0.1-0.7C108.8,244.1,108.9,244.4,109,244.5z"/>
	<path fill="#978D76" d="M92.2,237.8C92.6,241.5,96.1,237.1,92.2,237.8L92.2,237.8z"/>
	<path fill="#CBC2BC" d="M115.7,240.5c0,3.5,0.1,6.9,0.1,10.4l0.8,0c0-3.6,0-7.1-0.1-10.7L115.7,240.5z"/>
	<path fill="#162454" d="M140.5,243.5c0.4,0,1.2,0,1.6-0.1c0.7,0,2,0.1,2.7,0.1c9.4,0.9,19.4-1.9,28.5,1.5c4.7,1.7,6.9,7,7.6,11.6
		c0.3,1,0.6,2.1,0.8,3.1c0-0.1,0-0.2,0-0.4c-0.8-5.6-2.5-9.7-5.1-12.3c-2.6-2.6-6.8-3.9-12.7-3.9h-23.5v40.7
		c0.1-0.5,0.3-1.1,0.4-1.6C140.3,269.4,140.4,256.4,140.5,243.5z"/>
	<path fill="#162454" d="M124.3,285.5c5.2-0.2,10.3-0.1,15.5,0.1c0.1-0.2,0.1-0.4,0.2-0.5h-22.1C119.6,286,122.3,285.3,124.3,285.5z
		"/>
	<path fill="#162454" d="M116.8,284v-1.3c0,0-0.1,0.1-0.1,0.2l-0.1,0.7C116.7,283.7,116.7,283.8,116.8,284z"/>
	<path fill="#AEAE8F" d="M7.5,242.9c-1.7,1.1-2.9,2.8-3.6,4.7C6.1,248.1,8.6,242.8,7.5,242.9z"/>
	<path fill="#958751" d="M88.3,262.2c-2.3-3.1,0.1-8.1,3.4-9.3c-0.3-2.2-1.2-4.3,1.9-3c0.2-2.9-1.4-5.4-3-7.5
		c0.2,6.2-3.4,12-8.3,15.4c-2.1,1.8,2.4,4.9-2,3.9c1.9,0.5,3.8,1.1,5.7,1.7C86.8,263,87.6,262.6,88.3,262.2z"/>
	<path fill="#FBFBF5" d="M183,272.9c0-0.2,0-0.5,0-0.7c-1-1.2-0.8-2.8-0.3-4.1c-0.3-2.8-0.6-5.6-0.9-8.3c-0.2-1-0.5-2.1-0.8-3.1
		c-4.1-2.7-6.6-6.9-7.6-11.6c-9.1-3.5-19-0.6-28.5-1.5c-1.1,4.1-3.5,5.1-2.7-0.1c-0.4,0-1.2,0-1.6,0.1c-0.1,12.9-0.2,25.9,0.2,38.8
		c0.8-3.3,2.3-6.4,4-9.4c2.6,1.3,1,5,1.9,7c2.3-6,2.4-13,5.3-18.5c0.1,2.2,0.2,4.3,0.2,6.5c0.4,1.1,1.1,3.4,1.5,4.6
		c2-2.3,3.5-4.9,5.7-7c0,8.2-3.4,15.7-5.9,23.3c-0.2,1.5-1.1,1.5-2.2,0.8c-2.4,5.2-3.2-0.5-1.3-3.3c-0.5-0.3-1.4-0.8-1.9-1
		c-1.2,2.2-2.4,4.4-3.6,6.6c0.3,1-0.6,3.4,1.1,3.1c6.6-0.4,13.2,0.3,19.8-0.3c2.4-6.3,4.3-12.9,5.9-19.5c1.7,5.6,1.3,12.3,5.2,16.9
		c0.1-2.2,0.3-4.4,0.3-6.6c-0.2-4-0.1-8,0-12c-0.1-1.1-0.1-2.1-0.2-3.2c7.1,5.2,3.9,15.7,8,22.5c0.6-2.5,0.8-5,1-7.5
		c-0.1-0.1-0.1-0.3-0.2-0.4h-0.2C184.1,281.6,183.3,277.6,183,272.9z"/>
	<path fill="#828188" d="M144.8,243.5c-0.7,0-2-0.1-2.7-0.1C141.3,248.6,143.6,247.6,144.8,243.5z"/>
	<path fill="#917A40" d="M10.6,250.7c-2,1.4-2.8,3.7-3.4,6c1.2,1.6,2.2,3.4,3.8,4.7c2.7-6,11.3-9,10.2-16.5
		c-5.8,3.6-13.2,7-19.8,3.4c0.4,1.8,1.5,3.4,2.6,4.9l0.8,0.1C2.3,249.2,8.4,251.3,10.6,250.7z"/>
	<path fill="#817768" d="M173.2,245.1c1,4.7,3.6,9,7.6,11.6C180.1,252.1,177.9,246.8,173.2,245.1z"/>
	<path fill="#ECDEB6" d="M206.2,246.9c1,1.2,2.1,2.3,3.2,3.4c-0.2-2.5,4-0.5,4.5-3.3C211.3,247,208.7,247,206.2,246.9z"/>
	<path fill="#937A38" d="M90.5,283.1c-7.4,3.6-13.6,10.4-14.2,18.9c1.7-1.6,2.2-4.2,4-5.9c0.9,6.5,4.4-1,7.4-2.4
		c1.9,5.2,3-5.7,5.8-2.4c2.1,1.8,0.5-4.7,3.2-3.1c2.3,0.8,1.1-4.1,3.3-4.1c3.9,0.1,3-5.1,4.9-7.3c4-3.5,4.4-8.2,7.7-11.3
		c-1.4-5.9-4.1-12.7-9.2-16.4c0.4,2.3,5.3,8.6,0.2,6.6c-0.5,4.7,0.2,9.9-2.7,14c-1.1-0.8-2-1.7-3.1-2.5
		C97.2,273.2,97.2,280.5,90.5,283.1z"/>
	<path fill="#F6EBCA" d="M203.8,252.4c0.8,0.7,1.6,1.4,2.4,2.2c6.1,5.5,12.6,11.9,12.6,20.8c3.3-2.9-3-9-1-13
		c-2.3,1.5-4.3-0.6-2.6-2.8c-4.5-3-8-7.2-12.3-10.4C203.1,250.3,203.4,251.4,203.8,252.4z"/>
	<path fill="#E7E1B9" d="M10.6,250.7c-2.1,0.6-8.2-1.5-5.8,2.6L5,254c0.7,0.9,1.4,1.9,2.1,2.8C7.7,254.4,8.5,252.2,10.6,250.7z"/>
	<path fill="#E0C998" d="M60.1,254c-1.5-1-3.3-1.5-5-1.5c-0.6,0.5-1.2,1-1.9,1.5C55.5,254.1,57.8,254.1,60.1,254z"/>
	<path fill="#797762" d="M206.2,254.6c-0.8-0.8-1.6-1.5-2.4-2.2c0.2,2,0.4,4.1,0.5,6.1c0,0.4,0.1,0.8,0.1,1.2c0.1,1.7,0.2,3.7,0.3,6
		c0.1,2.3,0.3,4.6,0.5,7c0.2,1.9,0.5,3.7,0.9,5.5c0.2,1,0.5,2,0.8,3.1c0.2,0.6,0.4,1.1,0.7,1.7c0.3-2.5,1.2-5,0.9-7.5
		c-0.4,0.6-0.9,1.2-1.4,1.9C205.8,269.8,204.8,262.1,206.2,254.6z"/>
	<path fill="#A09D8F" d="M24.7,257.6C24.2,262.3,29.2,257.7,24.7,257.6L24.7,257.6z"/>
	<path fill="#B2B29B" d="M8,262.4c0.2-1.3-0.4-2.5-1.4-3.2l-0.3,0.5c0,1.2,0.1,2.5,0.7,3.7C7.1,263.1,7.7,262.6,8,262.4z"/>
	<path fill="#EDDEB4" d="M59,262.5c2.8-0.4,5.6-0.8,8.3-1.1l-0.3-0.9c-4.9,0.3-10,0.6-14.7-1.2c-0.5,0.1-1.4,0.3-1.8,0.4
		c5.5,3,10.1,7.3,15.2,10.9C64.4,267.2,61.8,264.7,59,262.5z"/>
	<path fill="#F9F6E5" d="M42.2,304.3c-0.8-1.3-1.1-3,0-4.3c-5.4-2.4-10.5,4.3-15.3,1.9c-2.4-2,1.9-10.7,2-5.1
		c4.8-0.8,9.2-2.6,13.7-4.2c-4.4-5.6-10.6-9.7-17.1-12.3c-3.4-1.8-7.7,1.4-10.7-1.6c0.7,2.1,1.3,4.3,1.8,6.4l0.5,0.2
		c10,0.6-9.3,10.8-2.4,3.3c-0.2-0.2-0.6-0.6-0.9-0.7c-0.7,0-3.2,1.7-2.5,0c4.4-8.1-3.1-16.6-4.5-24.6c-0.5-1.2-0.7-2.4-0.7-3.7
		c-0.7,11.9,5.5,22.9,4.5,35.8c2.4-1.8,3.5-3.9,2.4,0.3c4,2.5-2,0.4,0.6,2.8c1.6,2.3,3.1,4.6,4.9,6.7c-1.5-3.4,0.8-10.5-4.3-10.5
		c1.2-4.5,7.2-4.2,7.8,0.3c3.3-5.6,2.9,3.1,2.1,6c-1-1.4-1.8-3-3-4.3c-1.2,2.6-1.1,5.5-1.1,8.3c1.8,0.9,0.3-3.6,1.4-2.1
		c0.7,3.2,4.2-3.4,4.7,0.2c0.1,2.2,4.5,2.6,4.9,0.5c3.8,2.6,9.5-6.9,9.2-0.3c-4.3,9.8-8.6,22.1-2.9,31.4c1.3,0.1-0.7-2.7,0.7-3.7
		C34.1,322.4,39.9,312.8,42.2,304.3z"/>
	<path fill="#927731" d="M88.6,266c-1.6-0.2-2.7-1-2.6-2.6c-1.9-0.6-3.8-1.2-5.7-1.7c-0.4,0-1.1-0.1-1.4-0.2c-3.9,0-7.8,0-11.6,0
		c-2.8,0.3-5.6,0.7-8.3,1.1c2.8,2.1,5.4,4.7,6.8,8.1c-5.1-3.6-9.8-7.8-15.2-10.9c-1.2,0.5-2.1,1.4-3,2.2c0.5,0.6,0.6,1.3,0.3,2
		l0.5,0.4c7.9,4.4,14.5,12.6,23.8,13.7C75.2,271.6,84.5,271.8,88.6,266z M75.6,264.1c1.3,0.1,2.6,4.4-0.1,3.2
		C73.6,267.6,75.5,265,75.6,264.1z"/>
	<path fill="#949277" d="M14.9,260.8C14.8,265.6,19.4,260.7,14.9,260.8L14.9,260.8z"/>
	<path fill="#BEA977" d="M78.9,261.4c-3.9-0.7-8-0.8-11.9-0.9l0.3,0.9C71.2,261.5,75.1,261.4,78.9,261.4z"/>
	<path fill="#927A39" d="M148,285.3c1.2-2.1,2.5-4,4.1-5.8c-0.2,2.4-1.1,4.7-2.2,6.8c-1.9,2.8-1.1,8.5,1.3,3.3
		c0.3-4.3,2-9.4,2.2-0.8c2.5-7.6,5.9-15.1,5.9-23.3c-2.2,2.1-3.8,4.7-5.7,7c-2.5,3.6-1.5-2-1.5-4.6c0-2.2-0.1-4.4-0.2-6.5
		c-3,5.5-3,12.5-5.3,18.5c-0.9-2.1,0.8-5.7-1.9-7c-1.7,3-3.2,6.1-4,9.4c-0.1,0.5-0.2,1.1-0.4,1.6v1.1H140c-0.1,0.2-0.1,0.4-0.2,0.5
		c-1.2,3-2.4,6-3.5,9.1l-0.2,0.9c0.1,0,0.1,0,0.2,0.1h6.6c0.5-1.2,0.9-2.5,1.5-3.7C145.6,289.7,146.8,287.5,148,285.3z"/>
	<path fill="#957833" d="M144.3,320.5h-19.4c-0.5,2.6-3.2,4-2.8,0c-0.1,0-0.2,0-0.3,0h-4.1v-17c-1.9,2.8-3.5,5.9-5.9,8.2
		c-1,2.2-2,4.5-3,6.7c-1.9,4.2-1.7,11.9-6.7,13.8c0.7-5.4-2.8-1.4-5.8-1.7c1.3-8.4-0.9-3.2-2.2-1.5c-0.5,2.2-0.8,4.3-0.6,6.6
		c0.8,3.7,1.8,7.5,2.9,11.2c1,3.4,2.2,6.7,2.2,10.2c-1.5-2.5-2.2-5.4-3.2-8.2c-1.1-2.8-2.2-5.6-4-7.9c0,2.6,0.3,5.2,0.5,7.8
		c-1,2.3-6.7-11.8-6.7-5c-1.1-0.8-3.2-5.3-3.1-1.8c-0.9,4.8-1.6-2.2,0.2-4c-0.2-0.2-0.6-0.6-0.9-0.9c-3.2,2.3-0.5-3.1-0.7-4.8
		c0-0.2,0-0.5,0-0.7c-0.1-3.2-0.2-6.3-0.2-9.4c-1.4,0.6-1.9,2.4-2.6,3.6c-0.9,3-1,6.7-3.1,8.9c0-4,1.5-7.9,2.3-11.8
		c0.6-4.2-0.5-4.6-1.7-0.5c-0.6,1.5,1.2,6.2-1.2,5.5c-0.3-2.5-0.5-5-0.8-7.5c-3.8,8.4-7.5,18.6-3.8,27.5c0.2-1.2,0.3-2.4,0.5-3.7
		c2.4,4.7,7.8,14,13.8,9.2c3.8,0.9,3.9,6.8,4.2,9.8c-9.6-5.8-24-3.4-29.9-14.6c-1.9-2.6,4.2-2,2.3-4.7c-7.8-9.1-15.3-19.8-14.6-32.4
		c-1.4,1.1-2.7,2.3-4.1,3.4c1.9-5.3,4.7-10.7,10-13.2c-0.8,2.2-1.7,4.4-2.5,6.6c3.1-1.8,5.5-4.6,8.3-6.8c-0.9,5.7-6.9,11.5-5.3,17.3
		c-0.2-3.4,5.4-5.7,2.8,0.8c0.6,2.3-1.1,6,1.5,7.7c-0.3-9.8,1.4-1.6,1.9,0.7c0.5-0.9,1-1.9,1.4-2.8c0.3-1.2-0.5-3.8,1.5-3
		c0.8,3.6,1.1,7.5,3.2,10.7c1.4-8.1,5-15.5,7.8-23.2c-2.6,1.3-4.4,4.1-7.5,4.3c0.5-6.3,3.4-9.8,6.6-15c-1.9,0.5-3.8,1.2-5.6,1.7
		c1.9-5.8,1.2-12.1,2.4-18.2c-4.2-2.5-9.4-3.4-13.3-6.5c-2.5-0.2-5-0.2-7.6-0.3c-5.1,1.2-10.7,8-15.3,2.5c-4.5-5.2-11.4-2-17.2-2.5
		c-3.4-3.9-4.8-9.2-6.8-13.9c-0.3,0.2-0.8,0.7-1.1,0.9c1.4,8,9,16.5,4.5,24.6c-0.8,1.7,1.7-0.1,2.5,0c0.5-1.3,1.4-2.2,2.7-2.8
		c-0.5-2.2-1.1-4.3-1.8-6.4c3,3,7.2-0.2,10.7,1.6c6.6,2.6,12.8,6.7,17.1,12.3c-4.5,1.6-9,3.5-13.7,4.2c-0.1-5.6-4.3,3.1-2,5.1
		c4.8,2.5,9.9-4.3,15.3-1.9c0,1.1,0,3.2,0,4.3c-2.2,8.5-8.1,18-3.8,26.7c3.6,5.1,0.8-8.3,3.9-4.3c5,11.3,7.1,24.8,16.9,33.2
		c11.4,7.5,24,13.9,37.7,15.8c-0.1-0.5-0.2-1.6-0.3-2.2c-0.5-2.8-3-6.9-0.4-9.2c2.2-0.8,3.4,1.4,4.2,3c1.3,1.9,5.1,11,4.6,5
		c0.1-1.2,0.3-3.5,0.4-4.7c0.4-1.7,1-3.3,1.3-4.9c0.5-3.4-2.5-8,0.7-10.1c2.4,2.9,2.7,7.3,4.3,10.7c1.6,1.8,1.6,0.4,1.1-1.3
		c-0.9-3.9-1.7-8-1.1-12c1.4,2.9,1.7,6.3,2.5,9.4c0.3-1.9,0.5-3.8,0.7-5.7c0.1-1.6-0.1-3.2-0.4-4.7c-0.4-3.3-1.2-7,0.3-10.1
		c1.5-3.9-0.9,5.3,1.8,2.6c0.1-1.5,0.8-3.8,2.2-1.7c2.3,4.4,2.2,9.9,3.6,14.7c2.2-2.9,2.6-7.1,3.1-10.6c0.1-2.5,0.5-5,1.1-7.4
		c1.2,3,2.5,6,3.1,9.1l0.1,0.9l0.1,0.9c2.3-6.6-0.1-14.7,4-20.7c3.5,2.4,2.4,9.6,3.5,13.7c0.6,1.1,0.7,2.4,0.2,3.6
		c0.2,1,0.7,1.5,1.7,1.4c2.2-7.9,2.2-16.6,6.1-23.8C145.2,321.1,144.8,320.8,144.3,320.5z"/>
	<path fill="#957833" d="M52.1,319.1c0,0.6,0.3,1.3,0.8,2C52.6,320.4,52.3,319.7,52.1,319.1z"/>
	<path fill="#919085" d="M21.4,262.5C19.7,267.3,25.7,262.4,21.4,262.5L21.4,262.5z"/>
	<path fill="#827D6C" d="M26.3,262.6C25.9,267.5,31.3,262.1,26.3,262.6L26.3,262.6z"/>
	<path fill="#BAB092" d="M47.4,261.9c-2.7,0.4-2.6,3,0.3,2C48,263.2,47.9,262.5,47.4,261.9z"/>
	<path fill="#8E8981" d="M33.7,263.4C33.6,267.7,38.5,261.7,33.7,263.4L33.7,263.4z"/>
	<path fill="#EADEB0" d="M54.1,273.1c1.4,0.8,2.7,1.6,4.1,2.3c4.3,1.6,8.5,3.9,13.2,4.4c0.1-0.5,0.4-1.4,0.6-1.8
		c-9.3-1.1-15.9-9.3-23.8-13.7c-0.3,0.8-0.6,1.5-0.9,2.3c3.8,2.1,7.9,4,11,7.1C57,273.6,55.5,273.3,54.1,273.1z"/>
	<path fill="#E7CA88" d="M75.5,267.3c2.8,1.2,1.4-3,0.1-3.2C75.5,265,73.6,267.6,75.5,267.3z"/>
	<path fill="#8F7B47" d="M58.4,273.7c-3.2-3.1-7.2-4.9-11-7.1c-2.3-0.9-5.1-1-7.1,0.8c-1,2.5,2.8,1.1,4.2,1.7c3.5,0.5,7,1.7,9.7,4
		C55.5,273.3,57,273.6,58.4,273.7z"/>
	<path fill="#A29F98" d="M19,266.6C17.9,271,23,266.5,19,266.6L19,266.6z"/>
	<path fill="#A8A6A0" d="M29.7,267.4C30.1,271.4,34,266.1,29.7,267.4L29.7,267.4z"/>
	<path fill="#8D897F" d="M25.5,268.3C24.6,272.1,29.3,267.4,25.5,268.3L25.5,268.3z"/>
	<path fill="#E8CDA6" d="M153.6,272.5c-0.4-1.1-1.1-3.4-1.5-4.6C152.1,270.5,151.1,276.1,153.6,272.5z"/>
	<path fill="#96A2CE" d="M182.9,272.2c-0.1-1.4-0.2-2.8-0.3-4.1C182.1,269.4,182,271,182.9,272.2z"/>
	<path fill="#DCC797" d="M54.1,273.1c-2.7-2.3-6.2-3.5-9.7-4c-2.6,0.5-3.1,1.3-0.3,1.9C47.6,270,50.7,272.6,54.1,273.1z"/>
	<path fill="#8B8E7F" d="M34.6,270.8C34.1,275.4,39.1,270.9,34.6,270.8L34.6,270.8z"/>
	<path fill="#8F8050" d="M58.2,275.5c-1.4-0.8-2.8-1.5-4.1-2.3c-3.4-0.5-6.5-3.1-10-2.1c2.2,0.8,10.4,2.7,0.9,2
		c-4.1,0.2,1.8,2.5,3.5,1.8c2.5-0.6,5.3-1.5,6.4,1.6C56.2,276.8,57.6,277,58.2,275.5z"/>
	<path fill="#E9D49E" d="M48.5,274.9c-0.3,0.3-0.9,1-1.2,1.3c2.5,0,5,0.1,7.6,0.3C53.9,273.3,51,274.2,48.5,274.9z"/>
	<path fill="#C5B88E" d="M176.8,285.6c0.4-4,1.4-8.1,0-12C176.8,277.6,176.7,281.6,176.8,285.6z"/>
	<path fill="#ECE0AB" d="M58.2,275.5c-0.6,1.5-2,1.4-3.3,1c3.9,3.1,9.1,3.9,13.3,6.5l0.2-0.7C65.2,279.7,60.6,278.9,58.2,275.5z"/>
	<path fill="#8A7F4D" d="M68.3,282.2c1.5,0,3-0.7,3.1-2.3c-4.7-0.5-8.9-2.7-13.2-4.4C60.6,278.9,65.2,279.7,68.3,282.2z"/>
	<path fill="#EADAA4" d="M152.1,279.5c-1.6,1.8-2.9,3.7-4.1,5.8c0.5,0.3,1.4,0.8,1.9,1C150.9,284.2,151.8,281.9,152.1,279.5z"/>
	<path fill="#90793B" d="M124.3,285.5c-2-0.2-4.6,0.5-6.4-0.5h-1.1V284c-0.1-0.1-0.2-0.2-0.2-0.4c-0.1,4.1-3.8,6.9-6.7,9.3
		c1.4-3.6,4.5-6.2,6.7-9.3l0.1-0.7c-10.5,4.2-14.6,15.2-17.5,25.2c1.3,0.6,1.3,2.4,0.2,3.2l-0.3,0.5c0.2,0.2,0.7,0.6,0.9,0.8
		c2-2.8,3.8-5.7,5.8-8.5c0,2.2-1.7,11.4,1.3,5.1c0.9-5.3,2.3-1.8,0.8,2.7c-1.9,4.5-6.7,7.3-7.9,12.2c3.6-1.2,5.3-4.9,7.7-7.6
		c1.2-1.7,2.5-3.3,4-4.7c1.6-5.4,1.9-11.2,3.8-16.5C117.3,291.1,122.3,289.5,124.3,285.5z"/>
	<path fill="#E8D69F" d="M116.6,283.6c-2.1,3.1-5.3,5.7-6.7,9.3C112.8,290.5,116.5,287.7,116.6,283.6z"/>
	<path fill="#E0D0A0" d="M153.4,288.8c-0.3-8.6-1.9-3.5-2.2,0.8C152.3,290.3,153.2,290.2,153.4,288.8z"/>
	<path fill="#DFD090" d="M17.1,285.3l-0.5-0.2c-1.2,0.5-2.2,1.5-2.7,2.8c0.2,0.2,0.6,0.6,0.9,0.7C15.7,287.7,16.5,286.6,17.1,285.3z
		"/>
	<path fill="#847745" d="M17.1,285.3c-0.6,1.2-1.4,2.3-2.4,3.3C7.8,296.1,27.1,285.9,17.1,285.3z"/>
	<path fill="#F9FAF1" d="M136.3,294.7c1.1-3.1,2.3-6.1,3.5-9.1c-5.2-0.1-10.3-0.3-15.5-0.1c-2,4-6.9,5.6-8.8,9.7
		c0.7,1,1.4,1,2.2,0.7v-0.3h0.6c1.4-0.8,2.9-2.1,4.8-1.2c0.4-0.5,0.9-0.9,1.3-1.3C126.4,297.6,132.4,294.5,136.3,294.7z"/>
	<path fill="#F9F7E4" d="M191.4,285.4c-0.6,3.4-1.2,6.8-1.8,10.2h0.3c0.3,0,0.6,0,0.9,0h7.8c0.2-0.3,0.4-0.7,0.4-1.2
		c-0.6-3-1.2-6-1.9-9C195.7,285.4,192.9,285.4,191.4,285.4z"/>
	<path fill="#927739" d="M199,294.4c0.3,0.6,0.6,1,1,1.2h4.6c0.2-0.5,0.4-1,0.5-1.3c0.5-1.9,1.1-3.8,1.5-5.7c0.3-1,0.4-2.1,0.4-3.2
		c-3.3,0-6.6,0-10,0C197.8,288.4,198.4,291.4,199,294.4z"/>
	<path fill="#93814C" d="M24.4,301.1c0.7-2.9,1.2-11.6-2.1-6c-0.6-4.5-6.7-4.8-7.8-0.3c5.1,0,2.8,7.1,4.3,10.5
		c0.4,0,1.2-0.1,1.6-0.1c0-2.8-0.1-5.7,1.1-8.3C22.6,298.1,23.4,299.6,24.4,301.1z"/>
	<path fill="#FBEEBF" d="M145.6,295c-1.7,0.3-0.8-2.1-1.1-3.1c-0.6,1.2-1,2.4-1.5,3.7h22.2c0.1-0.3,0.2-0.7,0.2-0.9
		C158.8,295.3,152.2,294.6,145.6,295z"/>
	<path fill="#F1E5B5" d="M124.5,293c-0.5,0.4-0.9,0.9-1.3,1.3c0.4,0.5,0.9,0.9,1.4,1.2h9.6c0.7-0.1,1.3-0.1,1.9-0.1l0.2-0.9
		C132.4,294.5,126.4,297.6,124.5,293z"/>
	<path fill="#F8F2D0" d="M115.5,295.3c-1.9,5.3-2.2,11.1-3.8,16.5c2.5-2.4,4.1-5.4,5.9-8.2v-7.6
		C116.9,296.2,116.2,296.2,115.5,295.3z"/>
	<path fill="#F8F2D0" d="M118.3,295.6h3.6c0.5-0.3,0.9-0.7,1.2-1.2C121.2,293.5,119.7,294.8,118.3,295.6z"/>
	<path fill="#C7B78B" d="M42.2,304.3c0-1.1,0-3.2,0-4.3C41.1,301.3,41.4,303.1,42.2,304.3z"/>
	<path fill="#DECC8E" d="M107.1,309.2c0.3,0.9,0.5,1.8,0.8,2.7C109.4,307.4,108,303.9,107.1,309.2z"/>
	<path fill="#898B76" d="M86.4,308.6c-0.8,1.8-3.8,5.1-1.3,6.4C85.3,313.1,88.1,309,86.4,308.6z"/>
	<path fill="#C7C396" d="M99.3,308.1c-1.2,0.7-1.1,2.6,0.2,3.2C100.6,310.5,100.5,308.7,99.3,308.1z"/>
	<path fill="#A5A593" d="M100.1,312.6c-0.2-0.2-0.7-0.6-0.9-0.8C96.1,314.7,98.8,317,100.1,312.6z"/>
	<path fill="#EDDEA4" d="M107.7,316.5c0.3,0.5,0.8,1.5,1,2c1-2.2,2-4.5,3-6.7C110.2,313.2,108.9,314.8,107.7,316.5z"/>
	<path fill="#978557" d="M95.2,315.6c-3.9,5.8-6.9,14.1-1.8,20.1c-0.2-2.2,0.1-4.4,0.6-6.6C93.1,324.6,95.7,320.2,95.2,315.6z"/>
	<path fill="#E3DAB1" d="M73.2,320.6c0.3,2.5,0.4,5,0.8,7.5c2.4,0.7,0.6-4,1.2-5.5C74.8,320.8,74.5,317.6,73.2,320.6z"/>
	<path fill="#FCE9A1" d="M124.9,320.5h-2.7c0,0-0.1,0-0.1,0C121.8,324.4,124.4,323.1,124.9,320.5z"/>
	<path fill="#907938" d="M146.5,320.5c-0.2,0.2-0.3,0.5-0.3,0.8l0.2,0.8c1.6,4.9,0.2,10.3,0.3,15.4c0.1,0.6,0.4,1.8,0.6,2.4
		c3-5.6,3-12.2,4.9-18.2c0.1-0.5-0.1-0.9-0.3-1.2H146.5z"/>
	<path fill="#927F3A" d="M157.2,320.5c-0.1,1.2-0.2,2.5-0.3,3.8c-0.1,1.1-0.3,2.2-0.5,3.3c0.8,3.7,5.4-4.9,7.4-7
		c-0.1-0.1-0.3-0.1-0.4-0.2H157.2z"/>
	<path fill="#908042" d="M165.3,321.4c-0.8,4.5-1.5,8.9-1.8,13.4c2.7-3.6,4.6-7.7,6.4-11.8c0.3-0.9,0.6-1.8,0.9-2.6h-4.5
		C165.9,320.8,165.6,321.1,165.3,321.4z"/>
	<path fill="#989177" d="M89,321.9c-2.1,2.1-1.6,4.8-0.5,7.2C90.5,334.9,89.5,319.9,89,321.9z"/>
	<path fill="#CABA9C" d="M80.4,322.3c0.1,3.1,0.2,6.3,0.2,9.4C80.7,328.8,82.8,323.6,80.4,322.3z"/>
	<path fill="#CABA9C" d="M80.7,332.5c0-0.2,0-0.5,0-0.7C80.6,332,80.6,332.3,80.7,332.5z"/>
	<path fill="#F0DFB6" d="M146.4,322.1c0.1,5.1-0.8,10.3,0.3,15.4C146.6,332.4,148,327,146.4,322.1z"/>
	<path fill="#E4D699" d="M74.7,334.9c2.1-2.2,2.2-6,3.1-8.9c-0.3-0.9-0.6-1.9-0.8-2.8C76.1,327,74.7,330.8,74.7,334.9z"/>
	<path fill="#9B9486" d="M59.7,325.5c-0.5,0.9-1,1.9-1.4,2.8c0.3,1.5,0.8,2.9,1.3,4.3C59.7,330.2,59.8,327.9,59.7,325.5z"/>
	<path fill="#F7F5E0" d="M134,326.7c-4,6-1.6,14-4,20.7c-1.1,2.7,2.5,0.5,2.3-1c0-2.9,1.6-6.9,5.1-6
		C136.4,336.2,137.5,329.1,134,326.7z"/>
	<path fill="#98967F" d="M81.4,337.2c0.2,0.2,0.6,0.6,0.9,0.9c1.3-2.1,2.4-4.4,3.1-6.8C83.8,333.1,82.6,335.2,81.4,337.2z"/>
	<path fill="#F0EDC4" d="M125.6,343.9c1.4-3.4,2.1,0.9,4.2,1.7c-0.6-3.2-1.9-6.2-3.1-9.1C126.2,338.9,125.7,341.4,125.6,343.9z"/>
	<path fill="#EBE0B6" d="M114.9,338.9c-1.5,3.1-0.6,6.8-0.3,10.1c0.1-1.3,0.2-3.8,0.3-5.1c2.5,2.5,2.9-2.4,1.8-2.4
		C114,344.2,116.4,335,114.9,338.9z"/>
	<path fill="#EBD9C2" d="M137.5,340.3c-0.4,1.1-1.9,3.5,0.2,3.6C138.2,342.8,138.1,341.5,137.5,340.3z"/>
	<path fill="#EED997" d="M98.5,357.1c-0.1-3.5-1.2-6.9-2.2-10.2c-0.2,0.5-0.7,1.5-1,2.1C96.3,351.7,97,354.6,98.5,357.1z"/>
	<path fill="#F2E4AC" d="M112.9,362c0.3-1,0.8-1.8,1.4-2.6c-0.8-3.1-1.1-6.4-2.5-9.4C111.3,354.1,112.1,358.1,112.9,362z"/>
	<path fill="#F9F3D4" d="M106.8,362.8c2.2-0.6,0.7-2.7,0.7-4.3c2.1,1,1.4,5.6,4.3,4.9c-1.6-3.5-1.8-7.8-4.3-10.7
		C104.3,354.7,107.3,359.4,106.8,362.8z"/>
	<path fill="#C0B598" d="M115,353.7c-0.2,1.9-0.4,3.8-0.7,5.7C115.7,363.4,117.5,352.5,115,353.7z"/>
	<path fill="#F3EABF" d="M96.3,364.4c-2.6,2.3-0.2,6.4,0.4,9.2c-0.1-3-1-9.7,3.8-6.2C99.6,365.8,98.4,363.6,96.3,364.4z"/>
	<path fill="#DBCDA0" d="M105.5,367.7c-0.1,1.2-0.3,3.5-0.4,4.7C106.9,372.1,106.5,368.8,105.5,367.7z"/>
	<path fill="#DAB34B" d="M204.6,295.6h-4.6c-0.4-0.3-0.8-0.7-1-1.2c-0.1,0.5-0.2,0.9-0.4,1.2h-7.8c-0.3,0-0.6,0-0.9,0h-0.3h-24.4
		h-22.2h-6.6c-0.1,0-0.1,0-0.2-0.1c-0.6,0-1.2,0-1.9,0.1h-9.6c-0.5-0.3-1-0.7-1.4-1.2c-0.3,0.6-0.7,1-1.2,1.2h-3.6h-0.6v0.3v7.6v17
		h4.1c0.1,0,0.2,0,0.3,0c0,0,0.1,0,0.1,0h2.7h19.4c0.5,0.3,0.9,0.6,1.2,1l0.6-0.2c0-0.3,0.1-0.6,0.3-0.8h5.4
		c0.2,0.3,0.3,0.7,0.3,1.2c0.3-0.5,0.6-0.9,0.9-1.2h2.2c0.8,0.8,1.4,2.3,1.6,3.8c0.1-1.3,0.2-2.5,0.3-3.8h6.1c0.1,0,0.3,0.1,0.4,0.2
		c0.4,0.2,1.2,0.6,1.6,0.8c0.3-0.3,0.6-0.7,1-1h4.5H500v-24.9H204.6z M166.3,311.4c-0.1-0.6-0.3-1-0.5-1.3c-0.3-0.3-0.7-0.4-1.3-0.4
		H162v4.4h-2.5v-11.3h6.1c0.5,0,1,0.1,1.4,0.2c0.4,0.2,0.8,0.4,1,0.7c0.3,0.3,0.5,0.6,0.7,1c0.2,0.4,0.2,0.8,0.2,1.2
		c0,0.7-0.1,1.2-0.4,1.7c-0.3,0.5-0.7,0.9-1.4,1.1v0c0.3,0.1,0.6,0.2,0.8,0.4c0.2,0.2,0.4,0.4,0.5,0.6c0.1,0.2,0.2,0.5,0.3,0.8
		s0.1,0.6,0.1,0.9c0,0.2,0,0.4,0,0.6c0,0.2,0,0.5,0.1,0.7c0,0.3,0.1,0.5,0.1,0.7c0.1,0.2,0.1,0.4,0.3,0.6h-2.5
		c-0.1-0.4-0.2-0.8-0.3-1.3C166.4,312.3,166.4,311.9,166.3,311.4z M149.3,314.1v-11.3h8.4v2.1h-6v2.4h5.5v1.9h-5.5v2.8h6.1v2.1
		H149.3z M137.5,302.8h2.8l2.6,4.5l2.6-4.5h2.8l-4.2,6.9v4.3h-2.5v-4.4L137.5,302.8z M134,302.8c0.5,0,1,0.1,1.4,0.2
		c0.4,0.2,0.8,0.4,1,0.7c0.3,0.3,0.5,0.6,0.7,1c0.2,0.4,0.2,0.8,0.2,1.2c0,0.7-0.1,1.2-0.4,1.7c-0.3,0.5-0.7,0.9-1.4,1.1v0
		c0.3,0.1,0.6,0.2,0.8,0.4c0.2,0.2,0.4,0.4,0.5,0.6c0.1,0.2,0.2,0.5,0.3,0.8s0.1,0.6,0.1,0.9c0,0.2,0,0.4,0,0.6c0,0.2,0,0.5,0.1,0.7
		c0,0.3,0.1,0.5,0.1,0.7c0.1,0.2,0.1,0.4,0.3,0.6h-2.5c-0.1-0.4-0.2-0.8-0.3-1.3c0-0.5-0.1-1-0.1-1.4c-0.1-0.6-0.3-1-0.5-1.3
		c-0.3-0.3-0.7-0.4-1.3-0.4h-2.5v4.4h-2.5v-11.3H134z M170.2,310.4h2.4c0,0.4,0.1,0.7,0.2,1c0.1,0.3,0.3,0.5,0.5,0.6
		s0.5,0.3,0.8,0.4c0.3,0.1,0.6,0.1,0.9,0.1c0.2,0,0.5,0,0.7-0.1c0.3,0,0.5-0.1,0.7-0.2c0.2-0.1,0.4-0.2,0.6-0.4
		c0.1-0.2,0.2-0.4,0.2-0.7c0-0.3-0.1-0.6-0.3-0.7c-0.2-0.2-0.5-0.3-0.8-0.5c-0.3-0.1-0.7-0.2-1.1-0.3c-0.4-0.1-0.8-0.2-1.2-0.3
		c-0.4-0.1-0.8-0.2-1.2-0.4c-0.4-0.2-0.8-0.3-1.1-0.6c-0.3-0.2-0.6-0.5-0.8-0.9c-0.2-0.4-0.3-0.8-0.3-1.3c0-0.6,0.1-1.1,0.4-1.5
		c0.2-0.4,0.6-0.8,1-1.1c0.4-0.3,0.9-0.5,1.4-0.6c0.5-0.1,1-0.2,1.5-0.2c0.6,0,1.2,0.1,1.7,0.2c0.5,0.1,1,0.3,1.4,0.6
		c0.4,0.3,0.8,0.7,1,1.1c0.2,0.5,0.4,1,0.4,1.7h-2.4c0-0.3-0.1-0.6-0.2-0.8c-0.1-0.2-0.3-0.4-0.5-0.5c-0.2-0.1-0.4-0.2-0.7-0.3
		c-0.3-0.1-0.5-0.1-0.8-0.1c-0.2,0-0.4,0-0.6,0.1c-0.2,0-0.4,0.1-0.5,0.2c-0.2,0.1-0.3,0.2-0.4,0.4c-0.1,0.2-0.2,0.4-0.2,0.6
		c0,0.2,0,0.4,0.1,0.5c0.1,0.1,0.2,0.3,0.5,0.4c0.2,0.1,0.6,0.2,1,0.3c0.4,0.1,1,0.3,1.7,0.4c0.2,0,0.5,0.1,0.9,0.2
		c0.4,0.1,0.7,0.3,1.1,0.5c0.4,0.2,0.7,0.6,1,1c0.3,0.4,0.4,0.9,0.4,1.6c0,0.5-0.1,1-0.3,1.4c-0.2,0.4-0.5,0.8-0.9,1.1
		c-0.4,0.3-0.9,0.6-1.5,0.8c-0.6,0.2-1.3,0.3-2,0.3c-0.6,0-1.2-0.1-1.8-0.2c-0.6-0.2-1.1-0.4-1.5-0.7c-0.4-0.3-0.8-0.7-1.1-1.2
		C170.3,311.7,170.2,311.1,170.2,310.4z M183.9,313.9c-0.7-0.3-1.3-0.7-1.7-1.2c-0.5-0.5-0.8-1.1-1.1-1.9c-0.3-0.7-0.4-1.5-0.4-2.3
		c0-0.8,0.1-1.6,0.4-2.3c0.3-0.7,0.6-1.4,1.1-1.9c0.5-0.5,1.1-1,1.7-1.3c0.7-0.3,1.5-0.5,2.3-0.5c0.9,0,1.7,0.2,2.3,0.5
		c0.7,0.3,1.3,0.7,1.7,1.3s0.8,1.2,1.1,1.9c0.3,0.7,0.4,1.5,0.4,2.3c0,0.8-0.1,1.6-0.4,2.3c-0.3,0.7-0.6,1.3-1.1,1.9
		s-1.1,0.9-1.7,1.2c-0.7,0.3-1.5,0.5-2.3,0.5C185.3,314.4,184.5,314.2,183.9,313.9z M195.9,302.8l4.7,7.6h0v-7.6h2.3v11.3h-2.5
		l-4.7-7.5h0v7.5h-2.3v-11.3H195.9z M464.5,302.8h2.5v11.3h-2.5V302.8z M459.8,304.9v9.2h-2.5v-9.2H454v-2.1h9.2v2.1H459.8z
		 M452.8,314.1l-0.9-2.5h-4.2l-0.9,2.5h-2.5l4.3-11.3h2.5l4.2,11.3H452.8z M440.8,302.8h2.5v11.3h-2.5V302.8z M431.9,313.9
		c-0.7-0.3-1.3-0.7-1.7-1.2c-0.5-0.5-0.8-1.1-1.1-1.9c-0.3-0.7-0.4-1.5-0.4-2.3c0-0.8,0.1-1.6,0.4-2.3c0.3-0.7,0.6-1.4,1.1-1.9
		c0.5-0.5,1.1-1,1.7-1.3c0.7-0.3,1.5-0.5,2.3-0.5c0.6,0,1.2,0.1,1.8,0.3c0.6,0.2,1,0.4,1.5,0.8c0.4,0.3,0.8,0.8,1.1,1.3
		c0.3,0.5,0.5,1.1,0.5,1.7h-2.4c0-0.3-0.1-0.5-0.3-0.8c-0.1-0.2-0.3-0.4-0.6-0.6c-0.2-0.2-0.5-0.3-0.8-0.4c-0.3-0.1-0.6-0.2-0.9-0.2
		c-0.6,0-1,0.1-1.4,0.3c-0.4,0.2-0.7,0.5-0.9,0.9c-0.2,0.4-0.4,0.8-0.5,1.2c-0.1,0.5-0.2,0.9-0.2,1.4c0,0.5,0.1,0.9,0.2,1.4
		c0.1,0.4,0.3,0.9,0.5,1.2c0.2,0.4,0.6,0.6,0.9,0.9c0.4,0.2,0.9,0.3,1.4,0.3c0.8,0,1.4-0.2,1.8-0.7c0.4-0.5,0.7-1.1,0.8-1.8h2.4
		c-0.1,0.7-0.2,1.3-0.5,1.9s-0.6,1.1-1,1.5c-0.4,0.4-0.9,0.7-1.5,0.9c-0.6,0.2-1.2,0.3-1.9,0.3C433.3,314.4,432.6,314.2,431.9,313.9
		z M471.9,313.9c-0.7-0.3-1.3-0.7-1.7-1.2c-0.5-0.5-0.8-1.1-1.1-1.9c-0.3-0.7-0.4-1.5-0.4-2.3c0-0.8,0.1-1.6,0.4-2.3
		c0.3-0.7,0.6-1.4,1.1-1.9c0.5-0.5,1.1-1,1.7-1.3c0.7-0.3,1.5-0.5,2.3-0.5c0.9,0,1.7,0.2,2.3,0.5c0.7,0.3,1.3,0.7,1.7,1.3
		c0.5,0.5,0.8,1.2,1.1,1.9c0.3,0.7,0.4,1.5,0.4,2.3c0,0.8-0.1,1.6-0.4,2.3c-0.3,0.7-0.6,1.3-1.1,1.9c-0.5,0.5-1.1,0.9-1.7,1.2
		c-0.7,0.3-1.5,0.5-2.3,0.5C473.4,314.4,472.6,314.2,471.9,313.9z M395.4,314.1h-2.6l-0.9-2.5h-4.2l-0.9,2.5h-2.5l4.3-11.3h2.5
		L395.4,314.1z M398.6,314.1c-0.6-0.2-1.1-0.4-1.5-0.7c-0.4-0.3-0.8-0.7-1.1-1.2c-0.3-0.5-0.4-1.1-0.4-1.8h2.4c0,0.4,0.1,0.7,0.2,1
		c0.1,0.3,0.3,0.5,0.5,0.6s0.5,0.3,0.8,0.4c0.3,0.1,0.6,0.1,0.9,0.1c0.2,0,0.5,0,0.7-0.1c0.3,0,0.5-0.1,0.7-0.2
		c0.2-0.1,0.4-0.2,0.6-0.4c0.1-0.2,0.2-0.4,0.2-0.7c0-0.3-0.1-0.6-0.3-0.7c-0.2-0.2-0.4-0.3-0.8-0.5c-0.3-0.1-0.7-0.2-1.1-0.3
		c-0.4-0.1-0.8-0.2-1.2-0.3c-0.4-0.1-0.8-0.2-1.2-0.4s-0.8-0.3-1.1-0.6c-0.3-0.2-0.6-0.5-0.8-0.9c-0.2-0.4-0.3-0.8-0.3-1.3
		c0-0.6,0.1-1.1,0.4-1.5c0.2-0.4,0.6-0.8,1-1.1s0.9-0.5,1.4-0.6c0.5-0.1,1-0.2,1.5-0.2c0.6,0,1.2,0.1,1.7,0.2c0.5,0.1,1,0.3,1.4,0.6
		c0.4,0.3,0.8,0.7,1,1.1s0.4,1,0.4,1.7h-2.4c0-0.3-0.1-0.6-0.2-0.8c-0.1-0.2-0.3-0.4-0.5-0.5c-0.2-0.1-0.4-0.2-0.7-0.3
		c-0.3-0.1-0.5-0.1-0.8-0.1c-0.2,0-0.4,0-0.6,0.1c-0.2,0-0.4,0.1-0.5,0.2c-0.2,0.1-0.3,0.2-0.4,0.4c-0.1,0.2-0.2,0.4-0.2,0.6
		c0,0.2,0,0.4,0.1,0.5c0.1,0.1,0.3,0.3,0.5,0.4c0.2,0.1,0.6,0.2,1,0.3c0.4,0.1,1,0.3,1.7,0.4c0.2,0,0.5,0.1,0.9,0.2
		c0.4,0.1,0.7,0.3,1.1,0.5c0.4,0.2,0.7,0.6,1,1c0.3,0.4,0.4,0.9,0.4,1.6c0,0.5-0.1,1-0.3,1.4c-0.2,0.4-0.5,0.8-0.9,1.1
		c-0.4,0.3-0.9,0.6-1.5,0.8c-0.6,0.2-1.3,0.3-2,0.3C399.8,314.4,399.2,314.3,398.6,314.1z M408.9,314.1c-0.6-0.2-1.1-0.4-1.5-0.7
		c-0.4-0.3-0.8-0.7-1.1-1.2c-0.3-0.5-0.4-1.1-0.4-1.8h2.4c0,0.4,0.1,0.7,0.2,1c0.1,0.3,0.3,0.5,0.5,0.6s0.5,0.3,0.8,0.4
		c0.3,0.1,0.6,0.1,0.9,0.1c0.2,0,0.5,0,0.7-0.1c0.3,0,0.5-0.1,0.7-0.2c0.2-0.1,0.4-0.2,0.6-0.4c0.1-0.2,0.2-0.4,0.2-0.7
		c0-0.3-0.1-0.6-0.3-0.7c-0.2-0.2-0.4-0.3-0.8-0.5c-0.3-0.1-0.7-0.2-1.1-0.3c-0.4-0.1-0.8-0.2-1.2-0.3c-0.4-0.1-0.8-0.2-1.2-0.4
		s-0.8-0.3-1.1-0.6c-0.3-0.2-0.6-0.5-0.8-0.9c-0.2-0.4-0.3-0.8-0.3-1.3c0-0.6,0.1-1.1,0.4-1.5c0.2-0.4,0.6-0.8,1-1.1
		s0.9-0.5,1.4-0.6c0.5-0.1,1-0.2,1.5-0.2c0.6,0,1.2,0.1,1.7,0.2c0.5,0.1,1,0.3,1.4,0.6c0.4,0.3,0.8,0.7,1,1.1c0.2,0.5,0.4,1,0.4,1.7
		h-2.4c0-0.3-0.1-0.6-0.2-0.8c-0.1-0.2-0.3-0.4-0.5-0.5c-0.2-0.1-0.4-0.2-0.7-0.3c-0.3-0.1-0.5-0.1-0.8-0.1c-0.2,0-0.4,0-0.6,0.1
		c-0.2,0-0.4,0.1-0.5,0.2c-0.2,0.1-0.3,0.2-0.4,0.4c-0.1,0.2-0.2,0.4-0.2,0.6c0,0.2,0,0.4,0.1,0.5c0.1,0.1,0.3,0.3,0.5,0.4
		c0.2,0.1,0.6,0.2,1,0.3c0.4,0.1,1,0.3,1.7,0.4c0.2,0,0.5,0.1,0.9,0.2c0.4,0.1,0.7,0.3,1.1,0.5c0.4,0.2,0.7,0.6,1,1
		c0.3,0.4,0.4,0.9,0.4,1.6c0,0.5-0.1,1-0.3,1.4c-0.2,0.4-0.5,0.8-0.9,1.1c-0.4,0.3-0.9,0.6-1.5,0.8c-0.6,0.2-1.3,0.3-2,0.3
		C410.1,314.4,409.5,314.3,408.9,314.1z M417.8,312.7c-0.5-0.5-0.8-1.1-1.1-1.9c-0.3-0.7-0.4-1.5-0.4-2.3c0-0.8,0.1-1.6,0.4-2.3
		c0.3-0.7,0.6-1.4,1.1-1.9c0.5-0.5,1.1-1,1.7-1.3c0.7-0.3,1.5-0.5,2.3-0.5c0.9,0,1.7,0.2,2.3,0.5c0.7,0.3,1.3,0.7,1.7,1.3
		c0.5,0.5,0.8,1.2,1.1,1.9c0.3,0.7,0.4,1.5,0.4,2.3c0,0.8-0.1,1.6-0.4,2.3c-0.3,0.7-0.6,1.3-1.1,1.9c-0.5,0.5-1.1,0.9-1.7,1.2
		c-0.7,0.3-1.5,0.5-2.3,0.5c-0.9,0-1.6-0.2-2.3-0.5C418.9,313.6,418.3,313.2,417.8,312.7z M377.3,312.8c-0.4,0.6-0.9,1-1.5,1.2
		c-0.5,0.2-1.1,0.3-1.6,0.3c-0.9,0-1.6-0.2-2.3-0.5c-0.7-0.3-1.3-0.7-1.7-1.2c-0.5-0.5-0.8-1.1-1.1-1.9c-0.3-0.7-0.4-1.5-0.4-2.3
		c0-0.8,0.1-1.6,0.4-2.3c0.3-0.7,0.6-1.4,1.1-1.9c0.5-0.5,1.1-1,1.7-1.3c0.7-0.3,1.5-0.5,2.3-0.5c0.6,0,1.1,0.1,1.7,0.3
		c0.5,0.2,1,0.4,1.5,0.8c0.4,0.3,0.8,0.8,1.1,1.2c0.3,0.5,0.5,1.1,0.5,1.7h-2.4c-0.1-0.6-0.4-1.1-0.9-1.4c-0.4-0.3-0.9-0.5-1.5-0.5
		c-0.6,0-1,0.1-1.4,0.3c-0.4,0.2-0.7,0.5-0.9,0.9c-0.2,0.4-0.4,0.8-0.5,1.2c-0.1,0.5-0.2,0.9-0.2,1.4c0,0.5,0.1,0.9,0.2,1.4
		c0.1,0.4,0.3,0.9,0.5,1.2c0.2,0.4,0.6,0.6,0.9,0.9c0.4,0.2,0.9,0.3,1.4,0.3c0.8,0,1.5-0.2,1.9-0.6c0.4-0.4,0.7-1,0.8-1.8h-2.5V308
		h4.7v6.1h-1.6L377.3,312.8z M364.5,314.1l-4.7-7.5h0v7.5h-2.3v-11.3h2.5l4.7,7.6h0v-7.6h2.3v11.3H364.5z M352.8,302.8h2.5v11.3
		h-2.5V302.8z M348.1,314.1l-4.7-7.5h0v7.5h-2.3v-11.3h2.5l4.7,7.6h0v-7.6h2.3v11.3H348.1z M287.4,302.8v9.2h5.5v2.1h-8v-11.3H287.4
		z M325,311.6h-4.2l-0.9,2.5h-2.5l4.3-11.3h2.5l4.2,11.3h-2.6L325,311.6z M309.2,314.1v-11.3h2.5v9.2h5.5v2.1H309.2z M298.7,302.8
		h5.1c0.7,0,1.3,0.1,1.8,0.3c0.5,0.2,0.9,0.5,1.2,0.8c0.3,0.3,0.5,0.7,0.7,1.2c0.1,0.4,0.2,0.9,0.2,1.3c0,0.5-0.1,0.9-0.2,1.3
		c-0.1,0.4-0.4,0.8-0.7,1.2c-0.3,0.3-0.7,0.6-1.2,0.8c-0.5,0.2-1.1,0.3-1.8,0.3h-2.6v4h-2.5V302.8z M331.8,306.6L331.8,306.6l0,7.5
		h-2.3v-11.3h2.5l4.7,7.6h0v-7.6h2.3v11.3h-2.5L331.8,306.6z M280.5,311.6h-4.2l-0.9,2.5h-2.5l4.3-11.3h2.5l4.2,11.3h-2.6
		L280.5,311.6z M269.5,302.8h2.5v11.3h-2.5V302.8z M260.5,303c0.7-0.3,1.5-0.5,2.3-0.5c0.6,0,1.2,0.1,1.8,0.3c0.6,0.2,1,0.4,1.5,0.8
		c0.4,0.3,0.8,0.8,1.1,1.3c0.3,0.5,0.5,1.1,0.5,1.7h-2.4c0-0.3-0.1-0.5-0.3-0.8c-0.1-0.2-0.3-0.4-0.6-0.6c-0.2-0.2-0.5-0.3-0.8-0.4
		c-0.3-0.1-0.6-0.2-0.9-0.2c-0.6,0-1,0.1-1.4,0.3c-0.4,0.2-0.7,0.5-0.9,0.9c-0.2,0.4-0.4,0.8-0.5,1.2c-0.1,0.5-0.2,0.9-0.2,1.4
		c0,0.5,0.1,0.9,0.2,1.4c0.1,0.4,0.3,0.9,0.5,1.2c0.2,0.4,0.6,0.6,0.9,0.9c0.4,0.2,0.9,0.3,1.4,0.3c0.8,0,1.4-0.2,1.8-0.7
		c0.4-0.5,0.7-1.1,0.8-1.8h2.4c-0.1,0.7-0.2,1.3-0.5,1.9c-0.3,0.6-0.6,1.1-1,1.5c-0.4,0.4-0.9,0.7-1.5,0.9c-0.6,0.2-1.2,0.3-1.9,0.3
		c-0.9,0-1.6-0.2-2.3-0.5c-0.7-0.3-1.3-0.7-1.7-1.2c-0.5-0.5-0.8-1.1-1.1-1.9c-0.3-0.7-0.4-1.5-0.4-2.3c0-0.8,0.1-1.6,0.4-2.3
		c0.3-0.7,0.6-1.4,1.1-1.9C259.2,303.8,259.8,303.3,260.5,303z M248.4,306.6L248.4,306.6l0,7.5h-2.3v-11.3h2.5l4.7,7.6h0v-7.6h2.3
		v11.3h-2.5L248.4,306.6z M241.6,311.6h-4.2l-0.9,2.5h-2.5l4.3-11.3h2.5l4.2,11.3h-2.6L241.6,311.6z M225.9,306.6L225.9,306.6l0,7.5
		h-2.3v-11.3h2.5l4.7,7.6h0v-7.6h2.3v11.3h-2.5L225.9,306.6z M221.4,302.8v11.3h-2.5v-11.3H221.4z M209.5,302.8h7.9v2.1H212v2.6h4.7
		v1.9H212v4.7h-2.5V302.8z M491,314.1h-2.5l-4.7-7.5h0v7.5h-2.3v-11.3h2.5l4.7,7.6h0v-7.6h2.3V314.1z"/>
	<path fill="#DAB34B" d="M134.4,307.6c0.3-0.3,0.4-0.7,0.4-1.2c0-0.5-0.1-0.9-0.4-1.2c-0.3-0.2-0.7-0.4-1.3-0.4h-2.7v3.2h2.7
		C133.7,307.9,134.1,307.8,134.4,307.6z"/>
	<path fill="#DAB34B" d="M166,307.6c0.3-0.3,0.4-0.7,0.4-1.2c0-0.5-0.1-0.9-0.4-1.2c-0.3-0.2-0.7-0.4-1.3-0.4H162v3.2h2.7
		C165.3,307.9,165.7,307.8,166,307.6z"/>
	<path fill="#DAB34B" d="M183.8,305.9c-0.2,0.4-0.4,0.8-0.5,1.2c-0.1,0.5-0.2,0.9-0.2,1.4c0,0.5,0.1,0.9,0.2,1.4
		c0.1,0.4,0.3,0.9,0.5,1.2c0.2,0.4,0.6,0.6,0.9,0.9s0.9,0.3,1.4,0.3c0.6,0,1-0.1,1.4-0.3c0.4-0.2,0.7-0.5,0.9-0.9
		c0.2-0.4,0.4-0.8,0.5-1.2c0.1-0.4,0.2-0.9,0.2-1.4c0-0.5-0.1-1-0.2-1.4c-0.1-0.5-0.3-0.9-0.5-1.2c-0.2-0.4-0.6-0.7-0.9-0.9
		c-0.4-0.2-0.9-0.3-1.4-0.3c-0.6,0-1,0.1-1.4,0.3C184.4,305.2,184.1,305.5,183.8,305.9z"/>
	<polygon fill="#DAB34B" points="239.6,305.6 239.5,305.6 238.1,309.8 241,309.8 	"/>
	<polygon fill="#DAB34B" points="278.5,305.6 278.4,305.6 277,309.8 279.9,309.8 	"/>
	<path fill="#DAB34B" d="M303.9,308.1c0.3,0,0.5-0.1,0.7-0.2c0.2-0.1,0.4-0.3,0.5-0.5c0.1-0.2,0.2-0.5,0.2-0.9
		c0-0.4-0.1-0.6-0.2-0.9c-0.1-0.2-0.3-0.4-0.5-0.5c-0.2-0.1-0.4-0.2-0.7-0.2c-0.3,0-0.5-0.1-0.8-0.1h-1.9v3.4h1.9
		C303.4,308.2,303.7,308.1,303.9,308.1z"/>
	<polygon fill="#DAB34B" points="322.9,305.6 322.9,305.6 321.4,309.8 324.3,309.8 	"/>
	<polygon fill="#DAB34B" points="389.9,305.6 388.4,309.8 391.3,309.8 389.9,305.6 	"/>
	<path fill="#DAB34B" d="M419.5,311.1c0.2,0.4,0.6,0.6,0.9,0.9c0.4,0.2,0.9,0.3,1.4,0.3s1-0.1,1.4-0.3c0.4-0.2,0.7-0.5,0.9-0.9
		c0.2-0.4,0.4-0.8,0.5-1.2c0.1-0.4,0.2-0.9,0.2-1.4c0-0.5-0.1-1-0.2-1.4c-0.1-0.5-0.3-0.9-0.5-1.2c-0.2-0.4-0.6-0.7-0.9-0.9
		c-0.4-0.2-0.9-0.3-1.4-0.3s-1,0.1-1.4,0.3c-0.4,0.2-0.7,0.5-0.9,0.9c-0.2,0.4-0.4,0.8-0.5,1.2c-0.1,0.5-0.2,0.9-0.2,1.4
		c0,0.5,0.1,0.9,0.2,1.4C419.1,310.4,419.3,310.8,419.5,311.1z"/>
	<polygon fill="#DAB34B" points="449.8,305.6 448.3,309.8 451.3,309.8 449.8,305.6 	"/>
	<path fill="#DAB34B" d="M474.2,312.3c0.6,0,1-0.1,1.4-0.3c0.4-0.2,0.7-0.5,0.9-0.9c0.2-0.4,0.4-0.8,0.5-1.2
		c0.1-0.4,0.2-0.9,0.2-1.4c0-0.5-0.1-1-0.2-1.4c-0.1-0.5-0.3-0.9-0.5-1.2c-0.2-0.4-0.6-0.7-0.9-0.9c-0.4-0.2-0.9-0.3-1.4-0.3
		s-1,0.1-1.4,0.3c-0.4,0.2-0.7,0.5-0.9,0.9c-0.2,0.4-0.4,0.8-0.5,1.2c-0.1,0.5-0.2,0.9-0.2,1.4c0,0.5,0.1,0.9,0.2,1.4
		c0.1,0.4,0.3,0.9,0.5,1.2c0.2,0.4,0.6,0.6,0.9,0.9C473.2,312.2,473.7,312.3,474.2,312.3z"/>
	<path fill="#FFFFFF" d="M127.9,314.1h2.5v-4.4h2.5c0.6,0,1.1,0.1,1.3,0.4c0.3,0.3,0.5,0.7,0.5,1.3c0.1,0.5,0.1,0.9,0.1,1.4
		c0,0.5,0.1,0.9,0.3,1.3h2.5c-0.1-0.2-0.2-0.4-0.3-0.6c-0.1-0.2-0.1-0.5-0.1-0.7c0-0.3,0-0.5-0.1-0.7c0-0.2,0-0.5,0-0.6
		c0-0.3-0.1-0.6-0.1-0.9s-0.1-0.5-0.3-0.8c-0.1-0.2-0.3-0.4-0.5-0.6c-0.2-0.2-0.5-0.3-0.8-0.4v0c0.6-0.3,1.1-0.6,1.4-1.1
		c0.3-0.5,0.4-1.1,0.4-1.7c0-0.4-0.1-0.8-0.2-1.2c-0.2-0.4-0.4-0.7-0.7-1c-0.3-0.3-0.6-0.5-1-0.7c-0.4-0.2-0.9-0.2-1.4-0.2h-6.1
		V314.1z M130.4,304.8h2.7c0.6,0,1,0.1,1.3,0.4c0.3,0.2,0.4,0.6,0.4,1.2c0,0.6-0.1,1-0.4,1.2c-0.3,0.3-0.7,0.4-1.3,0.4h-2.7V304.8z"
		/>
	<polygon fill="#FFFFFF" points="144.1,314.1 144.1,309.8 148.3,302.8 145.5,302.8 142.9,307.3 140.3,302.8 137.5,302.8 
		141.6,309.7 141.6,314.1 	"/>
	<polygon fill="#FFFFFF" points="157.8,314.1 157.8,312 151.7,312 151.7,309.3 157.2,309.3 157.2,307.3 151.7,307.3 151.7,304.9 
		157.7,304.9 157.7,302.8 149.3,302.8 149.3,314.1 	"/>
	<path fill="#FFFFFF" d="M166.7,314.1h2.5c-0.1-0.2-0.2-0.4-0.3-0.6c-0.1-0.2-0.1-0.5-0.1-0.7c0-0.3,0-0.5-0.1-0.7
		c0-0.2,0-0.5,0-0.6c0-0.3-0.1-0.6-0.1-0.9s-0.1-0.5-0.3-0.8c-0.1-0.2-0.3-0.4-0.5-0.6c-0.2-0.2-0.5-0.3-0.8-0.4v0
		c0.6-0.3,1.1-0.6,1.4-1.1c0.3-0.5,0.4-1.1,0.4-1.7c0-0.4-0.1-0.8-0.2-1.2c-0.2-0.4-0.4-0.7-0.7-1c-0.3-0.3-0.6-0.5-1-0.7
		c-0.4-0.2-0.9-0.2-1.4-0.2h-6.1v11.3h2.5v-4.4h2.5c0.6,0,1.1,0.1,1.3,0.4c0.3,0.3,0.5,0.7,0.5,1.3c0.1,0.5,0.1,0.9,0.1,1.4
		C166.5,313.3,166.6,313.8,166.7,314.1z M162,304.8h2.7c0.6,0,1,0.1,1.3,0.4c0.3,0.2,0.4,0.6,0.4,1.2c0,0.6-0.1,1-0.4,1.2
		c-0.3,0.3-0.7,0.4-1.3,0.4H162V304.8z"/>
	<path fill="#FFFFFF" d="M171.6,313.4c0.4,0.3,1,0.6,1.5,0.7c0.6,0.2,1.2,0.2,1.8,0.2c0.8,0,1.4-0.1,2-0.3c0.6-0.2,1.1-0.4,1.5-0.8
		c0.4-0.3,0.7-0.7,0.9-1.1c0.2-0.4,0.3-0.9,0.3-1.4c0-0.6-0.1-1.2-0.4-1.6c-0.3-0.4-0.6-0.7-1-1c-0.4-0.2-0.7-0.4-1.1-0.5
		c-0.4-0.1-0.7-0.2-0.9-0.2c-0.7-0.2-1.3-0.3-1.7-0.4c-0.4-0.1-0.8-0.2-1-0.3c-0.2-0.1-0.4-0.2-0.5-0.4c-0.1-0.1-0.1-0.3-0.1-0.5
		c0-0.2,0.1-0.4,0.2-0.6c0.1-0.2,0.2-0.3,0.4-0.4c0.2-0.1,0.3-0.2,0.5-0.2c0.2,0,0.4-0.1,0.6-0.1c0.3,0,0.6,0,0.8,0.1
		c0.3,0.1,0.5,0.1,0.7,0.3c0.2,0.1,0.4,0.3,0.5,0.5c0.1,0.2,0.2,0.5,0.2,0.8h2.4c0-0.7-0.1-1.2-0.4-1.7c-0.2-0.5-0.6-0.8-1-1.1
		c-0.4-0.3-0.9-0.5-1.4-0.6c-0.5-0.1-1.1-0.2-1.7-0.2c-0.5,0-1,0.1-1.5,0.2c-0.5,0.1-1,0.3-1.4,0.6c-0.4,0.3-0.7,0.6-1,1.1
		c-0.2,0.4-0.4,0.9-0.4,1.5c0,0.5,0.1,1,0.3,1.3c0.2,0.4,0.5,0.7,0.8,0.9c0.3,0.2,0.7,0.4,1.1,0.6c0.4,0.2,0.8,0.3,1.2,0.4
		c0.4,0.1,0.8,0.2,1.2,0.3c0.4,0.1,0.8,0.2,1.1,0.3c0.3,0.1,0.6,0.3,0.8,0.5c0.2,0.2,0.3,0.4,0.3,0.7c0,0.3-0.1,0.5-0.2,0.7
		c-0.1,0.2-0.3,0.3-0.6,0.4c-0.2,0.1-0.5,0.2-0.7,0.2c-0.3,0-0.5,0.1-0.7,0.1c-0.3,0-0.6,0-0.9-0.1c-0.3-0.1-0.6-0.2-0.8-0.4
		s-0.4-0.4-0.5-0.6c-0.1-0.3-0.2-0.6-0.2-1h-2.4c0,0.7,0.1,1.3,0.4,1.8C170.8,312.7,171.2,313.1,171.6,313.4z"/>
	<path fill="#FFFFFF" d="M188.5,313.9c0.7-0.3,1.3-0.7,1.7-1.2s0.8-1.1,1.1-1.9c0.3-0.7,0.4-1.5,0.4-2.3c0-0.8-0.1-1.6-0.4-2.3
		c-0.3-0.7-0.6-1.4-1.1-1.9s-1.1-1-1.7-1.3c-0.7-0.3-1.5-0.5-2.3-0.5c-0.9,0-1.6,0.2-2.3,0.5c-0.7,0.3-1.3,0.7-1.7,1.3
		c-0.5,0.5-0.8,1.2-1.1,1.9c-0.3,0.7-0.4,1.5-0.4,2.3c0,0.8,0.1,1.6,0.4,2.3c0.3,0.7,0.6,1.3,1.1,1.9c0.5,0.5,1.1,0.9,1.7,1.2
		c0.7,0.3,1.5,0.5,2.3,0.5C187.1,314.4,187.8,314.2,188.5,313.9z M186.2,304.7c0.6,0,1,0.1,1.4,0.3c0.4,0.2,0.7,0.5,0.9,0.9
		c0.2,0.4,0.4,0.8,0.5,1.2c0.1,0.5,0.2,0.9,0.2,1.4c0,0.5-0.1,0.9-0.2,1.4c-0.1,0.4-0.3,0.9-0.5,1.2c-0.2,0.4-0.6,0.6-0.9,0.9
		c-0.4,0.2-0.9,0.3-1.4,0.3c-0.6,0-1-0.1-1.4-0.3s-0.7-0.5-0.9-0.9c-0.2-0.4-0.4-0.8-0.5-1.2c-0.1-0.4-0.2-0.9-0.2-1.4
		c0-0.5,0.1-1,0.2-1.4c0.1-0.5,0.3-0.9,0.5-1.2c0.2-0.4,0.6-0.7,0.9-0.9C185.2,304.8,185.6,304.7,186.2,304.7z"/>
	<polygon fill="#FFFFFF" points="193.4,314.1 195.7,314.1 195.7,306.6 195.8,306.6 200.5,314.1 202.9,314.1 202.9,302.8 
		200.6,302.8 200.6,310.4 200.6,310.4 195.9,302.8 193.4,302.8 	"/>
	<polygon fill="#FFFFFF" points="212,314.1 212,309.5 216.7,309.5 216.7,307.5 212,307.5 212,304.9 217.4,304.9 217.4,302.8 
		209.5,302.8 209.5,314.1 	"/>
	<rect x="218.9" y="302.8" fill="#FFFFFF" width="2.5" height="11.3"/>
	<polygon fill="#FFFFFF" points="233.1,314.1 233.1,302.8 230.7,302.8 230.7,310.4 230.7,310.4 226,302.8 223.5,302.8 223.5,314.1 
		225.9,314.1 225.9,306.6 225.9,306.6 230.6,314.1 	"/>
	<path fill="#FFFFFF" d="M245.1,314.1l-4.2-11.3h-2.5l-4.3,11.3h2.5l0.9-2.5h4.2l0.9,2.5H245.1z M239.5,305.6L239.5,305.6l1.5,4.1
		h-2.9L239.5,305.6z"/>
	<polygon fill="#FFFFFF" points="255.6,314.1 255.6,302.8 253.3,302.8 253.3,310.4 253.2,310.4 248.5,302.8 246.1,302.8 
		246.1,314.1 248.4,314.1 248.4,306.6 248.4,306.6 253.1,314.1 	"/>
	<path fill="#FFFFFF" d="M257.6,306.2c-0.3,0.7-0.4,1.5-0.4,2.3c0,0.8,0.1,1.6,0.4,2.3c0.3,0.7,0.6,1.3,1.1,1.9
		c0.5,0.5,1.1,0.9,1.7,1.2c0.7,0.3,1.5,0.5,2.3,0.5c0.7,0,1.3-0.1,1.9-0.3c0.6-0.2,1.1-0.5,1.5-0.9c0.4-0.4,0.8-0.9,1-1.5
		c0.3-0.6,0.4-1.2,0.5-1.9h-2.4c-0.1,0.8-0.4,1.4-0.8,1.8c-0.4,0.5-1,0.7-1.8,0.7c-0.6,0-1-0.1-1.4-0.3c-0.4-0.2-0.7-0.5-0.9-0.9
		c-0.2-0.4-0.4-0.8-0.5-1.2c-0.1-0.4-0.2-0.9-0.2-1.4c0-0.5,0.1-1,0.2-1.4c0.1-0.5,0.3-0.9,0.5-1.2c0.2-0.4,0.6-0.7,0.9-0.9
		c0.4-0.2,0.9-0.3,1.4-0.3c0.3,0,0.6,0.1,0.9,0.2c0.3,0.1,0.5,0.2,0.8,0.4c0.2,0.2,0.4,0.4,0.6,0.6c0.1,0.2,0.2,0.5,0.3,0.8h2.4
		c-0.1-0.7-0.3-1.2-0.5-1.7c-0.3-0.5-0.6-0.9-1.1-1.3c-0.4-0.3-0.9-0.6-1.5-0.8c-0.6-0.2-1.1-0.3-1.8-0.3c-0.9,0-1.6,0.2-2.3,0.5
		c-0.7,0.3-1.3,0.7-1.7,1.3C258.3,304.8,257.9,305.5,257.6,306.2z"/>
	<rect x="269.5" y="302.8" fill="#FFFFFF" width="2.5" height="11.3"/>
	<path fill="#FFFFFF" d="M284,314.1l-4.2-11.3h-2.5l-4.3,11.3h2.5l0.9-2.5h4.2l0.9,2.5H284z M278.4,305.6L278.4,305.6l1.5,4.1H277
		L278.4,305.6z"/>
	<polygon fill="#FFFFFF" points="284.9,314.1 292.9,314.1 292.9,312 287.4,312 287.4,302.8 284.9,302.8 	"/>
	<path fill="#FFFFFF" d="M301.2,310.1h2.6c0.7,0,1.3-0.1,1.8-0.3c0.5-0.2,0.9-0.5,1.2-0.8c0.3-0.3,0.5-0.7,0.7-1.2
		c0.1-0.4,0.2-0.9,0.2-1.3c0-0.5-0.1-0.9-0.2-1.3c-0.1-0.4-0.4-0.8-0.7-1.2c-0.3-0.3-0.7-0.6-1.2-0.8c-0.5-0.2-1.1-0.3-1.8-0.3h-5.1
		v11.3h2.5V310.1z M301.2,304.8h1.9c0.3,0,0.6,0,0.8,0.1c0.3,0,0.5,0.1,0.7,0.2c0.2,0.1,0.4,0.3,0.5,0.5c0.1,0.2,0.2,0.5,0.2,0.9
		c0,0.4-0.1,0.6-0.2,0.9c-0.1,0.2-0.3,0.4-0.5,0.5c-0.2,0.1-0.4,0.2-0.7,0.2c-0.3,0-0.5,0.1-0.8,0.1h-1.9V304.8z"/>
	<polygon fill="#FFFFFF" points="317.2,312 311.7,312 311.7,302.8 309.2,302.8 309.2,314.1 317.2,314.1 	"/>
	<path fill="#FFFFFF" d="M328.4,314.1l-4.2-11.3h-2.5l-4.3,11.3h2.5l0.9-2.5h4.2l0.9,2.5H328.4z M322.9,305.6L322.9,305.6l1.5,4.1
		h-2.9L322.9,305.6z"/>
	<polygon fill="#FFFFFF" points="338.9,314.1 338.9,302.8 336.6,302.8 336.6,310.4 336.6,310.4 331.9,302.8 329.4,302.8 
		329.4,314.1 331.7,314.1 331.7,306.6 331.8,306.6 336.4,314.1 	"/>
	<polygon fill="#FFFFFF" points="350.6,302.8 348.3,302.8 348.3,310.4 348.3,310.4 343.6,302.8 341.1,302.8 341.1,314.1 
		343.4,314.1 343.4,306.6 343.5,306.6 348.1,314.1 350.6,314.1 	"/>
	<rect x="352.8" y="302.8" fill="#FFFFFF" width="2.5" height="11.3"/>
	<polygon fill="#FFFFFF" points="367,302.8 364.7,302.8 364.7,310.4 364.6,310.4 359.9,302.8 357.5,302.8 357.5,314.1 359.8,314.1 
		359.8,306.6 359.8,306.6 364.5,314.1 367,314.1 	"/>
	<path fill="#FFFFFF" d="M379.1,314.1V308h-4.7v1.8h2.5c-0.1,0.8-0.3,1.4-0.8,1.8c-0.4,0.4-1.1,0.6-1.9,0.6c-0.6,0-1-0.1-1.4-0.3
		c-0.4-0.2-0.7-0.5-0.9-0.9c-0.2-0.4-0.4-0.8-0.5-1.2c-0.1-0.4-0.2-0.9-0.2-1.4c0-0.5,0.1-1,0.2-1.4c0.1-0.5,0.3-0.9,0.5-1.2
		c0.2-0.4,0.6-0.7,0.9-0.9c0.4-0.2,0.9-0.3,1.4-0.3c0.6,0,1.1,0.2,1.5,0.5c0.4,0.3,0.7,0.8,0.9,1.4h2.4c-0.1-0.6-0.2-1.2-0.5-1.7
		c-0.3-0.5-0.6-0.9-1.1-1.2c-0.4-0.3-0.9-0.6-1.5-0.8c-0.5-0.2-1.1-0.3-1.7-0.3c-0.9,0-1.6,0.2-2.3,0.5c-0.7,0.3-1.3,0.7-1.7,1.3
		c-0.5,0.5-0.8,1.2-1.1,1.9c-0.3,0.7-0.4,1.5-0.4,2.3c0,0.8,0.1,1.6,0.4,2.3c0.3,0.7,0.6,1.3,1.1,1.9c0.5,0.5,1.1,0.9,1.7,1.2
		c0.7,0.3,1.5,0.5,2.3,0.5c0.5,0,1.1-0.1,1.6-0.3c0.5-0.2,1-0.6,1.5-1.2l0.3,1.3H379.1z"/>
	<path fill="#FFFFFF" d="M391.2,302.8h-2.5l-4.3,11.3h2.5l0.9-2.5h4.2l0.9,2.5h2.6L391.2,302.8z M388.4,309.8l1.5-4.1h0l1.4,4.1
		H388.4z"/>
	<path fill="#FFFFFF" d="M402.5,314.1c0.6-0.2,1.1-0.4,1.5-0.8c0.4-0.3,0.7-0.7,0.9-1.1c0.2-0.4,0.3-0.9,0.3-1.4
		c0-0.6-0.1-1.2-0.4-1.6c-0.3-0.4-0.6-0.7-1-1c-0.4-0.2-0.7-0.4-1.1-0.5c-0.4-0.1-0.7-0.2-0.9-0.2c-0.7-0.2-1.3-0.3-1.7-0.4
		c-0.4-0.1-0.8-0.2-1-0.3c-0.2-0.1-0.4-0.2-0.5-0.4c-0.1-0.1-0.1-0.3-0.1-0.5c0-0.2,0.1-0.4,0.2-0.6c0.1-0.2,0.2-0.3,0.4-0.4
		c0.2-0.1,0.3-0.2,0.5-0.2c0.2,0,0.4-0.1,0.6-0.1c0.3,0,0.6,0,0.8,0.1c0.3,0.1,0.5,0.1,0.7,0.3c0.2,0.1,0.4,0.3,0.5,0.5
		c0.1,0.2,0.2,0.5,0.2,0.8h2.4c0-0.7-0.1-1.2-0.4-1.7s-0.6-0.8-1-1.1c-0.4-0.3-0.9-0.5-1.4-0.6c-0.5-0.1-1.1-0.2-1.7-0.2
		c-0.5,0-1,0.1-1.5,0.2c-0.5,0.1-1,0.3-1.4,0.6s-0.7,0.6-1,1.1c-0.2,0.4-0.4,0.9-0.4,1.5c0,0.5,0.1,1,0.3,1.3
		c0.2,0.4,0.5,0.7,0.8,0.9c0.3,0.2,0.7,0.4,1.1,0.6s0.8,0.3,1.2,0.4c0.4,0.1,0.8,0.2,1.2,0.3c0.4,0.1,0.8,0.2,1.1,0.3
		c0.3,0.1,0.6,0.3,0.8,0.5c0.2,0.2,0.3,0.4,0.3,0.7c0,0.3-0.1,0.5-0.2,0.7c-0.1,0.2-0.3,0.3-0.6,0.4c-0.2,0.1-0.5,0.2-0.7,0.2
		c-0.3,0-0.5,0.1-0.7,0.1c-0.3,0-0.6,0-0.9-0.1c-0.3-0.1-0.6-0.2-0.8-0.4s-0.4-0.4-0.5-0.6c-0.1-0.3-0.2-0.6-0.2-1h-2.4
		c0,0.7,0.1,1.3,0.4,1.8c0.3,0.5,0.6,0.9,1.1,1.2c0.4,0.3,1,0.6,1.5,0.7c0.6,0.2,1.2,0.2,1.8,0.2
		C401.2,314.4,401.9,314.3,402.5,314.1z"/>
	<path fill="#FFFFFF" d="M412.7,314.1c0.6-0.2,1.1-0.4,1.5-0.8c0.4-0.3,0.7-0.7,0.9-1.1c0.2-0.4,0.3-0.9,0.3-1.4
		c0-0.6-0.1-1.2-0.4-1.6c-0.3-0.4-0.6-0.7-1-1c-0.4-0.2-0.7-0.4-1.1-0.5c-0.4-0.1-0.7-0.2-0.9-0.2c-0.7-0.2-1.3-0.3-1.7-0.4
		c-0.4-0.1-0.8-0.2-1-0.3c-0.2-0.1-0.4-0.2-0.5-0.4c-0.1-0.1-0.1-0.3-0.1-0.5c0-0.2,0.1-0.4,0.2-0.6c0.1-0.2,0.2-0.3,0.4-0.4
		c0.2-0.1,0.3-0.2,0.5-0.2c0.2,0,0.4-0.1,0.6-0.1c0.3,0,0.6,0,0.8,0.1c0.3,0.1,0.5,0.1,0.7,0.3c0.2,0.1,0.4,0.3,0.5,0.5
		c0.1,0.2,0.2,0.5,0.2,0.8h2.4c0-0.7-0.1-1.2-0.4-1.7c-0.2-0.5-0.6-0.8-1-1.1c-0.4-0.3-0.9-0.5-1.4-0.6c-0.5-0.1-1.1-0.2-1.7-0.2
		c-0.5,0-1,0.1-1.5,0.2c-0.5,0.1-1,0.3-1.4,0.6s-0.7,0.6-1,1.1c-0.2,0.4-0.4,0.9-0.4,1.5c0,0.5,0.1,1,0.3,1.3
		c0.2,0.4,0.5,0.7,0.8,0.9c0.3,0.2,0.7,0.4,1.1,0.6s0.8,0.3,1.2,0.4c0.4,0.1,0.8,0.2,1.2,0.3c0.4,0.1,0.8,0.2,1.1,0.3
		c0.3,0.1,0.6,0.3,0.8,0.5c0.2,0.2,0.3,0.4,0.3,0.7c0,0.3-0.1,0.5-0.2,0.7c-0.1,0.2-0.3,0.3-0.6,0.4c-0.2,0.1-0.5,0.2-0.7,0.2
		c-0.3,0-0.5,0.1-0.7,0.1c-0.3,0-0.6,0-0.9-0.1c-0.3-0.1-0.6-0.2-0.8-0.4s-0.4-0.4-0.5-0.6c-0.1-0.3-0.2-0.6-0.2-1h-2.4
		c0,0.7,0.1,1.3,0.4,1.8c0.3,0.5,0.6,0.9,1.1,1.2c0.4,0.3,1,0.6,1.5,0.7c0.6,0.2,1.2,0.2,1.8,0.2
		C411.5,314.4,412.1,314.3,412.7,314.1z"/>
	<path fill="#FFFFFF" d="M421.9,314.4c0.9,0,1.7-0.2,2.3-0.5c0.7-0.3,1.3-0.7,1.7-1.2c0.5-0.5,0.8-1.1,1.1-1.9
		c0.3-0.7,0.4-1.5,0.4-2.3c0-0.8-0.1-1.6-0.4-2.3c-0.3-0.7-0.6-1.4-1.1-1.9c-0.5-0.5-1.1-1-1.7-1.3c-0.7-0.3-1.5-0.5-2.3-0.5
		c-0.9,0-1.6,0.2-2.3,0.5c-0.7,0.3-1.3,0.7-1.7,1.3c-0.5,0.5-0.8,1.2-1.1,1.9c-0.3,0.7-0.4,1.5-0.4,2.3c0,0.8,0.1,1.6,0.4,2.3
		c0.3,0.7,0.6,1.3,1.1,1.9c0.5,0.5,1.1,0.9,1.7,1.2C420.3,314.2,421,314.4,421.9,314.4z M418.8,308.5c0-0.5,0.1-1,0.2-1.4
		c0.1-0.5,0.3-0.9,0.5-1.2c0.2-0.4,0.6-0.7,0.9-0.9c0.4-0.2,0.9-0.3,1.4-0.3s1,0.1,1.4,0.3c0.4,0.2,0.7,0.5,0.9,0.9
		c0.2,0.4,0.4,0.8,0.5,1.2c0.1,0.5,0.2,0.9,0.2,1.4c0,0.5-0.1,0.9-0.2,1.4c-0.1,0.4-0.3,0.9-0.5,1.2c-0.2,0.4-0.6,0.6-0.9,0.9
		c-0.4,0.2-0.9,0.3-1.4,0.3s-1-0.1-1.4-0.3c-0.4-0.2-0.7-0.5-0.9-0.9c-0.2-0.4-0.4-0.8-0.5-1.2C418.9,309.5,418.8,309,418.8,308.5z"
		/>
	<path fill="#FFFFFF" d="M436.1,314.1c0.6-0.2,1.1-0.5,1.5-0.9c0.4-0.4,0.8-0.9,1-1.5s0.4-1.2,0.5-1.9h-2.4
		c-0.1,0.8-0.4,1.4-0.8,1.8c-0.4,0.5-1,0.7-1.8,0.7c-0.6,0-1-0.1-1.4-0.3c-0.4-0.2-0.7-0.5-0.9-0.9c-0.2-0.4-0.4-0.8-0.5-1.2
		c-0.1-0.4-0.2-0.9-0.2-1.4c0-0.5,0.1-1,0.2-1.4c0.1-0.5,0.3-0.9,0.5-1.2c0.2-0.4,0.6-0.7,0.9-0.9c0.4-0.2,0.9-0.3,1.4-0.3
		c0.3,0,0.6,0.1,0.9,0.2c0.3,0.1,0.5,0.2,0.8,0.4c0.2,0.2,0.4,0.4,0.6,0.6c0.1,0.2,0.2,0.5,0.3,0.8h2.4c-0.1-0.7-0.3-1.2-0.5-1.7
		c-0.3-0.5-0.6-0.9-1.1-1.3c-0.4-0.3-0.9-0.6-1.5-0.8c-0.6-0.2-1.1-0.3-1.8-0.3c-0.9,0-1.6,0.2-2.3,0.5c-0.7,0.3-1.3,0.7-1.7,1.3
		c-0.5,0.5-0.8,1.2-1.1,1.9c-0.3,0.7-0.4,1.5-0.4,2.3c0,0.8,0.1,1.6,0.4,2.3c0.3,0.7,0.6,1.3,1.1,1.9c0.5,0.5,1.1,0.9,1.7,1.2
		c0.7,0.3,1.5,0.5,2.3,0.5C434.9,314.4,435.5,314.3,436.1,314.1z"/>
	<rect x="440.8" y="302.8" fill="#FFFFFF" width="2.5" height="11.3"/>
	<path fill="#FFFFFF" d="M451.1,302.8h-2.5l-4.3,11.3h2.5l0.9-2.5h4.2l0.9,2.5h2.6L451.1,302.8z M448.3,309.8l1.5-4.1h0l1.4,4.1
		H448.3z"/>
	<polygon fill="#FFFFFF" points="463.2,302.8 454,302.8 454,304.9 457.4,304.9 457.4,314.1 459.8,314.1 459.8,304.9 463.2,304.9 	
		"/>
	<rect x="464.5" y="302.8" fill="#FFFFFF" width="2.5" height="11.3"/>
	<path fill="#FFFFFF" d="M476.6,313.9c0.7-0.3,1.3-0.7,1.7-1.2c0.5-0.5,0.8-1.1,1.1-1.9c0.3-0.7,0.4-1.5,0.4-2.3
		c0-0.8-0.1-1.6-0.4-2.3c-0.3-0.7-0.6-1.4-1.1-1.9c-0.5-0.5-1.1-1-1.7-1.3c-0.7-0.3-1.5-0.5-2.3-0.5c-0.9,0-1.6,0.2-2.3,0.5
		c-0.7,0.3-1.3,0.7-1.7,1.3c-0.5,0.5-0.8,1.2-1.1,1.9c-0.3,0.7-0.4,1.5-0.4,2.3c0,0.8,0.1,1.6,0.4,2.3c0.3,0.7,0.6,1.3,1.1,1.9
		c0.5,0.5,1.1,0.9,1.7,1.2c0.7,0.3,1.5,0.5,2.3,0.5C475.1,314.4,475.9,314.2,476.6,313.9z M471.9,311.1c-0.2-0.4-0.4-0.8-0.5-1.2
		c-0.1-0.4-0.2-0.9-0.2-1.4c0-0.5,0.1-1,0.2-1.4c0.1-0.5,0.3-0.9,0.5-1.2c0.2-0.4,0.6-0.7,0.9-0.9c0.4-0.2,0.9-0.3,1.4-0.3
		s1,0.1,1.4,0.3c0.4,0.2,0.7,0.5,0.9,0.9c0.2,0.4,0.4,0.8,0.5,1.2c0.1,0.5,0.2,0.9,0.2,1.4c0,0.5-0.1,0.9-0.2,1.4
		c-0.1,0.4-0.3,0.9-0.5,1.2c-0.2,0.4-0.6,0.6-0.9,0.9c-0.4,0.2-0.9,0.3-1.4,0.3s-1-0.1-1.4-0.3C472.4,311.8,472.1,311.5,471.9,311.1
		z"/>
	<polygon fill="#FFFFFF" points="488.7,302.8 488.7,310.4 488.6,310.4 483.9,302.8 481.5,302.8 481.5,314.1 483.8,314.1 
		483.8,306.6 483.8,306.6 488.5,314.1 491,314.1 491,302.8 	"/>
	<linearGradient id="SVGID_2_" gradientUnits="userSpaceOnUse" x1="116.8099" y1="283.9645" x2="495.8039" y2="283.9645">
		<stop  offset="0" style="stop-color:#032074"/>
		<stop  offset="1" style="stop-color:#1C69BD"/>
	</linearGradient>
	<path fill="url(#SVGID_2_)" d="M208.5,285h0.4c-0.5-0.6-0.9-1.4-1.3-2.1c0,0.1,0,0.2,0,0.2C207.9,283.8,208.4,284.5,208.5,285z"/>
	<linearGradient id="SVGID_4_" gradientUnits="userSpaceOnUse" x1="116.8099" y1="231.5657" x2="495.8039" y2="231.5657">
		<stop  offset="0" style="stop-color:#032074"/>
		<stop  offset="1" style="stop-color:#1C69BD"/>
	</linearGradient>
	<polygon fill="url(#SVGID_4_)" points="248.4,240.8 293.2,240.8 293.2,222.6 248.4,222.6 248.4,197.9 300.1,197.9 300.1,178.1 
		224.9,178.1 224.9,285 248.4,285 	"/>
	<linearGradient id="SVGID_6_" gradientUnits="userSpaceOnUse" x1="116.8099" y1="231.5657" x2="495.8039" y2="231.5657">
		<stop  offset="0" style="stop-color:#032074"/>
		<stop  offset="1" style="stop-color:#1C69BD"/>
	</linearGradient>
	<path fill="url(#SVGID_6_)" d="M337.2,246.7h24.7c6.7,0,12.4-1,17.1-2.9c4.7-1.9,8.5-4.5,11.5-7.7c2.9-3.2,5.1-6.9,6.4-11
		c1.3-4.1,2-8.4,2-12.7c0-4.4-0.7-8.6-2-12.7c-1.3-4.1-3.5-7.7-6.4-10.9c-2.9-3.2-6.8-5.8-11.5-7.7c-4.7-1.9-10.4-2.9-17.1-2.9
		h-48.2V285h23.5V246.7z M337.2,196.4h18.3c2.7,0,5.3,0.2,7.8,0.6c2.5,0.4,4.7,1.2,6.6,2.3c1.9,1.1,3.4,2.8,4.6,4.9
		c1.1,2.1,1.7,4.8,1.7,8.2c0,3.4-0.6,6.1-1.7,8.2c-1.1,2.1-2.7,3.7-4.6,4.9c-1.9,1.1-4.1,1.9-6.6,2.3c-2.5,0.4-5.1,0.6-7.8,0.6
		h-18.3V196.4z"/>
	<linearGradient id="SVGID_8_" gradientUnits="userSpaceOnUse" x1="116.8099" y1="231.5657" x2="495.8039" y2="231.5657">
		<stop  offset="0" style="stop-color:#032074"/>
		<stop  offset="1" style="stop-color:#1C69BD"/>
	</linearGradient>
	<path fill="url(#SVGID_8_)" d="M414.9,285l8.4-23.8h40l8.1,23.8h24.4l-40-106.9h-24.1L391.3,285H414.9z M443.4,204.5h0.3l13.5,39.2
		h-27.7L443.4,204.5z"/>
	<path fill="#FAF8EC" d="M117.3,178.1h-0.5v4.8c0.1-1.5,0.2-3,0.5-4.5C117.3,178.3,117.3,178.2,117.3,178.1z"/>
	<linearGradient id="SVGID_9_" gradientUnits="userSpaceOnUse" x1="116.8099" y1="180.4911" x2="495.8039" y2="180.4911">
		<stop  offset="0" style="stop-color:#032074"/>
		<stop  offset="1" style="stop-color:#1C69BD"/>
	</linearGradient>
	<path fill="url(#SVGID_9_)" d="M117.3,178.1h-0.5v4.8c0.1-1.5,0.2-3,0.5-4.5C117.3,178.3,117.3,178.2,117.3,178.1z"/>
	<path fill="#FAF8EC" d="M188.3,180.8C188.3,180.8,188.3,180.8,188.3,180.8c-0.3-0.2-0.6-0.3-0.9-0.4c-3.7-1.5-7.8-2.2-12.3-2.3
		c0.3,0,0.6,0.1,0.9,0.1C180.2,178.7,184.4,179.4,188.3,180.8z"/>
	<linearGradient id="SVGID_10_" gradientUnits="userSpaceOnUse" x1="116.8099" y1="179.4834" x2="495.8039" y2="179.4834">
		<stop  offset="0" style="stop-color:#032074"/>
		<stop  offset="1" style="stop-color:#1C69BD"/>
	</linearGradient>
	<path fill="url(#SVGID_10_)" d="M188.3,180.8C188.3,180.8,188.3,180.8,188.3,180.8c-0.3-0.2-0.6-0.3-0.9-0.4
		c-3.7-1.5-7.8-2.2-12.3-2.3c0.3,0,0.6,0.1,0.9,0.1C180.2,178.7,184.4,179.4,188.3,180.8z"/>
	<path fill="#7A755D" d="M156.9,178.5l0-0.4h-19c0.1,0.1,0.2,0.2,0.2,0.3C144.4,178.5,150.7,178.5,156.9,178.5z"/>
	<linearGradient id="SVGID_11_" gradientUnits="userSpaceOnUse" x1="116.8099" y1="178.2976" x2="495.8039" y2="178.2976">
		<stop  offset="0" style="stop-color:#032074"/>
		<stop  offset="1" style="stop-color:#1C69BD"/>
	</linearGradient>
	<path fill="url(#SVGID_11_)" d="M156.9,178.5l0-0.4h-19c0.1,0.1,0.2,0.2,0.2,0.3C144.4,178.5,150.7,178.5,156.9,178.5z"/>
	<path fill="#7E7161" d="M132.9,178.5c0.1-0.1,0.1-0.2,0.2-0.4h-15.9c0,0.1,0,0.2,0,0.2C122.5,178.5,127.7,178.5,132.9,178.5z"/>
	<linearGradient id="SVGID_12_" gradientUnits="userSpaceOnUse" x1="116.8099" y1="178.2958" x2="495.8039" y2="178.2958">
		<stop  offset="0" style="stop-color:#032074"/>
		<stop  offset="1" style="stop-color:#1C69BD"/>
	</linearGradient>
	<path fill="url(#SVGID_12_)" d="M132.9,178.5c0.1-0.1,0.1-0.2,0.2-0.4h-15.9c0,0.1,0,0.2,0,0.2
		C122.5,178.5,127.7,178.5,132.9,178.5z"/>
	<path fill="#D5D5C1" d="M137.9,178.1h-4.7c-0.1,0.1-0.2,0.3-0.2,0.4c1.7,0,3.5,0,5.2,0C138.1,178.4,138,178.2,137.9,178.1z"/>
	<linearGradient id="SVGID_13_" gradientUnits="userSpaceOnUse" x1="116.8099" y1="178.2843" x2="495.8039" y2="178.2843">
		<stop  offset="0" style="stop-color:#032074"/>
		<stop  offset="1" style="stop-color:#1C69BD"/>
	</linearGradient>
	<path fill="url(#SVGID_13_)" d="M137.9,178.1h-4.7c-0.1,0.1-0.2,0.3-0.2,0.4c1.7,0,3.5,0,5.2,0C138.1,178.4,138,178.2,137.9,178.1z
		"/>
	<path fill="#CBD5EE" d="M156.9,178.1l0,0.4c6.4,0.1,12.7-0.1,19.1-0.3c-0.3,0-0.6-0.1-0.9-0.1c-0.2,0-0.4,0-0.6,0H156.9z"/>
	<linearGradient id="SVGID_14_" gradientUnits="userSpaceOnUse" x1="116.8099" y1="178.304" x2="495.8039" y2="178.304">
		<stop  offset="0" style="stop-color:#032074"/>
		<stop  offset="1" style="stop-color:#1C69BD"/>
	</linearGradient>
	<path fill="url(#SVGID_14_)" d="M156.9,178.1l0,0.4c6.4,0.1,12.7-0.1,19.1-0.3c-0.3,0-0.6-0.1-0.9-0.1c-0.2,0-0.4,0-0.6,0H156.9z"
		/>
	<path fill="#627094" d="M117.4,203.1c0.1-8.3,0-16.5-0.2-24.8c-0.2,1.5-0.3,3-0.5,4.5v20.3L117.4,203.1z"/>
	<linearGradient id="SVGID_15_" gradientUnits="userSpaceOnUse" x1="116.8099" y1="190.7713" x2="495.8039" y2="190.7713">
		<stop  offset="0" style="stop-color:#032074"/>
		<stop  offset="1" style="stop-color:#1C69BD"/>
	</linearGradient>
	<path fill="url(#SVGID_15_)" d="M117.4,203.1c0.1-8.3,0-16.5-0.2-24.8c-0.2,1.5-0.3,3-0.5,4.5v20.3L117.4,203.1z"/>
	<path fill="#0C1A4A" d="M188.3,180.8c-3.9-1.5-8.1-2.1-12.2-2.6c-6.4,0.2-12.7,0.3-19.1,0.3c-6.3,0-12.5,0-18.8,0
		c-1.7,0-3.5,0-5.2,0c-5.2,0-10.5,0.1-15.7-0.1c0.2,8.3,0.2,16.5,0.2,24.8c0,7.4,0,14.8-0.1,22.3c0.4,18.4-0.4,36.8,0.4,55.2
		c1.9-33.5-0.1-67.5,1.1-100.8c6.8-0.4,14.6-0.7,21.7,0c14.5,0.5,29.3-2.5,43.6,0.9c6.4,1.5,10.5,6.6,15,10.9
		c2.8,0.7,3.4,9.8,4.8,5.7c-0.1-0.4-0.3-0.8-0.4-1.2c-0.7-1.7-1.6-3.4-2.6-4.9C197.5,186.9,193.2,183.3,188.3,180.8z"/>
	<linearGradient id="SVGID_16_" gradientUnits="userSpaceOnUse" x1="116.8099" y1="229.4298" x2="495.8039" y2="229.4298">
		<stop  offset="0" style="stop-color:#032074"/>
		<stop  offset="1" style="stop-color:#1C69BD"/>
	</linearGradient>
	<path fill="url(#SVGID_16_)" d="M188.3,180.8c-3.9-1.5-8.1-2.1-12.2-2.6c-6.4,0.2-12.7,0.3-19.1,0.3c-6.3,0-12.5,0-18.8,0
		c-1.7,0-3.5,0-5.2,0c-5.2,0-10.5,0.1-15.7-0.1c0.2,8.3,0.2,16.5,0.2,24.8c0,7.4,0,14.8-0.1,22.3c0.4,18.4-0.4,36.8,0.4,55.2
		c1.9-33.5-0.1-67.5,1.1-100.8c6.8-0.4,14.6-0.7,21.7,0c14.5,0.5,29.3-2.5,43.6,0.9c6.4,1.5,10.5,6.6,15,10.9
		c2.8,0.7,3.4,9.8,4.8,5.7c-0.1-0.4-0.3-0.8-0.4-1.2c-0.7-1.7-1.6-3.4-2.6-4.9C197.5,186.9,193.2,183.3,188.3,180.8z"/>
	<path fill="#83795C" d="M201,191.2c-1.1-1.6-2.3-3.1-3.7-4.4c-2.5-2.5-5.5-4.5-9-6c0,0,0,0,0,0C193.2,183.3,197.5,186.9,201,191.2z
		"/>
	<linearGradient id="SVGID_17_" gradientUnits="userSpaceOnUse" x1="116.8099" y1="186.0092" x2="495.8039" y2="186.0092">
		<stop  offset="0" style="stop-color:#032074"/>
		<stop  offset="1" style="stop-color:#1C69BD"/>
	</linearGradient>
	<path fill="url(#SVGID_17_)" d="M201,191.2c-1.1-1.6-2.3-3.1-3.7-4.4c-2.5-2.5-5.5-4.5-9-6c0,0,0,0,0,0
		C193.2,183.3,197.5,186.9,201,191.2z"/>
	<path fill="#032074" d="M137.8,283.5c3.1-7.1-0.2-15.3,1-22.8c1.1-6.3-3-13.9,1.9-19.3c12.3,1.2,25.3-1.6,36.8,3.8
		c-0.8-1.4-1.6-2.8-2.4-4.2c2.2-0.4,4.4-0.5,6.6-0.3c-2.6-2-4.7-6.3-2.9-9.7c-2.6-1.9,2.4-4.3-1.3-5.9c-7,4.4-15.2,3.1-22.9,3.1
		c-5.1,0-10.9,2.2-15.6-0.8c-0.9-9.1,0.4-18.2-0.7-27.3c-0.5-2.6,1.7-5.8,4.6-5.3c11.1,0.7,22.9-2.1,33.6,1.8
		c8.6,5.3,9.1,18.5,3.9,26.3c4.4,2.5,1.5-5.1,5.1-4.7c-0.3-3.2-1.5-6.3-0.1-9.5c-0.5-4.8-3.6-12.2,5.4-9.1c-5.4-3.6,1.5-12-5.2-13.7
		c2.1-1,9.1-1.5,5.3,1.9c1.1,2.2,3.1,3.2,5.4,2.1c-2.9,3.8-0.1,3.4,3,1.6c-4.6-4.2-8.6-9.4-15-10.9c-14.3-3.3-29.1-0.3-43.6-0.9
		c-7.1-0.7-15-0.4-21.7,0c-1.2,33.3,0.8,67.3-1.1,100.8l-0.1,0.6C121.1,287.5,131.5,283.4,137.8,283.5z"/>
	<linearGradient id="SVGID_18_" gradientUnits="userSpaceOnUse" x1="116.8099" y1="231.949" x2="495.8039" y2="231.949">
		<stop  offset="0" style="stop-color:#032074"/>
		<stop  offset="1" style="stop-color:#1C69BD"/>
	</linearGradient>
	<path fill="url(#SVGID_18_)" d="M137.8,283.5c3.1-7.1-0.2-15.3,1-22.8c1.1-6.3-3-13.9,1.9-19.3c12.3,1.2,25.3-1.6,36.8,3.8
		c-0.8-1.4-1.6-2.8-2.4-4.2c2.2-0.4,4.4-0.5,6.6-0.3c-2.6-2-4.7-6.3-2.9-9.7c-2.6-1.9,2.4-4.3-1.3-5.9c-7,4.4-15.2,3.1-22.9,3.1
		c-5.1,0-10.9,2.2-15.6-0.8c-0.9-9.1,0.4-18.2-0.7-27.3c-0.5-2.6,1.7-5.8,4.6-5.3c11.1,0.7,22.9-2.1,33.6,1.8
		c8.6,5.3,9.1,18.5,3.9,26.3c4.4,2.5,1.5-5.1,5.1-4.7c-0.3-3.2-1.5-6.3-0.1-9.5c-0.5-4.8-3.6-12.2,5.4-9.1c-5.4-3.6,1.5-12-5.2-13.7
		c2.1-1,9.1-1.5,5.3,1.9c1.1,2.2,3.1,3.2,5.4,2.1c-2.9,3.8-0.1,3.4,3,1.6c-4.6-4.2-8.6-9.4-15-10.9c-14.3-3.3-29.1-0.3-43.6-0.9
		c-7.1-0.7-15-0.4-21.7,0c-1.2,33.3,0.8,67.3-1.1,100.8l-0.1,0.6C121.1,287.5,131.5,283.4,137.8,283.5z"/>
	<path fill="#05287B" d="M188.8,234.7L188.8,234.7c-1.4-1.7,1.8-2.5,2.9-3.2c8.5-3.3,10.5-12.7,13.6-20.3c0-3.6-0.2-7.2-0.4-10.8
		c-0.2-1-0.5-2-0.9-3c-1.4,4.1-1.9-4.9-4.8-5.7c-3.1,1.8-5.9,2.2-3-1.6c-2.3,1.2-4.3,0.1-5.4-2.1c3.9-3.4-3.2-2.9-5.3-1.9
		c6.8,1.7-0.2,10,5.2,13.7c-9-3.1-5.9,4.3-5.4,9.1c-1.4,3.2-0.2,6.3,0.1,9.5c-3.6-0.4-0.7,7.1-5.1,4.7c-1,0.7-1.9,1.5-2.9,2.2
		c3.6,1.6-1.3,4,1.3,5.9c-1.8,3.4,0.3,7.7,2.9,9.7c-2.2-0.2-4.4-0.1-6.6,0.3c0.7,1.4,1.6,2.8,2.4,4.2c7.6,8.2,6.2,21.1,6.1,31.3
		c0.1,0.4,0.2,1.2,0.3,1.5c2.3,2.4,0.9,7.6,6.2,6.3c4.7-0.7,11.1,1.5,15-1.6c-1.1-11.3-1.7-22.8-4-33.9c-1.5-6.3-8.4-8.9-11.9-13.8
		L188.8,234.7C188.9,234.7,188.8,234.7,188.8,234.7z"/>
	<linearGradient id="SVGID_19_" gradientUnits="userSpaceOnUse" x1="116.8099" y1="234.9322" x2="495.8039" y2="234.9322">
		<stop  offset="0" style="stop-color:#032074"/>
		<stop  offset="1" style="stop-color:#1C69BD"/>
	</linearGradient>
	<path fill="url(#SVGID_19_)" d="M188.8,234.7L188.8,234.7c-1.4-1.7,1.8-2.5,2.9-3.2c8.5-3.3,10.5-12.7,13.6-20.3
		c0-3.6-0.2-7.2-0.4-10.8c-0.2-1-0.5-2-0.9-3c-1.4,4.1-1.9-4.9-4.8-5.7c-3.1,1.8-5.9,2.2-3-1.6c-2.3,1.2-4.3,0.1-5.4-2.1
		c3.9-3.4-3.2-2.9-5.3-1.9c6.8,1.7-0.2,10,5.2,13.7c-9-3.1-5.9,4.3-5.4,9.1c-1.4,3.2-0.2,6.3,0.1,9.5c-3.6-0.4-0.7,7.1-5.1,4.7
		c-1,0.7-1.9,1.5-2.9,2.2c3.6,1.6-1.3,4,1.3,5.9c-1.8,3.4,0.3,7.7,2.9,9.7c-2.2-0.2-4.4-0.1-6.6,0.3c0.7,1.4,1.6,2.8,2.4,4.2
		c7.6,8.2,6.2,21.1,6.1,31.3c0.1,0.4,0.2,1.2,0.3,1.5c2.3,2.4,0.9,7.6,6.2,6.3c4.7-0.7,11.1,1.5,15-1.6c-1.1-11.3-1.7-22.8-4-33.9
		c-1.5-6.3-8.4-8.9-11.9-13.8L188.8,234.7C188.9,234.7,188.8,234.7,188.8,234.7z"/>
	<path fill="#142050" d="M176.6,196.7c-10.8-3.9-22.6-1-33.6-1.8c-2.9-0.5-5.1,2.7-4.6,5.3c1.1,9.1-0.1,18.3,0.7,27.3
		c4.7,3,10.4,0.8,15.6,0.8c7.7,0,16,1.3,22.9-3.1c1-0.7,1.9-1.5,2.9-2.2C185.7,215.1,185.2,202,176.6,196.7z M170.9,226.3
		c-0.1,1.2-4.3,1.2-4.9,0.2h-0.8c-0.3,0.9-3.1,0.9-3.3,0H161c-0.4,0.7-1.2,0.8-2.5,0.5c-3.9,0-7.8,0.3-11.7-0.2l-0.4,0
		c-1.5,0-4.5,0.1-6,0.2c0-0.2,0-0.3,0-0.5h-0.2v-30.1h25.8c5.4,0,9.4,1.2,12.1,3.5c1,0.9,1.9,2,2.5,3.3
		C185.5,211.3,181.6,225.9,170.9,226.3z"/>
	<linearGradient id="SVGID_20_" gradientUnits="userSpaceOnUse" x1="116.8099" y1="211.8199" x2="495.8039" y2="211.8199">
		<stop  offset="0" style="stop-color:#032074"/>
		<stop  offset="1" style="stop-color:#1C69BD"/>
	</linearGradient>
	<path fill="url(#SVGID_20_)" d="M176.6,196.7c-10.8-3.9-22.6-1-33.6-1.8c-2.9-0.5-5.1,2.7-4.6,5.3c1.1,9.1-0.1,18.3,0.7,27.3
		c4.7,3,10.4,0.8,15.6,0.8c7.7,0,16,1.3,22.9-3.1c1-0.7,1.9-1.5,2.9-2.2C185.7,215.1,185.2,202,176.6,196.7z M170.9,226.3
		c-0.1,1.2-4.3,1.2-4.9,0.2h-0.8c-0.3,0.9-3.1,0.9-3.3,0H161c-0.4,0.7-1.2,0.8-2.5,0.5c-3.9,0-7.8,0.3-11.7-0.2l-0.4,0
		c-1.5,0-4.5,0.1-6,0.2c0-0.2,0-0.3,0-0.5h-0.2v-30.1h25.8c5.4,0,9.4,1.2,12.1,3.5c1,0.9,1.9,2,2.5,3.3
		C185.5,211.3,181.6,225.9,170.9,226.3z"/>
	<path fill="#7D7768" d="M140.5,226.5c0,0.2,0,0.3,0,0.5c1.5,0,4.5-0.1,6-0.2c0-0.1-0.1-0.2-0.1-0.3H140.5z"/>
	<linearGradient id="SVGID_21_" gradientUnits="userSpaceOnUse" x1="116.8099" y1="226.7349" x2="495.8039" y2="226.7349">
		<stop  offset="0" style="stop-color:#032074"/>
		<stop  offset="1" style="stop-color:#1C69BD"/>
	</linearGradient>
	<path fill="url(#SVGID_21_)" d="M140.5,226.5c0,0.2,0,0.3,0,0.5c1.5,0,4.5-0.1,6-0.2c0-0.1-0.1-0.2-0.1-0.3H140.5z"/>
	<path fill="#F5F5ED" d="M180.7,203.2c1,2.1,1.6,4.8,1.6,8c0,5.4-1.3,9.3-4,11.7c-2,1.7-4.6,2.8-8,3.3c0.3,0,0.5,0,0.7,0.1
		C181.6,225.9,185.5,211.3,180.7,203.2z"/>
	<linearGradient id="SVGID_22_" gradientUnits="userSpaceOnUse" x1="116.8099" y1="214.7295" x2="495.8039" y2="214.7295">
		<stop  offset="0" style="stop-color:#032074"/>
		<stop  offset="1" style="stop-color:#1C69BD"/>
	</linearGradient>
	<path fill="url(#SVGID_22_)" d="M180.7,203.2c1,2.1,1.6,4.8,1.6,8c0,5.4-1.3,9.3-4,11.7c-2,1.7-4.6,2.8-8,3.3c0.3,0,0.5,0,0.7,0.1
		C181.6,225.9,185.5,211.3,180.7,203.2z"/>
	<path fill="#E5E1D6" d="M205.4,213c0.2-1.7,0.4-3.5,0.4-5.3c0-2.5-0.3-4.9-0.8-7.3c0.2,3.6,0.5,7.2,0.4,10.8
		C205.4,211.8,205.4,212.4,205.4,213z"/>
	<linearGradient id="SVGID_23_" gradientUnits="userSpaceOnUse" x1="116.8099" y1="206.6463" x2="495.8039" y2="206.6463">
		<stop  offset="0" style="stop-color:#032074"/>
		<stop  offset="1" style="stop-color:#1C69BD"/>
	</linearGradient>
	<path fill="url(#SVGID_23_)" d="M205.4,213c0.2-1.7,0.4-3.5,0.4-5.3c0-2.5-0.3-4.9-0.8-7.3c0.2,3.6,0.5,7.2,0.4,10.8
		C205.4,211.8,205.4,212.4,205.4,213z"/>
	<path fill="#41434B" d="M117.4,203.1l-0.6,0.1v21.9l0.5,0.3C117.5,218,117.5,210.5,117.4,203.1z"/>
	<linearGradient id="SVGID_24_" gradientUnits="userSpaceOnUse" x1="116.8099" y1="214.2551" x2="495.8039" y2="214.2551">
		<stop  offset="0" style="stop-color:#032074"/>
		<stop  offset="1" style="stop-color:#1C69BD"/>
	</linearGradient>
	<path fill="url(#SVGID_24_)" d="M117.4,203.1l-0.6,0.1v21.9l0.5,0.3C117.5,218,117.5,210.5,117.4,203.1z"/>
	<path fill="#1A2B5D" d="M191.8,231.5c-1.1,0.7-4.4,1.5-2.9,3.2v-0.3c6-2.4,10.3-5.9,13-10.5c1.9-3.2,3.1-6.9,3.6-11
		c0-0.6,0-1.2,0-1.8C202.3,218.8,200.3,228.1,191.8,231.5z"/>
	<linearGradient id="SVGID_25_" gradientUnits="userSpaceOnUse" x1="116.8099" y1="222.9275" x2="495.8039" y2="222.9275">
		<stop  offset="0" style="stop-color:#032074"/>
		<stop  offset="1" style="stop-color:#1C69BD"/>
	</linearGradient>
	<path fill="url(#SVGID_25_)" d="M191.8,231.5c-1.1,0.7-4.4,1.5-2.9,3.2v-0.3c6-2.4,10.3-5.9,13-10.5c1.9-3.2,3.1-6.9,3.6-11
		c0-0.6,0-1.2,0-1.8C202.3,218.8,200.3,228.1,191.8,231.5z"/>
	<path fill="#EADFBC" d="M165.3,226.5h-3.3C162.2,227.4,164.9,227.4,165.3,226.5z"/>
	<linearGradient id="SVGID_26_" gradientUnits="userSpaceOnUse" x1="116.8099" y1="226.8183" x2="495.8039" y2="226.8183">
		<stop  offset="0" style="stop-color:#032074"/>
		<stop  offset="1" style="stop-color:#1C69BD"/>
	</linearGradient>
	<path fill="url(#SVGID_26_)" d="M165.3,226.5h-3.3C162.2,227.4,164.9,227.4,165.3,226.5z"/>
	<path fill="#E9D5AA" d="M146.3,226.5c0,0.1,0.1,0.3,0.1,0.3l0.4,0c0-0.1,0.1-0.2,0.1-0.3H146.3z"/>
	<linearGradient id="SVGID_27_" gradientUnits="userSpaceOnUse" x1="116.8099" y1="226.6485" x2="495.8039" y2="226.6485">
		<stop  offset="0" style="stop-color:#032074"/>
		<stop  offset="1" style="stop-color:#1C69BD"/>
	</linearGradient>
	<path fill="url(#SVGID_27_)" d="M146.3,226.5c0,0.1,0.1,0.3,0.1,0.3l0.4,0c0-0.1,0.1-0.2,0.1-0.3H146.3z"/>
	<path fill="#D7CCB7" d="M158.5,227c1.3,0.3,2.1,0.1,2.5-0.5h-2.5C158.5,226.7,158.5,226.8,158.5,227z"/>
	<linearGradient id="SVGID_28_" gradientUnits="userSpaceOnUse" x1="116.8099" y1="226.8059" x2="495.8039" y2="226.8059">
		<stop  offset="0" style="stop-color:#032074"/>
		<stop  offset="1" style="stop-color:#1C69BD"/>
	</linearGradient>
	<path fill="url(#SVGID_28_)" d="M158.5,227c1.3,0.3,2.1,0.1,2.5-0.5h-2.5C158.5,226.7,158.5,226.8,158.5,227z"/>
	<path fill="#9EA4C2" d="M166.1,226.5L166.1,226.5c0.5,1,4.7,1,4.8-0.2c-0.2,0-0.5-0.1-0.7-0.1C168.9,226.4,167.6,226.5,166.1,226.5
		z"/>
	<linearGradient id="SVGID_29_" gradientUnits="userSpaceOnUse" x1="116.8099" y1="226.6968" x2="495.8039" y2="226.6968">
		<stop  offset="0" style="stop-color:#032074"/>
		<stop  offset="1" style="stop-color:#1C69BD"/>
	</linearGradient>
	<path fill="url(#SVGID_29_)" d="M166.1,226.5L166.1,226.5c0.5,1,4.7,1,4.8-0.2c-0.2,0-0.5-0.1-0.7-0.1
		C168.9,226.4,167.6,226.5,166.1,226.5z"/>
	<path fill="#646F93" d="M117.8,280.6c-0.8-18.4,0-36.8-0.4-55.2l-0.5-0.3v57.6c0.3-0.4,0.7-1.1,0.9-1.5L117.8,280.6z"/>
	<linearGradient id="SVGID_30_" gradientUnits="userSpaceOnUse" x1="116.8099" y1="253.9275" x2="495.8039" y2="253.9275">
		<stop  offset="0" style="stop-color:#032074"/>
		<stop  offset="1" style="stop-color:#1C69BD"/>
	</linearGradient>
	<path fill="url(#SVGID_30_)" d="M117.8,280.6c-0.8-18.4,0-36.8-0.4-55.2l-0.5-0.3v57.6c0.3-0.4,0.7-1.1,0.9-1.5L117.8,280.6z"/>
	<path fill="#7C7463" d="M146.9,226.5c0,0.1-0.1,0.2-0.1,0.3c3.9,0.5,7.8,0.2,11.7,0.2c0-0.1,0-0.3,0-0.5H146.9z"/>
	<linearGradient id="SVGID_31_" gradientUnits="userSpaceOnUse" x1="116.8099" y1="226.7724" x2="495.8039" y2="226.7724">
		<stop  offset="0" style="stop-color:#032074"/>
		<stop  offset="1" style="stop-color:#1C69BD"/>
	</linearGradient>
	<path fill="url(#SVGID_31_)" d="M146.9,226.5c0,0.1-0.1,0.2-0.1,0.3c3.9,0.5,7.8,0.2,11.7,0.2c0-0.1,0-0.3,0-0.5H146.9z"/>
	<path fill="#83969D" d="M189.1,235.1c0.8,0.2,1.7,0.4,2.5,0.6c-0.9-0.4-1.8-0.7-2.8-1L189.1,235.1z"/>
	<linearGradient id="SVGID_32_" gradientUnits="userSpaceOnUse" x1="116.8099" y1="235.2022" x2="495.8039" y2="235.2022">
		<stop  offset="0" style="stop-color:#032074"/>
		<stop  offset="1" style="stop-color:#1C69BD"/>
	</linearGradient>
	<path fill="url(#SVGID_32_)" d="M189.1,235.1c0.8,0.2,1.7,0.4,2.5,0.6c-0.9-0.4-1.8-0.7-2.8-1L189.1,235.1z"/>
	<path fill="#222F55" d="M206.9,281.2c-0.2-0.5-0.4-1.1-0.5-1.7c-0.1-0.4-0.2-0.9-0.3-1.4c-1.5-6.4-1.5-13.1-1.8-19.7
		c-0.2-2.3-0.5-4.6-1-6.9c-0.5-2.7-1.4-5.2-2.6-7.4c-1.2-2.2-2.7-4.2-4.6-5.8c-1.2-1.1-2.7-2-4.4-2.7c-0.8-0.2-1.7-0.4-2.5-0.6
		c3.5,4.9,10.4,7.5,11.9,13.8c2.4,11.1,2.9,22.7,4,33.9c-3.9,3.1-10.2,0.9-15,1.6c-5.3,1.3-3.9-3.9-6.2-6.3c0.2,2.4,0.7,4.8,1.7,7
		h22.9c-0.1-0.5-0.6-1.3-0.8-1.9C207.4,282.5,207.2,281.9,206.9,281.2z"/>
	<linearGradient id="SVGID_33_" gradientUnits="userSpaceOnUse" x1="116.8099" y1="260.0479" x2="495.8039" y2="260.0479">
		<stop  offset="0" style="stop-color:#032074"/>
		<stop  offset="1" style="stop-color:#1C69BD"/>
	</linearGradient>
	<path fill="url(#SVGID_33_)" d="M206.9,281.2c-0.2-0.5-0.4-1.1-0.5-1.7c-0.1-0.4-0.2-0.9-0.3-1.4c-1.5-6.4-1.5-13.1-1.8-19.7
		c-0.2-2.3-0.5-4.6-1-6.9c-0.5-2.7-1.4-5.2-2.6-7.4c-1.2-2.2-2.7-4.2-4.6-5.8c-1.2-1.1-2.7-2-4.4-2.7c-0.8-0.2-1.7-0.4-2.5-0.6
		c3.5,4.9,10.4,7.5,11.9,13.8c2.4,11.1,2.9,22.7,4,33.9c-3.9,3.1-10.2,0.9-15,1.6c-5.3,1.3-3.9-3.9-6.2-6.3c0.2,2.4,0.7,4.8,1.7,7
		h22.9c-0.1-0.5-0.6-1.3-0.8-1.9C207.4,282.5,207.2,281.9,206.9,281.2z"/>
	<path fill="#162454" d="M163.8,243.2c5.9,0,10.1,1.3,12.7,3.9c2.6,2.6,4.3,6.7,5.1,12.3c0,0.1,0,0.2,0,0.4c0.6,2.7,1,5.5,0.9,8.3
		c1.1,1.2,0.9,2.8,0.4,4.2c0.2,1.4,0.3,2.8,0.6,4.2c0.2-10.2,1.5-23.1-6.1-31.3c-11.5-5.4-24.5-2.6-36.8-3.8
		c-4.9,5.4-0.8,13-1.9,19.3c-1.3,7.5,2,15.7-1,22.8c-6.3-0.1-16.6,4-20.1-2.3c-0.2,0.4-0.6,1-0.9,1.5v1.3c0.3,0.5,0.7,0.8,1.1,1.1
		H140c0.1-0.4,0.2-0.7,0.3-1.1v-40.7H163.8z"/>
	<linearGradient id="SVGID_34_" gradientUnits="userSpaceOnUse" x1="116.8099" y1="263.2021" x2="495.8039" y2="263.2021">
		<stop  offset="0" style="stop-color:#032074"/>
		<stop  offset="1" style="stop-color:#1C69BD"/>
	</linearGradient>
	<path fill="url(#SVGID_34_)" d="M163.8,243.2c5.9,0,10.1,1.3,12.7,3.9c2.6,2.6,4.3,6.7,5.1,12.3c0,0.1,0,0.2,0,0.4
		c0.6,2.7,1,5.5,0.9,8.3c1.1,1.2,0.9,2.8,0.4,4.2c0.2,1.4,0.3,2.8,0.6,4.2c0.2-10.2,1.5-23.1-6.1-31.3c-11.5-5.4-24.5-2.6-36.8-3.8
		c-4.9,5.4-0.8,13-1.9,19.3c-1.3,7.5,2,15.7-1,22.8c-6.3-0.1-16.6,4-20.1-2.3c-0.2,0.4-0.6,1-0.9,1.5v1.3c0.3,0.5,0.7,0.8,1.1,1.1
		H140c0.1-0.4,0.2-0.7,0.3-1.1v-40.7H163.8z"/>
	<path fill="#FBFBF5" d="M181.7,259.8c0.4,2.7,0.7,5.5,0.9,8.3c0,0,0,0,0,0C182.7,265.2,182.3,262.5,181.7,259.8z"/>
	<linearGradient id="SVGID_35_" gradientUnits="userSpaceOnUse" x1="116.8099" y1="263.9357" x2="495.8039" y2="263.9357">
		<stop  offset="0" style="stop-color:#032074"/>
		<stop  offset="1" style="stop-color:#1C69BD"/>
	</linearGradient>
	<path fill="url(#SVGID_35_)" d="M181.7,259.8c0.4,2.7,0.7,5.5,0.9,8.3c0,0,0,0,0,0C182.7,265.2,182.3,262.5,181.7,259.8z"/>
	<path fill="#FBFBF5" d="M183,272.3C183,272.3,183,272.2,183,272.3c-0.1,0.1,0,0.4,0,0.6c0.3,4.7,1.1,8.7,2.4,12.1h0.2
		c-1-2.2-1.5-4.6-1.7-7c-0.1-0.4-0.2-1.2-0.3-1.5C183.3,275.1,183.2,273.7,183,272.3z"/>
	<linearGradient id="SVGID_36_" gradientUnits="userSpaceOnUse" x1="116.8099" y1="278.6148" x2="495.8039" y2="278.6148">
		<stop  offset="0" style="stop-color:#032074"/>
		<stop  offset="1" style="stop-color:#1C69BD"/>
	</linearGradient>
	<path fill="url(#SVGID_36_)" d="M183,272.3C183,272.3,183,272.2,183,272.3c-0.1,0.1,0,0.4,0,0.6c0.3,4.7,1.1,8.7,2.4,12.1h0.2
		c-1-2.2-1.5-4.6-1.7-7c-0.1-0.4-0.2-1.2-0.3-1.5C183.3,275.1,183.2,273.7,183,272.3z"/>
	<path fill="#797762" d="M205.2,272.7c-0.3-2.4-0.4-4.7-0.5-7c-0.1-2.3-0.2-4.3-0.3-6c0-0.4-0.1-0.8-0.1-1.2
		c0.3,6.6,0.3,13.3,1.8,19.7C205.7,276.5,205.4,274.6,205.2,272.7z"/>
	<linearGradient id="SVGID_37_" gradientUnits="userSpaceOnUse" x1="116.8099" y1="268.3653" x2="495.8039" y2="268.3653">
		<stop  offset="0" style="stop-color:#032074"/>
		<stop  offset="1" style="stop-color:#1C69BD"/>
	</linearGradient>
	<path fill="url(#SVGID_37_)" d="M205.2,272.7c-0.3-2.4-0.4-4.7-0.5-7c-0.1-2.3-0.2-4.3-0.3-6c0-0.4-0.1-0.8-0.1-1.2
		c0.3,6.6,0.3,13.3,1.8,19.7C205.7,276.5,205.4,274.6,205.2,272.7z"/>
	<path fill="#797762" d="M207.6,283.1c0-0.1,0-0.2,0-0.2c-0.3-0.5-0.5-1.1-0.7-1.7C207.2,281.9,207.4,282.5,207.6,283.1z"/>
	<linearGradient id="SVGID_38_" gradientUnits="userSpaceOnUse" x1="116.8099" y1="282.1922" x2="495.8039" y2="282.1922">
		<stop  offset="0" style="stop-color:#032074"/>
		<stop  offset="1" style="stop-color:#1C69BD"/>
	</linearGradient>
	<path fill="url(#SVGID_38_)" d="M207.6,283.1c0-0.1,0-0.2,0-0.2c-0.3-0.5-0.5-1.1-0.7-1.7C207.2,281.9,207.4,282.5,207.6,283.1z"/>
	<path fill="#927A39" d="M140.3,285v-1.1c-0.1,0.4-0.2,0.8-0.3,1.1H140.3z"/>
	<linearGradient id="SVGID_39_" gradientUnits="userSpaceOnUse" x1="116.8099" y1="284.4608" x2="495.8039" y2="284.4608">
		<stop  offset="0" style="stop-color:#032074"/>
		<stop  offset="1" style="stop-color:#1C69BD"/>
	</linearGradient>
	<path fill="url(#SVGID_39_)" d="M140.3,285v-1.1c-0.1,0.4-0.2,0.8-0.3,1.1H140.3z"/>
	<path fill="#96A2CE" d="M182.6,268.1C182.6,268.1,182.6,268.1,182.6,268.1c0.1,1.4,0.2,2.8,0.3,4.1c0,0,0,0.1,0.1,0.1
		C183.6,270.9,183.7,269.2,182.6,268.1z"/>
	<linearGradient id="SVGID_40_" gradientUnits="userSpaceOnUse" x1="116.8099" y1="270.1795" x2="495.8039" y2="270.1795">
		<stop  offset="0" style="stop-color:#032074"/>
		<stop  offset="1" style="stop-color:#1C69BD"/>
	</linearGradient>
	<path fill="url(#SVGID_40_)" d="M182.6,268.1C182.6,268.1,182.6,268.1,182.6,268.1c0.1,1.4,0.2,2.8,0.3,4.1c0,0,0,0.1,0.1,0.1
		C183.6,270.9,183.7,269.2,182.6,268.1z"/>
	<path fill="#90793B" d="M116.8,284v1.1h1.1C117.5,284.8,117.1,284.4,116.8,284z"/>
	<linearGradient id="SVGID_41_" gradientUnits="userSpaceOnUse" x1="116.8099" y1="284.4962" x2="495.8039" y2="284.4962">
		<stop  offset="0" style="stop-color:#032074"/>
		<stop  offset="1" style="stop-color:#1C69BD"/>
	</linearGradient>
	<path fill="url(#SVGID_41_)" d="M116.8,284v1.1h1.1C117.5,284.8,117.1,284.4,116.8,284z"/>
</g>
</svg>
