<?xml version="1.0" encoding="utf-8"?>
<!-- Generator: Adobe Illustrator 22.0.1, SVG Export Plug-In . SVG Version: 6.00 Build 0)  -->
<svg version="1.1" id="Layer_1" xmlns="http://www.w3.org/2000/svg" xmlns:xlink="http://www.w3.org/1999/xlink" x="0px" y="0px"
	 viewBox="0 0 500 500" enable-background="new 0 0 500 500" xml:space="preserve">
<g>
	<path fill="#C5A574" d="M211.4,5.9c29.7-10.4,63.8-6.9,90.8,9.4c17.2,10.6,31.6,25.8,40.5,44c12.3,24.9,13.2,55,2.9,80.7
		c-7,16.4-17.2,32.3-32.3,42.3c-14.5,10.1-32.5,14.7-50.1,13.3c11.1-1.9,22.4-4.2,32.2-10.1c23-12.6,38.5-37.7,39.1-63.9
		c1-19.1-7.3-37.9-20.1-51.8c-7.8-8.3-18.3-14-29.4-16.4c-19.9-4-41.4-1.6-59.1,8.8c-16.6,9.1-28.9,24.5-36.4,41.7
		c6-0.4,12-0.7,18-0.4c-2.8,10-10.7,17.4-20.3,20.9c-1.3,25,6.9,50.8,24.6,68.9c12.6,14.3,33.2,14.2,50.7,14.1
		c38.6,0,77.1,0.1,115.6-0.2c3.9,0,7.9,0.2,11.8,0.5c-6,11.4-19,18.8-31.9,17.2c-5,6.9-8.9,14.8-8.9,23.5
		c-0.5,8.9,2.7,17.5,7.5,24.8c2.2,3.2,2.2,7.2,2.2,10.9c-0.1,18.6-0.1,37.2,0,55.7c15.9,0.2,31.9-0.2,47.8,0.3
		c-0.1,4.9-0.1,9.8-0.2,14.8c-104.1,0-208.3-0.2-312.5,0.1c-0.2-5-0.2-10-0.2-15c16-0.3,32,0,47.9-0.1c0.1-14.8,0-29.5,0.1-44.3
		c0.1-18.1-5.3-35.5-9.5-53c10.4,15.6,23.8,29.4,40.2,38.8c-2.2,10.2-5.6,20.2-7.2,30.5c-0.9,8.9-0.7,17.8-0.4,26.7
		c6.8,2.9,15,0.7,22.3,1.1c-0.1-12,0.1-24,0-36c0-9.7-3.4-19.1-7.4-27.8c-1.9-4.6-7-6.1-10.7-8.8c-10.4-7.1-19.6-16.1-27.3-26.1
		c-4.1-5.6-8.1-11.6-9.5-18.5c-0.4-6.1,1.9-12,3-17.9c3.1-14.3,6.2-28.7,6.7-43.3c-11.8-0.1-23.6,0.1-35.4,0c-3.2-0.3-7.2,0-9.2-3
		c-3.3-5.3-1.2-12.5,3.6-16.2c11.9-10.3,23.7-20.8,35.5-31.3c4.4-3.5,3.2-9.6,3.9-14.5C143.3,55.8,172.7,18.9,211.4,5.9
		 M334.6,141.5c-4.3,16.3-15.1,30-27.5,41.1c16-9.9,29.5-25.5,33-44.4c4-18.1,0-37.3-9.1-53.3C338,102.8,340.5,122.9,334.6,141.5
		 M227.2,286.3c-5.8,8.5-12.4,16.7-16.3,26.3c-2.2,9-0.5,18.4-1,27.6c27.4,0.1,54.8,0.1,82.1,0c0-6.1,0.2-12.1,0-18.2
		c-0.2-8.2-5.4-14.9-9.4-21.7c8.3-0.7,16.6-2.5,25-2.6c10.7,11.5,6.9,28.1,7.4,42.3c6.8,0.2,13.5,0.3,20.3,0.2
		c-0.2-8.7,0.7-17.6-0.4-26.3c-2.6-8.3-8.2-15.1-12.9-22.3c-1.8-2.1-3.3-5.9-6.7-5c-12.8,1.7-25.5,4.1-38.4,4.5
		C260.2,292.2,243.6,289.1,227.2,286.3 M178,375.6c7-10.3,20.1-15.6,32.3-14c11.1,1,21.6,8.1,26.2,18.3c2.2,4.5,2.7,9.6,3.3,14.5
		c-6,0.1-12,0.1-18,0c-1.5-4.3-2.8-9.4-7.3-11.6c-6.8-3.3-16.3-2.7-21.1,3.6c-4,5.7-4.3,14.6,1,19.6c4.3,4.6,11,4,16.7,4.9
		c10.4,1,20.3,7.4,25,16.8c6.2,12.5,5,28.9-4.2,39.7c-13.9,15.5-41.8,14.5-54.2-2.3c-4.5-5.8-5.6-13.2-6.2-20.3
		c6.1-0.1,12.2-0.1,18.3,0c1.3,3.8,2.2,8.2,5.6,10.7c6.6,5,17.2,4.4,22.8-2c5.1-5.8,3.9-15.5-2.1-20.2c-4.7-4.2-11.3-4-17.1-5
		c-11.8-1.6-22.8-10.2-25.9-21.8C170.3,396.2,171.6,384.4,178,375.6 M363,359.6c14.8,39,29.1,78.2,43.7,117.2
		c-6.6,0-13.2,0-19.8,0.2c-1.8-4.3-3.5-8.7-5.1-13c-12.5-0.2-25.1-0.2-37.6,0c-1.6,4.3-3.2,8.6-4.8,12.9c-6.7,0-13.3,0-20-0.1
		C333.8,437.7,348.1,398.5,363,359.6 M363,409c-4.3,12.6-8.7,25.2-12.8,37.9c8.4,0,16.9,0,25.3,0C371.5,434.2,367.1,421.6,363,409
		 M93.5,363.1c13.2,0,26.5-0.4,39.7,0.1c12.2,0.7,25,7,30.3,18.6c4.5,10.8,4.2,24.1-2.9,33.7c-4.2,6.1-11,9.4-17.5,12.2
		c9.4,16.5,19.5,32.6,29,49c-7.3,0-14.5,0-21.8,0c-9.6-15.6-18.8-31.5-28.3-47.2c-3.3,0-6.5,0-9.8,0c-0.1,15.7,0,31.5,0,47.2
		c-6.2,0-12.5,0-18.7-0.1c0-22.1-0.1-44.2,0-66.4c5.7,0,11.3,0,17,0c-4.7-7.7-9.5-15.5-14.2-23.2C91.5,380.1,94.1,371.1,93.5,363.1
		 M116,382.6c5.3,9.2,11,18.3,16.3,27.5c4-1.1,8.5-1.7,11.6-4.8c5.9-5.2,4.8-16-2.2-19.7C133.9,381.2,124.6,382.6,116,382.6
		 M249.6,363.1c13,0.1,25.9-0.3,38.9,0.1c12.2,0.2,25.1,6,30.7,17.3c4.2,9.3,4.4,20.9-1.1,29.8c-2.8,4.7-7.7,7.3-12.5,9.6
		c6.7,2.4,13.2,6.7,16,13.6c4.8,12.2,1.6,28-9.4,35.8c-7.7,5.8-17.6,7.4-27.1,7.5c-12,0-24,0-36,0C250,438.9,249.1,401,249.6,363.1
		 M268.1,382.5c0,9.3-0.1,18.6,0.1,27.9c10.5-0.5,23.2,2.5,31.8-5.2c6.5-6.2,3.5-18.8-5.2-21.3C286.2,381.2,276.9,382.8,268.1,382.5
		 M268.1,429.9c-0.1,9.2-0.2,18.4,0.1,27.6c9.9-0.4,20.5,1.6,29.9-2.3c9-4,9.2-18.6,0.3-22.8C288.9,428,278.1,430.3,268.1,429.9
		 M93.5,485.1c83.9-0.2,167.8-0.1,251.8-0.1c20.4,0.3,40.7-0.4,61.1,0.3c0,4.9-0.1,9.7-0.1,14.6c-104.2,0.2-208.4,0-312.6,0.1
		C93.5,495,93.5,490.1,93.5,485.1L93.5,485.1z"/>
</g>
</svg>
