<?xml version="1.0" encoding="utf-8"?>
<!-- Generator: Adobe Illustrator 22.0.1, SVG Export Plug-In . SVG Version: 6.00 Build 0)  -->
<svg version="1.1" id="Layer_1" xmlns="http://www.w3.org/2000/svg" xmlns:xlink="http://www.w3.org/1999/xlink" x="0px" y="0px"
	 viewBox="0 0 500 500" enable-background="new 0 0 500 500" xml:space="preserve">
<g>
	<path fill="#362F8A" d="M4.5,250.8v-73.7h13.7v73.7H4.5z"/>
	<path fill="#362F8A" d="M51.7,189.3v61.6H37.8v-61.6H24.2v-12.2h41v12.2H51.7z"/>
	<path fill="#362F8A" d="M114.9,250.8v-53.5l-3,16.1l-7.9,37.4H93.7l-7.4-37.4l-2.9-16.1v53.5H71.1v-73.7h18.5l7.6,37.4l2.3,13.6
		l2.4-13.6l7.5-37.4h18.4v73.7H114.9z"/>
	<path fill="#362F8A" d="M177,222.6h-9v28.2h-13.7v-73.7H177c10.4,0,16.7,6,16.7,16.6v12.4C193.7,216.6,187.4,222.6,177,222.6z
		 M180.5,193.9c0-3.7-1.4-5.5-4.9-5.5h-7.5V212h7.5c3.4,0,4.9-1.9,4.9-5.5V193.9z"/>
	<path fill="#362F8A" d="M235.2,251.3c-5.4,0-7.5-4.4-7.5-10.9v-13.8c0-3.4-1.8-6.3-5.6-6.3h-7.2v30.6H201v-73.7h22.7
		c10.1,0,16.8,5.8,16.8,16.1v10.4c0,5.5-2.5,9.6-8.3,11.4c5.8,1.5,8.5,6.4,8.5,11.2v13.5c0,3.4,1,5.8,2.7,7.5v4.1H235.2z
		 M227.2,193.7c0-3.3-1.4-5.3-4.9-5.3h-7.5v21.7h7c3.5,0,5.4-1.9,5.4-5.9V193.7z"/>
	<path fill="#362F8A" d="M269.8,252.5c-12.8,0-20.9-8.4-20.9-20.2v-36.8c0-11.6,8.1-20,20.9-20c13,0,20.9,8.4,20.9,20v36.8
		C290.7,244.1,282.8,252.5,269.8,252.5z M276.9,194.7c0-4.3-2.5-7.2-7.1-7.2c-4.4,0-7,2.9-7,7.2v38.5c0,4.3,2.5,7.2,7,7.2
		c4.5,0,7.1-2.9,7.1-7.2V194.7z"/>
	<path fill="#362F8A" d="M333,250.8l-1.9-5.9c-2.4,4.9-7.5,7.5-13.5,7.5c-12.2,0-18.9-8.6-18.9-19.3v-38.5c0-10.1,7.8-19.2,21-19.2
		c13.3,0,20.4,8.7,20.4,19.2v7.6h-13.2v-8.2c0-3.5-2.2-6.6-7.1-6.6c-4.9,0-7.2,3.2-7.2,6.9v39.3c0,3.7,2.5,6.9,7.3,6.9
		c4.9,0,7.3-3.2,7.3-6.9v-10.3h-7.2v-10h20.5v37.4H333z"/>
	<path fill="#362F8A" d="M383,251.3c-5.4,0-7.5-4.4-7.5-10.9v-13.8c0-3.4-1.8-6.3-5.6-6.3h-7.2v30.6h-13.7v-73.7h22.7
		c10.1,0,16.8,5.8,16.8,16.1v10.4c0,5.5-2.5,9.6-8.3,11.4c5.8,1.5,8.5,6.4,8.5,11.2v13.5c0,3.4,1,5.8,2.7,7.5v4.1H383z M375,193.7
		c0-3.3-1.4-5.3-4.9-5.3h-7.5v21.7h7c3.5,0,5.4-1.9,5.4-5.9V193.7z"/>
	<path fill="#362F8A" d="M424,250.8l-2.4-14.5h-13.1l-2.7,14.5H393l14.8-73.7h15.4l14.7,73.7H424z M415.4,197l-5,28.5h9.4L415.4,197
		z"/>
	<path fill="#362F8A" d="M487,250.8v-53.5l-3,16.1l-7.9,37.4h-10.4l-7.4-37.4l-2.9-16.1v53.5h-12.3v-73.7h18.5l7.6,37.4l2.3,13.6
		l2.4-13.6l7.5-37.4H500v73.7H487z"/>
	<path fill="#362F8A" d="M22.7,323.2l-1.8-10.6h-9.5l-1.9,10.6H0l10.8-53.9h11.2l10.8,53.9H22.7z M16.3,283.9l-3.6,20.8h6.9
		L16.3,283.9z"/>
	<path fill="#362F8A" d="M52.2,323.2H36.7v-53.9h15.5c9.5,0,14.7,6.1,14.7,14.6v25.2C66.9,317.7,61.7,323.2,52.2,323.2z M56.8,284
		c0-3.9-1.6-6-5.3-6h-4.8v36.6h4.8c3.7,0,5.3-2.1,5.3-5.9V284z"/>
	<path fill="#362F8A" d="M90.9,323.2h-9.7l-11.7-53.9h10.4l6.6,37.1l6.7-37.1h9.8L90.9,323.2z"/>
	<path fill="#362F8A" d="M106.6,323.2v-53.9h10v53.9H106.6z"/>
	<path fill="#362F8A" d="M137.1,324.5c-9.2,0-15-5.5-15-13.9v-3.7h9.2v3.2c0,4,1.9,6.1,5.5,6.1c3.6,0,5.3-2.1,5.3-5.4
		c0-4.3-2.8-7.2-8.1-11.2c-5.5-4-11.5-9.3-11.5-16.8c0-7.8,5-14.5,14.7-14.5c8.5,0,14.2,5.8,14.2,13.8v3.5h-9.1v-3.2
		c0-3.3-1.7-5.7-5.1-5.7c-2.9,0-4.9,1.9-4.9,4.9c0,4.5,2.7,6.9,8.7,11.2c6.4,4.8,10.9,9.6,10.9,16.9
		C151.9,318.2,146,324.5,137.1,324.5z"/>
	<path fill="#362F8A" d="M172.1,324.5c-9.4,0-15.3-6.1-15.3-14.7v-26.9c0-8.5,5.9-14.6,15.3-14.6c9.5,0,15.3,6.1,15.3,14.6v26.9
		C187.4,318.3,181.6,324.5,172.1,324.5z M177.3,282.2c0-3.2-1.9-5.3-5.2-5.3c-3.2,0-5.1,2.1-5.1,5.3v28.2c0,3.2,1.9,5.3,5.1,5.3
		c3.3,0,5.2-2.1,5.2-5.3V282.2z"/>
	<path fill="#362F8A" d="M218.7,323.6c-4,0-5.5-3.2-5.5-7.9v-10.1c0-2.5-1.3-4.6-4.1-4.6h-5.3v22.3h-10v-53.9h16.6
		c7.4,0,12.3,4.2,12.3,11.7v7.6c0,4-1.9,7-6.1,8.3c4.2,1.1,6.2,4.7,6.2,8.2v9.9c0,2.5,0.7,4.2,1.9,5.5v3H218.7z M212.9,281.5
		c0-2.4-1.1-3.9-3.6-3.9h-5.5v15.9h5.1c2.6,0,4-1.4,4-4.3V281.5z"/>
	<path fill="#362F8A" d="M247.3,301.2v22h-10v-22l-11.9-31.9h10.5l7,21.9l6.6-21.9h10L247.3,301.2z"/>
	<path fill="#362F8A" d="M290,324.5c-9.6,0-15.5-6.5-15.5-14.8v-26.7c0-8.3,5.9-14.8,15.5-14.8c9.5,0,14.6,6,14.6,14.1v6.6h-9v-6.5
		c0-3.2-1.8-5.3-5.4-5.3c-3.6,0-5.5,2.2-5.5,5.2v28.3c0,3,1.9,5.2,5.5,5.2c3.6,0,5.4-2.2,5.4-5.3v-6.5h9v6.6
		C304.5,318.5,299.5,324.5,290,324.5z"/>
	<path fill="#362F8A" d="M324.9,324.5c-9.4,0-15.3-6.1-15.3-14.7v-26.9c0-8.5,5.9-14.6,15.3-14.6c9.5,0,15.3,6.1,15.3,14.6v26.9
		C340.2,318.3,334.4,324.5,324.9,324.5z M330.1,282.2c0-3.2-1.9-5.3-5.2-5.3c-3.2,0-5.1,2.1-5.1,5.3v28.2c0,3.2,1.9,5.3,5.1,5.3
		c3.3,0,5.2-2.1,5.2-5.3V282.2z"/>
	<path fill="#362F8A" d="M361.7,324.5c-8.7,0-15.2-5.6-15.2-13.7v-41.4h10.2v41.4c0,3.2,1.8,4.9,5,4.9c3.3,0,5.1-1.8,5.1-4.9v-41.4
		h9.8v41.4C376.6,318.9,370.4,324.5,361.7,324.5z"/>
	<path fill="#362F8A" d="M406.8,323.2l-10.4-23l-3.8-8.6v31.6h-9.2v-53.9h8.7l10,23.4l3.6,8.6v-32h9.1v53.9H406.8z"/>
	<path fill="#362F8A" d="M436.5,324.5c-9.6,0-15.5-6.5-15.5-14.8v-26.7c0-8.3,5.9-14.8,15.5-14.8c9.5,0,14.6,6,14.6,14.1v6.6h-9
		v-6.5c0-3.2-1.8-5.3-5.4-5.3s-5.5,2.2-5.5,5.2v28.3c0,3,1.9,5.2,5.5,5.2s5.4-2.2,5.4-5.3v-6.5h9v6.6
		C451.1,318.5,446.1,324.5,436.5,324.5z"/>
	<path fill="#362F8A" d="M456.7,323.2v-53.9h10v53.9H456.7z"/>
	<path fill="#362F8A" d="M473.8,323.2v-53.9h10v45h15v8.9H473.8z"/>
</g>
</svg>
