<?xml version="1.0" encoding="utf-8"?>
<!-- Generator: Adobe Illustrator 22.0.1, SVG Export Plug-In . SVG Version: 6.00 Build 0)  -->
<svg version="1.1" id="Layer_1" xmlns="http://www.w3.org/2000/svg" xmlns:xlink="http://www.w3.org/1999/xlink" x="0px" y="0px"
	 viewBox="0 0 500 500" enable-background="new 0 0 500 500" xml:space="preserve">
<g>
	<path opacity="0.7" fill="#DDBC10" d="M443.7,198c6-3.6,13.1-5.5,20.1-5.3c4.6,0,9.2,1.2,13.5,2.8c7,3,13.1,8.2,17.1,14.7
		c6.8,10.7,7.6,25,1.7,36.2c-4.5,9.7-13.7,17-24,19.6c-5.4,1.4-11.1,1.4-16.5,0.4c0.5-0.5,0.7-1,0.7-1.7c-0.3-5.5-1.9-11.1-5.2-15.6
		c-4-5.8-10.1-10.3-17.1-11.7c-2.5-0.5-5.1-1.1-7.7-0.4c0,0,0-0.1,0-0.2c-0.8-5-0.8-10.2,0.2-15.1
		C428.7,211.8,435.1,203.1,443.7,198L443.7,198z"/>
	<path fill="#333333" d="M176.8,224.1c7.4-4,16-5.4,24.3-4.5c7.9,0.6,15.6,4,21.5,9.3c5.9,5.1,10,12,12.3,19.4
		c-0.6,0.6-0.9,1.8-1.9,1.7c-4.8,0-9.7,0-14.5,0c-1.6-3.4-3.6-6.6-6.5-9c-2.1-1.7-4.4-3.2-6.9-4.3c-5.6-2.2-12-2.1-17.6-0.2
		c-6,2.1-11.3,6.3-14.5,11.8c-3.5,5.8-4.5,12.9-3,19.5c1.5,6.4,5.3,12.2,10.7,15.9c6.4,4.6,14.9,5.9,22.5,4
		c6.9-2.1,12.4-7.5,15.2-14c5,0,10,0,15,0c0.4,0.6,0.9,1.2,1.3,1.8c-2.5,8-7.2,15.3-13.6,20.6c-10.7,8.7-26,10.5-38.8,6.1
		c-13.4-4.6-24.1-16.2-27.5-30c-2.3-9.3-1.4-19.4,2.7-28.1C161.6,235.5,168.5,228.3,176.8,224.1 M255.7,228.3c5.4-6.3,14-8.8,22-9
		c7.5-0.2,15.3,1.1,21.5,5.6c6.3,4.5,9.9,12,10.3,19.6c-0.6,0.5-0.9,1.4-1.8,1.3c-4.2,0-8.4,0-12.7,0c-0.4-0.4-0.8-0.8-1.3-1.2
		c0-2.9-1.7-5.6-4.2-6.9c-5.6-3.2-12.6-3.4-18.5-1c-1.6,0.7-3.3,1.6-4.4,3c-2.1,2.5-2.2,6.3-0.5,9.1c1.4,2,3.8,3.1,6,4
		c4.7,1.6,9.8,0.9,14.7,1.7c6.9,1.1,13.8,4,18.3,9.5c3.6,4.2,5.6,9.6,6,15.1c-0.3,6-2.6,11.9-6.8,16.2c-5,5.6-12.6,8.2-19.9,8.9
		c-7.1,0.7-14.5,0.1-21.2-2.6c-9-3.6-15.5-12.7-15.7-22.4c0.5-0.5,0.9-0.9,1.4-1.4c4.2,0,8.3,0,12.5,0c0.9,0,1.3,0.9,1.9,1.4
		c-0.1,3,1.9,5.7,4.4,7.1c4.3,2.2,9.2,2.5,13.9,2.2c3.9-0.2,8-1,11.1-3.5c2.9-2.3,3.5-6.9,1.4-9.9c-1.5-2.3-4-3.5-6.5-4.2
		c-3.8-1.2-7.9-1-11.9-1.1c-7.5-0.6-15.3-3.1-20.2-9.1c-4-4.4-6-10.3-6.3-16.2C249.6,238.6,251.7,232.7,255.7,228.3 M1.3,220.9
		c8.5,0,16.9,0,25.4,0c7.8,0,15.8,2.7,21.5,8.3c3.7,3.8,6,8.9,6.7,14.1c0.8,5.9,0.6,12.1-1.9,17.6c-2.3,5.5-6.9,9.8-12.2,12.4
		c7,9.1,13.8,18.4,20.8,27.5c-0.4,0.7-0.7,1.4-1.1,2.2c-5.7,0-11.4,0-17.1,0c-6.5-8.7-13-17.3-19.5-26c-0.2-0.4-0.5-0.5-1-0.5
		c-2.5-0.1-4.9,0-7.4,0c0,8.1,0,16.2,0,24.3c0.2,1-0.7,1.6-1.3,2.2c-4.4,0-8.8,0-13.1,0c-0.5-0.5-0.9-1-1.4-1.5v-79
		C0.4,221.9,0.9,221.4,1.3,220.9 M15.8,236.7c0,7.9,0,15.9,0,23.8c4,0,8.1,0,12.1,0c4.6-0.1,9.3-2.7,11-7.1
		c1.1-3.9,1.1-8.5-1.3-11.9c-2.4-3.2-6.5-4.8-10.5-4.8C23.4,236.7,19.6,236.7,15.8,236.7 M74.8,220.9c4.4,0,8.8,0,13.2,0
		c0.4,0.4,0.8,0.8,1.3,1.2c0,17.5,0,35,0,52.5c0,4.5,2.4,9.1,6.3,11.5c4.2,2.4,9.2,2.7,13.8,2.3c3-0.2,5.9-1.2,8.4-2.9
		c3.4-2.3,5.1-6.4,5.2-10.4c0-17.6,0-35.3,0-52.9c0.4-0.4,0.9-0.8,1.3-1.2c4.4,0,8.8,0,13.2,0c0.4,0.4,0.8,0.8,1.2,1.2
		c0,16,0,32.1,0,48.1c0,2.7,0.1,5.4-0.3,8c-0.9,7.2-4.4,14.3-10,19c-5.1,4.2-11.6,6.3-18.1,6.9c-7.5,0.6-15.4-0.3-22.1-3.8
		c-5-2.6-8.9-7-11.4-12c-2.5-4.9-3.6-10.6-3.4-16.1c0-16.7,0-33.4,0-50.1C73.9,221.8,74.4,221.4,74.8,220.9 M348.5,220.9
		c5,0,10,0,15,0c9.4,26.7,18.9,53.4,28.3,80.2c-0.4,0.6-0.9,1.2-1.3,1.8c-5.2-0.1-10.4,0-15.6,0c-1.7-4.4-3.3-8.8-4.8-13.2
		c-9.4,0-18.9,0-28.3,0c-1.6,4.4-3.1,8.9-4.8,13.2c-5.2-0.1-10.4,0-15.7,0c-0.4-0.7-1.5-1.4-1.1-2.4
		C329.7,274,339.1,247.4,348.5,220.9 M347.4,273.7c5.7,0,11.4,0,17.1,0c-2.9-7.9-5.7-15.9-8.5-23.8
		C353.2,257.8,350.3,265.8,347.4,273.7L347.4,273.7z"/>
	<path opacity="0.7" fill="#0BA93D" d="M455.6,266.4c5.5,0.9,11.1,1,16.5-0.4c-2.8,1-5.8,1-8.8,1.4c-2.3-0.1-4.6-0.2-6.9-0.5
		c-0.1,0.8-0.1,1.5-0.2,2.3c3.2,1.3,6,3.4,8.3,6.1c-3.1,5.5-1,13,4.2,16.4c-1,3.8-2.8,7.6-5.8,10.4c-4.9,4.7-12.3,6.6-18.8,4.8
		c-4.3-1.3-8.2-3.9-10.8-7.6c-1.2-1.4-1.6-3.3-2.7-4.6c-3.1,0.1-6.3,0.4-9.3-0.5c6.2,1.3,12.8,0.5,18.5-2.3
		c4.7-2.2,8.7-5.8,11.5-10.1c2.7-4.4,4.7-9.3,4.6-14.5C455.9,266.9,455.7,266.7,455.6,266.4C455.5,266.5,455.6,266.4,455.6,266.4
		L455.6,266.4z"/>
	<path opacity="0.7" fill="#DE0E0E" d="M418.1,238.5c2.4-1.5,5.4-1.5,8.2-1.7c0,0,0,0.1,0,0.2c2.1,11.6,10.2,21.7,20.8,26.8
		c2.7,1.2,5.6,1.9,8.4,2.7c0.2,0.2,0.4,0.4,0.6,0.6c0.1,5.2-2,10.1-4.6,14.5c-2.8,4.3-6.8,7.8-11.5,10.1c-5.7,2.8-12.3,3.6-18.5,2.3
		c-5.2-1.1-10.1-3.7-13.9-7.3c-8.1-7.6-11.3-20.1-7.4-30.5c1.2-2.4,2.3-4.9,3.7-7.2c3.5-5,8.6-8.7,14.3-10.8l0,0.1
		C418,238.3,418,238.4,418.1,238.5L418.1,238.5z"/>
	<path opacity="0.7" fill="#DBA70E" d="M426.3,237c2.5-0.7,5.2-0.1,7.7,0.4c7,1.4,13.1,5.9,17.1,11.7c3.3,4.5,5,10.1,5.2,15.6
		c0,0.7-0.2,1.2-0.7,1.7c0,0-0.1,0.1-0.1,0.1c-2.8-0.8-5.7-1.5-8.4-2.7C436.5,258.7,428.4,248.6,426.3,237L426.3,237z"/>
	<path opacity="0.7" fill="#0BF4F7" d="M470.8,269.1c3.4-1.5,7.4-1.3,10.8,0.1c3.9,2.1,6.9,6.2,7.1,10.7c0.5,5.3-2.8,10.8-7.7,12.9
		c-4,1.7-8.8,1.3-12.4-1.2c-5.2-3.4-7.3-10.9-4.2-16.4C465.7,272.4,468.1,270.3,470.8,269.1L470.8,269.1z"/>
</g>
</svg>
