<?xml version="1.0" encoding="utf-8"?>
<!-- Generator: Adobe Illustrator 22.0.1, SVG Export Plug-In . SVG Version: 6.00 Build 0)  -->
<svg version="1.1" id="Layer_1" xmlns="http://www.w3.org/2000/svg" xmlns:xlink="http://www.w3.org/1999/xlink" x="0px" y="0px"
	 viewBox="0 0 500 500" enable-background="new 0 0 500 500" xml:space="preserve">
<g>
	<polygon fill="#004C9B" points="473.7,371 0,371 0,169.3 473.7,169.3 473.7,371 	"/>
	<polygon fill="#FFDC00" points="500,330.7 433.3,330.7 433.3,129 500,129 500,330.7 	"/>
	<path fill="#FFFFFF" d="M67.6,226.1H51.8l-0.6-0.6v-13.8l0.6-0.7h15.8c5.8,0,8.3,2.3,8.3,7.5C75.9,223.8,73.4,226.1,67.6,226.1
		L67.6,226.1z M74.5,234.6c5.8-1.4,12.2-6.5,12.2-16c0-10.5-7.2-16.7-19.2-16.7H41l-0.7,0.7v54.8L41,258h9.5l0.7-0.7v-21.2l0.7-0.8
		l8.8,0l1.4,0.8l16.2,21.1l1.5,0.8h4.7l0.7-0.7v-7.9l-10.6-13.9V234.6L74.5,234.6z"/>
	<path fill="#FFFFFF" d="M98.7,273.9c11.6,0,14.6-7.5,17.6-15l12.9-32.3v-7.9l-0.7-0.7h-7.1l-0.7,0.7l-9.9,28h-0.9l-9.8-28l-0.7-0.7
		h-7.1l-0.7,0.7v7.9l12.9,31.6l0,0.9c-0.8,2.9-1.7,5.7-5.9,5.6h-4.8l-0.7,0.7v7.9l0.7,0.7H98.7L98.7,273.9z"/>
	<path fill="#FFFFFF" d="M144.6,233.6c0-2,1.3-7.2,7.5-7.2c6.3,0,7.5,5.3,7.5,7.1l-0.6,0.6h-13.8L144.6,233.6L144.6,233.6z
		 M170.7,241.8l0.7-0.7V238c0-15.3-10.3-20.8-19.2-20.8c-8.8,0-19.2,5.4-19.2,20.8c0,9.6,5.2,20.8,20,20.8
		c13.5,0,16.2-8.9,16.7-11.8l-0.6-0.6h-9.5l-0.7,0.7c-0.8,1.5-3.1,2.5-5.9,2.5c-6.9,0-8.3-5.2-8.3-7.1l0.6-0.7H170.7L170.7,241.8z"
		/>
	<path fill="#FFFFFF" d="M188.9,221.7l-1-3l-0.7-0.7h-8.7l-0.7,0.7v38.6l0.7,0.7h9.5l0.7-0.7V238c0-7.7,2.7-10.8,9.2-10.8h5.6
		l0.7-0.7v-7.9l-0.7-0.7h-4.8c-7.4,0-9,3.6-9,3.7H188.9L188.9,221.7z"/>
	<path fill="#FFFFFF" d="M228.9,234.2c-0.8-0.1-1.7-0.3-2.5-0.4c-4-0.6-7.5-1-7.5-3.9c0-2.9,2.3-3.5,5.9-3.5c4,0,5.8,0.8,5.9,2.6
		l0.7,0.7h9.5l0.7-0.7c-0.1-7.3-6.5-11.8-16.7-11.8c-10.5,0-16.7,4.4-16.7,11.9c0,6.8,5.1,11,15.2,12.7c0.6,0.1,1.2,0.2,1.8,0.3
		c3.9,0.6,6.5,1,6.5,4c0,3.1-3.8,3.5-6.7,3.5c-3.5,0-6.7-0.5-6.7-4.2l-0.7-0.7H208l-0.7,0.7c0.1,8.3,6.8,13.4,17.6,13.4
		c8.5,0,17.6-3.3,17.6-12.7C242.4,236.4,233.3,234.9,228.9,234.2L228.9,234.2z"/>
	<path fill="#FFFFFF" d="M267,249.6c-5.8,0-9.2-4.2-9.2-11.6c0-7.4,3.3-11.6,9.2-11.6c5.8,0,9.2,4.2,9.2,11.6
		C276.1,245.3,272.8,249.6,267,249.6L267,249.6z M267,217.2c-12.1,0-20,8.2-20,20.8c0,12.6,7.8,20.8,20,20.8c12.1,0,20-8.2,20-20.8
		C287,225.3,279.1,217.2,267,217.2L267,217.2z"/>
	<path fill="#FFFFFF" d="M320.6,258h9.5l0.7-0.7v-24.2c0-9.8-5.8-15.9-15.1-15.9c-4.2,0-8.1,1.5-10.7,4.4h-0.7l-0.9-2.9l-0.7-0.7
		h-8.7l-0.7,0.7v38.6l0.7,0.7h9.5l0.7-0.7v-20.1c0-7.1,3.1-10.8,9.2-10.8c4.4,0,6.7,2.6,6.7,7.5v23.4L320.6,258L320.6,258z"/>
	<path fill="#FFFFFF" d="M85.1,275.2l-0.7-0.7H75l-0.7,0.7v33.9c0,8.8-3.9,13.2-11.6,13.2s-11.6-4.4-11.6-13.2v-33.9l-0.7-0.7H41
		l-0.7,0.7v33.9c0,14.5,8,22.4,22.4,22.4s22.4-8,22.4-22.4V275.2L85.1,275.2z"/>
	<polygon fill="#FFFFFF" points="139.5,274.5 138.8,275.2 138.8,283.1 139.5,283.7 149,283.7 149.6,283.1 149.6,275.2 149,274.5 
		139.5,274.5 	"/>
	<polygon fill="#FFFFFF" points="149,330.7 149.6,330 149.6,291.4 149,290.7 139.5,290.7 138.8,291.4 138.8,330 139.5,330.7 
		149,330.7 	"/>
	<polygon fill="#FFFFFF" points="185.9,290.7 185.2,291.4 175.3,317 174.5,317 164.6,291.4 163.9,290.7 156.8,290.7 156.1,291.4 
		156.1,299.3 169.9,330 170.6,330.7 179.3,330.7 180,330 193.7,299.3 193.7,291.4 193,290.7 185.9,290.7 	"/>
	<path fill="#FFFFFF" d="M293.2,306.9c-0.8-0.1-1.7-0.3-2.5-0.4c-4-0.6-7.5-1-7.5-3.9c0-2.9,2.3-3.5,5.9-3.5c4,0,5.8,0.8,5.9,2.6
		l0.7,0.7h9.5l0.7-0.7c-0.1-7.3-6.5-11.8-16.7-11.8c-10.5,0-16.7,4.4-16.7,11.9c0,6.7,5.1,11,15.2,12.7c0.6,0.1,1.2,0.2,1.8,0.3
		c3.9,0.6,6.5,1,6.5,4c0,3.1-3.8,3.5-6.7,3.5c-3.5,0-6.7-0.5-6.7-4.2l-0.7-0.7h-9.5l-0.7,0.7c0.1,8.3,6.8,13.4,17.6,13.4
		c8.5,0,17.6-3.3,17.6-12.7C306.7,309.1,297.6,307.6,293.2,306.9L293.2,306.9z"/>
	<polygon fill="#FFFFFF" points="323.4,330.7 324,330 324,291.4 323.4,290.7 313.9,290.7 313.2,291.4 313.2,330 313.9,330.7 
		323.4,330.7 	"/>
	<polygon fill="#FFFFFF" points="313.9,274.5 313.2,275.2 313.2,283.1 313.9,283.7 323.4,283.7 324,283.1 324,275.2 323.4,274.5 
		313.9,274.5 	"/>
	<path fill="#FFFFFF" d="M350.5,330.7h7.2l0.7-0.7v-7.9l-0.7-0.7h-7.2c-1.8,0-2.7-0.9-2.7-2.7v-18.2l0.7-0.7h9.2l0.7-0.7v-7.9
		l-0.7-0.7h-9.2l-0.6-0.7v-7.6l-0.7-0.7h-9.5l-0.7,0.7v7.6l-0.7,0.7h-6l-0.7,0.7v7.9l0.7,0.7h6l0.6,0.6v18.2
		C337,329.5,346.4,330.7,350.5,330.7L350.5,330.7z"/>
	<path fill="#FFFFFF" d="M120.5,330.7h9.5l0.7-0.7v-24.2c0-9.8-5.8-15.9-15.1-15.9c-4.2,0-8.1,1.5-10.7,4.4h-0.7l-0.9-2.9l-0.7-0.7
		h-8.7l-0.7,0.7V330l0.7,0.7h9.5l0.7-0.7v-20.1c0-7.2,3.1-10.8,9.2-10.8c4.4,0,6.7,2.6,6.7,7.5V330L120.5,330.7L120.5,330.7z"/>
	<path fill="#FFFFFF" d="M209,306.3c0-2,1.3-7.2,7.5-7.2c6.3,0,7.5,5.3,7.5,7.1l-0.6,0.6h-13.8L209,306.3L209,306.3z M235,314.5
		l0.7-0.7v-3.1c0-15.3-10.3-20.8-19.2-20.8s-19.2,5.4-19.2,20.8c0,9.6,5.2,20.8,20,20.8c13.5,0,16.2-8.9,16.7-11.8l-0.6-0.6h-9.5
		l-0.7,0.7c-0.8,1.5-3.1,2.5-5.9,2.5c-6.9,0-8.3-5.2-8.3-7.1l0.6-0.7H235L235,314.5z"/>
	<path fill="#FFFFFF" d="M253.2,294.4l-1-3l-0.7-0.7h-8.7l-0.7,0.7V330l0.7,0.7h9.5l0.7-0.7v-19.3c0-7.7,2.7-10.8,9.2-10.8h5.6
		l0.7-0.7v-7.9l-0.7-0.7h-4.8c-7.4,0-9,3.6-9,3.7H253.2L253.2,294.4z"/>
	<path fill="#FFFFFF" d="M370.3,346.6c11.6,0,14.6-7.5,17.6-15l12.9-32.3v-7.9l-0.7-0.7H393l-0.7,0.7l-9.9,28h-0.9l-9.8-28l-0.7-0.7
		h-7.1l-0.7,0.7v7.9l12.9,31.6l0,0.9c-0.9,3-2.1,5.6-5.9,5.6h-3.9l-0.7,0.7v7.9l0.7,0.7H370.3L370.3,346.6z"/>
</g>
</svg>
