<?xml version="1.0" encoding="utf-8"?>
<!-- Generator: Adobe Illustrator 22.0.1, SVG Export Plug-In . SVG Version: 6.00 Build 0)  -->
<svg version="1.1" id="Layer_1" xmlns="http://www.w3.org/2000/svg" xmlns:xlink="http://www.w3.org/1999/xlink" x="0px" y="0px"
	 viewBox="0 0 500 500" enable-background="new 0 0 500 500" xml:space="preserve">
<g>
	<path fill="#00A0B0" d="M195.5,181.7c14-11,31.4-17.4,49.2-18.3c16.4-0.9,33.3,1.1,48.4,8c9.5,4.3,17.9,10.7,25.4,18
		c-8,9.2-15.9,18.3-23.9,27.5c-6.7-5.9-14-11.3-22.1-15c-9.5-4.2-20.2-5.2-30.4-3.5c-11.8,2.1-22.6,8.9-29.6,18.5
		c-14.9,20-14.4,49.9,0.9,69.6c6.6,8.6,16.2,14.8,26.7,17.2c10.3,2.1,21.2,1.4,31.1-2.1c9.3-3.8,17.3-10,24.7-16.7
		c6.1,6.2,12.2,12.3,18.3,18.5c0,1.9,0,3.8,0,5.7c-2.9,0.4-5.9,0.4-8.8,0.7c-2.3,1.1-1,4.1-1.4,6.1c-2.9,0-5.8,0-8.6,0
		c0,0.9-0.1,1.9-0.1,2.8c-2-0.2-4-0.4-6-0.6c-0.2,0.6-0.6,1.9-0.8,2.6c-0.4-2.1-0.6-4.2-1-6.4c-3.3-0.1-6.6-0.1-9.8,0.9
		c0,0.7,0,1.4,0,2.2c-1.4,0-2.7,0-4.1,0.1c-0.8,0.6-0.6,1.7-0.9,2.5c-0.3,0-0.9,0.1-1.2,0.2c0,2,0,3.9,0,5.9
		c-2.5-0.1-5.1,0.1-7.5,0.5c-0.2-0.2-0.8-0.7-1-0.9c-0.7,0-1.3,0-2,0c-0.9-2-3.4-1.6-5.1-2.2c-0.1,0.3-0.2,1-0.3,1.4
		c-2.3,0-4.7,0-7,0c0,0.8-0.1,1.7-0.1,2.6c-1.5,0-3,0-4.5,0c0,0.4-0.1,1.2-0.1,1.6c-3.1,2-6.8,1-10.3,1.2c0-1.8,0-3.5,0.1-5.3
		c-0.9,0-1.7,0-2.6,0c-0.1-0.5-0.2-1.4-0.3-1.9c-1.4-0.5-2.9-0.8-4.3-1.1c0-0.5-0.1-1.5-0.1-2c-1.2,0-2.5,0-3.7,0
		c0-4.9,0-9.8,0-14.6c-7.2,0-14.4,0-21.5,0c0,4.9,0,9.9,0,14.8c-0.9,0-1.7,0.1-2.6,0.1c0,0.4-0.1,1.3-0.1,1.7
		c-2.4,0.1-4.1-1.8-5.8-3.3c-0.2-0.7-0.3-1.4-0.3-2.2c-0.4-16.2-1.1-32.5-1.6-48.7c1.6-0.2,3.8,0.4,4.9-1.2c0.3-0.8,0-1.8,0-2.6
		c1.3-2.8,0.4-5.9-1.3-8.3c-0.7-0.9-1.7-1.5-2.8-1.8c0.2-2.1-0.5-4-1.5-5.7c-0.3-5.5-0.1-11.1-0.1-16.6c-0.1-1.4,0.9-2.5,1.5-3.6
		c-0.8-1.4-2-2.8-1.9-4.6c-0.4-10.7-0.6-21.4-0.7-32c-1.2,1.3-1,3.2-1.2,4.9c-0.5,4.5-0.4,9.1-0.4,13.6c-0.5,4.8-0.1,9.6-0.7,14.4
		c-0.1,1.5-1.5,2.4-1.7,3.9c0.3,1.2,1.1,2.2,1,3.5c0,5.7,0,11.4,0,17.1c-1.2,1.5-1.4,3.4-1.3,5.2c-2.1,0.7-3.2,2.8-4.2,4.6
		c-1.5,2.6,0.5,5.4-0.5,8.1c1,1.8,3.2,1.2,5,1.3c-0.3,14.1-0.6,28.2-1.2,42.2c-11.9-13.8-19.2-31.4-20.7-49.6
		c-1-11.6-0.1-23.5,3.1-34.7C171,208.6,181.3,192.8,195.5,181.7 M403.4,165c11.5-0.1,23.1,0,34.6,0c20.5,48.2,41,96.4,61.5,144.5
		c0.6,1.4,0.4,2.9,0.5,4.3c-0.6,0.3-1.2,0.5-1.8,0.8c-0.2-0.3-0.5-0.8-0.6-1.1c-1.9-0.6-3.9-0.5-5.8-0.9c0,0.9,0,1.8,0,2.7
		c-0.4,0.1-1.1,0.2-1.4,0.3c0.2,3.7,0.1,7.4,0.2,11.2c-0.9,0-1.7-0.1-2.6-0.1c0-5.4,0-10.8,0-16.2c-0.2-0.3-0.6-0.8-0.8-1.1
		c-0.8,0.6-1.8,0.8-2.7,0.8c-0.2-0.3-0.6-1-0.8-1.3c-3.9-0.2-7.8-0.6-11.7-0.8c0,3.7,0,7.4,0,11.2c-0.3-0.1-1-0.2-1.3-0.2
		c-0.3-1.2-0.7-2.4-1-3.7c-0.3-0.1-0.9-0.4-1.2-0.5c0-1.7,0-3.4,0-5c-0.2-0.3-0.6-0.8-0.8-1c0.2-0.5,0.5-1.4,0.7-1.9
		c-1.3,0-2.6-0.1-3.9-0.1c-0.2-2-0.3-4-0.5-6.1c-0.3-0.2-0.8-0.6-1-0.7c0-0.8,0-1.7,0-2.5c-0.2-0.2-0.7-0.6-1-0.8
		c-0.2-1.4-0.5-2.8-0.7-4.1c-1.9,0.3-3.8,0.6-5.7,0.8c-0.2,0.7-0.4,1.3-0.5,2c-0.5-0.9-1-1.8-1.5-2.7c-1.5,0-3.1-0.2-4.4-0.9
		c-0.2-1.3,0.7-3.4-1.3-3.7c0-0.9,0-1.8,0-2.7c-0.9-0.5-2.6-0.7-2.6-2.1c0.3-1.4,0.8-2.8,0.8-4.3c-1,0-2.1,0-3.1,0
		c0.1,1.5,0.5,2.9,0.7,4.4c0.1,1.4-1.5,1.8-2.5,2.4c-0.1,1.3,0.2,2.8-1.3,3.3c0,0.7,0,1.4,0,2c-0.3,0-1,0-1.4,0c0-3.7,0-7.4,0-11.1
		c-2.8-0.3-5.6-0.6-8.4-0.8c-0.6,0.8-1.4,1.3-2.3,1.7c0,1.5,0.1,3-0.1,4.5c-0.9,1.1-2.9,1.4-2.8,3.1c-0.2,3.1,0.4,6.3-0.3,9.4
		c-5.6,0.2-11.2,0.1-16.7,0.1c0-3.2,0-6.4,0-9.5c-3.5,0-7,0-10.5,0c0-4.2-0.1-8.3,0.1-12.5c-1.3,0-2.5,0-3.8-0.2
		c-1.1-3.4,0.6-7.3-1-10.6c-1,3.1-0.2,6.5-0.5,9.7l-0.9-0.5c-0.3-3.3,0-6.6-0.1-9.9c-1.6-0.7-1-2.7-1.5-4c-0.4,0.6-0.8,1.3-0.8,2.2
		c0,4.1,0,8.1,0,12.2c-0.4-0.1-1.3-0.2-1.7-0.2c-0.8-0.6-1.8-0.9-2.8-1c0,0.4-0.1,1.2-0.1,1.6c-1.4,0.4-3.3,1-3.4,2.8
		c-0.2,7.1,0,14.3-0.1,21.5c-3,0.3-6.1,0.3-9.1,0.7c-1.9,1.3-0.8,4-1.1,5.9c-2.9,0-5.8,0-8.6,0c0,1-0.1,1.9-0.1,2.9
		c-2-0.2-4-0.5-6-0.7c-0.3,0.8-0.5,1.7-0.8,2.6c-0.4-2.1-0.6-4.3-1-6.4c-3.3-0.1-6.6-0.1-9.7,0.9c-0.1,0.7-0.1,1.5-0.1,2.2
		c-0.5,0-1,0-1.5,0C362.9,260.2,383.1,212.6,403.4,165 M420.2,209.9c-7.6,18.4-15.1,36.8-22.7,55.3c15.1-0.1,30.2,0,45.2,0
		C435.3,246.8,427.7,228.4,420.2,209.9 M0,166.1c24.6,0.1,49.2,0,73.8,0.1c15.6-0.4,32,1.7,45.4,10.5c8.4,5.4,15.1,13.3,18.8,22.6
		c3.1,7.6,4.2,15.9,4.1,24c0,10.4-2.1,21-7.7,29.9c-6.7,10.4-17.2,18.2-28.8,22.5c11.2,16.2,22.3,32.6,33.4,48.8
		c-9.6-4.2-21-4.5-30.6-0.2c-1.1,0.5-2.2,1-3.4,0.6c-1.5,0.9-2.9,1.8-4.3,2.7c-0.1-0.3-0.4-0.9-0.5-1.3c-0.4,0-1.3,0-1.7-0.1
		c0-1.9,0-3.8,0-5.7c-1.9,0-3.8,0-5.7,0c-8.7-12.9-17.3-25.8-25.9-38.7c-9.8,0-19.6,0-29.4,0c0,5.3,0,10.7,0,16
		c-0.3,0.1-0.8,0.2-1.1,0.3c0,0.3-0.1,1-0.1,1.4c-0.9,0.2-2,0.4-2.5,1.3c-0.5,0.1-1.1,0.2-1.6,0.3c0,11.8,0.1,23.7,0,35.5
		c-2.3-0.4-1.1-3-1.4-4.5c-1.1-0.4-1.3-1.5-1.5-2.5c-0.8,0-1.7-0.1-2.5-0.1c0-0.3,0-0.9,0-1.2c-2.2,0-3.8,1.9-6,1.7
		c-1.1-0.1-1.8,0.8-2.6,1.4c-0.1-10,0.6-20-0.7-29.9c-1.2-0.1-2.2-0.5-2.2-1.9c-0.9,0-1.9,0-2.8,0c0,0.4-0.1,1.2-0.1,1.6
		c-1,0-2,0.1-2.9,0.1c0,0.4,0,1.3-0.1,1.8c-1,0.4-2.1,0.9-3.1,1.3c-0.5,1.3-0.9,2.7-1.4,4c-0.9,0-1.8,0-2.7,0
		c-0.7,1.4-1.3,2.8-2.2,4.1c-0.2-15.8,0-31.6-0.1-47.4C0,232.2,0,199.2,0,166.1 M37.5,249c12.5,0,25,0,37.5,0c5,0,10.1-0.5,14.8-2.4
		c5.2-2,9.7-5.9,12.1-11c2.4-5.1,2.7-11,1.8-16.5c-0.8-5-3.3-9.9-7.4-13c-5.7-4.4-13.1-5.9-20.1-6c-12.9,0-25.8,0-38.7,0
		C37.5,216.4,37.5,232.7,37.5,249L37.5,249z"/>
</g>
</svg>
