<?xml version="1.0" encoding="utf-8"?>
<!-- Generator: Adobe Illustrator 22.0.1, SVG Export Plug-In . SVG Version: 6.00 Build 0)  -->
<svg version="1.1" id="Layer_1" xmlns="http://www.w3.org/2000/svg" xmlns:xlink="http://www.w3.org/1999/xlink" x="0px" y="0px"
	 viewBox="0 0 500 500" enable-background="new 0 0 500 500" xml:space="preserve">
<g>
	<path fill="none" d="M372.6,274c1-2.3,1.6-5,0.5-7.4c-1.2-3-4.7-4.4-7.7-4.3c-4.4,0-8.9,0-13.3,0c0,5.2-0.1,10.4,0,15.6
		c4.6,0,9.1,0.1,13.7-0.1C368.5,277.7,371.3,276.5,372.6,274z"/>
	<path fill="none" d="M229.8,268.7c-3.5-2.5-8-1.6-12-1.8c0,7.5,0,15,0,22.4c3.1-0.1,6.2,0.2,9.3-0.2c4.2-0.9,6.5-5.3,6.5-9.4
		C233.8,275.9,233.2,271.2,229.8,268.7z"/>
	<path fill="none" d="M194.5,309.6c-3.1-0.1-6.2,0-9.3,0c0,3.3,0,6.6,0,9.9c3.6-0.1,7.2,0.2,10.8-0.2c2.9-0.6,3.6-4.1,3-6.6
		C198.6,310.7,196.4,309.6,194.5,309.6z"/>
	<path fill="none" d="M414.4,305.4c-4.4-0.1-8.8,0-13.2,0c-0.1,5.2-0.1,10.4,0,15.5c4.1,0,8.1,0,12.2,0c1.7,0,3.4-0.2,4.9-0.9
		c4.7-1.7,5.9-8.7,2.6-12.3C419.4,305.8,416.7,305.4,414.4,305.4z"/>
	<path fill="none" d="M308.3,311.1c-0.5-3.4-4-5.6-7.2-5.7c-4.7-0.1-9.5,0-14.2,0c0.2,5.2-0.9,10.3,0,15.5c4.1,0,8.2,0,12.2,0
		c2.2,0,4.4-0.4,6.2-1.5C308.3,317.9,308.8,314,308.3,311.1z"/>
	<path fill="none" d="M341.2,306.1c-3.1-1.5-6.8-2.5-10.1-1.3c-3.4,0.9-6.8,2.7-8.6,5.9c-3.1,4.6-3.2,10.4-2.5,15.6
		c1,3.5,2.8,6.9,5.8,9.1c3.3,1.9,7.2,3.3,11,2.4c3.1-0.6,6.3-1.9,8.3-4.6c3.9-4.6,4.7-11.1,3.5-16.9
		C347.6,312.2,345.1,308.3,341.2,306.1z"/>
	<path fill="none" d="M268.8,305.4c-4.7-0.1-9.4,0-14.2,0c-0.8,5.2-0.5,10.4-0.4,15.7c4.5,0,9.1,0.1,13.6,0c3,0,6-1.6,7.1-4.5
		C277.1,312.1,273.9,305.8,268.8,305.4z"/>
	<path fill="none" d="M273.4,261.9c-2.4-0.5-5-0.4-7.5-0.2c-5,1-9.2,5-10.5,9.9c-2.8,7.4-0.7,16.9,6.2,21.3
		c4.7,3.1,11.2,2.8,15.7-0.5c3.3-2.3,5.3-6,6.2-9.9c0.8-5.2,0.2-10.8-2.8-15.2C278.9,264.9,276.3,263,273.4,261.9z"/>
	<path fill="none" d="M48.9,309.6c-3.3-0.1-6.5-0.1-9.8,0c0,3.3,0,6.6,0,9.9c3.1,0,6.2,0,9.3,0c1.5,0,3.1-0.5,3.9-1.8
		c0.9-1.4,0.9-3.3,0.7-4.9C52.7,310.9,50.8,309.6,48.9,309.6z"/>
	<path fill="none" d="M440.7,316.7c-1.1,3-2.7,5.9-3.1,9.1c5,0.1,10,0,15.1,0c-2.3-6.8-5.3-13.2-7.5-20
		C443.6,309.4,442.1,313,440.7,316.7z"/>
	<path fill="none" d="M412.9,282.7c5.2,0,10.3,0.1,15.5,0c-2.6-6.5-4.9-13.2-7.8-19.6C418,269.6,415.2,276,412.9,282.7z"/>
	<path fill="none" d="M80.9,309.5c-3.9,0.9-6.4,4.7-6.8,8.5c-0.4,4.2-0.4,8.9,2.5,12.2c3.3,4.1,10,4.2,13.6,0.4
		c2.3-2.6,3-6.1,3.1-9.5c-0.1-3.3-0.8-6.9-3.1-9.5C87.9,309.3,84.1,308.6,80.9,309.5z"/>
	<path fill="#015496" d="M94.5,305.9c-4-3.4-9.6-3.8-14.6-3.2c-4.9,0.7-9.2,4-11.5,8.3c-2.5,4.2-2.7,9.3-2.2,14
		c0.4,3.6,2.1,6.9,4.4,9.6c6.9,7.3,20.3,7.1,26.6-0.8c2.8-3.6,4.1-8.2,4-12.7C101.3,315.5,99.1,309.5,94.5,305.9z M90.2,330.7
		c-3.6,3.7-10.3,3.6-13.6-0.4c-2.9-3.3-2.9-8.1-2.5-12.2c0.4-3.8,2.9-7.6,6.8-8.5c3.2-0.9,7-0.2,9.3,2.3c2.3,2.6,3,6.1,3.1,9.5
		C93.2,324.6,92.5,328.1,90.2,330.7z"/>
	<path fill="#015496" d="M225.3,260.2c-5.2,0-10.3,0-15.5,0c0,12,0,24,0,35.9c5.5,0,11,0,16.5,0c2.8-0.2,5.7-0.8,8.1-2.4
		c4-2.5,6.3-7.2,6.8-11.8c0.9-5.6,0.2-11.8-3.5-16.3C234.8,261.9,229.9,260.2,225.3,260.2z M233.6,279.8c0,4-2.3,8.5-6.5,9.4
		c-3.1,0.4-6.2,0.1-9.3,0.2c0-7.5,0-15,0-22.4c4,0.2,8.5-0.7,12,1.8C233.2,271.2,233.8,275.9,233.6,279.8z"/>
	<path fill="#015496" d="M204.4,296.1c0-2.3,0.1-4.5,0-6.8c-6.4,0-12.8,0-19.2,0c0-2.9,0-5.8,0-8.7c5.8,0,11.7,0.1,17.5,0
		c0-2,0-4,0-6c-5.8-0.1-11.7,0-17.5,0c0-2.5,0-5.1,0-7.6c6.3,0,12.5,0,18.8,0c0-2.2,0-4.5,0-6.7c-8.9,0-17.8,0-26.7,0
		c0,12,0,24,0,36C186.4,296.1,195.4,296.1,204.4,296.1z"/>
	<path fill="#015496" d="M85.8,227.3c-4.1-3.3-8.4-6.3-12.5-9.6c-1.1-1-2.7-1-4-0.6c-3.7,1.1-7.5,2.4-11.2,3.4
		c-2.5,0.8-5.4-1.2-5.6-3.8c-0.2-2,1.4-3.9,3.3-4.5c3.6-1.3,7.4-2,10.8-3.6c-1.6-0.6-3.2-1.5-5-1.3c-2.9,0.8-5.1,3-8,3.7
		c-3.1,0.6-6-1-8.4-2.8c-2.1,2.6-4.5,4.7-6.6,7.2c-3.2,3.7-6.9,6.9-10,10.8c3.3,3.6,6.8,7,10.2,10.4c1.6,1.8,4.7,1,6,3.1
		c1.4,1.7,0.5,3.9,0,5.8c3.5,0.9,4.6-4.1,8-3.9c1.8-0.3,3.8,0.6,4.5,2.3c0.2,1.2,0.2,2.5-0.1,3.7c-1.1,1.6-2.7,2.8-4,4.2
		c0.6,0.3,1.1,0.6,1.7,0.8c1.7-0.7,2.9-2.3,4.8-2.7c2-0.4,3.6,1.3,4.5,2.8c0.7,2.4-0.8,4.4-1.8,6.4c1.5,0.1,2.9-0.6,4.4-1
		c1.9-0.4,3.9,0.8,4.5,2.6c1.4,2.3-0.9,4.3-1.9,6.2c1.7,1.5,4.2,4.1,6.5,2.1c1.6-0.9,1.7-2.9,1.3-4.4c-1-1.4-2.3-2.5-3.4-3.8
		c0.9-0.7,1.8-1.4,2.7-2c2.2,1.6,3.9,4,6.5,5c2.5,0.4,4.9-2.5,3.8-4.9c-1.1-1.9-3-3.2-4.4-4.9c0.7-0.6,1.3-1.3,2.1-1.8
		c0.8-0.6,1.5,0.4,2.2,0.8c1.8,1.4,3.4,3.8,5.9,3.4c2.4-0.2,3.4-3.2,2.4-5.1c-1.4-1.8-3.3-3.2-4.9-4.8c0.8-0.9,1.6-1.7,2.4-2.5
		c1.7,1.6,3.4,3.5,5.7,4.3c2.6,0.5,4.7-2.6,3.8-4.9c-0.9-1.5-2.2-2.6-3.5-3.7C94.1,235.5,90.1,231.2,85.8,227.3z"/>
	<path fill="#015496" d="M55.7,322.3c2.1-1.1,4.1-2.7,4.8-5c1-3.2,1-6.9-1.1-9.7c-1.8-2.7-5-4.3-8.3-4.3c-6.6,0-13.2,0-19.8,0
		c-0.1,12,0,23.9,0,35.9c2.6,0,5.2,0,7.8,0c0-4.7,0-9.3,0-14c2.9,0,5.8-0.1,8.7,0c2.2,0,4.3,1.6,4.8,3.8c1.1,3.3,0.2,7.1,1.7,10.1
		c2.5,0.1,5.1,0,7.6,0c-1.3-3.4-1-7.1-1.5-10.7C60,325.8,58.3,323.2,55.7,322.3z M52.4,317.7c-0.8,1.3-2.5,1.8-3.9,1.8
		c-3.1,0-6.2,0-9.3,0c0-3.3,0-6.6,0-9.9c3.3,0,6.5-0.1,9.8,0c1.9,0,3.8,1.3,4.1,3.2C53.2,314.4,53.3,316.2,52.4,317.7z"/>
	<path fill="#015496" d="M123.1,319.8c0,2,0,4,0,6c2.7,0,5.4,0,8.1,0c-0.4,2.3-1.1,4.7-3.1,6.1c-3.9,2.6-10,1.9-12.7-2
		c-3.1-4.8-3.1-11.1-0.6-16.2c2.4-4.9,9.8-6.2,13.6-2.2c1,1,1.3,2.6,2.3,3.6c2.4,0.1,4.9,0,7.3,0c-0.6-5.7-5-10.9-10.7-12.1
		c-5.1-1.1-10.8-0.6-15.1,2.6c-3.8,2.8-6.2,7.3-6.8,11.9c-0.6,5.4-0.1,11.3,3.2,15.7c3.5,4.8,9.5,7.1,15.3,6.6
		c3.3-0.2,6.3-2,8.4-4.4c0.3,1.1,0.6,2.3,1,3.4c1.5,0.6,3.3,0.2,5,0.2c0-6.5,0-12.9,0-19.4C133.2,319.8,128.2,319.8,123.1,319.8z"/>
	<path fill="#015496" d="M152.6,332.5c0-2.9,0-5.8,0-8.7c5.8,0,11.6,0,17.4,0c0-2,0-4.1,0-6.1c-5.8,0-11.6,0-17.4,0
		c0-2.5,0-5.1,0-7.6c6.3,0,12.6,0,18.9,0c0-2.2,0-4.5,0-6.7c-8.9-0.1-17.9,0-26.8,0c-0.1,12,0,23.9,0,35.9c9,0,18.1,0,27.1,0
		c0-2.2,0-4.5,0-6.7C165.4,332.5,159,332.5,152.6,332.5z"/>
	<path fill="#015496" d="M143.8,260.2c0,2.2,0,4.5,0,6.7c3.6,0,7.1,0,10.7,0c0,9.7,0,19.5,0,29.2c2.7,0,5.3,0,8,0
		c0-9.7,0-19.5,0-29.2c3.5,0,7.1,0,10.6,0c0-2.2,0-4.5,0-6.7C163.4,260.2,153.6,260.2,143.8,260.2z"/>
	<path fill="#015496" d="M129.3,257.7c5.4-11.4,7.8-24.2,6.4-36.8c-1.3-11.5-5.3-22.7-12.1-32.1c-13.6-19.7-38.3-31.1-62.1-28.6
		c-16.5,1.5-32.4,9.3-43.6,21.6c-7.7,8.2-13.1,18.4-16,29.2c-1.8,7.1-2.2,14.5-1.8,21.8c1.1,20.7,12.7,40.3,29.9,51.8
		c9.6,6.3,20.8,10.6,32.3,11.2c4.1,0.5,8.3,0.4,12.5-0.1c10.1-0.7,19.9-4.4,28.6-9.5C114.5,279.5,123.6,269.4,129.3,257.7z
		 M23.6,227.5c-0.9,0.8-2.4,0.3-3.2-0.5c-3.1-3-6.6-5.8-9.5-9c-1.3-1.3,0.5-2.6,1.3-3.6c6-6.4,11.9-12.9,17.9-19.3
		c0.7-0.6,1.3-1.6,2.3-1.9c1.4,0.1,2.3,1.4,3.4,2.2c2.6,2.6,5.6,4.9,8.1,7.5c0.7,0.6,0.8,1.6,0.2,2.3c-3.2,4.1-7.1,7.7-10.5,11.6
		C30.2,220.4,27.1,224.1,23.6,227.5z M98.8,238c1.6,1.9,4.5,3,4.9,5.8c0.5,2.7-1.5,5.3-4,5.9c-1.2,0.1-2.4,0-3.6,0
		c0.4,1.2,0.9,2.4,1.1,3.6c-0.5,1.9-1.6,3.7-3.5,4.3c-2.3,1.1-4.6-0.4-6.4-1.5c1.2,1.7,1.9,3.8,1.2,5.9c-0.9,1.9-2.9,3.1-4.9,3.5
		c-1.8-0.2-3.2-1.4-4.6-2.3c0.1,1.6,0.4,3.4-0.1,5c-1.1,1.9-3.2,3.6-5.5,3.2c-2.1-0.6-3.7-2.2-5.4-3.4c-1.5,1-2.9,2.6-4.9,2.5
		c-3.1,0.1-5.1-3.6-3.8-6.3c0.9-1.3,2.2-2.4,3.2-3.7c-0.7-0.2-1.6-0.7-2.3-0.2c-2.1,1.4-3.6,4.2-6.3,4.2c-2,0.3-3.7-1.3-4.5-3
		c-0.8-3.2,2.2-5.3,4.3-7c-0.2-0.3-0.5-0.9-0.7-1.2c-0.3,0-0.9-0.1-1.2-0.1c-1.5,1.3-2.8,2.9-4.6,3.8c-1.6,0.2-3.7,0.5-4.9-1
		c-1.3-1.2-1.3-3.1-0.8-4.7c1-1.7,2.7-2.8,3.4-4.7c-2.5,0-3.9,2.8-6.5,2.4c-2.5,0.1-4.6-2.6-4.1-5c0.4-2,2.2-3.1,3.5-4.5
		c0.5-0.4,0.4-1.1-0.1-1.5c-3.6-4.1-7.9-7.6-11.4-11.8c3.9-3.6,7.3-7.7,10.9-11.5c2.9-2.7,5.1-5.9,8-8.5c2.4,1.7,5.1,4.2,8.3,3.2
		c2.9-1.1,5.5-2.9,8.5-3.6c2.8,0.2,5.3,1.7,8.1,1.7c2.2,0,4.4-1.2,6.6-0.5c2.8,1,5.1,3,8,3.5c2.7,0.1,5.1-1.6,7.2-3.1
		c2.3,2.2,4.4,4.6,6.6,7c3.9,3.9,7.7,8,11.4,12.1c-3.4,3.1-6.6,6.3-9.9,9.4C99.2,236.3,98.5,237,98.8,238z M113.7,227.5
		c-4.4-4-8-8.9-12.4-13c-2.4-2.8-5-5.4-7.5-8.2c-0.9-0.9-1.6-2.5-0.4-3.4c2.6-2.7,5.5-5,8.1-7.6c0.9-0.7,1.6-1.7,2.7-2.1
		c1.2-0.3,2,0.9,2.8,1.6c5.8,6.5,11.7,12.7,17.6,19.1c1.1,1.1,2.6,2.3,1.8,4c-1.6,2-3.8,3.5-5.6,5.3c-1.5,1.4-2.9,2.9-4.5,4.2
		C115.6,228,114.4,228.1,113.7,227.5z"/>
	<path fill="#015496" d="M201.6,322.3c1.6-1,3.2-2,4.1-3.6c1.8-3.4,1.8-7.8-0.4-11c-1.7-2.7-4.9-4.4-8.2-4.4c-6.7,0-13.4,0-20.1,0
		c0,12,0,23.9,0,35.9c2.7,0,5.3,0,8,0c0-4.7,0-9.3,0-14c3.1,0,6.2-0.1,9.3,0.1c2,0.1,3.8,1.8,4.2,3.8c0.7,3.3,0.7,6.7,1.4,10
		c2.6,0,5.2,0,7.9,0c-0.9-2.7-1.3-5.4-1.3-8.2C206.6,327.5,205.2,323.5,201.6,322.3z M195.9,319.3c-3.6,0.4-7.2,0.1-10.8,0.2
		c0-3.3,0-6.6,0-9.9c3.1,0,6.2,0,9.3,0c1.9,0,4.1,1.1,4.5,3.1C199.5,315.2,198.9,318.7,195.9,319.3z"/>
	<path fill="#015496" d="M233.3,318.8c-3.9-1.2-8-1.7-11.7-3.5c-2.3-1-1.8-4.5,0.2-5.6c2.4-1.5,5.7-1.2,8.2-0.1
		c1.8,0.8,2.2,2.8,2.7,4.5c2.5,0,5,0,7.6,0c0.1-4.4-2.6-8.6-6.7-10.2c-4.8-1.7-10.3-1.8-15,0.1c-2.7,1.4-5.2,3.7-5.9,6.8
		c-0.5,2.9-0.5,6.3,1.7,8.5c3,3.3,7.5,4.1,11.6,5.2c2.6,0.7,5.6,1.3,7.4,3.5c1.1,2.4-0.7,4.9-3,5.5c-3.1,0.9-6.9,0.8-9.5-1.3
		c-1.5-1.1-1.7-3-2.1-4.7c-2.5,0-5.1,0-7.6,0c0.1,1.4,0.2,2.8,0.5,4.2c0.9,2.9,3.2,5.2,5.8,6.5c3.5,1.8,7.6,2.1,11.4,1.8
		c3.4-0.3,6.9-1.4,9.4-3.8c2.9-2.7,3.4-7,2.6-10.7C239.8,322,236.7,319.6,233.3,318.8z"/>
	<path fill="#4A9FD8" d="M378.3,321.6c-1.3-0.1-2.6,0.3-3.9,0.7c0.9,0.5,1.7,1.4,2.9,1.4c3.5,0.1,7.1,0,10.6,0.1
		c0,2.3,0,4.6-0.9,6.7c-1.4,3.7-4.9,6.3-8.7,7.2c-3.7,1.1-7.6,0.3-11-1.4c-2.8-1.2-4.5-4-5.8-6.6c-2.8-6.2-1.9-13.7,1.7-19.4
		c4.1-6,13.2-7.8,19.1-3.6c2.8,1.8,4,5,5.2,7.9c0.4-0.1,1.3-0.2,1.7-0.2c-0.1-3.6-2.4-6.8-5.1-9c-4.5-3.4-10.7-3.5-15.8-1.9
		c-6.9,2.8-10.9,10.5-10.7,17.8c-0.3,5,1.4,10.2,4.8,13.9c3.2,3.2,7.7,5,12.3,4.8c5.3,0.2,10.5-2.5,13.2-7.1c0.1,2.3-0.4,5,1.4,6.9
		c0.5-1.6,0.8-3.3,0.8-5c0-4.4-0.1-8.8,0-13.2C386,321.6,382.2,321.5,378.3,321.6z"/>
	<path fill="#4A9FD8" d="M368.7,280.2c1.7,0.8,3.5,2.1,3.9,4c1.1,3.9-0.1,8.1,1.1,12c0.8,0,1.6,0,2.3-0.1c-0.2-1.8-0.7-3.7-0.6-5.6
		c-0.1-2.7,0.3-5.5-1-7.9c-1-1.8-2.8-2.9-4.4-4c1.5-1.1,3.2-2,4.3-3.5c2-2.9,2.1-6.8,0.9-10c-1.4-2.8-4.6-4.6-7.7-4.8
		c-4.6-0.5-9.3-0.1-14-0.2c-1.3,0.1-2.9-0.3-3.9,0.7c-0.2,10.6,0.1,21.2-0.1,31.8c-0.1,1.3,0.3,2.6,0.7,3.8c0.9-0.5,1.9-1.1,1.9-2.2
		c0.2-4.9,0-9.9-0.2-14.8c1.8,0.1,3.7,0.4,5.5,0.3C361.1,279.3,365,279.6,368.7,280.2z M352.1,277.9c-0.1-5.2,0-10.4,0-15.6
		c4.4,0,8.9,0,13.3,0c3,0,6.5,1.4,7.7,4.3c1.1,2.4,0.5,5.1-0.5,7.4c-1.3,2.5-4.1,3.7-6.8,3.8C361.2,277.9,356.7,277.8,352.1,277.9z"
		/>
	<path fill="#4A9FD8" d="M304.6,321.7c1.8-1.1,3.8-2.1,5-4c2.6-4.5,1.2-11.3-3.8-13.3c-3.5-1.5-7.3-0.9-10.9-1
		c-3.5,0.1-7.1-0.3-10.5,0.4c0.2,10,0,20,0.1,30c0.1,2.1-0.6,4.6,1.4,6.1c0.8-1.2,1.5-2.5,1.3-3.9c-0.4-4.2-0.7-8.5-0.1-12.8
		c5.4-0.3,10.8-0.6,16.2,0.2c2.5,0.8,4.6,3,4.8,5.7c0.2,3.3-0.2,6.7,0.5,9.9c0.8,0.2,1.6,0.3,2.4,0.4c-0.5-3.5-0.8-7-0.7-10.6
		C310.1,325.4,307.2,323.2,304.6,321.7z M299.1,320.9c-4.1,0-8.2,0-12.2,0c-0.9-5.1,0.2-10.3,0-15.5c4.7,0,9.5-0.1,14.2,0
		c3.3,0.1,6.7,2.3,7.2,5.7c0.5,3-0.1,6.8-3,8.4C303.5,320.5,301.3,321,299.1,320.9z"/>
	<path fill="#4A9FD8" d="M344.8,305.8c-3.3-2.9-7.8-3.5-12-3.2c-3.6,0.2-7.2,1.6-9.9,4.1c-2.7,2.3-4,5.7-5,9
		c-1.8,6.7-0.2,14.3,4.4,19.6c6.2,6.3,17.6,6.4,23.9,0.2c3.6-3.7,5.4-9,5.1-14.2C351.5,315.5,349.3,309.5,344.8,305.8z M345.1,333.3
		c-2,2.6-5.2,3.9-8.3,4.6c-3.8,0.9-7.7-0.5-11-2.4c-3-2.2-4.7-5.7-5.8-9.1c-0.7-5.3-0.6-11.1,2.5-15.6c1.8-3.1,5.2-4.9,8.6-5.9
		c3.4-1.1,7-0.2,10.1,1.3c3.8,2.1,6.4,6.1,7.3,10.3C349.7,322.2,349,328.7,345.1,333.3z"/>
	<path fill="#4A9FD8" d="M317.8,262.5c0.1-1-0.5-1.9-0.8-2.8c-0.5,0.9-1.5,1.7-1.4,2.8c0,7,0.1,14,0,21c-0.1,3.3-1.2,6.8-3.6,9.1
		c-4.5,2.9-11.3,3.8-15.5-0.1c-2.3-2-3.2-5.1-3.6-8c-0.2-8,0-16-0.1-24c-0.7,0-1.4-0.1-2.2-0.1c0,8.2-0.1,16.4,0,24.6
		c0.5,3.9,2,8.4,5.8,10.3c2.7,1.7,6,1.5,9.1,1.5c3.7,0.1,7.5-1.7,9.7-4.7c1.7-2.7,2.6-6,2.5-9.2
		C317.8,276.2,317.8,269.3,317.8,262.5z"/>
	<path fill="#4A9FD8" d="M424.5,316.1c1-3.4,0.9-7.9-2.1-10.3c-2.4-2.3-5.9-2.5-9-2.5c-4.9,0-9.8-0.1-14.7,0.1
		c-0.1,10.1,0,20.2-0.1,30.3c0,1.8,0.1,3.6,0.3,5.4c0.4,0.1,1.3,0.3,1.8,0.4c0.3-1.2,0.5-2.4,0.5-3.7c0-4.3-0.1-8.5,0-12.8
		c4.8-0.7,9.5,0,14.3,0c2.5,0,5.1,1.5,6.1,3.8c1.4,3.7-0.1,7.8,1.1,11.5c0.2,1.1,1.6,0.7,2.4,1.1c-0.2-3.5-0.8-7.1-0.7-10.6
		c0-3.4-2.8-5.7-5.6-7C421.1,320.3,423.8,318.9,424.5,316.1z M418.3,320c-1.6,0.7-3.3,0.9-4.9,0.9c-4.1,0-8.1,0-12.2,0
		c-0.1-5.2-0.1-10.4,0-15.5c4.4-0.1,8.8-0.1,13.2,0c2.3,0.1,4.9,0.5,6.5,2.4C424.3,311.3,423.1,318.3,418.3,320z"/>
	<path fill="#4A9FD8" d="M500,260.2c-0.4-0.1-1.3-0.2-1.8-0.3c-0.4,1.4-0.6,2.8-0.5,4.2c0.1,4.1,0.1,8.1,0,12.2
		c-7.5,0.8-15.1,0.2-22.7,0c-0.2-5.4,0.3-10.8-0.3-16.1c-0.6,0-1.3,0-1.9,0c-0.3,2.2-0.3,4.4-0.3,6.6c0,6.6,0,13.3,0,19.9
		c0,3.3-0.3,6.6,0.6,9.8c0.7-0.5,2-0.7,1.9-1.7c0.1-5.4-0.1-10.9,0.1-16.3c5.5,0,11,0,16.5,0c2.1,0,4.1,0,6.2,0.3
		c0,3.4,0,6.8,0,10.1c0,2.5-0.3,5.1,0.6,7.5c0.5-0.3,1.1-0.5,1.6-0.7C500.1,283.9,499.9,272.1,500,260.2z"/>
	<path fill="#4A9FD8" d="M497,303.3c-1.1,1.4-1.7,3.2-2.4,4.8c-2.4,6.2-5,12.3-7.6,18.4c-1.3,3-2.2,6.2-3.8,9.1
		c-0.2,0-0.5-0.1-0.7-0.1c-1.5-2.7-2.4-5.8-3.8-8.6c-3.1-7.5-6.2-15-9.3-22.4c-0.5-1.6-2.3-1.2-3.6-1.3c-0.3,1.9-0.5,3.7-0.4,5.6
		c0,5.9,0.1,11.9,0,17.8c0,4.2-0.3,8.5,0.4,12.7c0.6,0,1.2,0,1.8,0c0.1-0.8,0.2-1.6,0.3-2.4c0.1-10-0.2-19.9,0.1-29.8
		c2.5,4.9,4.4,10.2,6.6,15.3c2.1,4.8,4,9.7,6,14.5c0.4,1.3,1.5,2.1,2.8,2.7c2.6-4,3.8-8.7,5.8-13c2.8-6.2,4.8-12.6,7.9-18.7
		c0.3,1.2,0.6,2.4,0.6,3.7c0,9.3-0.1,18.5,0,27.8c0.7,0,1.4-0.1,2.1,0c0.2-12,0-24,0.1-36.1C499,303.2,498,303.2,497,303.3z"/>
	<path fill="#4A9FD8" d="M466.1,282c-0.8,4.9-3.4,10-8.2,12c-3.8,1.9-8.4,1.2-12-0.8c-2.7-1.5-4.4-4.1-5.9-6.7
		c-1.7-3-1.7-6.6-1.6-10c0.1-6.5,4.5-13.1,11-14.6c3.7-0.7,7.8-0.5,11,1.6c2.8,1.5,3.9,4.7,5.1,7.4c0.6,0,1.2,0,1.8,0
		c-0.2-4.1-2.9-7.8-6.4-9.7c-4.3-2.6-9.8-2.3-14.4-0.7c-3.8,1.7-7.2,4.6-8.7,8.5c-1.7,4.2-1.9,8.9-1.4,13.4
		c0.9,6.3,5.3,12.3,11.7,13.9c4.8,1.1,10.4,0.7,14.3-2.6c3.3-2.7,5-6.8,5.9-10.9C467.5,282.6,466.8,282.3,466.1,282z"/>
	<path fill="#4A9FD8" d="M451.1,315.5c-1.6-3.5-2.7-7.3-4.3-10.9c-0.4-1.2-1.8-1.3-2.8-1.6c-3.8,8.5-6.9,17.4-10.6,26
		c-1.1,3.3-2.9,6.3-3.7,9.7c0.7,1.3,2.2,0.4,2.6-0.6c1.4-3.3,2.7-6.7,4-10.1c1.9-0.3,3.7-0.4,5.6-0.4c3.9,0.1,7.8-0.3,11.6,0.4
		c1.6,3.9,2.8,7.9,4.9,11.6c0.4-0.2,1.3-0.7,1.8-1c-1.1-3.1-2.5-6.1-3.6-9.3C454.5,324.8,453.2,320,451.1,315.5z M437.6,325.8
		c0.4-3.2,2-6.1,3.1-9.1c1.4-3.7,2.9-7.3,4.5-10.9c2.2,6.8,5.2,13.3,7.5,20C447.7,325.8,442.7,325.8,437.6,325.8z"/>
	<path fill="#4A9FD8" d="M436,295.6c-4.3-10.8-8.7-21.6-12.9-32.5c-0.4-1-0.9-2.1-1.7-2.9c-0.8-0.1-1.7-0.3-2.1,0.6
		c-1.6,2.8-2.4,6-3.7,8.9c-3.5,8.1-6.3,16.4-10,24.4c-7.4,0-14.8,0.1-22.2,0c-0.2-5.2-0.1-10.3,0-15.5c6.7-0.2,13.4,0,20.1-0.1
		c0-0.6,0-1.2,0-1.8c-1.9-0.2-3.8-0.3-5.8-0.1c-4.8,0.5-9.6-0.3-14.4-0.2c-0.1-4.7-0.1-9.4,0.1-14.1c6.6,0,13.1,0,19.7,0
		c1.2,0.2,2.1-0.4,2.4-1.6c-1.3-0.3-2.6-0.5-4-0.5c-6.8,0-13.7,0-20.5,0c-0.3,10.5,0,21-0.2,31.5c-0.1,1.7,0.1,3.3,0.5,5
		c3.8-0.8,7.7-0.3,11.5-0.4c4.7,0.2,9.5-0.3,14.2,0.3c2.1-3.7,3.2-7.8,4.9-11.6c5.7-0.1,11.5-0.1,17.3,0c1.4,3.9,3,7.8,4.6,11.6
		C434.5,296.1,435.2,295.9,436,295.6z M412.9,282.7c2.2-6.7,5.1-13.1,7.7-19.6c2.8,6.4,5.1,13.1,7.8,19.6
		C423.2,282.8,418.1,282.7,412.9,282.7z"/>
	<path fill="#4A9FD8" d="M285.9,274.9c-0.7-5.1-3.3-10.2-7.8-13c-2.9-2.1-6.6-2.6-10.1-2.4c-7.1-0.1-13.5,5.5-15.2,12.2
		c-1.4,5.3-1.4,11.4,1.3,16.3c1.6,3.3,4.3,6.1,7.6,7.6c2.7,1.4,5.8,1.3,8.7,1.2c6.1,0.1,11.9-4.1,13.9-9.8
		C286.2,283.3,286.1,279,285.9,274.9z M283.5,282.6c-0.9,3.8-2.9,7.6-6.2,9.9c-4.5,3.3-11,3.7-15.7,0.5c-6.9-4.4-9-13.9-6.2-21.3
		c1.3-4.9,5.5-9,10.5-9.9c2.5-0.3,5-0.3,7.5,0.2c2.9,1,5.5,3,7.3,5.5C283.7,271.8,284.3,277.4,283.5,282.6z"/>
	<path fill="#4A9FD8" d="M332.7,262.3c0.1,11.3-0.1,22.5,0.1,33.8c0.9,0.1,2.4,0.1,2.2-1.3c0-10.8-0.1-21.7,0-32.5
		c4.2-0.1,8.3,0,12.5-0.1c0-0.6,0-1.2,0-1.7c-4.6-0.6-9.3-0.2-13.9-0.3c-4.4,0.1-8.9-0.3-13.3,0.3c0,0.6,0,1.2,0,1.8
		C324.4,262.3,328.5,262.2,332.7,262.3z"/>
	<path fill="#4A9FD8" d="M44,205.3c0.6-0.7,0.5-1.7-0.2-2.3c-2.6-2.7-5.5-4.9-8.1-7.5c-1-0.8-2-2.1-3.4-2.2c-1,0.3-1.6,1.2-2.3,1.9
		c-6,6.4-11.9,12.9-17.9,19.3c-0.7,1-2.6,2.3-1.3,3.6c2.9,3.2,6.4,5.9,9.5,9c0.8,0.8,2.2,1.3,3.2,0.5c3.5-3.3,6.7-7,10-10.6
		C36.9,212.9,40.8,209.4,44,205.3z"/>
	<path fill="#4A9FD8" d="M126.3,217.9c0.7-1.7-0.8-2.9-1.8-4c-5.8-6.4-11.8-12.7-17.6-19.1c-0.8-0.7-1.6-1.9-2.8-1.6
		c-1.1,0.4-1.8,1.4-2.7,2.1c-2.6,2.6-5.5,4.9-8.1,7.6c-1.1,0.9-0.4,2.6,0.4,3.4c2.5,2.7,5.1,5.3,7.5,8.2c4.3,4.1,7.9,9,12.4,13
		c0.7,0.6,1.9,0.5,2.6-0.1c1.6-1.3,2.9-2.8,4.5-4.2C122.6,221.4,124.7,219.9,126.3,217.9z"/>
	<path fill="#4A9FD8" d="M99.8,235.7c3.3-3.1,6.6-6.3,9.9-9.4c-3.7-4.1-7.5-8.2-11.4-12.1c-2.1-2.4-4.2-4.8-6.6-7
		c-2.1,1.5-4.5,3.2-7.2,3.1c-2.9-0.5-5.3-2.5-8-3.5c-2.2-0.7-4.4,0.6-6.6,0.5c-2.8,0-5.3-1.5-8.1-1.7c-3,0.7-5.6,2.5-8.5,3.6
		c-3.2,0.9-5.9-1.5-8.3-3.2c-2.9,2.6-5.2,5.8-8,8.5c-3.7,3.8-7,7.9-10.9,11.5c3.5,4.2,7.8,7.7,11.4,11.8c0.5,0.4,0.6,1.1,0.1,1.5
		c-1.3,1.4-3.1,2.6-3.5,4.5c-0.5,2.4,1.6,5,4.1,5c2.5,0.4,4-2.4,6.5-2.4c-0.7,1.9-2.4,3-3.4,4.7c-0.5,1.6-0.4,3.5,0.8,4.7
		c1.1,1.5,3.2,1.2,4.9,1c1.8-0.9,3.1-2.5,4.6-3.8c0.3,0,0.9,0.1,1.2,0.1c0.2,0.3,0.5,0.9,0.7,1.2c-2.1,1.8-5,3.9-4.3,7
		c0.8,1.7,2.5,3.4,4.5,3c2.8,0,4.2-2.8,6.3-4.2c0.7-0.5,1.5,0,2.3,0.2c-1,1.3-2.3,2.4-3.2,3.7c-1.3,2.6,0.7,6.4,3.8,6.3
		c2,0.1,3.4-1.5,4.9-2.5c1.8,1.2,3.3,2.8,5.4,3.4c2.3,0.4,4.4-1.3,5.5-3.2c0.4-1.6,0.2-3.3,0.1-5c1.4,0.9,2.9,2.2,4.6,2.3
		c2-0.3,4.1-1.5,4.9-3.5c0.7-2,0-4.2-1.2-5.9c1.9,1.2,4.2,2.6,6.4,1.5c1.9-0.7,3-2.5,3.5-4.3c-0.2-1.2-0.7-2.4-1.1-3.6
		c1.2,0,2.4,0.2,3.6,0c2.5-0.6,4.6-3.3,4-5.9c-0.3-2.8-3.2-3.9-4.9-5.8C98.5,237,99.2,236.3,99.8,235.7z M101.8,243.2
		c1,2.4-1.2,5.4-3.8,4.9c-2.3-0.8-4-2.7-5.7-4.3c-0.8,0.8-1.6,1.7-2.4,2.5c1.6,1.7,3.5,3,4.9,4.8c1,1.9,0,4.9-2.4,5.1
		c-2.6,0.4-4.1-2-5.9-3.4c-0.6-0.4-1.3-1.4-2.2-0.8c-0.8,0.5-1.4,1.2-2.1,1.8c1.4,1.7,3.3,3,4.4,4.9c1.2,2.4-1.2,5.3-3.8,4.9
		c-2.6-1-4.3-3.4-6.5-5c-0.9,0.6-1.8,1.3-2.7,2c1.1,1.3,2.4,2.4,3.4,3.8c0.4,1.6,0.3,3.6-1.3,4.4c-2.3,2-4.8-0.6-6.5-2.1
		c1.1-1.9,3.3-3.9,1.9-6.2c-0.6-1.8-2.6-3-4.5-2.6c-1.4,0.4-2.8,1.1-4.4,1c1-2,2.6-4,1.8-6.4c-0.9-1.5-2.5-3.2-4.5-2.8
		c-1.8,0.4-3.1,2-4.8,2.7c-0.6-0.2-1.2-0.5-1.7-0.8c1.3-1.5,2.8-2.6,4-4.2c0.3-1.2,0.3-2.5,0.1-3.7c-0.8-1.7-2.7-2.5-4.5-2.3
		c-3.3-0.1-4.5,4.8-8,3.9c0.5-1.9,1.4-4.1,0-5.8c-1.4-2.1-4.5-1.3-6-3.1c-3.4-3.4-6.9-6.8-10.2-10.4c3.1-3.9,6.8-7.1,10-10.8
		c2.1-2.5,4.6-4.7,6.6-7.2c2.4,1.8,5.3,3.4,8.4,2.8c2.9-0.7,5.2-2.9,8-3.7c1.7-0.2,3.4,0.7,5,1.3c-3.5,1.6-7.3,2.3-10.8,3.6
		c-1.9,0.6-3.4,2.5-3.3,4.5c0.2,2.6,3.1,4.6,5.6,3.8c3.8-1,7.5-2.2,11.2-3.4c1.4-0.4,2.9-0.4,4,0.6c4.1,3.3,8.4,6.3,12.5,9.6
		c4.3,3.9,8.3,8.3,12.6,12.2C99.6,240.7,100.9,241.8,101.8,243.2z"/>
	<path fill="#4A9FD8" d="M273.9,304.9c-2.1-1.4-4.7-1.7-7.2-1.6c-4.9,0-9.8,0-14.7,0.1c-0.1,11.4-0.1,22.7-0.1,34.1
		c-0.2,1.3,0.9,2,2.1,2.1c0.3-5.4,0-10.9,0.1-16.3c4.6,0,9.1,0,13.7,0c3.3,0,6.6-1.4,8.5-4.1c1.4-2,1.6-4.6,1.4-6.9
		C277.6,309.3,276.3,306.5,273.9,304.9z M275,316.6c-1.1,2.8-4.2,4.5-7.1,4.5c-4.5,0.1-9.1,0-13.6,0c-0.1-5.2-0.4-10.5,0.4-15.7
		c4.7,0,9.4-0.1,14.2,0C273.9,305.8,277.1,312.1,275,316.6z"/>
</g>
</svg>
