<?xml version="1.0" encoding="utf-8"?>
<!-- Generator: Adobe Illustrator 22.0.1, SVG Export Plug-In . SVG Version: 6.00 Build 0)  -->
<svg version="1.1" id="Layer_1" xmlns="http://www.w3.org/2000/svg" xmlns:xlink="http://www.w3.org/1999/xlink" x="0px" y="0px"
	 viewBox="0 0 500 500" enable-background="new 0 0 500 500" xml:space="preserve">
<g>
	<path fill="#27A1AC" d="M178.3,164c7.2-4.7,14.5-9.4,21.7-14c18.4,12.2,36.8,24.4,55.2,36.6c14.5-8,29.1-15.9,43.6-24
		c-17.8-12.1-35.5-24.4-53.3-36.4c7-3.7,14-7.4,20.9-11.2c38.9,25,77.9,49.8,116.8,74.8c14.5-8.3,28.7-16.9,43.1-25.2
		C369.8,126.5,313.3,88.1,256.7,50c-59.8,34.9-119.5,69.7-179.4,104.4c57.9,36.4,115.7,72.9,173.6,109.2c15-8.4,30.1-16.8,45.1-25.3
		C256.8,213.5,217.6,188.7,178.3,164z"/>
	<path fill="#F7D744" d="M306.1,307.9c0-7.7-0.1-15.4,0.1-23.1c39.9-23.5,80-46.9,119.9-70.4c-0.1-14.4,0-28.8,0-43.2
		c-57.2,33.5-114.4,66.9-171.6,100.3c0,37.8,0,75.6,0,113.4c18.6-11.1,37.7-21.3,56.1-32.9c22.2-13,44.4-26.1,66.5-39.2
		c0,7.1,0,14.2,0,21.2c-41.1,24.4-82.4,48.3-123.7,72.4c0,14.5,0,29.1,0,43.6c57.7-33.8,115.4-67.6,172.9-101.5
		c-0.1-36.5-0.2-73-0.2-109.5C386.1,261.9,346.1,284.9,306.1,307.9z"/>
	<path fill="#262658" d="M182.8,230c-10.2,21.8-20.4,43.5-30.8,65.2c-7.8-33.2-15.6-66.4-23-99.7c-18.5-11.1-37.1-22-55.5-33.1
		c0,56.5,0,113,0,169.5c8.3,6.8,16.3,13.8,24.5,20.7c0.1-26.4-0.1-52.9,0.1-79.3c10.2,32.7,20,65.5,30,98.3
		c13.6,7.9,27,16.1,40.6,23.9c12.2-25,24.6-49.8,37-74.7c0.1,32.7,0.4,65.4-0.2,98.1c14.3,9.1,28.5,18.4,42.9,27.4
		c-0.1-58.5,0-117-0.1-175.5C226.5,257.1,204.7,243.6,182.8,230z"/>
</g>
</svg>
