<?xml version="1.0" encoding="utf-8"?>
<!-- Generator: Adobe Illustrator 22.0.1, SVG Export Plug-In . SVG Version: 6.00 Build 0)  -->
<svg version="1.1" id="Layer_1" xmlns="http://www.w3.org/2000/svg" xmlns:xlink="http://www.w3.org/1999/xlink" x="0px" y="0px"
	 viewBox="0 0 500 500" enable-background="new 0 0 500 500" xml:space="preserve">
<g>
	<g>
		<defs>
			<rect id="SVGID_1_" y="152.2" width="500" height="195.6"/>
		</defs>
		<clipPath id="SVGID_2_">
			<use xlink:href="#SVGID_1_"  overflow="visible"/>
		</clipPath>
		<path clip-path="url(#SVGID_2_)" fill="#1B3353" d="M386.7,310c2.6,0,5.2,0,7.8,0c2.9,4,5.8,7.9,8.8,11.9c2.9-4,5.9-7.9,8.8-11.9
			c2.6,0,5.2,0,7.8,0c-4.5,6.1-9,12.1-13.5,18.2c0,5.3,0,10.7,0,16c-2.1,0-4.1,0-6.2,0c-0.1-5.3,0.1-10.7-0.1-16
			C395.8,322,391.2,316.1,386.7,310L386.7,310L386.7,310z M344.9,310c10.2,0,20.4,0,30.6,0c0,2.1,0,4.2,0,6.2c-4.1,0-8.1,0-12.2,0
			c0,9.3,0,18.7,0,28c-2.1,0-4.1,0-6.2,0c0-9.3,0-18.7,0-28c-4.1,0-8.2,0-12.2,0C344.9,314.1,344.9,312,344.9,310 M307,310
			c8,0,16,0,24.1,0c0,2.1,0,4.2,0,6.2c-6,0-11.9,0-17.9,0c0,2.6,0,5.2,0,7.8c6,0,11.9,0,17.9,0c0,2.1,0,4.1,0,6.2
			c-6,0-11.9,0-17.9,0c0,2.6,0,5.2,0,7.8c6,0,11.9,0,17.9,0c0,2.1,0,4.1,0,6.2c-8,0-16,0-24.1,0C307,332.8,307,321.4,307,310
			 M286.5,310c2.1,0,4.1,0,6.2,0c0,11.4,0,22.8,0,34.3c-2.1,0-4.1,0-6.2,0C286.5,332.8,286.5,321.4,286.5,310 M255.6,309.7
			c6.4-1.9,13.8,0.4,17.9,5.7c-1.6,1.3-3.2,2.6-4.8,3.9c-1.5-1.6-3.3-3-5.4-3.6c-3.8-1.2-8.3,0-10.9,3c-4.8,5.2-3.9,14.6,2.1,18.5
			c4.5,3,10.9,1.8,14.2-2.4c1.6,1.3,3.2,2.6,4.8,3.9c-5.1,6.7-15.4,8.4-22.4,3.7c-6.8-4.3-9.6-13.4-7.2-20.9
			C245.4,315.9,249.9,311.2,255.6,309.7 M210.6,315.6c-3.4,0.8-6.2,3.5-7.3,6.7c-1.6,4.4-0.9,9.8,2.4,13.3c3.5,3.8,9.9,4.3,14,1.2
			c5.8-4.3,6.1-13.9,0.9-18.7C217.9,315.6,214,314.8,210.6,315.6 M211.1,309.2c4.8-0.6,9.8,0.8,13.3,4c6.5,5.6,7.8,15.9,3.5,23.3
			c-2.1,3.7-5.7,6.7-9.8,7.9c-4.9,1.4-10.6,0.6-14.7-2.5c-5.5-4-8.1-11.3-7-17.9C197.5,316.6,203.5,310,211.1,309.2 M161.7,311.6
			c4-2.7,9.3-3.1,13.8-1.6c3.1,1,5.9,3.3,7.1,6.4c-1.9,0.7-3.9,1.4-5.8,2.1c-2.6-3.8-8.5-4-12-1.5c-1.3,0.8-1.7,2.7-0.5,3.8
			c2.1,2.2,5.3,2.2,8.1,2.8c3.8,0.5,7.7,2.2,9.9,5.4c2.1,2.8,2.3,6.7,0.6,9.7c-1.8,3.1-5.1,5-8.5,5.9c-4.5,1-9.4,0.5-13.3-2.1
			c-2.1-1.3-3.6-3.4-4.5-5.7c2-0.6,3.9-1.2,5.9-1.8c1.3,2.5,4.2,3.7,7,3.8c2.6,0.1,5.5-0.5,7.4-2.5c0.9-0.9,1.2-2.3,0.5-3.4
			c-1.2-1.9-3.4-2.7-5.4-3.1c-3.6-0.7-7.5-1-10.5-3.2c-2.5-1.7-4.3-4.6-4.2-7.6C157.4,316,159.2,313.2,161.7,311.6 M493.4,259.2
			c2.2,0,4.4,0,6.6,0c0.5,5.8-1.8,11.6-6,15.5c-1-0.9-1.9-1.8-2.9-2.7C493,268.1,493.9,263.6,493.4,259.2 M408,259.2
			c10.2,0,20.4,0,30.6,0c0,2.1,0,4.1,0,6.2c-4,0-8.1,0-12.1,0c0,9.4,0,18.7,0,28.1c-2.1,0-4.2,0-6.2,0c0-9.4,0-18.7,0-28.1
			c-4.1,0-8.1,0-12.2,0C408,263.3,408,261.3,408,259.2 M364,259.2c2.3,0,4.6,0,6.9,0c5.7,8.1,11.3,16.2,17,24.3c0-8.1,0-16.2,0-24.3
			c2.1,0,4.2,0,6.2,0c0,11.4,0,22.8,0,34.3c-2.3,0-4.6,0-6.9,0c-5.7-8.1-11.4-16.2-17-24.3c0,8.1,0,16.2,0,24.3c-2.1,0-4.2,0-6.2,0
			C363.9,282,364,270.6,364,259.2 M326.1,259.2c8,0,16.1,0,24.1,0c0,2.1,0,4.1,0,6.2c-6,0-11.9,0-17.9,0c0,2.6,0,5.2,0,7.8
			c6,0,12,0,17.9,0c0,2.1,0,4.2,0,6.2c-6,0-11.9,0-17.9,0c0,2.6,0,5.2,0,7.8c6,0,11.9,0,17.9,0c0,2.1,0,4.2,0,6.2
			c-8,0-16.1,0-24.1,0C326.1,282,326.1,270.6,326.1,259.2 M289.6,287.2c2.4,0,4.7,0.1,7.1,0c3-0.1,5.9-1.6,7.6-4
			c2.6-3.4,2.9-8.4,0.9-12.3c-1.6-3-4.7-5.2-8.2-5.5c-2.5-0.2-5,0-7.6-0.1C289.6,272.7,289.6,279.9,289.6,287.2 M283.3,259.2
			c4.3,0,8.6,0,12.9,0c4.3,0,8.5,1.7,11.5,4.7c6.1,5.8,6.7,16.3,1.6,22.9c-3,4-7.8,6.5-12.7,6.6c-4.4,0.1-8.9,0-13.3,0
			C283.3,282,283.3,270.6,283.3,259.2 M239.3,259.2c2.1,0,4.2,0,6.2,0c0,7.2,0,14.5,0,21.7c0,1.7,0.7,3.5,2,4.7
			c2.8,2.7,7.3,3.1,10.9,1.8c2.8-0.9,5-3.5,4.9-6.5c0-7.2,0-14.5,0-21.7c2.1,0,4.2,0,6.2,0c0,7.4,0,14.8,0,22.2
			c0,4.2-2.5,8.2-6,10.4c-5.3,3.4-12.5,3.4-17.9,0.2c-3.7-2.2-6.3-6.3-6.4-10.7C239.2,274,239.3,266.6,239.3,259.2 M194.9,259.2
			c10.2,0,20.4,0,30.6,0c0,2.1,0,4.1,0,6.2c-4,0-8.1,0-12.1,0c0,9.4,0,18.7,0,28.1c-2.1,0-4.2,0-6.2,0c0-9.4,0-18.7,0-28.1
			c-4.1,0-8.1,0-12.2,0C194.9,263.3,194.9,261.2,194.9,259.2 M454.9,260.8c5-3.4,12.1-3.4,17.1-0.1c1.8,1.1,3.1,2.9,3.9,4.8
			c-1.9,0.7-3.8,1.4-5.8,2.1c-2.8-4.1-9.5-4.2-12.8-0.7c-1.3,1.7,0.3,3.6,1.9,4.3c3.7,1.6,7.9,1.2,11.5,3c3.5,1.6,6.5,4.9,6.6,8.9
			c0.2,3.7-2.2,7.1-5.3,8.9c-5.3,3.1-12.5,3-17.7-0.4c-2-1.3-3.5-3.3-4.4-5.6c2-0.6,3.9-1.2,5.9-1.8c1.2,2.3,3.7,3.4,6.1,3.7
			c2.7,0.3,5.6-0.2,7.7-1.9c0.9-0.8,1.8-2,1.3-3.3c-0.6-1.7-2.4-2.7-4-3.3c-3.6-1-7.6-1-10.9-2.8c-2.9-1.6-5.4-4.5-5.4-8
			C450.5,265.5,452.4,262.5,454.9,260.8 M161.2,261.1c4.2-3.2,10.1-3.6,15-1.7c2.9,1.1,5.3,3.3,6.4,6.2c-1.9,0.7-3.8,1.4-5.8,2.1
			c-2.4-3.5-7.6-3.9-11.2-2c-1.2,0.6-2.5,1.9-2,3.4c0.8,1.7,2.6,2.6,4.4,3c3.6,0.8,7.5,0.9,10.7,2.9c3.2,1.8,5.6,5.3,5.3,9.1
			c-0.1,3.4-2.4,6.3-5.2,8c-5.3,3.2-12.5,3.1-17.7-0.3c-2.1-1.3-3.6-3.4-4.4-5.7c2-0.6,3.9-1.2,5.9-1.8c1.2,2.3,3.8,3.5,6.3,3.8
			c2.7,0.3,5.5-0.3,7.6-2c1-0.8,1.8-2.3,1.1-3.5c-0.9-1.7-2.8-2.7-4.6-3.1c-3.5-0.8-7.2-0.9-10.4-2.7c-2.8-1.6-5.2-4.5-5.3-7.9
			C157.2,265.7,158.9,262.9,161.2,261.1 M317.4,210.5c0,4.6,0,9.3,0,13.9c4,0,8,0,12,0c1.4,0,2.9-0.2,4.1-1.1
			c3.8-2.7,3.7-9.2-0.1-11.9c-1-0.8-2.3-1-3.6-1C325.7,210.5,321.5,210.5,317.4,210.5 M315.3,208.4c4.9,0,9.7,0,14.6,0
			c2,0,4.1,0.7,5.6,2c4.3,3.8,3.9,11.7-1,14.8c-1.6,1.2-3.7,1.3-5.6,1.3c3.6,5.4,7.1,10.8,10.7,16.1c-0.9,0-1.7,0-2.5,0
			c-3.6-5.4-7.1-10.8-10.7-16.2c-3,0-5.9,0-8.9,0c0,5.4,0,10.8,0,16.2c-0.7,0-1.4,0-2.1,0C315.3,231.2,315.3,219.8,315.3,208.4
			 M280.5,208.4c7,0,14,0,20.9,0c0,0.7,0,1.4,0,2.2c-6.3,0-12.5,0-18.8,0c0,4.7,0,9.3,0,13.9c6.3,0,12.5,0,18.8,0c0,0.7,0,1.4,0,2.1
			c-6.3,0-12.5,0-18.8,0c0,4.7,0,9.3,0,14c6.3,0,12.5,0,18.8,0c0,0.7,0,1.4,0,2.2c-7,0-14,0-20.9,0
			C280.5,231.2,280.5,219.8,280.5,208.4 M160,210.5c0,4.6,0,9.3,0,13.9c4,0,7.9,0,11.9,0c1.3,0,2.8-0.1,3.9-0.9
			c4-2.6,4.1-9.3,0.2-12c-1-0.8-2.3-1-3.6-1C168.2,210.5,164.1,210.5,160,210.5 M157.9,208.4c4.8,0,9.7,0,14.5,0
			c1.9,0,3.9,0.6,5.4,1.8c4.5,3.7,4.2,11.8-0.7,15c-1.6,1.2-3.7,1.3-5.6,1.3c3.6,5.4,7.1,10.8,10.7,16.1c-0.8,0-1.7,0-2.5,0
			c-3.6-5.4-7.2-10.8-10.7-16.2c-3,0-5.9,0-8.9,0c0,5.4,0,10.8,0,16.2c-0.7,0-1.4,0-2.1,0C157.9,231.2,157.9,219.8,157.9,208.4
			 M356.9,208.7c5.7-2.6,13.8-0.6,16.2,5.6c-0.7,0.2-1.3,0.4-2,0.6c-2.7-6.2-12.4-6.9-16.6-1.8c-1.4,1.7-1.7,4.2-0.6,6.1
			c1.1,2.1,3.3,3.4,5.6,4c3.2,0.9,6.7,0.9,9.6,2.6c2.8,1.5,5.1,4.3,5.2,7.6c0.2,2.8-1.2,5.5-3.3,7.2c-4.3,3.6-10.9,4-15.7,1.3
			c-2.4-1.2-4.1-3.4-5-5.9c0.7-0.2,1.3-0.4,2-0.6c2.1,5.7,9.5,7.4,14.6,5.2c2.8-1.1,5.3-3.6,5.3-6.8c0-3.1-2.6-5.6-5.3-6.7
			c-3.6-1.3-7.6-1.1-11-3c-2.7-1.5-4.9-4.3-4.8-7.5C351.1,213,353.8,210,356.9,208.7 M244.2,210.3c4.4-3.3,10.8-3.6,15.6-0.9
			c2.1,1.1,3.7,2.7,5.2,4.5c-0.6,0.4-1.1,0.8-1.7,1.3c-2.2-2.9-5.5-5.1-9.2-5.4c-4.2-0.5-8.5,1.4-11.2,4.6c-4.6,5.6-5.1,14-1.5,20.2
			c2.3,4,6.6,6.8,11.3,6.8c6.6,0,12.3-6.3,12-12.9c-4,0-8.1,0-12.1,0c0-0.7,0-1.4,0-2.2c4.7,0,9.5,0,14.2,0c0,5.4,0,10.9,0,16.3
			c-0.7,0-1.4,0-2.2,0c0-2,0-4,0-6c-1.8,2.6-4.2,4.8-7.1,6c-5.1,2-11.1,0.5-15-3.3C234.4,231.7,235.1,216.8,244.2,210.3 M205.2,210
			c-3.1,0.8-5.8,2.8-7.6,5.5c-4.2,6.1-4,15.1,0.7,20.9c2.2,2.8,5.5,4.7,9,5c3.5,0.3,7.1-1,9.6-3.4c7.1-6.5,6.9-19.4-0.7-25.5
			C213.3,209.9,209,209,205.2,210 M206.5,207.6c4.7-0.6,9.5,1.2,12.7,4.6c4.8,5.1,6.1,12.9,4.1,19.5c-1.3,4.3-4.3,8.1-8.3,10.2
			c-4.7,2.5-10.9,2-15.2-1.1c-9.2-6.6-9.8-21.6-1.6-29.2C200.5,209.4,203.4,207.9,206.5,207.6 M235,159.7c0,10,0,20,0,30.1
			c5.2-0.3,11,1.1,15.7-2c6-3.8,7.9-12.1,5.7-18.6c-1.4-4.6-5.3-8.4-10.1-9.2C242.6,159.4,238.8,159.8,235,159.7 M232.9,157.6
			c3.7,0,7.4,0,11.1,0c4.2,0,8.3,1.9,11.1,5.1c4.6,5.3,5.4,13.2,2.8,19.5c-2.1,5.3-7.3,9.3-13,9.6c-4,0.1-8,0-12,0
			C232.9,180.4,232.9,169,232.9,157.6 M198.1,157.6c7,0,13.9,0,20.9,0c0,0.7,0,1.4,0,2.1c-6.3,0-12.5,0-18.8,0c0,4.7,0,9.3,0,13.9
			c6.3,0,12.5,0,18.8,0c0,0.7,0,1.4,0,2.2c-6.3,0-12.5,0-18.8,0c0,4.7,0,9.3,0,13.9c6.3,0,12.5,0,18.8,0c0,0.7,0,1.4,0,2.1
			c-7,0-14,0-20.9,0C198.1,180.4,198.1,169,198.1,157.6 M157.9,157.6c8.8,0,17.7,0,26.5,0c0,0.7,0,1.4,0,2.1c-4.1,0-8.1,0-12.2,0
			c0,10.7,0,21.4,0,32.2c-0.7,0-1.4,0-2.1,0c0-10.7,0-21.4,0-32.2c-4.1,0-8.1,0-12.2,0C157.9,159,157.9,158.3,157.9,157.6
			 M104.8,152.2c12.2,0,24.4,0,36.6,0c0,65.2,0,130.4,0,195.6c-12.2,0-24.4,0-36.6,0C104.8,282.6,104.8,217.4,104.8,152.2"/>
		<path clip-path="url(#SVGID_2_)" fill="#F6D467" d="M52.4,225.1c12.2,0,24.4,0,36.6,0c0,40.9,0,81.8,0,122.7
			c-12.2,0-24.4,0-36.6,0C52.4,306.9,52.4,266,52.4,225.1L52.4,225.1L52.4,225.1z"/>
		<path clip-path="url(#SVGID_2_)" fill="#00ACC9" d="M-0.1,291.7c12.2,0,24.4,0,36.6,0c0,18.7,0,37.4,0,56.1c-12.2,0-24.4,0-36.6,0
			C-0.1,329.1-0.1,310.4-0.1,291.7L-0.1,291.7L-0.1,291.7z"/>
	</g>
</g>
</svg>
