<?xml version="1.0" encoding="utf-8"?>
<!-- Generator: Adobe Illustrator 22.0.1, SVG Export Plug-In . SVG Version: 6.00 Build 0)  -->
<svg version="1.1" id="Layer_1" xmlns="http://www.w3.org/2000/svg" xmlns:xlink="http://www.w3.org/1999/xlink" x="0px" y="0px"
	 viewBox="0 0 500 500" enable-background="new 0 0 500 500" xml:space="preserve">
<g>
	<path fill-rule="evenodd" clip-rule="evenodd" fill="#FFFFFF" d="M18.4,294c3.2,1.9,6.7,2.9,10.5,2.9c4.6,0,8.4-1.3,11.6-3.9
		c2.4-2,4.3-4.8,5.5-8.4l1.7-1.2h6l1.1,1.1c-1.8,6.1-4.7,10.8-8.9,14.1c-4.4,3.5-9.9,5.3-16.3,5.3c-6.6,0-12.1-1.3-16.2-4
		c-4.2-2.7-7.3-6.6-9.5-11.7c-2.2-5.1-3.3-10.6-3.3-16.5c0-6.4,1.2-12,3.7-16.8c2.5-4.8,6-8.4,10.5-10.9c4.5-2.5,9.5-3.7,15-3.7
		c6.2,0,11.4,1.6,15.6,4.7c4.2,3.1,7.1,7.5,8.8,13.2l-0.2,0c0,0.2,0.1,0.5,0.1,0.7l-1.1,1.1H47l-1.3-0.9c-1.4-4-3.4-6.9-5.9-8.8
		c-2.7-2-6.1-3.1-10.3-3.1c-4.7,0-8.7,1.1-11.9,3.4c-3.2,2.3-5.4,5.3-6.7,9.1c-1.3,3.8-1.9,7.8-1.9,11.8c0,5.2,0.8,9.8,2.3,13.7
		C12.8,289.1,15.1,292.1,18.4,294 M97.3,279.9l-10.3-24.4l-10.2,24.2v1.6h20.6V279.9L97.3,279.9z M101.5,290.3l-1.4-1.4h-26
		l-1.5,1.5l-5.1,13.4h-0.6l0,0h-5.5v-8l21-53.5h1.3l0-0.1h7.9l21.1,53.8v7.7h-6.2L101.5,290.3L101.5,290.3z M158.9,252.7
		c-2-1.8-5.3-2.8-9.6-2.8h-17.5l-1.2,1.2v17.5l1.2,1.2h15.6c3.6,0,6.4-0.4,8.4-1.1c2-0.8,3.6-2,4.6-3.6c1.1-1.7,1.6-3.5,1.6-5.4
		C162,256.9,160.9,254.5,158.9,252.7 M157.3,276.1v1.6l12.1,18.3v1.1v4.5v2.3h-3.5h-1.6h-0.6L146,277.1c-2.4-0.1-4.4-0.2-4.4-0.2
		c-0.5,0-1,0-1.6,0h-8.3l-1.2,1.2v24.5l-1.3,1.3h-5.8l-1.1-1.1v-59.4l1-1l25.6,0.3c5.3,0.1,9.4,0.7,12.1,1.8c2.8,1.1,5,3.1,6.6,5.9
		c1.7,2.8,2.5,5.9,2.5,9.3c0,4.4-1.2,8.5-4,11.4C164.2,273.5,161.2,275.1,157.3,276.1 M181.6,303.8l-1.3-1.3v-59l1.2-1.2H220
		l1.2,1.2v5.5l-1.2,1.2h-30.2l-1.3,1.3v16.1l1.2,1.2h29l1.1,1.1v4.9l-1.3,1.3h-28.7l-1.3,1.3v17.3l1.4,1.4H220l1.1,1.1v5.5l-1.3,1.3
		H181.6L181.6,303.8z M233.1,303.8l-1.3-1.3v-59l1.2-1.2h38.6l1.2,1.2v5.5l-1.2,1.2h-30.2l-1.3,1.3v16.1l1.2,1.2h29l1.1,1.1v4.9
		L270,276h-28.7l-1.3,1.3v17.3l1.4,1.4h30.2l1.1,1.1v5.5l-1.3,1.3H233.1L233.1,303.8z M319.2,252.7c-2-1.8-5.3-2.8-9.6-2.8H292
		l-1.2,1.2v17.5l1.2,1.2h15.6c3.6,0,6.4-0.4,8.4-1.1c2-0.8,3.6-2,4.6-3.6c1.1-1.7,1.6-3.5,1.6-5.4
		C322.2,256.9,321.2,254.5,319.2,252.7 M326.6,271.2c-2.1,2.3-5.2,3.9-9.1,4.9v1.6l12.1,18.3v1.1v4.5v2.3h-3.5h-1.6H324l-17.7-26.8
		c-2.4-0.1-4.4-0.2-4.4-0.2c-0.5,0-1,0-1.6,0H292l-1.2,1.2v24.5l-1.3,1.3h-5.8l-1.1-1.1v-59.4l1-1l25.7,0.3
		c5.3,0.1,9.4,0.7,12.2,1.8c2.8,1.1,5,3.1,6.7,5.9c1.7,2.8,2.5,5.9,2.5,9.3C330.6,264.1,329.4,268.3,326.6,271.2"/>
	<g>
		<defs>
			<rect id="SVGID_3_" y="195" width="500" height="110"/>
		</defs>
		<clipPath id="SVGID_2_">
			<use xlink:href="#SVGID_3_"  overflow="visible"/>
		</clipPath>
		<path clip-path="url(#SVGID_2_)" fill="#004C9B" d="M18.4,294c3.2,1.9,6.7,2.9,10.5,2.9c4.6,0,8.4-1.3,11.6-3.9
			c2.4-2,4.3-4.8,5.5-8.4l1.7-1.2h6l1.1,1.1c-1.8,6.1-4.7,10.8-8.9,14.1c-4.4,3.5-9.9,5.3-16.3,5.3c-6.6,0-12.1-1.3-16.2-4
			c-4.2-2.7-7.3-6.6-9.5-11.7c-2.2-5.1-3.3-10.6-3.3-16.5c0-6.4,1.2-12,3.7-16.8c2.5-4.8,6-8.4,10.5-10.9c4.5-2.5,9.5-3.7,15-3.7
			c6.2,0,11.4,1.6,15.6,4.7c4.2,3.1,7.1,7.5,8.8,13.2l-0.2,0c0,0.2,0.1,0.5,0.1,0.7l-1.1,1.1H47l-1.3-0.9c-1.4-4-3.4-6.9-5.9-8.8
			c-2.7-2-6.1-3.1-10.3-3.1c-4.7,0-8.7,1.1-11.9,3.4c-3.2,2.3-5.4,5.3-6.7,9.1c-1.3,3.8-1.9,7.8-1.9,11.8c0,5.2,0.8,9.8,2.3,13.7
			C12.8,289.1,15.1,292.1,18.4,294L18.4,294z M97.3,279.9l-10.3-24.4l-10.2,24.2v1.6h20.6V279.9L97.3,279.9z M101.5,290.3l-1.4-1.4
			h-26l-1.5,1.5l-5.1,13.4h-0.6l0,0h-5.5v-8l21-53.5h1.3l0-0.1h7.9l21.1,53.8v7.7h-6.2L101.5,290.3L101.5,290.3z M158.9,252.7
			c-2-1.8-5.3-2.8-9.6-2.8h-17.5l-1.2,1.2v17.5l1.2,1.2h15.6c3.6,0,6.4-0.4,8.4-1.1c2-0.8,3.6-2,4.6-3.6c1.1-1.7,1.6-3.5,1.6-5.4
			C162,256.9,160.9,254.5,158.9,252.7L158.9,252.7z M157.3,276.1v1.6l12.1,18.3v1.1v4.5v2.3h-3.5h-1.6h-0.6L146,277.1
			c-2.4-0.1-4.4-0.2-4.4-0.2c-0.5,0-1,0-1.6,0h-8.3l-1.2,1.2v24.5l-1.3,1.3h-5.8l-1.1-1.1v-59.4l1-1l25.6,0.3
			c5.3,0.1,9.4,0.7,12.1,1.8c2.8,1.1,5,3.1,6.6,5.9c1.7,2.8,2.5,5.9,2.5,9.3c0,4.4-1.2,8.5-4,11.4
			C164.2,273.5,161.2,275.1,157.3,276.1L157.3,276.1z M181.6,303.8l-1.3-1.3v-59l1.2-1.2H220l1.2,1.2v5.5l-1.2,1.2h-30.2l-1.3,1.3
			v16.1l1.2,1.2h29l1.1,1.1v4.9l-1.3,1.3h-28.7l-1.3,1.3v17.3l1.4,1.4H220l1.1,1.1v5.5l-1.3,1.3H181.6L181.6,303.8z M233.1,303.8
			l-1.3-1.3v-59l1.2-1.2h38.6l1.2,1.2v5.5l-1.2,1.2h-30.2l-1.3,1.3v16.1l1.2,1.2h29l1.1,1.1v4.9L270,276h-28.7l-1.3,1.3v17.3
			l1.4,1.4h30.2l1.1,1.1v5.5l-1.3,1.3H233.1L233.1,303.8z M319.2,252.7c-2-1.8-5.3-2.8-9.6-2.8H292l-1.2,1.2v17.5l1.2,1.2h15.6
			c3.6,0,6.4-0.4,8.4-1.1c2-0.8,3.6-2,4.6-3.6c1.1-1.7,1.6-3.5,1.6-5.4C322.2,256.9,321.2,254.5,319.2,252.7L319.2,252.7z
			 M326.6,271.2c-2.1,2.3-5.2,3.9-9.1,4.9v1.6l12.1,18.3v1.1v4.5v2.3h-3.5h-1.6H324l-17.7-26.8c-2.4-0.1-4.4-0.2-4.4-0.2
			c-0.5,0-1,0-1.6,0H292l-1.2,1.2v24.5l-1.3,1.3h-5.8l-1.1-1.1v-59.4l1-1l25.7,0.3c5.3,0.1,9.4,0.7,12.2,1.8c2.8,1.1,5,3.1,6.7,5.9
			c1.7,2.8,2.5,5.9,2.5,9.3C330.6,264.1,329.4,268.3,326.6,271.2L326.6,271.2z"/>
		<path clip-path="url(#SVGID_2_)" fill-rule="evenodd" clip-rule="evenodd" fill="#004C9B" d="M25.8,219.6
			c-0.8-1.1-1.8-1.9-3.2-2.3c-1.4-0.4-3.3-0.7-5.9-0.7H8.3l-0.8,0.8v12.2l0.7,0.7h9.3c1.7,0,2.9-0.1,3.6-0.2
			c1.2-0.2,2.2-0.6,3.1-1.1c0.8-0.5,1.5-1.3,2-2.2c0.5-1,0.8-2.1,0.8-3.4C27,222,26.6,220.7,25.8,219.6 M25.3,205.9
			c0-1.3-0.3-2.5-1-3.5c-0.6-1-1.6-1.7-2.7-2.1c-1.2-0.4-3.2-0.6-6.1-0.6H8.4l-0.9,0.9v10.5l0.8,0.8h7.9c2.4,0,4-0.2,5.1-0.5
			c1.3-0.4,2.4-1.1,3.1-2C25,208.5,25.3,207.3,25.3,205.9 M32.5,223.5c0,1.9-0.4,3.6-1.2,5.2c-0.8,1.6-1.8,2.9-2.9,3.7
			c-1.2,0.9-2.6,1.5-4.4,2c-1.8,0.4-3.9,0.7-6.5,0.7H3l-0.8-0.8v-38.5L3,195h14.3c3.1,0,5.5,0.4,7.4,1.2c1.9,0.8,3.3,2.1,4.4,3.7
			c1,1.7,1.6,3.5,1.6,5.3c0,1.7-0.5,3.3-1.4,4.8c-0.9,1.5-2.3,2.7-4.2,3.7c2.4,0.7,4.3,1.9,5.6,3.6
			C31.8,219.1,32.5,221.1,32.5,223.5 M58.5,234.7l-1.3-3.5c-2.3,3.3-4,4-7.9,4c-1.7,0-3.3-0.5-4.8-1.2c-1.5-0.7-2.2-1.5-2.9-2.5
			c-0.7-1-1.2-2-1.5-3.5c-0.2-1-0.7-2.3-0.7-4.4V207l0.7-0.7h3.8l0.8,0.8v14c0,2.6,0.1,4.3,0.3,5.2c0.3,1.3,1,2.3,2,3
			c1,0.7,1.9,1.1,3.3,1.1c1.5,0,2.5-0.4,3.8-1.1c1.3-0.8,2.2-1.8,2.8-3.1c0.5-1.3,0.8-3.2,0.8-5.7v-13.4l0.8-0.8H62l0.9,0.9v26.7
			l-0.9,0.9H58.5L58.5,234.7z M77.1,216.2c0.5,0.2,1.9,0.6,4.4,1.3c3.5,0.9,4.8,1.1,6.1,1.7c1.4,0.6,2.5,1.5,3.2,2.6
			c0.8,1.1,1.2,2.5,1.2,4.2c0,1.6-0.5,3.2-1.4,4.6c-1,1.5-2.3,2.6-4.1,3.4c-1.8,0.8-3.1,1.2-5.4,1.2c-3.8,0-6.7-0.8-8.6-2.4
			c-1.8-1.5-3.2-4-3.2-7.2l0.8-0.8l4.1,0l0.7,0.7c0.3,1.5,0.8,2.3,1.5,3.1c0.9,0.9,2.1,1.4,4.1,1.4c2.1,0,3.6-0.4,4.6-1.2
			c1-0.8,1.5-1.8,1.5-2.8c0-1-0.4-1.7-1.3-2.3c-0.6-0.4-1.3-0.9-4-1.5c-3.6-0.9-6.1-1.7-7.5-2.4c-1.4-0.7-2.5-1.6-3.2-2.8
			c-0.7-1.2-1.1-2.5-1.1-3.9c0-1.3,0.3-1.9,0.9-3c0.6-1.1,1.4-2,2.4-2.8c0.8-0.6,1.8-1,3.1-1.4c1.3-0.4,2.7-0.6,4.3-0.6
			c2.3,0,4.3,0.3,6,1c1.7,0.7,3,1.5,3.8,2.7c0.7,1,1.3,3,1.2,4.7l-0.7,0.7l-3.7,0l-0.8-0.8c-0.1-0.9-0.4-1.5-1.1-2c-1-0.6-2-1-3.8-1
			c-2.1,0-3.6,0.3-4.5,0.8c-0.9,0.6-1.3,1.2-1.3,2c0,0.5,0,0.9,0.2,1.4C75.8,215.7,76.2,216,77.1,216.2 M98.8,202.2l-0.8-0.8v-4.5
			l0.8-0.8h4.5l0.8,0.8v4.5l-0.8,0.8H98.8L98.8,202.2z M98.8,235.1l-0.8-0.8v-27.1l0.8-0.8h4.5l0.8,0.8v27.1l-0.8,0.8H98.8
			L98.8,235.1z M129.1,235.1l-0.6-0.6v-14.2c0-2.6-0.1-4.3-0.3-5.2c-0.3-1.3-1-2.3-2-3c-1-0.7-1.9-1.1-3.3-1.1
			c-1.5,0-2.5,0.4-3.8,1.1c-1.3,0.8-2.2,1.8-2.7,3.1c-0.5,1.3-0.8,3.2-0.8,5.7v13.4l-0.8,0.8h-3.8l-0.7-0.7v-27l0.7-0.7h3.7l1.3,3.5
			c2.3-3.3,4-4,7.9-4c1.7,0,3.5,0.5,5.1,1.2c1.6,0.7,2.4,1.5,3.2,2.5c0.8,1,1.3,2,1.6,3.5c0.2,1,0.7,2.3,0.7,4.4v16.5l-0.9,0.9
			H129.1L129.1,235.1z M159.9,213c-1.5-1.9-3.1-2.8-5.5-2.8c-2.2,0-4,0.7-5.5,2.2c-1.3,1.3-1.7,2.9-1.8,5l0.7,0.7h12.7l0.7-0.7
			C161,215.5,160.7,214.1,159.9,213 M166.4,222.3h-18.5l-0.7,0.7c0.2,2.5,0.9,3.9,2.2,5.3c1.5,1.6,3.2,2,5.3,2c1.6,0,2.9-0.4,4-1.2
			c1.1-0.8,1.6-1.3,2.3-3.2l5,0v1.7c-0.8,2.1-2.1,3.7-3.8,5c-2.1,1.6-4.8,2.4-8.1,2.4c-4.1,0-7.4-1.3-9.8-3.8
			c-2.4-2.5-3.6-5.9-3.6-10.6c0-4.9,1.3-8.7,3.8-11.4c2.5-2.7,5.8-4.1,9.8-4.1c3.9,0,6.7,1.7,9.2,4.3c2.4,2.6,3.6,6.2,3.6,10.9
			c0,0.2,0,0.6,0,1.1L166.4,222.3L166.4,222.3z M179.6,216.2c0.5,0.2,1.9,0.6,4.4,1.3c3.5,0.9,4.8,1.1,6.1,1.7
			c1.4,0.6,2.5,1.5,3.2,2.6c0.8,1.1,1.2,2.5,1.2,4.2c0,1.6-0.5,3.2-1.4,4.6c-1,1.5-2.3,2.6-4.1,3.4c-1.8,0.8-3.1,1.2-5.4,1.2
			c-3.8,0-6.7-0.8-8.6-2.4c-1.8-1.5-3.2-4-3.2-7.2l0.8-0.8l4.1,0l0.7,0.7c0.3,1.5,0.8,2.3,1.5,3.1c0.9,0.9,2.1,1.4,4.1,1.4
			c2.1,0,3.6-0.4,4.6-1.2c1-0.8,1.5-1.8,1.5-2.8c0-1-0.4-1.7-1.3-2.3c-0.6-0.4-1.3-0.9-4-1.5c-3.6-0.9-6.1-1.7-7.5-2.4
			c-1.4-0.7-2.5-1.6-3.2-2.8c-0.7-1.2-1.1-2.5-1.1-3.9c0-1.3,0.3-1.9,0.9-3c0.6-1.1,1.4-2,2.4-2.8c0.8-0.6,1.8-1,3.1-1.4
			c1.3-0.4,2.7-0.6,4.3-0.6c2.3,0,4.3,0.3,6,1c1.7,0.7,3,1.5,3.8,2.7c0.7,1,1.3,3,1.2,4.7l-0.7,0.7l-3.7,0l-0.8-0.8
			c-0.1-0.9-0.4-1.5-1.1-2c-1-0.6-2-1-3.8-1c-2.1,0-3.6,0.3-4.5,0.8c-0.9,0.6-1.3,1.2-1.3,2c0,0.5,0,0.9,0.2,1.4
			C178.2,215.7,178.7,216,179.6,216.2 M221.4,214.5l-3.7,0l-0.8-0.8c-0.1-0.9-0.4-1.5-1.1-2c-1-0.6-2-1-3.8-1
			c-2.1,0-3.6,0.3-4.5,0.8c-0.9,0.6-1.3,1.2-1.3,2c0,0.5,0,0.9,0.2,1.4c0.3,0.8,0.8,1.1,1.7,1.4c0.5,0.2,1.9,0.6,4.4,1.3
			c3.5,0.9,4.8,1.1,6.1,1.7c1.4,0.6,2.5,1.5,3.2,2.6c0.8,1.1,1.2,2.5,1.2,4.2c0,1.6-0.5,3.2-1.4,4.6c-1,1.5-2.3,2.6-4.1,3.4
			c-1.8,0.8-3.1,1.2-5.4,1.2c-3.8,0-6.7-0.8-8.6-2.4c-1.8-1.5-3.2-4-3.2-7.2l0.8-0.8l4.1,0l0.7,0.7c0.3,1.5,0.8,2.3,1.5,3.1
			c0.9,0.9,2.1,1.4,4.1,1.4c2.1,0,3.6-0.4,4.6-1.2c1-0.8,1.5-1.8,1.5-2.8c0-1-0.4-1.7-1.3-2.3c-0.6-0.4-1.3-0.9-4-1.5
			c-3.6-0.9-6.1-1.7-7.5-2.4c-1.4-0.7-2.5-1.6-3.2-2.8c-0.7-1.2-1.1-2.5-1.1-3.9c0-1.3,0.3-1.9,0.9-3c0.6-1.1,1.4-2,2.4-2.8
			c0.8-0.6,1.8-1,3.1-1.4c1.3-0.4,2.7-0.6,4.3-0.6c2.3,0,4.3,0.3,6,1c1.7,0.7,3,1.5,3.8,2.7c0.7,1,1.3,3,1.2,4.7L221.4,214.5
			L221.4,214.5z"/>
	</g>
	<path fill-rule="evenodd" clip-rule="evenodd" fill="#FEDC00" d="M377.5,304.5l-1.8-1.8v-24.5l-0.9-0.9h-27l-0.9,0.9v24.5l-1.8,1.8
		h-6.4l-1.8-1.8v-59.3l1.5-1.5h7l1.5,1.5v24l0.9,0.9h27l0.9-0.9v-24l1.5-1.5h7l1.5,1.5v59.3l-1.8,1.8H377.5L377.5,304.5z
		 M418.6,304.5c-5.6,0-10.3-1-13.8-3c-3.6-2-6.2-4.9-7.8-8.6c-1.5-3.7-2.3-8.8-2.3-15.2v-34.7l1.5-1.5h5.9l1.4,1.5v34.7
		c0,5,0.4,8.5,1.4,11c0.9,2.3,2.5,4.2,4.7,5.4c2.2,1.3,5,1.9,8.3,1.9c5.6,0,9.6-1.3,11.9-3.8c2.4-2.6,3.5-7.3,3.5-14.6V243l1.4-1.4
		h5.9l1.5,1.5v34.7c0,6-0.7,10.9-2,14.5c-1.4,3.6-3.9,6.6-7.5,8.9C429.1,303.3,424.4,304.5,418.6,304.5 M473.9,267.6
		c3.6,0,6.1-0.2,7.6-0.7c2-0.6,3.4-1.6,4.4-2.9c1-1.3,1.5-3.1,1.5-5.1c0-1.9-0.5-3.7-1.4-5.2c-0.9-1.4-2.2-2.5-3.9-3
		c-1.8-0.6-4.9-0.8-9.2-0.8h-10.8l-1,1v15.8l0.9,0.9H473.9L473.9,267.6z M475.9,296.2c2.6,0,4.4-0.1,5.5-0.3
		c1.8-0.3,3.3-0.9,4.5-1.6c1.2-0.7,2.2-1.8,2.9-3.3c0.8-1.4,1.2-3.1,1.2-5c0-2.2-0.6-4.1-1.7-5.7c-1.1-1.6-2.7-2.7-4.6-3.4
		c-2-0.7-5-1-8.9-1H462l-1,1v18.5l0.8,0.8H475.9L475.9,296.2z M453.5,304.5l-1.6-1.6V243l1.5-1.5h22.2c4.8,0,8.6,0.6,11.5,1.9
		c2.9,1.3,5.3,3.3,6.9,6c1.7,2.7,2.5,5.5,2.5,8.4c0,2.7-0.8,5.3-2.2,7.7c-1.3,2.1-3.2,3.9-5.6,5.3c3.3,1.2,5.9,3,7.7,5.4
		c2.1,2.7,3.1,6,3.1,9.7c0,3-0.6,5.8-1.9,8.3c-1.2,2.6-2.8,4.6-4.7,6c-1.8,1.4-4.2,2.4-6.9,3.1c-2.7,0.7-6.1,1.1-10.1,1.1H453.5
		L453.5,304.5z"/>
	<path fill="#FEDC00" d="M384.5,241.4H384h-6.6H377l-0.3,0.3l-1.2,1.2l-0.3,0.3v0.4v23.5l-0.6,0.6H348l-0.6-0.6v-23.5v-0.4l-0.3-0.3
		l-1.2-1.2l-0.3-0.3h-0.4h-6.6h-0.4l-0.3,0.3l-1.2,1.2l-0.3,0.3v0.4v58.9v0.4l0.3,0.3l1.5,1.5l0.3,0.3h0.4h6h0.4l0.3-0.3l1.5-1.5
		l0.3-0.3v-0.4v-24.1l0.6-0.6h26.6l0.6,0.6v24.1v0.4l0.3,0.3l1.5,1.5l0.3,0.3h0.4h6h0.4l0.3-0.3l1.5-1.5l0.3-0.3v-0.4v-58.9v-0.4
		l-0.3-0.3l-1.2-1.2L384.5,241.4L384.5,241.4z M441,241h-0.4H435h-0.4l-0.3,0.3l-1.1,1.1l-0.3,0.3v0.4v34.5c0,7.1-1.1,11.7-3.4,14.2
		c-2.2,2.4-6.1,3.6-11.5,3.6c-3.2,0-5.9-0.6-8-1.9c-2.1-1.2-3.6-2.9-4.5-5.2c-0.9-2.4-1.4-5.8-1.4-10.8v-34.5v-0.4l-0.3-0.3
		l-1.1-1.1l-0.3-0.3H402h-5.5H396l-0.3,0.3l-1.2,1.2l-0.3,0.3v0.4v34.5c0,6.4,0.8,11.6,2.3,15.4c1.6,3.9,4.3,6.9,8,8.9
		c3.6,2,8.4,3,14.1,3c5.9,0,10.7-1.2,14.3-3.5c3.7-2.3,6.3-5.4,7.7-9.1c1.4-3.6,2.1-8.6,2.1-14.7v-34.5v-0.4l-0.3-0.3l-1.2-1.2
		L441,241L441,241z M462.3,276.4h12.6c3.8,0,6.7,0.3,8.7,1c1.9,0.6,3.3,1.7,4.4,3.2c1.1,1.5,1.6,3.3,1.6,5.4c0,1.8-0.4,3.4-1.1,4.7
		c-0.7,1.3-1.6,2.4-2.8,3.1c-1.1,0.7-2.6,1.2-4.3,1.5c-1,0.2-2.8,0.3-5.4,0.3h-13.8l-0.5-0.5v-18L462.3,276.4L462.3,276.4z
		 M462.3,250.4h10.6c4.3,0,7.3,0.3,9.1,0.8c1.6,0.5,2.8,1.4,3.6,2.8c0.9,1.4,1.3,3,1.3,4.9c0,1.9-0.5,3.6-1.4,4.8
		c-0.9,1.2-2.3,2.2-4.2,2.7c-1.5,0.5-4,0.7-7.5,0.7h-11.8l-0.6-0.6v-15.4L462.3,250.4L462.3,250.4z M475.5,241h-22h-0.4l-0.3,0.3
		l-1.2,1.2l-0.3,0.3v0.4v59.4v0.4l0.3,0.3l1.3,1.3l0.3,0.3h0.4h22.2c4,0,7.4-0.4,10.2-1.1c2.8-0.7,5.2-1.8,7.1-3.2
		c1.9-1.4,3.5-3.5,4.8-6.1c1.3-2.6,1.9-5.5,1.9-8.5c0-3.8-1.1-7.2-3.2-10c-1.7-2.3-4.1-4-7-5.2c2.1-1.3,3.7-3,4.9-4.9
		c1.5-2.5,2.3-5.2,2.3-8c0-3-0.9-6-2.6-8.7c-1.7-2.8-4.1-4.9-7.1-6.2C484.3,241.7,480.4,241,475.5,241 M384,242.4l1.2,1.2v58.9
		l-1.5,1.5h-6l-1.5-1.5v-24.5l-1.2-1.2h-27.5l-1.2,1.2v24.5l-1.5,1.5h-6l-1.5-1.5v-58.9l1.2-1.2h6.6l1.2,1.2v24l1.2,1.2H375l1.2-1.2
		v-24l1.2-1.2H384 M440.5,242.1l1.2,1.2v34.5c0,6-0.7,10.8-2,14.3c-1.3,3.5-3.8,6.4-7.3,8.6c-3.5,2.2-8.1,3.3-13.8,3.3
		c-5.5,0-10.1-1-13.6-2.9c-3.5-1.9-6-4.7-7.5-8.4c-1.5-3.7-2.3-8.6-2.3-15v-34.5l1.2-1.2h5.5l1.1,1.2v34.5c0,5.2,0.5,8.7,1.4,11.2
		c1,2.5,2.6,4.4,4.9,5.7c2.3,1.3,5.2,2,8.5,2c5.8,0,9.8-1.3,12.3-4c2.4-2.6,3.7-7.4,3.7-14.9v-34.5l1.1-1.1H440.5 M461.7,296.7h14.2
		c2.6,0,4.5-0.1,5.6-0.3c1.9-0.3,3.5-0.9,4.7-1.7c1.3-0.8,2.3-1.9,3.1-3.4c0.8-1.5,1.2-3.2,1.2-5.2c0-2.3-0.6-4.3-1.8-6
		c-1.2-1.7-2.8-2.9-4.9-3.6c-2.1-0.7-5.1-1-9-1h-13l-1.3,1.3v18.9L461.7,296.7 M461.7,268.1h12.2c3.6,0,6.2-0.2,7.8-0.7
		c2.1-0.6,3.6-1.7,4.7-3.1c1-1.4,1.6-3.2,1.6-5.4c0-2.1-0.5-3.9-1.5-5.4c-1-1.6-2.4-2.6-4.2-3.2c-1.8-0.6-5-0.9-9.4-0.9h-11
		l-1.3,1.3v16.2L461.7,268.1 M475.5,242c4.7,0,8.5,0.6,11.3,1.9c2.8,1.3,5.1,3.2,6.7,5.8c1.6,2.6,2.4,5.3,2.4,8.2
		c0,2.6-0.7,5.1-2.1,7.5c-1.4,2.3-3.6,4.2-6.5,5.7c3.7,1.1,6.6,3,8.6,5.6c2,2.6,3,5.8,3,9.4c0,2.9-0.6,5.6-1.8,8.1
		c-1.2,2.5-2.7,4.4-4.5,5.8c-1.8,1.4-4,2.4-6.8,3.1c-2.7,0.7-6,1-10,1h-22.2l-1.3-1.3v-59.4l1.2-1.2H475.5"/>
</g>
</svg>
