<?xml version="1.0" encoding="utf-8"?>
<!-- Generator: Adobe Illustrator 22.0.1, SVG Export Plug-In . SVG Version: 6.00 Build 0)  -->
<svg version="1.1" id="Layer_1" xmlns="http://www.w3.org/2000/svg" xmlns:xlink="http://www.w3.org/1999/xlink" x="0px" y="0px"
	 viewBox="0 0 500 500" enable-background="new 0 0 500 500" xml:space="preserve">
<g>
	<path fill="#37708D" d="M243.1,83.3c1.7-0.4-0.7,1.3-1.5,1.3c-1.4-0.2-3,2.4-3.7,0.8C239.5,84.6,241.2,83.8,243.1,83.3 M249.9,83.1
		c0.2,0,0.5,0,0.7,0c1.9,8.1,1.9,16.6,2.2,24.9c-0.3,8,0.9,16.2-1.4,23.9c-1.4,1.9-2.2-1.7-2.6-2.7C246.3,114,248.2,98.3,249.9,83.1
		 M256.1,83.1c1.9,0.9,5,0.9,5.8,2.9C259.6,84.3,257.5,85.8,256.1,83.1 M240.5,85.4c1-0.3,0.8,0.1-0.6,1.1
		c-40.8,32.2-88.4,56.4-139.4,67.2c-10.6,2.1-21.2,3.9-32,4.2c1.6,5.2,4.8,9.8,6.5,15c-8.8-5.8-15.4-14.7-22-22.7
		c33.2,0.4,66-7.3,97.1-18.6C181.9,119.8,212.3,104.3,240.5,85.4 M258.7,85.2c44.2,28.7,92.9,51.7,145,61.2
		c14.3,2.4,28.8,4,43.3,3.7c-4.3,6.3-10,11.8-15.2,17.5c-2,2.1-4.2,4-6.8,5.3c1.8-5,4.7-9.6,6.5-14.6c-27.1-1.8-53.7-8.8-79.1-18.5
		c-33.6-12.8-64.7-31.5-93-53.5C259,86.1,258.8,85.7,258.7,85.2 M236.2,85.8c1.3-0.6,2.2,1.3,0.4,0.4c0.1,1.2-1.3,1.7-0.6,0.2
		c-18.5,7.7-37.5,14.2-56.6,20.2c-32.5,9.8-66,17.4-100.1,17.6c-7.2-0.5-14.4-0.8-21.5-2.1c-0.1,2.6,0.1,5.2-0.1,7.8
		c-4.9-2.5-5.3-9.2-4.6-14.2c14.4,3.6,29.4,3.2,44.1,2.9C144.9,115.3,191.3,101.9,236.2,85.8 M262.3,85.6
		c51.5,17.7,105,33.9,160,33.3c8.3-0.2,16.6-1,24.6-3.2c1.2,5.1-0.1,11.5-4.6,14.6c-0.1-2.7,0.1-5.5-0.1-8.2
		c-31.9,5.5-64.3-0.7-95.3-8.2c-25.1-6.4-49.9-14.5-74-23.9c-2.1-0.7-4.1-2-6.4-2.3c13.5,6.7,27.8,12.1,41.9,17.5
		c28.4,10.6,57.6,19.3,87.7,24c17.8,2.6,36.1,4.2,54,1.7c-1.2,6.9-4.5,14.1-10.8,17.6c-0.1-3,0-6.1-0.1-9.1
		c-28.3,1.6-56.4-5.6-83.3-13.7c-31.5-10-61.9-23.4-91.5-38.1c1.4-0.2,0.5-0.6-0.3-0.9C264.1,88,262.1,86.2,262.3,85.6 M225.9,88
		c0.5-0.2,2.4-0.4,1.1,0.2c-34.5,9.9-69.5,18.7-105.2,22.8c-17.2,1.2-35.4,3.7-52-2.6c-0.1,2.8,0.5,5.5,0.4,8.3
		c-4.2-3.4-5.7-9.5-4.6-14.7C119.2,109.9,173.8,101.5,225.9,88 M233.6,88c1.6-0.6-0.4,1-1.1,1.1c-20.3,9.8-40.7,19.2-61.8,27.1
		c-27.9,10.5-56.8,19.3-86.6,22.5c-7.8,0.7-15.7,1.1-23.4,0.3c-0.1,3.1,0,6.3,0,9.4c-6.2-3.6-9.6-10.8-10.7-17.6
		c32.9,4.1,65.9-2.6,97.5-11.2C177,111.4,205.7,100.4,233.6,88 M272.1,87.8c27.9,7.2,56.3,12.8,85.1,15.6
		c25.7,2.6,51.8,3.1,77.3-1.4c1.1,5.2-0.4,11.3-4.6,14.7c-0.2-2.8,0.5-5.5,0.4-8.2c-8.9,3.9-18.9,3.6-28.4,4.2
		c-44-1.1-86.8-12.6-128.9-24.3C272.7,88.2,272.3,87.9,272.1,87.8 M115,161.4c18.6-0.9,39,6.9,48.8,23.4c-8.9,4.5-17.8,9-27,12.8
		c-7.3-9.3-22.5-12.4-31.9-4.6c-5.2,4.2-6.2,12.9-1.4,17.8c6.8,7.4,17.6,8,26.7,10.7c18.6,4.8,36.6,19.5,38.5,39.6
		c2,19-11.9,37-29.3,43.3c-23.3,8.6-52.6,3.1-68.7-16.5c-4.5-6.2-7.9-13.2-8.7-20.9c10.1-1.1,20.2-2.8,30.4-3.5
		c1.6,5.4,4.4,10.9,9.6,13.6c10.5,6.5,26.9,5.8,33.8-5.5c3.4-5.7,2-13.7-3.1-17.9c-7.5-6.7-17.9-7.5-27.1-10.2
		c-18.8-4.8-36.3-20.6-36.8-41C69.2,183,85.8,167,104.1,163C107.7,162.1,111.4,161.9,115,161.4 M243.5,161.4
		c24.9-2.2,50.3,10.7,63.4,32.1c12.8,19.6,14.8,45.6,5.7,67c-8.5,20.4-26.9,36.4-48.6,41.2c3.9-10.1,15.9-12.3,21.8-20.7
		c1.9-3.6,5.5-5.6,8.1-8.7c3.1-4.4,6.2-9.1,8.2-14.2c0.8-2.2,2.4-5.2,0.1-7.1c-3.5-2.2-8.1-0.9-11.8-2.4c-1.5-1.4-0.6-4.1-2.3-5.4
		c-2.3-1.6-5.2-1.8-7.7-3c-4.2-1.5-7.9-5.1-12.8-3.9c-4.3,1.7-7.4,6.4-12.6,5.6c1.4,1.5,4.2,2.3,3,5c-2,4.2-5.7,9-3.4,13.8
		c3.5,3.7,5.2,9.1,9.9,11.6c4,2.3,2.7,7.9,1.2,11.5c-2.6,5.5-6.1,12-3.3,18.1c-23.2,5.1-48.5-3.5-64.2-21.3
		c-14.2-15.4-20.8-37.2-18.1-57.9c3.1-23.9,18.8-46,41-55.7C228,163.8,235.7,162.2,243.5,161.4 M252.5,163.5c-1.6,0.4-4.4,2.5-2.6,4
		c7-0.1,11,6.2,17,8.6c2.9-1.8-0.4-5.2-0.3-7.7C263.4,164.3,257.2,164.4,252.5,163.5 M246.9,164.4c-2.1,0.3-4,1.5-3.2,4.1
		c2.1-0.1,4.5-1.1,5.1-3.3C248.4,164.7,247.7,164,246.9,164.4 M220.7,169.6c-5,2.1-9.5,5.7-13.6,9.3c2.6-0.7,4.9-2.3,7.7-1.7
		c2.1,3.5,0.3,8,1.4,11.9c-2.7-1-1.5,3-2.6,4.4c-2.4,4.5-3.2,10.1-0.6,14.7c2.8,3.6,1.4,8.8,4.9,12c0-2.4-1.5-4.6-1.7-7
		c1.6,0.6,1.3,3.2,2.6,4.3c2.3,3,4.4,6,4.8,9.8c4.7,4.6,11.6,5.8,17.4,8.3c2.7,0.1,3.9,2.6,5.3,4.6c1.7,0.3,3.3,3,5,1.6
		c-1.3-0.6-0.6-0.7,0.5-0.7c-2.4-1.3-3.1-4-3.3-6.5c-0.3-2.6-2.9-4-5.2-4.7c0.2-1.4,0.7-2.7,0.8-4.1c-3.6-1.5-6.2,4.2-9.9,2.1
		c-3.3-2.7-3.6-8.5-0.1-11.3c3.8-2.7,9.3-4,13.3-1.1c1.5,2,4.5,1.3,3.1-1.4c-1-3.6,3.2-5.1,4.5-7.8c-0.6-3.3,0.2-7.7,3.9-8.7
		c0.2-1.7,1.3-4.3,3.3-3.4c2.1,0.8,4.3-3,1.2-3.3c-3.5-2.2,3.8-3.5,1.8-6.1c-2.3-2.2-4.8-4.5-7.9-5.4c-2.8,1.3-4.9-2.1-7.7-1.4
		c-0.3,2.1,2.2,9-1.7,7.8c-2.8-1.5-5.5-3.4-8.2-5.2c-0.1-3,4.9-2.6,5-5.8c1.7-2-2.5-0.5-3.1-1.2c-3.1-0.3-4.6-4.3-7.9-3.7
		c-3.7-1.4-1.7,1.3-1.2,2.6C228.4,172.4,225,168.8,220.7,169.6 M243.7,170.7c0.7,2.2,4.5,0.8,6.2,2.4c1.5,0.6,0.1,2.5-0.2,3.6
		c2.1,0.7,7.5,1.7,6-1.7C252.7,171.8,248.2,169.9,243.7,170.7 M374.5,161.5c18.3-0.8,38.3,7.1,47.9,23.3c-8.9,4.5-17.8,9-27,12.8
		c-4.5-6.1-12.4-9.1-19.8-9c-7.9-0.5-16.6,5.6-16.5,14.1c-0.3,5,3.6,9.2,7.5,11.7c10.4,5.7,22.7,5.7,33.3,10.9
		c8.7,4.9,17.4,10.9,22.3,19.9c4.9,8.4,6.9,18.8,4.2,28.2c-2.4,9.6-8.4,18.2-16.2,24.2c-19.3,14.1-47,13.8-67.3,1.9
		c-11.8-6.8-20.7-19-22.3-32.6c10.1-1.1,20.2-2.8,30.3-3.4c1.8,6.7,6.3,13,13,15.4c10.4,4.4,25.3,2.8,31-8.2
		c3.1-5.7,1.1-13.2-3.8-17.3c-7.8-7.1-19-7.2-28.5-10.5c-18.8-5.2-35.9-22-35.1-42.5c1.5-18.7,17.4-33.6,35.1-37.5
		C366.6,162,370.6,161.9,374.5,161.5 M69.7,316.8c2.8,0.1,5.6,2.5,4.8,5.6c-3.4,1.5-2.5-1.2-4-2.5c-1.4-0.6-3.1,0.9-2.3,2.4
		c1.1,3.1,4.7,4.3,6,7.3c0.8,2.4,0.3,6.5-2.9,6.8c-3.8,1.5-7.3-2.1-6.7-5.8c4.6-2,2,2.9,5.2,3.4c1.1-0.4,2-1.8,1.3-3
		c-1.3-3.5-6.6-4.7-6-9.1C64.2,318.9,66.9,316.7,69.7,316.8 M176.5,316.9c3.3-0.7,6.5,2,5.4,5.4c-3.1,1.2-2.8-0.7-3.5-2.6
		c-2.9-1.3-3.3,2.7-1.8,4c1.9,2.4,5.5,3.9,5.5,7.4c0.3,2.7-1.9,6-5,5.3c-3.4,0.7-5.5-3.1-4.7-6c4.4-2.2,1.6,3.8,5,3.3
		c3.7-2-1-5.7-2.8-7.3C171.1,324,171.6,317.3,176.5,316.9 M200.1,316.9c2.1-0.1,5,0.2,5.7,2.5c0.9,4.6,0.9,9.4,0.1,14
		c-0.9,3.7-6.5,4.3-8.7,1.5c-2.2-3-0.8-7.4-1.2-10.9C195.6,321.2,196.6,317.2,200.1,316.9 M200.5,319.8c-2.6,2.8-0.2,7.6-1,11.1
		c-1.4,2.5,2.8,4.1,3.3,1.6c0.4-3.2,0-6.5,0.1-9.8C203.8,321.1,202.1,319.2,200.5,319.8 M301.5,317c4-1,6.5,3,5.8,6.7
		c-2.1,0.2-4.6,0.6-3.4-2.6c0.3-2.1-3.4-1.8-3.2,0.3c0.2,3.8-1.6,8.7,0.7,12.1c2.9,1.6,2.9-3.2,2.4-4.9c-1.7,0.1-1.5-1.4-1.3-2.7
		c1.2,0,3.5,0,4.7,0c1.2,4.7-0.4,12.9-7.1,10.6c-5-2.2-1.9-9.1-2.7-13.2C296.7,320.4,298.3,316.9,301.5,317 M325.1,316.9
		c3.2-0.7,6.7,1.9,5.9,5.4c-4,2.2-2.2-3.6-5.5-2.5c-3,3.7,3.3,6.1,4.8,8.9c2.1,2.9,0.3,8.7-4,7.8c-3.4,0.6-5.5-3-5.2-6
		c4.6-2,2,2.9,5.2,3.4c2.7-1.1,1.1-4.9-1-5.9C320.9,326.2,319.3,317.7,325.1,316.9 M387,317c2.8-0.6,6.1,1.5,5.7,4.7
		c-0.7,4.1,0.7,8.4-0.5,12.4c-1.7,4.2-9.4,3.1-9.4-1.6C383.1,327.8,379.9,317.6,387,317 M386.9,319.8c-2.6,2.8-0.2,7.6-1,11.1
		c-1.4,2.5,2.8,4.1,3.3,1.6c0.4-3.2,0-6.5,0.1-9.8C390.2,321.1,388.5,319.2,386.9,319.8 M79.2,317.2c3.4,0,6.9-0.1,10.3,0
		c1.5,3.4-1.6,2.3-3.4,2.6c-0.1,5.6,0.1,11.1-0.1,16.7c-0.9-0.6-2.7,0.7-3.3-0.5c-0.2-5.4,0.1-10.8-0.1-16.2
		C80.7,319.8,77.9,320.4,79.2,317.2 M94.7,317.2c1.1-0.1,2.3-0.1,3.4,0c0.1,5,0,10,0,15c-0.2,1.7,2.9,2.3,3.1,0.5
		c0.7-4.4,0.2-8.9,0.3-13.4c-2.4-3.5,5.3-3,3,0c-0.8,5.3,1.7,11.5-1.4,16.2c-2.7,1.8-7.9,1.5-8.5-2.5
		C94.7,327.8,94.7,322.5,94.7,317.2 M110.6,317.2c3.2,0,9.3-1.3,10,3.3c0.2,4.5,0.9,9.3-0.3,13.8c-2.1,3.1-6.5,2.2-9.7,2.3
		C110.6,330.1,110.6,323.6,110.6,317.2 M114.1,319.8c-0.1,4.6,0,9.2,0,13.8c1.3,0.2,3.1,0.2,3.4-1.3c0.1-3.8,0.1-7.7,0-11.5
		C116.5,319.9,115.2,319.5,114.1,319.8 M126.9,317.2c2.7,1.1,10.4-2.7,9,2.5c-1.8,0.1-3.7-0.1-5.5,0.1c-1.4,1.1-0.1,3.5-0.5,5
		c1.6,1.6,6.4-1.3,4.7,3c-1.1,0.1-3.3,0.3-4.4,0.3c-0.7,1.5-0.2,3.5-0.3,5.3c1.9,0.6,7.2-1.6,6,2.5c-2.5,1.4-6.1,0.2-9,0.5
		C126.9,330.1,126.9,323.6,126.9,317.2 M141.5,317.2c1,0,3.1,0,4.2,0.1c1.5,3.5,1.8,7.4,3.5,10.8c0.1-3.6,0-7.2,0.1-10.9
		c0.7,0,2.2,0,3,0c-0.9,6.3,0.9,12.7-0.3,19c-0.4,0.9-2.6,0.5-3.2,0c-1.8-4.2-2.2-8.9-4.1-13.2c-0.2,4.5,0,9-0.1,13.5
		c-0.7,0-2.2,0-3,0C141.5,330.1,141.5,323.6,141.5,317.2 M157.4,317.2c3.1,1.1,10.6-2.8,10.2,2.6c-1.1,0-2.2,0-3.3,0
		c-0.1,5.3,0.1,10.6,0,15.8c-0.2,1.6-2.2,0.8-3.4,0.9c-0.2-5.4,0.2-10.8-0.1-16.2C159.2,319.1,155.9,321,157.4,317.2 M212.4,317.2
		c2.6,0.9,9.9-2.5,8.6,2.5c-1.7,0.5-4.2-0.8-5.5,0.6c-0.1,1.6-0.1,3.3,0,5c1.5,1.5,5.9-1.2,4.2,3.1c-1.1,0-3.2,0.1-4.3,0.1
		c-0.9,2.8,2.3,9.7-3,8.1C212.4,330.1,212.4,323.6,212.4,317.2 M226.6,317.2c2.6,0.9,9.9-2.5,8.6,2.5c-1.7,0.5-4.2-0.8-5.5,0.6
		c-0.1,1.6-0.1,3.3,0,5c1.5,1.5,5.9-1.2,4.2,3.1c-1.1,0-3.2,0.1-4.3,0.1c-0.9,2.8,2.3,9.7-3,8.1
		C226.6,330.1,226.5,323.6,226.6,317.2 M240.8,317.2c2.6,0.9,9.9-2.5,8.6,2.5c-1.7,0.5-4.2-0.8-5.5,0.6c0.4,1.4-1,3.9,0.5,4.9
		c1,0,3.1,0.1,4.2,0.2c1.6,4-2.8,2-4.7,2.5c0,1.8-0.1,3.7,0,5.5c2.1,0.6,7.1-1.7,5.6,2.6c-2,1.1-5.9,0.1-8.6,0.4
		C240.7,330.1,240.7,323.6,240.8,317.2 M255.4,317.2c2.9,0.2,6.3-0.9,8.8,1c1.8,2.6,1.6,6.5-0.5,8.8c2.7,2.4,1,6.4,1.9,9.6
		c-5.1,1.8-3.3-4.3-3.9-7.2c-0.8-0.5-2.3-1.4-2.9-0.4c-0.2,2.5,0,5.1-0.1,7.6c-0.9-0.6-2.7,0.7-3.3-0.5
		C255.3,329.7,255.3,323.5,255.4,317.2 M258.8,319.8c-0.1,2-0.1,4,0,6C263.4,327.5,263.2,318.3,258.8,319.8 M271.3,317.2
		c1.1-0.1,2.3-0.1,3.4,0c0,6.4,0,12.9,0,19.3c-1.1,0.1-2.3,0-3.4,0C271.2,330.1,271.2,323.6,271.3,317.2 M281.2,317.2
		c1.1,0.5,3.3-0.8,4.2,0.5c1.1,3.4,1.8,7,3.1,10.3c0.1-3.6,0-7.3,0.1-10.9c0.7,0,2.2,0,3,0c0,6.4,0,12.9,0,19.3
		c-1.1,0.1-2.2,0.1-3.3-0.1c-1.6-4.2-2.3-8.8-3.9-13c-0.2,4,0.1,8.1-0.1,12.1c-0.1,1.4-1.9,0.9-3,0.9
		C281.1,330.1,281.1,323.6,281.2,317.2 M336.6,317.2c1.1-0.1,2.3-0.1,3.4,0c0.1,5.3-0.1,10.5,0.1,15.8c0.9,1.2,2.9,1.1,3.3-0.5
		c0.3-5.1,0-10.2,0.1-15.3c0.7,0,2.2,0,3,0c0,5.3,0.1,10.6,0,15.8c-0.5,4.8-8.7,4.8-9.6,0.2C336.3,327.9,336.6,322.5,336.6,317.2
		 M352.5,317.2c3,0.3,7.7-1.2,9.4,2.2c1.8,4.3,0.2,11-5.6,9.9c-1.1,1.6-0.1,5-0.5,7.3c-0.9-0.6-2.7,0.7-3.3-0.5
		C352.4,329.7,352.4,323.5,352.5,317.2 M355.9,319.8c0.5,2.2-1.9,8.6,2.7,6.2C359.4,323.8,359.7,318.7,355.9,319.8 M367.9,317.2
		c3,0.1,7.6-1.2,9.2,2.4c0,2.6,1.3,6-0.7,8.2c-1.3,1.7-3.6,1.1-5.5,1.5c-0.7,2.7,2.1,9-3,7.2C367.9,330.1,367.9,323.6,367.9,317.2
		 M371.4,319.8c-1.1,2.2-1.9,8.2,2.4,6.4C374.9,324,375,319.1,371.4,319.8 M398.9,317.2c2.8,0.4,6.7-1.1,8.9,1.4
		c0.7,2.4,1.7,6.7-1.1,8.2c2.9,2.3,1,6.5,2,9.7c-6.7,2.1-0.4-8-6-8.2c-3.1,1.6,2.2,10.1-3.9,8.1
		C398.8,330.1,398.8,323.6,398.9,317.2 M402.4,319.8c-1.2,1.9-1.7,8.1,2.2,5.7C406.1,323.6,405.6,319,402.4,319.8 M413.4,317.2
		c3.4,0,6.9-0.1,10.3,0c1.5,3.4-1.6,2.3-3.4,2.6c-0.1,5.6,0.1,11.1-0.1,16.7c-0.9-0.6-2.7,0.7-3.3-0.5c-0.2-5.4,0.1-10.8-0.1-16.2
		C414.9,319.8,412.1,320.4,413.4,317.2L413.4,317.2z"/>
	<path fill="#FDCD37" d="M290.8,343.6c6.6-0.7,13.7,0.5,19.1,4.6c4.3,3.7,5.7,9.8,5.2,15.3c-4.4,0.7-9.2,0.7-13.6,0
		c-0.1-2.8-0.2-5.7-1.8-8c-3.8-2.6-11-2.7-12.5,2.5c-2.1,6.7,3.5,12.2,8.4,15.8c6.8,4.9,14.9,9.6,18.5,17.6c2.8,7.5,1.4,17.5-5.8,22
		c-7.4,4.1-16.7,4.5-24.7,2.1c-9.1-2.2-13.5-12.1-11.7-20.9c4.6,0,9.1-0.1,13.7,0c0,3.5-0.5,7.3,1.8,10.3c3.5,2.1,8.5,2.5,11.7-0.3
		c3.1-3.6,1.8-9.1-1.1-12.5c-6.6-7.6-16.9-11.3-22.6-19.9c-3.9-5.5-4.1-13.3-1.3-19.3C276.8,346.4,284.2,344,290.8,343.6
		 M341.9,343.6c6.9-0.7,14.4,0.5,19.9,5c4,3.8,5.4,9.6,5.2,15c0,11.5,0,22.9,0,34.4c0,5.9-2.2,12.5-7.7,15.4c-7,4-15.8,4.2-23.5,2.4
		c-6.9-1.4-12.8-7.4-13.2-14.6c-0.5-12.8-0.1-25.7-0.2-38.5c-0.2-6.1,2.1-12.9,7.8-15.9C333.7,344.7,337.8,343.9,341.9,343.6
		 M342.7,353.9c-3,0.1-5.4,2.9-5.7,5.9c-0.2,12.9-0.1,25.7-0.1,38.6c-0.1,3.1,1,7.3,4.7,7.7c4.6,2,11.3-1.1,10.5-6.7
		c0.3-13.1,0.5-26.2-0.1-39.3C352.7,355.1,346.8,352.8,342.7,353.9 M66.8,344.3c12,0.7,24.6-2,36.1,2.6c8.6,3.9,8.3,14.7,7.6,22.5
		c-0.3,5.5-4.4,9.7-9.3,11.7c3.9,1.4,7.4,4.2,8.7,8.3c2.2,8.7-0.8,18,2.1,26.6c-4.7-0.3-9.8,0.7-14.4-0.3c-4.2-7.8,0.9-17.8-3-25.8
		c-3.2-3.9-8.8-3.1-13.2-3c-0.1,9.7,0.1,19.4-0.1,29.1c-4.8,0-9.7,0.1-14.5,0C66.8,392.1,66.7,368.2,66.8,344.3 M81.4,354.6
		c-0.1,7.3,0,14.6,0,21.9c3.6-0.2,7.4,0.6,10.8-0.7c5.7-3.1,3.6-10.8,3.4-16C94.7,353,86.1,354.7,81.4,354.6 M114.4,344.3
		c5,0,10-0.1,14.9,0c4.1,10.6,7.1,21.6,11.3,32.1c4.5-10.1,7-21.7,11.3-32.1c4.5-0.1,9.1-0.1,13.6,0c-4.8,14.3-10.8,28.2-16.1,42.3
		c-4.5,9.1-1.2,19.7-2.5,29.3c-4.7-0.2-9.7,0.7-14.2-0.2c-0.7-7.7,0-15.9-0.3-23.8C126.6,376,119.9,360.3,114.4,344.3 M171.6,344.3
		c13.3,0,26.6-0.1,39.9,0c0,3.4,0.1,6.8,0,10.3c-8.4,0.1-16.9-0.1-25.3,0.1c0,6.6-0.1,13.1,0,19.7c6.6,0.1,13.1-0.1,19.6,0.1
		c1.2,3,0.3,6.9,0.5,10.2c-6.6,0.3-13.5-0.5-19.9,0.3c-0.6,6.7-0.2,13.9-0.3,20.7c8.4,0.1,16.9-0.1,25.3,0.1c0,3.4,0.1,6.8,0,10.2
		c-13.3,0-26.6,0.1-39.9,0C171.6,392.1,171.6,368.2,171.6,344.3 M220.6,344.3c11.4,0.5,23.1-1.6,34.2,1.8c4.9,1.6,8.7,5.8,9.2,11
		c1.6,8.5,1,20.7-8.9,23.7c2.6,1.6,6.5,3.2,7.8,6.6c3.6,9.1-0.3,19.3,2.9,28.5c-4.8,0-9.7,0.2-14.5-0.1c-3.2-7.5,0-16.2-1.9-23.9
		c-1.7-6.1-9.2-5.4-14.1-5.2c-0.1,9.7,0.1,19.5-0.1,29.2c-4.9,0-9.7,0.1-14.5,0C220.6,392.1,220.5,368.2,220.6,344.3 M235.2,354.6
		c-0.1,7.3,0,14.6,0,21.9c4.3-0.2,10,1.2,13.2-2.7c2.3-4.5,1.6-10,0.9-14.8C247.5,353,239.7,354.8,235.2,354.6 M376.1,344.3
		c6.1,0,12.2-0.2,18.3,0.1c5.2,14.1,9.7,28.5,15,42.6c0.3-14-0.1-28.1,0.2-42.1c3.8-1.2,8.6-0.4,12.8-0.5c0,23.9,0,47.8,0,71.7
		c-4.8,0-9.7,0.1-14.5,0c-6.7-16.8-11.6-34.4-18.4-51.2c-0.2,17.1,0,34.2-0.1,51.2c-4.3-0.3-9.3,0.8-13.2-0.5
		C376,391.7,376.1,368,376.1,344.3L376.1,344.3z"/>
</g>
</svg>
