<?xml version="1.0" encoding="utf-8"?>
<!-- Generator: Adobe Illustrator 22.0.1, SVG Export Plug-In . SVG Version: 6.00 Build 0)  -->
<svg version="1.1" id="Layer_1" xmlns="http://www.w3.org/2000/svg" xmlns:xlink="http://www.w3.org/1999/xlink" x="0px" y="0px"
	 viewBox="0 0 500 500" enable-background="new 0 0 500 500" xml:space="preserve">
<g>
	<path d="M0,93.4c16.9,0,33.8,0,50.6,0c11.2,0.7,22.1,5.4,30.5,12.9c2,1.9,4.1,3.7,5.6,6.1c40.7,70.3,81.2,140.8,121.9,211.2
		c-16.6-0.1-33.2,0.1-49.8-0.1c-12.2-1-23.8-6.9-32.4-15.5c-6.9-6.6-11.2-15.2-15.9-23.4C73.6,220.9,36.8,157.1,0,93.4 M139.3,93.4
		c15.4,0,30.9,0,46.3,0c17.8-0.7,35.3,9.4,44.5,24.6c35.4,61.3,70.8,122.6,106.2,183.9c4.1,5.9,9.6,11.4,16.8,13.4
		c5.8,1.8,12.2,1.6,17.8-0.8c3.2-1.2,5.8-3.4,8.6-5.3c-9,8.3-20.8,14-33.1,14.4c-15.9,0-31.7,0-47.6,0c-12.2-0.9-23.9-6.7-32.5-15.3
		c-7.7-7.4-12.2-17.2-17.6-26.2c-2.1-3.9-4.6-7.4-6.7-11.2c-26.3-45.7-52.7-91.3-79.1-137C155.1,120.3,147.4,106.7,139.3,93.4
		 M234.7,93.8c0.8-0.3,1.6-0.5,2.4-0.5c85.8,0,171.5,0,257.3,0c2.8-0.3,5.4,2.1,5.6,4.8c0.3,4.3-2.2,8.1-4,11.8
		c-4.9,9.9-11,19-16.4,28.6c-30.4,52.6-60.7,105.2-91.1,157.8c-3.7,6-8.2,12-15,14.6c-5.7,2.3-12.5,3-18.2,0.2
		c-4.3-2-7.6-5.7-10-9.8c-37-64.2-74.1-128.4-111.1-192.5c-1.5-2.8-3.9-5.5-3.7-8.9C230.2,97.2,232.1,94.7,234.7,93.8 M277.6,179
		c3.9,6.8,7.8,13.6,11.8,20.3c3.2,0,6.4,0,9.6,0c1.8,0.1,3.7-0.9,4.6-2.6c2.7-4.6,5.3-9.3,8-13.9c0.6-1,1-2.1,1.4-3.2
		c-2.2-1-4.6-0.6-7-0.7C296.5,179,287,179,277.6,179 M318.4,179.3c-1.7,0.4-2.8,1.9-3.6,3.4c-2.8,5-5.8,9.8-8.5,14.8
		c-0.6,1,0.5,1.8,1.5,1.7c7.8,0.1,15.5,0,23.3,0c2.1,0.1,4.1-1.1,5-2.9c2.9-5.2,6.1-10.2,8.8-15.5c0.8-1.1-0.7-1.9-1.6-1.9
		c-6.9-0.1-13.7,0-20.6,0C321.2,179.1,319.8,178.9,318.4,179.3 M347.9,181.2c-3.1,5.1-6,10.3-9,15.5c-0.5,0.8-1.1,2.4,0.4,2.6
		c6,0.2,12.1,0.1,18.1,0.1c2.3,0,4-1.8,4.9-3.7c2.8-5.3,6.3-10.3,8.8-15.8c-4.2-1.5-8.8-0.4-13.1-0.7
		C354.7,179.3,350.2,178,347.9,181.2 M375.7,179.5c-1.3,0.5-2.2,1.7-2.8,2.9c-2.7,4.6-5.3,9.2-8,13.9c-0.6,1-1.5,2.6,0.2,3
		c5.8,0.3,11.6,0,17.4,0.1c2.3,0.2,4.4-1.2,5.3-3.3c2.8-5.1,5.9-10.1,8.7-15.2c0.7-1-0.9-1.9-1.7-1.8c-4.7-0.1-9.5,0-14.2,0
		C379,179.1,377.3,178.9,375.7,179.5 M401.4,179.6c-1.6,0.7-2.4,2.3-3.2,3.7c-2.6,4.7-5.5,9.3-8,14c-1.1,1.3,0.7,2.2,1.9,2
		c5.6,0,11.2,0,16.8,0c1.9,0,3.6-1.1,4.5-2.8c2.9-5.1,5.9-10.1,8.7-15.1c0.7-0.8,0.3-2.1-0.8-2.3c-4.8-0.2-9.6,0-14.3-0.1
		C405.1,179.1,403.2,178.8,401.4,179.6 M290.7,201.8c1.7,2.8,3.3,5.7,5,8.6c1.4-2.6,3-5,4.3-7.6c-0.3-0.2-1-0.6-1.3-0.9
		C296,201.6,293.4,201.9,290.7,201.8 M302.3,204.3c-1.7,2.9-3.3,5.8-5,8.7c1.2,2.1,2.4,4.2,3.6,6.3c4.1,0,8.1,0,12.2,0
		c1.9,0.1,3.9-0.8,4.8-2.6c2.4-4.2,4.9-8.4,7.3-12.7c0.6-0.7,0.6-2.1-0.6-2.2c-6-0.2-12,0-18-0.1
		C304.7,201.6,303.1,202.8,302.3,204.3 M326,207.7c-1.9,3.7-4.5,7.1-6,11c1,0.4,2.1,0.8,3.3,0.7c5.4-0.1,10.7,0.1,16.1-0.1
		c2.6,0,4.1-2.2,5.1-4.2c2.3-4.1,4.8-8.1,7-12.3c-0.7-0.5-1.5-1.1-2.4-0.9c-5.8,0-11.6-0.1-17.4,0.1
		C328.6,202,327.5,205.4,326,207.7 M352.8,206.1c-2.3,4.1-4.9,8.1-7,12.4c1,0.5,2.1,1,3.2,0.8c15.9,0,31.8,0,47.7,0
		c2.1,0.1,4.2-0.9,5.2-2.8c2.6-4.6,5.3-9.1,7.9-13.8c-0.8-0.5-1.7-1.1-2.7-1c-16.3,0-32.7,0-49,0C355.4,201.7,353.8,204,352.8,206.1
		 M303.7,224c2.2,4.1,4.7,8.1,6.9,12.2c0.8,1.2,1.4,2.9,3,2.9c2.3,0.4,4.7-0.6,5.8-2.7c2.4-4.2,4.9-8.4,7.3-12.7
		c0.7-1-0.3-2.1-1.4-2c-5.8-0.1-11.6,0-17.5,0C306.1,221.6,304.6,222.7,303.7,224 M328.6,225.6c-2.3,4.4-5.2,8.4-7.1,13
		c1,0.3,2,0.6,3.1,0.6c5.4,0,10.8,0,16.1,0c1.7,0.1,3.3-0.8,4.2-2.3c2.2-3.8,4.4-7.6,6.6-11.4c0.6-1,1.1-2.1,1.3-3.4
		c-1.2-0.3-2.5-0.4-3.7-0.4c-5.2,0-10.4,0-15.5,0C331.2,221.6,329.5,223.6,328.6,225.6 M355.4,224c-2.3,3.9-4.6,7.9-6.9,11.8
		c-0.4,0.8-1,1.6-1,2.5c0.9,0.9,2.3,0.8,3.5,0.8c11.6,0,23.2,0,34.8,0c2.2,0,4.1-1.5,5-3.5c2.4-4.4,5.1-8.6,7.4-13.1
		c-0.7-0.4-1.3-1.1-2.1-1c-12.1,0-24.1,0-36.2,0C358.1,221.5,356.2,222.4,355.4,224 M313.9,241.5c1.2,2.7,2.8,5.2,4.4,7.7
		c1.4-1.7,2.5-3.6,3.5-5.5c0.4-0.6,0.4-1.3,0-1.9C319.2,241.2,316.5,241.6,313.9,241.5 M323.5,245.7c-1.1,2.1-2.6,4.1-3.5,6.3
		c0.7,2.6,2.5,4.8,3.8,7.1c3.9,0,7.8,0.1,11.6,0c1.9,0,3.7-0.9,4.6-2.6c2.5-4.4,5.2-8.7,7.5-13.2c0.6-1.1-0.6-2-1.7-1.8
		c-5.9,0-11.7-0.1-17.6,0.1C326,241.6,324.5,243.7,323.5,245.7 M352.6,242c-1.1,0.5-1.9,1.5-2.5,2.5c-2.2,3.8-4.4,7.6-6.6,11.4
		c-0.4,0.8-1.2,1.7-0.6,2.7c0.9,0.6,1.9,0.5,2.9,0.5c9.2,0,18.5,0,27.7,0c2,0.1,4.3-0.7,5.2-2.6c2.2-3.8,4.4-7.7,6.6-11.5
		c0.5-1,1.5-2.1,0.7-3.2c-0.9-0.3-1.9-0.3-2.9-0.3c-9,0-18,0-27,0C354.9,241.5,353.7,241.5,352.6,242 M326.7,263.9
		c2.6,4.8,5.4,9.6,8.3,14.3c2.1,2,5.7,0.2,6.7-2.2c2.6-4.5,5.3-9,7.8-13.6c-0.6-0.6-1.3-1.1-2.2-1c-6.1,0-12.1-0.1-18.2,0.1
		C327.8,261.4,325.9,262.4,326.7,263.9 M351.6,264c-2.7,4.7-5.5,9.3-8,14.1c0.7,0.4,1.3,1,2.2,0.9c5.6,0,11.2,0,16.8,0
		c1.9,0.1,3.7-0.9,4.6-2.6c2.5-4.2,4.9-8.4,7.3-12.7c0.8-0.8,0.3-2.3-1-2.3c-5.6-0.1-11.2,0-16.8-0.1
		C354.7,261.3,352.6,262.1,351.6,264 M342.1,281.6c-1.8,0.4-4.1,2.4-2.7,4.4c1.4,2.2,2.3,4.9,4.3,6.6c3.7,0.6,7.4,0.2,11.2,0.3
		c2.3,0.1,4.2-1.7,5.1-3.7c1.1-2.4,3.2-4.5,3.5-7.2c-1.6-1-3.6-0.4-5.4-0.6C352.7,281.5,347.4,281.1,342.1,281.6 M187.6,361.9
		c1.2,0,2.3,0,3.5-0.1c-3.5,6-5.8,12.9-5.6,20c0.1,6.8,2.3,13.3,5.6,19.1c-1.2,0-2.3,0-3.5,0c-3.6-5.8-6.3-12.3-6.4-19.1
		C181.1,374.6,183.8,367.8,187.6,361.9 M418,361.8c1.2,0,2.4,0.1,3.5,0.1c3.6,5.8,6.3,12.3,6.3,19.2c0.1,7.1-2.6,13.8-6.3,19.8
		c-1.2,0-2.4,0-3.5,0c3.8-6.5,6.1-14.1,5.6-21.7C423.3,373,421.1,367.1,418,361.8 M132.8,364c1.3,0,2.7,0,4,0c0,1.7,0,3.4,0,5
		c-1.3,0-2.7,0-4,0C132.8,367.4,132.8,365.7,132.8,364 M335.5,363.9c1.3,0,2.7,0,4,0c-0.1,4.2,0.1,8.5-0.1,12.7
		c2.2-4,7.9-5.4,11.7-2.7c2.3,1.9,2.8,5,2.8,7.8c0,5.2,0,10.3,0,15.5c-1.3,0-2.7,0-4,0c0-5.4,0.1-10.8-0.1-16.2c0-2.3-1.4-4.9-4-5
		c-3.3-0.6-6.1,2.4-6.2,5.6c-0.3,5.2-0.1,10.4-0.1,15.6c-1.3,0-2.7,0-4,0C335.5,386.2,335.5,375,335.5,363.9 M79.9,364
		c1.3,0,2.7,0,4,0c0,1.7,0,3.4,0,5c-1.3,0-2.6,0-4,0C79.9,367.4,79.9,365.7,79.9,364 M155.5,366.4c1.3,0,2.6,0,4,0
		c0,2.3,0,4.5,0,6.8c3,0,6,0,9,0c0,1,0,2,0,3c-3,0-6,0-9,0c0,4.4,0,8.9,0,13.3c0,1.6,0.3,3.6,2,4.2c2.2,0.7,4.6,0.3,6.9,0.4
		c0,1,0,2.1,0,3.1c-3.2-0.1-6.6,0.4-9.7-0.8c-2.4-1-3.2-3.9-3.2-6.3c-0.1-4.6,0-9.3,0-13.9c-2.1,0-4.3,0-6.4,0c0-1,0-2,0-3
		c2.1,0,4.3,0,6.4,0C155.5,371,155.5,368.7,155.5,366.4 M208.4,366.4c1.3,0,2.6,0,4,0c0,2.3,0,4.5,0,6.8c3,0,6,0,9,0c0,1,0,2,0,3
		c-3,0-6,0-9,0c0,4.4,0,8.8,0,13.2c0,1.5,0.3,3.5,1.9,4.2c2.3,0.8,4.7,0.3,7.1,0.4c0,1,0,2.1,0,3.1c-3.3-0.2-6.7,0.5-9.8-0.9
		c-2.4-1.1-3.1-3.9-3.1-6.3c-0.1-4.6,0-9.2,0-13.8c-2.1,0-4.3,0-6.4,0c0-1,0-2,0-3c2.1,0,4.3,0,6.4,0
		C208.4,371,208.4,368.7,208.4,366.4 M314.1,366.4c1.3,0,2.7,0,4,0c0,2.3,0,4.5,0,6.8c3,0,6,0,8.9,0c0,1,0,2,0,3.1c-3,0-6,0-9,0
		c0,4.4,0,8.8,0,13.2c0.1,1.5,0.2,3.5,1.8,4.2c2.3,0.9,4.8,0.4,7.2,0.5c0,1,0,2.1,0,3.1c-3.3-0.1-6.8,0.5-9.9-0.9
		c-2.3-1.1-3-3.9-3-6.2c-0.1-4.6,0-9.3,0-13.9c-2.1,0-4.3,0-6.4,0c0-1,0-2,0-3.1c2.1,0,4.3,0,6.4,0
		C314.1,371,314.1,368.7,314.1,366.4 M101.4,376.7c2.2-3.9,7.5-5.3,11.3-3c2.4,1.6,3.1,4.8,3.2,7.5c0.1,5.4,0,10.7,0,16.1
		c-1.3,0-2.7,0-4,0c0-5.2,0-10.4,0-15.5c-0.1-1.9-0.5-4.1-2.2-5.1c-2.2-1.1-5.3-0.6-6.7,1.5c-1.4,2-1.5,4.5-1.5,6.8
		c0,4.1,0,8.2,0,12.3c-1.3,0-2.7,0-4,0c0-8,0-16,0-24.1c1.3,0,2.7,0,4,0C101.5,374.4,101.5,375.6,101.4,376.7 M234.8,373.3
		c3.5-1.1,7.7-0.9,10.6,1.5c2.6,2.2,3.5,5.6,3.7,8.9c0.1,3.4-0.1,7-1.9,10c-2.9,4.9-10.3,5.5-14.6,2.3c-3.8-3.1-4.2-8.4-3.9-13
		C228.9,379,230.8,374.7,234.8,373.3 M236.8,376.4c-2.7,1-3.7,4-3.9,6.6c-0.2,3.1-0.3,6.5,1.5,9.2c1.9,3,6.9,3.1,8.9,0.2
		c1.5-2.2,1.7-4.9,1.7-7.4c-0.1-2.5-0.3-5.1-1.9-7.1C241.6,376,238.9,375.6,236.8,376.4 M258.7,374.4c3.5-2.9,9.5-2.2,11.8,1.9
		c-0.1-1-0.1-2-0.1-2.9c1.3,0,2.7,0,4,0c0,7.6,0,15.1,0,22.7c0,3.4-1,7.3-4.1,9.2c-3.9,2.3-8.7,1.5-12.9,0.4c0-1.3,0-2.6,0-3.9
		c3.3,1.4,7.5,3,10.9,0.8c2.7-2.1,2-5.9,2.3-8.9c-2.2,4.5-8.8,5-12.2,1.7c-3-2.8-3.7-7.1-3.6-11
		C254.7,380.7,255.8,376.8,258.7,374.4 M262.6,376.4c-2.6,1.1-3.4,4.1-3.7,6.6c-0.2,3-0.2,6.3,1.6,9c1.7,2.6,6,3,8,0.5
		c1.8-2.3,1.9-5.4,1.9-8.2c-0.1-2.3-0.4-4.9-2-6.7C267,375.9,264.5,375.7,262.6,376.4 M283.6,376.8c3.6-5.1,12.5-5.8,16.4-0.6
		c2.1,2.5,2.6,5.9,2.6,9c-5.7,0-11.5,0-17.2,0c0.1,3,0.4,6.6,3.3,8.2c4.1,2.2,9,0.6,12.8-1.3c0,1.3,0,2.6,0,4c-4.2,1.6-9,2.6-13.3,1
		c-3.6-1.3-6.1-4.8-6.7-8.5C280.7,384.5,281.1,380.1,283.6,376.8 M287.4,378c-1.1,1.1-1.6,2.6-2.1,4c4.4,0.1,8.9,0.1,13.3,0
		c-0.6-2-1.3-4.2-3.2-5.3C292.9,375.4,289.4,375.9,287.4,378 M361.6,378.9c2.4-5.9,10.3-8.1,15.6-4.8c3.5,2.4,4.8,6.9,4.6,11
		c-5.7,0-11.5,0-17.2,0c0,3.1,0.5,6.8,3.6,8.4c4.1,2,8.8,0.4,12.5-1.5c0,1.3,0,2.7,0,4c-4.9,1.9-11,3-15.6-0.2
		C359.9,392.2,359.4,384.5,361.6,378.9 M368.4,376.7c-2.1,1-3.1,3.2-3.8,5.4c4.4,0.1,8.9,0.1,13.3,0c-0.5-1.5-0.8-3-1.9-4.2
		C374.3,375.7,370.9,375.6,368.4,376.7 M392,373.2c1.3,0,2.7,0,4,0c0,1.5-0.1,3-0.1,4.5c0.9-1.6,1.9-3.2,3.6-4.1
		c2.9-1.6,6.6-1.2,9.5,0.3c0,1.3,0,2.7,0,4c-2.7-1.8-6.3-2.4-9.3-0.9c-2.6,1.4-3.6,4.4-3.7,7.2c-0.1,4.3,0,8.7,0,13
		c-1.3,0-2.7,0-4,0C392,389.3,392,381.2,392,373.2 M73.7,373.3c3.4,0,6.8,0,10.1,0c0,7,0,14,0,20.9c2.6,0,5.2,0,7.8,0c0,1,0,2,0,3
		c-6.5,0-13.1,0-19.6,0c0-1,0-2,0-3c2.6,0,5.2,0,7.8,0c0-6,0-11.9,0-17.9c-2.1,0-4.1,0-6.2,0C73.7,375.4,73.7,374.3,73.7,373.3
		 M126.6,373.3c3.4,0,6.8,0,10.1,0c0,7,0,13.9,0,20.9c2.6,0,5.2,0,7.8,0c0,1,0,2,0,3c-6.5,0-13.1,0-19.6,0c0-1,0-2,0-3
		c2.6,0,5.2,0,7.8,0c0-6,0-11.9,0-17.9c-2.1,0-4.1,0-6.1,0C126.6,375.4,126.6,374.3,126.6,373.3L126.6,373.3z"/>
</g>
</svg>
