<?xml version="1.0" encoding="utf-8"?>
<!-- Generator: Adobe Illustrator 22.0.1, SVG Export Plug-In . SVG Version: 6.00 Build 0)  -->
<svg version="1.1" id="Layer_1" xmlns="http://www.w3.org/2000/svg" xmlns:xlink="http://www.w3.org/1999/xlink" x="0px" y="0px"
	 viewBox="0 0 500 500" enable-background="new 0 0 500 500" xml:space="preserve">
<g>
	<g>
		<defs>
			<rect id="SVGID_5_" y="91.3" width="500" height="317.3"/>
		</defs>
		<clipPath id="SVGID_2_">
			<use xlink:href="#SVGID_5_"  overflow="visible"/>
		</clipPath>
		<path clip-path="url(#SVGID_2_)" fill="#1E3D72" d="M1.2,292.9c-0.6,0-1.2-0.5-1.2-1.2v-83.5c0-0.6,0.5-1.2,1.2-1.2
			c0.6,0,1.2,0.5,1.2,1.2v83.5C2.3,292.4,1.8,292.9,1.2,292.9L1.2,292.9z"/>
		<path clip-path="url(#SVGID_2_)" fill="#1E3D72" d="M120.7,408.7h-3.8c-0.6,0-1.2-0.5-1.2-1.2c0-0.6,0.5-1.2,1.2-1.2h3.8
			c0.6,0,1.2,0.5,1.2,1.2C121.9,408.2,121.3,408.7,120.7,408.7L120.7,408.7z"/>
		<path clip-path="url(#SVGID_2_)" fill="#1E3D72" d="M120.7,93.7h-3.8c-0.6,0-1.2-0.5-1.2-1.2c0-0.6,0.5-1.2,1.2-1.2h3.8
			c0.6,0,1.2,0.5,1.2,1.2C121.9,93.1,121.3,93.7,120.7,93.7L120.7,93.7z"/>
		<path clip-path="url(#SVGID_2_)" fill="#1E3D72" d="M45.4,383.8c-0.3,0-0.5-0.1-0.7-0.3c-22.1-17.4-37.2-42.1-42.6-69.4
			c-1.1-5.7-1.8-11.6-2.1-17.5C0,295,0,293.4,0,291.8v-83.5c0-9.5,1.2-19,3.5-28.2c0.2-0.6,0.8-1,1.4-0.8c0.6,0.2,1,0.8,0.8,1.4
			c-2.2,9-3.4,18.3-3.4,27.6v83.5c0,1.6,0,3.2,0.1,4.8c0.2,5.7,0.9,11.5,2,17.1c5.2,26.8,20.1,51,41.7,68.1c0.5,0.4,0.6,1.1,0.2,1.6
			C46.1,383.7,45.8,383.8,45.4,383.8L45.4,383.8z"/>
		<path clip-path="url(#SVGID_2_)" fill="#1E3D72" d="M120.7,408.7h-3.8c-4.5,0-9-0.3-13.4-0.8c-0.6-0.1-1.1-0.6-1-1.3
			c0.1-0.6,0.6-1.1,1.3-1c4.3,0.5,8.7,0.7,13.1,0.7h3.8c11.1,0,22-1.6,32.6-4.7c0.6-0.2,1.3,0.2,1.4,0.8c0.2,0.6-0.2,1.3-0.8,1.4
			C143.2,407,132,408.7,120.7,408.7L120.7,408.7z"/>
	</g>
	<path fill="#1E3D72" d="M159,402.1c-0.5,0-0.9-0.3-1.1-0.8c-0.2-0.6,0.1-1.3,0.7-1.5c13.4-4.7,25.7-11.9,36.6-21.2
		c0.5-0.4,1.2-0.4,1.6,0.1c0.4,0.5,0.4,1.2-0.1,1.6c-11.1,9.5-23.7,16.8-37.3,21.7C159.3,402.1,159.1,402.1,159,402.1L159,402.1z"/>
	<path fill="#1E3D72" d="M203.6,373.5c-0.3,0-0.6-0.1-0.8-0.3c-0.5-0.4-0.5-1.2,0-1.6c9.4-9.7,17-20.7,22.5-32.9
		c0.3-0.6,1-0.8,1.5-0.6c0.6,0.3,0.8,1,0.6,1.5c-5.6,12.5-13.3,23.8-22.9,33.6C204.2,373.4,203.9,373.5,203.6,373.5L203.6,373.5z"/>
	<path fill="#1E3D72" d="M236.4,209.4c-0.6,0-1.2-0.5-1.2-1.2c0-9-1.1-17.9-3.1-26.6c-0.1-0.6,0.2-1.3,0.9-1.4
		c0.6-0.1,1.3,0.2,1.4,0.9c2.1,8.8,3.2,18,3.2,27.1C237.6,208.9,237.1,209.4,236.4,209.4L236.4,209.4z"/>
	<path fill="#1E3D72" d="M230.3,172.2c-0.5,0-0.9-0.3-1.1-0.8c-3.9-11.5-9.7-22.2-17-32c-0.4-0.5-0.3-1.2,0.2-1.6
		c0.5-0.4,1.2-0.3,1.6,0.2c7.5,9.9,13.4,20.9,17.4,32.6c0.2,0.6-0.1,1.3-0.7,1.5C230.5,172.2,230.4,172.2,230.3,172.2L230.3,172.2z"
		/>
	<g>
		<defs>
			<rect id="SVGID_7_" y="91.3" width="500" height="317.3"/>
		</defs>
		<clipPath id="SVGID_4_">
			<use xlink:href="#SVGID_7_"  overflow="visible"/>
		</clipPath>
		<path clip-path="url(#SVGID_4_)" fill="#1E3D72" d="M173.1,106.3c-0.2,0-0.4,0-0.5-0.1c-9.5-4.9-19.7-8.4-30.2-10.4
			c-0.6-0.1-1-0.7-0.9-1.4c0.1-0.6,0.7-1,1.4-0.9c10.7,2.1,21.1,5.6,30.8,10.6c0.6,0.3,0.8,1,0.5,1.6
			C173.9,106,173.5,106.3,173.1,106.3L173.1,106.3z"/>
		<path clip-path="url(#SVGID_4_)" fill="#1E3D72" d="M85.9,97.9c-0.5,0-1-0.3-1.1-0.8c-0.2-0.6,0.2-1.3,0.8-1.4
			c10.2-2.8,20.7-4.3,31.3-4.3h3.8c5.2,0,10.5,0.4,15.7,1.1c0.6,0.1,1.1,0.7,1,1.3c-0.1,0.6-0.7,1.1-1.3,1c-5.1-0.7-10.2-1-15.4-1
			h-3.8c-10.4,0-20.8,1.4-30.7,4.2C86.1,97.9,86,97.9,85.9,97.9L85.9,97.9z"/>
	</g>
	<path fill="#1E3D72" d="M9,167.6c-0.1,0-0.3,0-0.4-0.1c-0.6-0.2-0.9-0.9-0.7-1.5c3.5-9,8.2-17.6,13.8-25.5c0.4-0.5,1.1-0.6,1.6-0.3
		c0.5,0.4,0.6,1.1,0.3,1.6c-5.5,7.8-10.1,16.2-13.6,25C9.9,167.3,9.5,167.6,9,167.6L9,167.6z"/>
	<path fill="#1E3D72" d="M21.1,329.5c-0.5,0-0.9-0.3-1.1-0.7c-3.6-9.3-5.8-19.1-6.6-29.1c-0.1-0.6,0.4-1.2,1.1-1.3
		c0.6-0.1,1.2,0.4,1.3,1.1c0.8,9.8,3,19.3,6.5,28.5c0.2,0.6-0.1,1.3-0.7,1.5C21.4,329.5,21.3,329.5,21.1,329.5L21.1,329.5z"/>
	<path fill="#1E3D72" d="M80,389.2c-0.1,0-0.3,0-0.4-0.1C61.9,382,46.4,370.2,34.8,355c-0.4-0.5-0.3-1.2,0.2-1.6
		c0.5-0.4,1.2-0.3,1.6,0.2C48,368.5,63.1,380,80.4,386.9c0.6,0.2,0.9,0.9,0.6,1.5C80.8,388.9,80.4,389.2,80,389.2L80,389.2z"/>
	<path fill="#1E3D72" d="M118.7,396.6L118.7,396.6c-11.7,0-23.1-1.9-34-5.6c-0.6-0.2-0.9-0.9-0.7-1.5c0.2-0.6,0.9-0.9,1.5-0.7
		c10.7,3.7,21.9,5.5,33.2,5.5h0.1c3.7,0,7.3-0.2,10.9-0.6c0.6-0.1,1.2,0.4,1.3,1c0.1,0.6-0.4,1.2-1,1.3
		C126.2,396.4,122.5,396.6,118.7,396.6L118.7,396.6z"/>
	<path fill="#1E3D72" d="M146.6,392.8c-0.5,0-1-0.3-1.1-0.8c-0.2-0.6,0.2-1.3,0.8-1.4c10-2.8,19.5-7.1,28.3-12.8
		c8.6-5.6,16.4-12.4,23-20.3c0.4-0.5,1.1-0.6,1.6-0.1c0.5,0.4,0.6,1.1,0.1,1.6c-6.8,8-14.7,15-23.5,20.7c-9,5.8-18.7,10.2-28.9,13
		C146.8,392.8,146.7,392.8,146.6,392.8L146.6,392.8z"/>
	<path fill="#1E3D72" d="M207.4,347.3c-0.2,0-0.4-0.1-0.6-0.2c-0.5-0.3-0.7-1.1-0.4-1.6c7.1-11.3,11.8-23.7,14.1-36.8
		c0.1-0.6,0.7-1.1,1.3-0.9c0.6,0.1,1.1,0.7,0.9,1.3c-2.3,13.4-7.2,26-14.4,37.6C208.1,347.1,207.8,347.3,207.4,347.3L207.4,347.3z"
		/>
	<path fill="#1E3D72" d="M223.1,209.6c-0.6,0-1.1-0.5-1.2-1.1c-0.1-2.6-0.2-5.2-0.4-7.7c-0.1-0.6,0.4-1.2,1-1.3
		c0.6-0.1,1.2,0.4,1.3,1c0.2,2.6,0.4,5.3,0.5,7.9C224.3,209,223.8,209.6,223.1,209.6C223.2,209.6,223.1,209.6,223.1,209.6
		L223.1,209.6z"/>
	<path fill="#1E3D72" d="M218.8,181.8c-0.5,0-1-0.3-1.1-0.8c-4.3-14.4-12-27.9-22-39.2c-0.4-0.5-0.4-1.2,0.1-1.6
		c0.5-0.4,1.2-0.4,1.6,0.1c10.3,11.5,18.1,25.4,22.5,40.1c0.2,0.6-0.2,1.3-0.8,1.4C219,181.7,218.9,181.8,218.8,181.8L218.8,181.8z"
		/>
	<path fill="#1E3D72" d="M191.8,137.2c-0.3,0-0.6-0.1-0.8-0.3c-6.7-6.6-14.3-12.3-22.5-16.8c-0.6-0.3-0.8-1-0.5-1.6
		c0.3-0.6,1-0.8,1.6-0.5c8.4,4.7,16.2,10.4,23,17.2c0.5,0.4,0.5,1.2,0,1.6C192.4,137.1,192.1,137.2,191.8,137.2L191.8,137.2z"/>
	<path fill="#1E3D72" d="M79.3,115c-0.5,0-0.9-0.3-1.1-0.7c-0.2-0.6,0-1.3,0.6-1.5c10.8-4.4,22.2-7,33.9-7.7c0.6,0,1.2,0.5,1.2,1.1
		c0,0.6-0.5,1.2-1.1,1.2c-11.4,0.6-22.6,3.2-33.2,7.5C79.6,115,79.4,115,79.3,115L79.3,115z"/>
	<path fill="#1E3D72" d="M54,129.9c-0.3,0-0.7-0.2-0.9-0.4c-0.4-0.5-0.3-1.2,0.2-1.6c6.7-5.3,13.9-9.7,21.6-13.3
		c0.6-0.3,1.3,0,1.5,0.6c0.3,0.6,0,1.3-0.6,1.5c-7.5,3.5-14.6,7.8-21.1,13C54.5,129.8,54.2,129.9,54,129.9L54,129.9z"/>
	<path fill="#1E3D72" d="M25.6,164.5c-0.2,0-0.4,0-0.5-0.1c-0.6-0.3-0.8-1-0.5-1.6c6.1-11.9,14.2-22.4,24.2-31.3
		c0.5-0.4,1.2-0.4,1.6,0.1c0.4,0.5,0.4,1.2-0.1,1.6c-9.8,8.7-17.8,19-23.7,30.6C26.4,164.3,26,164.5,25.6,164.5L25.6,164.5z"/>
	<path fill="#1E3D72" d="M14.2,211.7c-0.6,0-1.2-0.5-1.2-1.2c0-14.9,3.1-29.3,9.2-42.9c0.3-0.6,0.9-0.8,1.5-0.6
		c0.6,0.3,0.8,0.9,0.6,1.5c-5.9,13.3-9,27.4-9,41.9C15.4,211.2,14.9,211.7,14.2,211.7L14.2,211.7z"/>
	<path fill="#1E3D72" d="M14.2,255.9c-0.6,0-1.2-0.5-1.2-1.2v-37c0-0.6,0.5-1.2,1.2-1.2c0.6,0,1.2,0.5,1.2,1.2v37
		C15.4,255.4,14.9,255.9,14.2,255.9L14.2,255.9z"/>
	<path fill="#1E3D72" d="M120.7,381.4h-0.9c-9.1,0-18.1-1.4-26.8-4c-0.6-0.2-1-0.8-0.8-1.5c0.2-0.6,0.8-1,1.5-0.8
		c8.4,2.6,17.2,3.9,26.1,3.9h0.9c10.2,0,20.3-1.7,29.9-5.2c0.6-0.2,1.3,0.1,1.5,0.7c0.2,0.6-0.1,1.3-0.7,1.5
		C141.5,379.6,131.2,381.4,120.7,381.4L120.7,381.4z"/>
	<path fill="#1E3D72" d="M181.8,357.3c-0.3,0-0.6-0.1-0.9-0.4c-0.4-0.5-0.4-1.2,0.1-1.6c4.6-4.3,8.8-9.1,12.4-14.2
		c0.4-0.5,1.1-0.7,1.6-0.3c0.5,0.4,0.7,1.1,0.3,1.6c-3.7,5.3-8,10.2-12.7,14.6C182.4,357.2,182.1,357.3,181.8,357.3L181.8,357.3z"/>
	<path fill="#1E3D72" d="M198.3,336.9c-0.2,0-0.4-0.1-0.6-0.2c-0.6-0.3-0.7-1-0.4-1.6c4-6.7,7-13.9,9.1-21.3c0.2-0.6,0.8-1,1.4-0.8
		c0.6,0.2,1,0.8,0.8,1.4c-2.1,7.7-5.2,15-9.3,21.9C199.1,336.7,198.7,336.9,198.3,336.9L198.3,336.9z"/>
	<path fill="#1E3D72" d="M210.7,211.7c-0.6,0-1.2-0.5-1.2-1.2c0-0.8,0-1.5,0-2.3c-0.4-13.7-3.8-26.8-10.2-39
		c-0.3-0.6-0.1-1.3,0.5-1.6c0.6-0.3,1.3-0.1,1.6,0.5c6.6,12.5,10.1,25.9,10.5,40c0,0.8,0,1.6,0,2.4
		C211.9,211.2,211.3,211.7,210.7,211.7L210.7,211.7z"/>
	<path fill="#1E3D72" d="M172.5,138.2c-0.2,0-0.5-0.1-0.7-0.2c-15.1-10.7-32.7-16.3-51.1-16.3h-0.9c-7.4,0-14.8,0.9-22,2.8
		c-0.6,0.2-1.3-0.2-1.4-0.8c-0.2-0.6,0.2-1.3,0.8-1.4c7.3-1.9,14.9-2.8,22.5-2.8h0.9c18.9,0,37,5.8,52.5,16.7
		c0.5,0.4,0.6,1.1,0.3,1.6C173.2,138.1,172.9,138.2,172.5,138.2L172.5,138.2z"/>
	<path fill="#1E3D72" d="M29.8,292.7c-0.6,0-1.2-0.5-1.2-1.1c0-0.4,0-0.9,0-1.3V258c0-0.6,0.5-1.2,1.2-1.2c0.6,0,1.2,0.5,1.2,1.2
		v32.2c0,0.4,0,0.8,0,1.3C30.9,292.1,30.4,292.6,29.8,292.7C29.8,292.7,29.8,292.7,29.8,292.7L29.8,292.7z"/>
	<path fill="#1E3D72" d="M64.7,362.4c-0.2,0-0.5-0.1-0.7-0.2c-20.6-16-33.4-40-35.1-65.7c0-0.6,0.4-1.2,1.1-1.2
		c0.6,0,1.2,0.4,1.2,1.1c1.7,25.1,14.2,48.4,34.3,64.1c0.5,0.4,0.6,1.1,0.2,1.6C65.4,362.3,65,362.4,64.7,362.4L64.7,362.4z"/>
	<path fill="#1E3D72" d="M97.4,365.2c-0.1,0-0.2,0-0.3,0c-8.9-2.7-17.2-6.9-24.7-12.7C65,346.7,58.8,339.9,54,332
		c-0.3-0.5-0.2-1.3,0.4-1.6c0.5-0.3,1.3-0.2,1.6,0.4c4.7,7.7,10.7,14.3,17.8,19.8c7.2,5.6,15.2,9.7,23.9,12.3c0.6,0.2,1,0.8,0.8,1.4
		C98.3,364.8,97.9,365.2,97.4,365.2L97.4,365.2z"/>
	<path fill="#1E3D72" d="M123.4,368.2h-4.8c-4.4,0-8.9-0.4-13.2-1.2c-0.6-0.1-1.1-0.7-0.9-1.3c0.1-0.6,0.7-1.1,1.3-0.9
		c4.2,0.8,8.5,1.1,12.8,1.1h4.8c2.2,0,4.4-0.1,6.6-0.3c0.6-0.1,1.2,0.4,1.3,1.1c0.1,0.6-0.4,1.2-1.1,1.3
		C127.9,368.1,125.6,368.2,123.4,368.2L123.4,368.2z"/>
	<path fill="#1E3D72" d="M139.2,366.5c-0.5,0-1-0.4-1.1-0.9c-0.1-0.6,0.3-1.2,0.9-1.4c19.7-4.3,36.9-16.7,47.4-34.1
		c0.3-0.5,1-0.7,1.6-0.4c0.5,0.3,0.7,1,0.4,1.6c-10.8,17.9-28.6,30.8-48.9,35.2C139.4,366.5,139.3,366.5,139.2,366.5L139.2,366.5z"
		/>
	<path fill="#1E3D72" d="M191.8,323.1c-0.2,0-0.3,0-0.5-0.1c-0.6-0.3-0.9-0.9-0.6-1.5c2.2-5,3.8-10.3,4.8-15.7
		c0.1-0.6,0.7-1,1.4-0.9c0.6,0.1,1,0.7,0.9,1.4c-1,5.6-2.7,11-5,16.2C192.7,322.9,192.3,323.1,191.8,323.1L191.8,323.1z"/>
	<path fill="#1E3D72" d="M198,210.2c-0.6,0-1.2-0.5-1.2-1.2c0-0.3,0-0.6,0-0.9c-0.1-4.6-0.6-9.2-1.5-13.7c-0.1-0.6,0.3-1.2,0.9-1.4
		c0.6-0.1,1.2,0.3,1.4,0.9c0.9,4.6,1.5,9.4,1.5,14.1c0,0.3,0,0.6,0,1C199.1,209.7,198.6,210.2,198,210.2L198,210.2z"/>
	<path fill="#1E3D72" d="M194,186.4c-0.5,0-0.9-0.3-1.1-0.8c-9.2-27-33.3-46.4-61.5-49.6c-0.6-0.1-1.1-0.6-1-1.3
		c0.1-0.6,0.6-1.1,1.3-1c29.1,3.2,54,23.3,63.4,51.1c0.2,0.6-0.1,1.3-0.7,1.5C194.3,186.4,194.2,186.4,194,186.4L194,186.4z"/>
	<path fill="#1E3D72" d="M70.7,153.1c-0.3,0-0.7-0.1-0.9-0.4c-0.4-0.5-0.3-1.2,0.1-1.6c6.7-5.6,14.2-10,22.3-13
		c8.4-3.1,17.3-4.7,26.3-4.7h4.8c0.6,0,1.2,0.5,1.2,1.2c0,0.6-0.5,1.2-1.2,1.2h-4.8c-8.7,0-17.3,1.5-25.5,4.6
		c-7.9,2.9-15.2,7.2-21.6,12.6C71.2,153,71,153.1,70.7,153.1L70.7,153.1z"/>
	<path fill="#1E3D72" d="M44,235.1c-0.6,0-1.2-0.5-1.2-1.2v-24.9c0-8,1.3-15.9,3.7-23.4c0.2-0.6,0.9-0.9,1.5-0.7
		c0.6,0.2,0.9,0.9,0.7,1.5c-2.4,7.3-3.6,15-3.6,22.7V234C45.1,234.6,44.6,235.1,44,235.1L44,235.1z"/>
	<path fill="#1E3D72" d="M44.7,303.8c-0.6,0-1.1-0.4-1.1-1c-0.5-3.4-0.7-6.8-0.7-10.3v-52.8c0-0.6,0.5-1.2,1.2-1.2
		c0.6,0,1.2,0.5,1.2,1.2v52.8c0,3.3,0.2,6.7,0.7,10c0.1,0.6-0.4,1.2-1,1.3C44.8,303.8,44.7,303.8,44.7,303.8L44.7,303.8z"/>
	<path fill="#1E3D72" d="M78.5,337.2c-0.3,0-0.6-0.1-0.8-0.3c-4.7-4.4-8.6-9.5-11.7-15.2c-3.2-5.8-5.4-11.9-6.6-18.4
		c-0.1-0.6,0.3-1.2,0.9-1.4c0.6-0.1,1.2,0.3,1.4,0.9c1.1,6.2,3.3,12.1,6.3,17.7c3,5.4,6.8,10.3,11.3,14.6c0.5,0.4,0.5,1.2,0,1.6
		C79.1,337.1,78.8,337.2,78.5,337.2L78.5,337.2z"/>
	<path fill="#1E3D72" d="M123,353.8H120c-6.8,0-13.6-1.1-20-3.4c-6.2-2.1-12-5.3-17.3-9.3c-0.5-0.4-0.6-1.1-0.2-1.6
		c0.4-0.5,1.1-0.6,1.6-0.2c10.4,8,22.8,12.2,35.9,12.2h3.1c0.9,0,1.8,0,2.7-0.1c0.6,0,1.2,0.5,1.2,1.1c0,0.6-0.5,1.2-1.1,1.2
		C124.9,353.8,124,353.8,123,353.8L123,353.8z"/>
	<path fill="#1E3D72" d="M157.5,342.9c-0.4,0-0.7-0.2-1-0.5c-0.4-0.5-0.2-1.3,0.3-1.6c6.9-4.8,12.8-11.2,17.1-18.4
		c0.3-0.6,1-0.7,1.6-0.4c0.6,0.3,0.7,1,0.4,1.6c-4.5,7.5-10.6,14.1-17.8,19.1C158,342.8,157.8,342.9,157.5,342.9L157.5,342.9z"/>
	<path fill="#1E3D72" d="M179.3,315.3c-0.1,0-0.3,0-0.4-0.1c-0.6-0.2-0.9-0.9-0.7-1.5c1-2.6,1.9-5.3,2.5-8c0.1-0.6,0.8-1,1.4-0.9
		c0.6,0.1,1,0.8,0.9,1.4c-0.7,2.8-1.5,5.6-2.6,8.3C180.2,315,179.8,315.3,179.3,315.3L179.3,315.3z"/>
	<path fill="#1E3D72" d="M183.5,211.5c-0.6,0-1.2-0.5-1.2-1.2c0-0.7,0-1.5,0-2.2c-0.5-12.9-5.1-25-13.2-35c-0.4-0.5-0.3-1.2,0.2-1.6
		c0.5-0.4,1.2-0.3,1.6,0.2c8.5,10.5,13.3,23,13.8,36.4c0,0.8,0,1.6,0,2.3C184.6,211,184.1,211.5,183.5,211.5L183.5,211.5z"/>
	<path fill="#1E3D72" d="M137.3,152.8c-0.1,0-0.2,0-0.3,0c-4.6-1.1-9.3-1.7-14-1.7H120c-3.6,0-7.3,0.3-10.9,1
		c-0.6,0.1-1.2-0.3-1.4-0.9c-0.1-0.6,0.3-1.2,0.9-1.4c3.7-0.7,7.5-1,11.3-1h3.1c4.9,0,9.8,0.6,14.5,1.7c0.6,0.2,1,0.8,0.9,1.4
		C138.3,152.5,137.8,152.8,137.3,152.8L137.3,152.8z"/>
	<path fill="#1E3D72" d="M60.3,202c-0.1,0-0.1,0-0.2,0c-0.6-0.1-1.1-0.7-1-1.3c1.7-10.9,6.4-21.1,13.6-29.7
		c7.1-8.4,16.2-14.9,26.5-18.6c0.6-0.2,1.3,0.1,1.5,0.7c0.2,0.6-0.1,1.3-0.7,1.5c-9.9,3.6-18.7,9.7-25.5,17.9
		c-6.9,8.2-11.4,18.1-13.1,28.5C61.3,201.6,60.9,202,60.3,202L60.3,202z"/>
	<path fill="#1E3D72" d="M59.5,249c-0.6,0-1.2-0.5-1.2-1.2v-37.4c0-0.6,0.5-1.2,1.2-1.2c0.6,0,1.2,0.5,1.2,1.2v37.4
		C60.7,248.4,60.2,249,59.5,249L59.5,249z"/>
	<path fill="#1E3D72" d="M80,313c-0.4,0-0.9-0.3-1.1-0.7c-2.7-5.8-4-12-4-18.5v-57.6c0-0.6,0.5-1.2,1.2-1.2c0.6,0,1.2,0.5,1.2,1.2
		v57.6c0,6.1,1.3,12,3.8,17.5c0.3,0.6,0,1.3-0.6,1.5C80.3,313,80.2,313,80,313L80,313z"/>
	<path fill="#1E3D72" d="M125.2,338.8h-5.4c-7.1,0-13.9-1.6-20.2-4.8c-6-3.1-11.4-7.5-15.5-12.9c-0.4-0.5-0.3-1.2,0.2-1.6
		c0.5-0.4,1.2-0.3,1.6,0.2c3.9,5.1,9,9.3,14.7,12.2c6,3,12.4,4.6,19.1,4.6h5.4c9.3,0,18.2-3,25.6-8.6c7.2-5.5,12.6-13.2,15.2-21.8
		c0.2-0.6,0.8-1,1.4-0.8c0.6,0.2,1,0.8,0.8,1.4c-2.7,9.1-8.4,17.2-16,23C144.4,335.6,135,338.8,125.2,338.8L125.2,338.8z"/>
	<path fill="#1E3D72" d="M78.2,197.9c-0.1,0-0.2,0-0.4-0.1c-0.6-0.2-0.9-0.8-0.8-1.5c2.8-8.9,8.5-16.8,16.1-22.4
		c7.8-5.8,17-8.9,26.7-8.9h5.4c9.6,0,18.8,3,26.6,8.8c7.5,5.5,13.2,13.4,16.1,22.2c0.2,0.6-0.1,1.3-0.7,1.5
		c-0.6,0.2-1.3-0.1-1.5-0.7c-2.7-8.3-8.2-15.8-15.3-21.1c-7.4-5.4-16.1-8.3-25.2-8.3h-5.4c-9.2,0-17.9,2.9-25.3,8.4
		c-7.1,5.3-12.6,12.9-15.2,21.3C79.1,197.5,78.7,197.9,78.2,197.9L78.2,197.9z"/>
	<path fill="#1E3D72" d="M25.8,132.8c-2.2,0-4,1.8-4,4c0,2.2,1.8,4,4,4c2.2,0,4-1.8,4-4C29.8,134.6,28,132.8,25.8,132.8L25.8,132.8z
		 M25.8,143c-3.5,0-6.4-2.8-6.4-6.3s2.9-6.3,6.4-6.3c3.5,0,6.4,2.8,6.4,6.3S29.3,143,25.8,143L25.8,143z"/>
	<path fill="#1E3D72" d="M80.7,94.2c-2.2,0-4,1.8-4,4c0,2.2,1.8,4,4,4c2.2,0,4-1.8,4-4C84.8,96,83,94.2,80.7,94.2L80.7,94.2z
		 M80.7,104.4c-3.5,0-6.4-2.8-6.4-6.3c0-3.5,2.9-6.3,6.4-6.3c3.5,0,6.4,2.8,6.4,6.3C87.1,101.6,84.2,104.4,80.7,104.4L80.7,104.4z"
		/>
	<path fill="#1E3D72" d="M66.7,152c-2.2,0-4,1.8-4,4c0,2.2,1.8,4,4,4c2.2,0,4-1.8,4-4C70.8,153.7,69,152,66.7,152L66.7,152z
		 M66.7,162.2c-3.5,0-6.4-2.8-6.4-6.3c0-3.5,2.9-6.3,6.4-6.3c3.5,0,6.4,2.8,6.4,6.3C73.1,159.4,70.2,162.2,66.7,162.2L66.7,162.2z"
		/>
	<path fill="#1E3D72" d="M29.8,211.6c-2.2,0-4,1.8-4,4c0,2.2,1.8,4,4,4c2.2,0,4-1.8,4-4C33.8,213.4,32,211.6,29.8,211.6L29.8,211.6z
		 M29.8,221.9c-3.5,0-6.4-2.8-6.4-6.3c0-3.5,2.9-6.3,6.4-6.3c3.5,0,6.4,2.8,6.4,6.3C36.1,219.1,33.3,221.9,29.8,221.9L29.8,221.9z"
		/>
	<path fill="#1E3D72" d="M76.1,226.7c-2.2,0-4,1.8-4,4c0,2.2,1.8,4,4,4c2.2,0,4-1.8,4-4C80.1,228.5,78.3,226.7,76.1,226.7
		L76.1,226.7z M76.1,236.9c-3.5,0-6.4-2.8-6.4-6.3s2.9-6.3,6.4-6.3c3.5,0,6.4,2.8,6.4,6.3S79.6,236.9,76.1,236.9L76.1,236.9z"/>
	<path fill="#1E3D72" d="M59.5,249.3c-2.2,0-4,1.8-4,4c0,2.2,1.8,4,4,4c2.2,0,4-1.8,4-4C63.6,251,61.8,249.3,59.5,249.3L59.5,249.3z
		 M59.5,259.5c-3.5,0-6.4-2.8-6.4-6.3c0-3.5,2.9-6.3,6.4-6.3c3.5,0,6.4,2.8,6.4,6.3C65.9,256.7,63,259.5,59.5,259.5L59.5,259.5z"/>
	<path fill="#1E3D72" d="M59.5,293.8c-2.2,0-4,1.8-4,4c0,2.2,1.8,4,4,4c2.2,0,4-1.8,4-4C63.6,295.5,61.8,293.8,59.5,293.8
		L59.5,293.8z M59.5,304c-3.5,0-6.4-2.8-6.4-6.3c0-3.5,2.9-6.3,6.4-6.3c3.5,0,6.4,2.8,6.4,6.3C65.9,301.2,63,304,59.5,304L59.5,304z
		"/>
	<path fill="#1E3D72" d="M152.8,340.7c-2.2,0-4,1.8-4,4c0,2.2,1.8,4,4,4c2.2,0,4-1.8,4-4C156.8,342.5,155,340.7,152.8,340.7
		L152.8,340.7z M152.8,351c-3.5,0-6.4-2.8-6.4-6.3c0-3.5,2.9-6.3,6.4-6.3c3.5,0,6.4,2.8,6.4,6.3C159.1,348.2,156.3,351,152.8,351
		L152.8,351z"/>
	<path fill="#1E3D72" d="M178.3,356.1c-2.2,0-4,1.8-4,4s1.8,4,4,4c2.2,0,4-1.8,4-4S180.5,356.1,178.3,356.1L178.3,356.1z
		 M178.3,366.4c-3.5,0-6.4-2.8-6.4-6.3c0-3.5,2.9-6.3,6.4-6.3c3.5,0,6.4,2.8,6.4,6.3C184.6,363.5,181.8,366.4,178.3,366.4
		L178.3,366.4z"/>
	<path fill="#1E3D72" d="M88.4,370.4c-2.2,0-4,1.8-4,4c0,2.2,1.8,4,4,4c2.2,0,4-1.8,4-4C92.5,372.2,90.7,370.4,88.4,370.4
		L88.4,370.4z M88.4,380.7c-3.5,0-6.4-2.8-6.4-6.3c0-3.5,2.9-6.3,6.4-6.3c3.5,0,6.4,2.8,6.4,6.3C94.8,377.8,91.9,380.7,88.4,380.7
		L88.4,380.7z"/>
	<path fill="#1E3D72" d="M32.7,345.9c-2.2,0-4,1.8-4,4c0,2.2,1.8,4,4,4c2.2,0,4-1.8,4-4C36.8,347.6,34.9,345.9,32.7,345.9
		L32.7,345.9z M32.7,356.1c-3.5,0-6.4-2.8-6.4-6.3c0-3.5,2.9-6.3,6.4-6.3c3.5,0,6.4,2.8,6.4,6.3C39.1,353.3,36.2,356.1,32.7,356.1
		L32.7,356.1z"/>
	<path fill="#1E3D72" d="M29.8,248.4c-2.2,0-4,1.8-4,4c0,2.2,1.8,4,4,4c2.2,0,4-1.8,4-4C33.8,250.2,32,248.4,29.8,248.4L29.8,248.4z
		 M29.8,258.6c-3.5,0-6.4-2.8-6.4-6.3s2.9-6.3,6.4-6.3c3.5,0,6.4,2.8,6.4,6.3S33.3,258.6,29.8,258.6L29.8,258.6z"/>
	<path fill="#1E3D72" d="M118.7,102.3c-2.2,0-4,1.8-4,4c0,2.2,1.8,4,4,4c2.2,0,4-1.8,4-4C122.7,104.1,120.9,102.3,118.7,102.3
		L118.7,102.3z M118.7,112.5c-3.5,0-6.4-2.8-6.4-6.3c0-3.5,2.9-6.3,6.4-6.3c3.5,0,6.4,2.8,6.4,6.3
		C125,109.7,122.2,112.5,118.7,112.5L118.7,112.5z"/>
	<path fill="#1E3D72" d="M164.7,112.2c-2.2,0-4,1.8-4,4c0,2.2,1.8,4,4,4c2.2,0,4-1.8,4-4C168.8,113.9,167,112.2,164.7,112.2
		L164.7,112.2z M164.7,122.4c-3.5,0-6.4-2.8-6.4-6.3c0-3.5,2.9-6.3,6.4-6.3c3.5,0,6.4,2.8,6.4,6.3
		C171.1,119.6,168.2,122.4,164.7,122.4L164.7,122.4z"/>
	<path fill="#1E3D72" d="M178.3,103c-2.2,0-4,1.8-4,4c0,2.2,1.8,4,4,4c2.2,0,4-1.8,4-4C182.3,104.8,180.5,103,178.3,103L178.3,103z
		 M178.3,113.2c-3.5,0-6.4-2.8-6.4-6.3c0-3.5,2.9-6.3,6.4-6.3c3.5,0,6.4,2.8,6.4,6.3C184.6,110.4,181.8,113.2,178.3,113.2
		L178.3,113.2z"/>
	<path fill="#1E3D72" d="M177.1,136.5c-2.2,0-4,1.8-4,4c0,2.2,1.8,4,4,4c2.2,0,4-1.8,4-4C181.1,138.2,179.3,136.5,177.1,136.5
		L177.1,136.5z M177.1,146.7c-3.5,0-6.4-2.8-6.4-6.3c0-3.5,2.9-6.3,6.4-6.3c3.5,0,6.4,2.8,6.4,6.3
		C183.5,143.9,180.6,146.7,177.1,146.7L177.1,146.7z"/>
	<path fill="#1E3D72" d="M142.4,148.8c-2.2,0-4,1.8-4,4c0,2.2,1.8,4,4,4c2.2,0,4-1.8,4-4C146.4,150.6,144.6,148.8,142.4,148.8
		L142.4,148.8z M142.4,159c-3.5,0-6.4-2.8-6.4-6.3s2.9-6.3,6.4-6.3c3.5,0,6.4,2.8,6.4,6.3S145.9,159,142.4,159L142.4,159z"/>
	<path fill="#1E3D72" d="M198,159.9c-2.2,0-4,1.8-4,4c0,2.2,1.8,4,4,4c2.2,0,4-1.8,4-4C202,161.7,200.2,159.9,198,159.9L198,159.9z
		 M198,170.1c-3.5,0-6.4-2.8-6.4-6.3c0-3.5,2.9-6.3,6.4-6.3c3.5,0,6.4,2.8,6.4,6.3C204.3,167.3,201.5,170.1,198,170.1L198,170.1z"/>
	<path fill="#1E3D72" d="M210.7,129.6c-2.2,0-4,1.8-4,4c0,2.2,1.8,4,4,4c2.2,0,4-1.8,4-4C214.8,131.4,213,129.6,210.7,129.6
		L210.7,129.6z M210.7,139.9c-3.5,0-6.4-2.8-6.4-6.3c0-3.5,2.9-6.3,6.4-6.3c3.5,0,6.4,2.8,6.4,6.3
		C217.1,137.1,214.2,139.9,210.7,139.9L210.7,139.9z"/>
	<path fill="#1E3D72" d="M29.8,210.3C29.8,210.3,29.8,210.3,29.8,210.3c-0.7,0-1.2-0.5-1.2-1.2c0.3-17.4,5.5-34.2,15.1-48.7
		c9.4-14.2,22.4-25.4,37.8-32.6c0.6-0.3,1.3,0,1.5,0.6c0.3,0.6,0,1.3-0.6,1.5c-14.9,7-27.7,17.9-36.8,31.7
		c-9.4,14.1-14.5,30.6-14.7,47.5C30.9,209.8,30.4,210.3,29.8,210.3L29.8,210.3z"/>
	<path fill="#1E3D72" d="M229.8,330.4c-0.2,0-0.4,0-0.6-0.1c-0.6-0.2-0.9-0.9-0.7-1.5c2.7-7.3,4.5-14.9,5.2-22.6
		c0.1-0.6,0.6-1.1,1.3-1c0.6,0.1,1.1,0.6,1,1.3c-0.8,7.9-2.6,15.7-5.4,23.2C230.5,330,230.2,330.3,229.8,330.4L229.8,330.4z"/>
	<path fill="#1E3D72" d="M122.8,291.9c0,0.1,0,0.2,0,0.3c0,0.1,0,0.2,0,0.3c0,0.1,0,0.1-0.1,0.2c0,0.1-0.1,0.1-0.2,0.2
		c-0.1,0.1-0.3,0.3-0.7,0.5c-0.3,0.2-0.8,0.4-1.3,0.7c-0.5,0.2-1.1,0.4-1.8,0.6c-0.7,0.2-1.4,0.2-2.2,0.2c-1.3,0-2.4-0.2-3.5-0.7
		c-1-0.4-1.9-1.1-2.6-2c-0.7-0.9-1.3-1.9-1.7-3.2c-0.4-1.3-0.6-2.7-0.6-4.3c0-1.7,0.2-3.1,0.6-4.5c0.4-1.3,1-2.4,1.8-3.3
		c0.8-0.9,1.7-1.6,2.7-2.1c1.1-0.5,2.2-0.7,3.5-0.7c0.6,0,1.2,0.1,1.8,0.2c0.6,0.1,1.1,0.3,1.6,0.4c0.5,0.2,0.9,0.4,1.3,0.6
		c0.4,0.2,0.6,0.4,0.8,0.6c0.1,0.1,0.2,0.2,0.3,0.3c0,0.1,0.1,0.1,0.1,0.2c0,0.1,0,0.2,0,0.3c0,0.1,0,0.2,0,0.3c0,0.1,0,0.3,0,0.4
		c0,0.1,0,0.2-0.1,0.3c0,0.1-0.1,0.1-0.1,0.2c-0.1,0-0.1,0.1-0.2,0.1c-0.1,0-0.4-0.1-0.6-0.3c-0.3-0.2-0.6-0.5-1.1-0.7
		c-0.4-0.3-1-0.5-1.6-0.7c-0.6-0.2-1.4-0.3-2.2-0.3c-1,0-1.8,0.2-2.6,0.6c-0.8,0.4-1.5,0.9-2,1.7c-0.6,0.7-1,1.7-1.3,2.7
		c-0.3,1.1-0.5,2.3-0.5,3.8c0,1.3,0.1,2.5,0.4,3.6c0.3,1,0.7,1.9,1.3,2.6c0.6,0.7,1.2,1.3,2.1,1.6c0.8,0.4,1.7,0.6,2.8,0.6
		c0.8,0,1.6-0.1,2.2-0.3c0.6-0.2,1.2-0.5,1.6-0.7c0.5-0.3,0.8-0.5,1.1-0.7c0.3-0.2,0.5-0.3,0.7-0.3c0.1,0,0.1,0,0.2,0
		c0,0,0.1,0.1,0.1,0.1c0,0.1,0,0.2,0.1,0.3C122.8,291.6,122.8,291.8,122.8,291.9L122.8,291.9z"/>
	<path fill="#1E3D72" d="M141.6,284.5c0-1.2-0.1-2.3-0.3-3.4c-0.2-1.1-0.6-2-1.1-2.7c-0.5-0.8-1.2-1.4-2.1-1.8
		c-0.9-0.4-1.9-0.7-3.2-0.7c-1.3,0-2.3,0.2-3.2,0.7c-0.9,0.5-1.6,1.1-2.1,1.9c-0.5,0.8-0.9,1.7-1.2,2.7c-0.2,1-0.4,2.2-0.4,3.3
		c0,1.2,0.1,2.4,0.3,3.4c0.2,1.1,0.6,2,1.1,2.8c0.5,0.8,1.2,1.4,2.1,1.8c0.9,0.4,1.9,0.7,3.2,0.7c1.3,0,2.3-0.2,3.2-0.7
		c0.9-0.5,1.6-1.1,2.1-1.9c0.5-0.8,0.9-1.7,1.1-2.8C141.5,286.7,141.6,285.6,141.6,284.5L141.6,284.5z M143.7,284.3
		c0,1.6-0.2,3.1-0.6,4.4c-0.4,1.3-0.9,2.4-1.7,3.4c-0.7,0.9-1.7,1.6-2.8,2.1c-1.1,0.5-2.4,0.8-4,0.8c-1.5,0-2.8-0.2-3.9-0.7
		c-1.1-0.5-2-1.2-2.7-2c-0.7-0.9-1.2-2-1.5-3.2c-0.3-1.3-0.5-2.7-0.5-4.3c0-1.6,0.2-3,0.5-4.3c0.4-1.3,0.9-2.4,1.7-3.3
		c0.7-0.9,1.7-1.6,2.8-2.1c1.1-0.5,2.4-0.8,4-0.8c1.5,0,2.8,0.2,3.8,0.7c1.1,0.5,2,1.1,2.7,2c0.7,0.9,1.2,1.9,1.6,3.2
		C143.5,281.3,143.7,282.7,143.7,284.3L143.7,284.3z"/>
	<path fill="#1E3D72" d="M163.9,293.8c0,0.2,0,0.3-0.1,0.5c-0.1,0.1-0.1,0.2-0.2,0.3c-0.1,0.1-0.2,0.1-0.3,0.2c-0.1,0-0.2,0-0.3,0
		h-0.4c-0.2,0-0.4,0-0.6-0.1c-0.2-0.1-0.3-0.1-0.5-0.3c-0.2-0.1-0.3-0.3-0.5-0.5c-0.2-0.2-0.3-0.5-0.5-0.8l-7.2-12.7
		c-0.4-0.6-0.7-1.3-1.1-1.9c-0.4-0.7-0.7-1.3-1-1.9h0c0,0.8,0,1.5,0,2.3c0,0.8,0,1.6,0,2.3v13.2c0,0.1,0,0.1,0,0.2
		c0,0.1-0.1,0.1-0.2,0.1c-0.1,0-0.2,0.1-0.3,0.1c-0.1,0-0.3,0-0.5,0c-0.2,0-0.3,0-0.5,0c-0.1,0-0.2,0-0.3-0.1
		c-0.1,0-0.1-0.1-0.2-0.1c0-0.1,0-0.1,0-0.2v-19c0-0.4,0.1-0.6,0.3-0.8c0.2-0.1,0.4-0.2,0.6-0.2h0.8c0.3,0,0.5,0,0.6,0.1
		c0.2,0,0.3,0.1,0.5,0.2c0.1,0.1,0.3,0.2,0.4,0.4c0.1,0.2,0.3,0.4,0.4,0.7l5.5,9.7c0.3,0.6,0.7,1.2,1,1.7c0.3,0.6,0.6,1.1,0.9,1.6
		c0.3,0.5,0.6,1.1,0.9,1.6c0.3,0.5,0.6,1.1,0.9,1.6h0c0-0.9,0-1.8,0-2.7c0-1,0-1.9,0-2.7v-11.8c0-0.1,0-0.1,0-0.2
		c0-0.1,0.1-0.1,0.2-0.1c0.1,0,0.2-0.1,0.3-0.1c0.1,0,0.3,0,0.5,0c0.2,0,0.3,0,0.4,0c0.1,0,0.2,0,0.3,0.1c0.1,0,0.1,0.1,0.2,0.1
		c0,0.1,0.1,0.1,0.1,0.2V293.8L163.9,293.8z"/>
	<path fill="#1E3D72" d="M181.1,275.3c0,0.1,0,0.3,0,0.4c0,0.1-0.1,0.2-0.1,0.3c0,0.1-0.1,0.1-0.2,0.2c-0.1,0-0.1,0.1-0.2,0.1h-7.9
		v7.7h7.5c0.1,0,0.1,0,0.2,0c0.1,0,0.1,0.1,0.2,0.1c0,0.1,0.1,0.1,0.1,0.3c0,0.1,0,0.2,0,0.4c0,0.1,0,0.3,0,0.4
		c0,0.1-0.1,0.2-0.1,0.3c0,0.1-0.1,0.1-0.2,0.2c-0.1,0-0.1,0.1-0.2,0.1h-7.5v8.9c0,0.1,0,0.1,0,0.2c0,0.1-0.1,0.1-0.2,0.1
		c-0.1,0-0.2,0.1-0.3,0.1c-0.1,0-0.3,0-0.5,0c-0.2,0-0.3,0-0.5,0c-0.1,0-0.2,0-0.3-0.1c-0.1,0-0.1-0.1-0.2-0.1c0-0.1,0-0.1,0-0.2
		v-19c0-0.4,0.1-0.6,0.3-0.8c0.2-0.1,0.4-0.2,0.6-0.2h8.9c0.1,0,0.1,0,0.2,0.1c0.1,0,0.1,0.1,0.2,0.2c0,0.1,0.1,0.2,0.1,0.3
		C181.1,275,181.1,275.1,181.1,275.3L181.1,275.3z"/>
	<path fill="#1E3D72" d="M197.5,293.8c0,0.1,0,0.3,0,0.4c0,0.1-0.1,0.2-0.1,0.3c0,0.1-0.1,0.1-0.2,0.2c-0.1,0-0.1,0.1-0.2,0.1h-9.5
		c-0.2,0-0.4-0.1-0.6-0.2c-0.2-0.1-0.3-0.4-0.3-0.8v-18.3c0-0.4,0.1-0.6,0.3-0.8c0.2-0.1,0.4-0.2,0.6-0.2h9.4c0.1,0,0.1,0,0.2,0.1
		c0.1,0,0.1,0.1,0.2,0.2c0,0.1,0.1,0.2,0.1,0.3c0,0.1,0,0.2,0,0.4c0,0.1,0,0.3,0,0.4c0,0.1-0.1,0.2-0.1,0.3c0,0.1-0.1,0.1-0.2,0.2
		c-0.1,0-0.1,0.1-0.2,0.1h-8.3v7.1h7.2c0.1,0,0.2,0,0.2,0.1c0.1,0,0.1,0.1,0.2,0.2c0,0.1,0.1,0.2,0.1,0.3c0,0.1,0,0.2,0,0.4
		c0,0.1,0,0.3,0,0.4c0,0.1-0.1,0.2-0.1,0.2c0,0.1-0.1,0.1-0.2,0.1c-0.1,0-0.1,0-0.2,0h-7.2v8.1h8.5c0.1,0,0.1,0,0.2,0.1
		c0.1,0,0.1,0.1,0.2,0.2c0,0.1,0.1,0.2,0.1,0.3C197.5,293.6,197.5,293.7,197.5,293.8L197.5,293.8z"/>
	<path fill="#1E3D72" d="M212.6,279.8c0-0.9-0.2-1.6-0.6-2.2c-0.4-0.6-1-1-1.9-1.3c-0.3-0.1-0.6-0.1-1-0.2c-0.4,0-0.8-0.1-1.4-0.1
		h-2.5v7.5h2.9c0.8,0,1.5-0.1,2-0.3c0.6-0.2,1-0.5,1.4-0.8c0.4-0.3,0.6-0.7,0.8-1.2S212.6,280.3,212.6,279.8L212.6,279.8z
		 M216,294.3c0,0.1,0,0.1,0,0.2c0,0.1-0.1,0.1-0.1,0.1c-0.1,0-0.2,0.1-0.3,0.1c-0.1,0-0.3,0-0.5,0c-0.2,0-0.3,0-0.4,0
		c-0.1,0-0.2,0-0.3-0.1c-0.1,0-0.2-0.1-0.2-0.2c-0.1-0.1-0.1-0.2-0.1-0.3l-1.9-4.9c-0.2-0.6-0.5-1.1-0.7-1.6
		c-0.3-0.5-0.6-0.9-0.9-1.3c-0.4-0.4-0.8-0.6-1.3-0.9c-0.5-0.2-1.1-0.3-1.8-0.3h-2.1v9.2c0,0.1,0,0.1,0,0.2c0,0.1-0.1,0.1-0.2,0.1
		c-0.1,0-0.2,0.1-0.3,0.1c-0.1,0-0.3,0-0.5,0c-0.2,0-0.3,0-0.5,0c-0.1,0-0.2,0-0.3-0.1c-0.1,0-0.1-0.1-0.2-0.1c0-0.1,0-0.1,0-0.2
		v-19c0-0.4,0.1-0.6,0.3-0.8c0.2-0.1,0.4-0.2,0.6-0.2h3.8c0.5,0,0.9,0,1.2,0c0.3,0,0.6,0.1,0.9,0.1c0.8,0.1,1.4,0.4,2,0.7
		c0.6,0.3,1.1,0.7,1.4,1.1c0.4,0.4,0.7,0.9,0.8,1.5c0.2,0.6,0.3,1.2,0.3,1.8c0,0.7-0.1,1.3-0.3,1.8c-0.2,0.5-0.5,1-0.8,1.4
		c-0.3,0.4-0.8,0.8-1.2,1c-0.5,0.3-1,0.5-1.6,0.7c0.3,0.2,0.7,0.3,0.9,0.6c0.3,0.2,0.5,0.5,0.8,0.8c0.2,0.3,0.5,0.7,0.7,1.1
		c0.2,0.4,0.4,0.9,0.6,1.4l1.9,4.7c0.1,0.4,0.2,0.6,0.3,0.8C215.9,294.2,216,294.3,216,294.3L216,294.3z"/>
	<path fill="#1E3D72" d="M232.2,293.8c0,0.1,0,0.3,0,0.4c0,0.1-0.1,0.2-0.1,0.3c0,0.1-0.1,0.1-0.2,0.2c-0.1,0-0.1,0.1-0.2,0.1h-9.5
		c-0.2,0-0.4-0.1-0.6-0.2c-0.2-0.1-0.3-0.4-0.3-0.8v-18.3c0-0.4,0.1-0.6,0.3-0.8c0.2-0.1,0.4-0.2,0.6-0.2h9.4c0.1,0,0.1,0,0.2,0.1
		c0.1,0,0.1,0.1,0.2,0.2c0,0.1,0.1,0.2,0.1,0.3c0,0.1,0,0.2,0,0.4c0,0.1,0,0.3,0,0.4c0,0.1-0.1,0.2-0.1,0.3c0,0.1-0.1,0.1-0.2,0.2
		c-0.1,0-0.1,0.1-0.2,0.1h-8.3v7.1h7.2c0.1,0,0.2,0,0.2,0.1c0.1,0,0.1,0.1,0.2,0.2c0,0.1,0.1,0.2,0.1,0.3c0,0.1,0,0.2,0,0.4
		c0,0.1,0,0.3,0,0.4c0,0.1-0.1,0.2-0.1,0.2c0,0.1-0.1,0.1-0.2,0.1c-0.1,0-0.1,0-0.2,0h-7.2v8.1h8.5c0.1,0,0.1,0,0.2,0.1
		c0.1,0,0.1,0.1,0.2,0.2c0,0.1,0.1,0.2,0.1,0.3C232.2,293.6,232.2,293.7,232.2,293.8L232.2,293.8z"/>
	<path fill="#1E3D72" d="M252.6,293.8c0,0.2,0,0.3-0.1,0.5c-0.1,0.1-0.1,0.2-0.2,0.3c-0.1,0.1-0.2,0.1-0.3,0.2c-0.1,0-0.2,0-0.3,0
		h-0.4c-0.2,0-0.4,0-0.6-0.1c-0.2-0.1-0.3-0.1-0.5-0.3c-0.2-0.1-0.3-0.3-0.5-0.5c-0.2-0.2-0.3-0.5-0.5-0.8l-7.2-12.7
		c-0.4-0.6-0.7-1.3-1.1-1.9c-0.4-0.7-0.7-1.3-1-1.9h0c0,0.8,0,1.5,0,2.3c0,0.8,0,1.6,0,2.3v13.2c0,0.1,0,0.1,0,0.2
		c0,0.1-0.1,0.1-0.2,0.1c-0.1,0-0.2,0.1-0.3,0.1c-0.1,0-0.3,0-0.5,0c-0.2,0-0.3,0-0.5,0c-0.1,0-0.2,0-0.3-0.1
		c-0.1,0-0.1-0.1-0.2-0.1c0-0.1,0-0.1,0-0.2v-19c0-0.4,0.1-0.6,0.3-0.8c0.2-0.1,0.4-0.2,0.6-0.2h0.8c0.3,0,0.5,0,0.6,0.1
		c0.2,0,0.3,0.1,0.5,0.2c0.1,0.1,0.3,0.2,0.4,0.4c0.1,0.2,0.3,0.4,0.4,0.7l5.5,9.7c0.3,0.6,0.7,1.2,1,1.7c0.3,0.6,0.6,1.1,0.9,1.6
		c0.3,0.5,0.6,1.1,0.9,1.6c0.3,0.5,0.6,1.1,0.9,1.6h0c0-0.9,0-1.8,0-2.7c0-1,0-1.9,0-2.7v-11.8c0-0.1,0-0.1,0-0.2
		c0-0.1,0.1-0.1,0.2-0.1c0.1,0,0.2-0.1,0.3-0.1c0.1,0,0.3,0,0.5,0c0.2,0,0.3,0,0.4,0c0.1,0,0.2,0,0.3,0.1c0.1,0,0.1,0.1,0.2,0.1
		c0,0.1,0.1,0.1,0.1,0.2V293.8L252.6,293.8z"/>
	<path fill="#1E3D72" d="M272.8,291.9c0,0.1,0,0.2,0,0.3c0,0.1,0,0.2,0,0.3c0,0.1-0.1,0.1-0.1,0.2c0,0.1-0.1,0.1-0.2,0.2
		c-0.1,0.1-0.3,0.3-0.7,0.5c-0.3,0.2-0.8,0.4-1.3,0.7c-0.5,0.2-1.1,0.4-1.7,0.6c-0.7,0.2-1.4,0.2-2.2,0.2c-1.3,0-2.4-0.2-3.5-0.7
		c-1-0.4-1.9-1.1-2.6-2c-0.7-0.9-1.3-1.9-1.7-3.2c-0.4-1.3-0.6-2.7-0.6-4.3c0-1.7,0.2-3.1,0.6-4.5c0.4-1.3,1-2.4,1.8-3.3
		c0.8-0.9,1.7-1.6,2.7-2.1c1.1-0.5,2.2-0.7,3.5-0.7c0.6,0,1.2,0.1,1.8,0.2c0.6,0.1,1.1,0.3,1.6,0.4c0.5,0.2,0.9,0.4,1.3,0.6
		c0.4,0.2,0.6,0.4,0.8,0.6c0.1,0.1,0.2,0.2,0.3,0.3c0,0.1,0.1,0.1,0.1,0.2c0,0.1,0,0.2,0,0.3c0,0.1,0,0.2,0,0.3c0,0.1,0,0.3,0,0.4
		c0,0.1,0,0.2-0.1,0.3c0,0.1-0.1,0.1-0.1,0.2c-0.1,0-0.1,0.1-0.2,0.1c-0.1,0-0.4-0.1-0.6-0.3c-0.3-0.2-0.6-0.5-1.1-0.7
		c-0.4-0.3-1-0.5-1.6-0.7c-0.6-0.2-1.4-0.3-2.2-0.3c-1,0-1.8,0.2-2.6,0.6c-0.8,0.4-1.5,0.9-2,1.7c-0.6,0.7-1,1.7-1.3,2.7
		c-0.3,1.1-0.5,2.3-0.5,3.8c0,1.3,0.1,2.5,0.4,3.6c0.3,1,0.7,1.9,1.3,2.6c0.6,0.7,1.2,1.3,2.1,1.6c0.8,0.4,1.7,0.6,2.8,0.6
		c0.8,0,1.6-0.1,2.2-0.3c0.6-0.2,1.2-0.5,1.6-0.7c0.4-0.3,0.8-0.5,1.1-0.7c0.3-0.2,0.5-0.3,0.7-0.3c0.1,0,0.1,0,0.2,0
		c0,0,0.1,0.1,0.1,0.1c0,0.1,0,0.2,0.1,0.3C272.8,291.6,272.8,291.8,272.8,291.9L272.8,291.9z"/>
	<path fill="#1E3D72" d="M288.6,293.8c0,0.1,0,0.3,0,0.4c0,0.1-0.1,0.2-0.1,0.3c0,0.1-0.1,0.1-0.2,0.2c-0.1,0-0.1,0.1-0.2,0.1h-9.5
		c-0.2,0-0.4-0.1-0.6-0.2c-0.2-0.1-0.3-0.4-0.3-0.8v-18.3c0-0.4,0.1-0.6,0.3-0.8c0.2-0.1,0.4-0.2,0.6-0.2h9.4c0.1,0,0.1,0,0.2,0.1
		c0.1,0,0.1,0.1,0.2,0.2s0.1,0.2,0.1,0.3c0,0.1,0,0.2,0,0.4c0,0.1,0,0.3,0,0.4c0,0.1-0.1,0.2-0.1,0.3c0,0.1-0.1,0.1-0.2,0.2
		c-0.1,0-0.1,0.1-0.2,0.1h-8.3v7.1h7.2c0.1,0,0.2,0,0.2,0.1c0.1,0,0.1,0.1,0.2,0.2c0,0.1,0.1,0.2,0.1,0.3c0,0.1,0,0.2,0,0.4
		c0,0.1,0,0.3,0,0.4c0,0.1-0.1,0.2-0.1,0.2c0,0.1-0.1,0.1-0.2,0.1c-0.1,0-0.1,0-0.2,0h-7.2v8.1h8.5c0.1,0,0.1,0,0.2,0.1
		c0.1,0,0.1,0.1,0.2,0.2c0,0.1,0.1,0.2,0.1,0.3C288.5,293.6,288.6,293.7,288.6,293.8L288.6,293.8z"/>
	<path fill="#1E3D72" d="M137.2,256.6c0.5,0,0.9,0.2,1.3,0.6l3.6,3.9c-2,2.4-4.4,4.3-7.4,5.6c-2.9,1.3-6.4,2-10.5,2
		c-3.7,0-6.9-0.6-9.8-1.9c-2.9-1.2-5.4-2.9-7.5-5.1c-2.1-2.2-3.6-4.8-4.7-7.9c-1.1-3-1.6-6.4-1.6-10c0-3.7,0.6-7,1.8-10
		c1.2-3,2.8-5.7,5-7.9c2.1-2.2,4.7-3.9,7.7-5.1c3-1.2,6.3-1.8,9.9-1.8c3.6,0,6.8,0.6,9.5,1.7c2.8,1.2,5.1,2.7,7.1,4.6l-3.1,4.2
		c-0.2,0.3-0.4,0.5-0.7,0.7c-0.3,0.2-0.7,0.3-1.2,0.3c-0.3,0-0.7-0.1-1.1-0.3c-0.4-0.2-0.8-0.4-1.2-0.7c-0.4-0.3-0.9-0.6-1.5-0.9
		c-0.6-0.3-1.2-0.6-2-0.9c-0.7-0.3-1.6-0.5-2.6-0.7c-1-0.2-2.1-0.3-3.4-0.3c-2.2,0-4.2,0.4-6,1.2c-1.8,0.8-3.4,1.9-4.7,3.4
		c-1.3,1.5-2.3,3.3-3.1,5.4c-0.7,2.1-1.1,4.5-1.1,7.2c0,2.7,0.4,5.2,1.2,7.3c0.8,2.1,1.8,3.9,3.2,5.4c1.3,1.5,2.9,2.6,4.7,3.3
		c1.8,0.8,3.8,1.2,5.8,1.2c1.2,0,2.4-0.1,3.4-0.2c1-0.1,1.9-0.3,2.8-0.6c0.9-0.3,1.7-0.7,2.4-1.1c0.8-0.5,1.5-1,2.3-1.7
		c0.2-0.2,0.5-0.4,0.7-0.5C136.7,256.6,137,256.6,137.2,256.6L137.2,256.6z"/>
	<path fill="#1E3D72" d="M184.9,243.7c0-2.7-0.4-5.1-1.1-7.2c-0.7-2.1-1.8-3.9-3.1-5.4c-1.3-1.5-3-2.6-4.9-3.4
		c-1.9-0.8-4.1-1.2-6.5-1.2c-2.4,0-4.6,0.4-6.5,1.2c-1.9,0.8-3.5,1.9-4.9,3.4c-1.3,1.5-2.4,3.3-3.1,5.4c-0.7,2.1-1.1,4.5-1.1,7.2
		c0,2.7,0.4,5.1,1.1,7.2c0.7,2.1,1.8,3.9,3.1,5.4c1.3,1.5,3,2.6,4.9,3.4c1.9,0.8,4.1,1.2,6.5,1.2c2.4,0,4.6-0.4,6.5-1.2
		c1.9-0.8,3.5-1.9,4.9-3.4c1.3-1.5,2.4-3.3,3.1-5.4C184.6,248.8,184.9,246.4,184.9,243.7L184.9,243.7z M194.3,243.7
		c0,3.6-0.6,6.9-1.8,9.9c-1.2,3-2.9,5.7-5,7.9c-2.2,2.2-4.8,4-7.9,5.2c-3.1,1.2-6.5,1.9-10.2,1.9c-3.7,0-7.1-0.6-10.2-1.9
		c-3.1-1.2-5.7-3-7.9-5.2c-2.2-2.2-3.9-4.9-5.1-7.9c-1.2-3-1.8-6.3-1.8-9.9c0-3.6,0.6-6.9,1.8-9.9c1.2-3,2.9-5.7,5.1-7.9
		c2.2-2.2,4.8-4,7.9-5.2c3.1-1.2,6.5-1.9,10.2-1.9c2.5,0,4.8,0.3,7,0.9c2.2,0.6,4.2,1.4,6.1,2.4c1.8,1,3.5,2.3,4.9,3.8
		c1.5,1.5,2.7,3.2,3.7,5c1,1.8,1.8,3.8,2.3,6C194,239.1,194.3,241.3,194.3,243.7L194.3,243.7z"/>
	<path fill="#1E3D72" d="M243.8,219.4V268h-4.7c-0.7,0-1.3-0.1-1.8-0.4c-0.5-0.2-1-0.6-1.4-1.2l-25.7-32.4c0.1,1.5,0.2,2.8,0.2,4.1
		V268h-8.1v-48.6h4.8c0.4,0,0.7,0,1,0.1c0.3,0,0.5,0.1,0.7,0.2c0.2,0.1,0.4,0.2,0.6,0.4c0.2,0.2,0.4,0.4,0.7,0.8l25.8,32.6
		c-0.1-0.8-0.1-1.6-0.2-2.3c0-0.8-0.1-1.5-0.1-2.1v-29.6H243.8L243.8,219.4z"/>
	<path fill="#1E3D72" d="M296.2,219.4V268h-4.7c-0.7,0-1.3-0.1-1.8-0.4c-0.5-0.2-1-0.6-1.4-1.2l-25.7-32.4c0.1,1.5,0.2,2.8,0.2,4.1
		V268h-8.1v-48.6h4.8c0.4,0,0.7,0,1,0.1c0.3,0,0.5,0.1,0.7,0.2c0.2,0.1,0.4,0.2,0.6,0.4c0.2,0.2,0.4,0.4,0.7,0.8l25.8,32.6
		c-0.1-0.8-0.1-1.6-0.2-2.3c0-0.8-0.1-1.5-0.1-2.1v-29.6H296.2L296.2,219.4z"/>
	<polygon fill="#1E3D72" points="316.4,226.6 316.4,240.1 333.6,240.1 333.6,247 316.4,247 316.4,260.8 338.2,260.8 338.2,268 
		307.2,268 307.2,219.4 338.2,219.4 338.2,226.6 316.4,226.6 	"/>
	<path fill="#1E3D72" d="M379,256.6c0.5,0,0.9,0.2,1.3,0.6l3.6,3.9c-2,2.4-4.5,4.3-7.4,5.6c-2.9,1.3-6.4,2-10.5,2
		c-3.7,0-6.9-0.6-9.8-1.9c-2.9-1.2-5.4-2.9-7.5-5.1c-2.1-2.2-3.6-4.8-4.7-7.9c-1.1-3-1.6-6.4-1.6-10c0-3.7,0.6-7,1.8-10
		c1.2-3,2.8-5.7,5-7.9c2.1-2.2,4.7-3.9,7.7-5.1c3-1.2,6.3-1.8,9.9-1.8c3.6,0,6.8,0.6,9.5,1.7c2.8,1.2,5.1,2.7,7.1,4.6l-3.1,4.2
		c-0.2,0.3-0.4,0.5-0.7,0.7c-0.3,0.2-0.7,0.3-1.2,0.3c-0.3,0-0.7-0.1-1.1-0.3c-0.4-0.2-0.8-0.4-1.2-0.7c-0.4-0.3-0.9-0.6-1.5-0.9
		c-0.6-0.3-1.2-0.6-2-0.9c-0.7-0.3-1.6-0.5-2.6-0.7c-1-0.2-2.1-0.3-3.4-0.3c-2.2,0-4.2,0.4-6,1.2c-1.8,0.8-3.4,1.9-4.7,3.4
		c-1.3,1.5-2.3,3.3-3.1,5.4c-0.7,2.1-1.1,4.5-1.1,7.2c0,2.7,0.4,5.2,1.2,7.3c0.8,2.1,1.8,3.9,3.2,5.4c1.3,1.5,2.9,2.6,4.7,3.3
		c1.8,0.8,3.8,1.2,5.8,1.2c1.2,0,2.4-0.1,3.4-0.2c1-0.1,1.9-0.3,2.8-0.6c0.8-0.3,1.7-0.7,2.4-1.1c0.8-0.5,1.5-1,2.3-1.7
		c0.2-0.2,0.5-0.4,0.7-0.5C378.5,256.6,378.7,256.6,379,256.6L379,256.6z"/>
	<polygon fill="#1E3D72" points="424.6,226.8 409.7,226.8 409.7,268 400.6,268 400.6,226.8 385.8,226.8 385.8,219.4 424.6,219.4 
		424.6,226.8 	"/>
	<polygon fill="#1E3D72" points="454.7,268 445.5,268 445.5,219.4 454.7,219.4 454.7,268 	"/>
	<polygon fill="#1E3D72" points="500,226.8 485.2,226.8 485.2,268 476,268 476,226.8 461.2,226.8 461.2,219.4 500,219.4 500,226.8 	
		"/>
</g>
</svg>
