<?xml version="1.0" encoding="utf-8"?>
<!-- Generator: Adobe Illustrator 22.0.1, SVG Export Plug-In . SVG Version: 6.00 Build 0)  -->
<svg version="1.1" id="Layer_1" xmlns="http://www.w3.org/2000/svg" xmlns:xlink="http://www.w3.org/1999/xlink" x="0px" y="0px"
	 viewBox="0 0 500 500" enable-background="new 0 0 500 500" xml:space="preserve">
<g>
	<path fill="#FFFFFF" d="M135.1,423.1l4.9,3.1v13.4H360v-13.4l4.8-3C418.2,385,450,324.3,450,260.4c0-27-5.3-53.2-15.7-77.9
		c-10.1-23.8-24.5-45.2-42.9-63.6c-18.4-18.4-39.8-32.8-63.6-42.9C303.2,65.7,277,60.4,250,60.4s-53.2,5.3-77.9,15.7
		c-23.8,10.1-45.2,24.5-63.6,42.9c-18.4,18.4-32.8,39.8-42.9,63.6C55.3,207.2,50,233.4,50,260.4C50,324.3,81.8,384.9,135.1,423.1"/>
	<path fill="#1D2E5C" d="M250,65.7c-107.8,0-195.2,87.4-195.2,195.2c0,66.3,34.5,124.9,85.1,160.2v-33.9l17.1-12.6
		c-3.8-3.1-7.4-6.4-10.9-9.8c-27.7-27.7-43-64.6-43-103.9c0-39.2,15.3-76.1,43-103.9s64.6-43,103.9-43s76.1,15.3,103.9,43
		c27.7,27.7,43,64.6,43,103.9c0,39.2-15.3,76.1-43,103.9c-3.5,3.5-7.1,6.8-10.9,9.9l17.2,12.6v33.9c50.5-35.3,85.1-93.9,85.1-160.2
		C445.2,153.1,357.8,65.7,250,65.7"/>
	<path fill="#FFFFFF" d="M81.5,260.4l17.1-13.7c3.2-35.3,18.5-68,43.9-93.4c28.7-28.7,66.9-44.6,107.6-44.6s78.8,15.8,107.6,44.6
		c25.2,25.2,40.5,57.8,43.9,92.8l20,14.3l18.3-14.7c-1.6-20.3-6.4-40.1-14.4-58.9c-9.6-22.7-23.3-43-40.8-60.5
		c-17.5-17.5-37.8-31.2-60.5-40.8c-23.5-9.9-48.4-15-74.1-15c-25.7,0-50.6,5-74.1,15c-22.7,9.6-43,23.3-60.5,40.8
		c-17.5,17.5-31.2,37.8-40.8,60.5c-8,18.8-12.8,38.6-14.4,59L81.5,260.4z"/>
	<polygon fill="#1D2E5C" points="104.5,193.5 105.7,194 100.9,205.9 83,198.7 87.7,187 88.9,187.5 84.7,197.9 91.7,200.7 
		95.4,191.6 96.5,192.1 92.8,201.2 100.2,204.2 	"/>
	<polygon fill="#1D2E5C" points="93.1,181.8 107.7,189.8 107,191 90.1,181.7 90.6,180.8 112,177.1 97.2,168.9 97.8,167.7 114.7,177 
		114.1,178.1 	"/>
	<path fill="#1D2E5C" d="M123.1,159.8c0.6,2.7,0.2,5.1-1.3,7.1c-3.1,4.2-9.3,4.4-13.2,1.6c-4.1-3-5.7-8.7-2.7-12.9
		c2.3-3.1,5-4,7.7-3.5l-0.1,1.3c-2.8-0.4-5,0.8-6.6,3c-2.7,3.7-0.9,8.5,2.5,11c3.7,2.7,8.9,2.2,11.4-1.3c1.4-1.9,1.7-4.2,1-7.1
		l-3-2.2l-2.6,3.5l-0.9-0.7l3.3-4.5l7.6,5.5l-0.7,1L123.1,159.8z"/>
	<path fill="#1D2E5C" d="M120.2,141l4.5,10l5.7-6.3L120.2,141z M127.2,159.3l-8.7-19.1l0.8-0.8l19.8,7l-1,1.1l-6.5-2.3l-6.2,6.8
		l2.9,6.3L127.2,159.3z"/>
	<path fill="#1D2E5C" d="M149.8,133.1c-0.1,2.8-1,5-2.9,6.6c-4,3.4-10.1,2.2-13.3-1.5c-3.3-3.9-3.6-9.8,0.3-13.2
		c2.9-2.5,5.8-2.7,8.3-1.6l-0.4,1.2c-2.7-1-5.1-0.4-7.1,1.4c-3.5,3-2.9,8.1-0.1,11.3c3,3.4,8.1,4.2,11.4,1.4
		c1.8-1.5,2.6-3.7,2.6-6.7l-2.4-2.8L143,132l-0.7-0.8l4.2-3.7l6.1,7.1l-0.9,0.8L149.8,133.1z"/>
	<polygon fill="#1D2E5C" points="165.5,124.1 166.3,125.2 155.7,132.4 144.8,116.5 155.1,109.4 155.9,110.4 146.6,116.8 150.9,123 
		159,117.5 159.7,118.5 151.6,124 156.1,130.6 	"/>
	
		<rect x="168.1" y="121.4" transform="matrix(0.86 -0.5103 0.5103 0.86 -38.9124 103.2493)" fill="#1D2E5C" width="1.2" height="2.3"/>
	<path fill="#1D2E5C" d="M178.6,97c3.1-1.4,6.1-0.8,8.2,1L186,99c-2.3-1.9-4.9-1.7-7-0.8c-4.5,2-5.2,7.1-3.5,10.8
		c1.8,4.1,6.6,6.5,10.5,4.7c2.1-0.9,4.1-3.1,4.3-6l1.3,0c0,3.2-2.4,6-5.1,7.2c-4.8,2.1-10.3-1-12.3-5.4
		C172.3,105.2,173.3,99.3,178.6,97"/>
	<path fill="#1D2E5C" d="M203,107.3c4.4-1.4,6-6.4,4.8-10.4c-1.3-4.2-5.6-7.2-9.8-5.9c-4.4,1.4-6,6.3-4.8,10.4
		C194.5,105.7,198.7,108.7,203,107.3 M191.9,101.9c-1.5-4.9,0.9-10.5,5.8-12c5.1-1.6,10.1,2.1,11.5,6.7c1.5,5-0.8,10.5-5.7,12
		C198.3,110.1,193.4,106.6,191.9,101.9"/>
	<polygon fill="#1D2E5C" points="232.4,102.2 229.7,85.8 224.3,99.8 223.4,100 213.8,88.3 216.5,104.8 215.1,105 212.1,86 
		213.4,85.8 223.6,98.1 229.3,83.2 230.7,83 233.7,102 	"/>
	<path fill="#1D2E5C" d="M239.4,93.2l6.7-0.2c2.5-0.1,4-2.5,3.9-4.9c-0.1-2.5-2.1-4.7-4.4-4.6l-6.5,0.2L239.4,93.2z M238.3,101.8
		l-0.7-19.3l7.9-0.3c3.3-0.1,5.7,2.8,5.8,5.8c0.1,3.1-2,6.1-5.2,6.2l-6.7,0.2l0.3,7.3L238.3,101.8z"/>
	<polygon fill="#1D2E5C" points="270.8,101.4 270.7,102.6 257.9,101.5 259.5,82.3 272.1,83.4 272,84.6 260.8,83.7 260.1,91.2 
		269.9,92.1 269.8,93.3 260,92.4 259.4,100.4 	"/>
	<polygon fill="#1D2E5C" points="290.7,88 283.7,86.6 280.4,104.4 279,104.1 282.4,86.4 275.4,85.1 275.7,83.8 290.9,86.7 	"/>
	<polygon fill="#1D2E5C" points="302.5,108.9 302.2,110.1 289.9,106.4 295.4,87.9 307.5,91.5 307.1,92.7 296.4,89.5 294.2,96.8 
		303.6,99.6 303.2,100.7 293.8,97.9 291.6,105.6 	"/>
	
		<rect x="304.6" y="109.7" transform="matrix(0.3495 -0.9369 0.9369 0.3495 95.5515 358.2462)" fill="#1D2E5C" width="2.3" height="1.2"/>
	<polygon fill="#1D2E5C" points="328.1,120.4 327.6,121.5 316.1,115.7 324.8,98.5 336,104.2 335.5,105.3 325.4,100.3 322,107 
		330.8,111.4 330.2,112.5 321.5,108.1 317.9,115.2 	"/>
	<polygon fill="#1D2E5C" points="345,132.8 354.3,119 340.7,125.5 340,125 340.9,110 331.6,123.8 330.5,123.1 341.2,107.1 
		342.4,107.8 341.4,123.8 355.7,116.8 356.9,117.6 346.1,133.6 	"/>
	<path fill="#1D2E5C" d="M356.3,131l5,4.4c1.9,1.7,4.6,1,6.2-0.9c1.7-1.9,1.6-4.8-0.1-6.4l-4.9-4.3L356.3,131z M349.6,136.5
		l12.7-14.5l6,5.2c2.5,2.1,2.2,6,0.3,8.2c-2,2.3-5.6,3.1-8.1,1l-5.1-4.4l-4.8,5.5L349.6,136.5z"/>
	<path fill="#1D2E5C" d="M367.9,152.3c3.1,3.4,8.3,2.7,11.4-0.1c3.3-3,4.1-8.1,1.1-11.4c-3.1-3.4-8.3-2.7-11.4,0.1
		C365.8,144,364.9,149,367.9,152.3 M368.1,140c3.8-3.5,9.9-3.7,13.3,0.1c3.6,4,2.4,10-1.2,13.2c-3.8,3.5-9.8,3.7-13.3-0.1
		C363.4,149.2,364.5,143.3,368.1,140"/>
	<polygon fill="#1D2E5C" points="394.8,157 395.6,158.1 391.4,164.4 398.8,162.9 399.6,164 391,165.8 385.4,174.4 404.2,170.6 
		405.1,171.9 384.5,175.8 383.7,174.8 389.6,165.7 379,167.7 378.3,166.7 389.6,149.1 390.5,150.3 380,166.3 390,164.4 	"/>
	<polygon fill="#1D2E5C" points="396.6,196 395.4,196.5 389.8,185 407.1,176.5 412.6,187.8 411.5,188.3 406.6,178.3 399.8,181.6 
		404.1,190.4 403,190.9 398.7,182.1 391.5,185.7 	"/>
	<path fill="#1D2E5C" d="M405.2,198l2.3,6.4c0.9,2.3,3.6,3.1,5.9,2.2c2.3-0.8,3.8-3.4,3-5.6l-2.3-6.2L405.2,198z M396.7,199.6
		l18.1-6.6l2.8,7.5c1.1,3.1-0.9,6.3-3.7,7.3c-2.7,1-5.7,0.1-7-2.3l-5.4,7.1l-0.5-1.5l5.2-6.9l-2.1-5.9l-6.8,2.5L396.7,199.6z"/>
	<polygon fill="#1D2E5C" points="402.2,215.5 402.5,216.6 404.7,216 404.4,214.9 	"/>
	<rect x="143.1" y="390.9" fill="#1D2E5C" width="213.9" height="45.3"/>
	<path fill="#FFFFFF" d="M157.1,407.1h-3.2v13.2h3.2c3.7,0,5.7-2.9,5.7-6.7C162.8,409.8,160.7,407.1,157.1,407.1 M150.1,423.7v-20.1
		h7c6.3,0,9.5,4.5,9.5,10c0,6.1-3.7,10.1-9.5,10.1H150.1z"/>
	<polygon fill="#FFFFFF" points="182.8,420.3 182.8,423.7 169.5,423.7 169.5,403.7 182.6,403.7 182.6,407.1 173.2,407.1 
		173.2,411.9 181.3,411.9 181.3,415.1 173.2,415.1 173.2,420.3 	"/>
	<path fill="#FFFFFF" d="M193.9,403.5c3.4,0,6,1.8,7.2,4.4l-2.9,2.1c-0.9-2.3-2.8-3-4.5-3c-3.5,0-5.3,3.5-5.3,6.7
		c0,3.6,2.2,6.8,5.4,6.8c1.6,0,3.6-0.9,4.5-3.1l3.1,1.8c-1.2,3-4.6,4.7-7.6,4.7c-5.3,0-9.1-5.3-9.1-10.4
		C184.7,408.7,188.1,403.5,193.9,403.5"/>
	<path fill="#FFFFFF" d="M210.8,407.9L208,416h5.4L210.8,407.9z M201.7,423.7l7.6-20.1h3l7.5,20.1h-3.9l-1.8-5h-6.7l-1.8,5H201.7z"
		/>
	<path fill="#FFFFFF" d="M231.2,413.6h4.7c1.4,0,2.4-1.4,2.4-3.3c0-1.9-1.3-3.3-2.6-3.3h-4.5V413.6z M227.5,423.7v-20.1h8.5
		c3.5,0,6.1,3.4,6.1,6.7c0,2.6-1.4,4.9-3.5,5.9l4.5,7.6h-4.2l-4-6.7h-3.7v6.7H227.5z"/>
	<polygon fill="#FFFFFF" points="246.7,403.7 251.4,413.3 256.2,403.7 260.3,403.7 253.3,416.7 253.3,423.7 249.6,423.7 
		249.6,416.7 242.7,403.7 	"/>
	<polygon fill="#FFFFFF" points="275.5,420.3 275.5,423.7 262.2,423.7 262.2,403.7 275.2,403.7 275.2,407.1 265.9,407.1 
		265.9,411.9 274,411.9 274,415.1 265.9,415.1 265.9,420.3 	"/>
	<path fill="#FFFFFF" d="M282.2,413.6h4.7c1.4,0,2.4-1.4,2.4-3.3c0-1.9-1.3-3.3-2.6-3.3h-4.5V413.6z M278.5,423.7v-20.1h8.5
		c3.5,0,6.1,3.4,6.1,6.7c0,2.6-1.4,4.9-3.5,5.9l4.5,7.6h-4.2l-4-6.7h-3.7v6.7H278.5z"/>
	<path fill="#FFFFFF" d="M308.1,408.9c-0.5-0.6-2.9-2-5.2-2c-2,0-3.1,0.8-3.1,2.3c0,1.6,1.5,2.1,4.4,2.9c3.8,1,6.2,2.3,6.2,5.9
		c0,4.3-3.3,6-7.1,6c-2.9,0-5.8-1-8.1-2.6l1.6-3.4c0.6,0.7,3.5,2.5,6.5,2.5c2,0,3.1-0.7,3.1-2.1c0-1.8-2-2.3-5-3.1
		c-3.6-1-5.4-2.3-5.4-5.4c0-4.1,3.1-6.3,7-6.3c2.7,0,5,1,6.7,2.2L308.1,408.9z"/>
	<path fill="#FFFFFF" d="M321.3,420.4c3.4,0,5.3-3.4,5.3-6.7c0-3.5-2.1-6.7-5.4-6.7c-3.4,0-5.3,3.4-5.3,6.7
		C315.9,417.2,317.9,420.4,321.3,420.4 M312.2,413.7c0-5.3,3.9-10.2,9.2-10.2c5.4,0,9.1,5.2,9.1,10.2c0,5.3-3.8,10.1-9.1,10.1
		C315.8,423.9,312.2,418.9,312.2,413.7"/>
	<polygon fill="#FFFFFF" points="337,410.9 337,423.7 333.3,423.7 333.3,403.7 336.2,403.7 346.2,416.8 346.2,403.7 349.9,403.7 
		349.9,423.7 346.9,423.7 	"/>
	<path fill="#1D2E5C" d="M184.3,224.9c28.6-27.4,55.3-48.8,59.2-51.7c3.9-2.9,5.5-4.6,5.5-4.6s-35.2-31.4-46.3-41.1
		c-5,6.8-25.9,36-46,72.1c-18.3,32.8-34.1,80.9-39.5,98.9C128.6,285.2,161.3,247,184.3,224.9"/>
	<path fill="#FBD206" d="M286.6,195.1c32,32.5,54.6,60.4,54.6,60.4l41.3-45.8c-6.8-5.6-33.4-26.2-83.4-50
		c-43.8-20.8-76.1-29.5-89-32.4C222.6,137.5,260.3,168.4,286.6,195.1"/>
	<path fill="#FFFFFF" d="M283,253.6l-0.3-0.5l-0.5-0.4c-1.6-1.3-3.6-2.6-5.9-3.8v-6.1l-0.2-0.4c-0.2-0.6-2.5-5.4-12.8-7.1v-59.1
		l1-0.8l-0.2-0.3c1.3-1.6,2.1-3.5,2.1-5.5c0-2.7-1.3-5.2-3.6-7.1l-0.1-0.1l-0.2-0.1c-0.2-0.1-0.5-0.3-0.9-0.5v-32.8
		c0-1.3-0.7-2.5-2-3.4v-10.6c0-0.8-0.2-1.6-0.6-2.2V78c0-2.8-1.6-4.8-3.8-4.8c-2.2,0-3.8,2.1-3.8,4.8v34.6c-0.5,0.8-0.8,1.7-0.8,2.6
		v10.6c-1.3,0.8-2,2-2,3.4v32.7c-0.2,0.1-0.3,0.1-0.4,0.2l-0.1,0.1l-0.1,0.1c-2.6,1.8-4.1,4.5-4.1,7.4c0,2,0.7,3.9,2,5.5l0.1,0.1
		v60.7c-8.8,2.3-11.4,7.2-11.7,7.7l-0.2,0.5v5.4c-2.5,1.3-4.6,2.7-6.1,3.8l-0.6,0.4l-0.3,0.7c-0.3,0.7-0.4,1.4-0.4,2l0,0.8
		c0.1,2.5,0.1,6,0.4,8.9l0.1,0.6l0,0l0.1,0.5l0.3,3.3l0.3-0.2c0.1,0.4,0.3,0.8,0.5,1.1c0.5,0.9,1.1,1.7,1.8,2.4
		c-0.4,1.2-0.7,2.7-0.7,4.5c0,5.6,5.6,10.4,14.8,12.8l0,0.6l-1.8,47.8l8.6,7.6l4.9-4.3l13.3-11.8l-1.1-38.7l-0.1-1.3
		c8.7-2.3,14.1-7,14.3-12.4c0.1-1.1,0.3-3.9-0.7-5.9c0.5-0.8,0.9-1.8,1.2-2.9l0.1,0.1l0.2-1.9c0-0.1,0-0.3,0.1-0.4l0.1-1.3l0,0
		l0.1-0.8c0.1-0.6,0.1-1.3,0.2-1.9C283.7,258.7,284,255.7,283,253.6"/>
	<path fill="#1D2E5C" d="M279.2,271.5c0.5-0.7,1-2.4,1.2-4.6c-4.3-3.5-12.4-8-24.4-8c-12.6,0-21.7,5.4-26.4,9c0.2,1.1,0.4,2,0.7,2.5
		c0.5,0.9,1.1,1.6,1.6,2c4.1-4.1,11.9-8.1,24.1-8.1C267.5,264.3,275,267.7,279.2,271.5"/>
	<path fill="#1D2E5C" d="M280.6,264.7c0.4-4.3,1-8.2,0.1-10c-4.5-3.5-12.7-8.2-24.7-8.2c-12.7,0-22,5.2-26.8,8.8
		c-0.1,0.4-0.2,0.7-0.2,1.1c0.1,2.5,0.1,6.4,0.4,9.5c5-3.9,13.8-8.7,26.7-8.7C267.8,257.2,275.8,261,280.6,264.7"/>
	<path fill="#1D2E5C" d="M278.5,273c-3.7-3.5-11.2-7.4-22.6-7.4c-11.5,0-19.5,4.5-23.3,8.3c-0.4,0.9-0.9,2.5-0.9,4.5
		c0,4.7,5.8,8.8,14.1,10.6l0.3-6.1c0,0,1.1-5,9.4-5c8.3,0,10,5.2,10,5.2l0.3,5.8c8.1-1.9,13.6-5.9,13.6-10.5c0,0,0.4-3.2-0.5-4.6
		C278.8,273.5,278.6,273.2,278.5,273"/>
	<path fill="#1D2E5C" d="M254.8,171.4c3.6,0,5.9,1.7,7,2.7c1.2-1.2,2-2.8,2-4.5c0-2-1-3.8-2.7-5.1c-1.1-0.6-3.3-1.6-6.2-1.6
		c-2.7,0-4.5,0.7-5.6,1.3c-1.9,1.3-3.1,3.2-3.1,5.4c0,1.4,0.5,2.8,1.4,3.9C248.9,172.7,251.4,171.4,254.8,171.4"/>
	<path fill="#1D2E5C" d="M254.8,162c1.5,0,2.9,0.3,4.1,0.7v-33.5c0-0.8-0.8-1.4-2-1.8v-12.2c0-0.6-0.2-1.1-0.6-1.5V78
		c0-1.3-0.6-2.3-1.3-2.3s-1.3,1-1.3,2.3v35.5c-0.5,0.4-0.8,1-0.8,1.7v12.2c-1.2,0.4-2,1-2,1.8v33.4C252.1,162.2,253.4,162,254.8,162
		"/>
	<path fill="#1D2E5C" d="M260.8,237.5v-62.5c0,0,0.1-0.1,0.1-0.1c0,0-1.8-2.6-6.1-2.6c-4.3,0-6.6,2-6.6,2v63.6l0,0
		c-9.6,1.8-11.9,6.8-11.9,6.8v4.3c5-2.3,11.6-4.1,19.8-4.1c7.2,0,13.1,1.6,17.7,3.6v-5.2C273.8,243.3,271.9,238.6,260.8,237.5"/>
	<path fill="#1D2E5C" d="M266.4,330l-1.1-37.6l-0.5-9.2c0,0-1.4-3.5-6.7-4.4v58.6L266.4,330z"/>
	<path fill="#1D2E5C" d="M250.8,343.9l2.4-2.1v-63c-5.2,0.8-6.2,4.3-6.2,4.3l-0.5,8.9l-1.7,46.6L250.8,343.9z"/>
	<path fill="#1D2E5C" d="M331.6,275.9c-36.8,38.7-77,73.1-77,73.1s32.6,28.1,46.5,39.4c4.9-5.9,25.6-32.5,47.5-80
		c21.1-45.8,31.9-83.3,34.8-94.1C376.3,224.2,358.9,247.1,331.6,275.9"/>
	<path fill="#FBD206" d="M213.5,319.5c-39.2-38.7-55.8-60.1-55.8-60.1s-31.3,35.2-40.9,45.6c4.1,3.2,36.1,28.1,86.6,51.6
		c42.3,19.7,76.9,28.7,90.5,31.9C279.7,377.6,244.1,349.7,213.5,319.5"/>
	<path fill="#1D2E5C" d="M258.1,390.9h10.2l0-5.8c-3.5-0.9-6.9-1.8-10.1-2.8V390.9z"/>
	<path fill="#1D2E5C" d="M253.2,380.7c-3.7-1.2-7.2-2.4-10.2-3.5l-0.4,13.6h10.5V380.7z"/>
</g>
</svg>
