<?xml version="1.0" encoding="utf-8"?>
<!-- Generator: Adobe Illustrator 22.0.1, SVG Export Plug-In . SVG Version: 6.00 Build 0)  -->
<svg version="1.1" id="Layer_1" xmlns="http://www.w3.org/2000/svg" xmlns:xlink="http://www.w3.org/1999/xlink" x="0px" y="0px"
	 viewBox="0 0 500 500" enable-background="new 0 0 500 500" xml:space="preserve">
<g>
	<polygon fill="#121821" points="125.2,115.5 125.2,174.3 112,174.3 112,115.5 99,115.5 99,103.9 138.1,103.9 138.1,115.5 
		125.2,115.5 	"/>
	<polygon fill="#121821" points="143.7,174.3 143.7,103.9 177.4,103.9 177.4,115.2 156.8,115.2 156.8,132.7 171,132.7 171,143 
		156.8,143 156.8,162.6 177.4,162.6 177.4,174.3 143.7,174.3 	"/>
	<path fill="#121821" d="M210.8,123c0-5.1-2.1-7.8-7-7.8h-6.2V163h6.2c4.9,0,7-2.7,7-7.7V123L210.8,123z M204.8,174.3h-20.3v-70.4
		h20.3c12.4,0,19.2,7.9,19.2,19v33C224,167.1,217.1,174.3,204.8,174.3L204.8,174.3z"/>
	<path fill="#121821" d="M193,202.1c0-3.2-1.4-5.1-4.7-5.1h-7.2v20.7h6.7c3.4,0,5.2-1.8,5.2-5.6V202.1L193,202.1z M200.6,257.1
		c-5.2,0-7.2-4.2-7.2-10.4v-13.2c0-3.3-1.7-6-5.4-6h-6.9v29.2H168v-70.4h21.7c9.6,0,16.1,5.5,16.1,15.3v9.9c0,5.3-2.4,9.2-7.9,10.9
		c5.5,1.5,8.1,6.1,8.1,10.7V246c0,3.3,1,5.5,2.5,7.2v3.9H200.6L200.6,257.1z"/>
	<path fill="#121821" d="M240.5,203c0-4.1-2.4-6.9-6.8-6.9c-4.2,0-6.7,2.7-6.7,6.9v36.8c0,4.1,2.4,6.9,6.7,6.9
		c4.3,0,6.8-2.7,6.8-6.9V203L240.5,203z M233.7,258.2c-12.3,0-20-8-20-19.2v-35.1c0-11.1,7.7-19.1,20-19.1c12.4,0,20,8,20,19.1V239
		C253.7,250.2,246.1,258.2,233.7,258.2L233.7,258.2z"/>
	<path fill="#121821" d="M294.1,256.6l-1.8-5.6c-2.3,4.7-7.2,7.2-12.9,7.2c-11.6,0-18.1-8.2-18.1-18.4V203c0-9.6,7.4-18.3,20.1-18.3
		c12.7,0,19.5,8.3,19.5,18.3v7.3h-12.6v-7.8c0-3.4-2.1-6.3-6.8-6.3c-4.7,0-6.9,3.1-6.9,6.6v37.5c0,3.5,2.4,6.6,7,6.6
		c4.6,0,7-3.1,7-6.6v-9.8h-6.9v-9.5h19.6v35.7H294.1L294.1,256.6z"/>
	<polygon fill="#121821" points="309.2,256.6 309.2,186.2 342.9,186.2 342.9,197.5 322.3,197.5 322.3,215 336.5,215 336.5,225.3 
		322.3,225.3 322.3,244.9 342.9,244.9 342.9,256.6 309.2,256.6 	"/>
	<path fill="#121821" d="M374.9,202.1c0-3.2-1.4-5.1-4.7-5.1h-7.2v20.7h6.7c3.4,0,5.2-1.8,5.2-5.6V202.1L374.9,202.1z M382.5,257.1
		c-5.2,0-7.2-4.2-7.2-10.4v-13.2c0-3.3-1.7-6-5.4-6h-6.9v29.2h-13.1v-70.4h21.7c9.6,0,16.1,5.5,16.1,15.3v9.9
		c0,5.3-2.4,9.2-7.9,10.9c5.5,1.5,8.1,6.1,8.1,10.7V246c0,3.3,0.9,5.5,2.5,7.2v3.9H382.5L382.5,257.1z"/>
	<g>
		<defs>
			<rect id="SVGID_46_" x="50" y="103.9" width="400" height="292.2"/>
		</defs>
		<clipPath id="SVGID_2_">
			<use xlink:href="#SVGID_46_"  overflow="visible"/>
		</clipPath>
		<path clip-path="url(#SVGID_2_)" fill="#121821" d="M413.9,258.2c-12.1,0-19.6-7.2-19.6-18.2v-4.9h12v4.1c0,5.2,2.4,8,7.2,8
			c4.7,0,7-2.8,7-7.1c0-5.6-3.6-9.4-10.6-14.6c-7.2-5.2-15-12.2-15-22c0-10.2,6.6-18.9,19.2-18.9c11.1,0,18.5,7.6,18.5,18.1v4.5h-12
			v-4.2c0-4.3-2.2-7.5-6.7-7.5c-3.8,0-6.4,2.4-6.4,6.3c0,5.9,3.5,9,11.3,14.7c8.4,6.2,14.3,12.6,14.3,22.1
			C433.4,250.1,425.6,258.2,413.9,258.2L413.9,258.2z"/>
		<path clip-path="url(#SVGID_2_)" fill="#00A0B0" d="M69.6,340.4c-12.1,0-19.6-7.2-19.6-18.2v-4.9h12.1v4.1c0,5.2,2.4,8,7.2,8
			c4.7,0,7-2.7,7-7.1c0-5.6-3.6-9.4-10.6-14.6c-7.2-5.2-15-12.2-15-22c0-10.2,6.6-18.9,19.2-18.9c11.1,0,18.5,7.6,18.5,18.1v4.5h-12
			v-4.2c0-4.3-2.2-7.5-6.7-7.5c-3.8,0-6.3,2.4-6.3,6.3c0,5.9,3.5,9,11.3,14.7c8.3,6.2,14.3,12.6,14.3,22.1
			C89,332.2,81.2,340.4,69.6,340.4L69.6,340.4z"/>
	</g>
	<path fill="#00A0B0" d="M115.7,340.4c-12.6,0-20.3-8.5-20.3-19.4v-34.9c0-10.9,7.7-19.4,20.3-19.4c12.5,0,19,7.8,19,18.4v8.6H123
		v-8.5c0-4.1-2.3-7-7.1-7c-4.8,0-7.2,2.9-7.2,6.8v37c0,3.9,2.4,6.8,7.2,6.8c4.8,0,7.1-2.9,7.1-7v-8.5h11.7v8.6
		C134.7,332.6,128.2,340.4,115.7,340.4L115.7,340.4z"/>
	<polygon fill="#00A0B0" points="169.9,338.8 169.9,309.9 155.2,309.9 155.2,338.8 142.1,338.8 142.1,268.4 155.2,268.4 
		155.2,298.2 169.9,298.2 169.9,268.4 183.1,268.4 183.1,338.8 169.9,338.8 	"/>
	<path fill="#00A0B0" d="M218.2,285.2c0-4.1-2.4-6.9-6.8-6.9c-4.2,0-6.7,2.7-6.7,6.9V322c0,4.1,2.4,6.9,6.7,6.9
		c4.3,0,6.8-2.8,6.8-6.9V285.2L218.2,285.2z M211.4,340.4c-12.3,0-20-8-20-19.2V286c0-11.1,7.7-19.1,20-19.1c12.4,0,20,8,20,19.1
		v35.1C231.4,332.3,223.8,340.4,211.4,340.4L211.4,340.4z"/>
	<path fill="#00A0B0" d="M265.8,285.2c0-4.1-2.4-6.9-6.8-6.9c-4.2,0-6.7,2.7-6.7,6.9V322c0,4.1,2.4,6.9,6.7,6.9
		c4.3,0,6.8-2.8,6.8-6.9V285.2L265.8,285.2z M259,340.4c-12.3,0-20-8-20-19.2V286c0-11.1,7.7-19.1,20-19.1c12.4,0,20,8,20,19.1v35.1
		C279,332.3,271.4,340.4,259,340.4L259,340.4z"/>
	<polygon fill="#00A0B0" points="287.3,338.8 287.3,268.4 300.4,268.4 300.4,327.2 320.1,327.2 320.1,338.8 287.3,338.8 	"/>
	<polygon fill="#00A0B0" points="184,395.1 184,363.9 182.3,373.3 177.7,395.1 171.6,395.1 167.3,373.3 165.6,363.9 165.6,395.1 
		158.4,395.1 158.4,352.1 169.2,352.1 173.7,373.9 175,381.9 176.4,373.9 180.8,352.1 191.6,352.1 191.6,395.1 184,395.1 	"/>
	<path fill="#00A0B0" d="M207.6,363.7l-2.9,16.6h5.5L207.6,363.7L207.6,363.7z M212.6,395.1l-1.4-8.5h-7.6l-1.6,8.5h-7.5l8.7-43h9
		l8.6,43H212.6L212.6,395.1z"/>
	<polygon fill="#00A0B0" points="242.5,395.1 234.2,376.8 231.1,369.9 231.1,395.1 223.8,395.1 223.8,352.1 230.7,352.1 
		238.6,370.8 241.5,377.6 241.5,352.1 248.7,352.1 248.7,395.1 242.5,395.1 	"/>
	<path fill="#00A0B0" d="M264.7,363.7l-2.9,16.6h5.5L264.7,363.7L264.7,363.7z M269.8,395.1l-1.4-8.5h-7.6l-1.6,8.5h-7.5l8.7-43h9
		l8.6,43H269.8L269.8,395.1z"/>
	<path fill="#00A0B0" d="M300.1,395.1l-1.1-3.4c-1.4,2.8-4.4,4.4-7.9,4.4c-7.1,0-11-5-11-11.2v-22.5c0-5.9,4.5-11.2,12.3-11.2
		c7.8,0,11.9,5.1,11.9,11.2v4.5h-7.7v-4.8c0-2.1-1.3-3.9-4.1-3.9c-2.8,0-4.2,1.9-4.2,4v22.9c0,2.1,1.5,4,4.3,4c2.8,0,4.3-1.9,4.3-4
		v-6h-4.2v-5.8h12v21.8H300.1L300.1,395.1z"/>
	<polygon fill="#00A0B0" points="309.3,395.1 309.3,352.1 329.9,352.1 329.9,359 317.3,359 317.3,369.7 326,369.7 326,376 
		317.3,376 317.3,388 329.9,388 329.9,395.1 309.3,395.1 	"/>
	<polygon fill="#00A0B0" points="359.8,395.1 359.8,363.9 358,373.3 353.5,395.1 347.4,395.1 343,373.3 341.4,363.9 341.4,395.1 
		334.2,395.1 334.2,352.1 345,352.1 349.4,373.9 350.8,381.9 352.2,373.9 356.6,352.1 367.3,352.1 367.3,395.1 359.8,395.1 	"/>
	<polygon fill="#00A0B0" points="372.9,395.1 372.9,352.1 393.5,352.1 393.5,359 380.9,359 380.9,369.7 389.6,369.7 389.6,376 
		380.9,376 380.9,388 393.5,388 393.5,395.1 372.9,395.1 	"/>
	<polygon fill="#00A0B0" points="416.5,395.1 408.1,376.8 405.1,369.9 405.1,395.1 397.7,395.1 397.7,352.1 404.6,352.1 
		412.6,370.8 415.4,377.6 415.4,352.1 422.7,352.1 422.7,395.1 416.5,395.1 	"/>
	<polygon fill="#00A0B0" points="442.1,359.2 442.1,395.1 434,395.1 434,359.2 426.1,359.2 426.1,352.1 450,352.1 450,359.2 
		442.1,359.2 	"/>
	<path fill="#00A0B0" d="M111.7,362.3c0-2.5-1.5-4.2-4.1-4.2c-2.6,0-4.1,1.7-4.1,4.2v22.5c0,2.5,1.5,4.2,4.1,4.2
		c2.6,0,4.1-1.7,4.1-4.2V362.3L111.7,362.3z M107.6,396c-7.5,0-12.2-4.9-12.2-11.8v-21.5c0-6.8,4.7-11.7,12.2-11.7
		c7.6,0,12.2,4.9,12.2,11.7v21.5C119.8,391.1,115.1,396,107.6,396L107.6,396z"/>
	<polygon fill="#00A0B0" points="132.9,358.8 132.9,370.1 141.8,370.1 141.8,376.8 132.9,376.8 132.9,395.1 124.9,395.1 124.9,352 
		145,352 145,358.8 132.9,358.8 	"/>
</g>
</svg>
