<?xml version="1.0" encoding="utf-8"?>
<!-- Generator: Adobe Illustrator 22.0.1, SVG Export Plug-In . SVG Version: 6.00 Build 0)  -->
<svg version="1.1" id="Layer_1" xmlns="http://www.w3.org/2000/svg" xmlns:xlink="http://www.w3.org/1999/xlink" x="0px" y="0px"
	 viewBox="0 0 500 500" enable-background="new 0 0 500 500" xml:space="preserve">
<g>
	<path fill="#ADE169" d="M109,87.1c5.3-7.6,9.7-15.7,15.3-23c4,8.4,7.4,17.1,11.1,25.6c12.7,29.8,25.4,59.6,38.3,89.4
		c0.4,1.2,0.7,2.5,1.1,3.8c-5.8,1.5-11.7,2.8-17.4,4.8c-12.3,3.4-24.7,6.2-37,9.5c0-0.1,0-0.3-0.1-0.4c-4.3-33.1-8.2-66.3-12.2-99.5
		C107.8,93.9,106.8,90,109,87.1 M217,280.2L217,280.2c9.7,22.4,19.1,44.8,28.8,67.1c2.6,6.9,6,13.6,8.5,20.5
		c-3.1-1.9-4.9-5.2-7.2-7.9c-9.1-10.6-18.4-21-27-31.9c-1.4-1.7-2.8-3.5-4.7-4.7c-3,1.5-5.6,3.6-8.4,5.3c-4,2.5-8.3,4.3-12.3,6.7
		c-8.2,5.2-16.9,9.5-25,14.8c-3.5,2.4-7.7,3.7-10.9,6.6c-1.7,2.8-1.9,6.1-3,9.2c-3.7,11.7-7.5,23.3-10.8,35
		c-2.7-22.3-5.4-44.5-8.1-66.8c-0.3-1.9-0.3-3.8-0.4-5.6C163.3,312.4,190.2,296.4,217,280.2L217,280.2z"/>
	<path fill="#7DCBD5" d="M368.2,131.6c5.9-1.5,11.7-3.4,17.6-4.5c4.5,0.5,8.7,2.1,13.2,3c8.8,2.5,17.7,4.3,26.5,6.7
		c7.3,2,14.8,3.3,22.1,5.7c-11.7,6.7-23.2,13.6-34.7,20.5c-11.8,7.2-23.8,14-35.5,21.2c-10.5,6.3-20.9,12.6-31.5,18.6
		c-3.5-4.2-7.3-8.1-10.6-12.5c-0.2,0-0.7,0.1-0.9,0.1c-0.8-0.7-1.5-1.5-2.3-2.2c-0.1,7.7,0,15.4-0.1,23.1
		c-1.3-7.5-0.1-15.2-0.6-22.8c-0.2,7.7-0.1,15.4,0,23.1c-4.4,2.6-8.8,5.3-13.2,7.9c-0.7-0.1-1.4-0.2-2.1-0.3c-0.6-4-2.8-7.5-5-10.9
		c-6-9.1-15.8-15.2-26.3-17.8c-5.8-1.5-11.8-2-17.7-1.9c-8.3,0-16.5,0.1-24.7-0.1c0,25.5,0.1,51-0.1,76.6c-1.2-3-0.5-6.3-0.7-9.4
		c-0.1-22.4,0.1-44.9-0.1-67.3c-0.2,25.7-0.1,51.4,0,77.1c-8.3,4.7-16.4,9.8-24.6,14.8l0-0.1c-5.9-13.9-11.7-27.9-17.9-41.7
		c-2.3-6.4-5.7-12.2-7.9-18.6c-1.4-3.7-3.3-7.1-4.5-10.9c-2-6.2-5.8-11.6-7.8-17.8c-0.8-2.4-2-4.7-2.6-7.2c0.5-0.7,1.1-1.3,1.6-1.9
		c7.8-2.7,15.9-4.2,23.8-6.5C257.3,161.2,312.7,146.2,368.2,131.6 M120.4,196.7c0,0.1,0,0.3,0.1,0.4c0.3,3.3,0.6,6.6,1.1,9.8
		c1,5.7,1.2,11.5,1.8,17.3c2.8,14.9,2.8,30.3,5.9,45.1c0.4,7.4,1.9,14.7,2.5,22.2c0.6,7.2,2.2,14.3,2.5,21.5
		c0.2,5.4,1.8,10.6,1.4,16c-3.8,2.4-7.6,4.6-11.5,6.9c-4.1-33.5-8.1-67.1-12.2-100.6c-0.8-6.7-1.5-13.5-2.5-20.1
		c-21,1.3-42,3.6-63,5.3c-5.9,0.4-11.7,1.4-17.6,1.4c13-3.9,26.2-7,39.2-10.6c15-3.8,29.8-8,44.8-11.8
		C115.4,198.7,118.2,198.4,120.4,196.7 M257.5,201.9c7.7,0.1,15.5-0.6,23.1,1.3c6.8,1.7,13.3,5.5,17.3,11.4
		c2.9,4.1,4.3,8.9,5.3,13.8c-11.3,6.9-22.7,13.8-34.2,20.6c-3.8,2.3-7.5,4.7-11.5,6.8C257.5,237.8,257.6,219.9,257.5,201.9
		 M43.6,237.4c17.6-1.3,35.1-3.2,52.6-4.4c0.4,7.8,1.6,15.6,2.4,23.3c1.9,14.5,3.6,29.1,5.5,43.6c1.3,6.6,1.4,13.4,2.8,20
		c-2.8,0.5-5.6,0.7-8.4,0.8c-14.1,1.5-28.2,2.7-42.3,4.2c-2.1,0.2-4.2-0.1-6.1-0.7c-7.6-2.3-15.1-4.8-22.7-7
		c-1.4-0.2-1.4-1.8-1.7-2.8c-2.7-15.1-5.5-30.3-8.6-45.4c4.9-8,10.2-15.7,15.2-23.7c1.6-2.4,2.8-5,4.8-7.1
		C39.3,237.7,41.5,237.7,43.6,237.4L43.6,237.4z"/>
	<path fill="#61C19C" d="M174.8,182.8c1-0.2,2.1-0.4,3.1-0.6c-0.6,0.6-1.1,1.2-1.6,1.9c0.6,2.5,1.8,4.7,2.6,7.2
		c2,6.2,5.8,11.6,7.8,17.8c1.2,3.7,3,7.2,4.5,10.9c2.3,6.4,5.7,12.2,7.9,18.6c6.3,13.8,12,27.8,17.9,41.7
		c-26.8,16.1-53.8,32.1-80.5,48.4c-0.2,0.1-0.6,0.4-0.8,0.5c0.4-5.4-1.2-10.6-1.4-16c-0.3-7.2-1.9-14.3-2.5-21.5
		c-0.6-7.4-2.1-14.7-2.5-22.2c-3.1-14.9-3.1-30.2-5.9-45.1c-0.6-5.8-0.8-11.5-1.8-17.3c-0.6-3.3-0.8-6.5-1.1-9.8
		c12.3-3.3,24.7-6.1,37-9.5C163.1,185.6,169,184.3,174.8,182.8L174.8,182.8z"/>
	<path fill="#343434" d="M242.5,188.6c8.2,0.2,16.5,0,24.7,0.1c6-0.1,11.9,0.4,17.7,1.9c10.5,2.6,20.3,8.7,26.3,17.8
		c2.1,3.4,4.4,6.8,5,10.9c0.7,0.1,1.4,0.2,2.1,0.3c-0.5,0.2-1,0.3-1.5,0.5c2.9,9.2,3,19.3,1,28.7c-2.6,11.6-10,22.2-20.5,27.9
		c-8.2,4.8-17.8,6.6-27.2,6.8c-9.2,0-18.4,0-27.6,0c0-6.1,0.1-12.2,0-18.3C242.6,239.6,242.5,214.1,242.5,188.6 M257.5,201.9
		c0.1,18,0,35.9,0.1,53.9c0,4.8,0,9.6,0,14.4c7.4-0.1,14.9,0.5,22.2-1.2c7.8-1.7,15.3-6.3,19.3-13.4c4.8-8.1,5.2-18,4.2-27.1
		c-1-4.9-2.4-9.7-5.3-13.8c-4-5.9-10.5-9.7-17.3-11.4C273,201.3,265.2,202.1,257.5,201.9 M407.8,206.3c5.3-6,10.1-12.5,15.9-18.1
		c0,31.8,0,63.5,0,95.3c-4.6-0.1-9.3-0.1-13.9,0c0-20.1,0-40.1,0-60.2c-10.6,12.7-21.3,25.4-31.9,38.1c-10.8-12.5-21.2-25.5-32-38.1
		c0.1,20.1,0,40.1,0,60.2c-4.6-0.1-9.2-0.1-13.9,0c0-24.1,0-48.2,0-72.3c0.1-7.7,0-15.4,0.1-23.1c0.8,0.7,1.5,1.5,2.3,2.2
		c5.9,6.2,11.1,12.9,16.7,19.3c9,10.4,18.1,20.7,27,31.2C388,229.4,397.8,217.8,407.8,206.3 M437.1,188.7
		c20.1-0.1,40.2,0.1,60.3-0.1c0,4.5,0,8.9,0,13.4c-15.2-0.1-30.3,0-45.5-0.1c0,13.1,0,26.2,0,39.4c13.4,0,26.8,0,40.3,0
		c0,4.3,0,8.6,0,13c-13.4-0.1-26.8,0-40.3,0c0,5.3,0,10.7,0,16c15.8,0.1,31.6,0.1,47.4,0c-0.2,4.4-0.2,8.9,0,13.3
		c-20.8-0.1-41.6,0-62.4-0.1C437.2,251.8,436.9,220.2,437.1,188.7 M242.3,293.9c85.7,0,171.4,0,257,0c0.1,0.5,0.2,1.4,0.2,1.9
		c-85.2-0.1-170.3,0-255.4,0C242.6,296.1,242.3,295.1,242.3,293.9 M243,306.2c3-0.1,6.4-0.7,9.2,1c3.8,2.7,3.6,9.1,0.1,11.9
		c-2.7,1.8-6.1,1.6-9.2,1.4C243,315.8,243,311,243,306.2 M244.9,307.7c0,3.8-0.1,7.6,0,11.4c1.9-0.2,4,0.2,5.6-1
		c2.6-1.4,2.6-4.9,1.9-7.4C251.2,307.7,247.6,307.5,244.9,307.7 M257.4,306.1c0.5,0,1.4,0.1,1.9,0.2c0,4.7-0.1,9.4,0,14.1
		c-0.6,0-1.3,0-1.9,0C257.4,315.7,257.4,310.9,257.4,306.1 M264.8,307.3c2.3-1.7,5.4-1.4,8-0.9c0.1,0.4,0.3,1.1,0.4,1.5
		c-2,0.4-4.2-0.8-6.1,0.2c-4.4,1.5-4.5,8.7-0.3,10.5c1.5,0.4,3.1,0.1,4.6,0.2c0-1.4,0-2.8,0-4.2c-1,0-2-0.1-3-0.1
		c0.1-0.4,0.3-1.1,0.4-1.5c1.6-0.2,3.1-0.1,4.7-0.1c0,2.4,0.1,4.7,0,7.1c-2.8,0.6-5.9,1.2-8.5-0.3
		C260.5,317.3,260.5,310,264.8,307.3 M276.3,306.2c0.5,0,1.4,0.1,1.9,0.1c0,4.7,0,9.4,0,14.1c-0.7,0-1.3,0.1-1.9,0.1
		C276.4,315.7,276.3,310.9,276.3,306.2 M279.8,306.3c3.6-0.1,7.2-0.2,10.7,0c0.1,0.4,0.4,1.2,0.5,1.6c-1.5,0-3.1,0-4.6,0
		c0,4.2,0,8.3,0,12.5c-0.7,0.1-1.4,0.1-2.1,0.2c0-4.2,0-8.4,0-12.6C282.8,307.6,279.7,308.8,279.8,306.3 M294.5,306.2
		c0.6,0,1.7,0,2.3,0c1.7,4.8,3.3,9.7,5,14.5c-2.9,0.5-2.9-2.7-3.8-4.6c-1.6,0-3.2,0-4.8,0c-0.5,1.4-1,2.9-1.4,4.3
		c-0.7,0-1.4,0-2.2,0.1C291.2,315.7,292.8,310.9,294.5,306.2 M293.5,314.6c1.3,0,2.7,0,4,0c-0.6-2.1-1.4-4.2-2-6.3
		C295,310.4,294.3,312.5,293.5,314.6 M303.8,306.2c0.5,0,1.5,0,2,0c0,4.2,0,8.4,0,12.6c2.1,0,4.1,0,6.2,0.1c0,0.4-0.1,1.2-0.1,1.6
		c-2.7,0-5.4,0-8.2,0C303.9,315.7,303.7,310.9,303.8,306.2 M324,306.2c0.8,0,1.7,0,2.5,0.1c1.2,3.8,2.7,7.5,3.7,11.3
		c1.2-3.8,2.6-7.5,3.9-11.3c0.9,0,1.7-0.1,2.6-0.1c0.3,4.8,0.8,9.5,0.8,14.3c-0.6,0-1.2-0.1-1.9-0.1c-0.4-3.8-0.5-7.7-0.6-11.6
		c-1.7,4-2.6,8.4-4.7,12.2c-0.3-0.4-1-1.2-1.3-1.6c-1.2-3.4-2.6-6.8-3.1-10.4c-0.1-0.9-1-0.4-1.5-0.3l1.2,0.5
		c-0.4,3.7-0.2,7.4-0.9,11.1c-0.4,0.1-1.3,0.3-1.7,0.4C323.2,315.8,323.7,311,324,306.2 M340.4,306.2c2.5,0,5.1-0.2,7.6,0
		c0.1,0.4,0.4,1.2,0.5,1.6c-2.1,0-4.1,0-6.1,0.1c0,1.5,0,2.9,0,4.4c1.9,0,3.7,0,5.6,0c0,0.4,0,1.3,0,1.7c-1.9,0-3.7,0-5.6,0
		c0,1.6,0,3.2-0.1,4.8c2.2,0,4.3,0,6.5,0c-0.1,0.4-0.3,1.2-0.4,1.6c-2.7,0.2-5.4,0.1-8.1,0C340.5,315.7,340.4,310.9,340.4,306.2
		 M351,306.3c3.5-0.2,7.7-0.8,10.4,1.9c2.9,3.5,1.9,10.1-2.6,11.8c-2.5,0.9-5.2,0.7-7.8,0.6C351,315.8,350.9,311,351,306.3
		 M352.9,307.7c0,3.8,0.1,7.5-0.1,11.3c2,0,4.2,0.3,5.9-1c2.4-1.8,2.5-5.4,1.3-7.9C358.7,307.5,355.4,307.5,352.9,307.7
		 M365.2,306.2c0.5,0,1.5,0,2,0c0,4.8,0,9.7,0,14.5c-0.5-0.1-1.4-0.3-1.9-0.4C365.1,315.6,365.2,310.9,365.2,306.2 M369.4,320.4
		c1.7-4.7,3.3-9.5,4.9-14.2c0.6,0,1.8,0,2.4,0c1.7,4.8,3.4,9.5,4.9,14.4c-0.8-0.1-1.5-0.1-2.3-0.2c-0.5-1.5-1-2.9-1.5-4.4
		c-1.6,0-3.2-0.1-4.7,0.1c-0.7,1.4-1.1,2.9-1.5,4.3C370.9,320.4,370.1,320.4,369.4,320.4 M373.4,314.5c1.4,0,2.8,0.1,4.2,0.1
		c-0.7-2.1-1.4-4.1-2.1-6.2C374.8,310.4,374.1,312.5,373.4,314.5 M392.8,306.2c2.6,0,5.2,0,7.8,0c0,0.6,0.1,1.1,0.1,1.7
		c-2,0-4,0-5.9,0.1c0,1.4-0.1,2.9-0.1,4.3c1.9,0,3.8,0,5.8,0.1c0,0.4,0,1.2,0,1.6c-1.9,0-3.8,0-5.8,0.1c0,1.6,0,3.2,0,4.8
		c2.2,0,4.3,0,6.5,0.1c0,0.4-0.1,1.2-0.2,1.6c-2.7,0-5.5,0-8.2,0C392.8,315.7,392.8,311,392.8,306.2 M402.6,306.1
		c0.6,0,1.7,0.1,2.2,0.2c1.4,1.7,2.3,3.7,3.3,5.6c1-1.9,2-3.8,3.1-5.6c0.6,0,1.8-0.1,2.5-0.1c-1.3,2.4-3.1,4.6-4.3,7
		c1.2,2.6,2.9,4.9,4.3,7.4c-0.6-0.1-1.9-0.2-2.6-0.2c-1-1.9-2.1-3.8-3.2-5.6c-1,1.9-1.9,3.9-3.2,5.6c-0.8,0.2-1.5,0.3-2.3,0.4
		c1.4-2.5,2.9-4.9,4.5-7.3C405.5,310.9,403.9,308.6,402.6,306.1 M415.7,306.2c2.5,0,5.4-0.7,7.7,0.9c2.1,1.9,1.8,5.9-0.9,7.2
		c-1.5,0.9-3.2,0.6-4.8,0.7c0,1.9,0,3.7,0,5.6c-0.7-0.1-1.4-0.1-2-0.2C415.8,315.7,415.8,310.9,415.7,306.2 M417.7,307.6
		c0,1.9,0,3.8,0,5.7c1.5-0.2,3.6,0.3,4.6-1.3c1-1.1,0.2-2.5-0.1-3.7C420.7,307.8,419.2,307.6,417.7,307.6 M427.1,306.2
		c2.5,0,5.1-0.1,7.6,0.1c0.1,0.4,0.3,1.2,0.4,1.6c-2,0-4,0-6,0.1c0,1.5,0,2.9,0,4.4c1.8,0,3.7,0,5.5,0.1c0,0.4-0.1,1.2-0.1,1.6
		c-1.8,0.1-3.6,0-5.5,0c0,1.6,0,3.2,0,4.8c2.2,0,4.5,0,6.7,0.4c-0.3,0.4-0.6,0.9-1,1.3c-2.6,0-5.3,0-7.9,0
		C427.1,315.7,427.1,310.9,427.1,306.2 M437.6,306.2c2.8,0.1,6.3-0.9,8.4,1.6c1.6,1.9,0.5,4.8-1.7,5.8c1.9,1.9,2.2,4.7,2.9,7.1
		c-3.1,0.5-2.6-3.1-3.5-5c-0.7-1.6-2.6-1.1-4-1.4c0,2,0,4,0.1,6.1c-0.7,0.1-1.5,0.1-2.2,0.2C437.7,315.7,437.6,311,437.6,306.2
		 M439.7,307.6c0,1.7,0,3.5,0,5.2c1.3-0.1,2.8,0,4-0.6c1-0.8,1.6-2.6,0.5-3.6C443,307.3,441.2,307.7,439.7,307.6 M449.1,306.3
		c0.5,0,1.5-0.1,2.1-0.1c0,4.8,0,9.6,0.1,14.4c-0.5-0.1-1.5-0.2-2-0.2C448.9,315.7,449.2,311,449.1,306.3 M454.5,306.2
		c2.5,0,5.1-0.1,7.6,0c0.1,0.4,0.3,1.2,0.4,1.6c-2,0-4,0-6,0c0,1.5-0.1,2.9-0.1,4.4c2,0,4,0,6,0.1c-0.1,0.4-0.4,1.1-0.6,1.5
		c-1.8,0.2-3.6,0.1-5.3,0.1c0,1.6,0,3.2,0,4.8c2.1,0,4.1,0,6.2,0.1c0,0.4,0,1.2,0,1.6c-2.7,0-5.4,0-8.1,0
		C454.5,315.7,454.5,311,454.5,306.2 M465.2,306.1c0.9,0.2,2.1-0.2,2.5,0.8c2.3,3.5,4.5,7.1,6.5,10.8c-0.3-3.8-0.2-7.7-0.2-11.5
		c0.5,0,1.4,0.1,1.9,0.1c0,4.7-0.1,9.5,0,14.2c-0.8-0.1-1.8,0.3-2.3-0.4c-2.5-3.6-4.7-7.4-6.8-11.2c0.2,3.9,0.2,7.8,0.1,11.7
		c-0.6-0.1-1.2-0.2-1.9-0.2C465.2,315.6,465.1,310.8,465.2,306.1 M481.5,307.2c2.2-1.5,5.1-1,7.6-1c-0.1,0.7-0.1,1.4-0.2,2
		c-1.7-0.3-3.4-1-5-0.1c-4.7,1.3-4.7,9.3,0,10.6c1.7,0.3,3.4,0,5.1-0.2c0,0.6,0.1,1.1,0.2,1.7c-2.6,0.3-5.6,0.9-7.9-0.8
		C477,316.8,477.2,309.8,481.5,307.2 M491.5,306.2c2.5,0,5.1-0.2,7.6,0c0.1,0.4,0.4,1.2,0.5,1.6c-2,0.1-4,0-6,0c0,1.5,0,2.9,0,4.4
		c1.8,0,3.7,0,5.5,0c0,0.4,0,1.2,0,1.6c-1.9,0.1-3.7,0.1-5.6,0.1c0,1.6,0,3.2,0,4.8c2.1,0,4.1,0,6.2,0.1c0,0.4-0.1,1.2-0.1,1.6
		c-2.7,0-5.5,0-8.2,0C491.6,315.7,491.5,311,491.5,306.2 M369.8,328.3c2.2-0.2,5.5-0.8,6.6,1.7c0.9,1.6-0.3,3-1.3,4.1
		c1.1,1.7,1.5,3.6,2,5.5c-2.1,0-2-2.3-2.7-3.8c-0.3-1.4-2.1-0.9-3.1-1.4c0,1.6,0,3.2-0.1,4.8c-0.4,0.1-1.1,0.3-1.4,0.3
		C369.9,335.8,369.9,332,369.8,328.3 M371.3,329.3c0,1.4,0,2.9,0,4.3c1.5-0.1,4-0.2,3.9-2.2C375.4,329.4,372.8,329.3,371.3,329.3
		 M377.4,328c2.9,0.1,3.2,3.6,4.5,5.5c1.3-2,1.7-5.3,4.5-5.5c-1.1,2.3-2.6,4.3-3.7,6.5c-0.4,1.7-0.1,3.4-0.2,5.1
		c-0.5-0.1-1-0.2-1.5-0.3c0-1.4,0.1-2.9,0-4.3C380.1,332.5,378.6,330.3,377.4,328 M387.5,328.3c2.1,0,4.2,0,6.3,0
		c-0.1,0.3-0.3,0.9-0.3,1.2c-1.5,0-3,0-4.5,0c0,1.1,0,2.3,0,3.4c1.6,0.2,4-0.8,4.8,1.2c-1.6,0.1-3.2,0.1-4.8,0.2c0,1.3,0,2.6,0,3.8
		c1.8,0.3,4.2-0.8,5.4,1.1c-2.3,0.2-4.6,0.1-6.9,0.2C387.6,335.7,387.6,332,387.5,328.3 M395.8,328.3c2.2-0.1,5-0.8,6.4,1.4
		c1.1,1.5,0,3.3-1.2,4.4c1,1.7,1.4,3.5,1.9,5.4c-0.6-0.1-1.1-0.1-1.6-0.2c-0.3-1.4-0.6-2.8-1.3-4.1c-0.9-0.4-1.9-0.6-2.9-0.7
		c-0.4,1.4,1.1,5.8-1.4,4.7C395.8,335.5,395.9,331.9,395.8,328.3 M397.4,329.2c-0.1,1.4-0.1,2.9-0.1,4.3c0.6,0,1.9,0,2.5-0.1
		c0.4-0.4,0.9-0.8,1.4-1.2c0-0.6,0-1.7-0.1-2.3C399.9,329.6,398.6,329.4,397.4,329.2 M404.6,332.2c-1.3-3.5,4.9-5.9,6.1-2.5
		c-1.7-0.1-4.9-0.9-4.7,1.8c1.1,1.8,3.8,1.9,4.9,3.8c0.5,1.7-0.4,3.7-2.2,4.2c-1.6,0.6-3.3-0.1-4.9-0.5c0.9-2.1,3.2,0.2,4.7-0.9
		c0.9-0.3,1-1.4,0.9-2.2C408,334.3,405.7,333.9,404.6,332.2 M416.1,328.3c1.7-0.7,3.7,0.2,5,1.4c2.3,3,1.7,8.8-2.5,9.8
		c-3.2,1.1-6.5-1.9-6.4-5.1C412.2,331.8,413.5,329,416.1,328.3 M414.9,330.5c-2,2.5-1.3,7.5,2.3,8c3.7-0.4,4.6-5.4,2.5-8
		C418.6,329,416,329,414.9,330.5 M424.6,327.9c0.7,0.4,1.6,0.5,2,1.2c1.8,2.6,3.3,5.4,4.9,8c0-3-0.1-5.9-0.1-8.9
		c0.4,0,1.1,0.1,1.5,0.2c-0.1,3.8,0,7.5-0.1,11.3c-0.7-0.3-1.6-0.4-2-1.2c-1.8-2.6-3.3-5.4-4.9-8.1c-0.1,3,0,5.9,0,8.9
		c-0.3,0-1,0.1-1.4,0.2C424.5,335.7,424.3,331.8,424.6,327.9 M450.5,328.3c0.4,0,1.1,0,1.5,0c-0.1,3.7,0.2,7.4-0.1,11.2
		c-0.3-0.1-1-0.2-1.3-0.3C450.5,335.6,450.6,331.9,450.5,328.3 M454.7,328.3c2.1-0.2,5.1-0.7,6.3,1.6c0.9,1.3-0.3,2.5-1,3.6
		c0.6,0.7,1.5,1.3,1.7,2.3c0.5,1.5-0.9,2.5-1.6,3.6c-1.8,0.2-3.6,0.3-5.4,0.3C454.7,335.8,454.7,332,454.7,328.3 M456.1,329.3
		c0,1.2,0,2.5,0,3.8c1.4-0.2,4-0.1,3.6-2.2C459.6,329.1,457.3,329.6,456.1,329.3 M456.1,334c0,1.5,0,3,0.1,4.5
		c1.8,0.1,3.5-0.5,4.5-2.1C459.8,334.5,458,334,456.1,334 M463.6,328.4c2.1-0.3,4.7-0.8,6.3,0.9c1.2,1.6,0.4,3.7-1,4.8
		c1.1,1.6,1.5,3.6,2,5.5c-0.6-0.1-1.1-0.3-1.7-0.4c-0.3-1.4-0.7-2.8-1.1-4.1c-1-0.2-2-0.4-3-0.6c0,1.7,0,3.4,0,5.2
		c-0.3-0.1-1-0.4-1.3-0.6C463.5,335.5,463.8,332,463.6,328.4 M465.2,329.3c0,1.4,0,2.8,0,4.3c1.5,0,2.8-0.4,4-1.2
		c-0.1-0.6-0.4-1.7-0.5-2.3C467.8,329.1,466.3,329.5,465.2,329.3 M475.6,328.4c0.6,0.1,1.6-0.4,1.9,0.3c1.5,3.5,2.4,7.1,3.8,10.7
		c-0.6,0-1.1,0-1.7,0c-0.3-1.2-0.7-2.3-1-3.5c-1.3,0-2.6,0-3.9,0c-0.6,1.5-0.6,3.9-2.7,3.6C473.1,335.8,474.5,332.1,475.6,328.4
		 M476.5,329.9c-0.5,1.6-1.1,3.2-1.6,4.9c1.1,0,2.2,0,3.3,0.1C477.7,333.2,477.1,331.5,476.5,329.9 M490.6,328.3
		c0.4,0,1.2-0.1,1.6-0.2c1,1.7,1.9,3.5,2.8,5.3c1-1.8,1.9-3.5,2.8-5.3c0.8,0.1,1.5,0.3,2.3,0.4c-0.3,0.1-0.9,0.4-1.2,0.5
		c-1,1.9-2.3,3.7-3,5.7c-0.5,1.6,0.9,4.5-1.5,4.9c-0.2-2,0.5-4.3-0.6-6.1C492.6,331.8,491.6,330.1,490.6,328.3 M442.6,328.3l1.5,0
		c-0.1,3.3,0,6.6-0.1,9.8c1.7,0.3,4.2-0.8,5.2,1.1c-2.2,0.1-4.5,0.1-6.7,0.1C442.7,335.7,442.7,332,442.6,328.3 M482.9,328.3
		c2.2-0.2,5.6-0.8,6.6,1.8c0.8,1.5-0.5,2.8-1.2,4c0.8,1.7,1.4,3.5,1.8,5.3c-0.4,0-1.1-0.1-1.5-0.1c-0.4-1.4-0.6-3-1.5-4.2
		c-0.9-0.3-1.8-0.6-2.8-0.7c-0.4,1.7,1.1,4.9-1.5,5.2C482.9,335.9,482.9,332.1,482.9,328.3 M484.3,329.3c0,1.4,0,2.9,0,4.3
		c1.6-0.1,3.8-0.2,4.1-2.2C488.3,329.3,485.9,329.4,484.3,329.3L484.3,329.3z"/>
	<path fill="#26A8B5" d="M46.5,220.5c21-1.7,42-4,63-5.3c1,6.7,1.8,13.4,2.5,20.1c4.1,33.5,8.1,67.1,12.2,100.6
		c-22.2,2.1-44.3,4.3-66.5,6.4c-3.2,0.2-6.5,1.1-9.6,0.1c-11.9-3.6-23.7-7.3-35.6-10.8c-4.1-22-8.3-44-12.5-66.1
		c-0.2-1,0.7-1.8,1.1-2.6c8.9-13.6,17.6-27.4,26.5-41c0.3,0,1,0,1.3,0C34.8,221.9,40.6,220.9,46.5,220.5 M43.6,237.4
		c-2.1,0.2-4.3,0.2-6.4,0.7c-1.9,2.1-3.2,4.8-4.8,7.1c-4.9,8-10.2,15.7-15.2,23.7c3,15.1,5.8,30.2,8.6,45.4c0.4,1,0.3,2.7,1.7,2.8
		c7.6,2.2,15.1,4.7,22.7,7c2,0.7,4.1,0.9,6.1,0.7c14.1-1.5,28.2-2.6,42.3-4.2c2.8-0.2,5.6-0.3,8.4-0.8c-1.4-6.6-1.5-13.4-2.8-20
		c-2-14.5-3.6-29-5.5-43.6c-0.8-7.8-2.1-15.5-2.4-23.3C78.7,234.2,61.2,236.2,43.6,237.4L43.6,237.4z"/>
	<path fill="#90CF26" d="M207,328.7c2.9-1.7,5.4-3.9,8.4-5.3c1.9,1.2,3.3,3,4.7,4.7c8.7,10.9,18,21.3,27,31.9
		c2.3,2.7,4.1,5.9,7.2,7.9l0.5,0.3c0.3,1.2,0.3,2.5-0.3,3.7c-9.4,21.3-18.4,42.7-27.7,64.1c-3.5-0.6-6.7-2.4-10-3.8
		c-24-10.3-48-20.7-71.9-31.1c3.3-11.8,7.1-23.4,10.8-35c1-3,1.3-6.4,3-9.2c3.1-2.9,7.3-4.2,10.9-6.6c8.1-5.3,16.9-9.6,25-14.8
		C198.7,333,203,331.2,207,328.7 M207.8,342c-11.8,7.2-23.9,13.9-35.8,21c-1.8,1.1-2,3.4-2.8,5.2c-2.8,9.2-5.8,18.4-8.2,27.8
		c19.6,8.7,39.3,17.1,59,25.7c1.8-2.9,3.1-6.1,4.4-9.2c5.4-13.1,11.4-25.9,16.7-39c-2.1-3.7-5.5-6.4-8-9.8
		c-6.4-7.4-12.7-14.9-19.1-22.4c-0.6-0.5-1-1.5-1.9-1.6C210.5,340.3,209.1,341.2,207.8,342L207.8,342z"/>
	<path fill="#BBEC91" d="M207.8,342c1.4-0.8,2.8-1.7,4.3-2.3c0.9,0.1,1.3,1,1.9,1.6c6.3,7.5,12.7,15,19.1,22.4c2.5,3.4,6,6.1,8,9.8
		c-5.3,13.1-11.3,26-16.7,39c-1.3,3.1-2.6,6.3-4.4,9.2c-19.6-8.6-39.4-17-59-25.7c2.4-9.4,5.4-18.5,8.2-27.8c0.7-1.8,1-4.1,2.8-5.2
		C183.9,356,195.9,349.2,207.8,342L207.8,342z"/>
</g>
</svg>
