<?xml version="1.0" encoding="utf-8"?>
<!-- Generator: Adobe Illustrator 22.0.1, SVG Export Plug-In . SVG Version: 6.00 Build 0)  -->
<svg version="1.1" id="Layer_1" xmlns="http://www.w3.org/2000/svg" xmlns:xlink="http://www.w3.org/1999/xlink" x="0px" y="0px"
	 viewBox="0 0 500 500" enable-background="new 0 0 500 500" xml:space="preserve">
<g>
	<path fill="#FFFFFF" d="M374.2,226.2c2.1-2.1,5.1-3.3,8-3.6c3.4-0.2,6.2,2.1,9.1,3.6c-1.1,1.6-2.2,3.2-3.2,4.8
		c-3.2-0.9-6.6-1.2-9.8-0.1c0,1.6,0,3.2,0.1,4.7c4.5,0.5,9.1-0.3,13.6,0.2c5,1.4,7.7,7,7.6,11.9c-0.4,9.4-14,14.5-20.5,7.6
		c-1.6-1.3-1.2-3.7,0.5-4.7c2.4-2.7,5.6,0.5,8.3,1.1c1.4-0.7,2.8-1.5,4.2-2.2c0-1.6-0.1-3.3,0-4.9c-4.3-0.1-8.7,0.5-13-0.1
		C371.7,242.3,368.9,231.6,374.2,226.2 M348.3,242.1c0.6-6.4,7.7-10.8,13.7-9.2c2.6,0.7,4.5,2.7,6.5,4.5c-1.4,1.1-2.7,2.4-4.2,3.3
		c-3.3-0.3-8.7-2.2-9.5,2.6c1.7,4.7,7.2,1.8,10.8,2c9.2-0.6,14.2,12.2,8.3,18.7c-3.3,3.3-8.2,5.2-12.8,4.3c-3.2-0.6-5.2-3.3-7.2-5.5
		c1.6-1.1,3.1-2.4,4.9-3.2c2.7,0.5,5.5,2.8,8.2,1c2.2-0.6,2.6-3,2.4-4.9c-3.7-3.1-8.6,0.2-12.8-1C350.9,253.5,348,247.3,348.3,242.1
		 M324.1,247.4c6.3-2.8,12.6-5.5,19-8.1c0.8,2.2,1.6,4.3,2.4,6.5c-4.2,1.7-8.4,3.5-12.4,5.8c1,1.9,2,3.8,3,5.8
		c3.1-1.3,6.3-2.7,9.4-4c1,2,1.9,3.9,2.9,5.9c-3.2,1.7-6.4,3.3-9.7,4.9c0.8,2,1.6,4,2.4,6c4.5-1.3,8.7-3.1,13-4.8
		c0.9,2.2,1.7,4.3,2.5,6.5c-6.3,2.8-12.6,5.6-19,8.1C333.2,269.1,328.1,258.5,324.1,247.4 M304,257.7c2.7-4.6,8.7-6.5,13.7-4.8
		c3.7,1.4,5.8,5.1,8.1,8.2c-2,1.2-3.9,2.3-5.9,3.5c-2.3-2.3-6.1-7.8-9.3-3.6c-1.9,4.1,0.1,9.1,1.9,13c1.6,3.5,4.7,7.8,9.2,6.5
		c2-2.5,1.8-5.8,2-8.8c2.1-0.5,4.2-1,6.3-1.4c0.2,3.4,0.9,6.8-0.1,10.1c-2,6.1-9.9,9.1-15.6,6.2c-5.3-2.5-8.4-7.8-10.4-13.1
		C302,268.5,301.3,262.5,304,257.7 M276.3,267.9c6.2-2.8,12.4-5.5,18.8-8c1,2,2,3.9,2.9,5.9c-3.9,2-8,3.8-12,5.6
		c0.6,2.1,1.2,4.2,1.9,6.4c3.5-1.1,6.9-2.5,10.3-3.8c0.8,2,1.6,4,2.4,6.1c-3.1,1.5-6.2,3-9.3,4.4c0.8,2.1,1.7,4.2,2.5,6.4
		c4.2-1.7,8.4-3.5,12.7-5c0.9,2.1,1.8,4.3,2.7,6.4c-6.4,2.8-12.7,5.7-19.3,8.1C285.5,289.5,280.5,278.9,276.3,267.9 M250.3,279.2
		c4.8-2.1,9.5-4.7,14.6-6.1c5-1.4,9.4,2.8,11.2,7.1c1.5,3.5,0.2,7.2-0.7,10.7c3.7,3.7,7,7.6,10.4,11.5c-2.2,1-4.3,2-6.6,2.7
		c-4-2.7-6.7-7-10-10.5c-1.4,0.5-2.8,1-4.2,1.5c1.7,4.3,3.6,8.5,5.3,12.9c-2.1,0.9-4.2,1.7-6.3,2.6
		C259.4,300.8,254.6,290.1,250.3,279.2 M259.2,282.2c1,2.7,2,5.3,3,7.9c2.5-0.8,5.6-1.2,7.2-3.6c1-2.5-0.6-6.4-3.6-6.3
		C263.5,280.5,261.4,281.5,259.2,282.2L259.2,282.2z"/>
	<path fill="#020202" d="M116,111.2c38.3-36,91.8-55.6,144.3-52.1C315,62,368.1,89.8,401.1,133.7c9.9,13,18,27.2,24.4,42.2
		c3.4-1.4,6.7-3,10.1-4.3c-1.4-10.1,0-21.2,6.9-29.2c5.7-7.1,14.6-11,23.7-11.4c8.5,0.3,17,3.6,22.9,9.7
		c6.9,6.5,10.6,15.9,10.9,25.2c-0.3,7.7-2.8,15.6-7.9,21.5c-6.1,7.1-15.5,11.3-24.9,10.7c-10.2-0.1-19.1-6.2-25.5-13.7
		c-3.6,1.8-7.4,3.3-11.1,4.9c13.5,41.1,12.6,86.7-2.9,127c-15,40-43.7,74.7-80.4,96.6c-32.6,19.8-71.1,29.9-109.2,28.1
		c-50.6-2.1-100-25.2-134-62.8c-9.8-10.9-18.2-23-25.4-35.8c-4.5,1.8-9,3.5-13.4,5.5c-1.5,3.2-0.6,6.8-1.3,10.2
		c-1.6,8.5-6.5,16.7-14,21.3c-7,4.4-15.9,6.2-24,3.9c-11-2.6-20.3-11.2-24.1-21.8c-2.2-5.3-2-11.2-1.7-16.8
		c1.5-15.2,15.6-28.1,30.9-27.5c12-0.2,23,7.3,29.2,17.3c4-1.6,8.1-3.2,12-5c-15.9-34.8-21.1-74.5-14-112.1
		C65.3,177.1,86.1,139.3,116,111.2 M109.8,137.4C86.4,165.6,72,201.1,69.1,237.6c-2.3,29.7,3.2,59.9,15.6,86.9
		c11.3-4.6,22.5-9.3,33.7-14c4-1.6,7.8-3.8,12.1-4.5c3.2,2.3,5.7,5.5,9.3,7.5c24.2,15.1,48.1,30.7,72.4,45.6
		c-0.7-6.5-2.3-12.8-3.4-19.2c-11-57.4-22.1-114.8-33.1-172.1c-1.9-10.2-4.2-20.3-5.7-30.6c4.8,1.3,10.2,1.7,14.5,4.3
		c22.1,23.4,44.3,46.7,66.4,70c7.3,7.2,13.9,15.2,21.4,22.3c-2-20.5-4.8-40.9-7.2-61.4c4.3-2.2,8.7-4.3,13.2-6
		c14.1,13.9,28.3,27.5,42.4,41.3c3.1,2.9,5.9,6.2,9.3,8.8c2.6-0.2,4.9-1.5,7.2-2.4c25.2-11.1,50.8-21.5,75.9-32.9
		c-4.8-10.8-10.2-21.4-16.9-31.1c-17.3-25.8-41.8-46.7-69.8-60c-25.7-12.3-54.4-18.6-82.8-17.7C192.4,73.5,142.3,97.8,109.8,137.4
		 M461,143.2c-8.5,2.2-14.6,10.8-14.7,19.4c-0.7,10,6,19.9,15.5,23.2c7,2.3,15.5,1,20.6-4.7c8.7-8.2,7.8-23-0.1-31.4
		C477.1,144,468.6,141,461,143.2 M190.5,171.1c13.7,69.1,26.3,138.4,40.3,207.4c-1.8,1.8-3.5,3.7-5.3,5.5c-5.2-2.8-10.1-6.1-15-9.2
		c-26.5-16.8-53-33.5-79.4-50.4c-1.9-1.3-4.2-2.3-6.4-1.1c-11.2,4.5-22.2,9.4-33.4,13.9c14.1,26.1,35.4,48.1,60.6,63.7
		c25.9,16,55.9,25.4,86.3,26.8c54,2.7,108.7-20.6,144.1-61.4c19.1-21.7,32.6-48.1,39.4-76.1c7.6-31.3,6.4-64.7-3.6-95.4
		c-29.6,12.1-58.6,25.5-88.2,37.4c-16.7-17.2-34.1-33.6-51.4-50.3c0.5,11.2,2.5,22.2,3.6,33.4c1.2,12.2,3.5,24.3,3.8,36.5
		c-3.6,2.6-7.3,5-11,7.4c-17.2-17.7-34-35.7-51-53.6C212.7,194.3,202.1,182.2,190.5,171.1 M27.1,328.9c-9.3,1.8-16.4,11-15.9,20.5
		c-0.7,12.8,11.1,25,24.1,23.8c10.4-1.1,18.9-11.1,17.9-21.5C53.8,338.3,40.4,326.2,27.1,328.9L27.1,328.9z"/>
	<path fill="#24A1DB" d="M109.8,137.4c32.5-39.5,82.6-63.8,133.8-65.2c28.5-0.9,57.1,5.3,82.8,17.7c28,13.4,52.5,34.3,69.8,60
		c6.7,9.8,12.1,20.3,16.9,31.1c-25.1,11.4-50.7,21.8-75.9,32.9c-2.3,1-4.7,2.2-7.2,2.4c-3.4-2.6-6.2-5.9-9.3-8.8
		c-14.1-13.8-28.4-27.4-42.4-41.3c-4.5,1.7-8.9,3.8-13.2,6c2.4,20.5,5.2,40.9,7.2,61.4c-7.5-7.1-14.1-15-21.4-22.3
		c-22.1-23.3-44.3-46.6-66.4-70c-4.4-2.6-9.7-2.9-14.5-4.3c1.5,10.3,3.8,20.4,5.7,30.6c11,57.4,22.1,114.8,33.1,172.1
		c1.2,6.4,2.7,12.7,3.4,19.2c-24.3-14.9-48.2-30.5-72.4-45.6c-3.5-1.9-6-5.2-9.3-7.5c-4.3,0.7-8.1,2.9-12.1,4.5
		c-11.2,4.7-22.5,9.4-33.7,14c-12.4-27-17.9-57.2-15.6-86.9C72,201.1,86.4,165.6,109.8,137.4 M190.5,171.1
		c11.6,11.1,22.2,23.2,33.4,34.7c17,17.9,33.8,35.9,51,53.6c3.7-2.4,7.4-4.8,11-7.4c-0.3-12.3-2.6-24.4-3.8-36.5
		c-1.1-11.1-3.2-22.2-3.6-33.4c17.2,16.6,34.6,33.1,51.4,50.3c29.6-12,58.7-25.3,88.2-37.4c10,30.6,11.2,64.1,3.6,95.4
		c-6.8,28-20.3,54.4-39.4,76.1c-35.4,40.9-90.1,64.2-144.1,61.4c-30.4-1.4-60.4-10.8-86.3-26.8c-25.2-15.6-46.5-37.6-60.6-63.7
		c11.2-4.6,22.2-9.4,33.4-13.9c2.2-1.2,4.5-0.2,6.4,1.1c26.4,16.8,53,33.6,79.4,50.4c5,3.1,9.9,6.5,15,9.2c1.8-1.8,3.6-3.7,5.3-5.5
		C216.9,309.4,204.3,240.2,190.5,171.1 M374.2,226.2c-5.3,5.5-2.5,16.2,4.8,18.4c4.3,0.6,8.7-0.1,13,0.1c0,1.6,0,3.3,0,4.9
		c-1.4,0.7-2.8,1.4-4.2,2.2c-2.7-0.6-5.9-3.8-8.3-1.1c-1.7,1-2.1,3.4-0.5,4.7c6.5,6.9,20.1,1.8,20.5-7.6c0.1-4.9-2.6-10.5-7.6-11.9
		c-4.5-0.5-9.1,0.4-13.6-0.2c0-1.6-0.1-3.2-0.1-4.7c3.2-1.1,6.6-0.7,9.8,0.1c1.1-1.6,2.1-3.2,3.2-4.8c-2.9-1.5-5.7-3.8-9.1-3.6
		C379.2,222.9,376.3,224,374.2,226.2 M348.3,242.1c-0.2,5.2,2.7,11.4,8.2,12.5c4.2,1.2,9.1-2.1,12.8,1c0.2,1.9-0.2,4.4-2.4,4.9
		c-2.7,1.8-5.5-0.5-8.2-1c-1.8,0.8-3.3,2.1-4.9,3.2c2,2.2,4,4.9,7.2,5.5c4.6,1,9.6-1,12.8-4.3c5.8-6.5,0.8-19.3-8.3-18.7
		c-3.6-0.2-9.1,2.7-10.8-2c0.9-4.8,6.2-2.9,9.5-2.6c1.5-0.9,2.8-2.1,4.2-3.3c-1.9-1.8-3.8-3.8-6.5-4.5
		C356,231.3,348.9,235.7,348.3,242.1 M324.1,247.4c4,11.1,9.1,21.7,13.7,32.6c6.4-2.6,12.7-5.4,19-8.1c-0.8-2.2-1.7-4.3-2.5-6.5
		c-4.3,1.7-8.6,3.5-13,4.8c-0.8-2-1.6-4-2.4-6c3.3-1.6,6.5-3.1,9.7-4.9c-1-2-1.9-3.9-2.9-5.9c-3.1,1.4-6.3,2.7-9.4,4
		c-1-1.9-2-3.9-3-5.8c3.9-2.3,8.1-4.1,12.4-5.8c-0.8-2.2-1.6-4.4-2.4-6.5C336.7,241.8,330.4,244.6,324.1,247.4 M304,257.7
		c-2.8,4.8-2,10.7-0.2,15.7c2,5.3,5.1,10.6,10.4,13.1c5.7,2.9,13.6-0.1,15.6-6.2c1-3.3,0.3-6.8,0.1-10.1c-2.1,0.4-4.2,0.9-6.3,1.4
		c-0.2,3,0,6.3-2,8.8c-4.5,1.3-7.5-3-9.2-6.5c-1.8-3.9-3.8-8.9-1.9-13c3.2-4.2,6.9,1.3,9.3,3.6c2-1.1,3.9-2.3,5.9-3.5
		c-2.2-3.1-4.3-6.7-8.1-8.2C312.8,251.2,306.7,253.1,304,257.7 M276.3,267.9c4.2,11,9.2,21.6,13.7,32.4c6.6-2.4,12.9-5.3,19.3-8.1
		c-0.9-2.1-1.8-4.3-2.7-6.4c-4.3,1.6-8.5,3.4-12.7,5c-0.8-2.1-1.6-4.2-2.5-6.4c3.1-1.5,6.2-2.9,9.3-4.4c-0.8-2-1.6-4.1-2.4-6.1
		c-3.4,1.3-6.8,2.7-10.3,3.8c-0.6-2.1-1.3-4.2-1.9-6.4c4-1.8,8.1-3.5,12-5.6c-1-2-2-3.9-2.9-5.9
		C288.8,262.4,282.6,265.2,276.3,267.9 M250.3,279.2c4.3,10.9,9.1,21.6,13.8,32.4c2.1-0.8,4.2-1.7,6.3-2.6
		c-1.7-4.3-3.6-8.6-5.3-12.9c1.4-0.5,2.8-1,4.2-1.5c3.3,3.5,5.9,7.8,10,10.5c2.2-0.7,4.4-1.8,6.6-2.7c-3.4-3.9-6.8-7.9-10.4-11.5
		c1-3.4,2.2-7.2,0.7-10.7c-1.8-4.3-6.2-8.5-11.2-7.1C259.8,274.6,255.1,277.1,250.3,279.2 M259.2,282.2c2.2-0.7,4.3-1.7,6.6-1.9
		c3-0.1,4.6,3.7,3.6,6.3c-1.6,2.4-4.7,2.7-7.2,3.6C261.2,287.5,260.2,284.9,259.2,282.2L259.2,282.2z"/>
</g>
</svg>
