<?xml version="1.0" encoding="utf-8"?>
<!-- Generator: Adobe Illustrator 22.0.1, SVG Export Plug-In . SVG Version: 6.00 Build 0)  -->
<svg version="1.1" id="Layer_1" xmlns="http://www.w3.org/2000/svg" xmlns:xlink="http://www.w3.org/1999/xlink" x="0px" y="0px"
	 viewBox="0 0 500 500" enable-background="new 0 0 500 500" xml:space="preserve">
<g>
	<path fill="#F8C74E" d="M278.3,143.7c14.4-7.3,31.5-8.4,46.9-4c12.9,3.7,24.6,11.1,34.1,20.6c2.1,2.1,4.1,4.3,6.1,6.5
		c-6.1,6.2-12.4,12.3-18.5,18.6l-0.1-0.1C324,171.5,301.2,157.5,278.3,143.7 M463.5,191.8c6.5,15.7,12.9,31.5,19.4,47.2
		c-9.7-0.5-19.3-1.4-28.9-2.1c-8.3-0.6-16.6-1.4-24.9-1.8c20.7,12.7,41.5,25.3,62.2,37.9c2.5,1.5,4.9,3.1,7.4,4.4l0.2,0.1
		c0.3,1,0.7,2,1.1,3c-13.3,0-26.6,0-39.9,0c-3.6-8.6-7.3-17.1-10.9-25.7c-13.2,0-26.3,0-39.5,0c-3.5,8.6-7,17.1-10.5,25.6
		c-13.4,0.1-26.8,0-40.2,0c6.8-16.6,13.7-33.2,20.5-49.9c0.6,0.6,1.5,0.5,2.3,0.6c15.3,1.2,30.7,2.2,46,3.5
		c-5.8-3.6-11.8-7.1-17.6-10.8c4.7-2.8,9.4-5.7,14.2-8.4c-0.8,2.3-1.7,4.7-2.5,7c5,0,10,0,15,0c-1.4-4-2.9-8-4.3-12.1
		c8.9-5.3,17.8-10.6,26.7-15.9C460.9,193.8,462.5,193.1,463.5,191.8 M338.5,227.8c5.1-4.4,10.1-8.8,15.3-13.1
		c3.6,4.4,6.3,9.6,7.6,15.2c-7.4-0.6-14.8-1-22.1-1.7C339,228.1,338.8,227.9,338.5,227.8L338.5,227.8z"/>
	<path fill="#185B9A" d="M0.1,145.8c0-2.4,0-4.9,0-7.3c12.4,0,24.7,0,37.1,0c0,8.5,0,17,0,25.5c-7.9-4-15.9-7.9-23.8-11.9
		C8.9,150.2,4.7,147.6,0.1,145.8 M190.2,138.5c14.7,0,29.4,6,39.5,16.8c2,2.1,3.8,4.4,5.4,6.8c-8.5,3.1-16.9,6.5-25.4,9.7
		c-3,1.2-6.1,2.1-9,3.6c-2-2-4.6-3.6-7.4-4.2c-1.9-0.5-3.9-0.4-5.9-0.4c0.3-1.8,0.5-3.5,0.6-5.3
		C188.8,156.5,189.5,147.5,190.2,138.5 M77.5,183.9c5.1,2.4,10.1,5.1,15.3,7.5c7.2,3.7,14.6,7.1,21.8,10.9c0,2,0,4.1,0,6.1
		c-14.7,5.5-29.3,11.2-43.9,16.8c-1.5,0.5-3.1,0.4-4.6,0.4c-2.8-0.1-5.7,0.1-8.5-0.1c-0.1-10.8,0.1-21.5-0.1-32.3c6.7,0,13.3,0,20,0
		C77.5,190.2,77.5,187,77.5,183.9 M132.4,211.1c16.5,8.2,33,16.4,49.6,24.5c0.2-0.2,0.5-0.5,0.7-0.7c-0.1,0.8-0.1,1.7-0.2,2.5
		c-0.2,2.3,0,4.6-0.5,6.8c-4.1,0-8.1,0-12.2,0c0,12.1,0,24.2,0,36.3c-12.5,0-24.9,0-37.4,0C132.4,257.4,132.4,234.3,132.4,211.1
		 M270.7,295.5c1.4-2.5,4.3-3.8,7.1-4.2c4.7-0.7,9.6,1.3,12.7,4.8c-1,1-2,2-3,3c-2.1-2.8-5.8-4.7-9.3-4c-1.9,0.3-3.8,1.8-4,3.8
		c-0.3,1.7,0.8,3.4,2.4,4c3.6,1.6,7.7,1.9,10.9,4.1c2.5,1.7,3.4,5,2.7,7.8c-0.6,2.7-2.9,4.8-5.5,5.7c-5.6,2.2-12.4,0.6-16.4-4
		c1-1,2-2,3-3c1.7,2.6,4.9,4.1,8,4.2c2,0,4.1-0.5,5.5-2c1.5-1.6,1.4-4.4-0.2-5.8c-3.7-2.6-8.8-2.3-12.4-5.1
		C269.5,302.8,269,298.5,270.7,295.5 M312.3,291.4c3.1-0.5,6.4-0.1,9.3,1.3c4,1.9,7,5.7,8,10c0.9,3.9,0.4,8.2-1.7,11.6
		c-3.6,6.4-12.2,9.1-18.8,6.1c-4.1-1.7-7.4-5.4-8.5-9.6c-1-3.7-0.8-7.7,0.9-11.2C303.4,295.3,307.6,292.2,312.3,291.4 M313,295.1
		c-2.8,0.5-5.2,2.3-6.7,4.6c-2.7,4-2.6,9.5,0.1,13.4c2,3.1,5.7,5,9.3,4.7c3.3-0.3,6.4-2.3,8.1-5.2c2.6-4.3,2.2-10.3-1.2-14.1
		C320.3,295.8,316.5,294.4,313,295.1 M410,296.1c5.5-6.4,16.6-6.6,22.3-0.4c-1,1-2,2-3,3c-2.5-3.3-7.1-4.5-11-3.4
		c-4.6,1.4-7.7,6.1-7.7,10.9c-0.1,4.7,2.8,9.5,7.4,11.1c3.9,1.3,8.8,0.2,11.3-3.2c1,1,2,2,3,3c-5.6,5.9-16.1,6-21.8,0.1
		C404.9,311.7,404.7,301.9,410,296.1 M478.2,292.9c5.6-3.3,13.1-1.4,17.3,3.3c-1,1-2,2-3,3c-2.4-3.3-7-5.3-10.9-3.6
		c-2.2,0.9-3.3,3.8-1.9,5.8c1.2,1.7,3.3,2.1,5.2,2.7c3,1,6.4,1.5,8.7,3.9c3.1,3.2,2.3,9.1-1.5,11.5c-5.8,3.9-14.2,2.4-18.7-2.7
		c1-1,2-2,3-3c2.7,3.9,8.5,5.5,12.6,3c2.4-1.4,2.8-5.3,0.4-6.9c-3.9-2.4-9.1-2.1-12.6-5.3C473.3,301.3,474.2,295.2,478.2,292.9
		 M1.3,291.6c1.5,0,3,0,4.5,0c0,4.3,0,8.6,0,12.9c4.6,0,9.2,0,13.7,0c0-4.3,0-8.6,0-12.9c1.5,0,3,0,4.5,0c0,9.9,0,19.7,0,29.6
		c-1.5,0-3,0-4.5,0c0-4.3,0-8.6,0-13c-4.6,0-9.2,0-13.7,0c0,4.3,0,8.6,0,13c-1.5,0-3,0-4.5,0C1.3,311.3,1.3,301.5,1.3,291.6
		 M35.7,291.6c1.5,0,3,0,4.4,0c0,6,0,11.9,0,17.9c0,2.8,0.9,5.9,3.5,7.4c2.6,1.4,6.1,1.4,8.6-0.4c2-1.5,2.8-4.2,2.8-6.6
		c0-6.1,0-12.2,0-18.3c1.5,0,3,0,4.5,0c0,6.1,0,12.2,0,18.4c0,3.3-1,6.8-3.6,9c-2.4,2.1-5.6,2.7-8.7,2.6c-2.9,0-5.9-0.8-8.1-2.8
		c-2.4-2.2-3.5-5.6-3.5-8.9C35.7,303.9,35.7,297.7,35.7,291.6 M70.4,291.6c1.8,0,3.6,0,5.4,0c3.9,7.6,7.8,15.1,11.6,22.7
		c3.9-7.6,7.8-15.1,11.6-22.7c1.8,0,3.6,0,5.5,0c0,9.9,0,19.7,0,29.6c-1.5,0-3,0-4.5,0c0-7.3,0-14.5,0-21.8
		c-3.8,7.2-7.4,14.5-11.2,21.8c-0.9,0-1.7,0-2.6,0c-3.8-7.3-7.5-14.6-11.3-21.9c0,7.3,0,14.6,0,21.9c-1.5,0-3,0-4.5,0
		C70.4,311.3,70.4,301.5,70.4,291.6 M125.6,291.6c0.9,0,1.9,0,2.8,0c4.1,9.9,8.1,19.7,12.2,29.6c-1.6,0-3.3,0-4.9,0
		c-1-2.6-1.9-5.1-3-7.7c-3.8,0-7.7,0-11.5,0c-0.9,2.6-1.9,5.1-2.9,7.7c-1.6,0-3.3,0-4.9,0C117.5,311.3,121.5,301.5,125.6,291.6
		 M122.7,309.7c2.9,0,5.7,0,8.6,0c-1.4-3.8-2.9-7.6-4.3-11.4C125.6,302.2,124.1,305.9,122.7,309.7 M150.3,291.6c1.8,0,3.6,0,5.4,0
		c5.2,7.8,10.5,15.5,15.7,23.3c0-7.8,0-15.5,0-23.3c1.5,0,3,0,4.5,0c0,9.9,0,19.7,0,29.6c-1.8,0-3.6,0-5.4,0
		c-5.3-7.7-10.5-15.5-15.7-23.3c0,7.8,0,15.5,0,23.3c-1.5,0-3,0-4.5,0C150.3,311.3,150.3,301.5,150.3,291.6 M205.3,291.6
		c4.1,0,8.1,0,12.2,0c4.7,0.1,9,3.9,9.7,8.5c1,4.7-1.6,9.8-6.1,11.7c2.1,3.1,4.2,6.2,6.3,9.4c-1.7,0-3.3,0-5,0
		c-2-2.8-3.8-5.7-5.8-8.6c-2.3,0-4.5,0-6.8,0c0,2.9,0,5.7,0,8.6c-1.5,0-3,0-4.5,0C205.3,311.3,205.3,301.5,205.3,291.6 M209.8,295.3
		c0,4.5,0,9.1,0,13.7c2.5-0.1,5.1,0.1,7.6-0.1c3.1-0.3,5.3-3.3,5.4-6.3c0.3-3.1-1.7-6.6-4.9-7.1
		C215.2,295.1,212.5,295.4,209.8,295.3 M238.6,291.6c6.6,0,13.2,0,19.8,0c0,1.2,0,2.4,0,3.7c-5.1,0-10.2,0-15.3,0c0,2.9,0,5.8,0,8.7
		c4.2,0,8.3,0,12.5,0c0,1.3,0,2.5,0,3.8c-4.2,0-8.3,0-12.5,0c0,3.2,0,6.5,0,9.8c5.3,0,10.7,0,16,0c0,1.2,0,2.5,0,3.7
		c-6.8,0-13.7,0-20.5,0C238.6,311.3,238.6,301.5,238.6,291.6 M339.7,291.6c1.5,0,3,0,4.5,0c0,6.1,0,12.2,0,18.3
		c0.1,2.8,1.2,5.9,3.9,7.2c3.1,1.4,7.5,0.9,9.5-2.1c1.7-2.6,1.5-5.8,1.5-8.8c0-4.9,0-9.8,0-14.7c1.5,0,2.9,0,4.4,0
		c0,6.3,0,12.5,0,18.8c0,3.1-1.1,6.3-3.4,8.5c-2.5,2.4-6.3,3-9.7,2.8c-3.1-0.2-6.3-1.3-8.2-3.8c-2-2.5-2.6-5.9-2.5-9
		C339.7,303,339.7,297.3,339.7,291.6 M374.5,291.6c4.1,0,8.2,0,12.3,0c4.7,0.2,8.8,4,9.5,8.6c0.9,4.7-1.6,9.8-6.1,11.6
		c2.1,3.1,4.2,6.3,6.3,9.4c-1.7,0-3.4,0-5.1,0c-1.9-2.9-3.9-5.6-5.7-8.5c-2.3-0.1-4.6,0-6.9,0c0,2.9,0,5.7,0,8.6c-1.5,0-2.9,0-4.4,0
		C374.4,311.3,374.5,301.5,374.5,291.6 M378.9,295.3c0,4.5,0,9.1,0,13.6c2.5,0,5,0.1,7.4,0c3.3-0.2,5.8-3.5,5.6-6.7
		c0.2-3.1-2-6.3-5.1-6.8C384.1,295.1,381.5,295.3,378.9,295.3 M443.5,291.6c6.6,0,13.2,0,19.8,0c0,1.2,0,2.4,0,3.7
		c-5.1,0-10.2,0-15.3,0c0,2.9,0,5.8,0,8.7c4.1,0,8.3,0,12.4,0c0,1.3,0,2.5,0,3.8c-4.1,0-8.3,0-12.4,0c0,3.3,0,6.5,0,9.8
		c5.3,0,10.7,0,16,0c0,1.2,0,2.5,0,3.7c-6.8,0-13.7,0-20.5,0C443.5,311.3,443.5,301.5,443.5,291.6L443.5,291.6z"/>
	<path fill="#084D7F" d="M77.5,138.5c12.4,0,24.8,0,37.1,0c0,21.3,0,42.6,0,63.8c-7.2-3.8-14.6-7.2-21.8-10.9
		c-5.1-2.5-10.1-5.1-15.3-7.5C77.5,168.8,77.5,153.6,77.5,138.5 M132.4,201.6c12.5-4.6,24.9-9.5,37.4-14.2c0,8.2,0,16.4,0,24.6
		c4.9,0,9.8,0,14.7,0c-0.2,1.4-0.4,2.8-0.5,4.2c-0.4,6.3-1,12.5-1.4,18.8c-0.2,0.2-0.5,0.5-0.7,0.7c-16.5-8.2-33-16.4-49.6-24.5
		C132.4,208,132.4,204.8,132.4,201.6 M182.8,236.5c17.5,8.6,34.9,17.3,52.4,26c1.8,0.9,3.5,1.9,5.4,2.5c0,0,0.1,0,0.2,0.1
		c3.5,5.2,7,10.4,10.6,15.6c-14.2,0-28.4,0-42.6,0c-8.1-12.1-16.2-24.2-24.4-36.3c-0.8,0-1.6,0-2.4,0c0.5-2.2,0.4-4.5,0.5-6.8
		C182.6,237.2,182.7,236.7,182.8,236.5 M0.2,252.5c12.3-4.9,24.7-9.5,37-14.3c0,14.1,0,28.3,0,42.4c-12.3,0-24.7,0-37,0
		c0.3-6.3,0-12.5,0.1-18.8C0.2,258.7,0.4,255.6,0.2,252.5L0.2,252.5z"/>
	<path fill="#2671A9" d="M132.4,138.5c19.2,0,38.5,0,57.7,0c-0.7,9-1.4,18-2.1,27c-0.1,1.8-0.2,3.6-0.6,5.3c-5.9,0-11.8,0-17.7,0
		c0,5.5,0,11,0,16.5c-12.5,4.7-24.9,9.6-37.4,14.2C132.4,180.6,132.4,159.5,132.4,138.5 M0.1,145.8c4.6,1.8,8.8,4.4,13.3,6.3
		c7.9,4,15.9,7.9,23.8,11.9c0,9.8,0,19.5,0,29.3c6.8,0,13.5,0,20.3,0c0.2,10.8,0,21.5,0.1,32.3c2.8,0.2,5.7,0,8.5,0.1
		c1.5,0,3.1,0.1,4.6-0.4c14.6-5.6,29.3-11.3,43.9-16.8c0,24,0,48.1,0,72.1c-12.4,0-24.8,0-37.1,0c0-18.3,0-36.6,0-54.9
		c-13.4,0-26.8,0-40.3,0c0,4.2,0,8.3,0,12.5c-12.3,4.8-24.7,9.4-37,14.3c0-0.2,0-0.5,0-0.7C0.1,216.5,0.2,181.1,0.1,145.8
		 M209.8,171.8c8.4-3.2,16.9-6.5,25.4-9.7c9.4,13.9,11.3,32.3,5.5,48c-3.7,10.2-10.8,19.2-19.9,25.1c4.7,7.2,9.6,14.2,14.3,21.3
		c1.8,2.8,3.9,5.5,5.6,8.4c-1.9-0.6-3.6-1.6-5.4-2.5c-17.5-8.6-34.9-17.3-52.4-26c-0.1,0.2-0.3,0.8-0.3,1c0.1-0.8,0.1-1.7,0.2-2.5
		c0.3-6.3,0.9-12.5,1.4-18.8c0-1.4,0.2-2.8,0.5-4.2c3.6-0.1,7.3,0.4,10.7-0.9c4.8-1.8,8.3-6,10-10.8c2.9-8.2,1.8-18.4-4.4-24.9
		C203.7,173.9,206.8,173,209.8,171.8L209.8,171.8z"/>
	<path fill="#E0B22D" d="M404.3,170.7c4.3-10.8,8.8-21.5,13.2-32.2c8.1,0.1,16.2,0,24.4,0.1l-0.2,0.2c-10.3,9-20.7,17.9-31,26.8
		C408.6,167.3,406.7,169.3,404.3,170.7 M307.9,190.7c4.8,1.8,9.8,3.1,14.6,4.8c11.6,4.1,23.2,9.7,31.3,19.2
		c-5.2,4.3-10.2,8.8-15.3,13.1c0.3,0.1,0.5,0.2,0.8,0.3c-2,0.5-3.3,2.2-4.9,3.5c-3,2.5-5.9,5.2-9,7.7c-0.1-0.4-0.2-0.8-0.3-1.2
		c-0.6-3.7-3.3-6.5-6.4-8.4c-5.9-3.6-12.6-5.4-19.1-7.4c-5.3-1.7-10.6-3.6-15.6-6C291.9,207.7,300,199.3,307.9,190.7 M387.9,210.3
		c7.5,4.5,15,9,22.4,13.7c5.8,3.7,11.7,7.1,17.6,10.8c-15.3-1.3-30.7-2.3-46-3.5c-0.8-0.1-1.7,0-2.3-0.6
		C382.4,223.9,385.1,217.1,387.9,210.3 M247.9,252.6c9.2-8.9,18.1-18,27.3-26.9c1.7,3.3,3,6.9,5.4,9.8c3.8,4.7,8.7,8.6,14.1,11.3
		c3.9,1.9,8.2,3.2,12.5,3.1c2.1,0,4.2-0.3,6.2-0.5c-1.4,1.8-3.3,3.2-5.1,4.7c-5.8,5.1-11.7,10.1-17.5,15.1c-3.2,2.8-6.6,5.5-9.7,8.5
		c-5.7-2.2-11.1-5.2-16-8.9C258.7,264.1,253.2,258.4,247.9,252.6L247.9,252.6z"/>
	<path fill="#C4962C" d="M410.7,165.5c10.3-9,20.7-17.8,31-26.8c6.6,16,13.1,32,19.7,48c0.7,1.7,1.3,3.4,2.2,5l-0.1,0.1
		c-1.1,1.3-2.7,2-4.1,2.9c-8.9,5.3-17.8,10.6-26.7,15.9c-1.1-3-2.2-6.1-3.3-9.1c-1.7,4.7-3.3,9.4-5,14.2c-4.8,2.6-9.5,5.6-14.2,8.4
		c-7.4-4.6-14.9-9.1-22.4-13.7c4.1-9.9,8.1-19.8,12.2-29.7c1.4-3.3,2.6-6.7,4.2-10C406.7,169.3,408.6,167.3,410.7,165.5
		 M260.9,160.1c3.9-7.1,10.3-12.6,17.4-16.4c22.9,13.8,45.6,27.8,68.5,41.7c-2.3,2.4-4.7,4.8-7.1,7.1c-3.6-4.8-7.2-9.6-11.8-13.5
		c-5.2-4.6-11.4-8.5-18.4-9.4c-3.8-0.4-7.7-0.1-11.1,1.5c-2.4,1.1-4.4,3.2-4.8,5.9c-0.6,2.9,0.8,5.8,2.9,7.7c3.2,2.9,7.3,4.5,11.3,6
		c-7.9,8.6-15.9,17-23.8,25.6c-6.8-3.3-13.4-7.6-18.4-13.3c-4.4-4.9-7.4-11-8.6-17.4C255.5,177,256.6,167.8,260.9,160.1
		 M334.5,231.7c1.5-1.3,2.9-2.9,4.9-3.5c7.4,0.7,14.8,1.2,22.1,1.7c2.7,12,0.4,25.4-7.7,34.9c-7.9,9.4-20,14.3-32,16.2
		c-13.5,2.1-27.8,1.6-40.7-3.4c3.1-3,6.5-5.6,9.7-8.5c5.8-5.1,11.7-10.1,17.5-15.1c1.7-1.5,3.6-2.9,5.1-4.7c3.5-0.7,7.3-1.7,9.8-4.5
		c1.7-1.8,2.2-4.3,2-6.7c0.1,0.4,0.2,0.8,0.3,1.2C328.5,236.8,331.5,234.2,334.5,231.7 M429.1,235.2c8.3,0.4,16.6,1.2,24.9,1.8
		c9.7,0.6,19.3,1.6,28.9,2.1c5.2,12.9,10.6,25.6,15.7,38.5c-2.6-1.3-4.9-2.9-7.4-4.4C470.6,260.4,449.8,247.9,429.1,235.2
		L429.1,235.2z"/>
	<path fill="#828EB0" d="M0.2,251.8c0,0.2,0,0.5,0,0.7c0.2,3.1,0,6.2,0.1,9.4c-0.1,6.3,0.2,12.5-0.1,18.8c-0.3-1.5-0.1-3-0.2-4.5
		c0-6.3,0-12.5,0-18.8C0,255.5-0.1,253.6,0.2,251.8L0.2,251.8z"/>
	<path fill="#E0B22E" d="M4.5,337.7c4.9-2.9,11.4-1.2,15.1,2.9c-0.9,0.9-1.7,1.8-2.6,2.7c-1.6-2.1-4.1-3.6-6.8-3.7
		c-1.7,0-3.6,0.7-4.5,2.2c-0.6,1.2-0.6,2.7,0.3,3.7c1,1.1,2.4,1.5,3.8,1.9c2.6,0.8,5.4,1.3,7.6,3c2.7,2.2,2.9,6.7,0.6,9.3
		c-1.5,1.8-3.9,2.7-6.2,3c-4.3,0.6-8.7-1-11.6-4.2c0.9-0.9,1.7-1.8,2.6-2.6c2.2,3.2,6.7,4.6,10.3,3.1c1.6-0.7,2.8-2.4,2.5-4.2
		c-0.2-1.2-1.1-2.2-2.2-2.7C10,350.6,6,350.4,3.1,348C0.2,345.2,1,339.8,4.5,337.7 M243.1,337.7c4.9-2.8,11.3-1,15,3
		c-0.9,0.9-1.7,1.8-2.6,2.7c-1.9-2.5-5.1-4.2-8.3-3.5c-1.7,0.3-3.3,1.5-3.4,3.3c-0.3,1.5,0.7,2.9,2,3.5c3.3,1.6,7.3,1.7,10.2,4.1
		c3,2.7,2.6,8-0.7,10.3c-5.1,3.6-12.6,2.3-16.6-2.3c0.9-0.9,1.7-1.8,2.6-2.6c2.3,3.4,7.4,4.8,11,2.7c2.2-1.2,2.5-4.8,0.2-6.2
		c-3.5-2-7.9-1.8-10.9-4.6C238.6,345,239.5,339.6,243.1,337.7 M270.4,337.7c4.9-2.8,11.4-1.1,15.1,2.9c-0.9,0.9-1.7,1.7-2.6,2.6
		c-1.7-2.2-4.3-3.7-7.1-3.7c-1.8,0-3.8,0.9-4.4,2.7c-0.7,1.6,0.2,3.5,1.7,4.2c3.2,1.5,7.1,1.7,10,3.9c2.7,2,3,6.2,1.2,8.9
		c-1.4,2-3.7,3-6,3.4c-4.4,0.9-9.1-0.8-12.2-4.1c0.9-0.9,1.8-1.8,2.6-2.7c2,2.9,6,4.3,9.4,3.3c1.4-0.4,2.7-1.5,3.2-2.9
		c0.5-1.6-0.3-3.4-1.8-4.1c-3.3-1.7-7.3-1.7-10.2-4.1C266,345.5,266.8,339.7,270.4,337.7 M305.7,336.3c4.1-0.1,8.1,1.7,10.7,4.9
		c4.3,5.3,3.7,13.8-1.4,18.3c-4.7,4.5-12.8,4.6-17.7,0.2c-4.9-4.2-5.9-12.1-2.4-17.4C297.3,338.6,301.5,336.4,305.7,336.3
		 M303.6,339.9c-3.4,1-5.9,4.2-6.6,7.6c-1,4.6,1.6,10,6.2,11.6c3.5,1.3,7.6,0,9.8-2.9c3.2-3.8,3-9.8-0.3-13.5
		C310.6,340.1,306.9,338.9,303.6,339.9 M26,336.6c6.6,0,13.3,0,19.9,0c0,1.1,0,2.2,0,3.3c-2.7,0-5.3,0-8,0c0,7.6,0,15.2,0,22.7
		c-1.3,0-2.7,0-4,0c0-7.6,0-15.2,0-22.7c-2.7,0-5.3,0-8,0C26,338.8,26,337.7,26,336.6 M52.3,336.6c1.3,0,2.6,0,4,0
		c0,5.3,0,10.5,0,15.8c0,2.5,0.9,5.3,3.3,6.5c2.5,1.2,5.9,1,7.9-1.1c1.2-1.4,1.8-3.2,1.8-5c0-5.4,0-10.8,0-16.2c1.3,0,2.7,0,4,0
		c0,5.3,0,10.5,0,15.8c0,3.1-0.9,6.5-3.5,8.5c-2.7,2.1-6.5,2.3-9.8,1.8c-2.8-0.5-5.4-2.3-6.5-4.9c-1-2-1.1-4.3-1.1-6.6
		C52.3,346.3,52.3,341.4,52.3,336.6 M82.1,336.6c3.5,0,6.9,0,10.4,0c3.7,0.1,7.2,1.9,9.4,4.9c3.2,4,3.6,10,1.2,14.5
		c-2,3.8-6.1,6.5-10.5,6.6c-3.5,0.1-7,0-10.5,0C82.1,353.9,82.1,345.2,82.1,336.6 M85.9,339.9c0.1,6.5,0,12.9,0,19.4
		c3.6-0.2,7.7,0.8,10.8-1.6c5.1-3.7,5.2-12.1,0.4-16C94,339.1,89.6,340,85.9,339.9 M113.8,336.6c5.8,0,11.6,0,17.4,0
		c0,1.1,0,2.2,0,3.3c-4.5,0-8.9,0-13.4,0c0,2.5,0,5,0,7.5c3.6,0,7.3,0,10.9,0c0,1.1,0,2.2,0,3.4c-3.6,0-7.3,0-10.9,0
		c0,2.9,0,5.7,0,8.6c4.7,0,9.3,0,14,0c0,1.1,0,2.2,0,3.3c-6,0-12,0-17.9,0C113.8,353.9,113.8,345.2,113.8,336.6 M140.9,336.6
		c1.6,0,3.2,0,4.8,0c4.5,6.8,9.2,13.6,13.8,20.4c0-6.8,0-13.6,0-20.5c1.3,0,2.6,0,3.9,0c0,8.7,0,17.3,0,26c-1.6,0-3.1,0-4.7,0
		c-4.6-6.8-9.2-13.6-13.8-20.4c0,6.8,0,13.6,0,20.4c-1.3,0-2.7,0-4,0C140.9,353.9,140.9,345.2,140.9,336.6 M170.5,336.6
		c6.6,0,13.3,0,19.9,0c0,1.1,0,2.2,0,3.3c-2.6,0-5.3,0-7.9,0c0,7.6,0,15.2,0,22.7c-1.3,0-2.6,0-3.9,0c0-7.6,0-15.2,0-22.7
		c-2.7,0-5.4,0-8,0C170.5,338.8,170.5,337.7,170.5,336.6 M219.5,336.6c0.8,0,1.6,0,2.5,0c3.5,8.7,7.1,17.3,10.6,26
		c-1.4,0-2.9,0-4.3,0c-0.9-2.3-1.7-4.5-2.6-6.8c-3.3,0.1-6.7,0-10,0c-0.8,2.2-1.7,4.5-2.5,6.7c-1.4,0-2.9,0-4.3,0
		C212.4,353.9,216,345.2,219.5,336.6 M217,352.5c2.5,0,5,0,7.5,0c-1.2-3.3-2.5-6.6-3.7-9.8C219.4,345.9,218.2,349.2,217,352.5
		 M330.1,340.3c4.9-5.3,14.2-5.3,19.2,0c-0.8,0.9-1.7,1.8-2.6,2.7c-2.3-3.1-6.9-4.1-10.4-2.7c-4.5,1.9-7,7.5-5.5,12.2
		c0.9,3.4,3.7,6.4,7.2,7c3.1,0.6,6.8-0.4,8.7-3.1c0.9,0.9,1.7,1.7,2.6,2.6c-4.6,5.1-13.3,5.3-18.4,0.7
		C325.3,354.9,324.9,345.4,330.1,340.3 M358.4,336.6c1.3,0,2.6,0,3.9,0c0,8.7,0,17.3,0,26c-1.3,0-2.6,0-3.9,0
		C358.4,353.9,358.4,345.2,358.4,336.6 M380.8,336.6c0.8,0,1.6,0,2.5,0c3.5,8.7,7.1,17.3,10.7,26c-1.4,0-2.9,0-4.3,0
		c-0.9-2.2-1.7-4.5-2.6-6.7c-3.4,0-6.7,0-10.1,0c-0.9,2.2-1.7,4.5-2.5,6.7c-1.4,0-2.9,0-4.3,0C373.6,353.9,377.2,345.3,380.8,336.6
		 M378.2,352.5c2.5,0,5,0,7.5,0c-1.2-3.3-2.5-6.6-3.7-9.9C380.7,345.9,379.5,349.2,378.2,352.5 M395.6,336.6c6.6,0,13.3,0,19.9,0
		c0,1.1,0,2.2,0,3.3c-2.7,0-5.3,0-8,0c0,7.6,0,15.2,0,22.7c-1.3,0-2.7,0-4,0c0-7.6,0-15.2,0-22.7c-2.7,0-5.3,0-8,0
		C395.6,338.8,395.6,337.7,395.6,336.6 M422.6,336.6c1.3,0,2.6,0,4,0c0,8.7,0,17.3,0,26c-1.3,0-2.7,0-4,0
		C422.6,353.9,422.6,345.2,422.6,336.6 M445.5,336.6c5.7-1.4,12.1,1.4,14.7,6.6c2,3.9,2,8.7,0.1,12.6c-1.4,2.6-3.6,4.8-6.3,5.9
		c-4.4,2-10,1.3-13.7-1.8c-4.7-3.7-6.1-10.7-3.7-16.1C438.2,340.3,441.6,337.5,445.5,336.6 M446,340c-3.1,1-5.4,3.7-6.2,6.7
		c-1,3.3-0.2,7.1,2.1,9.7c2,2.5,5.5,3.7,8.6,3c2.9-0.6,5.3-2.8,6.5-5.5c1.8-3.9,0.9-9-2.3-11.9C452.4,339.8,449,339,446,340
		 M470.6,336.6c1.6-0.1,3.2-0.1,4.8,0c4.5,6.8,9.2,13.6,13.7,20.4c0-6.8,0-13.6,0-20.4c1.3,0,2.6,0,4,0c0,8.7,0,17.3,0,26
		c-1.6,0-3.2,0-4.7,0c-4.6-6.8-9.2-13.6-13.7-20.4c0,6.8,0,13.6,0,20.4c-1.3,0-2.7,0-4,0C470.6,353.9,470.7,345.3,470.6,336.6
		L470.6,336.6z"/>
</g>
</svg>
