<?xml version="1.0" encoding="utf-8"?>
<!-- Generator: Adobe Illustrator 22.0.1, SVG Export Plug-In . SVG Version: 6.00 Build 0)  -->
<svg version="1.1" id="Layer_1" xmlns="http://www.w3.org/2000/svg" xmlns:xlink="http://www.w3.org/1999/xlink" x="0px" y="0px"
	 viewBox="0 0 500 500" enable-background="new 0 0 500 500" xml:space="preserve">
<g>
	<path opacity="0.5" fill="#387BF4" d="M395.8,198.8c11.8,10.3,21.7,21.1,29.1,32.2c17.4-32.1,21.2-63.4,7.4-87.4
		c-8.6-15-23.2-25.4-41.8-31.4C399.9,135.1,401.6,165.4,395.8,198.8z"/>
	<path opacity="0.5" fill="#387BF4" d="M129.8,306.7c-15.6-10.2-29-21.4-39.9-33c-8.8,24.5-8.7,47.7,2.1,66.4
		c8.4,14.6,22.5,24.9,40.4,30.9C127.5,352.5,126.6,330.6,129.8,306.7z"/>
	<path opacity="0.5" fill="#00CCCC" d="M308.4,71.9C295.7,62.3,281.8,57,267.1,57c-4.5,0-9,0.5-13.3,1.5
		c10.5,5.1,20.8,12.4,30.8,21.6C292.7,76.5,300.7,73.7,308.4,71.9z"/>
	<path opacity="0.5" fill="#00CCCC" d="M241,416.5c-9,4-18,6.8-26.6,8.5c15.6,15.9,33.6,25,52.7,25c18.4,0,35.8-8.4,51-23.3
		c-4,2.1-8.1,3.7-12.5,4.9C284.8,437.2,262.4,431.3,241,416.5z"/>
	<path opacity="0.5" fill="#890CB2" d="M338.7,106.5c19.2-1,36.7,1,51.7,5.7c-6.2-15.1-15.8-26.9-28.7-34.4
		c-15.3-8.9-33.7-10.5-53.4-5.9C319.6,80.3,329.8,92.1,338.7,106.5z"/>
	<path opacity="0.5" fill="#890CB2" d="M132.3,371c5.6,21.2,16.6,37.7,32.9,47.2c14.2,8.2,31.1,10.2,49.1,6.8
		c-12-12.2-22.5-28.4-31.1-47.7C164.4,378.1,147,376,132.3,371z"/>
	<path opacity="0.5" fill="#387BF4" d="M183.3,377.3c-6.7-15-12.2-31.8-16.3-50c-13.4-6.3-25.9-13.2-37.3-20.6
		c-3.2,23.9-2.4,45.9,2.5,64.3C147,376,164.4,378.1,183.3,377.3z"/>
	<path opacity="0.5" fill="#890CB2" d="M183.3,377.3c-6.7-15-12.2-31.8-16.3-50c-13.4-6.3-25.9-13.2-37.3-20.6
		c-3.2,23.9-2.4,45.9,2.5,64.3C147,376,164.4,378.1,183.3,377.3z"/>
	<path opacity="0.5" fill="#387BF4" d="M338.7,106.5c12,19.4,21.6,43.5,27.9,70.8c10.7,6.8,20.4,14,29.1,21.5
		c5.8-33.5,4.1-63.7-5.3-86.6C375.5,107.4,357.9,105.5,338.7,106.5z"/>
	<path opacity="0.5" fill="#890CB2" d="M338.7,106.5c12,19.4,21.6,43.5,27.9,70.8c10.7,6.8,20.4,14,29.1,21.5
		c5.8-33.5,4.1-63.7-5.3-86.6C375.5,107.4,357.9,105.5,338.7,106.5z"/>
	<path opacity="0.5" fill="#00CCCC" d="M200.3,376c-5.8,0.7-11.4,1.1-16.9,1.4c8.6,19.2,19.1,35.5,31.1,47.7
		c8.6-1.6,17.6-4.5,26.6-8.5C226.8,406.7,212.9,392.9,200.3,376z"/>
	<path opacity="0.5" fill="#890CB2" d="M200.3,376c-5.8,0.7-11.4,1.1-16.9,1.4c8.6,19.2,19.1,35.5,31.1,47.7
		c8.6-1.6,17.6-4.5,26.6-8.5C226.8,406.7,212.9,392.9,200.3,376z"/>
	<path opacity="0.5" fill="#00CCCC" d="M310.7,109.7c9.6-1.7,19-2.8,28-3.2c-8.9-14.4-19.2-26.1-30.3-34.6
		c-7.8,1.8-15.7,4.6-23.8,8.2C293.7,88.5,302.5,98.4,310.7,109.7z"/>
	<path opacity="0.5" fill="#890CB2" d="M310.7,109.7c9.6-1.7,19-2.8,28-3.2c-8.9-14.4-19.2-26.1-30.3-34.6
		c-7.8,1.8-15.7,4.6-23.8,8.2C293.7,88.5,302.5,98.4,310.7,109.7z"/>
	<path opacity="0.5" fill="#387BF4" d="M366.7,177.3c-6.3-27.3-15.9-51.5-27.9-70.8c-9,0.4-18.4,1.5-28,3.2
		c11.3,15.4,21.6,33.3,30.4,53.2C350.1,167.4,358.7,172.2,366.7,177.3z"/>
	<path opacity="0.5" fill="#00CCCC" d="M366.7,177.3c-6.3-27.3-15.9-51.5-27.9-70.8c-9,0.4-18.4,1.5-28,3.2
		c11.3,15.4,21.6,33.3,30.4,53.2C350.1,167.4,358.7,172.2,366.7,177.3z"/>
	<path opacity="0.5" fill="#890CB2" d="M366.7,177.3c-6.3-27.3-15.9-51.5-27.9-70.8c-9,0.4-18.4,1.5-28,3.2
		c11.3,15.4,21.6,33.3,30.4,53.2C350.1,167.4,358.7,172.2,366.7,177.3z"/>
	<path opacity="0.5" fill="#387BF4" d="M167.1,327.3c4.1,18.2,9.6,35,16.3,50c5.5-0.2,11.2-0.7,16.9-1.4
		c-10.1-13.5-19.5-29-27.7-46.1C170.7,329,168.9,328.2,167.1,327.3z"/>
	<path opacity="0.5" fill="#00CCCC" d="M167.1,327.3c4.1,18.2,9.6,35,16.3,50c5.5-0.2,11.2-0.7,16.9-1.4
		c-10.1-13.5-19.5-29-27.7-46.1C170.7,329,168.9,328.2,167.1,327.3z"/>
	<path opacity="0.5" fill="#890CB2" d="M167.1,327.3c4.1,18.2,9.6,35,16.3,50c5.5-0.2,11.2-0.7,16.9-1.4
		c-10.1-13.5-19.5-29-27.7-46.1C170.7,329,168.9,328.2,167.1,327.3z"/>
	<path opacity="0.5" fill="#00CCCC" d="M424.9,231c-6.2,11.4-14.1,22.9-23.6,34.3c9.5,23.4,14.2,45.8,13.4,65.5
		c12.2-9.6,20.8-21.4,24.6-35.2C445.1,274.8,439.4,252.5,424.9,231z"/>
	<path opacity="0.5" fill="#00CCCC" d="M98.1,146.9c-19.2,10.8-32.5,25.5-37.5,43.8c-7.4,26.7,4.2,56.2,29.2,82.9
		c5.4-15.1,14.1-30.6,25.7-46C102.2,198.6,96,170.6,98.1,146.9z"/>
	<path opacity="0.5" fill="#387BF4" d="M395.8,198.8c-2.1,11.8-5.1,24.1-9.1,36.5c5.7,10,10.6,20.1,14.6,29.9
		c9.5-11.3,17.4-22.9,23.6-34.3C417.4,219.9,407.6,209.1,395.8,198.8z"/>
	<path opacity="0.5" fill="#00CCCC" d="M395.8,198.8c-2.1,11.8-5.1,24.1-9.1,36.5c5.7,10,10.6,20.1,14.6,29.9
		c9.5-11.3,17.4-22.9,23.6-34.3C417.4,219.9,407.6,209.1,395.8,198.8z"/>
	<path opacity="0.5" fill="#387BF4" d="M129.8,306.7c1.7-12.6,4.5-25.7,8.4-39.1c-9-13.3-16.6-26.7-22.7-39.9
		c-11.6,15.4-20.3,30.9-25.7,46C100.8,285.3,114.3,296.5,129.8,306.7z"/>
	<path opacity="0.5" fill="#00CCCC" d="M129.8,306.7c1.7-12.6,4.5-25.7,8.4-39.1c-9-13.3-16.6-26.7-22.7-39.9
		c-11.6,15.4-20.3,30.9-25.7,46C100.8,285.3,114.3,296.5,129.8,306.7z"/>
	<path opacity="0.5" fill="#387BF4" d="M157.7,293.4c-7.1-8.5-13.6-17.2-19.4-25.9c-3.9,13.4-6.7,26.5-8.4,39.1
		c11.4,7.4,23.8,14.4,37.3,20.6c-1.3-5.8-2.5-11.8-3.4-17.9C161.5,304.2,159.6,298.9,157.7,293.4z"/>
	<path opacity="0.5" fill="#890CB2" d="M157.7,293.4c-7.1-8.5-13.6-17.2-19.4-25.9c-3.9,13.4-6.7,26.5-8.4,39.1
		c11.4,7.4,23.8,14.4,37.3,20.6c-1.3-5.8-2.5-11.8-3.4-17.9C161.5,304.2,159.6,298.9,157.7,293.4z"/>
	<path opacity="0.5" fill="#00CCCC" d="M157.7,293.4c-7.1-8.5-13.6-17.2-19.4-25.9c-3.9,13.4-6.7,26.5-8.4,39.1
		c11.4,7.4,23.8,14.4,37.3,20.6c-1.3-5.8-2.5-11.8-3.4-17.9C161.5,304.2,159.6,298.9,157.7,293.4z"/>
	<path opacity="0.5" fill="#387BF4" d="M386.7,235.4c4-12.5,7-24.7,9.1-36.5c-8.7-7.5-18.4-14.7-29.1-21.5
		c2.7,11.5,4.7,23.5,6.1,35.9C377.9,220.6,382.5,228,386.7,235.4z"/>
	<path opacity="0.5" fill="#890CB2" d="M386.7,235.4c4-12.5,7-24.7,9.1-36.5c-8.7-7.5-18.4-14.7-29.1-21.5
		c2.7,11.5,4.7,23.5,6.1,35.9C377.9,220.6,382.5,228,386.7,235.4z"/>
	<path opacity="0.5" fill="#00CCCC" d="M386.7,235.4c4-12.5,7-24.7,9.1-36.5c-8.7-7.5-18.4-14.7-29.1-21.5
		c2.7,11.5,4.7,23.5,6.1,35.9C377.9,220.6,382.5,228,386.7,235.4z"/>
	<path opacity="0.5" fill="#387BF4" d="M163.6,309.4c1,6.1,2.1,12.1,3.4,17.9c1.8,0.8,3.7,1.7,5.5,2.5
		C169.4,323.3,166.4,316.4,163.6,309.4z"/>
	<path opacity="0.5" fill="#00CCCC" d="M163.6,309.4c1,6.1,2.1,12.1,3.4,17.9c1.8,0.8,3.7,1.7,5.5,2.5
		C169.4,323.3,166.4,316.4,163.6,309.4z"/>
	<path opacity="0.5" fill="#890CB2" d="M163.6,309.4c1,6.1,2.1,12.1,3.4,17.9c1.8,0.8,3.7,1.7,5.5,2.5
		C169.4,323.3,166.4,316.4,163.6,309.4z"/>
	<path opacity="0.5" fill="#00CCCC" d="M163.6,309.4c1,6.1,2.1,12.1,3.4,17.9c1.8,0.8,3.7,1.7,5.5,2.5
		C169.4,323.3,166.4,316.4,163.6,309.4z"/>
	<path opacity="0.5" fill="#387BF4" d="M349.2,182.9c8.7,9.9,16.6,20.1,23.6,30.3c-1.4-12.4-3.5-24.4-6.1-35.9
		c-8-5.1-16.6-9.9-25.6-14.4C344,169.4,346.7,176,349.2,182.9z"/>
	<path opacity="0.5" fill="#00CCCC" d="M349.2,182.9c8.7,9.9,16.6,20.1,23.6,30.3c-1.4-12.4-3.5-24.4-6.1-35.9
		c-8-5.1-16.6-9.9-25.6-14.4C344,169.4,346.7,176,349.2,182.9z"/>
	<path opacity="0.5" fill="#890CB2" d="M349.2,182.9c8.7,9.9,16.6,20.1,23.6,30.3c-1.4-12.4-3.5-24.4-6.1-35.9
		c-8-5.1-16.6-9.9-25.6-14.4C344,169.4,346.7,176,349.2,182.9z"/>
	<path opacity="0.5" fill="#00CCCC" d="M349.2,182.9c8.7,9.9,16.6,20.1,23.6,30.3c-1.4-12.4-3.5-24.4-6.1-35.9
		c-8-5.1-16.6-9.9-25.6-14.4C344,169.4,346.7,176,349.2,182.9z"/>
	<path opacity="0.5" fill="#890CB2" d="M163.5,83.2c-18.5,1.3-34.4,7.6-46.2,19.3c-11.3,11.3-17.6,26.6-19.2,44.4
		c12.9-7.3,28.6-12.7,46.1-16.1C148.5,112.3,154.9,96.1,163.5,83.2z"/>
	<path opacity="0.5" fill="#890CB2" d="M346.4,399.9c19.7-0.9,36.5-7.2,48.8-19.5c12.5-12.5,18.8-29.6,19.5-49.7
		c-12.9,10.1-29.8,17.7-49.6,22.6C361,371.4,354.7,387.2,346.4,399.9z"/>
	<path opacity="0.5" fill="#00CCCC" d="M115.6,227.7c6.9-9.1,14.8-18.2,23.6-27c-1.4-25.3,0.4-49.1,5.1-69.8
		c-17.6,3.4-33.2,8.8-46.1,16.1C96,170.6,102.2,198.6,115.6,227.7z"/>
	<path opacity="0.5" fill="#890CB2" d="M115.6,227.7c6.9-9.1,14.8-18.2,23.6-27c-1.4-25.3,0.4-49.1,5.1-69.8
		c-17.6,3.4-33.2,8.8-46.1,16.1C96,170.6,102.2,198.6,115.6,227.7z"/>
	<path opacity="0.5" fill="#00CCCC" d="M401.3,265.3c-8.4,10-17.9,19.9-28.6,29.4c-0.6,5.1-1.3,10.1-2.1,15
		c-0.5,15.6-2.4,30.3-5.5,43.7c19.8-4.9,36.7-12.5,49.6-22.6C415.5,311.1,410.8,288.6,401.3,265.3z"/>
	<path opacity="0.5" fill="#890CB2" d="M401.3,265.3c-8.4,10-17.9,19.9-28.6,29.4c-0.6,5.1-1.3,10.1-2.1,15
		c-0.5,15.6-2.4,30.3-5.5,43.7c19.8-4.9,36.7-12.5,49.6-22.6C415.5,311.1,410.8,288.6,401.3,265.3z"/>
	<path opacity="0.5" fill="#387BF4" d="M139.2,200.7c-8.8,8.8-16.7,17.9-23.6,27c6.1,13.2,13.7,26.6,22.7,39.9
		c2-6.9,4.3-13.8,6.9-20.7C142,231,140,215.6,139.2,200.7z"/>
	<path opacity="0.5" fill="#00CCCC" d="M139.2,200.7c-8.8,8.8-16.7,17.9-23.6,27c6.1,13.2,13.7,26.6,22.7,39.9
		c2-6.9,4.3-13.8,6.9-20.7C142,231,140,215.6,139.2,200.7z"/>
	<path opacity="0.5" fill="#890CB2" d="M139.2,200.7c-8.8,8.8-16.7,17.9-23.6,27c6.1,13.2,13.7,26.6,22.7,39.9
		c2-6.9,4.3-13.8,6.9-20.7C142,231,140,215.6,139.2,200.7z"/>
	<path opacity="0.5" fill="#387BF4" d="M374.9,266.8c-0.3,9.5-1.1,18.8-2.1,27.9c10.7-9.5,20.2-19.4,28.6-29.4
		c-4-9.9-8.9-19.9-14.6-29.9C383.4,245.7,379.5,256.2,374.9,266.8z"/>
	<path opacity="0.5" fill="#00CCCC" d="M374.9,266.8c-0.3,9.5-1.1,18.8-2.1,27.9c10.7-9.5,20.2-19.4,28.6-29.4
		c-4-9.9-8.9-19.9-14.6-29.9C383.4,245.7,379.5,256.2,374.9,266.8z"/>
	<path opacity="0.5" fill="#890CB2" d="M374.9,266.8c-0.3,9.5-1.1,18.8-2.1,27.9c10.7-9.5,20.2-19.4,28.6-29.4
		c-4-9.9-8.9-19.9-14.6-29.9C383.4,245.7,379.5,256.2,374.9,266.8z"/>
	<path opacity="0.5" fill="#00CCCC" d="M370.6,309.6c0.8-4.9,1.5-9.9,2.1-15c-0.6,0.6-1.3,1.2-1.9,1.7
		C370.8,300.9,370.8,305.3,370.6,309.6z"/>
	<path opacity="0.5" fill="#00CCCC" d="M370.6,309.6c0.8-4.9,1.5-9.9,2.1-15c-0.6,0.6-1.3,1.2-1.9,1.7
		C370.8,300.9,370.8,305.3,370.6,309.6z"/>
	<path opacity="0.5" fill="#890CB2" d="M370.6,309.6c0.8-4.9,1.5-9.9,2.1-15c-0.6,0.6-1.3,1.2-1.9,1.7
		C370.8,300.9,370.8,305.3,370.6,309.6z"/>
	<path opacity="0.5" fill="#387BF4" d="M370,277.5c0.5,6.4,0.7,12.7,0.8,18.9c0.7-0.6,1.3-1.1,1.9-1.7c1.1-9.1,1.8-18.4,2.1-27.9
		C373.3,270.3,371.7,273.9,370,277.5z"/>
	<path opacity="0.5" fill="#00CCCC" d="M370,277.5c0.5,6.4,0.7,12.7,0.8,18.9c0.7-0.6,1.3-1.1,1.9-1.7c1.1-9.1,1.8-18.4,2.1-27.9
		C373.3,270.3,371.7,273.9,370,277.5z"/>
	<path opacity="0.5" fill="#00CCCC" d="M370,277.5c0.5,6.4,0.7,12.7,0.8,18.9c0.7-0.6,1.3-1.1,1.9-1.7c1.1-9.1,1.8-18.4,2.1-27.9
		C373.3,270.3,371.7,273.9,370,277.5z"/>
	<path opacity="0.5" fill="#890CB2" d="M370,277.5c0.5,6.4,0.7,12.7,0.8,18.9c0.7-0.6,1.3-1.1,1.9-1.7c1.1-9.1,1.8-18.4,2.1-27.9
		C373.3,270.3,371.7,273.9,370,277.5z"/>
	<path opacity="0.5" fill="#387BF4" d="M375.1,253.5c0,4.5-0.1,8.9-0.3,13.3c4.6-10.6,8.6-21.1,11.9-31.4
		c-4.2-7.4-8.8-14.8-13.9-22.1C374.3,226.2,375.1,239.7,375.1,253.5z"/>
	<path opacity="0.5" fill="#890CB2" d="M375.1,253.5c0,4.5-0.1,8.9-0.3,13.3c4.6-10.6,8.6-21.1,11.9-31.4
		c-4.2-7.4-8.8-14.8-13.9-22.1C374.3,226.2,375.1,239.7,375.1,253.5z"/>
	<path opacity="0.5" fill="#00CCCC" d="M375.1,253.5c0,4.5-0.1,8.9-0.3,13.3c4.6-10.6,8.6-21.1,11.9-31.4
		c-4.2-7.4-8.8-14.8-13.9-22.1C374.3,226.2,375.1,239.7,375.1,253.5z"/>
	<path opacity="0.5" fill="#890CB2" d="M375.1,253.5c0,4.5-0.1,8.9-0.3,13.3c4.6-10.6,8.6-21.1,11.9-31.4
		c-4.2-7.4-8.8-14.8-13.9-22.1C374.3,226.2,375.1,239.7,375.1,253.5z"/>
	<path opacity="0.5" fill="#387BF4" d="M150.5,269.8c-2.1-7.7-3.8-15.4-5.4-23c-2.6,7-4.9,13.9-6.9,20.7
		c5.9,8.7,12.4,17.3,19.4,25.9C155.1,285.7,152.6,277.9,150.5,269.8z"/>
	<path opacity="0.5" fill="#890CB2" d="M150.5,269.8c-2.1-7.7-3.8-15.4-5.4-23c-2.6,7-4.9,13.9-6.9,20.7
		c5.9,8.7,12.4,17.3,19.4,25.9C155.1,285.7,152.6,277.9,150.5,269.8z"/>
	<path opacity="0.5" fill="#00CCCC" d="M150.5,269.8c-2.1-7.7-3.8-15.4-5.4-23c-2.6,7-4.9,13.9-6.9,20.7
		c5.9,8.7,12.4,17.3,19.4,25.9C155.1,285.7,152.6,277.9,150.5,269.8z"/>
	<path opacity="0.5" fill="#890CB2" d="M150.5,269.8c-2.1-7.7-3.8-15.4-5.4-23c-2.6,7-4.9,13.9-6.9,20.7
		c5.9,8.7,12.4,17.3,19.4,25.9C155.1,285.7,152.6,277.9,150.5,269.8z"/>
	<path opacity="0.5" fill="#387BF4" d="M372.8,213.2c-7.1-10.2-14.9-20.4-23.6-30.3c3.7,10,7,20.3,9.9,31
		c5.8,21.7,9.4,43.1,10.9,63.5c1.7-3.6,3.3-7.1,4.9-10.7c0.2-4.4,0.3-8.8,0.3-13.3C375.1,239.7,374.3,226.2,372.8,213.2z"/>
	<path opacity="0.5" fill="#00CCCC" d="M372.8,213.2c-7.1-10.2-14.9-20.4-23.6-30.3c3.7,10,7,20.3,9.9,31
		c5.8,21.7,9.4,43.1,10.9,63.5c1.7-3.6,3.3-7.1,4.9-10.7c0.2-4.4,0.3-8.8,0.3-13.3C375.1,239.7,374.3,226.2,372.8,213.2z"/>
	<path opacity="0.5" fill="#890CB2" d="M372.8,213.2c-7.1-10.2-14.9-20.4-23.6-30.3c3.7,10,7,20.3,9.9,31
		c5.8,21.7,9.4,43.1,10.9,63.5c1.7-3.6,3.3-7.1,4.9-10.7c0.2-4.4,0.3-8.8,0.3-13.3C375.1,239.7,374.3,226.2,372.8,213.2z"/>
	<path opacity="0.5" fill="#00CCCC" d="M372.8,213.2c-7.1-10.2-14.9-20.4-23.6-30.3c3.7,10,7,20.3,9.9,31
		c5.8,21.7,9.4,43.1,10.9,63.5c1.7-3.6,3.3-7.1,4.9-10.7c0.2-4.4,0.3-8.8,0.3-13.3C375.1,239.7,374.3,226.2,372.8,213.2z"/>
	<path opacity="0.5" fill="#890CB2" d="M372.8,213.2c-7.1-10.2-14.9-20.4-23.6-30.3c3.7,10,7,20.3,9.9,31
		c5.8,21.7,9.4,43.1,10.9,63.5c1.7-3.6,3.3-7.1,4.9-10.7c0.2-4.4,0.3-8.8,0.3-13.3C375.1,239.7,374.3,226.2,372.8,213.2z"/>
	<path opacity="0.5" fill="#387BF4" d="M339.1,400c-6.4,10.3-13.4,19.3-20.9,26.7c11-5.8,20.5-15,28.3-26.8
		C344,400,341.6,400.1,339.1,400z"/>
	<path opacity="0.5" fill="#387BF4" d="M208.7,88.3c13.3-15.7,28.7-26.1,45.2-29.8c-16.8-8.2-33.8-10.8-49.9-6.5
		c-16.3,4.4-29.9,15.3-40.4,31.1C177.3,82.2,192.6,84,208.7,88.3z"/>
	<path opacity="0.5" fill="#00CCCC" d="M208.7,88.3c12.5,3.4,25.5,8.3,38.6,14.7c12.4-9.6,25-17.3,37.4-22.9
		c-10-9.2-20.3-16.5-30.8-21.6C237.3,62.2,222,72.7,208.7,88.3z"/>
	<path opacity="0.5" fill="#387BF4" d="M208.7,88.3c12.5,3.4,25.5,8.3,38.6,14.7c12.4-9.6,25-17.3,37.4-22.9
		c-10-9.2-20.3-16.5-30.8-21.6C237.3,62.2,222,72.7,208.7,88.3z"/>
	<path opacity="0.5" fill="#00CCCC" d="M339.1,400c-16.6-0.3-34.8-4.2-53.8-11.4c-14.7,12-29.6,21.5-44.3,28
		c21.4,14.8,43.8,20.7,64.6,15.1c4.4-1.2,8.5-2.8,12.5-4.9C325.7,419.3,332.7,410.3,339.1,400z"/>
	<path opacity="0.5" fill="#387BF4" d="M339.1,400c-16.6-0.3-34.8-4.2-53.8-11.4c-14.7,12-29.6,21.5-44.3,28
		c21.4,14.8,43.8,20.7,64.6,15.1c4.4-1.2,8.5-2.8,12.5-4.9C325.7,419.3,332.7,410.3,339.1,400z"/>
	<path opacity="0.5" fill="#00CCCC" d="M310.7,109.7c-8.3-11.3-17-21.2-26.1-29.6c-12.4,5.6-24.9,13.3-37.4,22.9
		c9.2,4.5,18.5,9.7,27.7,15.6C287.2,114.7,299.1,111.8,310.7,109.7z"/>
	<path opacity="0.5" fill="#890CB2" d="M310.7,109.7c-8.3-11.3-17-21.2-26.1-29.6c-12.4,5.6-24.9,13.3-37.4,22.9
		c9.2,4.5,18.5,9.7,27.7,15.6C287.2,114.7,299.1,111.8,310.7,109.7z"/>
	<path opacity="0.5" fill="#387BF4" d="M310.7,109.7c-8.3-11.3-17-21.2-26.1-29.6c-12.4,5.6-24.9,13.3-37.4,22.9
		c9.2,4.5,18.5,9.7,27.7,15.6C287.2,114.7,299.1,111.8,310.7,109.7z"/>
	<path opacity="0.5" fill="#00CCCC" d="M200.3,376c12.7,16.9,26.5,30.7,40.8,40.6c14.6-6.5,29.6-15.9,44.3-28
		c-14.1-5.3-28.6-12.5-43.1-21.3C227.8,371.5,213.7,374.4,200.3,376z"/>
	<path opacity="0.5" fill="#890CB2" d="M200.3,376c12.7,16.9,26.5,30.7,40.8,40.6c14.6-6.5,29.6-15.9,44.3-28
		c-14.1-5.3-28.6-12.5-43.1-21.3C227.8,371.5,213.7,374.4,200.3,376z"/>
	<path opacity="0.5" fill="#387BF4" d="M200.3,376c12.7,16.9,26.5,30.7,40.8,40.6c14.6-6.5,29.6-15.9,44.3-28
		c-14.1-5.3-28.6-12.5-43.1-21.3C227.8,371.5,213.7,374.4,200.3,376z"/>
	<path opacity="0.5" fill="#387BF4" d="M208.4,343.4c-12.5-4-24.5-8.5-35.8-13.5c8.2,17.1,17.6,32.6,27.7,46.1
		c13.5-1.6,27.5-4.5,42-8.7C230.9,360.3,219.5,352.3,208.4,343.4z"/>
	<path opacity="0.5" fill="#00CCCC" d="M208.4,343.4c-12.5-4-24.5-8.5-35.8-13.5c8.2,17.1,17.6,32.6,27.7,46.1
		c13.5-1.6,27.5-4.5,42-8.7C230.9,360.3,219.5,352.3,208.4,343.4z"/>
	<path opacity="0.5" fill="#890CB2" d="M208.4,343.4c-12.5-4-24.5-8.5-35.8-13.5c8.2,17.1,17.6,32.6,27.7,46.1
		c13.5-1.6,27.5-4.5,42-8.7C230.9,360.3,219.5,352.3,208.4,343.4z"/>
	<path opacity="0.5" fill="#387BF4" d="M208.4,343.4c-12.5-4-24.5-8.5-35.8-13.5c8.2,17.1,17.6,32.6,27.7,46.1
		c13.5-1.6,27.5-4.5,42-8.7C230.9,360.3,219.5,352.3,208.4,343.4z"/>
	<path opacity="0.5" fill="#387BF4" d="M320.2,153.3c7.2,3,14.2,6.2,20.9,9.6c-8.8-19.9-19.1-37.8-30.4-53.2
		c-11.6,2.1-23.6,5-35.8,8.9C290.3,128.3,305.5,140,320.2,153.3z"/>
	<path opacity="0.5" fill="#00CCCC" d="M320.2,153.3c7.2,3,14.2,6.2,20.9,9.6c-8.8-19.9-19.1-37.8-30.4-53.2
		c-11.6,2.1-23.6,5-35.8,8.9C290.3,128.3,305.5,140,320.2,153.3z"/>
	<path opacity="0.5" fill="#890CB2" d="M320.2,153.3c7.2,3,14.2,6.2,20.9,9.6c-8.8-19.9-19.1-37.8-30.4-53.2
		c-11.6,2.1-23.6,5-35.8,8.9C290.3,128.3,305.5,140,320.2,153.3z"/>
	<path opacity="0.5" fill="#387BF4" d="M320.2,153.3c7.2,3,14.2,6.2,20.9,9.6c-8.8-19.9-19.1-37.8-30.4-53.2
		c-11.6,2.1-23.6,5-35.8,8.9C290.3,128.3,305.5,140,320.2,153.3z"/>
	<path opacity="0.5" fill="#387BF4" d="M157.7,293.4c1.9,5.5,3.9,10.8,5.9,16c-0.6-3.6-1.1-7.2-1.6-10.9
		C160.6,296.8,159.1,295.1,157.7,293.4z"/>
	<path opacity="0.5" fill="#890CB2" d="M157.7,293.4c1.9,5.5,3.9,10.8,5.9,16c-0.6-3.6-1.1-7.2-1.6-10.9
		C160.6,296.8,159.1,295.1,157.7,293.4z"/>
	<path opacity="0.5" fill="#00CCCC" d="M157.7,293.4c1.9,5.5,3.9,10.8,5.9,16c-0.6-3.6-1.1-7.2-1.6-10.9
		C160.6,296.8,159.1,295.1,157.7,293.4z"/>
	<path opacity="0.5" fill="#387BF4" d="M157.7,293.4c1.9,5.5,3.9,10.8,5.9,16c-0.6-3.6-1.1-7.2-1.6-10.9
		C160.6,296.8,159.1,295.1,157.7,293.4z"/>
	<path opacity="0.5" fill="#387BF4" d="M349.2,182.9c-2.5-6.9-5.2-13.5-8.1-20c-6.7-3.4-13.7-6.6-20.9-9.6
		c4.2,3.8,8.3,7.7,12.4,11.8C338.4,171,344,176.9,349.2,182.9z"/>
	<path opacity="0.5" fill="#00CCCC" d="M349.2,182.9c-2.5-6.9-5.2-13.5-8.1-20c-6.7-3.4-13.7-6.6-20.9-9.6
		c4.2,3.8,8.3,7.7,12.4,11.8C338.4,171,344,176.9,349.2,182.9z"/>
	<path opacity="0.5" fill="#890CB2" d="M349.2,182.9c-2.5-6.9-5.2-13.5-8.1-20c-6.7-3.4-13.7-6.6-20.9-9.6
		c4.2,3.8,8.3,7.7,12.4,11.8C338.4,171,344,176.9,349.2,182.9z"/>
	<path opacity="0.5" fill="#00CCCC" d="M349.2,182.9c-2.5-6.9-5.2-13.5-8.1-20c-6.7-3.4-13.7-6.6-20.9-9.6
		c4.2,3.8,8.3,7.7,12.4,11.8C338.4,171,344,176.9,349.2,182.9z"/>
	<path opacity="0.5" fill="#387BF4" d="M349.2,182.9c-2.5-6.9-5.2-13.5-8.1-20c-6.7-3.4-13.7-6.6-20.9-9.6
		c4.2,3.8,8.3,7.7,12.4,11.8C338.4,171,344,176.9,349.2,182.9z"/>
	<path opacity="0.5" fill="#387BF4" d="M162,298.6c0.5,3.7,1,7.3,1.6,10.9c2.8,7,5.8,13.8,9,20.4c11.3,5,23.3,9.6,35.8,13.5
		c-9.7-7.8-19.2-16.3-28.4-25.5C173.6,311.5,167.7,305.1,162,298.6z"/>
	<path opacity="0.5" fill="#00CCCC" d="M162,298.6c0.5,3.7,1,7.3,1.6,10.9c2.8,7,5.8,13.8,9,20.4c11.3,5,23.3,9.6,35.8,13.5
		c-9.7-7.8-19.2-16.3-28.4-25.5C173.6,311.5,167.7,305.1,162,298.6z"/>
	<path opacity="0.5" fill="#890CB2" d="M162,298.6c0.5,3.7,1,7.3,1.6,10.9c2.8,7,5.8,13.8,9,20.4c11.3,5,23.3,9.6,35.8,13.5
		c-9.7-7.8-19.2-16.3-28.4-25.5C173.6,311.5,167.7,305.1,162,298.6z"/>
	<path opacity="0.5" fill="#00CCCC" d="M162,298.6c0.5,3.7,1,7.3,1.6,10.9c2.8,7,5.8,13.8,9,20.4c11.3,5,23.3,9.6,35.8,13.5
		c-9.7-7.8-19.2-16.3-28.4-25.5C173.6,311.5,167.7,305.1,162,298.6z"/>
	<path opacity="0.5" fill="#387BF4" d="M162,298.6c0.5,3.7,1,7.3,1.6,10.9c2.8,7,5.8,13.8,9,20.4c11.3,5,23.3,9.6,35.8,13.5
		c-9.7-7.8-19.2-16.3-28.4-25.5C173.6,311.5,167.7,305.1,162,298.6z"/>
	<path opacity="0.5" fill="#890CB2" d="M184.7,126.7c6.9-14.8,15-27.8,24-38.3c-16.1-4.3-31.3-6.1-45.2-5.1
		c-8.6,12.9-15.1,29.1-19.3,47.6C156.8,128.4,170.4,127,184.7,126.7z"/>
	<path opacity="0.5" fill="#387BF4" d="M184.7,126.7c6.9-14.8,15-27.8,24-38.3c-16.1-4.3-31.3-6.1-45.2-5.1
		c-8.6,12.9-15.1,29.1-19.3,47.6C156.8,128.4,170.4,127,184.7,126.7z"/>
	<path opacity="0.5" fill="#890CB2" d="M359.7,354.6c-5.6,17-12.6,32.3-20.6,45.4c2.5,0.1,4.9,0,7.3-0.1
		c8.3-12.7,14.6-28.5,18.8-46.6C363.4,353.8,361.6,354.2,359.7,354.6z"/>
	<path opacity="0.5" fill="#387BF4" d="M359.7,354.6c-5.6,17-12.6,32.3-20.6,45.4c2.5,0.1,4.9,0,7.3-0.1
		c8.3-12.7,14.6-28.5,18.8-46.6C363.4,353.8,361.6,354.2,359.7,354.6z"/>
	<path opacity="0.5" fill="#00CCCC" d="M285.3,388.6c19,7.2,37.2,11.1,53.8,11.4c8.1-13.1,15-28.4,20.6-45.4
		c-13.6,2.9-28.5,4.6-44.3,5C305.7,370.4,295.6,380.2,285.3,388.6z"/>
	<path opacity="0.5" fill="#890CB2" d="M285.3,388.6c19,7.2,37.2,11.1,53.8,11.4c8.1-13.1,15-28.4,20.6-45.4
		c-13.6,2.9-28.5,4.6-44.3,5C305.7,370.4,295.6,380.2,285.3,388.6z"/>
	<path opacity="0.5" fill="#387BF4" d="M285.3,388.6c19,7.2,37.2,11.1,53.8,11.4c8.1-13.1,15-28.4,20.6-45.4
		c-13.6,2.9-28.5,4.6-44.3,5C305.7,370.4,295.6,380.2,285.3,388.6z"/>
	<path opacity="0.5" fill="#00CCCC" d="M219.5,128c9.1-9.3,18.4-17.7,27.8-25c-13.1-6.4-26.1-11.3-38.6-14.7
		c-9,10.6-17.1,23.5-24,38.3C195.9,126.4,207.5,126.9,219.5,128z"/>
	<path opacity="0.5" fill="#890CB2" d="M219.5,128c9.1-9.3,18.4-17.7,27.8-25c-13.1-6.4-26.1-11.3-38.6-14.7
		c-9,10.6-17.1,23.5-24,38.3C195.9,126.4,207.5,126.9,219.5,128z"/>
	<path opacity="0.5" fill="#387BF4" d="M219.5,128c9.1-9.3,18.4-17.7,27.8-25c-13.1-6.4-26.1-11.3-38.6-14.7
		c-9,10.6-17.1,23.5-24,38.3C195.9,126.4,207.5,126.9,219.5,128z"/>
	<path opacity="0.5" fill="#00CCCC" d="M315.5,359.6c-14.1,0.3-29-0.5-44.3-2.4c-9.8,3.9-19.4,7.3-29,10c14.5,8.8,29,16,43.1,21.3
		C295.6,380.2,305.7,370.4,315.5,359.6z"/>
	<path opacity="0.5" fill="#890CB2" d="M315.5,359.6c-14.1,0.3-29-0.5-44.3-2.4c-9.8,3.9-19.4,7.3-29,10c14.5,8.8,29,16,43.1,21.3
		C295.6,380.2,305.7,370.4,315.5,359.6z"/>
	<path opacity="0.5" fill="#890CB2" d="M315.5,359.6c-14.1,0.3-29-0.5-44.3-2.4c-9.8,3.9-19.4,7.3-29,10c14.5,8.8,29,16,43.1,21.3
		C295.6,380.2,305.7,370.4,315.5,359.6z"/>
	<path opacity="0.5" fill="#387BF4" d="M315.5,359.6c-14.1,0.3-29-0.5-44.3-2.4c-9.8,3.9-19.4,7.3-29,10c14.5,8.8,29,16,43.1,21.3
		C295.6,380.2,305.7,370.4,315.5,359.6z"/>
	<path opacity="0.5" fill="#00CCCC" d="M219.5,128c7.5,0.7,15.1,1.7,22.8,3c11-4.8,21.9-9,32.7-12.4c-9.2-5.9-18.5-11.1-27.7-15.6
		C237.9,110.3,228.5,118.7,219.5,128z"/>
	<path opacity="0.5" fill="#890CB2" d="M219.5,128c7.5,0.7,15.1,1.7,22.8,3c11-4.8,21.9-9,32.7-12.4c-9.2-5.9-18.5-11.1-27.7-15.6
		C237.9,110.3,228.5,118.7,219.5,128z"/>
	<path opacity="0.5" fill="#890CB2" d="M219.5,128c7.5,0.7,15.1,1.7,22.8,3c11-4.8,21.9-9,32.7-12.4c-9.2-5.9-18.5-11.1-27.7-15.6
		C237.9,110.3,228.5,118.7,219.5,128z"/>
	<path opacity="0.5" fill="#387BF4" d="M219.5,128c7.5,0.7,15.1,1.7,22.8,3c11-4.8,21.9-9,32.7-12.4c-9.2-5.9-18.5-11.1-27.7-15.6
		C237.9,110.3,228.5,118.7,219.5,128z"/>
	<path opacity="0.5" fill="#387BF4" d="M208.4,343.4c11.1,9,22.5,16.9,33.8,23.9c9.5-2.8,19.2-6.1,29-10c-16.3-2-33.1-5.3-50-10
		C216.9,346,212.6,344.7,208.4,343.4z"/>
	<path opacity="0.5" fill="#00CCCC" d="M208.4,343.4c11.1,9,22.5,16.9,33.8,23.9c9.5-2.8,19.2-6.1,29-10c-16.3-2-33.1-5.3-50-10
		C216.9,346,212.6,344.7,208.4,343.4z"/>
	<path opacity="0.5" fill="#890CB2" d="M208.4,343.4c11.1,9,22.5,16.9,33.8,23.9c9.5-2.8,19.2-6.1,29-10c-16.3-2-33.1-5.3-50-10
		C216.9,346,212.6,344.7,208.4,343.4z"/>
	<path opacity="0.5" fill="#890CB2" d="M208.4,343.4c11.1,9,22.5,16.9,33.8,23.9c9.5-2.8,19.2-6.1,29-10c-16.3-2-33.1-5.3-50-10
		C216.9,346,212.6,344.7,208.4,343.4z"/>
	<path opacity="0.5" fill="#387BF4" d="M208.4,343.4c11.1,9,22.5,16.9,33.8,23.9c9.5-2.8,19.2-6.1,29-10c-16.3-2-33.1-5.3-50-10
		C216.9,346,212.6,344.7,208.4,343.4z"/>
	<path opacity="0.5" fill="#387BF4" d="M320.2,153.3c-14.7-13.4-29.9-25-45.3-34.7c-10.8,3.4-21.7,7.6-32.7,12.4
		c12,2,24.2,4.7,36.5,8.1C293.3,143.1,307.1,147.9,320.2,153.3z"/>
	<path opacity="0.5" fill="#00CCCC" d="M320.2,153.3c-14.7-13.4-29.9-25-45.3-34.7c-10.8,3.4-21.7,7.6-32.7,12.4
		c12,2,24.2,4.7,36.5,8.1C293.3,143.1,307.1,147.9,320.2,153.3z"/>
	<path opacity="0.5" fill="#890CB2" d="M320.2,153.3c-14.7-13.4-29.9-25-45.3-34.7c-10.8,3.4-21.7,7.6-32.7,12.4
		c12,2,24.2,4.7,36.5,8.1C293.3,143.1,307.1,147.9,320.2,153.3z"/>
	<path opacity="0.5" fill="#890CB2" d="M320.2,153.3c-14.7-13.4-29.9-25-45.3-34.7c-10.8,3.4-21.7,7.6-32.7,12.4
		c12,2,24.2,4.7,36.5,8.1C293.3,143.1,307.1,147.9,320.2,153.3z"/>
	<path opacity="0.5" fill="#387BF4" d="M320.2,153.3c-14.7-13.4-29.9-25-45.3-34.7c-10.8,3.4-21.7,7.6-32.7,12.4
		c12,2,24.2,4.7,36.5,8.1C293.3,143.1,307.1,147.9,320.2,153.3z"/>
	<path opacity="0.5" fill="#00CCCC" d="M365.2,353.4c3.1-13.5,4.9-28.2,5.5-43.7c-2.6,15.9-6.3,31-10.9,45
		C361.6,354.2,363.4,353.8,365.2,353.4z"/>
	<path opacity="0.5" fill="#890CB2" d="M365.2,353.4c3.1-13.5,4.9-28.2,5.5-43.7c-2.6,15.9-6.3,31-10.9,45
		C361.6,354.2,363.4,353.8,365.2,353.4z"/>
	<path opacity="0.5" fill="#387BF4" d="M365.2,353.4c3.1-13.5,4.9-28.2,5.5-43.7c-2.6,15.9-6.3,31-10.9,45
		C361.6,354.2,363.4,353.8,365.2,353.4z"/>
	<path opacity="0.5" fill="#00CCCC" d="M184.7,126.7c-14.3,0.3-27.9,1.7-40.4,4.2c-4.7,20.8-6.5,44.5-5.1,69.8
		c8.8-8.7,18.4-17.3,28.9-25.4C172.3,157.6,177.9,141.2,184.7,126.7z"/>
	<path opacity="0.5" fill="#890CB2" d="M184.7,126.7c-14.3,0.3-27.9,1.7-40.4,4.2c-4.7,20.8-6.5,44.5-5.1,69.8
		c8.8-8.7,18.4-17.3,28.9-25.4C172.3,157.6,177.9,141.2,184.7,126.7z"/>
	<path opacity="0.5" fill="#387BF4" d="M184.7,126.7c-14.3,0.3-27.9,1.7-40.4,4.2c-4.7,20.8-6.5,44.5-5.1,69.8
		c8.8-8.7,18.4-17.3,28.9-25.4C172.3,157.6,177.9,141.2,184.7,126.7z"/>
	<path opacity="0.5" fill="#387BF4" d="M162,208.7c1.5-11.6,3.5-22.8,6.1-33.5c-10.5,8.2-20.1,16.7-28.9,25.4
		c0.8,14.9,2.8,30.4,5.9,46.1C149.8,234.2,155.4,221.5,162,208.7z"/>
	<path opacity="0.5" fill="#00CCCC" d="M162,208.7c1.5-11.6,3.5-22.8,6.1-33.5c-10.5,8.2-20.1,16.7-28.9,25.4
		c0.8,14.9,2.8,30.4,5.9,46.1C149.8,234.2,155.4,221.5,162,208.7z"/>
	<path opacity="0.5" fill="#890CB2" d="M162,208.7c1.5-11.6,3.5-22.8,6.1-33.5c-10.5,8.2-20.1,16.7-28.9,25.4
		c0.8,14.9,2.8,30.4,5.9,46.1C149.8,234.2,155.4,221.5,162,208.7z"/>
	<path opacity="0.5" fill="#387BF4" d="M162,208.7c1.5-11.6,3.5-22.8,6.1-33.5c-10.5,8.2-20.1,16.7-28.9,25.4
		c0.8,14.9,2.8,30.4,5.9,46.1C149.8,234.2,155.4,221.5,162,208.7z"/>
	<path opacity="0.5" fill="#00CCCC" d="M195.3,156.2c7.8-10.2,15.9-19.6,24.2-28.1c-11.9-1.1-23.6-1.6-34.8-1.3
		c-6.8,14.5-12.4,30.9-16.6,48.6C176.6,168.6,185.7,162.2,195.3,156.2z"/>
	<path opacity="0.5" fill="#00CCCC" d="M195.3,156.2c7.8-10.2,15.9-19.6,24.2-28.1c-11.9-1.1-23.6-1.6-34.8-1.3
		c-6.8,14.5-12.4,30.9-16.6,48.6C176.6,168.6,185.7,162.2,195.3,156.2z"/>
	<path opacity="0.5" fill="#890CB2" d="M195.3,156.2c7.8-10.2,15.9-19.6,24.2-28.1c-11.9-1.1-23.6-1.6-34.8-1.3
		c-6.8,14.5-12.4,30.9-16.6,48.6C176.6,168.6,185.7,162.2,195.3,156.2z"/>
	<path opacity="0.5" fill="#387BF4" d="M195.3,156.2c7.8-10.2,15.9-19.6,24.2-28.1c-11.9-1.1-23.6-1.6-34.8-1.3
		c-6.8,14.5-12.4,30.9-16.6,48.6C176.6,168.6,185.7,162.2,195.3,156.2z"/>
	<path opacity="0.5" fill="#00CCCC" d="M370.8,296.4c-6.4,5.6-13.1,11-20.2,16.3c-10.8,17.3-22.7,33-35.1,46.9
		c15.7-0.3,30.6-2,44.3-5c4.6-14,8.3-29.1,10.9-45C370.8,305.3,370.8,300.9,370.8,296.4z"/>
	<path opacity="0.5" fill="#00CCCC" d="M370.8,296.4c-6.4,5.6-13.1,11-20.2,16.3c-10.8,17.3-22.7,33-35.1,46.9
		c15.7-0.3,30.6-2,44.3-5c4.6-14,8.3-29.1,10.9-45C370.8,305.3,370.8,300.9,370.8,296.4z"/>
	<path opacity="0.5" fill="#890CB2" d="M370.8,296.4c-6.4,5.6-13.1,11-20.2,16.3c-10.8,17.3-22.7,33-35.1,46.9
		c15.7-0.3,30.6-2,44.3-5c4.6-14,8.3-29.1,10.9-45C370.8,305.3,370.8,300.9,370.8,296.4z"/>
	<path opacity="0.5" fill="#387BF4" d="M370.8,296.4c-6.4,5.6-13.1,11-20.2,16.3c-10.8,17.3-22.7,33-35.1,46.9
		c15.7-0.3,30.6-2,44.3-5c4.6-14,8.3-29.1,10.9-45C370.8,305.3,370.8,300.9,370.8,296.4z"/>
	<path opacity="0.5" fill="#387BF4" d="M195.3,156.2c-9.6,6.1-18.6,12.5-27.2,19.1c-2.6,10.7-4.6,21.9-6.1,33.5
		c2.5-4.9,5.2-9.8,8-14.7C177.9,180.5,186.3,167.8,195.3,156.2z"/>
	<path opacity="0.5" fill="#00CCCC" d="M195.3,156.2c-9.6,6.1-18.6,12.5-27.2,19.1c-2.6,10.7-4.6,21.9-6.1,33.5
		c2.5-4.9,5.2-9.8,8-14.7C177.9,180.5,186.3,167.8,195.3,156.2z"/>
	<path opacity="0.5" fill="#00CCCC" d="M195.3,156.2c-9.6,6.1-18.6,12.5-27.2,19.1c-2.6,10.7-4.6,21.9-6.1,33.5
		c2.5-4.9,5.2-9.8,8-14.7C177.9,180.5,186.3,167.8,195.3,156.2z"/>
	<path opacity="0.5" fill="#890CB2" d="M195.3,156.2c-9.6,6.1-18.6,12.5-27.2,19.1c-2.6,10.7-4.6,21.9-6.1,33.5
		c2.5-4.9,5.2-9.8,8-14.7C177.9,180.5,186.3,167.8,195.3,156.2z"/>
	<path opacity="0.5" fill="#387BF4" d="M195.3,156.2c-9.6,6.1-18.6,12.5-27.2,19.1c-2.6,10.7-4.6,21.9-6.1,33.5
		c2.5-4.9,5.2-9.8,8-14.7C177.9,180.5,186.3,167.8,195.3,156.2z"/>
	<path opacity="0.5" fill="#387BF4" d="M350.6,312.7c7.1-5.3,13.8-10.7,20.2-16.3c-0.1-6.2-0.3-12.5-0.8-18.9
		c-3.9,8.2-8.2,16.4-12.9,24.5C354.9,305.6,352.8,309.2,350.6,312.7z"/>
	<path opacity="0.5" fill="#00CCCC" d="M350.6,312.7c7.1-5.3,13.8-10.7,20.2-16.3c-0.1-6.2-0.3-12.5-0.8-18.9
		c-3.9,8.2-8.2,16.4-12.9,24.5C354.9,305.6,352.8,309.2,350.6,312.7z"/>
	<path opacity="0.5" fill="#00CCCC" d="M350.6,312.7c7.1-5.3,13.8-10.7,20.2-16.3c-0.1-6.2-0.3-12.5-0.8-18.9
		c-3.9,8.2-8.2,16.4-12.9,24.5C354.9,305.6,352.8,309.2,350.6,312.7z"/>
	<path opacity="0.5" fill="#890CB2" d="M350.6,312.7c7.1-5.3,13.8-10.7,20.2-16.3c-0.1-6.2-0.3-12.5-0.8-18.9
		c-3.9,8.2-8.2,16.4-12.9,24.5C354.9,305.6,352.8,309.2,350.6,312.7z"/>
	<path opacity="0.5" fill="#387BF4" d="M350.6,312.7c7.1-5.3,13.8-10.7,20.2-16.3c-0.1-6.2-0.3-12.5-0.8-18.9
		c-3.9,8.2-8.2,16.4-12.9,24.5C354.9,305.6,352.8,309.2,350.6,312.7z"/>
	<path opacity="0.5" fill="#387BF4" d="M159.2,253.5c0-10.8,0.5-21.4,1.4-31.7l-1.2-3.9h1.6c0.3-3.1,0.7-6.1,1-9.2
		c-6.6,12.7-12.2,25.5-16.9,38.1c1.5,7.6,3.3,15.3,5.4,23c2.2,8.1,4.6,15.9,7.2,23.6c1.4,1.7,2.9,3.4,4.4,5.1
		C160.2,284.1,159.2,269,159.2,253.5z"/>
	<path opacity="0.5" fill="#890CB2" d="M159.2,253.5c0-10.8,0.5-21.4,1.4-31.7l-1.2-3.9h1.6c0.3-3.1,0.7-6.1,1-9.2
		c-6.6,12.7-12.2,25.5-16.9,38.1c1.5,7.6,3.3,15.3,5.4,23c2.2,8.1,4.6,15.9,7.2,23.6c1.4,1.7,2.9,3.4,4.4,5.1
		C160.2,284.1,159.2,269,159.2,253.5z"/>
	<path opacity="0.5" fill="#00CCCC" d="M159.2,253.5c0-10.8,0.5-21.4,1.4-31.7l-1.2-3.9h1.6c0.3-3.1,0.7-6.1,1-9.2
		c-6.6,12.7-12.2,25.5-16.9,38.1c1.5,7.6,3.3,15.3,5.4,23c2.2,8.1,4.6,15.9,7.2,23.6c1.4,1.7,2.9,3.4,4.4,5.1
		C160.2,284.1,159.2,269,159.2,253.5z"/>
	<path opacity="0.5" fill="#890CB2" d="M159.2,253.5c0-10.8,0.5-21.4,1.4-31.7l-1.2-3.9h1.6c0.3-3.1,0.7-6.1,1-9.2
		c-6.6,12.7-12.2,25.5-16.9,38.1c1.5,7.6,3.3,15.3,5.4,23c2.2,8.1,4.6,15.9,7.2,23.6c1.4,1.7,2.9,3.4,4.4,5.1
		C160.2,284.1,159.2,269,159.2,253.5z"/>
	<path opacity="0.5" fill="#387BF4" d="M159.2,253.5c0-10.8,0.5-21.4,1.4-31.7l-1.2-3.9h1.6c0.3-3.1,0.7-6.1,1-9.2
		c-6.6,12.7-12.2,25.5-16.9,38.1c1.5,7.6,3.3,15.3,5.4,23c2.2,8.1,4.6,15.9,7.2,23.6c1.4,1.7,2.9,3.4,4.4,5.1
		C160.2,284.1,159.2,269,159.2,253.5z"/>
	<path opacity="0.5" fill="#00CCCC" d="M242.3,131c-7.7-1.3-15.3-2.3-22.8-3c-8.3,8.6-16.4,18-24.2,28.1c4.2-2.7,8.5-5.3,12.9-7.8
		C219.5,141.8,230.9,136,242.3,131z"/>
	<path opacity="0.5" fill="#890CB2" d="M242.3,131c-7.7-1.3-15.3-2.3-22.8-3c-8.3,8.6-16.4,18-24.2,28.1c4.2-2.7,8.5-5.3,12.9-7.8
		C219.5,141.8,230.9,136,242.3,131z"/>
	<path opacity="0.5" fill="#00CCCC" d="M242.3,131c-7.7-1.3-15.3-2.3-22.8-3c-8.3,8.6-16.4,18-24.2,28.1c4.2-2.7,8.5-5.3,12.9-7.8
		C219.5,141.8,230.9,136,242.3,131z"/>
	<path opacity="0.5" fill="#890CB2" d="M242.3,131c-7.7-1.3-15.3-2.3-22.8-3c-8.3,8.6-16.4,18-24.2,28.1c4.2-2.7,8.5-5.3,12.9-7.8
		C219.5,141.8,230.9,136,242.3,131z"/>
	<path opacity="0.5" fill="#387BF4" d="M242.3,131c-7.7-1.3-15.3-2.3-22.8-3c-8.3,8.6-16.4,18-24.2,28.1c4.2-2.7,8.5-5.3,12.9-7.8
		C219.5,141.8,230.9,136,242.3,131z"/>
	<path opacity="0.5" fill="#00CCCC" d="M271.2,357.2c15.3,1.9,30.1,2.7,44.3,2.4c12.5-13.9,24.3-29.6,35.1-46.9
		c-10.7,8-22.3,15.6-34.5,22.7C301.2,344,286.1,351.2,271.2,357.2z"/>
	<path opacity="0.5" fill="#890CB2" d="M271.2,357.2c15.3,1.9,30.1,2.7,44.3,2.4c12.5-13.9,24.3-29.6,35.1-46.9
		c-10.7,8-22.3,15.6-34.5,22.7C301.2,344,286.1,351.2,271.2,357.2z"/>
	<path opacity="0.5" fill="#00CCCC" d="M271.2,357.2c15.3,1.9,30.1,2.7,44.3,2.4c12.5-13.9,24.3-29.6,35.1-46.9
		c-10.7,8-22.3,15.6-34.5,22.7C301.2,344,286.1,351.2,271.2,357.2z"/>
	<path opacity="0.5" fill="#890CB2" d="M271.2,357.2c15.3,1.9,30.1,2.7,44.3,2.4c12.5-13.9,24.3-29.6,35.1-46.9
		c-10.7,8-22.3,15.6-34.5,22.7C301.2,344,286.1,351.2,271.2,357.2z"/>
	<path opacity="0.5" fill="#387BF4" d="M271.2,357.2c15.3,1.9,30.1,2.7,44.3,2.4c12.5-13.9,24.3-29.6,35.1-46.9
		c-10.7,8-22.3,15.6-34.5,22.7C301.2,344,286.1,351.2,271.2,357.2z"/>
	<path opacity="0.5" fill="#387BF4" d="M349.2,182.9c-5.2-6-10.8-11.9-16.6-17.7c-4.1-4.1-8.2-8-12.4-11.8
		c-13.1-5.4-27-10.2-41.4-14.3c-12.3-3.4-24.5-6.1-36.5-8.1c-11.4,5-22.8,10.8-34.2,17.3c-4.4,2.5-8.7,5.1-12.9,7.8
		c-8.9,11.7-17.4,24.3-25.2,37.9c-2.8,4.9-5.5,9.8-8,14.7c-0.4,3-0.7,6.1-1,9.2h7.4c0.9,0,1.7,0.2,2.3,0.6c0.6,0.4,1,1,1.2,1.7
		l6.3,24c0.2,0.8,0.4,1.6,0.6,2.5c0.2,0.9,0.4,1.8,0.6,2.8c0.4-2,0.8-3.7,1.4-5.3l7.5-24c0.2-0.6,0.6-1.1,1.2-1.6
		c0.6-0.5,1.4-0.7,2.3-0.7h3.2c0.9,0,1.7,0.2,2.2,0.6c0.6,0.4,1,1,1.3,1.7l7.4,24c0.5,1.5,1,3.1,1.4,5c0.2-0.9,0.3-1.8,0.5-2.7
		c0.2-0.8,0.4-1.6,0.6-2.4l6.3-24c0.2-0.6,0.6-1.1,1.2-1.6c0.6-0.5,1.4-0.7,2.3-0.7h8.4l-14.2,46h-9.7l-8.7-28.5
		c-0.2-0.4-0.3-0.9-0.5-1.5c-0.1-0.5-0.3-1.1-0.4-1.7c-0.1,0.6-0.3,1.2-0.4,1.7c-0.1,0.5-0.3,1-0.5,1.5l-8.8,28.5h-9.7l-13-42.1
		c-0.9,10.3-1.4,20.9-1.4,31.7c0,15.5,1,30.6,2.9,45c5.6,6.5,11.6,13,17.9,19.3c9.2,9.2,18.8,17.8,28.4,25.5
		c4.2,1.3,8.5,2.6,12.8,3.8c17,4.7,33.7,8,50,10c14.9-6,30-13.3,44.9-21.9c12.2-7.1,23.8-14.7,34.5-22.7c2.2-3.5,4.3-7,6.4-10.7
		c4.7-8.2,9-16.4,12.9-24.5c-1.5-20.4-5.1-41.8-10.9-63.5C356.2,203.2,352.9,192.8,349.2,182.9z M241.8,264H231v-46h10.7V264z
		 M283.8,226.4h-13V264h-10.7v-37.6h-13v-8.5h36.6V226.4z M340.9,264h-9.4v-26.5c0-0.6,0-1.3,0-2c0-0.7,0.1-1.4,0.2-2.2L319.5,257
		c-0.4,0.7-0.9,1.3-1.5,1.7s-1.4,0.6-2.2,0.6h-1.5c-0.8,0-1.6-0.2-2.2-0.6c-0.6-0.4-1.2-0.9-1.5-1.7l-12.2-23.7
		c0.1,0.8,0.1,1.5,0.2,2.2s0.1,1.4,0.1,2V264h-9.4v-46h8.2c0.5,0,0.9,0,1.2,0c0.3,0,0.7,0.1,0.9,0.2c0.3,0.1,0.5,0.3,0.7,0.5
		c0.2,0.2,0.4,0.5,0.6,0.9l11.8,23.4c0.4,0.8,0.8,1.6,1.2,2.5c0.4,0.9,0.8,1.7,1.1,2.7c0.4-0.9,0.7-1.8,1.1-2.7
		c0.4-0.9,0.8-1.7,1.2-2.5l11.8-23.3c0.2-0.4,0.4-0.7,0.6-0.9c0.2-0.2,0.5-0.4,0.7-0.5c0.3-0.1,0.6-0.2,0.9-0.2c0.3,0,0.8,0,1.2,0
		h8.2V264z"/>
	<path opacity="0.5" fill="#00CCCC" d="M349.2,182.9c-5.2-6-10.8-11.9-16.6-17.7c-4.1-4.1-8.2-8-12.4-11.8
		c-13.1-5.4-27-10.2-41.4-14.3c-12.3-3.4-24.5-6.1-36.5-8.1c-11.4,5-22.8,10.8-34.2,17.3c-4.4,2.5-8.7,5.1-12.9,7.8
		c-8.9,11.7-17.4,24.3-25.2,37.9c-2.8,4.9-5.5,9.8-8,14.7c-0.4,3-0.7,6.1-1,9.2h7.4c0.9,0,1.7,0.2,2.3,0.6c0.6,0.4,1,1,1.2,1.7
		l6.3,24c0.2,0.8,0.4,1.6,0.6,2.5c0.2,0.9,0.4,1.8,0.6,2.8c0.4-2,0.8-3.7,1.4-5.3l7.5-24c0.2-0.6,0.6-1.1,1.2-1.6
		c0.6-0.5,1.4-0.7,2.3-0.7h3.2c0.9,0,1.7,0.2,2.2,0.6c0.6,0.4,1,1,1.3,1.7l7.4,24c0.5,1.5,1,3.1,1.4,5c0.2-0.9,0.3-1.8,0.5-2.7
		c0.2-0.8,0.4-1.6,0.6-2.4l6.3-24c0.2-0.6,0.6-1.1,1.2-1.6c0.6-0.5,1.4-0.7,2.3-0.7h8.4l-14.2,46h-9.7l-8.7-28.5
		c-0.2-0.4-0.3-0.9-0.5-1.5c-0.1-0.5-0.3-1.1-0.4-1.7c-0.1,0.6-0.3,1.2-0.4,1.7c-0.1,0.5-0.3,1-0.5,1.5l-8.8,28.5h-9.7l-13-42.1
		c-0.9,10.3-1.4,20.9-1.4,31.7c0,15.5,1,30.6,2.9,45c5.6,6.5,11.6,13,17.9,19.3c9.2,9.2,18.8,17.8,28.4,25.5
		c4.2,1.3,8.5,2.6,12.8,3.8c17,4.7,33.7,8,50,10c14.9-6,30-13.3,44.9-21.9c12.2-7.1,23.8-14.7,34.5-22.7c2.2-3.5,4.3-7,6.4-10.7
		c4.7-8.2,9-16.4,12.9-24.5c-1.5-20.4-5.1-41.8-10.9-63.5C356.2,203.2,352.9,192.8,349.2,182.9z M241.8,264H231v-46h10.7V264z
		 M283.8,226.4h-13V264h-10.7v-37.6h-13v-8.5h36.6V226.4z M340.9,264h-9.4v-26.5c0-0.6,0-1.3,0-2c0-0.7,0.1-1.4,0.2-2.2L319.5,257
		c-0.4,0.7-0.9,1.3-1.5,1.7s-1.4,0.6-2.2,0.6h-1.5c-0.8,0-1.6-0.2-2.2-0.6c-0.6-0.4-1.2-0.9-1.5-1.7l-12.2-23.7
		c0.1,0.8,0.1,1.5,0.2,2.2s0.1,1.4,0.1,2V264h-9.4v-46h8.2c0.5,0,0.9,0,1.2,0c0.3,0,0.7,0.1,0.9,0.2c0.3,0.1,0.5,0.3,0.7,0.5
		c0.2,0.2,0.4,0.5,0.6,0.9l11.8,23.4c0.4,0.8,0.8,1.6,1.2,2.5c0.4,0.9,0.8,1.7,1.1,2.7c0.4-0.9,0.7-1.8,1.1-2.7
		c0.4-0.9,0.8-1.7,1.2-2.5l11.8-23.3c0.2-0.4,0.4-0.7,0.6-0.9c0.2-0.2,0.5-0.4,0.7-0.5c0.3-0.1,0.6-0.2,0.9-0.2c0.3,0,0.8,0,1.2,0
		h8.2V264z"/>
	<path opacity="0.5" fill="#890CB2" d="M349.2,182.9c-5.2-6-10.8-11.9-16.6-17.7c-4.1-4.1-8.2-8-12.4-11.8
		c-13.1-5.4-27-10.2-41.4-14.3c-12.3-3.4-24.5-6.1-36.5-8.1c-11.4,5-22.8,10.8-34.2,17.3c-4.4,2.5-8.7,5.1-12.9,7.8
		c-8.9,11.7-17.4,24.3-25.2,37.9c-2.8,4.9-5.5,9.8-8,14.7c-0.4,3-0.7,6.1-1,9.2h7.4c0.9,0,1.7,0.2,2.3,0.6c0.6,0.4,1,1,1.2,1.7
		l6.3,24c0.2,0.8,0.4,1.6,0.6,2.5c0.2,0.9,0.4,1.8,0.6,2.8c0.4-2,0.8-3.7,1.4-5.3l7.5-24c0.2-0.6,0.6-1.1,1.2-1.6
		c0.6-0.5,1.4-0.7,2.3-0.7h3.2c0.9,0,1.7,0.2,2.2,0.6c0.6,0.4,1,1,1.3,1.7l7.4,24c0.5,1.5,1,3.1,1.4,5c0.2-0.9,0.3-1.8,0.5-2.7
		c0.2-0.8,0.4-1.6,0.6-2.4l6.3-24c0.2-0.6,0.6-1.1,1.2-1.6c0.6-0.5,1.4-0.7,2.3-0.7h8.4l-14.2,46h-9.7l-8.7-28.5
		c-0.2-0.4-0.3-0.9-0.5-1.5c-0.1-0.5-0.3-1.1-0.4-1.7c-0.1,0.6-0.3,1.2-0.4,1.7c-0.1,0.5-0.3,1-0.5,1.5l-8.8,28.5h-9.7l-13-42.1
		c-0.9,10.3-1.4,20.9-1.4,31.7c0,15.5,1,30.6,2.9,45c5.6,6.5,11.6,13,17.9,19.3c9.2,9.2,18.8,17.8,28.4,25.5
		c4.2,1.3,8.5,2.6,12.8,3.8c17,4.7,33.7,8,50,10c14.9-6,30-13.3,44.9-21.9c12.2-7.1,23.8-14.7,34.5-22.7c2.2-3.5,4.3-7,6.4-10.7
		c4.7-8.2,9-16.4,12.9-24.5c-1.5-20.4-5.1-41.8-10.9-63.5C356.2,203.2,352.9,192.8,349.2,182.9z M241.8,264H231v-46h10.7V264z
		 M283.8,226.4h-13V264h-10.7v-37.6h-13v-8.5h36.6V226.4z M340.9,264h-9.4v-26.5c0-0.6,0-1.3,0-2c0-0.7,0.1-1.4,0.2-2.2L319.5,257
		c-0.4,0.7-0.9,1.3-1.5,1.7s-1.4,0.6-2.2,0.6h-1.5c-0.8,0-1.6-0.2-2.2-0.6c-0.6-0.4-1.2-0.9-1.5-1.7l-12.2-23.7
		c0.1,0.8,0.1,1.5,0.2,2.2s0.1,1.4,0.1,2V264h-9.4v-46h8.2c0.5,0,0.9,0,1.2,0c0.3,0,0.7,0.1,0.9,0.2c0.3,0.1,0.5,0.3,0.7,0.5
		c0.2,0.2,0.4,0.5,0.6,0.9l11.8,23.4c0.4,0.8,0.8,1.6,1.2,2.5c0.4,0.9,0.8,1.7,1.1,2.7c0.4-0.9,0.7-1.8,1.1-2.7
		c0.4-0.9,0.8-1.7,1.2-2.5l11.8-23.3c0.2-0.4,0.4-0.7,0.6-0.9c0.2-0.2,0.5-0.4,0.7-0.5c0.3-0.1,0.6-0.2,0.9-0.2c0.3,0,0.8,0,1.2,0
		h8.2V264z"/>
	<path opacity="0.5" fill="#00CCCC" d="M349.2,182.9c-5.2-6-10.8-11.9-16.6-17.7c-4.1-4.1-8.2-8-12.4-11.8
		c-13.1-5.4-27-10.2-41.4-14.3c-12.3-3.4-24.5-6.1-36.5-8.1c-11.4,5-22.8,10.8-34.2,17.3c-4.4,2.5-8.7,5.1-12.9,7.8
		c-8.9,11.7-17.4,24.3-25.2,37.9c-2.8,4.9-5.5,9.8-8,14.7c-0.4,3-0.7,6.1-1,9.2h7.4c0.9,0,1.7,0.2,2.3,0.6c0.6,0.4,1,1,1.2,1.7
		l6.3,24c0.2,0.8,0.4,1.6,0.6,2.5c0.2,0.9,0.4,1.8,0.6,2.8c0.4-2,0.8-3.7,1.4-5.3l7.5-24c0.2-0.6,0.6-1.1,1.2-1.6
		c0.6-0.5,1.4-0.7,2.3-0.7h3.2c0.9,0,1.7,0.2,2.2,0.6c0.6,0.4,1,1,1.3,1.7l7.4,24c0.5,1.5,1,3.1,1.4,5c0.2-0.9,0.3-1.8,0.5-2.7
		c0.2-0.8,0.4-1.6,0.6-2.4l6.3-24c0.2-0.6,0.6-1.1,1.2-1.6c0.6-0.5,1.4-0.7,2.3-0.7h8.4l-14.2,46h-9.7l-8.7-28.5
		c-0.2-0.4-0.3-0.9-0.5-1.5c-0.1-0.5-0.3-1.1-0.4-1.7c-0.1,0.6-0.3,1.2-0.4,1.7c-0.1,0.5-0.3,1-0.5,1.5l-8.8,28.5h-9.7l-13-42.1
		c-0.9,10.3-1.4,20.9-1.4,31.7c0,15.5,1,30.6,2.9,45c5.6,6.5,11.6,13,17.9,19.3c9.2,9.2,18.8,17.8,28.4,25.5
		c4.2,1.3,8.5,2.6,12.8,3.8c17,4.7,33.7,8,50,10c14.9-6,30-13.3,44.9-21.9c12.2-7.1,23.8-14.7,34.5-22.7c2.2-3.5,4.3-7,6.4-10.7
		c4.7-8.2,9-16.4,12.9-24.5c-1.5-20.4-5.1-41.8-10.9-63.5C356.2,203.2,352.9,192.8,349.2,182.9z M241.8,264H231v-46h10.7V264z
		 M283.8,226.4h-13V264h-10.7v-37.6h-13v-8.5h36.6V226.4z M340.9,264h-9.4v-26.5c0-0.6,0-1.3,0-2c0-0.7,0.1-1.4,0.2-2.2L319.5,257
		c-0.4,0.7-0.9,1.3-1.5,1.7s-1.4,0.6-2.2,0.6h-1.5c-0.8,0-1.6-0.2-2.2-0.6c-0.6-0.4-1.2-0.9-1.5-1.7l-12.2-23.7
		c0.1,0.8,0.1,1.5,0.2,2.2s0.1,1.4,0.1,2V264h-9.4v-46h8.2c0.5,0,0.9,0,1.2,0c0.3,0,0.7,0.1,0.9,0.2c0.3,0.1,0.5,0.3,0.7,0.5
		c0.2,0.2,0.4,0.5,0.6,0.9l11.8,23.4c0.4,0.8,0.8,1.6,1.2,2.5c0.4,0.9,0.8,1.7,1.1,2.7c0.4-0.9,0.7-1.8,1.1-2.7
		c0.4-0.9,0.8-1.7,1.2-2.5l11.8-23.3c0.2-0.4,0.4-0.7,0.6-0.9c0.2-0.2,0.5-0.4,0.7-0.5c0.3-0.1,0.6-0.2,0.9-0.2c0.3,0,0.8,0,1.2,0
		h8.2V264z"/>
	<path opacity="0.5" fill="#890CB2" d="M349.2,182.9c-5.2-6-10.8-11.9-16.6-17.7c-4.1-4.1-8.2-8-12.4-11.8
		c-13.1-5.4-27-10.2-41.4-14.3c-12.3-3.4-24.5-6.1-36.5-8.1c-11.4,5-22.8,10.8-34.2,17.3c-4.4,2.5-8.7,5.1-12.9,7.8
		c-8.9,11.7-17.4,24.3-25.2,37.9c-2.8,4.9-5.5,9.8-8,14.7c-0.4,3-0.7,6.1-1,9.2h7.4c0.9,0,1.7,0.2,2.3,0.6c0.6,0.4,1,1,1.2,1.7
		l6.3,24c0.2,0.8,0.4,1.6,0.6,2.5c0.2,0.9,0.4,1.8,0.6,2.8c0.4-2,0.8-3.7,1.4-5.3l7.5-24c0.2-0.6,0.6-1.1,1.2-1.6
		c0.6-0.5,1.4-0.7,2.3-0.7h3.2c0.9,0,1.7,0.2,2.2,0.6c0.6,0.4,1,1,1.3,1.7l7.4,24c0.5,1.5,1,3.1,1.4,5c0.2-0.9,0.3-1.8,0.5-2.7
		c0.2-0.8,0.4-1.6,0.6-2.4l6.3-24c0.2-0.6,0.6-1.1,1.2-1.6c0.6-0.5,1.4-0.7,2.3-0.7h8.4l-14.2,46h-9.7l-8.7-28.5
		c-0.2-0.4-0.3-0.9-0.5-1.5c-0.1-0.5-0.3-1.1-0.4-1.7c-0.1,0.6-0.3,1.2-0.4,1.7c-0.1,0.5-0.3,1-0.5,1.5l-8.8,28.5h-9.7l-13-42.1
		c-0.9,10.3-1.4,20.9-1.4,31.7c0,15.5,1,30.6,2.9,45c5.6,6.5,11.6,13,17.9,19.3c9.2,9.2,18.8,17.8,28.4,25.5
		c4.2,1.3,8.5,2.6,12.8,3.8c17,4.7,33.7,8,50,10c14.9-6,30-13.3,44.9-21.9c12.2-7.1,23.8-14.7,34.5-22.7c2.2-3.5,4.3-7,6.4-10.7
		c4.7-8.2,9-16.4,12.9-24.5c-1.5-20.4-5.1-41.8-10.9-63.5C356.2,203.2,352.9,192.8,349.2,182.9z M241.8,264H231v-46h10.7V264z
		 M283.8,226.4h-13V264h-10.7v-37.6h-13v-8.5h36.6V226.4z M340.9,264h-9.4v-26.5c0-0.6,0-1.3,0-2c0-0.7,0.1-1.4,0.2-2.2L319.5,257
		c-0.4,0.7-0.9,1.3-1.5,1.7s-1.4,0.6-2.2,0.6h-1.5c-0.8,0-1.6-0.2-2.2-0.6c-0.6-0.4-1.2-0.9-1.5-1.7l-12.2-23.7
		c0.1,0.8,0.1,1.5,0.2,2.2s0.1,1.4,0.1,2V264h-9.4v-46h8.2c0.5,0,0.9,0,1.2,0c0.3,0,0.7,0.1,0.9,0.2c0.3,0.1,0.5,0.3,0.7,0.5
		c0.2,0.2,0.4,0.5,0.6,0.9l11.8,23.4c0.4,0.8,0.8,1.6,1.2,2.5c0.4,0.9,0.8,1.7,1.1,2.7c0.4-0.9,0.7-1.8,1.1-2.7
		c0.4-0.9,0.8-1.7,1.2-2.5l11.8-23.3c0.2-0.4,0.4-0.7,0.6-0.9c0.2-0.2,0.5-0.4,0.7-0.5c0.3-0.1,0.6-0.2,0.9-0.2c0.3,0,0.8,0,1.2,0
		h8.2V264z"/>
	<path opacity="0.5" fill="#387BF4" d="M349.2,182.9c-5.2-6-10.8-11.9-16.6-17.7c-4.1-4.1-8.2-8-12.4-11.8
		c-13.1-5.4-27-10.2-41.4-14.3c-12.3-3.4-24.5-6.1-36.5-8.1c-11.4,5-22.8,10.8-34.2,17.3c-4.4,2.5-8.7,5.1-12.9,7.8
		c-8.9,11.7-17.4,24.3-25.2,37.9c-2.8,4.9-5.5,9.8-8,14.7c-0.4,3-0.7,6.1-1,9.2h7.4c0.9,0,1.7,0.2,2.3,0.6c0.6,0.4,1,1,1.2,1.7
		l6.3,24c0.2,0.8,0.4,1.6,0.6,2.5c0.2,0.9,0.4,1.8,0.6,2.8c0.4-2,0.8-3.7,1.4-5.3l7.5-24c0.2-0.6,0.6-1.1,1.2-1.6
		c0.6-0.5,1.4-0.7,2.3-0.7h3.2c0.9,0,1.7,0.2,2.2,0.6c0.6,0.4,1,1,1.3,1.7l7.4,24c0.5,1.5,1,3.1,1.4,5c0.2-0.9,0.3-1.8,0.5-2.7
		c0.2-0.8,0.4-1.6,0.6-2.4l6.3-24c0.2-0.6,0.6-1.1,1.2-1.6c0.6-0.5,1.4-0.7,2.3-0.7h8.4l-14.2,46h-9.7l-8.7-28.5
		c-0.2-0.4-0.3-0.9-0.5-1.5c-0.1-0.5-0.3-1.1-0.4-1.7c-0.1,0.6-0.3,1.2-0.4,1.7c-0.1,0.5-0.3,1-0.5,1.5l-8.8,28.5h-9.7l-13-42.1
		c-0.9,10.3-1.4,20.9-1.4,31.7c0,15.5,1,30.6,2.9,45c5.6,6.5,11.6,13,17.9,19.3c9.2,9.2,18.8,17.8,28.4,25.5
		c4.2,1.3,8.5,2.6,12.8,3.8c17,4.7,33.7,8,50,10c14.9-6,30-13.3,44.9-21.9c12.2-7.1,23.8-14.7,34.5-22.7c2.2-3.5,4.3-7,6.4-10.7
		c4.7-8.2,9-16.4,12.9-24.5c-1.5-20.4-5.1-41.8-10.9-63.5C356.2,203.2,352.9,192.8,349.2,182.9z M241.8,264H231v-46h10.7V264z
		 M283.8,226.4h-13V264h-10.7v-37.6h-13v-8.5h36.6V226.4z M340.9,264h-9.4v-26.5c0-0.6,0-1.3,0-2c0-0.7,0.1-1.4,0.2-2.2L319.5,257
		c-0.4,0.7-0.9,1.3-1.5,1.7s-1.4,0.6-2.2,0.6h-1.5c-0.8,0-1.6-0.2-2.2-0.6c-0.6-0.4-1.2-0.9-1.5-1.7l-12.2-23.7
		c0.1,0.8,0.1,1.5,0.2,2.2s0.1,1.4,0.1,2V264h-9.4v-46h8.2c0.5,0,0.9,0,1.2,0c0.3,0,0.7,0.1,0.9,0.2c0.3,0.1,0.5,0.3,0.7,0.5
		c0.2,0.2,0.4,0.5,0.6,0.9l11.8,23.4c0.4,0.8,0.8,1.6,1.2,2.5c0.4,0.9,0.8,1.7,1.1,2.7c0.4-0.9,0.7-1.8,1.1-2.7
		c0.4-0.9,0.8-1.7,1.2-2.5l11.8-23.3c0.2-0.4,0.4-0.7,0.6-0.9c0.2-0.2,0.5-0.4,0.7-0.5c0.3-0.1,0.6-0.2,0.9-0.2c0.3,0,0.8,0,1.2,0
		h8.2V264z"/>
	<path fill="#FFFFFF" d="M160.6,221.8l13,42.1h9.7l8.8-28.5c0.2-0.4,0.3-0.9,0.5-1.5c0.1-0.5,0.3-1.1,0.4-1.7
		c0.1,0.6,0.3,1.2,0.4,1.7c0.1,0.5,0.3,1,0.5,1.5l8.7,28.5h9.7l14.2-46H218c-0.9,0-1.6,0.2-2.3,0.7c-0.6,0.5-1,1-1.2,1.6l-6.3,24
		c-0.2,0.7-0.4,1.5-0.6,2.4c-0.2,0.8-0.4,1.7-0.5,2.7c-0.4-1.9-0.8-3.5-1.4-5l-7.4-24c-0.3-0.7-0.7-1.2-1.3-1.7
		c-0.6-0.4-1.3-0.6-2.2-0.6h-3.2c-0.9,0-1.6,0.2-2.3,0.7c-0.6,0.5-1,1-1.2,1.6l-7.5,24c-0.5,1.5-1,3.3-1.4,5.3
		c-0.2-1-0.4-1.9-0.6-2.8c-0.2-0.9-0.4-1.7-0.6-2.5l-6.3-24c-0.2-0.7-0.6-1.3-1.2-1.7c-0.6-0.4-1.4-0.6-2.3-0.6H161h-1.6
		L160.6,221.8z"/>
	<rect x="231" y="217.9" fill="#FFFFFF" width="10.7" height="46"/>
	<polygon fill="#FFFFFF" points="247.2,226.4 260.1,226.4 260.1,264 270.8,264 270.8,226.4 283.8,226.4 283.8,217.9 247.2,217.9 	
		"/>
	<path fill="#FFFFFF" d="M331.6,217.9c-0.3,0-0.7,0.1-0.9,0.2c-0.3,0.1-0.5,0.3-0.7,0.5c-0.2,0.2-0.4,0.5-0.6,0.9l-11.8,23.3
		c-0.4,0.8-0.9,1.6-1.2,2.5c-0.4,0.9-0.8,1.8-1.1,2.7c-0.4-0.9-0.7-1.8-1.1-2.7c-0.4-0.9-0.8-1.7-1.2-2.5l-11.8-23.4
		c-0.2-0.4-0.4-0.7-0.6-0.9c-0.2-0.2-0.5-0.4-0.7-0.5c-0.3-0.1-0.6-0.2-0.9-0.2c-0.3,0-0.8,0-1.2,0h-8.2v46h9.4v-26.5
		c0-0.6,0-1.3-0.1-2s-0.1-1.5-0.2-2.2l12.2,23.7c0.4,0.7,0.9,1.3,1.5,1.7c0.6,0.4,1.4,0.6,2.2,0.6h1.5c0.8,0,1.6-0.2,2.2-0.6
		s1.2-0.9,1.5-1.7l12.2-23.7c-0.1,0.7-0.1,1.5-0.2,2.2c0,0.7,0,1.4,0,2V264h9.4v-46h-8.2C332.3,217.9,331.9,217.9,331.6,217.9z"/>
</g>
</svg>
