<svg xmlns="http://www.w3.org/2000/svg" xmlns:xlink="http://www.w3.org/1999/xlink" viewBox="0 0 702.33 295.82"><defs><style>.cls-1{isolation:isolate;}.cls-2,.cls-3{mix-blend-mode:multiply;}.cls-2{fill:url(#linear-gradient);}.cls-3{fill:url(#linear-gradient-2);}.cls-4{fill:#008494;}.cls-5{fill:#5bdaf1;}.cls-6{fill:#00d0e8;}.cls-7{fill:#00a4b8;}.cls-11,.cls-8{fill:#fff;}.cls-9{fill:#ebebeb;}.cls-10,.cls-11{font-size:50px;font-family:Myriad Pro;}.cls-12{letter-spacing:-3px;}</style><linearGradient id="linear-gradient" x1="243.56" y1="535.42" x2="199.68" y2="417.79" gradientTransform="matrix(-1, 0, 0, 1, 751.17, -287.16)" gradientUnits="userSpaceOnUse"><stop offset="0" stop-color="#fff"/><stop offset="0.21" stop-color="#f7f9fa"/><stop offset="0.54" stop-color="#e0e9ee"/><stop offset="0.94" stop-color="#bbced9"/><stop offset="1" stop-color="#b5cad6"/></linearGradient><linearGradient id="linear-gradient-2" x1="318.81" y1="523.37" x2="301.82" y2="477.82" xlink:href="#linear-gradient"/></defs><title>TRSstudents-metric</title><g class="cls-1"><g id="Objects"><polygon class="cls-2" points="350.64 295.82 579.66 295.82 702.33 99.47 473.32 99.47 350.64 295.82"/><polygon class="cls-3" points="371.58 254.62 460.25 254.62 507.75 178.6 419 178.6 371.58 254.62"/><polygon class="cls-4" points="395.13 0 286.25 95.53 409.16 95.53 506.02 0 395.13 0"/><polygon class="cls-4" points="298.27 183.66 155.47 72.77 278.38 72.77 409.16 183.66 298.27 183.66"/><rect class="cls-5" y="16.71" width="628.27" height="79.49"/><polygon class="cls-6" points="0 175.69 399.81 175.69 450.57 96.2 0 96.2 0 175.69"/><polygon class="cls-7" points="298.27 183.66 409.16 183.66 506.02 0 395.13 0 298.27 183.66"/><path class="cls-5" d="M450.49,466.22a1,1,0,0,1-.88-1.47l2.8-5.3a1,1,0,1,1,1.77.93l-2.8,5.3A1,1,0,0,1,450.49,466.22Zm5.61-10.61a1,1,0,0,1-.88-1.47l2.8-5.3a1,1,0,1,1,1.77.93l-2.8,5.3A1,1,0,0,1,456.1,455.61ZM461.71,445a1,1,0,0,1-.47-0.12,1,1,0,0,1-.42-1.35l2.8-5.3a1,1,0,1,1,1.77.93l-2.8,5.3A1,1,0,0,1,461.71,445Zm5.61-10.61a1,1,0,0,1-.88-1.47l2.8-5.31a1,1,0,1,1,1.77.93l-2.8,5.31A1,1,0,0,1,467.31,434.39Zm5.61-10.61a1,1,0,0,1-.88-1.47l2.8-5.31a1,1,0,0,1,1.77.93l-2.8,5.31A1,1,0,0,1,472.92,423.78Zm5.61-10.61a1,1,0,0,1-.47-0.12,1,1,0,0,1-.42-1.35l2.8-5.31a1,1,0,1,1,1.77.93l-2.8,5.3A1,1,0,0,1,478.52,413.17Zm5.61-10.61a1,1,0,0,1-.88-1.47l2.8-5.3a1,1,0,1,1,1.77.93L485,402A1,1,0,0,1,484.13,402.56Zm5.61-10.61a1,1,0,0,1-.88-1.47l2.8-5.31a1,1,0,1,1,1.77.93l-2.8,5.31A1,1,0,0,1,489.73,391.95Zm5.61-10.61a1,1,0,0,1-.88-1.47l2.8-5.31a1,1,0,1,1,1.77.93l-2.8,5.31A1,1,0,0,1,495.34,381.34Zm5.61-10.61a1,1,0,0,1-.88-1.47l2.8-5.31a1,1,0,1,1,1.77.93l-2.8,5.31A1,1,0,0,1,500.95,370.73Zm5.61-10.61a1,1,0,0,1-.88-1.47l2.8-5.31a1,1,0,1,1,1.77.93l-2.8,5.31A1,1,0,0,1,506.55,360.12Zm5.61-10.61a1,1,0,0,1-.88-1.47l2.8-5.3a1,1,0,1,1,1.77.93L513,349A1,1,0,0,1,512.16,349.51Zm5.61-10.61a1,1,0,0,1-.88-1.47l2.8-5.31a1,1,0,1,1,1.77.93l-2.8,5.31A1,1,0,0,1,517.76,338.9Zm5.61-10.61a1,1,0,0,1-.88-1.47l2.8-5.31a1,1,0,1,1,1.77.93l-2.8,5.31A1,1,0,0,1,523.37,328.29ZM529,317.68a1,1,0,0,1-.88-1.47l2.8-5.31a1,1,0,1,1,1.77.93l-2.8,5.31A1,1,0,0,1,529,317.68Zm5.61-10.61a1,1,0,0,1-.88-1.47l2.8-5.31a1,1,0,1,1,1.77.93l-2.8,5.31A1,1,0,0,1,534.58,307.07Zm5.61-10.61a1,1,0,0,1-.88-1.47l2.25-4.25a1,1,0,1,1,1.77.93l-2.25,4.25A1,1,0,0,1,540.19,296.46Z" transform="translate(-48.83 -287.16)"/><path class="cls-5" d="M360.71,466.22a1,1,0,0,1-.88-1.47l2.25-4.25a1,1,0,0,1,1.77.93l-2.25,4.25A1,1,0,0,1,360.71,466.22Zm5-9.56a1,1,0,0,1-.88-1.47l2.8-5.31a1,1,0,0,1,1.77.93l-2.8,5.31A1,1,0,0,1,365.76,456.66Zm5.61-10.61a1,1,0,0,1-.88-1.47l2.8-5.3a1,1,0,0,1,1.77.93l-2.8,5.3A1,1,0,0,1,371.37,446.05ZM377,435.44a1,1,0,0,1-.88-1.47l2.8-5.3a1,1,0,0,1,1.77.93l-2.8,5.3A1,1,0,0,1,377,435.44Zm5.61-10.61a1,1,0,0,1-.88-1.47l2.8-5.3a1,1,0,0,1,1.77.93l-2.8,5.3A1,1,0,0,1,382.58,424.83Zm5.61-10.61a1,1,0,0,1-.88-1.47l2.8-5.31a1,1,0,0,1,1.77.93l-2.8,5.3A1,1,0,0,1,388.18,414.22Zm5.61-10.61a1,1,0,0,1-.88-1.47l2.8-5.31a1,1,0,1,1,1.77.93l-2.8,5.31A1,1,0,0,1,393.79,403.61ZM399.4,393a1,1,0,0,1-.88-1.47l2.8-5.31a1,1,0,1,1,1.77.93l-2.8,5.31A1,1,0,0,1,399.4,393ZM405,382.39a1,1,0,0,1-.88-1.47l2.8-5.31a1,1,0,1,1,1.77.93l-2.8,5.31A1,1,0,0,1,405,382.39Zm5.61-10.61a1,1,0,0,1-.88-1.47l2.8-5.31a1,1,0,1,1,1.77.93l-2.8,5.31A1,1,0,0,1,410.61,371.78Zm5.61-10.61a1,1,0,0,1-.88-1.47l2.8-5.3a1,1,0,1,1,1.77.93l-2.8,5.3A1,1,0,0,1,416.21,361.17Zm5.61-10.61a1,1,0,0,1-.88-1.47l2.8-5.31a1,1,0,1,1,1.77.93L422.7,350A1,1,0,0,1,421.82,350.56Zm5.61-10.61a1,1,0,0,1-.88-1.47l2.8-5.31a1,1,0,1,1,1.77.93l-2.8,5.31A1,1,0,0,1,427.42,339.95ZM433,329.34a1,1,0,0,1-.88-1.47l2.8-5.31a1,1,0,1,1,1.77.93l-2.8,5.31A1,1,0,0,1,433,329.34Zm5.61-10.61a1,1,0,0,1-.88-1.47l2.8-5.31a1,1,0,1,1,1.77.93l-2.8,5.31A1,1,0,0,1,438.64,318.73Zm5.61-10.61a1,1,0,0,1-.88-1.47l2.8-5.3a1,1,0,1,1,1.77.93l-2.8,5.3A1,1,0,0,1,444.24,308.12Zm5.61-10.61A1,1,0,0,1,449,296l2.8-5.31a1,1,0,1,1,1.77.93l-2.8,5.31A1,1,0,0,1,449.85,297.51Z" transform="translate(-48.83 -287.16)"/><polygon class="cls-6" points="645.08 198.64 702.33 99.47 645.08 0.31 530.57 0.31 473.32 99.47 530.57 198.64 645.08 198.64"/><polygon class="cls-8" points="634.3 179.97 680.77 99.47 634.3 18.98 541.35 18.98 494.88 99.47 541.35 179.97 634.3 179.97"/><polygon class="cls-9" points="680.77 99.47 494.88 99.47 541.35 179.97 634.3 179.97 680.77 99.47"/><polygon class="cls-7" points="487.71 218.27 510.61 178.6 487.71 138.93 441.9 138.93 419 178.6 441.9 218.27 487.71 218.27"/><polygon class="cls-8" points="481.08 206.78 497.35 178.6 481.08 150.41 448.53 150.41 432.25 178.6 448.53 206.78 481.08 206.78"/><polygon class="cls-9" points="497.35 178.6 432.25 178.6 448.53 206.78 481.08 206.78 497.35 178.6"/><text class="cls-10" transform="translate(511.14 110.84)">10000+</text><text class="cls-11" transform="translate(38.74 80.84)"><tspan class="cls-12">T</tspan><tspan x="21.3" y="0">ed </tspan><tspan x="85.15" y="0">R</tspan><tspan x="112.25" y="0">ogers</tspan><tspan x="16.25" y="60"> </tspan><tspan x="26.85" y="60">S</tspan><tspan x="51.35" y="60">tude</tspan><tspan x="148.7" y="60">n</tspan><tspan x="176.25" y="60">ts</tspan></text></g></g></svg>