<svg id="Layer_1" data-name="Layer 1" xmlns="http://www.w3.org/2000/svg" viewBox="0 0 78.6 71.85"><title>layers-icon</title><path d="M89.3,36a1.05,1.05,0,0,0-.5-0.9L50.5,14.2a0.91,0.91,0,0,0-1,0L11.2,35.1a1.06,1.06,0,0,0,0,1.8L22.4,43,11.2,49.1a1.06,1.06,0,0,0,0,1.8L22.4,57,11.2,63.1a1.06,1.06,0,0,0,0,1.8L49.5,85.8a0.75,0.75,0,0,0,.5.1,0.9,0.9,0,0,0,.5-0.1L88.8,64.9a1.06,1.06,0,0,0,0-1.8L77.6,57l11.2-6.1a1.06,1.06,0,0,0,0-1.8L77.6,43l11.2-6.1A1.05,1.05,0,0,0,89.3,36ZM86.2,64L50,83.8,13.8,64l10.7-5.9,25,13.7a0.75,0.75,0,0,0,.5.1,0.9,0.9,0,0,0,.5-0.1l25-13.7Zm0-14L50,69.8,13.8,50l10.7-5.9,25,13.7a0.75,0.75,0,0,0,.5.1,0.9,0.9,0,0,0,.5-0.1l25-13.7ZM50,55.8L13.8,36,50,16.2,86.2,36Z" transform="translate(-10.7 -14.05)"/></svg>