<svg id="Layer_1" data-name="Layer 1" xmlns="http://www.w3.org/2000/svg" viewBox="0 0 31.02 99.1"><title>necktie-icon</title><path d="M28,17.1l4.2-7.3a2.13,2.13,0,0,0-.3-2.4L27.4,2.5A2.17,2.17,0,0,0,26,2H16.9a2,2,0,0,0-1.5.6L10.9,7.5a2.11,2.11,0,0,0-.3,2.4l4.2,7.3L6,88.4a1.84,1.84,0,0,0,.8,1.8l13.5,10.5a1.92,1.92,0,0,0,1.2.4,1.75,1.75,0,0,0,1.2-.4L36.2,90.2a2.06,2.06,0,0,0,.8-1.8Zm-2.3-.9H17.2L13,8.9l4.1-4.4h8.6l4.1,4.4Zm-8.4,1h8.2l8.9,71.2-13,10.1L8.5,88.4Z" transform="translate(-5.98 -2)"/></svg>