<svg id="Layer_1" data-name="Layer 1" xmlns="http://www.w3.org/2000/svg" viewBox="0 0 67.54 88.8"><title>paper-icon</title><path d="M83.7,30.3a0.37,0.37,0,0,0-.1-0.3V29.9a0.22,0.22,0,0,0-.2-0.2V29.6h0L58.3,5.9h0c-0.1-.1-0.2-0.1-0.3-0.2H57.9c-0.1,0-.2-0.1-0.3-0.1h-30A11.39,11.39,0,0,0,16.2,17V83A11.39,11.39,0,0,0,27.6,94.4H72.3A11.39,11.39,0,0,0,83.7,83V30.3h0ZM58.6,8.9L80.3,29.3H65.4a6.81,6.81,0,0,1-6.8-6.8V8.9ZM72.4,92.4H27.6A9.39,9.39,0,0,1,18.2,83V17a9.39,9.39,0,0,1,9.4-9.4H56.5v15a8.75,8.75,0,0,0,8.8,8.8H81.7V83A9.37,9.37,0,0,1,72.4,92.4Z" transform="translate(-16.2 -5.6)"/><path d="M24.3,52H49.9a1,1,0,0,0,0-2H24.3A1,1,0,0,0,24.3,52Z" transform="translate(-16.2 -5.6)"/><path d="M75.7,64.1H24.3a1,1,0,0,0,0,2H75.7A1,1,0,1,0,75.7,64.1Z" transform="translate(-16.2 -5.6)"/><path d="M75.7,78.1H24.3a1,1,0,0,0,0,2H75.7A1,1,0,1,0,75.7,78.1Z" transform="translate(-16.2 -5.6)"/></svg>