<svg id="Layer_1" data-name="Layer 1" xmlns="http://www.w3.org/2000/svg" viewBox="0 0 58.5 60.1"><title>team-icon</title><path d="M50,40.6a8.3,8.3,0,1,0-8.3-8.3A8.28,8.28,0,0,0,50,40.6ZM50,26a6.3,6.3,0,1,1-6.3,6.3A6.27,6.27,0,0,1,50,26ZM67.8,36.6a8.3,8.3,0,1,0-8.3-8.3A8.28,8.28,0,0,0,67.8,36.6Zm0-14.6a6.3,6.3,0,1,1-6.3,6.3A6.27,6.27,0,0,1,67.8,22ZM79.2,42.3V54.1a3.9,3.9,0,0,1-1.7,3.3l-2.8,2.1V72.2A3.8,3.8,0,0,1,70.9,76H64.5a3.8,3.8,0,0,1-3.8-3.8v-9l0.2-.1A6,6,0,0,0,62.7,61V72.3a1.79,1.79,0,0,0,1.8,1.8H71a1.79,1.79,0,0,0,1.8-1.8V59a1.23,1.23,0,0,1,.4-0.8l3.2-2.4a2.4,2.4,0,0,0,.9-1.7V42.3a1.58,1.58,0,0,0-1.6-1.6h-19a3.56,3.56,0,0,1,3.2-2H75.6A3.59,3.59,0,0,1,79.2,42.3Zm-47-5.7a8.3,8.3,0,1,0,0-16.6A8.3,8.3,0,0,0,32.2,36.6Zm0-14.6a6.3,6.3,0,1,1,0,12.6A6.19,6.19,0,0,1,26,28.3,6.25,6.25,0,0,1,32.2,22ZM39,63.1l0.2,0.1v9A3.8,3.8,0,0,1,35.4,76H29a3.8,3.8,0,0,1-3.8-3.8V59.5l-2.8-2.1a4,4,0,0,1-1.7-3.3V42.3a3.59,3.59,0,0,1,3.6-3.6H40a3.56,3.56,0,0,1,3.2,2h-19a1.58,1.58,0,0,0-1.6,1.6V54.1a2,2,0,0,0,.9,1.7l3.2,2.4a0.91,0.91,0,0,1,.4.8V72.2A1.79,1.79,0,0,0,28.9,74h6.4a1.79,1.79,0,0,0,1.8-1.8V60.9A8.17,8.17,0,0,0,39,63.1ZM61.5,46.4a3.59,3.59,0,0,0-3.6-3.6H42.1a3.59,3.59,0,0,0-3.6,3.6V58.2a3.9,3.9,0,0,0,1.7,3.3L43,63.6V76.3a3.8,3.8,0,0,0,3.8,3.8h6.4A3.8,3.8,0,0,0,57,76.3V63.5l2.8-2.1a4,4,0,0,0,1.7-3.3V46.4Zm-2,11.7a2,2,0,0,1-.9,1.7l-3.2,2.4a0.91,0.91,0,0,0-.4.8V76.2A1.79,1.79,0,0,1,53.2,78H46.8A1.79,1.79,0,0,1,45,76.2V63a1.23,1.23,0,0,0-.4-0.8l-3.2-2.4a2.4,2.4,0,0,1-.9-1.7V46.4a1.58,1.58,0,0,1,1.6-1.6H57.8a1.58,1.58,0,0,1,1.6,1.6V58.1h0.1Z" transform="translate(-20.7 -20)"/></svg>