<?xml version="1.0" encoding="utf-8"?>
<!-- Generator: Adobe Illustrator 22.0.1, SVG Export Plug-In . SVG Version: 6.00 Build 0)  -->
<svg version="1.1" id="Layer_1" xmlns="http://www.w3.org/2000/svg" xmlns:xlink="http://www.w3.org/1999/xlink" x="0px" y="0px"
	 viewBox="0 0 499.5 110" enable-background="new 0 0 499.5 110" xml:space="preserve">
<g>
	<path fill="none" d="M320.1,70.2c1.1-1.7,1.6-3.5,1.6-5.4c0-2.8-1.1-5.2-3.1-7c-2-1.9-5.2-2.8-9.6-2.8h-17.5l-1.2,1.2v17.4l1.2,1.2
		h15.6c3.6,0,6.4-0.3,8.4-1.1C317.6,73,319.1,71.8,320.1,70.2z"/>
	<path fill="none" d="M17.1,35.4c1.7,0,2.9-0.1,3.6-0.2c1.3-0.2,2.3-0.6,3.1-1.1s1.5-1.2,2-2.2s0.8-2.1,0.8-3.4
		c0-1.5-0.4-2.8-1.2-3.9c-0.8-1.1-1.8-1.9-3.2-2.3c-1.4-0.5-3.3-0.7-5.9-0.7H7.8L7,22.4v12.2l0.7,0.8H17.1z"/>
	<path fill="none" d="M15.6,16.9c2.4,0,4.1-0.2,5.1-0.5c1.4-0.4,2.4-1.1,3.1-2c0.7-0.9,1-2.1,1-3.5c0-1.3-0.4-2.5-1-3.5
		c-0.6-1-1.5-1.7-2.7-2.1c-1.2-0.4-3.2-0.6-6.1-0.6H7.9L7,5.6v10.5l0.7,0.8H15.6z"/>
	<path fill="none" d="M159.8,70.2c1.1-1.7,1.6-3.5,1.6-5.4c0-2.8-1.1-5.2-3.1-7c-2-1.9-5.2-2.8-9.6-2.8h-17.5l-1.2,1.2v17.5l1.2,1.2
		h15.6c3.6,0,6.4-0.3,8.4-1.1C157.2,73.1,158.7,71.9,159.8,70.2z"/>
	<path fill="none" d="M160,23.3l0.7-0.7c-0.2-2-0.5-3.4-1.4-4.5c-1.5-1.9-3.1-2.8-5.5-2.8c-2.2,0-4,0.7-5.5,2.2
		c-1.3,1.3-1.6,2.9-1.8,5l0.8,0.8H160z"/>
	<path fill="none" d="M473.4,72.1c3.5,0,6-0.2,7.5-0.7c1.8-0.6,3.2-1.5,4-2.7c0.9-1.2,1.4-2.9,1.4-4.8c0-1.9-0.4-3.5-1.3-4.9
		c-0.8-1.4-2-2.3-3.6-2.8c-1.8-0.5-4.8-0.8-9.1-0.8h-10.6l-0.7,0.7v15.4l0.6,0.6H473.4z"/>
	<polygon fill="none" points="76.2,84.7 76.2,86.3 96.7,86.3 96.7,84.9 86.4,60.5 	"/>
	<path fill="none" d="M483.1,82.4c-2-0.7-4.9-1-8.7-1h-12.6l-0.7,0.7h0.1v18l0.5,0.5h13.8c2.6,0,4.4-0.1,5.4-0.3
		c1.7-0.3,3.2-0.8,4.3-1.5c1.2-0.7,2.1-1.8,2.8-3.1s1.1-2.9,1.1-4.7c0-2.1-0.5-3.9-1.6-5.4C486.4,84.1,485,83,483.1,82.4z"/>
	
		<line fill="none" stroke="#004C9B" stroke-width="0" stroke-linecap="round" stroke-linejoin="round" x1="61" y1="108.9" x2="60.9" y2="108.9"/>
	<path fill="#004C9B" d="M83.3,47.3v0.1H82l-21,53.5v8h5.4H67l5.1-13.4l1.5-1.5h26l1.4,1.4l5.2,13.6h6.2v-7.7l-21.2-54H83.3z
		 M96.7,86.3H76.2v-1.6l10.2-24.2l10.3,24.4V86.3z"/>
	<path fill="#004C9B" d="M326.1,76.2c2.8-3,4-7.1,4-11.4c0-3.4-0.8-6.5-2.5-9.3s-3.9-4.8-6.7-5.9c-2.8-1.1-6.8-1.8-12.2-1.8
		L283,47.5l-1,1v59.4l1.1,1.1h5.8l1.3-1.3V83l1.2-1.2h8.3c0.6,0,1.1,0,1.6,0c0,0,1.9,0.1,4.4,0.2l17.7,26.8h0.6h1.6h3.5v-2.3V102v-1
		L317,82.8v-1.6C320.9,80.2,324,78.5,326.1,76.2z M315.5,73.7c-2,0.8-4.8,1.1-8.4,1.1h-15.6l-1.2-1.2V56.2l1.2-1.2H309
		c4.4,0,7.6,0.9,9.6,2.8c2,1.8,3.1,4.2,3.1,7c0,1.9-0.5,3.7-1.6,5.4C319.1,71.8,317.6,73,315.5,73.7z"/>
	<path fill="#004C9B" d="M166,76.2c2.8-3,4-7.1,4-11.4c0-3.4-0.8-6.5-2.5-9.3c-1.7-2.8-3.9-4.8-6.6-5.9c-2.8-1.1-6.8-1.8-12.1-1.8
		l-25.6-0.3l-1.3,0.9v59.4l1.1,1.1h5.8l1.3-1.3V83l1.2-1.2h8.3c0.6,0,1.1,0,1.6,0c0,0,1.9,0.1,4.4,0.2l17.7,26.8h0.6h1.6h3.5v-2.3
		V102v-1l-12.1-18.3v-1.6C160.8,80.1,163.9,78.5,166,76.2z M155.2,73.8c-2,0.8-4.8,1.1-8.4,1.1h-15.6l-1.2-1.2V56.2l1.2-1.2h17.5
		c4.4,0,7.6,0.9,9.6,2.8c2,1.8,3.1,4.2,3.1,7c0,1.9-0.5,3.7-1.6,5.4C158.7,71.9,157.2,73.1,155.2,73.8z"/>
	<path fill="#004C9B" d="M47.1,88.3l-1.7,1.2c-1.2,3.5-3.1,6.3-5.5,8.4c-3.2,2.6-7,3.9-11.6,3.9c-3.8,0-7.3-1-10.5-2.9
		c-3.2-1.9-5.6-4.8-7.1-8.7c-1.5-3.9-2.3-8.5-2.3-13.7c0-4.1,0.6-8,1.9-11.8s3.5-6.9,6.7-9.1c3.2-2.3,7.2-3.4,11.9-3.4
		c4.1,0,7.5,1,10.3,3.1c2.5,1.9,4.5,4.8,5.9,8.8l1.3,0.9h5.9l1.1-1.1c0-0.2-0.1-0.4-0.1-0.7h0.2c-1.7-5.7-4.6-10.1-8.8-13.2
		s-9.4-4.7-15.6-4.7c-5.4,0-10.4,1.2-14.9,3.7s-8,6.1-10.5,10.9C1.2,64.6,0,70.2,0,76.6C0,82.5,1.1,88,3.3,93.1
		c2.2,5.1,5.3,9,9.5,11.7s9.6,4,16.2,4c6.4,0,11.9-1.8,16.3-5.3c4.2-3.3,7.1-8,8.9-14.1l-1.1-1.1H47.1z"/>
	<polygon fill="#004C9B" points="232.5,47.4 231.3,48.5 231.3,107.6 232.6,108.9 271,108.9 272.2,107.6 272.2,102.1 271.1,101 
		240.9,101 239.5,99.6 239.5,82.3 240.7,81 269.5,81 270.7,79.8 270.7,74.9 269.6,73.8 240.6,73.8 239.5,72.6 239.5,56.5 
		240.8,55.2 271,55.2 272.2,54 272.2,48.5 271.1,47.4 	"/>
	<polygon fill="#004C9B" points="180.9,47.4 179.8,48.5 179.8,107.6 181,108.9 219.4,108.9 220.7,107.6 220.7,102.1 219.5,101 
		189.3,101 187.9,99.6 187.9,82.3 189.2,81 217.9,81 219.2,79.8 219.2,74.9 218.1,73.8 189.1,73.8 187.9,72.6 187.9,56.5 
		189.2,55.2 219.4,55.2 220.7,54 220.7,48.5 219.5,47.4 	"/>
	<path fill="#004C9B" d="M218,24.3c-1.4-0.6-2.7-0.8-6.1-1.7c-2.4-0.7-3.9-1.1-4.4-1.3c-0.9-0.3-1.3-0.6-1.7-1.4
		c-0.2-0.5-0.2-0.9-0.2-1.4c0-0.8,0.4-1.4,1.3-2c0.9-0.6,2.4-0.8,4.5-0.8c1.8,0,2.8,0.3,3.8,1c0.8,0.5,1,1.1,1.1,2l0.8,0.8h3.7
		l0.7-0.7c0.1-1.7-0.5-3.7-1.2-4.7c-0.8-1.1-2.1-2-3.8-2.7c-1.7-0.7-3.7-1-6-1c-1.5,0-2.9,0.2-4.3,0.6c-1.3,0.4-2.4,0.9-3.1,1.4
		c-1,0.7-1.8,1.6-2.4,2.8c-0.6,1.1-0.9,1.7-0.9,3c0,1.4,0.4,2.7,1.1,3.9c0.7,1.2,1.8,2.1,3.2,2.8c1.4,0.7,3.9,1.5,7.5,2.4
		c2.7,0.7,3.3,1.1,4,1.5c0.9,0.6,1.3,1.3,1.3,2.3c0.1,1-0.4,2-1.4,2.8c-1,0.8-2.5,1.2-4.6,1.2c-2.1,0-3.2-0.5-4.1-1.4
		c-0.8-0.8-1.3-1.6-1.5-3.1l-0.7-0.7h-4.1l-0.8,0.8c0,3.2,1.4,5.7,3.2,7.2c2,1.6,4.9,2.4,8.6,2.4c2.3,0,3.6-0.4,5.4-1.2
		c1.8-0.8,3.2-1.9,4.1-3.4c1-1.4,1.4-3,1.4-4.6c0-1.7-0.4-3.1-1.2-4.2C220.4,25.8,219.3,24.9,218,24.3z"/>
	<path fill="#004C9B" d="M188.3,39.2c1.8-0.8,3.2-1.9,4.1-3.4c1-1.4,1.4-3,1.4-4.6c0-1.7-0.4-3.1-1.2-4.2c-0.8-1.1-1.9-2-3.2-2.6
		c-1.4-0.6-2.7-0.8-6.1-1.7c-2.4-0.7-3.9-1.1-4.4-1.3c-0.9-0.3-1.3-0.6-1.7-1.4c-0.2-0.5-0.2-0.9-0.2-1.4c0-0.8,0.4-1.4,1.3-2
		c0.9-0.6,2.4-0.8,4.5-0.8c1.8,0,2.8,0.3,3.8,1c0.8,0.5,1,1.1,1.1,2l0.8,0.8h3.7l0.7-0.7c0.1-1.7-0.5-3.7-1.2-4.7
		c-0.8-1.1-2.1-2-3.8-2.7s-3.7-1-6-1c-1.5,0-2.9,0.2-4.3,0.6c-1.3,0.4-2.4,0.9-3.1,1.4c-1,0.7-1.8,1.6-2.4,2.8
		c-0.6,1.1-0.9,1.7-0.9,3c0,1.4,0.4,2.7,1.1,3.9c0.7,1.2,1.8,2.1,3.2,2.8c1.4,0.7,3.9,1.5,7.5,2.4c2.7,0.7,3.3,1.1,4,1.5
		c0.9,0.6,1.3,1.3,1.3,2.3c0.2,0.9-0.3,1.9-1.3,2.7c-1,0.8-2.5,1.2-4.6,1.2c-2.1,0-3.2-0.5-4.1-1.4c-0.8-0.8-1.3-1.6-1.5-3.1L176,30
		h-4.1l-0.8,0.8c0,3.2,1.4,5.7,3.2,7.2c2,1.6,4.9,2.4,8.6,2.4C185.2,40.4,186.5,40,188.3,39.2z"/>
	<path fill="#004C9B" d="M125.6,17.1c1,0.7,1.7,1.7,2,3c0.2,0.9,0.3,2.6,0.3,5.2v14.2l0.6,0.6h4.6l0.9-0.9V22.7
		c0-2.1-0.5-3.4-0.7-4.4c-0.3-1.4-0.9-2.4-1.7-3.4c-0.8-1-1.6-1.8-3.2-2.5c-1.6-0.7-3.4-1.2-5.1-1.2c-3.9,0-5.6,0.7-7.9,4l-1.3-3.5
		h-3.7l-0.7,0.7v27l0.7,0.7h3.8l0.8-0.8V25.9c0-2.5,0.3-4.4,0.8-5.7s1.5-2.3,2.7-3.1c1.3-0.8,2.3-1.1,3.8-1.1S124.6,16.4,125.6,17.1
		z"/>
	<path fill="#004C9B" d="M153.7,40.1c3.3,0,6-0.8,8.1-2.4c1.7-1.3,2.9-2.9,3.8-5V31h-5c-0.7,1.9-1.2,2.4-2.3,3.2
		c-1.1,0.8-2.4,1.2-4,1.2c-2.1,0-3.8-0.4-5.3-2c-1.4-1.4-2-2.8-2.2-5.3l0.7-0.7h18.4v-0.1l0.8-0.8c0-0.4,0-0.9,0-1.1
		c0-4.7-1.2-8.3-3.6-10.9c-2.4-2.6-5.3-4.3-9.2-4.3c-4,0-7.3,1.4-9.8,4.1s-3.8,6.5-3.8,11.4c0,4.7,1.2,8.1,3.6,10.6
		C146.3,38.8,149.6,40.1,153.7,40.1z M148.3,17.5c1.5-1.5,3.3-2.2,5.5-2.2c2.4,0,4,0.9,5.5,2.8c0.9,1.1,1.2,2.5,1.4,4.5l-0.7,0.7
		h-12.7l-0.8-0.8C146.7,20.4,147,18.8,148.3,17.5z"/>
	<path fill="#004C9B" d="M62.3,38.9V12.1l-0.9-0.9h-3.6L57,12v13.4c0,2.5-0.3,4.4-0.8,5.7c-0.5,1.3-1.5,2.3-2.8,3.1
		s-2.3,1.1-3.8,1.1s-2.3-0.4-3.3-1.1s-1.7-1.8-2-3C44.1,30.3,44,28.6,44,26V12l-0.6-0.8h-3.8L38.8,12v16.7c0,2.1,0.5,3.4,0.7,4.4
		c0.3,1.4,0.8,2.5,1.5,3.5s1.4,1.8,2.9,2.5c1.5,0.7,3.1,1.2,4.8,1.2c3.9,0,5.6-0.7,7.9-4l1.3,3.5h3.5L62.3,38.9z"/>
	<path fill="#004C9B" d="M84.5,33.9c-1,0.8-2.5,1.2-4.6,1.2c-2.1,0-3.2-0.5-4.1-1.4c-0.8-0.8-1.3-1.6-1.5-3.1L73.5,30h-4.1l-0.8,0.8
		c0,3.2,1.4,5.7,3.2,7.2c2,1.6,4.9,2.4,8.6,2.4c2.3,0,3.6-0.4,5.4-1.2s3.2-1.9,4.1-3.4c1-1.4,1.4-3,1.4-4.6c0-1.7-0.4-3.1-1.2-4.2
		c-0.8-1.1-1.9-2-3.2-2.6c-1.4-0.6-2.7-0.8-6.1-1.7c-2.4-0.7-3.9-1.1-4.4-1.3c-0.9-0.3-1.3-0.6-1.7-1.4c-0.2-0.5-0.2-0.9-0.2-1.4
		c0-0.8,0.4-1.4,1.3-2c0.9-0.6,2.4-0.8,4.5-0.8c1.8,0,2.8,0.3,3.8,1c0.8,0.5,1,1.1,1.1,2l0.8,0.8h3.7l0.7-0.7
		c0.1-1.7-0.5-3.7-1.2-4.7c-0.8-1.1-2.1-2-3.8-2.7s-3.7-1-6-1c-1.5,0-2.9,0.2-4.3,0.6c-1.3,0.4-2.4,0.9-3.1,1.4
		c-1,0.7-1.8,1.6-2.4,2.8c-0.6,1.1-0.9,1.7-0.9,3c0,1.4,0.4,2.7,1.1,3.9c0.7,1.2,1.8,2.1,3.2,2.8c1.4,0.7,3.9,1.5,7.5,2.4
		c2.7,0.7,3.3,1.1,4,1.5c0.9,0.6,1.3,1.3,1.3,2.3C86,32.1,85.5,33.1,84.5,33.9z"/>
	<path fill="#004C9B" d="M17,40.1c2.6,0,4.7-0.2,6.5-0.7s3.2-1.1,4.4-2c1.2-0.9,2.1-2.1,2.9-3.7c0.8-1.6,1.2-3.4,1.2-5.2
		c0-2.3-0.7-4.4-2-6.1c-1.3-1.7-3.2-2.9-5.6-3.6c1.9-0.9,3.3-2.2,4.2-3.7c0.9-1.5,1.4-3.1,1.4-4.8c0-1.8-0.5-3.6-1.6-5.3
		c-1-1.7-2.5-2.9-4.4-3.7C22.3,0.4,19.9,0,16.8,0H2.5L1.7,0.8v38.5l0.8,0.8H17z M7,5.6l0.9-0.9H15c2.9,0,4.9,0.2,6.1,0.6
		c1.2,0.4,2.1,1.1,2.7,2.1c0.6,1,1,2.2,1,3.5c0,1.4-0.3,2.6-1,3.5c-0.7,0.9-1.7,1.6-3.1,2c-1,0.3-2.7,0.5-5.1,0.5H7.7L7,16.1V5.6z
		 M7,22.4l0.8-0.8h8.5c2.6,0,4.5,0.2,5.9,0.7c1.4,0.4,2.4,1.2,3.2,2.3c0.8,1.1,1.2,2.4,1.2,3.9c0,1.3-0.3,2.4-0.8,3.4
		s-1.2,1.7-2,2.2S22,35,20.7,35.2c-0.7,0.1-1.9,0.2-3.6,0.2H7.7L7,34.6V22.4z"/>
	<polygon fill="#004C9B" points="102.8,40.1 103.6,39.3 103.6,12.2 102.8,11.4 98.3,11.4 97.5,12.2 97.5,39.3 98.3,40.1 	"/>
	<polygon fill="#004C9B" points="102.8,7.2 103.6,6.4 103.6,1.9 102.8,1.1 98.3,1.1 97.5,1.9 97.5,6.4 98.3,7.2 	"/>
	<path fill="#FEDC00" d="M440.7,46.3l-0.3-0.3H440h-5.5h-0.4l-0.3,0.3l-1.1,1.1l-0.3,0.3v0.4v34.5c0,7.1-1.1,11.7-3.4,14.2
		c-2.2,2.4-6.1,3.6-11.5,3.6c-3.2,0-5.9-0.6-8-1.9c-2.1-1.2-3.6-2.9-4.5-5.2c-0.9-2.4-1.4-5.8-1.4-10.8V48.2v-0.4l-0.3-0.3l-1.1-1.1
		l-0.3-0.3h-0.4H396h-0.4l-0.3,0.3l-1.2,1.2l-0.3,0.3v0.4v34.5c0,6.4,0.8,11.6,2.3,15.4c1.6,3.9,4.3,6.9,8,8.9c3.6,2,8.4,3,14.1,3
		c5.9,0,10.7-1.2,14.3-3.5c3.7-2.3,6.3-5.4,7.7-9.1c1.4-3.6,2.1-8.6,2.1-14.7V48.3v-0.4l-0.3-0.3L440.7,46.3z"/>
	<path fill="#FEDC00" d="M496.1,81c-1.6-2.2-3.9-4-6.8-5.2c2.1-1.3,3.7-3,4.9-4.9c1.5-2.5,2.3-5.2,2.3-8c0-3-0.9-6-2.6-8.7
		c-1.7-2.8-4.1-4.9-7.1-6.2s-6.9-2-11.8-2h-22h-0.4l-0.3,0.3l-1.2,1.2l-0.3,0.3v0.4v59.4v0.4l0.3,0.3l1.3,1.3l0.3,0.3h0.4h22.2
		c4,0,7.4-0.4,10.2-1.1c2.8-0.7,5.2-1.8,7.1-3.2c1.9-1.4,3.5-3.5,4.8-6.1c1.3-2.6,1.9-5.5,1.9-8.5C499.3,87.2,498.2,83.8,496.1,81z
		 M461,56.1l0.7-0.7h10.6c4.3,0,7.3,0.3,9.1,0.8c1.6,0.5,2.8,1.4,3.6,2.8c0.9,1.4,1.3,3,1.3,4.9c0,1.9-0.5,3.6-1.4,4.8
		c-0.8,1.2-2.2,2.1-4,2.7c-1.5,0.5-4,0.7-7.5,0.7h-11.8l-0.6-0.6V56.1z M488,95.7c-0.7,1.3-1.6,2.4-2.8,3.1
		c-1.1,0.7-2.6,1.2-4.3,1.5c-1,0.2-2.8,0.3-5.4,0.3h-13.8l-0.5-0.5v-18h-0.1l0.7-0.7h12.6c3.8,0,6.7,0.3,8.7,1
		c1.9,0.6,3.3,1.7,4.4,3.2c1.1,1.5,1.6,3.3,1.6,5.4C489.1,92.8,488.7,94.4,488,95.7z"/>
	<polygon fill="#FEDC00" points="384.2,46.7 383.9,46.4 383.5,46.4 376.9,46.4 376.5,46.4 376.2,46.7 375,47.9 374.7,48.2 
		374.7,48.6 374.7,72.1 374.1,72.8 347.5,72.8 346.9,72.1 346.9,48.6 346.9,48.2 346.6,47.9 345.4,46.7 345.1,46.4 344.7,46.4 
		338.1,46.4 337.6,46.4 337.3,46.7 336.1,47.9 335.8,48.2 335.8,48.6 335.8,107.5 335.8,107.9 336.1,108.2 337.6,109.7 337.9,110 
		338.4,110 344.4,110 344.8,110 345.1,109.7 346.6,108.2 346.9,107.9 346.9,107.5 346.9,83.3 347.5,82.7 374.1,82.7 374.7,83.3 
		374.7,107.5 374.7,107.9 375,108.2 376.5,109.7 376.8,110 377.2,110 383.2,110 383.7,110 384,109.7 385.4,108.2 385.7,107.9 
		385.7,107.5 385.7,48.6 385.7,48.2 385.4,47.9 	"/>
</g>
</svg>
