<?xml version="1.0" encoding="utf-8"?>
<!-- Generator: Adobe Illustrator 22.0.1, SVG Export Plug-In . SVG Version: 6.00 Build 0)  -->
<svg version="1.1" id="Layer_1" xmlns="http://www.w3.org/2000/svg" xmlns:xlink="http://www.w3.org/1999/xlink" x="0px" y="0px"
	 viewBox="0 0 156.4 34.4" enable-background="new 0 0 156.4 34.4" xml:space="preserve">
<g>
	<path fill="none" d="M5.4,11c0.5,0,0.9,0,1.1-0.1c0.4-0.1,0.7-0.2,1-0.3C7.8,10.5,8,10.3,8.2,10c0.2-0.3,0.2-0.7,0.2-1.1
		c0-0.5-0.1-0.9-0.3-1.2C7.8,7.3,7.5,7.1,7.1,7c-0.4-0.1-1-0.2-1.8-0.2H2.6L2.3,7v3.8L2.5,11H5.4z"/>
	<path fill="none" d="M5,5.2c0.7,0,1.3,0,1.6-0.1C7,5,7.3,4.8,7.6,4.5c0.2-0.3,0.3-0.7,0.3-1.1S7.8,2.6,7.6,2.3
		C7.4,2,7.1,1.8,6.8,1.7c-0.4-0.1-1-0.2-1.9-0.2H2.6L2.3,1.7V5l0.2,0.2H5z"/>
	<path fill="none" d="M9.7,16.2c-0.1,0-0.2,0-0.4,0c0,0,0,0,0,0C9.4,16.2,9.5,16.2,9.7,16.2z"/>
	<path fill="none" d="M50.2,7.2L50.4,7c0-0.6-0.1-1-0.4-1.4c-0.5-0.6-1-0.9-1.7-0.9S47,4.9,46.6,5.4C46.1,5.9,46,6.4,46,7l0.2,0.2
		H50.2z"/>
	<path fill="none" d="M100.2,21.9c0.3-0.5,0.5-1.1,0.5-1.6c0-0.9-0.3-1.5-0.9-2.1c-0.6-0.5-1.6-0.8-2.9-0.8h-5.4l-0.3,0.3V23
		l0.2,0.3h4.8c1.1,0,2-0.1,2.6-0.3C99.4,22.8,99.9,22.4,100.2,21.9z"/>
	<path fill="none" d="M10.3,16.3c0,0-0.1,0-0.1,0C10.2,16.3,10.3,16.3,10.3,16.3z"/>
	<polygon fill="none" points="27.1,19.4 24.1,26.6 24.1,26.8 30.2,26.8 30.2,26.6 	"/>
	<path fill="none" d="M152.8,30c0.2-0.4,0.3-0.9,0.3-1.5c0-0.7-0.2-1.2-0.5-1.7c-0.4-0.5-0.8-0.8-1.4-1c-0.6-0.2-1.5-0.3-2.7-0.3
		h-3.9l-0.3,0.3v5.6l0.2,0.2c0.2,0,4.3,0,4.3,0c0.8,0,1.4,0,1.7-0.1c0.3,0,0.5-0.1,0.8-0.2c0.2-0.1,0.4-0.2,0.6-0.3
		C152.3,30.7,152.6,30.4,152.8,30z"/>
	<polygon fill="none" points="144.1,25.5 144.4,25.2 144.1,25.5 	"/>
	<path fill="none" d="M50.1,21.9c0.3-0.5,0.5-1.1,0.5-1.6c0-0.8-0.3-1.5-0.9-2.1c-0.6-0.5-1.6-0.8-2.9-0.8h-5.4L41,17.6V23l0.3,0.3
		h4.8c1.1,0,2-0.1,2.6-0.3C49.3,22.8,49.8,22.4,50.1,21.9z"/>
	<path fill="none" d="M151.8,18.5c-0.2-0.5-0.6-0.7-1.1-0.9s-1.5-0.3-2.8-0.3h-3.3l-0.3,0.2v4.8l0.2,0.2h3.7c1.1,0,1.8-0.1,2.3-0.2
		c0.6-0.1,1-0.4,1.3-0.8c0.3-0.4,0.4-0.9,0.4-1.5C152.2,19.4,152.1,18.9,151.8,18.5z"/>
	<path fill="none" d="M148.8,34.1c1.2,0,2.3-0.1,3.1-0.3C151,34,150,34.1,148.8,34.1L148.8,34.1z"/>
	
		<line fill="none" stroke="#FFFFFF" stroke-width="0" stroke-linecap="round" stroke-linejoin="round" x1="35.5" y1="34.2" x2="35.4" y2="34.2"/>
	<path fill="#FFFFFF" d="M1,29.2c0.7,1.6,1.7,2.8,3,3.7c1.4,0.9,3.1,1.3,5.2,1.3c2.1,0,3.8-0.6,5.3-1.6c1.3-1.1,2.2-2.6,2.8-4.5V28
		l-0.4-0.4h-2L14.3,28c-0.4,1-1,1.9-1.7,2.5c-0.9,0.8-2.1,1.2-3.5,1.2c-1.1,0-2.2-0.3-3.2-0.9c-1-0.6-1.7-1.5-2.2-2.7S3,25.5,3,23.9
		c0-1.2,0.2-2.4,0.6-3.4c0.4-1.2,1-2.1,2-2.8c0.9-0.7,2.2-1,3.6-1c1.2,0,2.3,0.3,3.1,0.9c0.8,0.6,1.4,1.5,1.8,2.7l0.5,0.3h1.9
		l0.5-0.5V20c0-0.1,0-0.1,0-0.1h0.1v-0.2c-0.5-1.8-1.5-3.2-2.8-4.2c-1.4-1-3-1.5-5-1.5c0,0,0,0-0.1,0c0,0,0,0,0,0
		c-1.7,0-3.3,0.4-4.7,1.2S2,17.1,1.2,18.6C0.4,20,0,21.8,0,23.8c0,0,0,0.1,0,0.1c0,0,0,0.1,0,0.1C0,25.8,0.3,27.6,1,29.2z M9.7,16.2
		c-0.1,0-0.3,0-0.4,0c0,0,0,0,0,0C9.4,16.2,9.6,16.2,9.7,16.2z M10.2,16.3c0,0,0.1,0,0.1,0C10.3,16.3,10.2,16.3,10.2,16.3z"/>
	<polygon fill="#FFFFFF" points="75.6,17.4 85,17.4 85.5,16.9 85.5,15.1 85,14.6 72.8,14.6 72.3,15.1 72.3,33.7 72.8,34.2 85,34.2 
		85.4,33.6 85.4,31.9 85.4,31.8 85,31.4 75.7,31.4 75.3,31.1 75.3,25.8 75.6,25.5 84.6,25.5 85.1,25 85.1,23.3 84.7,22.9 75.6,22.9 
		75.3,22.6 75.3,17.7 	"/>
	<polygon fill="#FFFFFF" points="56.2,15.1 56.2,33.7 56.7,34.2 68.8,34.2 69.4,33.6 69.4,31.8 69,31.4 59.6,31.4 59.2,31.1 
		59.2,25.8 59.5,25.5 68.5,25.5 69,25 69,23.3 68.6,22.9 59.5,22.9 59.2,22.6 59.2,17.7 59.5,17.4 68.9,17.4 69.4,16.9 69.4,15.1 
		68.9,14.6 56.7,14.6 	"/>
	<path fill="#FFFFFF" d="M102.4,24c0.9-0.9,1.3-2.2,1.3-3.7c0-1.1-0.3-2.1-0.8-3c-0.6-0.9-1.3-1.5-2.2-1.9c-0.9-0.4-2.2-0.6-3.9-0.6
		l-8-0.1h-0.1l-0.4,0.4v18.7l0.4,0.4h1.9l0.5-0.5V26l0.3-0.3h2.5c0.2,0,0.4,0,0.5,0c0,0,0.6,0.1,1.3,0.1l5.5,8.4h2h0.2v-2.7
		l-3.8-5.7v-0.3C100.8,25.2,101.7,24.7,102.4,24z M96.2,23.3h-4.8L91.2,23v-5.3l0.3-0.3h5.4c1.3,0,2.3,0.3,2.9,0.8
		c0.6,0.6,0.9,1.2,0.9,2.1c0,0.6-0.2,1.2-0.5,1.6c-0.3,0.5-0.8,0.9-1.4,1.1C98.2,23.2,97.3,23.3,96.2,23.3z"/>
	<path fill="#FFFFFF" d="M19.1,34.2h2.2l1.6-4.3l0.4-0.4h8l0.4,0.4l1.6,4.3h2.1v-2.5l-6.6-16.9v-0.1h-3.1l-6.6,16.8V34.2z
		 M24.1,26.8v-0.2l3-7.2l3.1,7.2v0.2H24.1z"/>
	<path fill="#FFFFFF" d="M38.6,14.7l-0.4,0.4v18.7l0.4,0.4h1.9l0.5-0.5V26l0.3-0.3h2.5c0.2,0,0.4,0,0.5,0c0,0,0.6,0.1,1.3,0.1
		l5.5,8.4h2h0.2v-2.7l-3.8-5.7v-0.3c1.2-0.3,2.1-0.8,2.8-1.5c0.9-0.9,1.3-2.2,1.3-3.7c0-1.1-0.3-2.1-0.8-3c-0.6-0.9-1.3-1.5-2.2-1.9
		c-0.9-0.4-2.2-0.6-3.9-0.6l-8-0.1H38.6z M46.1,23.3h-4.8L41,23v-5.4l0.4-0.2h5.4c1.3,0,2.3,0.3,2.9,0.8c0.6,0.6,0.9,1.3,0.9,2.1
		c0,0.6-0.2,1.2-0.5,1.6c-0.3,0.5-0.8,0.9-1.4,1.1C48.1,23.2,47.2,23.3,46.1,23.3z"/>
	<path fill="#FFFFFF" d="M25.1,11.1c-0.7,0-1-0.1-1.3-0.4s-0.4-0.5-0.5-1l-0.2-0.2h-1.3l-0.2,0.2c0,1,0.4,1.7,1,2.2
		c0.6,0.5,1.5,0.7,2.7,0.7c0.7,0,1.1-0.2,1.7-0.4s1-0.6,1.4-1.1c0.2-0.5,0.4-1,0.4-1.5s-0.2-0.9-0.4-1.3c-0.2-0.3-0.6-0.6-1-0.8
		C27,7.3,26.6,7.3,25.5,7c-0.8-0.2-1.2-0.4-1.4-0.4c-0.3,0-0.4-0.1-0.3-0.3c-0.1-0.1-0.1-0.3-0.1-0.4c0-0.2,0.1-0.4,0.4-0.6
		C24.4,5.1,24.8,5,25.5,5c0.6,0,0.9,0.1,1.2,0.3C26.9,5.4,27,5.6,27,5.9l0.3,0.3h1.2L28.7,6c0-0.6-0.2-1.2-0.4-1.5
		c-0.3-0.3-0.7-0.6-1.2-0.8c-0.6-0.2-1.2-0.3-1.9-0.3c-0.4,0-0.9,0.1-1.3,0.2c-0.4,0.1-0.8,0.2-1,0.4c-0.4,0.3-0.6,0.6-0.8,0.9
		c-0.2,0.3-0.3,0.5-0.3,0.9c0,0.4,0.1,0.8,0.3,1.2c0.2,0.4,0.6,0.7,1,0.9c0.4,0.2,1.2,0.4,2.3,0.7c0.8,0.2,1,0.4,1.2,0.5
		C26.9,9.3,27,9.5,27,9.8c0,0.4-0.2,0.6-0.5,0.9S25.7,11.1,25.1,11.1z"/>
	<path fill="#FFFFFF" d="M13.7,3.6h-1.2l-0.2,0.2V9c0,0.6,0.2,1,0.2,1.2c0.1,0.5,0.3,0.8,0.5,1.1c0.2,0.3,0.4,0.6,0.9,0.8
		s1,0.4,1.5,0.4c1.2,0,1.8-0.2,2.5-1.2l0.4,1.1v0.1h1.1l0.3-0.3V3.8l-0.3-0.3h-1.1L18,3.8V8c0,0.7-0.1,1.3-0.2,1.7
		c-0.2,0.4-0.5,0.8-0.9,1c-0.4,0.3-0.7,0.4-1.2,0.4c-0.4,0-0.7-0.1-1-0.3c-0.3-0.3-0.5-0.6-0.6-1C14,9.5,14,9,14,8.2V3.8L13.7,3.6z"
		/>
	<path fill="#FFFFFF" d="M0.7,12.2L1,12.5h4.5c0.8,0,1.4-0.1,2-0.2c0.5-0.1,1-0.3,1.4-0.6c0.3-0.3,0.7-0.7,0.9-1.2
		c0.3-0.5,0.4-1,0.4-1.6c0-0.7-0.2-1.4-0.6-1.9c-0.5-0.5-1-0.9-1.8-1.1c0.6-0.3,1-0.7,1.4-1.1c0.3-0.5,0.4-1,0.4-1.5
		c0-0.6-0.2-1.2-0.5-1.7C8.7,1,8.3,0.7,7.7,0.4C7.1,0.1,6.4,0,5.4,0H0.9L0.7,0.2V12.2z M2.3,1.7l0.3-0.2h2.3c0.9,0,1.5,0.1,1.9,0.2
		C7.1,1.8,7.4,2,7.6,2.3C7.8,2.6,7.9,3,7.9,3.4S7.8,4.2,7.6,4.5C7.3,4.8,7,5,6.6,5.1C6.3,5.2,5.7,5.2,5,5.2H2.5L2.3,5V1.7z M2.3,7
		l0.3-0.2h2.7c0.8,0,1.4,0.1,1.8,0.2c0.4,0.1,0.7,0.3,1,0.7C8.3,8,8.4,8.4,8.4,8.9c0,0.4,0,0.8-0.2,1.1c-0.2,0.3-0.4,0.5-0.7,0.6
		c-0.3,0.1-0.6,0.2-1,0.3C6.3,11,5.9,11,5.4,11H2.5l-0.2-0.2V7z"/>
	<path fill="#FFFFFF" d="M57.3,11.1c-0.7,0-1-0.1-1.3-0.4s-0.4-0.5-0.5-1l-0.2-0.2H54l-0.2,0.2c0,1,0.4,1.7,1,2.2
		c0.6,0.5,1.5,0.7,2.7,0.7c0.7,0,1.1-0.2,1.7-0.4c0.6-0.3,1-0.6,1.3-1.1c0.2-0.5,0.4-1,0.4-1.5s-0.2-0.9-0.4-1.3
		c-0.2-0.3-0.6-0.6-1-0.8c-0.4-0.2-0.8-0.2-1.9-0.5c-0.8-0.2-1.2-0.4-1.4-0.4c-0.3,0-0.5-0.1-0.2-0.3c-0.1-0.1-0.1-0.3-0.1-0.4
		c0-0.2,0.1-0.4,0.4-0.6C56.6,5.1,57,5,57.7,5c0.6,0,0.9,0.1,1.2,0.3c0.2,0.1,0.3,0.3,0.3,0.6l0.3,0.3h1.2L60.9,6
		c0-0.6-0.2-1.2-0.4-1.5c-0.3-0.3-0.7-0.6-1.2-0.8c-0.6-0.2-1.2-0.3-1.9-0.3c-0.4,0-0.9,0.1-1.3,0.2c-0.4,0.1-0.8,0.2-1,0.4
		c-0.4,0.3-0.6,0.6-0.8,0.9S54,5.4,54,5.8c0,0.4,0.1,0.8,0.3,1.2c0.2,0.4,0.6,0.7,1,0.9c0.4,0.2,1.2,0.4,2.3,0.7
		c0.8,0.2,1,0.4,1.2,0.5c0.3,0.2,0.4,0.4,0.4,0.7c0,0.4-0.2,0.6-0.5,0.9S57.9,11.1,57.3,11.1z"/>
	<path fill="#FFFFFF" d="M66.1,11.1c-0.7,0-1-0.1-1.3-0.4c-0.3-0.3-0.4-0.5-0.5-1l-0.2-0.2h-1.3l-0.2,0.2c0,1,0.4,1.7,1,2.2
		c0.6,0.5,1.5,0.7,2.7,0.7c0.7,0,1.1-0.2,1.7-0.4s1-0.6,1.3-1.1s0.4-1,0.4-1.5s-0.2-0.9-0.4-1.3c-0.2-0.3-0.6-0.6-1-0.8
		c-0.4-0.2-0.8-0.2-1.9-0.5c-0.8-0.2-1.2-0.4-1.4-0.4c-0.2-0.1-0.4-0.1-0.5-0.4c-0.1-0.1-0.1-0.3-0.1-0.4c0-0.2,0.1-0.4,0.4-0.6
		s0.7-0.3,1.4-0.3c0.6,0,0.9,0.1,1.2,0.3c0.2,0.1,0.3,0.3,0.3,0.6L68,6.1h1.2l0.4-0.2c0-0.6-0.2-1.2-0.4-1.5
		c-0.3-0.3-0.7-0.6-1.2-0.8c-0.6-0.2-1.2-0.3-1.9-0.3c-0.4,0-0.9,0.1-1.3,0.2c-0.4,0.1-0.8,0.2-1,0.4c-0.4,0.3-0.6,0.6-0.8,0.9
		c-0.2,0.3-0.3,0.5-0.3,0.9c0,0.4,0.1,0.8,0.3,1.2s0.6,0.7,1,0.9c0.4,0.2,1.2,0.4,2.4,0.8c0.8,0.2,1,0.4,1.2,0.5
		C67.9,9.3,68,9.5,68,9.8c0,0.4-0.2,0.6-0.5,0.9S66.7,11.1,66.1,11.1z"/>
	<path fill="#FFFFFF" d="M41.3,4.8c-0.3-0.3-0.5-0.6-1-0.8c-0.5-0.2-1.1-0.4-1.6-0.4c-1.3,0-1.8,0.2-2.5,1.2l-0.4-1.1h-1.2l-0.2,0.2
		v8.6l0.2,0.2h1.2l0.3-0.3V8.2c0-0.8,0.1-1.4,0.3-1.8c0.2-0.4,0.5-0.8,0.9-1C37.7,5.1,38,5,38.5,5c0.4,0,0.7,0.1,1,0.3
		c0.3,0.3,0.5,0.6,0.6,1c0.1,0.3,0.1,0.8,0.1,1.6v4.5l0.2,0.2v0.2h1.3l0.3-0.3V7.3c0-0.7-0.1-1.1-0.2-1.4
		C41.7,5.4,41.5,5.1,41.3,4.8z"/>
	<polygon fill="#FFFFFF" points="30.9,2.2 32.3,2.2 32.6,2 32.6,0.6 32.3,0.3 30.9,0.3 30.6,0.6 30.6,2 30.9,2.3 	"/>
	<path fill="#FFFFFF" d="M52,8.5l0.3-0.2c0-0.1,0-0.2,0-0.3c0-1.5-0.3-2.6-1.1-3.4c-0.8-0.9-1.7-1.4-2.9-1.4c-1.3,0-2.3,0.4-3.1,1.2
		C44.4,5.3,44,6.5,44,8s0.3,2.5,1.1,3.3c0.8,0.8,1.8,1.2,3.1,1.2c1,0,1.8-0.2,2.5-0.7c0.5-0.4,0.9-1,1.2-1.6V9.7h-1.6
		c-0.2,0.6-0.4,0.7-0.7,1c-0.4,0.3-0.8,0.4-1.3,0.4c-0.6,0-1.1-0.1-1.6-0.6C46.3,10,46.1,9.6,46,8.8l0.2-0.3H52z M46.6,5.4
		c0.4-0.5,1-0.7,1.7-0.7S49.5,5,50,5.6C50.3,6,50.4,6.4,50.4,7l-0.2,0.2h-4L46,7C46,6.4,46.1,5.9,46.6,5.4z"/>
	<polygon fill="#FFFFFF" points="30.6,12.3 30.9,12.5 32.3,12.5 32.6,12.3 32.6,3.8 32.3,3.5 30.9,3.5 30.6,3.8 	"/>
	<path fill="#FFFFFF" d="M137.8,30.4c0.4-1.1,0.6-2.7,0.6-4.6V15.1V15l-0.1-0.1l-0.4-0.5h-0.1h-1.7H136l-0.1,0.1l-0.4,0.4l-0.1,0.1
		v0.1v10.8c0,2.2-0.3,3.7-1.1,4.4c-0.7,0.8-1.9,1.1-3.6,1.1c-1,0-1.8-0.2-2.5-0.6c-0.7-0.4-1.1-0.9-1.4-1.6
		c-0.3-0.7-0.4-1.8-0.4-3.4V15.1V15l-0.1-0.1l-0.4-0.4l0,0h0l-0.1-0.1h-0.1H124h-0.1l-0.1,0.1l-0.4,0.4l-0.1,0.1v0.1v10.8
		c0,2,0.2,3.6,0.7,4.8s1.3,2.1,2.5,2.8c1.1,0.6,2.6,0.9,4.4,0.9s3.3-0.4,4.5-1.1C136.6,32.6,137.4,31.6,137.8,30.4z"/>
	<path fill="#FFFFFF" d="M154.2,33.1c0.6-0.5,1.1-1.1,1.5-1.9c0.4-0.8,0.6-1.7,0.6-2.7c0-1.2-0.3-2.2-1-3.1
		c-0.2-0.2-0.4-0.4-0.6-0.6c-0.1-0.1-0.1-0.1-0.2-0.1c-0.1-0.1-0.2-0.2-0.3-0.2c-0.3-0.3-0.7-0.5-1.1-0.7c0.6-0.4,1.2-0.9,1.4-1.5
		c0.5-0.8,0.7-1.6,0.7-2.5c0,0,0-0.1,0-0.1c0,0,0-0.1,0-0.1c0-0.9-0.3-1.8-0.8-2.6c-0.6-0.9-1.3-1.5-2.2-1.9
		c-0.2-0.1-0.3-0.1-0.5-0.2c-0.8-0.4-1.9-0.5-3.1-0.5h-6.9h-0.1l-0.1,0.1l-0.4,0.4l-0.1,0.1v0.1v18.6v0.1l0.1,0.1l0.4,0.4l0.1,0.1
		h0.1h7c1.3,0,2.3-0.1,3.2-0.3C152.9,33.9,153.6,33.5,154.2,33.1z M150.5,31.5c-0.3,0.1-0.9,0.1-1.7,0.1c0,0-4.1,0-4.3,0l-0.2-0.2
		v-5.6l0.3-0.3h3.9c1.2,0,2.1,0.1,2.7,0.3c0.6,0.2,1,0.5,1.4,1c0.3,0.5,0.5,1,0.5,1.7c0,0.6-0.1,1.1-0.3,1.5c-0.2,0.4-0.5,0.7-0.9,1
		c-0.2,0.1-0.4,0.2-0.6,0.3C151,31.4,150.8,31.4,150.5,31.5z M150.5,22.3c-0.5,0.1-1.2,0.2-2.3,0.2h-3.7l-0.2-0.2v-4.8l0.3-0.2h3.3
		c1.3,0,2.3,0.1,2.8,0.3s0.9,0.4,1.1,0.9c0.3,0.4,0.4,0.9,0.4,1.5c0,0.6-0.1,1.1-0.4,1.5C151.5,21.9,151.1,22.2,150.5,22.3z
		 M144.4,25.2l-0.3,0.3v0L144.4,25.2z M148.8,34.1L148.8,34.1c1.2,0,2.2-0.1,3.1-0.3C151.1,34,150,34.1,148.8,34.1z"/>
	<polygon fill="#FFFFFF" points="120.8,33.8 120.9,33.7 120.9,33.6 120.9,15.2 120.9,15.1 120.8,15 120.2,14.5 120.1,14.5 118,14.5 
		117.9,14.5 117.8,14.6 117.4,15 117.3,15.1 117.3,15.2 117.3,22.6 117.1,22.8 108.8,22.8 108.6,22.6 108.6,15.2 108.6,15.1 
		108.5,15 108.1,14.6 108,14.5 105.9,14.5 105.8,14.5 105.7,14.6 105.3,15 105.2,15.1 105.2,15.2 105.2,33.6 105.2,33.7 105.8,34.3 
		105.8,34.3 105.9,34.4 106,34.4 107.9,34.4 108,34.4 108.1,34.3 108.6,33.8 108.7,33.7 108.7,33.6 108.7,26.1 108.9,25.9 
		117.2,25.9 117.4,26.1 117.4,33.6 117.4,33.7 117.5,33.8 118,34.3 118.1,34.4 118.2,34.4 120.1,34.4 120.2,34.4 120.3,34.3 	"/>
</g>
</svg>
