<?xml version="1.0" encoding="utf-8"?>
<!-- Generator: Adobe Illustrator 22.0.1, SVG Export Plug-In . SVG Version: 6.00 Build 0)  -->
<svg version="1.1" id="CITC_Logo" xmlns="http://www.w3.org/2000/svg" xmlns:xlink="http://www.w3.org/1999/xlink" x="0px" y="0px"
	 viewBox="0 0 226.9 144" style="enable-background:new 0 0 226.9 144;" xml:space="preserve">
<style type="text/css">
	.st0{fill:none;}
	.st1{fill:#1E3D72;}
</style>
<g>
	<path class="st0" d="M25.2,73.5c0,1,0.8,1.8,1.8,1.8c1,0,1.8-0.8,1.8-1.8c0-1-0.8-1.8-1.8-1.8C26,71.7,25.2,72.5,25.2,73.5z"/>
	<path class="st0" d="M11.7,22.4c1,0,1.8-0.8,1.8-1.8s-0.8-1.8-1.8-1.8s-1.8,0.8-1.8,1.8S10.7,22.4,11.7,22.4z"/>
	<path class="st0" d="M95.6,21c1,0,1.8-0.8,1.8-1.8c0-1-0.8-1.8-1.8-1.8c-1,0-1.8,0.8-1.8,1.8C93.8,20.2,94.6,21,95.6,21z"/>
	<path class="st0" d="M27,95.4c1,0,1.8-0.8,1.8-1.8c0-1-0.8-1.8-1.8-1.8c-1,0-1.8,0.8-1.8,1.8C25.2,94.6,26,95.4,27,95.4z"/>
	<path class="st0" d="M36.6,4.9c1,0,1.8-0.8,1.8-1.8s-0.8-1.8-1.8-1.8c-1,0-1.8,0.8-1.8,1.8S35.6,4.9,36.6,4.9z"/>
	<path class="st0" d="M80.9,8.9c1,0,1.8-0.8,1.8-1.8s-0.8-1.8-1.8-1.8c-1,0-1.8,0.8-1.8,1.8S79.9,8.9,80.9,8.9z"/>
	<path class="st0" d="M30.3,27.5c-1,0-1.8,0.8-1.8,1.8c0,1,0.8,1.8,1.8,1.8c1,0,1.8-0.8,1.8-1.8C32.1,28.3,31.3,27.5,30.3,27.5z"/>
	<ellipse class="st0" cx="74.8" cy="11.2" rx="1.8" ry="1.8"/>
	<ellipse class="st0" cx="80.4" cy="22.3" rx="1.8" ry="1.8"/>
	<path class="st0" d="M15.3,73.1c0-1-0.8-1.8-1.8-1.8s-1.8,0.8-1.8,1.8s0.8,1.8,1.8,1.8S15.3,74,15.3,73.1z"/>
	<path class="st0" d="M80.9,120.2c-1,0-1.8,0.8-1.8,1.8s0.8,1.8,1.8,1.8c1,0,1.8-0.8,1.8-1.8S81.9,120.2,80.9,120.2z"/>
	<path class="st0" d="M96.2,84.5c-0.2-0.3-0.5-0.5-0.9-0.6c-0.1,0-0.3-0.1-0.4-0.1c-0.2,0-0.4,0-0.6,0h-1.1v3.4h1.3
		c0.4,0,0.7,0,0.9-0.1c0.3-0.1,0.5-0.2,0.6-0.4c0.2-0.2,0.3-0.3,0.4-0.5c0.1-0.2,0.1-0.4,0.1-0.7C96.5,85.1,96.4,84.8,96.2,84.5z"/>
	<path class="st0" d="M89.8,34.7c1,0,1.8-0.8,1.8-1.8c0-1-0.8-1.8-1.8-1.8c-1,0-1.8,0.8-1.8,1.8C88,33.9,88.8,34.7,89.8,34.7z"/>
	<path class="st0" d="M13.5,58.2c1,0,1.8-0.8,1.8-1.8c0-1-0.8-1.8-1.8-1.8s-1.8,0.8-1.8,1.8C11.7,57.4,12.5,58.2,13.5,58.2z"/>
	<path class="st0" d="M62.8,27.5C62.8,27.5,62.8,27.5,62.8,27.5c0,0.1,0,0.3,0,0.4c0,1,0.8,1.8,1.8,1.8c1,0,1.8-0.8,1.8-1.8
		c0-1-0.8-1.8-1.8-1.8C63.7,26.1,63,26.7,62.8,27.5C62.8,27.5,62.8,27.5,62.8,27.5z"/>
	<path class="st0" d="M69.3,113.2c-1,0-1.8,0.8-1.8,1.8s0.8,1.8,1.8,1.8c1,0,1.8-0.8,1.8-1.8S70.3,113.2,69.3,113.2z"/>
	<path class="st0" d="M36.4,63.2c0-1-0.8-1.8-1.8-1.8s-1.8,0.8-1.8,1.8c0,1,0.8,1.8,1.8,1.8S36.4,64.2,36.4,63.2z"/>
	<path class="st0" d="M58.8,90.5c0.2,0.4,0.5,0.6,0.9,0.8c0.4,0.2,0.9,0.3,1.5,0.3c0.6,0,1.1-0.1,1.5-0.3c0.4-0.2,0.7-0.5,1-0.9
		c0.2-0.4,0.4-0.8,0.5-1.3c0.1-0.5,0.2-1,0.2-1.5c0-0.5-0.1-1.1-0.2-1.5c-0.1-0.5-0.3-0.9-0.5-1.2c-0.2-0.4-0.5-0.6-0.9-0.8
		c-0.4-0.2-0.9-0.3-1.4-0.3c-0.6,0-1.1,0.1-1.4,0.3c-0.4,0.2-0.7,0.5-1,0.9c-0.2,0.4-0.4,0.8-0.5,1.2c-0.1,0.5-0.2,1-0.2,1.5
		c0,0.6,0,1.1,0.1,1.6C58.4,89.7,58.6,90.1,58.8,90.5z"/>
	<path class="st0" d="M82,63.4c-0.6-0.7-1.3-1.2-2.2-1.5c-0.9-0.4-1.8-0.5-2.9-0.5c-1.1,0-2.1,0.2-2.9,0.5c-0.9,0.4-1.6,0.9-2.2,1.5
		c-0.6,0.7-1.1,1.5-1.4,2.5c-0.3,1-0.5,2-0.5,3.3c0,1.2,0.2,2.3,0.5,3.3c0.3,1,0.8,1.8,1.4,2.4c0.6,0.7,1.4,1.2,2.2,1.5
		c0.9,0.4,1.8,0.5,2.9,0.5c1.1,0,2.1-0.2,2.9-0.5c0.9-0.4,1.6-0.9,2.2-1.5c0.6-0.7,1.1-1.5,1.4-2.4c0.3-1,0.5-2,0.5-3.3
		c0-1.2-0.2-2.3-0.5-3.3C83.1,64.9,82.6,64.1,82,63.4z"/>
	<path class="st0" d="M53.9,5c-1,0-1.8,0.8-1.8,1.8c0,1,0.8,1.8,1.8,1.8s1.8-0.8,1.8-1.8C55.7,5.8,54.9,5,53.9,5z"/>
	<path class="st0" d="M16.7,117.3c0-1-0.8-1.8-1.8-1.8s-1.8,0.8-1.8,1.8c0,1,0.8,1.8,1.8,1.8S16.7,118.3,16.7,117.3z"/>
	<path class="st0" d="M40.1,130.2c1,0,1.8-0.8,1.8-1.8s-0.8-1.8-1.8-1.8s-1.8,0.8-1.8,1.8S39.1,130.2,40.1,130.2z"/>
	<path class="st1" d="M2,100.9c-0.5-2.5-0.8-5.2-0.9-7.8c0-0.7,0-1.5,0-2.2V53c0-4.2,0.5-8.4,1.5-12.5c0.1-0.3-0.1-0.6-0.4-0.6
		c-0.3-0.1-0.6,0.1-0.6,0.4C0.5,44.4,0,48.7,0,53V91c0,0.7,0,1.5,0,2.2c0.1,2.7,0.4,5.3,0.9,7.9c2.4,12.4,9.3,23.6,19.3,31.5
		c0.1,0.1,0.2,0.1,0.3,0.1c0.2,0,0.3-0.1,0.4-0.2c0.2-0.2,0.1-0.6-0.1-0.7C11.1,124,4.4,113.1,2,100.9z"/>
	<path class="st1" d="M69.6,140.8c-4.8,1.4-9.8,2.2-14.8,2.2H53c-2,0-4-0.1-5.9-0.3c-0.3,0-0.6,0.2-0.6,0.5c0,0.3,0.2,0.6,0.5,0.6
		c2,0.2,4,0.3,6.1,0.3h1.7c5.1,0,10.2-0.7,15.1-2.2c0.3-0.1,0.4-0.4,0.4-0.7C70.1,140.9,69.8,140.7,69.6,140.8z"/>
	<path class="st1" d="M88.6,130.4c-4.9,4.2-10.5,7.5-16.6,9.6c-0.3,0.1-0.4,0.4-0.3,0.7c0.1,0.2,0.3,0.4,0.5,0.4c0.1,0,0.1,0,0.2,0
		c6.2-2.2,11.9-5.5,16.9-9.8c0.2-0.2,0.2-0.5,0.1-0.7C89.1,130.2,88.8,130.2,88.6,130.4z"/>
	<path class="st1" d="M102.9,112c-0.3-0.1-0.6,0-0.7,0.3c-2.5,5.5-5.9,10.6-10.2,14.9c-0.2,0.2-0.2,0.5,0,0.7
		c0.1,0.1,0.2,0.1,0.4,0.1c0.1,0,0.3-0.1,0.4-0.2c4.4-4.5,7.9-9.6,10.4-15.3C103.3,112.4,103.2,112.1,102.9,112z"/>
	<path class="st1" d="M106.8,53c0,0.3,0.2,0.5,0.5,0.5c0.3,0,0.5-0.2,0.5-0.5c0-4.2-0.5-8.3-1.5-12.3c-0.1-0.3-0.4-0.5-0.6-0.4
		c-0.3,0.1-0.5,0.4-0.4,0.6C106.3,44.9,106.8,49,106.8,53z"/>
	<path class="st1" d="M64.6,2c4.7,0.9,9.2,2.5,13.5,4.6c0,0.2,0,0.3,0,0.5c0,1.6,1.3,2.8,2.9,2.8c1.6,0,2.9-1.3,2.9-2.8
		s-1.3-2.8-2.9-2.8c-1,0-1.9,0.6-2.5,1.4C74.1,3.4,69.5,1.9,64.8,1c-0.3-0.1-0.6,0.1-0.6,0.4C64.1,1.7,64.3,1.9,64.6,2z M80.9,5.3
		c1,0,1.8,0.8,1.8,1.8s-0.8,1.8-1.8,1.8c-1,0-1.8-0.8-1.8-1.8S79.9,5.3,80.9,5.3z"/>
	<path class="st1" d="M3.9,34.6c0.1,0,0.1,0,0.2,0c0.2,0,0.4-0.1,0.5-0.3c1.5-3.9,3.5-7.6,5.9-11c0.4,0.2,0.8,0.3,1.2,0.3
		c1.6,0,2.9-1.3,2.9-2.8c0-1.6-1.3-2.8-2.9-2.8s-2.9,1.3-2.9,2.8c0,0.8,0.3,1.5,0.8,2c-2.5,3.5-4.5,7.3-6.1,11.2
		C3.5,34.1,3.6,34.5,3.9,34.6z M11.7,18.8c1,0,1.8,0.8,1.8,1.8s-0.8,1.8-1.8,1.8s-1.8-0.8-1.8-1.8S10.7,18.8,11.7,18.8z"/>
	<path class="st1" d="M9.6,108.1c0.1,0,0.1,0,0.2,0c0.3-0.1,0.4-0.4,0.3-0.7c-1.6-4.1-2.6-8.5-2.9-12.9c0-0.3-0.3-0.5-0.6-0.5
		c-0.3,0-0.5,0.3-0.5,0.6c0.4,4.5,1.4,9,3,13.2C9.2,107.9,9.4,108.1,9.6,108.1z"/>
	<path class="st1" d="M36.5,134.1c-7.7-3.1-14.5-8.2-19.6-14.8c0.5-0.5,0.9-1.2,0.9-2c0-1.6-1.3-2.8-2.9-2.8s-2.9,1.3-2.9,2.8
		c0,1.6,1.3,2.8,2.9,2.8c0.4,0,0.8-0.1,1.1-0.2c5.3,6.8,12.2,12,20.1,15.2c0.1,0,0.1,0,0.2,0c0.2,0,0.4-0.1,0.5-0.3
		C36.9,134.6,36.7,134.2,36.5,134.1z M13,117.3c0-1,0.8-1.8,1.8-1.8s1.8,0.8,1.8,1.8c0,1-0.8,1.8-1.8,1.8S13,118.3,13,117.3z"/>
	<path class="st1" d="M53.9,138.5c1.7,0,3.4-0.1,5.1-0.3c0.3,0,0.5-0.3,0.5-0.6c0-0.3-0.3-0.5-0.6-0.5c-1.6,0.2-3.3,0.3-5,0.3h0
		c-5.2,0-10.2-0.8-15.1-2.5c-0.3-0.1-0.6,0.1-0.7,0.3c-0.1,0.3,0.1,0.6,0.3,0.7C43.4,137.7,48.6,138.5,53.9,138.5L53.9,138.5z"/>
	<path class="st1" d="M89.7,120.8c-3,3.6-6.5,6.7-10.4,9.2c-4,2.6-8.3,4.5-12.8,5.8c-0.3,0.1-0.4,0.4-0.4,0.6
		c0.1,0.2,0.3,0.4,0.5,0.4c0,0,0.1,0,0.1,0c4.6-1.3,9.1-3.3,13.1-5.9c4-2.6,7.6-5.8,10.7-9.4c0.2-0.2,0.2-0.6-0.1-0.7
		C90.2,120.5,89.9,120.6,89.7,120.8z"/>
	<path class="st1" d="M100,98.7c-1,5.9-3.2,11.5-6.4,16.7c-0.2,0.2-0.1,0.6,0.2,0.7c0.1,0.1,0.2,0.1,0.3,0.1c0.2,0,0.3-0.1,0.4-0.2
		c3.3-5.3,5.5-11,6.5-17.1c0-0.3-0.1-0.6-0.4-0.6C100.4,98.2,100.1,98.4,100,98.7z"/>
	<path class="st1" d="M101,49.1c-0.3,0-0.5,0.3-0.5,0.6c0.1,1.2,0.2,2.3,0.2,3.5c0,0.3,0.2,0.5,0.5,0.5c0,0,0,0,0,0
		c0.3,0,0.5-0.2,0.5-0.5c0-1.2-0.1-2.4-0.2-3.6C101.5,49.3,101.3,49,101,49.1z"/>
	<path class="st1" d="M98.8,40.7c0.1,0.2,0.3,0.4,0.5,0.4c0.1,0,0.1,0,0.2,0c0.3-0.1,0.4-0.4,0.4-0.7c-2-6.7-5.5-12.9-10.2-18.2
		c-0.2-0.2-0.5-0.2-0.7,0c-0.2,0.2-0.2,0.5,0,0.7C93.3,28,96.8,34.1,98.8,40.7z"/>
	<path class="st1" d="M24.5,17.5c0.1,0,0.2,0,0.3-0.1c3-2.3,6.2-4.3,9.6-5.9c0.3-0.1,0.4-0.4,0.3-0.7c-0.1-0.3-0.4-0.4-0.7-0.3
		c-3.5,1.6-6.8,3.6-9.8,6c-0.2,0.2-0.3,0.5-0.1,0.7C24.2,17.4,24.3,17.5,24.5,17.5z"/>
	<path class="st1" d="M11.4,33.2c0.1,0,0.2,0.1,0.2,0.1c0.2,0,0.4-0.1,0.5-0.3c2.7-5.3,6.3-9.9,10.8-13.9c0.2-0.2,0.2-0.5,0-0.7
		c-0.2-0.2-0.5-0.2-0.7,0c-4.5,4-8.2,8.8-11,14.2C11,32.7,11.1,33,11.4,33.2z"/>
	<path class="st1" d="M10.8,34.4c-0.3-0.1-0.6,0-0.7,0.3c-2.8,6.2-4.2,12.7-4.2,19.5c0,0.3,0.2,0.5,0.5,0.5c0.3,0,0.5-0.2,0.5-0.5
		c0-6.6,1.4-13,4.1-19C11.2,34.8,11,34.5,10.8,34.4z"/>
	<path class="st1" d="M7,74.2V57.4c0-0.3-0.2-0.5-0.5-0.5c-0.3,0-0.5,0.2-0.5,0.5v16.8c0,0.3,0.2,0.5,0.5,0.5
		C6.7,74.7,7,74.5,7,74.2z"/>
	<path class="st1" d="M88.7,113.9c0.2-0.2,0.1-0.6-0.1-0.7c-0.2-0.2-0.6-0.1-0.7,0.1c-1.6,2.2-3.4,4.3-5.4,6.2
		c-0.4-0.3-0.9-0.4-1.5-0.4c-1.6,0-2.9,1.3-2.9,2.8c0,1.6,1.3,2.8,2.9,2.8c1.6,0,2.9-1.3,2.9-2.8c0-0.6-0.2-1.2-0.6-1.7
		C85.2,118.3,87.1,116.2,88.7,113.9z M80.9,123.7c-1,0-1.8-0.8-1.8-1.8s0.8-1.8,1.8-1.8c1,0,1.8,0.8,1.8,1.8S81.9,123.7,80.9,123.7z
		"/>
	<path class="st1" d="M89.7,111.3c0.1,0,0.2,0.1,0.3,0.1c0.2,0,0.4-0.1,0.5-0.3c1.8-3.1,3.3-6.5,4.2-9.9c0.1-0.3-0.1-0.6-0.4-0.6
		c-0.3-0.1-0.6,0.1-0.6,0.4c-0.9,3.4-2.3,6.6-4.1,9.7C89.4,110.9,89.5,111.2,89.7,111.3z"/>
	<path class="st1" d="M13,90.8c0,0.3,0.2,0.5,0.5,0.5c0,0,0,0,0,0c0.3,0,0.5-0.2,0.5-0.5c0-0.2,0-0.4,0-0.6V75.9
		c1.3-0.2,2.4-1.4,2.4-2.8c0-1.6-1.3-2.8-2.9-2.8s-2.9,1.3-2.9,2.8c0,1.4,1,2.5,2.4,2.8v14.4C13,90.4,13,90.6,13,90.8z M11.7,73.1
		c0-1,0.8-1.8,1.8-1.8s1.8,0.8,1.8,1.8s-0.8,1.8-1.8,1.8S11.7,74,11.7,73.1z"/>
	<path class="st1" d="M29,122.9c0.1,0.1,0.2,0.1,0.3,0.1c0.2,0,0.3-0.1,0.4-0.2c0.2-0.2,0.1-0.6-0.1-0.7
		C20.6,115,14.9,104.4,14.1,93c0-0.3-0.3-0.5-0.6-0.5c-0.3,0-0.5,0.3-0.5,0.6C13.9,104.8,19.7,115.6,29,122.9z"/>
	<path class="st1" d="M44,124.2c0.1,0,0.1,0,0.2,0c0.2,0,0.4-0.1,0.5-0.4c0.1-0.3-0.1-0.6-0.4-0.7c-3.9-1.2-7.6-3.1-10.8-5.6
		c-3.2-2.5-6-5.5-8.1-9c-0.2-0.2-0.5-0.3-0.7-0.2c-0.2,0.2-0.3,0.5-0.2,0.7c2.2,3.6,5,6.7,8.3,9.3C36.2,121.1,40,123,44,124.2z"/>
	<path class="st1" d="M47.8,125.1c2,0.4,4,0.5,6,0.5H56c1,0,2.1,0,3.1-0.1c0.3,0,0.5-0.3,0.5-0.6c0-0.3-0.3-0.5-0.6-0.5
		c-1,0.1-2,0.1-3,0.1h-2.2c-2,0-3.9-0.2-5.8-0.5c-0.3-0.1-0.6,0.1-0.6,0.4C47.3,124.8,47.5,125.1,47.8,125.1z"/>
	<path class="st1" d="M63.2,124.9c0,0,0.1,0,0.1,0c9.2-2,17.3-7.8,22.2-16c0.1-0.2,0.1-0.6-0.2-0.7c-0.2-0.1-0.6-0.1-0.7,0.2
		c-4.7,7.9-12.6,13.5-21.5,15.5c-0.3,0.1-0.5,0.3-0.4,0.6C62.7,124.7,62.9,124.9,63.2,124.9z"/>
	<path class="st1" d="M89.4,96.9c-0.3-0.1-0.6,0.1-0.6,0.4c-0.5,2.4-1.2,4.8-2.2,7.1c-0.1,0.3,0,0.6,0.3,0.7c0.1,0,0.1,0,0.2,0
		c0.2,0,0.4-0.1,0.5-0.3c1-2.4,1.8-4.8,2.2-7.4C89.8,97.2,89.6,97,89.4,96.9z"/>
	<path class="st1" d="M89.7,46.6c-0.1-0.3-0.3-0.5-0.6-0.4c-0.3,0.1-0.5,0.3-0.4,0.6c0.4,2,0.6,4.1,0.7,6.2c0,0.1,0,0.3,0,0.4
		c0,0.3,0.2,0.5,0.5,0.5c0.3,0,0.5-0.2,0.5-0.5c0-0.1,0-0.3,0-0.4C90.3,50.8,90.1,48.7,89.7,46.6z"/>
	<path class="st1" d="M59.8,19.3c-0.3,0-0.5,0.2-0.6,0.5c0,0.3,0.2,0.5,0.5,0.6c12.8,1.4,23.8,10.2,27.9,22.5
		c0.1,0.2,0.3,0.4,0.5,0.4c0.1,0,0.1,0,0.2,0c0.3-0.1,0.4-0.4,0.3-0.7C84.3,29.8,73,20.7,59.8,19.3z"/>
	<path class="st1" d="M56,19h-2.2c-4.1,0-8.1,0.7-11.9,2.1c-3.6,1.3-7,3.3-10,5.8c-0.5-0.3-1-0.5-1.6-0.5c-1.6,0-2.9,1.3-2.9,2.8
		c0,1.6,1.3,2.8,2.9,2.8s2.9-1.3,2.9-2.8c0-0.6-0.2-1.1-0.5-1.6c2.9-2.4,6.1-4.2,9.6-5.5c3.7-1.4,7.6-2.1,11.6-2.1H56
		c0.3,0,0.5-0.2,0.5-0.5C56.5,19.3,56.3,19,56,19z M30.3,31.1c-1,0-1.8-0.8-1.8-1.8c0-1,0.8-1.8,1.8-1.8c1,0,1.8,0.8,1.8,1.8
		C32.1,30.3,31.3,31.1,30.3,31.1z"/>
	<path class="st1" d="M21.8,42.4c-0.3-0.1-0.6,0.1-0.7,0.3c-1.1,3.4-1.7,7-1.7,10.6v11.3c0,0.3,0.2,0.5,0.5,0.5
		c0.3,0,0.5-0.2,0.5-0.5V53.4c0-3.5,0.6-7,1.6-10.3C22.2,42.8,22.1,42.5,21.8,42.4z"/>
	<path class="st1" d="M19.9,66.8c-0.3,0-0.5,0.2-0.5,0.5v23.9c0,1.6,0.1,3.1,0.3,4.7c0,0.3,0.3,0.5,0.5,0.5c0,0,0,0,0.1,0
		c0.3,0,0.5-0.3,0.5-0.6c-0.2-1.5-0.3-3-0.3-4.5V67.3C20.5,67,20.2,66.8,19.9,66.8z"/>
	<path class="st1" d="M54.4,119.1h1.4c0.4,0,0.8,0,1.3,0c0.3,0,0.5-0.3,0.5-0.5c0-0.3-0.3-0.5-0.5-0.5c-0.4,0-0.8,0-1.2,0h-1.4
		c-5.9,0-11.6-1.9-16.3-5.5c-0.2-0.2-0.6-0.1-0.7,0.1c-0.2,0.2-0.1,0.6,0.1,0.7c2.4,1.8,5,3.2,7.8,4.2
		C48.3,118.6,51.3,119.1,54.4,119.1z"/>
	<path class="st1" d="M79.8,105.4c0.1-0.2,0.1-0.6-0.2-0.7c-0.2-0.1-0.6-0.1-0.7,0.2c-1.9,3.2-4.5,6-7.5,8.2
		c-0.5-0.6-1.3-0.9-2.1-0.9c-1.6,0-2.9,1.3-2.9,2.8c0,1.6,1.3,2.8,2.9,2.8c1.6,0,2.9-1.3,2.9-2.8c0-0.4-0.1-0.7-0.2-1.1
		C75.1,111.7,77.9,108.7,79.8,105.4z M69.3,116.8c-1,0-1.8-0.8-1.8-1.8s0.8-1.8,1.8-1.8c1,0,1.8,0.8,1.8,1.8S70.3,116.8,69.3,116.8z
		"/>
	<path class="st1" d="M81.2,101.6c0.1,0,0.1,0,0.2,0c0.2,0,0.4-0.1,0.5-0.3c0.5-1.2,0.9-2.5,1.2-3.8c0.1-0.3-0.1-0.6-0.4-0.6
		c-0.3-0.1-0.6,0.1-0.6,0.4c-0.3,1.2-0.7,2.4-1.1,3.6C80.8,101.2,80.9,101.5,81.2,101.6z"/>
	<path class="st1" d="M82.7,54c0,0.3,0.2,0.5,0.5,0.5c0.3,0,0.5-0.2,0.5-0.5c0-0.4,0-0.7,0-1.1c-0.2-6.1-2.4-11.8-6.2-16.5
		c-0.2-0.2-0.5-0.3-0.7-0.1c-0.2,0.2-0.3,0.5-0.1,0.7c3.7,4.6,5.8,10.1,6,15.9C82.7,53.3,82.7,53.7,82.7,54z"/>
	<path class="st1" d="M27.3,50.2C27.3,50.2,27.3,50.2,27.3,50.2c0.3,0,0.6-0.2,0.6-0.4c0.8-4.7,2.8-9.2,5.9-13
		c3.1-3.7,7.1-6.5,11.6-8.1c0.3-0.1,0.4-0.4,0.3-0.7c-0.1-0.3-0.4-0.4-0.7-0.3c-4.7,1.7-8.8,4.6-12,8.4c-3.2,3.9-5.4,8.5-6.2,13.5
		C26.8,49.9,27,50.2,27.3,50.2z"/>
	<path class="st1" d="M26.5,54v16.6c-1.3,0.2-2.4,1.4-2.4,2.8c0,1.6,1.3,2.8,2.9,2.8s2.9-1.3,2.9-2.8c0-1.4-1-2.5-2.4-2.8V54
		c0-0.3-0.2-0.5-0.5-0.5C26.7,53.5,26.5,53.7,26.5,54z M28.8,73.5c0,1-0.8,1.8-1.8,1.8c-1,0-1.8-0.8-1.8-1.8c0-1,0.8-1.8,1.8-1.8
		C28,71.7,28.8,72.5,28.8,73.5z"/>
	<path class="st1" d="M76.3,97.7c0.1-0.3-0.1-0.6-0.4-0.7c-0.3-0.1-0.6,0.1-0.7,0.4c-1.2,3.9-3.6,7.4-6.9,9.9
		c-3.4,2.6-7.4,3.9-11.6,3.9h-2.4c-3,0-6-0.7-8.7-2.1c-2.6-1.3-4.9-3.2-6.7-5.5c-0.2-0.2-0.5-0.3-0.7-0.1c-0.2,0.2-0.3,0.5-0.1,0.7
		c1.9,2.4,4.3,4.5,7,5.8c2.9,1.5,5.9,2.2,9.2,2.2h2.4c4.5,0,8.7-1.4,12.3-4.1C72.5,105.5,75.1,101.8,76.3,97.7z"/>
	<path class="st1" d="M75.2,47.8c0.1,0.3,0.4,0.4,0.7,0.3c0.3-0.1,0.4-0.4,0.3-0.7c-1.3-4-3.9-7.6-7.3-10.1c-3.5-2.6-7.7-4-12.1-4
		h-2.4c-4.4,0-8.6,1.4-12.1,4c-3.4,2.5-6,6.2-7.3,10.2c-0.1,0.3,0.1,0.6,0.3,0.7c0.1,0,0.1,0,0.2,0c0.2,0,0.4-0.1,0.5-0.4
		c1.2-3.8,3.7-7.2,6.9-9.7c3.4-2.5,7.3-3.8,11.5-3.8h2.4c4.1,0,8.1,1.3,11.4,3.8C71.5,40.7,73.9,44.1,75.2,47.8z"/>
	<path class="st1" d="M36.6,5.9c1.6,0,2.9-1.3,2.9-2.8c0-0.1,0-0.2,0-0.2c4.4-1.2,9-1.8,13.6-1.8h1.7c2.3,0,4.7,0.2,7,0.5
		c0.3,0,0.6-0.2,0.6-0.5c0-0.3-0.2-0.6-0.5-0.6C59.5,0.2,57.1,0,54.8,0H53c-4.7,0-9.3,0.6-13.8,1.8c-0.5-0.9-1.4-1.6-2.6-1.6
		c-1.6,0-2.9,1.3-2.9,2.8C33.7,4.7,35,5.9,36.6,5.9z M36.6,1.3c1,0,1.8,0.8,1.8,1.8s-0.8,1.8-1.8,1.8c-1,0-1.8-0.8-1.8-1.8
		S35.6,1.3,36.6,1.3z"/>
	<path class="st1" d="M10.6,56.4c0,1.6,1.3,2.8,2.9,2.8s2.9-1.3,2.9-2.8c0-1.4-1-2.6-2.4-2.8c0,0,0-0.1,0-0.1
		c0.1-7.7,2.4-15.1,6.7-21.6c4.1-6.3,9.9-11.2,16.7-14.4c0.3-0.1,0.4-0.4,0.3-0.7c-0.1-0.3-0.4-0.4-0.7-0.3
		c-7,3.2-12.9,8.4-17.1,14.8c-4.4,6.6-6.7,14.2-6.9,22.1c0,0,0,0.1,0,0.1C11.7,53.8,10.6,55,10.6,56.4z M13.5,54.6
		c1,0,1.8,0.8,1.8,1.8c0,1-0.8,1.8-1.8,1.8s-1.8-0.8-1.8-1.8C11.7,55.4,12.5,54.6,13.5,54.6z"/>
	<path class="st1" d="M37.4,63.2c0-1.6-1.3-2.8-2.9-2.8c-1.6,0-2.9,1.3-2.9,2.8c0,1.4,1,2.5,2.4,2.8v25.9c0,2.9,0.6,5.7,1.8,8.4
		c0.1,0.2,0.3,0.3,0.5,0.3c0.1,0,0.1,0,0.2,0c0.3-0.1,0.4-0.4,0.3-0.7c-1.1-2.5-1.7-5.2-1.7-7.9V66C36.4,65.8,37.4,64.6,37.4,63.2z
		 M32.7,63.2c0-1,0.8-1.8,1.8-1.8s1.8,0.8,1.8,1.8c0,1-0.8,1.8-1.8,1.8S32.7,64.2,32.7,63.2z"/>
	<path class="st1" d="M27,96.5c0.6,2.8,1.5,5.5,2.9,8.1c1.4,2.6,3.2,4.9,5.3,6.9c0.1,0.1,0.2,0.1,0.4,0.1c0.1,0,0.3-0.1,0.4-0.2
		c0.2-0.2,0.2-0.5,0-0.7c-2-1.9-3.8-4.2-5.1-6.6c-1.3-2.4-2.3-5-2.8-7.7c1.1-0.4,1.9-1.4,1.9-2.7c0-1.6-1.3-2.8-2.9-2.8
		s-2.9,1.3-2.9,2.8C24.1,95.2,25.4,96.5,27,96.5z M27,91.9c1,0,1.8,0.8,1.8,1.8c0,1-0.8,1.8-1.8,1.8c-1,0-1.8-0.8-1.8-1.8
		C25.2,92.7,26,91.9,27,91.9z"/>
	<path class="st1" d="M40.1,131.3c1,0,2-0.6,2.5-1.4c3.8,1.1,7.8,1.7,11.8,1.7h0.4c4.8,0,9.5-0.8,13.9-2.4c0.3-0.1,0.4-0.4,0.3-0.7
		c-0.1-0.3-0.4-0.4-0.7-0.3c-4.4,1.6-8.9,2.4-13.6,2.4h-0.4c-3.9,0-7.7-0.6-11.4-1.7c0-0.2,0-0.3,0-0.5c0-1.6-1.3-2.8-2.9-2.8
		s-2.9,1.3-2.9,2.8C37.2,130,38.5,131.3,40.1,131.3z M40.1,126.6c1,0,1.8,0.8,1.8,1.8s-0.8,1.8-1.8,1.8s-1.8-0.8-1.8-1.8
		S39.1,126.6,40.1,126.6z"/>
	<path class="st1" d="M53.9,3.9c-1.4,0-2.6,1-2.8,2.3c-5.3,0.3-10.4,1.5-15.3,3.5c-0.3,0.1-0.4,0.4-0.3,0.7c0.1,0.2,0.3,0.3,0.5,0.3
		c0.1,0,0.1,0,0.2,0c4.7-1.9,9.7-3.1,14.9-3.4c0.3,1.3,1.4,2.3,2.8,2.3c1.6,0,2.9-1.3,2.9-2.8C56.7,5.2,55.4,3.9,53.9,3.9z
		 M53.9,8.6c-1,0-1.8-0.8-1.8-1.8c0-1,0.8-1.8,1.8-1.8s1.8,0.8,1.8,1.8C55.7,7.8,54.9,8.6,53.9,8.6z"/>
	<path class="st1" d="M77.6,11.2c0-1.6-1.3-2.8-2.9-2.8s-2.9,1.3-2.9,2.8s1.3,2.8,2.9,2.8c0.8,0,1.5-0.3,2-0.8
		c3.6,2,6.9,4.5,9.9,7.4c0.1,0.1,0.2,0.2,0.4,0.2c0.1,0,0.3-0.1,0.4-0.2c0.2-0.2,0.2-0.5,0-0.7c-3-2.9-6.4-5.5-10-7.5
		C77.5,12,77.6,11.7,77.6,11.2z M74.8,13c-1,0-1.8-0.8-1.8-1.8s0.8-1.8,1.8-1.8c1,0,1.8,0.8,1.8,1.8S75.8,13,74.8,13z"/>
	<path class="st1" d="M80.4,19.4c-0.8,0-1.5,0.3-2,0.8c-7-4.9-15.1-7.5-23.6-7.5h-0.4c-3.5,0-6.9,0.4-10.2,1.3
		c-0.3,0.1-0.5,0.4-0.4,0.6c0.1,0.3,0.4,0.5,0.6,0.4c3.2-0.8,6.6-1.3,10-1.3h0.4c8.3,0,16.2,2.5,23,7.3c-0.2,0.4-0.3,0.8-0.3,1.2
		c0,1.6,1.3,2.8,2.9,2.8c1.6,0,2.9-1.3,2.9-2.8S82,19.4,80.4,19.4z M80.4,24.1c-1,0-1.8-0.8-1.8-1.8c0-1,0.8-1.8,1.8-1.8
		c1,0,1.8,0.8,1.8,1.8C82.2,23.3,81.4,24.1,80.4,24.1z"/>
	<path class="st1" d="M64.6,30.7c1.6,0,2.9-1.3,2.9-2.8c0-1.6-1.3-2.8-2.9-2.8c-1.2,0-2.2,0.7-2.7,1.7c-2-0.5-4.1-0.7-6.1-0.7h-1.4
		c-1.7,0-3.4,0.2-5.1,0.5c-0.3,0.1-0.5,0.3-0.4,0.6c0.1,0.3,0.3,0.5,0.6,0.4c1.6-0.3,3.3-0.5,4.9-0.5h1.4c2,0,4,0.2,5.9,0.7
		c0,0,0,0.1,0,0.1C61.7,29.4,63,30.7,64.6,30.7z M64.6,26.1c1,0,1.8,0.8,1.8,1.8c0,1-0.8,1.8-1.8,1.8c-1,0-1.8-0.8-1.8-1.8
		c0-0.1,0-0.2,0-0.3c0,0,0,0,0,0c0,0,0,0,0,0C63,26.7,63.7,26.1,64.6,26.1z"/>
	<path class="st1" d="M89.8,35.8c0.3,0,0.5,0,0.8-0.1c2.8,5.4,4.3,11.3,4.5,17.4c0,0.3,0,0.7,0,1c0,0.3,0.2,0.5,0.5,0.5
		c0.3,0,0.5-0.2,0.5-0.5c0-0.4,0-0.7,0-1.1c-0.2-6.3-1.7-12.3-4.6-17.8c0.7-0.5,1.2-1.3,1.2-2.3c0-1.6-1.3-2.8-2.9-2.8
		c-1.6,0-2.9,1.3-2.9,2.8S88.2,35.8,89.8,35.8z M89.8,31.1c1,0,1.8,0.8,1.8,1.8c0,1-0.8,1.8-1.8,1.8c-1,0-1.8-0.8-1.8-1.8
		C88,31.9,88.8,31.1,89.8,31.1z"/>
	<path class="st1" d="M95.6,22c0.3,0,0.5,0,0.7-0.1c3.3,4.4,5.9,9.2,7.6,14.4c0.1,0.2,0.3,0.4,0.5,0.4c0.1,0,0.1,0,0.2,0
		c0.3-0.1,0.4-0.4,0.3-0.7c-1.8-5.2-4.4-10.1-7.7-14.5c0.7-0.5,1.2-1.3,1.2-2.3c0-1.6-1.3-2.8-2.9-2.8c-1.6,0-2.9,1.3-2.9,2.8
		C92.7,20.7,94,22,95.6,22z M95.6,17.4c1,0,1.8,0.8,1.8,1.8c0,1-0.8,1.8-1.8,1.8c-1,0-1.8-0.8-1.8-1.8
		C93.8,18.2,94.6,17.4,95.6,17.4z"/>
	<path class="st1" d="M106.6,97c-0.3,0-0.5,0.2-0.6,0.5c-0.3,3.5-1.1,6.9-2.4,10.3c-0.1,0.3,0,0.6,0.3,0.7c0.1,0,0.2,0,0.3,0
		c0.2,0,0.3-0.2,0.4-0.3c1.3-3.4,2.1-6.9,2.4-10.5C107.1,97.3,106.9,97.1,106.6,97z"/>
	<path class="st1" d="M50.9,84.8c0.3-0.3,0.6-0.6,0.9-0.8c0.4-0.2,0.8-0.3,1.2-0.3c0.4,0,0.7,0,1,0.1c0.3,0.1,0.5,0.2,0.7,0.3
		c0.2,0.1,0.4,0.2,0.5,0.3c0.1,0.1,0.2,0.1,0.3,0.1c0,0,0.1,0,0.1,0c0,0,0,0,0.1-0.1c0,0,0-0.1,0-0.1c0,0,0-0.1,0-0.2
		c0-0.1,0-0.1,0-0.2c0,0,0-0.1,0-0.1c0,0,0-0.1,0-0.1c0,0-0.1-0.1-0.1-0.1c-0.1-0.1-0.2-0.1-0.4-0.3c-0.2-0.1-0.4-0.2-0.6-0.3
		c-0.2-0.1-0.5-0.1-0.7-0.2C53.6,83,53.3,83,53,83c-0.6,0-1.1,0.1-1.6,0.3c-0.5,0.2-0.9,0.5-1.2,1c-0.3,0.4-0.6,0.9-0.8,1.5
		c-0.2,0.6-0.3,1.3-0.3,2c0,0.7,0.1,1.4,0.3,2c0.2,0.6,0.4,1,0.8,1.4c0.3,0.4,0.7,0.7,1.2,0.9c0.5,0.2,1,0.3,1.6,0.3
		c0.4,0,0.7,0,1-0.1c0.3-0.1,0.6-0.2,0.8-0.3c0.2-0.1,0.4-0.2,0.6-0.3c0.2-0.1,0.3-0.2,0.3-0.2c0,0,0.1-0.1,0.1-0.1c0,0,0-0.1,0-0.1
		c0,0,0-0.1,0-0.1c0,0,0-0.1,0-0.1c0-0.1,0-0.1,0-0.2c0-0.1,0-0.1,0-0.1c0,0,0-0.1,0-0.1c0,0,0,0-0.1,0c-0.1,0-0.2,0-0.3,0.1
		c-0.1,0.1-0.3,0.2-0.5,0.3c-0.2,0.1-0.5,0.2-0.7,0.3c-0.3,0.1-0.6,0.1-1,0.1c-0.5,0-0.9-0.1-1.3-0.3c-0.4-0.2-0.7-0.4-0.9-0.7
		c-0.3-0.3-0.4-0.7-0.6-1.2c-0.1-0.5-0.2-1-0.2-1.6c0-0.6,0.1-1.2,0.2-1.7C50.4,85.5,50.6,85.1,50.9,84.8z"/>
	<path class="st1" d="M58.1,91.1c0.3,0.4,0.7,0.7,1.2,0.9c0.5,0.2,1.1,0.3,1.8,0.3c0.7,0,1.3-0.1,1.8-0.3c0.5-0.2,0.9-0.6,1.3-1
		c0.3-0.4,0.6-0.9,0.8-1.5c0.2-0.6,0.3-1.3,0.3-2c0-0.7-0.1-1.4-0.2-1.9c-0.2-0.6-0.4-1.1-0.7-1.5c-0.3-0.4-0.7-0.7-1.2-0.9
		c-0.5-0.2-1.1-0.3-1.7-0.3c-0.7,0-1.3,0.1-1.8,0.3c-0.5,0.2-0.9,0.5-1.3,1c-0.3,0.4-0.6,0.9-0.8,1.5c-0.2,0.6-0.2,1.2-0.2,2
		c0,0.7,0.1,1.4,0.2,2C57.6,90.3,57.8,90.7,58.1,91.1z M58.3,86.1c0.1-0.5,0.3-0.9,0.5-1.2c0.2-0.4,0.6-0.6,1-0.9
		c0.4-0.2,0.9-0.3,1.4-0.3c0.6,0,1.1,0.1,1.4,0.3c0.4,0.2,0.7,0.5,0.9,0.8c0.2,0.4,0.4,0.8,0.5,1.2c0.1,0.5,0.2,1,0.2,1.5
		c0,0.5-0.1,1-0.2,1.5c-0.1,0.5-0.3,0.9-0.5,1.3c-0.2,0.4-0.6,0.7-1,0.9c-0.4,0.2-0.9,0.3-1.5,0.3c-0.6,0-1.1-0.1-1.5-0.3
		c-0.4-0.2-0.7-0.5-0.9-0.8c-0.2-0.4-0.4-0.8-0.5-1.3c-0.1-0.5-0.1-1-0.1-1.6C58.1,87.1,58.2,86.6,58.3,86.1z"/>
	<path class="st1" d="M69.1,84.9c0.2,0.3,0.3,0.6,0.5,0.9l3.2,5.8c0.1,0.2,0.2,0.3,0.2,0.4c0.1,0.1,0.1,0.2,0.2,0.2
		c0.1,0.1,0.1,0.1,0.2,0.1c0.1,0,0.2,0,0.3,0H74c0,0,0.1,0,0.1,0c0,0,0.1,0,0.1-0.1c0,0,0.1-0.1,0.1-0.1c0-0.1,0-0.1,0-0.2v-8.6
		c0,0,0-0.1,0-0.1c0,0,0,0-0.1-0.1c0,0-0.1,0-0.1,0c-0.1,0-0.1,0-0.2,0c-0.1,0-0.2,0-0.2,0c-0.1,0-0.1,0-0.1,0c0,0-0.1,0-0.1,0.1
		c0,0,0,0,0,0.1v5.4c0,0.4,0,0.8,0,1.2c0,0.4,0,0.8,0,1.2h0c-0.1-0.2-0.3-0.5-0.4-0.7c-0.1-0.2-0.3-0.5-0.4-0.7
		c-0.1-0.2-0.3-0.5-0.4-0.7c-0.1-0.3-0.3-0.5-0.4-0.8l-2.5-4.4c-0.1-0.1-0.1-0.2-0.2-0.3c-0.1-0.1-0.1-0.1-0.2-0.2
		c-0.1,0-0.1-0.1-0.2-0.1c-0.1,0-0.2,0-0.3,0h-0.4c-0.1,0-0.2,0-0.3,0.1c-0.1,0.1-0.1,0.2-0.1,0.4v8.6c0,0,0,0.1,0,0.1
		c0,0,0,0,0.1,0.1c0,0,0.1,0,0.1,0c0.1,0,0.1,0,0.2,0c0.1,0,0.2,0,0.2,0c0.1,0,0.1,0,0.1,0c0,0,0.1,0,0.1-0.1c0,0,0,0,0-0.1v-6
		c0-0.3,0-0.7,0-1.1c0-0.4,0-0.7,0-1.1h0C68.8,84.3,68.9,84.6,69.1,84.9z"/>
	<path class="st1" d="M81.9,88C81.9,88,81.9,88,81.9,88c0.1-0.1,0.1-0.1,0.1-0.2c0,0,0-0.1,0-0.2c0-0.1,0-0.1,0-0.2c0,0,0-0.1,0-0.1
		c0,0,0,0-0.1-0.1c0,0-0.1,0-0.1,0h-3.4v-3.5h3.6c0,0,0.1,0,0.1,0c0,0,0.1,0,0.1-0.1c0,0,0-0.1,0-0.1c0,0,0-0.1,0-0.2
		c0-0.1,0-0.1,0-0.2c0,0,0-0.1,0-0.1c0,0,0-0.1-0.1-0.1c0,0-0.1,0-0.1,0h-4c-0.1,0-0.2,0-0.3,0.1c-0.1,0.1-0.1,0.2-0.1,0.4v8.6
		c0,0,0,0.1,0,0.1c0,0,0,0,0.1,0.1c0,0,0.1,0,0.1,0c0.1,0,0.1,0,0.2,0c0.1,0,0.2,0,0.2,0c0.1,0,0.1,0,0.1,0c0,0,0.1,0,0.1-0.1
		c0,0,0,0,0-0.1v-4.1L81.9,88C81.8,88.1,81.8,88.1,81.9,88z"/>
	<path class="st1" d="M89.3,83.8C89.3,83.8,89.4,83.8,89.3,83.8c0.1,0,0.1-0.1,0.2-0.1c0,0,0-0.1,0-0.1c0,0,0-0.1,0-0.2
		c0-0.1,0-0.1,0-0.2c0,0,0-0.1,0-0.1c0,0,0-0.1-0.1-0.1c0,0-0.1,0-0.1,0h-4.3c-0.1,0-0.2,0-0.3,0.1c-0.1,0.1-0.1,0.2-0.1,0.4v8.3
		c0,0.2,0,0.3,0.1,0.4c0.1,0.1,0.2,0.1,0.3,0.1h4.3c0,0,0.1,0,0.1,0c0,0,0.1,0,0.1-0.1c0,0,0-0.1,0-0.1c0,0,0-0.1,0-0.2
		c0-0.1,0-0.1,0-0.2c0,0,0-0.1,0-0.1c0,0,0-0.1-0.1-0.1c0,0-0.1,0-0.1,0h-3.8v-3.7h3.3c0,0,0.1,0,0.1,0c0,0,0.1,0,0.1-0.1
		c0,0,0-0.1,0-0.1c0,0,0-0.1,0-0.2c0-0.1,0-0.1,0-0.2c0,0,0-0.1,0-0.1c0,0,0-0.1-0.1-0.1c0,0-0.1,0-0.1,0h-3.3v-3.2H89.3z"/>
	<path class="st1" d="M96.9,86.9c0.2-0.2,0.3-0.4,0.4-0.6c0.1-0.2,0.1-0.5,0.1-0.8c0-0.3,0-0.6-0.1-0.8c-0.1-0.3-0.2-0.5-0.4-0.7
		c-0.2-0.2-0.4-0.4-0.6-0.5c-0.3-0.1-0.6-0.2-0.9-0.3c-0.1,0-0.3,0-0.4,0c-0.1,0-0.3,0-0.6,0h-1.7c-0.1,0-0.2,0-0.3,0.1
		c-0.1,0.1-0.1,0.2-0.1,0.4v8.6c0,0,0,0.1,0,0.1c0,0,0,0,0.1,0.1c0,0,0.1,0,0.1,0c0.1,0,0.1,0,0.2,0c0.1,0,0.2,0,0.2,0
		c0.1,0,0.1,0,0.1,0c0,0,0.1,0,0.1-0.1c0,0,0,0,0-0.1V88h1c0.3,0,0.6,0,0.8,0.1c0.2,0.1,0.4,0.2,0.6,0.4c0.2,0.2,0.3,0.4,0.4,0.6
		c0.1,0.2,0.2,0.5,0.3,0.7l0.9,2.2c0,0.1,0,0.1,0.1,0.1c0,0,0.1,0.1,0.1,0.1c0,0,0.1,0,0.1,0c0.1,0,0.1,0,0.2,0c0.1,0,0.2,0,0.2,0
		c0.1,0,0.1,0,0.1,0c0,0,0.1,0,0.1-0.1c0,0,0-0.1,0-0.1c0,0,0-0.1,0-0.1c0-0.1-0.1-0.2-0.1-0.3L97,89.5c-0.1-0.2-0.2-0.5-0.3-0.6
		c-0.1-0.2-0.2-0.4-0.3-0.5c-0.1-0.1-0.2-0.3-0.3-0.4c-0.1-0.1-0.3-0.2-0.4-0.3c0.3-0.1,0.5-0.2,0.7-0.3
		C96.6,87.2,96.8,87.1,96.9,86.9z M96,86.7c-0.2,0.2-0.4,0.3-0.6,0.4c-0.3,0.1-0.6,0.1-0.9,0.1h-1.3v-3.4h1.1c0.3,0,0.5,0,0.6,0
		c0.2,0,0.3,0,0.4,0.1c0.4,0.1,0.7,0.3,0.9,0.6c0.2,0.3,0.3,0.6,0.3,1c0,0.2,0,0.5-0.1,0.7C96.3,86.4,96.1,86.6,96,86.7z"/>
	<path class="st1" d="M105.1,83.8C105.1,83.8,105.1,83.8,105.1,83.8c0.1,0,0.1-0.1,0.2-0.1c0,0,0-0.1,0-0.1c0,0,0-0.1,0-0.2
		c0-0.1,0-0.1,0-0.2c0,0,0-0.1,0-0.1c0,0,0-0.1-0.1-0.1c0,0-0.1,0-0.1,0h-4.3c-0.1,0-0.2,0-0.3,0.1c-0.1,0.1-0.1,0.2-0.1,0.4v8.3
		c0,0.2,0,0.3,0.1,0.4c0.1,0.1,0.2,0.1,0.3,0.1h4.3c0,0,0.1,0,0.1,0c0,0,0.1,0,0.1-0.1c0,0,0-0.1,0-0.1c0,0,0-0.1,0-0.2
		c0-0.1,0-0.1,0-0.2c0,0,0-0.1,0-0.1c0,0,0-0.1-0.1-0.1c0,0-0.1,0-0.1,0h-3.8v-3.7h3.3c0,0,0.1,0,0.1,0c0,0,0.1,0,0.1-0.1
		c0,0,0-0.1,0-0.1c0,0,0-0.1,0-0.2c0-0.1,0-0.1,0-0.2c0,0,0-0.1,0-0.1c0,0,0-0.1-0.1-0.1c0,0-0.1,0-0.1,0h-3.3v-3.2H105.1z"/>
	<path class="st1" d="M114.5,83.1c0,0-0.1,0-0.1,0c-0.1,0-0.1,0-0.2,0c-0.1,0-0.2,0-0.2,0c-0.1,0-0.1,0-0.1,0c0,0-0.1,0-0.1,0.1
		c0,0,0,0,0,0.1v5.4c0,0.4,0,0.8,0,1.2c0,0.4,0,0.8,0,1.2h0c-0.1-0.2-0.3-0.5-0.4-0.7c-0.1-0.2-0.3-0.5-0.4-0.7
		c-0.1-0.2-0.3-0.5-0.4-0.7c-0.1-0.3-0.3-0.5-0.4-0.8l-2.5-4.4c-0.1-0.1-0.1-0.2-0.2-0.3c-0.1-0.1-0.1-0.1-0.2-0.2
		c-0.1,0-0.1-0.1-0.2-0.1c-0.1,0-0.2,0-0.3,0h-0.4c-0.1,0-0.2,0-0.3,0.1c-0.1,0.1-0.1,0.2-0.1,0.4v8.6c0,0,0,0.1,0,0.1
		c0,0,0,0,0.1,0.1c0,0,0.1,0,0.1,0c0.1,0,0.1,0,0.2,0c0.1,0,0.2,0,0.2,0c0.1,0,0.1,0,0.1,0c0,0,0.1,0,0.1-0.1c0,0,0,0,0-0.1v-6
		c0-0.3,0-0.7,0-1.1c0-0.4,0-0.7,0-1.1h0c0.1,0.3,0.3,0.6,0.5,0.9c0.2,0.3,0.3,0.6,0.5,0.9l3.2,5.8c0.1,0.2,0.2,0.3,0.2,0.4
		c0.1,0.1,0.1,0.2,0.2,0.2c0.1,0.1,0.1,0.1,0.2,0.1c0.1,0,0.2,0,0.3,0h0.2c0,0,0.1,0,0.1,0c0,0,0.1,0,0.1-0.1c0,0,0.1-0.1,0.1-0.1
		c0-0.1,0-0.1,0-0.2v-8.6C114.6,83.2,114.6,83.2,114.5,83.1C114.6,83.1,114.6,83.1,114.5,83.1z"/>
	<path class="st1" d="M123.7,90.7C123.7,90.7,123.7,90.7,123.7,90.7c-0.1-0.1-0.1-0.1-0.1-0.1c-0.1,0-0.2,0-0.3,0.1
		c-0.1,0.1-0.3,0.2-0.5,0.3c-0.2,0.1-0.4,0.2-0.7,0.3c-0.3,0.1-0.6,0.1-1,0.1c-0.5,0-0.9-0.1-1.3-0.3c-0.4-0.2-0.7-0.4-0.9-0.7
		c-0.3-0.3-0.4-0.7-0.6-1.2c-0.1-0.5-0.2-1-0.2-1.6c0-0.6,0.1-1.2,0.2-1.7c0.1-0.5,0.3-0.9,0.6-1.2c0.3-0.3,0.6-0.6,0.9-0.8
		c0.4-0.2,0.8-0.3,1.2-0.3c0.4,0,0.7,0,1,0.1c0.3,0.1,0.5,0.2,0.7,0.3c0.2,0.1,0.4,0.2,0.5,0.3c0.1,0.1,0.2,0.1,0.3,0.1
		c0,0,0.1,0,0.1,0c0,0,0,0,0.1-0.1c0,0,0-0.1,0-0.1c0,0,0-0.1,0-0.2c0-0.1,0-0.1,0-0.2c0,0,0-0.1,0-0.1c0,0,0-0.1,0-0.1
		c0,0-0.1-0.1-0.1-0.1c-0.1-0.1-0.2-0.1-0.4-0.3c-0.2-0.1-0.4-0.2-0.6-0.3c-0.2-0.1-0.5-0.1-0.7-0.2c-0.3-0.1-0.5-0.1-0.8-0.1
		c-0.6,0-1.1,0.1-1.6,0.3c-0.5,0.2-0.9,0.5-1.2,1c-0.3,0.4-0.6,0.9-0.8,1.5c-0.2,0.6-0.3,1.3-0.3,2c0,0.7,0.1,1.4,0.3,2
		c0.2,0.6,0.4,1,0.8,1.4c0.3,0.4,0.7,0.7,1.2,0.9c0.5,0.2,1,0.3,1.6,0.3c0.4,0,0.7,0,1-0.1c0.3-0.1,0.6-0.2,0.8-0.3
		c0.2-0.1,0.4-0.2,0.6-0.3c0.2-0.1,0.3-0.2,0.3-0.2c0,0,0.1-0.1,0.1-0.1c0,0,0-0.1,0-0.1c0,0,0-0.1,0-0.1c0,0,0-0.1,0-0.1
		c0-0.1,0-0.1,0-0.2C123.8,90.8,123.8,90.7,123.7,90.7z"/>
	<path class="st1" d="M130.9,91.6C130.9,91.6,130.8,91.5,130.9,91.6c-0.1-0.1-0.1-0.1-0.2-0.1h-3.8v-3.7h3.3c0,0,0.1,0,0.1,0
		c0,0,0.1,0,0.1-0.1c0,0,0-0.1,0-0.1c0,0,0-0.1,0-0.2c0-0.1,0-0.1,0-0.2c0,0,0-0.1,0-0.1c0,0,0-0.1-0.1-0.1c0,0-0.1,0-0.1,0h-3.3
		v-3.2h3.8c0,0,0.1,0,0.1,0c0,0,0.1,0,0.1-0.1c0,0,0-0.1,0-0.1c0,0,0-0.1,0-0.2c0-0.1,0-0.1,0-0.2c0,0,0-0.1,0-0.1
		c0,0,0-0.1-0.1-0.1c0,0-0.1,0-0.1,0h-4.3c-0.1,0-0.2,0-0.3,0.1c-0.1,0.1-0.1,0.2-0.1,0.4v8.3c0,0.2,0,0.3,0.1,0.4
		c0.1,0.1,0.2,0.1,0.3,0.1h4.3c0,0,0.1,0,0.1,0c0,0,0.1,0,0.1-0.1c0,0,0-0.1,0-0.1c0,0,0-0.1,0-0.2c0-0.1,0-0.1,0-0.2
		C130.9,91.7,130.9,91.6,130.9,91.6z"/>
	<path class="st1" d="M61.2,79.5c1.3-0.6,2.4-1.4,3.3-2.5l-1.6-1.8c-0.2-0.2-0.4-0.3-0.6-0.3c-0.1,0-0.2,0-0.4,0.1
		c-0.1,0.1-0.2,0.1-0.3,0.2c-0.3,0.3-0.7,0.6-1,0.8c-0.3,0.2-0.7,0.4-1.1,0.5c-0.4,0.1-0.8,0.2-1.3,0.3c-0.5,0.1-1,0.1-1.5,0.1
		c-0.9,0-1.8-0.2-2.7-0.5c-0.8-0.4-1.5-0.9-2.1-1.5c-0.6-0.7-1.1-1.5-1.4-2.4c-0.4-1-0.5-2.1-0.5-3.3c0-1.2,0.2-2.3,0.5-3.3
		c0.3-1,0.8-1.8,1.4-2.4c0.6-0.7,1.3-1.2,2.1-1.5c0.8-0.4,1.7-0.5,2.7-0.5c0.6,0,1.1,0,1.6,0.1c0.4,0.1,0.8,0.2,1.2,0.3
		c0.3,0.1,0.6,0.3,0.9,0.4c0.3,0.2,0.5,0.3,0.7,0.4c0.2,0.1,0.4,0.2,0.5,0.3c0.2,0.1,0.3,0.1,0.5,0.1c0.2,0,0.4,0,0.5-0.1
		c0.1-0.1,0.2-0.2,0.3-0.3l1.4-1.9c-0.9-0.9-2-1.5-3.2-2.1c-1.3-0.5-2.7-0.8-4.3-0.8c-1.6,0-3.1,0.3-4.5,0.8
		c-1.3,0.6-2.5,1.3-3.5,2.3c-1,1-1.7,2.2-2.3,3.6c-0.5,1.4-0.8,2.9-0.8,4.6c0,1.6,0.2,3.1,0.7,4.5c0.5,1.4,1.2,2.6,2.2,3.6
		c0.9,1,2.1,1.8,3.4,2.3c1.3,0.6,2.8,0.8,4.5,0.8C58.3,80.4,59.8,80.1,61.2,79.5z"/>
	<path class="st1" d="M87.4,73.6c0.5-1.4,0.8-2.9,0.8-4.5c0-1.1-0.1-2.1-0.4-3.1c-0.2-1-0.6-1.9-1.1-2.7c-0.5-0.8-1-1.6-1.7-2.3
		c-0.7-0.7-1.4-1.3-2.2-1.7c-0.8-0.5-1.7-0.8-2.7-1.1c-1-0.3-2.1-0.4-3.2-0.4c-1.7,0-3.2,0.3-4.6,0.8c-1.4,0.6-2.6,1.4-3.6,2.4
		c-1,1-1.8,2.2-2.3,3.6c-0.5,1.4-0.8,2.9-0.8,4.5c0,1.6,0.3,3.1,0.8,4.5c0.5,1.4,1.3,2.6,2.3,3.6c1,1,2.2,1.8,3.6,2.4
		c1.4,0.6,2.9,0.8,4.6,0.8c1.7,0,3.2-0.3,4.6-0.8c1.4-0.6,2.6-1.4,3.6-2.4C86.1,76.2,86.8,75,87.4,73.6z M83.4,72.4
		c-0.3,1-0.8,1.8-1.4,2.4c-0.6,0.7-1.3,1.2-2.2,1.5c-0.9,0.4-1.8,0.5-2.9,0.5c-1.1,0-2.1-0.2-2.9-0.5c-0.9-0.4-1.6-0.9-2.2-1.5
		c-0.6-0.7-1.1-1.5-1.4-2.4c-0.3-1-0.5-2-0.5-3.3c0-1.2,0.2-2.3,0.5-3.3c0.3-1,0.8-1.8,1.4-2.5c0.6-0.7,1.4-1.2,2.2-1.5
		c0.9-0.4,1.8-0.5,2.9-0.5c1.1,0,2.1,0.2,2.9,0.5c0.9,0.4,1.6,0.9,2.2,1.5c0.6,0.7,1.1,1.5,1.4,2.5c0.3,1,0.5,2,0.5,3.3
		C83.9,70.4,83.8,71.4,83.4,72.4z"/>
	<path class="st1" d="M110.6,80.2V58.1H107v13.4c0,0.3,0,0.6,0,1c0,0.3,0,0.7,0.1,1.1L95.4,58.8c-0.1-0.1-0.2-0.3-0.3-0.3
		c-0.1-0.1-0.2-0.2-0.3-0.2c-0.1,0-0.2-0.1-0.3-0.1c-0.1,0-0.3,0-0.5,0h-2.2v22.1h3.7V66.6c0-0.6,0-1.2-0.1-1.9L107,79.5
		c0.2,0.3,0.4,0.4,0.6,0.5c0.2,0.1,0.5,0.2,0.8,0.2H110.6z"/>
	<path class="st1" d="M130.8,71.5c0,0.3,0,0.6,0,1c0,0.3,0,0.7,0.1,1.1l-11.7-14.8c-0.1-0.1-0.2-0.3-0.3-0.3
		c-0.1-0.1-0.2-0.2-0.3-0.2c-0.1,0-0.2-0.1-0.3-0.1c-0.1,0-0.3,0-0.5,0h-2.2v22.1h3.7V66.6c0-0.6,0-1.2-0.1-1.9l11.7,14.7
		c0.2,0.3,0.4,0.4,0.6,0.5c0.2,0.1,0.5,0.2,0.8,0.2h2.1V58.1h-3.7V71.5z"/>
	<polygon class="st1" points="139.4,80.2 153.5,80.2 153.5,76.9 143.6,76.9 143.6,70.7 151.4,70.7 151.4,67.5 143.6,67.5 
		143.6,61.4 153.5,61.4 153.5,58.1 139.4,58.1 	"/>
	<path class="st1" d="M172,75c-0.1,0-0.2,0-0.4,0.1c-0.1,0.1-0.2,0.1-0.3,0.2c-0.3,0.3-0.7,0.6-1,0.8c-0.3,0.2-0.7,0.4-1.1,0.5
		c-0.4,0.1-0.8,0.2-1.3,0.3c-0.5,0.1-1,0.1-1.5,0.1c-0.9,0-1.8-0.2-2.7-0.5c-0.8-0.4-1.5-0.9-2.1-1.5c-0.6-0.7-1.1-1.5-1.4-2.4
		c-0.4-1-0.5-2.1-0.5-3.3c0-1.2,0.2-2.3,0.5-3.3c0.3-1,0.8-1.8,1.4-2.4c0.6-0.7,1.3-1.2,2.1-1.5c0.8-0.4,1.7-0.5,2.7-0.5
		c0.6,0,1.1,0,1.6,0.1c0.4,0.1,0.8,0.2,1.2,0.3c0.3,0.1,0.6,0.3,0.9,0.4c0.3,0.2,0.5,0.3,0.7,0.4c0.2,0.1,0.4,0.2,0.5,0.3
		c0.2,0.1,0.3,0.1,0.5,0.1c0.2,0,0.4,0,0.5-0.1c0.1-0.1,0.2-0.2,0.3-0.3l1.4-1.9c-0.9-0.9-2-1.5-3.2-2.1c-1.3-0.5-2.7-0.8-4.3-0.8
		c-1.6,0-3.1,0.3-4.5,0.8c-1.3,0.6-2.5,1.3-3.5,2.3c-1,1-1.7,2.2-2.3,3.6c-0.5,1.4-0.8,2.9-0.8,4.6c0,1.6,0.2,3.1,0.7,4.5
		c0.5,1.4,1.2,2.6,2.2,3.6c0.9,1,2.1,1.8,3.4,2.3c1.3,0.6,2.8,0.8,4.5,0.8c1.9,0,3.4-0.3,4.8-0.9c1.3-0.6,2.4-1.4,3.3-2.5l-1.6-1.8
		C172.4,75.1,172.2,75,172,75z"/>
	<polygon class="st1" points="175,61.5 181.8,61.5 181.8,80.2 185.9,80.2 185.9,61.5 192.7,61.5 192.7,58.1 175,58.1 	"/>
	<rect x="202.1" y="58.1" class="st1" width="4.2" height="22.1"/>
	<polygon class="st1" points="209.3,58.1 209.3,61.5 216,61.5 216,80.2 220.2,80.2 220.2,61.5 226.9,61.5 226.9,58.1 	"/>
</g>
</svg>
