<?xml version="1.0" encoding="utf-8"?>
<!-- Generator: Adobe Illustrator 22.0.1, SVG Export Plug-In . SVG Version: 6.00 Build 0)  -->
<svg version="1.1" id="ITMSA_Logotype" xmlns="http://www.w3.org/2000/svg" xmlns:xlink="http://www.w3.org/1999/xlink" x="0px"
	 y="0px" viewBox="0 0 527.4 94.7" style="enable-background:new 0 0 527.4 94.7;" xml:space="preserve">
<style type="text/css">
	.st0{fill:#FFFFFF;}
</style>
<g>
	<path class="st0" d="M2.3,0.4h5.4v24.3H2.3V0.4z"/>
	<path class="st0" d="M13.8,0.4h4.9l11.4,15v-15h5.3v24.3h-4.6L19.1,9.3v15.5h-5.3V0.4z"/>
	<path class="st0" d="M41.2,0.4h18.5v4.9H46.6v5.2h11.6v4.9H46.6v9.4h-5.4V0.4z"/>
	<path class="st0" d="M63,12.7L63,12.7C63,5.7,68.4,0,76,0s12.9,5.6,12.9,12.5v0.1c0,6.9-5.5,12.6-13,12.6
		C68.4,25.2,63,19.6,63,12.7z M83.3,12.7L83.3,12.7c0-4.2-3.1-7.7-7.4-7.7c-4.3,0-7.3,3.4-7.3,7.6v0.1c0,4.2,3.1,7.7,7.4,7.7
		C80.3,20.2,83.3,16.8,83.3,12.7z"/>
	<path class="st0" d="M93.6,0.4h11.1c3.1,0,5.5,0.9,7.1,2.5c1.4,1.4,2.1,3.3,2.1,5.6v0.1c0,3.9-2.1,6.4-5.2,7.5l5.9,8.7h-6.3
		l-5.2-7.8H99v7.8h-5.4V0.4z M104.4,12.2c2.6,0,4.1-1.4,4.1-3.4V8.7c0-2.3-1.6-3.5-4.2-3.5H99v7H104.4z"/>
	<path class="st0" d="M118.8,0.4h5.8l6.4,10.3l6.4-10.3h5.8v24.3h-5.3V8.9l-6.9,10.4h-0.1L124,9v15.8h-5.3V0.4z"/>
	<path class="st0" d="M157.3,0.2h4.9l10.4,24.5h-5.6l-2.2-5.5h-10.3l-2.2,5.5h-5.5L157.3,0.2z M162.9,14.6l-3.2-7.9l-3.2,7.9H162.9z
		"/>
	<path class="st0" d="M179,5.4h-7.4V0.4h20.2v4.9h-7.4v19.4H179V5.4z"/>
	<path class="st0" d="M196.1,0.4h5.4v24.3h-5.4V0.4z"/>
	<path class="st0" d="M206.4,12.7L206.4,12.7c0-7,5.5-12.7,13-12.7c7.5,0,12.9,5.6,12.9,12.5v0.1c0,6.9-5.5,12.6-13,12.6
		S206.4,19.6,206.4,12.7z M226.7,12.7L226.7,12.7c0-4.2-3.1-7.7-7.4-7.7s-7.3,3.4-7.3,7.6v0.1c0,4.2,3.1,7.7,7.4,7.7
		C223.7,20.2,226.7,16.8,226.7,12.7z"/>
	<path class="st0" d="M237.1,0.4h4.9l11.4,15v-15h5.3v24.3h-4.6L242.4,9.3v15.5h-5.3V0.4z"/>
	<path class="st0" d="M280.6,5.4h-7.4V0.4h20.2v4.9H286v19.4h-5.4V5.4z"/>
	<path class="st0" d="M297.5,0.4h18.4v4.8h-13v4.9h11.5v4.8h-11.5V20H316v4.8h-18.5V0.4z"/>
	<path class="st0" d="M319.7,12.7L319.7,12.7c0-7,5.2-12.7,12.7-12.7c4.6,0,7.3,1.5,9.6,3.8l-3.4,3.9c-1.9-1.7-3.8-2.7-6.2-2.7
		c-4.1,0-7.1,3.4-7.1,7.6v0.1c0,4.2,2.9,7.7,7.1,7.7c2.8,0,4.5-1.1,6.4-2.9l3.4,3.4c-2.5,2.7-5.3,4.3-10,4.3
		C325,25.2,319.7,19.6,319.7,12.7z"/>
	<path class="st0" d="M346.5,0.4h5.4v9.6h9.9V0.4h5.4v24.3h-5.4V15h-9.9v9.8h-5.4V0.4z"/>
	<path class="st0" d="M372.9,0.4h4.9l11.4,15v-15h5.3v24.3H390L378.2,9.3v15.5h-5.3V0.4z"/>
	<path class="st0" d="M399.3,12.7L399.3,12.7c0-7,5.5-12.7,13-12.7c7.5,0,12.9,5.6,12.9,12.5v0.1c0,6.9-5.5,12.6-13,12.6
		S399.3,19.6,399.3,12.7z M419.6,12.7L419.6,12.7c0-4.2-3.1-7.7-7.4-7.7s-7.3,3.4-7.3,7.6v0.1c0,4.2,3.1,7.7,7.4,7.7
		C416.6,20.2,419.6,16.8,419.6,12.7z"/>
	<path class="st0" d="M429.9,0.4h5.4v19.5h12.1v4.9h-17.5V0.4z"/>
	<path class="st0" d="M449,12.7L449,12.7c0-7,5.5-12.7,13-12.7c7.5,0,12.9,5.6,12.9,12.5v0.1c0,6.9-5.5,12.6-13,12.6
		S449,19.6,449,12.7z M469.3,12.7L469.3,12.7c0-4.2-3.1-7.7-7.4-7.7c-4.3,0-7.3,3.4-7.3,7.6v0.1c0,4.2,3.1,7.7,7.4,7.7
		C466.3,20.2,469.3,16.8,469.3,12.7z"/>
	<path class="st0" d="M478.5,12.7L478.5,12.7c0-7,5.4-12.7,12.8-12.7c4.4,0,7,1.2,9.6,3.3l-3.4,4.1c-1.9-1.6-3.5-2.5-6.4-2.5
		c-3.9,0-7,3.4-7,7.6v0.1c0,4.5,3.1,7.7,7.4,7.7c1.9,0,3.7-0.5,5-1.5v-3.5h-5.4v-4.6h10.6v10.6c-2.5,2.1-5.9,3.9-10.4,3.9
		C483.8,25.2,478.5,19.9,478.5,12.7z"/>
	<path class="st0" d="M512.7,15.2l-9.4-14.7h6.3l5.8,9.8l5.9-9.8h6.1L518,15.1v9.7h-5.4V15.2z"/>
	<path class="st0" d="M2.1,35.2h5.8l6.4,10.3l6.4-10.3h5.8v24.3h-5.3V43.6L14.3,54h-0.1L7.3,43.7v15.8H2.1V35.2z"/>
	<path class="st0" d="M40.6,35h4.9L56,59.5h-5.6l-2.2-5.5H37.9l-2.2,5.5h-5.5L40.6,35z M46.3,49.3L43,41.5l-3.2,7.9H46.3z"/>
	<path class="st0" d="M59.7,35.2h4.9l11.4,15v-15h5.3v24.3h-4.6L65,44.1v15.5h-5.3V35.2z"/>
	<path class="st0" d="M95.6,35h4.9l10.4,24.5h-5.6l-2.2-5.5H92.8l-2.2,5.5h-5.5L95.6,35z M101.2,49.3L98,41.5l-3.2,7.9H101.2z"/>
	<path class="st0" d="M112,47.4L112,47.4c0-7,5.4-12.7,12.8-12.7c4.4,0,7,1.2,9.6,3.3l-3.4,4.1c-1.9-1.6-3.5-2.5-6.4-2.5
		c-3.9,0-7,3.4-7,7.6v0.1c0,4.5,3.1,7.7,7.4,7.7c1.9,0,3.7-0.5,5-1.5v-3.5h-5.4v-4.6h10.6v10.6c-2.5,2.1-5.9,3.9-10.4,3.9
		C117.3,60,112,54.6,112,47.4z"/>
	<path class="st0" d="M140.4,35.2h18.4V40h-13v4.9h11.5v4.8h-11.5v5.1h13.2v4.8h-18.5V35.2z"/>
	<path class="st0" d="M163.7,35.2h5.8l6.4,10.3l6.4-10.3h5.8v24.3h-5.3V43.6L175.9,54h-0.1l-6.8-10.3v15.8h-5.3V35.2z"/>
	<path class="st0" d="M193.9,35.2h18.4V40h-13v4.9h11.5v4.8h-11.5v5.1h13.2v4.8h-18.5V35.2z"/>
	<path class="st0" d="M217.2,35.2h4.9l11.4,15v-15h5.3v24.3h-4.6l-11.8-15.5v15.5h-5.3V35.2z"/>
	<path class="st0" d="M250.3,40.1h-7.4v-4.9h20.2v4.9h-7.4v19.4h-5.4V40.1z"/>
	<path class="st0" d="M275.9,56l3.2-3.8c2.2,1.8,4.5,3,7.3,3c2.2,0,3.5-0.9,3.5-2.3v-0.1c0-1.4-0.8-2.1-4.9-3.1
		c-4.9-1.3-8.1-2.6-8.1-7.4v-0.1c0-4.4,3.5-7.3,8.5-7.3c3.5,0,6.6,1.1,9,3.1l-2.8,4c-2.2-1.5-4.3-2.4-6.3-2.4s-3.1,0.9-3.1,2.1v0.1
		c0,1.6,1,2.1,5.3,3.2c4.9,1.3,7.7,3.1,7.7,7.3v0.1c0,4.8-3.7,7.5-8.9,7.5C282.6,59.9,278.9,58.6,275.9,56z"/>
	<path class="st0" d="M305,40.1h-7.4v-4.9h20.2v4.9h-7.4v19.4H305V40.1z"/>
	<path class="st0" d="M321.5,49.1V35.2h5.4V49c0,4,2,6,5.3,6c3.3,0,5.3-2,5.3-5.8V35.2h5.4v13.7c0,7.4-4.1,11-10.7,11
		S321.5,56.3,321.5,49.1z"/>
	<path class="st0" d="M348.2,35.2h9.5c7.7,0,12.9,5.3,12.9,12.1v0.1c0,6.9-5.3,12.2-12.9,12.2h-9.5V35.2z M357.7,54.7
		c4.4,0,7.3-3,7.3-7.3v-0.1c0-4.3-3-7.3-7.3-7.3h-4.1v14.7H357.7z"/>
	<path class="st0" d="M375.4,35.2h18.4V40h-13v4.9h11.5v4.8h-11.5v5.1h13.2v4.8h-18.5V35.2z"/>
	<path class="st0" d="M398.7,35.2h4.9l11.4,15v-15h5.3v24.3h-4.6L404,44.1v15.5h-5.3V35.2z"/>
	<path class="st0" d="M431.8,40.1h-7.4v-4.9h20.2v4.9h-7.4v19.4h-5.4V40.1z"/>
	<path class="st0" d="M446.5,56l3.2-3.8c2.2,1.8,4.5,3,7.3,3c2.2,0,3.5-0.9,3.5-2.3v-0.1c0-1.4-0.8-2.1-4.9-3.1
		c-4.9-1.3-8.1-2.6-8.1-7.4v-0.1c0-4.4,3.5-7.3,8.5-7.3c3.5,0,6.6,1.1,9,3.1l-2.8,4c-2.2-1.5-4.3-2.4-6.3-2.4s-3.1,0.9-3.1,2.1v0.1
		c0,1.6,1,2.1,5.3,3.2c4.9,1.3,7.7,3.1,7.7,7.3v0.1c0,4.8-3.7,7.5-8.9,7.5C453.1,59.9,449.4,58.6,446.5,56z"/>
	<path class="st0" d="M468.6,44.2c2.4-0.2,3.6-1.5,3.4-3.4h-2.2v-5.6h5.6v4.7c0,4.6-2.3,6.4-6.4,6.5L468.6,44.2z"/>
	<path class="st0" d="M10.4,69.8h4.9l10.4,24.5h-5.6L18,88.9H7.7l-2.2,5.5H0L10.4,69.8z M16.1,84.1l-3.2-7.9l-3.2,7.9H16.1z"/>
	<path class="st0" d="M27.5,90.8l3.2-3.8c2.2,1.8,4.5,3,7.3,3c2.2,0,3.5-0.9,3.5-2.3v-0.1c0-1.4-0.8-2.1-4.9-3.1
		c-4.9-1.3-8.1-2.6-8.1-7.4V77c0-4.4,3.5-7.3,8.5-7.3c3.5,0,6.6,1.1,9,3.1l-2.8,4c-2.2-1.5-4.3-2.4-6.3-2.4s-3.1,0.9-3.1,2.1v0.1
		c0,1.6,1,2.1,5.3,3.2c4.9,1.3,7.7,3.1,7.7,7.3v0.1c0,4.8-3.7,7.5-8.9,7.5C34.2,94.7,30.5,93.4,27.5,90.8z"/>
	<path class="st0" d="M49.5,90.8l3.2-3.8c2.2,1.8,4.5,3,7.3,3c2.2,0,3.5-0.9,3.5-2.3v-0.1c0-1.4-0.8-2.1-4.9-3.1
		c-4.9-1.3-8.1-2.6-8.1-7.4V77c0-4.4,3.5-7.3,8.5-7.3c3.5,0,6.6,1.1,9,3.1l-2.8,4c-2.2-1.5-4.3-2.4-6.3-2.4s-3.1,0.9-3.1,2.1v0.1
		c0,1.6,1,2.1,5.3,3.2c4.9,1.3,7.7,3.1,7.7,7.3v0.1c0,4.8-3.7,7.5-8.9,7.5C56.1,94.7,52.4,93.4,49.5,90.8z"/>
	<path class="st0" d="M72.3,82.2L72.3,82.2c0-7,5.5-12.7,13-12.7s12.9,5.6,12.9,12.5v0.1c0,6.9-5.5,12.6-13,12.6
		S72.3,89.1,72.3,82.2z M92.6,82.2L92.6,82.2c0-4.2-3.1-7.7-7.4-7.7c-4.3,0-7.3,3.4-7.3,7.6v0.1c0,4.2,3.1,7.7,7.4,7.7
		C89.6,89.8,92.6,86.4,92.6,82.2z"/>
	<path class="st0" d="M101.9,82.2L101.9,82.2c0-7,5.2-12.7,12.7-12.7c4.6,0,7.3,1.5,9.6,3.8l-3.4,3.9c-1.9-1.7-3.8-2.7-6.2-2.7
		c-4.1,0-7.1,3.4-7.1,7.6v0.1c0,4.2,2.9,7.7,7.1,7.7c2.8,0,4.5-1.1,6.4-2.9l3.4,3.4c-2.5,2.7-5.3,4.3-10,4.3
		C107.2,94.7,101.9,89.2,101.9,82.2z"/>
	<path class="st0" d="M128.8,70h5.4v24.3h-5.4V70z"/>
	<path class="st0" d="M148.6,69.8h4.9L164,94.3h-5.6l-2.2-5.5h-10.3l-2.2,5.5h-5.5L148.6,69.8z M154.3,84.1l-3.2-7.9l-3.2,7.9H154.3
		z"/>
	<path class="st0" d="M170.3,74.9h-7.4V70h20.2v4.9h-7.4v19.4h-5.4V74.9z"/>
	<path class="st0" d="M187.4,70h5.4v24.3h-5.4V70z"/>
	<path class="st0" d="M197.8,82.2L197.8,82.2c0-7,5.5-12.7,13-12.7c7.5,0,12.9,5.6,12.9,12.5v0.1c0,6.9-5.5,12.6-13,12.6
		C203.2,94.7,197.8,89.1,197.8,82.2z M218,82.2L218,82.2c0-4.2-3.1-7.7-7.4-7.7c-4.3,0-7.3,3.4-7.3,7.6v0.1c0,4.2,3.1,7.7,7.4,7.7
		C215.1,89.8,218,86.4,218,82.2z"/>
	<path class="st0" d="M228.4,70h4.9l11.4,15V70h5.3v24.3h-4.6l-11.8-15.5v15.5h-5.3V70z"/>
</g>
</svg>
