<?xml version="1.0" encoding="utf-8"?>
<!-- Generator: Adobe Illustrator 22.0.1, SVG Export Plug-In . SVG Version: 6.00 Build 0)  -->
<svg version="1.1" id="Layer_1" xmlns="http://www.w3.org/2000/svg" xmlns:xlink="http://www.w3.org/1999/xlink" x="0px" y="0px"
	 viewBox="0 0 205.1 100" enable-background="new 0 0 205.1 100" xml:space="preserve">
<g>
	<path fill="#FFFFFF" d="M108.8,50.5c2.4,0,3.7-1.7,3.7-4.7c0-3-1.4-4.7-3.7-4.7c-2.4,0-3.7,1.7-3.7,4.7
		C105,48.8,106.4,50.5,108.8,50.5L108.8,50.5z"/>
	<path fill="#FFFFFF" d="M64.8,44.2l0.2-0.3c0-0.7-0.5-2.9-3.1-2.9c-2.5,0-3.1,2.1-3.1,2.9l0.3,0.3H64.8L64.8,44.2z"/>
	<path fill="#FFFFFF" d="M27.5,34.8h-6.4l-0.3,0.3v5.6l0.3,0.3h6.4c2.4,0,3.4-0.9,3.4-3.1C30.9,35.8,29.9,34.8,27.5,34.8L27.5,34.8z
		"/>
	<g>
		<defs>
			<rect id="SVGID_1_" y="0" width="205.1" height="100"/>
		</defs>
		<clipPath id="SVGID_2_">
			<use xlink:href="#SVGID_1_"  overflow="visible"/>
		</clipPath>
		<path clip-path="url(#SVGID_2_)" fill="#FFFFFF" d="M88.2,70.7c-2.5,0-3.1,2.1-3.1,2.9l0.3,0.3H91l0.2-0.3
			C91.3,72.9,90.7,70.7,88.2,70.7L88.2,70.7z"/>
		<path clip-path="url(#SVGID_2_)" fill="#FFFFFF" d="M163.3,70.8L158,83.9c-1.2,3.1-2.4,6.1-7.2,6.1h-1.6l-0.3-0.3v-3.2l0.3-0.3
			h1.6c1.5,0,2-1.1,2.4-2.3l0-0.4L148,70.8v-3.2l0.3-0.3h2.9l0.3,0.3l4,11.4h0.4l4-11.4l0.3-0.3h2.9l0.3,0.3V70.8L163.3,70.8z
			 M146,70.7l-0.3,0.3H142l-0.3,0.3v7.4c0,0.7,0.4,1.1,1.1,1.1h2.9l0.3,0.3v3.2l-0.3,0.3h-2.9c-1.7,0-5.5-0.5-5.5-4.8v-7.4L137,71
			h-2.4l-0.3-0.3v-3.2l0.3-0.3h2.4l0.3-0.3v-3.1l0.3-0.3h3.9l0.3,0.3V67l0.3,0.3h3.8l0.3,0.3V70.7L146,70.7z M132,64.2l-0.3,0.3
			h-3.9l-0.3-0.3v-3.2l0.3-0.3h3.9l0.3,0.3V64.2L132,64.2z M132,83.3l-0.3,0.3h-3.9l-0.3-0.3V67.5l0.3-0.3h3.9l0.3,0.3V83.3
			L132,83.3z M117.8,83.9c-4.4,0-7.1-2.1-7.2-5.5l0.3-0.3h3.9l0.3,0.3c0,1.5,1.3,1.7,2.7,1.7c1.2,0,2.7-0.1,2.7-1.4
			c0-1.2-1.1-1.4-2.6-1.6c-0.2,0-0.5-0.1-0.7-0.1c-4.1-0.7-6.2-2.4-6.2-5.2c0-3,2.5-4.8,6.8-4.8c4.2,0,6.8,1.8,6.8,4.8l-0.3,0.3
			h-3.9l-0.3-0.3c0-0.7-0.8-1-2.4-1c-1.5,0-2.4,0.2-2.4,1.4c0,1.2,1.4,1.4,3,1.6c0.3,0,0.7,0.1,1,0.1c1.8,0.3,5.5,0.9,5.5,4.8
			C125,82.5,121.3,83.9,117.8,83.9L117.8,83.9z M109.3,70.7l-0.3,0.3h-2.3c-2.6,0-3.7,1.3-3.7,4.4v7.9l-0.3,0.3h-3.9l-0.3-0.3V67.5
			l0.3-0.3h3.5l0.3,0.3l0.4,1.2h0.3c0,0,0.6-1.5,3.7-1.5h1.9l0.3,0.3V70.7L109.3,70.7z M91.6,54.3c-4.4,0-7.1-2.1-7.2-5.5l0.3-0.3
			h3.9l0.3,0.3c0,1.5,1.3,1.7,2.7,1.7c1.2,0,2.7-0.1,2.7-1.4c0-1.2-1.1-1.4-2.6-1.6c-0.2,0-0.5-0.1-0.7-0.1
			c-4.1-0.7-6.2-2.4-6.2-5.2c0-3,2.5-4.8,6.8-4.8c4.2,0,6.8,1.8,6.8,4.8l-0.3,0.3h-3.9L94,42.1c0-0.7-0.8-1-2.4-1
			c-1.5,0-2.4,0.2-2.4,1.4c0,1.2,1.4,1.4,3,1.6c0.3,0,0.7,0.1,1,0.1c1.8,0.3,5.5,0.9,5.5,4.8C98.8,52.9,95.1,54.3,91.6,54.3
			L91.6,54.3z M96,76.7L95.7,77H85.4l-0.3,0.3c0,0.8,0.6,2.9,3.4,2.9c1.1,0,2.1-0.4,2.4-1l0.3-0.3h3.9l0.3,0.3
			c-0.2,1.2-1.3,4.8-6.8,4.8c-6,0-8.1-4.6-8.1-8.5c0-6.3,4.2-8.5,7.8-8.5c3.6,0,7.8,2.2,7.8,8.5V76.7L96,76.7z M78.9,70.8l-5.6,12.5
			L73,83.5h-3.5l-0.3-0.3l-5.6-12.5v-3.2l0.3-0.3h2.9l0.3,0.3l4,10.4h0.3l4-10.4l0.3-0.3h2.9l0.3,0.3V70.8L78.9,70.8z M54.2,45.8
			c0-6.3,4.2-8.5,7.8-8.5c3.6,0,7.8,2.2,7.8,8.5v1.3l-0.3,0.3H59.2l-0.3,0.3c0,0.8,0.6,2.9,3.4,2.9c1.1,0,2.1-0.4,2.4-1l0.3-0.3h3.9
			l0.3,0.3c-0.2,1.2-1.3,4.8-6.8,4.8C56.3,54.3,54.2,49.7,54.2,45.8L54.2,45.8z M61,64.2l-0.3,0.3h-3.9l-0.3-0.3v-3.2l0.3-0.3h3.9
			l0.3,0.3V64.2L61,64.2z M61,83.3l-0.3,0.3h-3.9l-0.3-0.3V67.5l0.3-0.3h3.9l0.3,0.3V83.3L61,83.3z M53.3,83.3L53,83.5h-3.9
			l-0.3-0.3v-9.5c0-2-0.9-3.1-2.7-3.1c-2.5,0-3.7,1.5-3.7,4.4v8.2l-0.3,0.3h-3.9L38,83.3V67.5l0.3-0.3h3.5l0.3,0.3l0.4,1.2h0.3
			c1.1-1.2,2.7-1.8,4.4-1.8c3.8,0,6.2,2.5,6.2,6.5V83.3L53.3,83.3z M37.3,37.9l0.3-0.3h2.9l0.3,0.3l4,11.4h0.4l4-11.4l0.3-0.3h2.9
			l0.3,0.3v3.2l-5.3,13.2c-1.2,3.1-2.4,6.1-7.2,6.1h-1.9L38,60.1v-3.2l0.3-0.3h1.9c1.7,0.1,2.1-1.1,2.4-2.3l0-0.4l-5.3-12.9V37.9
			L37.3,37.9z M34.7,50.4v3.2l-0.3,0.3h-1.9l-0.6-0.3L25.3,45l-0.6-0.3l-3.6,0L20.8,45v8.6l-0.3,0.3h-3.9l-0.3-0.3V31.3l0.3-0.3
			h10.8c4.9,0,7.8,2.6,7.8,6.8c0,3.9-2.6,6-5,6.5v0.4L34.7,50.4L34.7,50.4z M34.7,74.7c0,5.9-3.2,9.1-9.1,9.1
			c-5.9,0-9.1-3.2-9.1-9.1V60.9l0.3-0.3h3.9l0.3,0.3v13.8c0,3.6,1.6,5.4,4.7,5.4c3.1,0,4.7-1.8,4.7-5.4V60.9l0.3-0.3h3.9l0.3,0.3
			V74.7L34.7,74.7z M72.5,37.9l0.3-0.3h3.5l0.3,0.3l0.4,1.2h0.3c0,0,0.6-1.5,3.7-1.5h1.9l0.3,0.3v3.2l-0.3,0.3h-2.3
			c-2.6,0-3.7,1.3-3.7,4.4v7.9l-0.3,0.3h-3.9l-0.3-0.3V37.9L72.5,37.9z M108.8,37.3c4.9,0,8.1,3.3,8.1,8.5c0,5.1-3.2,8.5-8.1,8.5
			c-4.9,0-8.1-3.3-8.1-8.5C100.6,40.6,103.8,37.3,108.8,37.3L108.8,37.3z M119.5,37.9l0.3-0.3h3.5l0.3,0.3l0.4,1.2h0.3
			c1.1-1.2,2.7-1.8,4.4-1.8c3.8,0,6.2,2.5,6.2,6.5v9.8l-0.3,0.3h-3.9l-0.3-0.3v-9.5c0-2-0.9-3.1-2.7-3.1c-2.5,0-3.7,1.5-3.7,4.4v8.2
			l-0.3,0.3h-3.9l-0.3-0.3V37.9L119.5,37.9z M175.2,17.8H0V100h193V84.9h-17.8V17.8L175.2,17.8z"/>
	</g>
	<path fill="#FFFFFF" d="M202.3,82.2H193h-15.1V17.8V2.7h24.4V82.2L202.3,82.2z M175.2,0v17.8v67.1H193h12.1V0H175.2L175.2,0z"/>
</g>
</svg>
