<?xml version="1.0" encoding="utf-8"?>
<!-- Generator: Adobe Illustrator 22.0.1, SVG Export Plug-In . SVG Version: 6.00 Build 0)  -->
<svg version="1.1" id="Logo" xmlns="http://www.w3.org/2000/svg" xmlns:xlink="http://www.w3.org/1999/xlink" x="0px" y="0px"
	 viewBox="0 0 296.9 143.8" enable-background="new 0 0 296.9 143.8" xml:space="preserve">
<g>
	<rect y="23.9" fill="#004C9B" width="281.3" height="119.8"/>
	<rect x="257.3" fill="#FFDC00" width="39.6" height="119.8"/>
	<g>
		<path fill="#FFFFFF" d="M44.3,62.7c3.4-0.8,7.3-3.8,7.3-9.5c0-6.2-4.3-9.9-11.4-9.9H24.3l-0.4,0.4v32.6l0.4,0.4H30l0.4-0.4V63.6
			l0.4-0.5l5.2,0l0.8,0.5l9.6,12.5l0.9,0.4h2.8l0.4-0.4v-4.7l-6.3-8.2V62.7z M40.1,57.7h-9.4l-0.4-0.4v-8.2l0.4-0.4h9.4
			c3.4,0,5,1.4,5,4.5C45.1,56.3,43.6,57.7,40.1,57.7z"/>
		<path fill="#FFFFFF" d="M58.6,86.1c6.9,0,8.7-4.4,10.4-8.9L76.7,58v-4.7l-0.4-0.4h-4.2l-0.4,0.4l-5.9,16.6h-0.6l-5.8-16.6L59,52.9
			h-4.2l-0.4,0.4V58l7.7,18.8l0,0.5c-0.5,1.7-1,3.4-3.5,3.3h-2.8L55.4,81v4.7l0.4,0.4H58.6z"/>
		<path fill="#FFFFFF" d="M101.4,67l0.4-0.4v-1.9c0-9.1-6.1-12.3-11.4-12.3c-5.3,0-11.4,3.2-11.4,12.3c0,5.7,3.1,12.3,11.9,12.3
			c8,0,9.6-5.3,9.9-7l-0.4-0.4h-5.6l-0.4,0.4c-0.5,0.9-1.8,1.5-3.5,1.5c-4.1,0-5-3.1-5-4.2l0.4-0.4H101.4z M85.9,62.1
			c0-1.2,0.8-4.3,4.5-4.3c3.7,0,4.5,3.2,4.5,4.2l-0.4,0.4h-8.2L85.9,62.1z"/>
		<path fill="#FFFFFF" d="M112.2,55.1l-0.6-1.8l-0.4-0.4H106l-0.4,0.4v22.9l0.4,0.4h5.6l0.4-0.4V64.7c0-4.5,1.6-6.4,5.4-6.4h3.3
			l0.4-0.4v-4.7l-0.4-0.4H118c-4.4,0-5.3,2.2-5.3,2.2H112.2z"/>
		<path fill="#FFFFFF" d="M135.9,62.5c-0.5-0.1-1-0.2-1.5-0.2c-2.4-0.3-4.4-0.6-4.4-2.3c0-1.7,1.3-2.1,3.5-2.1
			c2.4,0,3.5,0.5,3.5,1.5l0.4,0.4h5.6l0.4-0.4c0-4.3-3.8-7-9.9-7c-6.2,0-9.9,2.6-9.9,7.1c0,4,3,6.5,9,7.5c0.4,0.1,0.7,0.1,1.1,0.2
			c2.3,0.4,3.8,0.6,3.8,2.4c0,1.9-2.3,2.1-4,2.1c-2.1,0-4-0.3-4-2.5l-0.4-0.4h-5.6l-0.4,0.4c0,4.9,4,8,10.4,8c5,0,10.4-2,10.4-7.5
			C144,63.8,138.5,62.9,135.9,62.5z"/>
		<path fill="#FFFFFF" d="M158.5,52.4c-7.2,0-11.9,4.8-11.9,12.3s4.7,12.3,11.9,12.3c7.2,0,11.9-4.8,11.9-12.3
			S165.8,52.4,158.5,52.4z M158.5,71.6c-3.5,0-5.4-2.5-5.4-6.9s2-6.9,5.4-6.9c3.5,0,5.4,2.5,5.4,6.9S162,71.6,158.5,71.6z"/>
		<path fill="#FFFFFF" d="M190.4,76.6h5.6l0.4-0.4V61.9c0-5.8-3.4-9.5-9-9.5c-2.5,0-4.8,0.9-6.4,2.6h-0.4l-0.6-1.7l-0.4-0.4h-5.2
			l-0.4,0.4v22.9l0.4,0.4h5.6l0.4-0.4v-12c0-4.2,1.8-6.4,5.4-6.4c2.6,0,4,1.5,4,4.5v13.9L190.4,76.6z"/>
		<path fill="#FFFFFF" d="M50.6,86.8l-0.4-0.4h-5.6l-0.4,0.4V107c0,5.2-2.3,7.8-6.9,7.8s-6.9-2.6-6.9-7.8V86.8L30,86.4h-5.6
			l-0.4,0.4V107c0,8.6,4.7,13.3,13.3,13.3s13.3-4.7,13.3-13.3V86.8z"/>
		<g>
			<polygon fill="#FFFFFF" points="82.8,86.4 82.4,86.8 82.4,91.5 82.8,91.9 88.5,91.9 88.9,91.5 88.9,86.8 88.5,86.4 			"/>
			<polygon fill="#FFFFFF" points="88.5,119.8 88.9,119.4 88.9,96.4 88.5,96.1 82.8,96.1 82.4,96.4 82.4,119.4 82.8,119.8 			"/>
		</g>
		<polygon fill="#FFFFFF" points="110.4,96.1 110,96.5 104.1,111.7 103.6,111.7 97.7,96.5 97.3,96.1 93.1,96.1 92.7,96.4 
			92.7,101.2 100.9,119.4 101.3,119.8 106.4,119.8 106.9,119.4 115,101.2 115,96.4 114.6,96.1 		"/>
		<path fill="#FFFFFF" d="M174.1,105.7c-0.5-0.1-1-0.2-1.5-0.2c-2.4-0.3-4.4-0.6-4.4-2.3c0-1.7,1.3-2.1,3.5-2.1
			c2.4,0,3.5,0.5,3.5,1.5l0.4,0.4h5.6l0.4-0.4c0-4.3-3.8-7-9.9-7c-6.2,0-9.9,2.6-9.9,7.1c0,4,3,6.5,9,7.5c0.4,0.1,0.7,0.1,1.1,0.2
			c2.3,0.4,3.8,0.6,3.8,2.4c0,1.9-2.3,2.1-4,2.1c-2.1,0-4-0.3-4-2.5l-0.4-0.4h-5.6l-0.4,0.4c0,4.9,4,8,10.4,8c5,0,10.4-2,10.4-7.5
			C182.1,107,176.7,106.1,174.1,105.7z"/>
		<g>
			<polygon fill="#FFFFFF" points="192,119.8 192.4,119.4 192.4,96.4 192,96.1 186.4,96.1 186,96.4 186,119.4 186.4,119.8 			"/>
			<polygon fill="#FFFFFF" points="186.4,86.4 186,86.8 186,91.5 186.4,91.9 192,91.9 192.4,91.5 192.4,86.8 192,86.4 			"/>
		</g>
		<path fill="#FFFFFF" d="M208.1,119.8h4.3l0.4-0.4v-4.7l-0.4-0.4h-4.3c-1,0-1.6-0.6-1.6-1.6v-10.8l0.4-0.4h5.5l0.4-0.4v-4.7
			l-0.4-0.4h-5.5l-0.4-0.4v-4.5l-0.4-0.4h-5.6l-0.4,0.4v4.5l-0.4,0.4h-3.5l-0.4,0.4v4.7l0.4,0.4h3.6l0.4,0.4v10.8
			C200.1,119.1,205.7,119.8,208.1,119.8z"/>
		<path fill="#FFFFFF" d="M71.6,119.8h5.6l0.4-0.4V105c0-5.8-3.4-9.5-9-9.5c-2.5,0-4.8,0.9-6.4,2.6h-0.4l-0.6-1.7l-0.4-0.4h-5.2
			l-0.4,0.4v22.9l0.4,0.4h5.6l0.4-0.4v-12c0-4.2,1.8-6.4,5.4-6.4c2.6,0,4,1.5,4,4.5v13.9L71.6,119.8z"/>
		<path fill="#FFFFFF" d="M139.6,110.2l0.4-0.4v-1.9c0-9.1-6.1-12.3-11.4-12.3c-5.3,0-11.4,3.2-11.4,12.3c0,5.7,3.1,12.3,11.9,12.3
			c8,0,9.6-5.3,9.9-7l-0.4-0.4h-5.6l-0.4,0.4c-0.5,0.9-1.8,1.5-3.5,1.5c-4.1,0-5-3.1-5-4.2l0.4-0.4H139.6z M124.1,105.3
			c0-1.2,0.8-4.3,4.5-4.3c3.7,0,4.5,3.2,4.5,4.2l-0.4,0.4h-8.2L124.1,105.3z"/>
		<path fill="#FFFFFF" d="M150.4,98.2l-0.6-1.8l-0.4-0.4h-5.2l-0.4,0.4v22.9l0.4,0.4h5.6l0.4-0.4v-11.5c0-4.5,1.6-6.4,5.4-6.4h3.3
			l0.4-0.4v-4.7l-0.4-0.4h-2.8c-4.4,0-5.3,2.2-5.3,2.2H150.4z"/>
		<path fill="#FFFFFF" d="M219.9,129.2c6.9,0,8.7-4.4,10.4-8.9l7.7-19.2v-4.7l-0.4-0.4h-4.2l-0.4,0.4l-5.9,16.6h-0.6l-5.8-16.6
			l-0.4-0.4h-4.2l-0.4,0.4v4.7l7.7,18.8l0,0.5c-0.5,1.8-1.3,3.3-3.5,3.3h-2.3l-0.4,0.4v4.7l0.4,0.4H219.9z"/>
	</g>
</g>
<g>
</g>
<g>
</g>
<g>
</g>
<g>
</g>
<g>
</g>
<g>
</g>
<g>
</g>
<g>
</g>
<g>
</g>
<g>
</g>
<g>
</g>
<g>
</g>
<g>
</g>
<g>
</g>
<g>
</g>
</svg>
