<?xml version="1.0" encoding="utf-8"?>
<!-- Generator: Adobe Illustrator 22.0.1, SVG Export Plug-In . SVG Version: 6.00 Build 0)  -->
<svg version="1.1" id="Layer_1" xmlns="http://www.w3.org/2000/svg" xmlns:xlink="http://www.w3.org/1999/xlink" x="0px" y="0px"
	 viewBox="0 0 221.1 161.5" enable-background="new 0 0 221.1 161.5" xml:space="preserve">
<path fill="#121821" d="M41.6,6.4v32.5h-7.3V6.4h-7.2V0h21.6v6.4H41.6z"/>
<path fill="#121821" d="M51.8,38.9V0h18.6v6.3H59.1v9.6h7.8v5.7h-7.8v10.8h11.3v6.5H51.8z"/>
<path fill="#121821" d="M85.6,38.9H74.3V0h11.2c6.8,0,10.6,4.4,10.6,10.5v18.2C96.2,35,92.4,38.9,85.6,38.9z M88.9,10.6
	c0-2.8-1.2-4.3-3.9-4.3h-3.5v26.4H85c2.7,0,3.9-1.5,3.9-4.3V10.6z"/>
<path fill="#121821" d="M83.3,84.7c-2.9,0-4-2.3-4-5.7v-7.3c0-1.8-0.9-3.3-3-3.3h-3.8v16.1h-7.2V45.5h12c5.3,0,8.9,3,8.9,8.5v5.5
	c0,2.9-1.3,5.1-4.4,6c3,0.8,4.5,3.4,4.5,5.9v7.1c0,1.8,0.5,3,1.4,4v2.2H83.3z M79,54.3c0-1.8-0.8-2.8-2.6-2.8h-4v11.5h3.7
	c1.9,0,2.9-1,2.9-3.1V54.3z"/>
<path fill="#121821" d="M101.6,85.3c-6.8,0-11-4.4-11-10.6V55.3c0-6.1,4.3-10.6,11-10.6c6.8,0,11.1,4.4,11.1,10.6v19.4
	C112.6,80.9,108.4,85.3,101.6,85.3z M105.3,54.8c0-2.3-1.3-3.8-3.7-3.8c-2.3,0-3.7,1.5-3.7,3.8v20.3c0,2.3,1.3,3.8,3.7,3.8
	c2.4,0,3.7-1.5,3.7-3.8V54.8z"/>
<path fill="#121821" d="M134.9,84.4l-1-3.1c-1.3,2.6-4,4-7.1,4c-6.4,0-10-4.6-10-10.2V54.8c0-5.3,4.1-10.1,11.1-10.1
	c7,0,10.8,4.6,10.8,10.1v4h-7v-4.3c0-1.9-1.2-3.5-3.7-3.5c-2.6,0-3.8,1.7-3.8,3.6v20.8c0,1.9,1.3,3.6,3.9,3.6c2.6,0,3.9-1.7,3.9-3.6
	v-5.4h-3.8v-5.3h10.8v19.8H134.9z"/>
<path fill="#121821" d="M143.3,84.4V45.5h18.6v6.3h-11.3v9.6h7.8v5.7h-7.8V78h11.3v6.5H143.3z"/>
<path fill="#121821" d="M183.8,84.7c-2.9,0-4-2.3-4-5.7v-7.3c0-1.8-0.9-3.3-3-3.3h-3.8v16.1h-7.3V45.5h12c5.3,0,8.9,3,8.9,8.5v5.5
	c0,2.9-1.3,5.1-4.4,6c3,0.8,4.5,3.4,4.5,5.9v7.1c0,1.8,0.5,3,1.4,4v2.2H183.8z M179.6,54.3c0-1.8-0.8-2.8-2.6-2.8h-4v11.5h3.7
	c1.9,0,2.9-1,2.9-3.1V54.3z"/>
<path fill="#121821" d="M201.2,85.3c-6.7,0-10.8-4-10.8-10.1v-2.7h6.7v2.3c0,2.9,1.3,4.4,4,4.4c2.6,0,3.9-1.5,3.9-3.9
	c0-3.1-2-5.2-5.8-8.1c-4-2.9-8.3-6.7-8.3-12.2c0-5.6,3.6-10.5,10.6-10.5c6.1,0,10.2,4.2,10.2,10v2.5H205v-2.3c0-2.4-1.2-4.2-3.7-4.2
	c-2.1,0-3.5,1.3-3.5,3.5c0,3.3,1.9,5,6.3,8.1c4.6,3.5,7.9,7,7.9,12.2C212,80.8,207.6,85.3,201.2,85.3z"/>
<path fill="#00A0B0" d="M10.8,130.7c-6.7,0-10.8-4-10.8-10.1V118h6.7v2.3c0,2.9,1.3,4.4,4,4.4c2.6,0,3.9-1.5,3.9-3.9
	c0-3.1-2-5.2-5.8-8.1c-4-2.9-8.3-6.7-8.3-12.2C0.4,95,4,90.1,11,90.1c6.1,0,10.2,4.2,10.2,10v2.5h-6.6v-2.3c0-2.4-1.2-4.2-3.7-4.2
	c-2.1,0-3.5,1.3-3.5,3.5c0,3.3,1.9,5,6.3,8.1c4.6,3.4,7.9,7,7.9,12.2C21.6,126.2,17.2,130.7,10.8,130.7z"/>
<path fill="#00A0B0" d="M36.3,130.7c-7,0-11.2-4.7-11.2-10.7v-19.3c0-6,4.3-10.7,11.2-10.7c6.9,0,10.5,4.3,10.5,10.2v4.7h-6.5v-4.7
	c0-2.3-1.3-3.9-3.9-3.9c-2.6,0-4,1.6-4,3.7v20.5c0,2.2,1.3,3.7,4,3.7c2.6,0,3.9-1.6,3.9-3.9v-4.7h6.5v4.7
	C46.8,126.4,43.2,130.7,36.3,130.7z"/>
<path fill="#00A0B0" d="M66.3,129.9v-16h-8.1v16h-7.3V90.9h7.3v16.5h8.1V90.9h7.3v38.9H66.3z"/>
<path fill="#00A0B0" d="M89.2,130.7c-6.8,0-11.1-4.4-11.1-10.6v-19.4c0-6.1,4.3-10.6,11.1-10.6c6.8,0,11,4.4,11,10.6v19.4
	C100.3,126.3,96.1,130.7,89.2,130.7z M93,100.2c0-2.3-1.3-3.8-3.7-3.8c-2.3,0-3.7,1.5-3.7,3.8v20.3c0,2.3,1.4,3.8,3.7,3.8
	c2.4,0,3.7-1.5,3.7-3.8V100.2z"/>
<path fill="#00A0B0" d="M115.5,130.7c-6.8,0-11-4.4-11-10.6v-19.4c0-6.1,4.3-10.6,11-10.6c6.8,0,11.1,4.4,11.1,10.6v19.4
	C126.6,126.3,122.4,130.7,115.5,130.7z M119.3,100.2c0-2.3-1.3-3.8-3.7-3.8c-2.3,0-3.7,1.5-3.7,3.8v20.3c0,2.3,1.3,3.8,3.7,3.8
	c2.4,0,3.7-1.5,3.7-3.8V100.2z"/>
<path fill="#00A0B0" d="M131.2,129.9V90.9h7.2v32.5h10.9v6.4H131.2z"/>
<path fill="#00A0B0" d="M74.1,161v-17.3l-1,5.2L70.6,161h-3.4l-2.4-12.1l-0.9-5.2V161h-4v-23.8h6l2.5,12.1l0.8,4.4l0.8-4.4l2.4-12.1
	h5.9V161H74.1z"/>
<path fill="#00A0B0" d="M89.9,161l-0.8-4.7h-4.2l-0.9,4.7h-4.1l4.8-23.8h5l4.7,23.8H89.9z M87.1,143.6l-1.6,9.2h3L87.1,143.6z"/>
<path fill="#00A0B0" d="M106.4,161l-4.6-10.1l-1.7-3.8V161h-4.1v-23.8h3.8l4.4,10.3l1.6,3.8v-14.1h4V161H106.4z"/>
<path fill="#00A0B0" d="M121.5,161l-0.8-4.7h-4.2l-0.9,4.7h-4.1l4.8-23.8h5L126,161H121.5z M118.7,143.6l-1.6,9.2h3L118.7,143.6z"/>
<path fill="#00A0B0" d="M138.2,161l-0.6-1.9c-0.8,1.6-2.4,2.4-4.4,2.4c-3.9,0-6.1-2.8-6.1-6.2v-12.4c0-3.3,2.5-6.2,6.8-6.2
	c4.3,0,6.6,2.8,6.6,6.2v2.5h-4.2v-2.6c0-1.1-0.7-2.1-2.3-2.1c-1.6,0-2.3,1-2.3,2.2v12.7c0,1.2,0.8,2.2,2.4,2.2c1.6,0,2.4-1,2.4-2.2
	v-3.3h-2.3v-3.2h6.6V161H138.2z"/>
<path fill="#00A0B0" d="M143.4,161v-23.8h11.4v3.8h-6.9v5.9h4.8v3.5h-4.8v6.6h6.9v4H143.4z"/>
<path fill="#00A0B0" d="M171.3,161v-17.3l-1,5.2l-2.5,12.1h-3.4l-2.4-12.1l-0.9-5.2V161h-4v-23.8h6l2.5,12.1l0.8,4.4l0.8-4.4
	l2.4-12.1h5.9V161H171.3z"/>
<path fill="#00A0B0" d="M178.5,161v-23.8h11.4v3.8h-6.9v5.9h4.8v3.5h-4.8v6.6h6.9v4H178.5z"/>
<path fill="#00A0B0" d="M202.6,161l-4.6-10.1l-1.7-3.8V161h-4.1v-23.8h3.8l4.4,10.3l1.6,3.8v-14.1h4V161H202.6z"/>
<path fill="#00A0B0" d="M216.8,141.1V161h-4.5v-19.9h-4.4v-3.9h13.2v3.9H216.8z"/>
<path fill="#00A0B0" d="M31.8,161.5c-4.1,0-6.8-2.7-6.8-6.5v-11.9c0-3.8,2.6-6.5,6.8-6.5c4.2,0,6.7,2.7,6.7,6.5V155
	C38.6,158.8,36,161.5,31.8,161.5z M34.1,142.9c0-1.4-0.8-2.3-2.3-2.3c-1.4,0-2.3,0.9-2.3,2.3v12.4c0,1.4,0.8,2.3,2.3,2.3
	c1.5,0,2.3-0.9,2.3-2.3V142.9z"/>
<path fill="#00A0B0" d="M45.8,140.9v6.3h4.9v3.7h-4.9V161h-4.4v-23.8h11.1v3.7H45.8z"/>
<g>
</g>
<g>
</g>
<g>
</g>
<g>
</g>
<g>
</g>
<g>
</g>
</svg>
