<?xml version="1.0" encoding="utf-8"?>
<!-- Generator: Adobe Illustrator 22.0.1, SVG Export Plug-In . SVG Version: 6.00 Build 0)  -->
<svg version="1.1" id="Layer_1" xmlns="http://www.w3.org/2000/svg" xmlns:xlink="http://www.w3.org/1999/xlink" x="0px" y="0px"
	 viewBox="0 0 1101.9 431" enable-background="new 0 0 1101.9 431" xml:space="preserve">
<g>
	<path fill="#091538" d="M231.1,0c26.9,0,53.8,0,80.7,0c0,143.7,0,287.3,0,431c-26.9,0-53.8,0-80.7,0
		C231.1,287.3,231.1,143.7,231.1,0 M348,11.9c19.4,0,38.9,0,58.4,0c0,1.5,0,3.1,0,4.6c-9,0-17.9,0-26.9,0c0,23.6,0,47.2,0,70.9
		c-1.6,0-3.1,0-4.6,0c0-23.6,0-47.2,0-70.9c-9,0-17.9,0-26.9,0C348,15,348,13.4,348,11.9 M436.8,11.9c15.4,0,30.7,0,46.1,0
		c0,1.5,0,3.1,0,4.6c-13.8,0-27.6,0-41.4,0c0,10.3,0,20.5,0,30.7c13.8,0,27.6,0,41.4,0c0,1.6,0,3.2,0,4.8c-13.8,0-27.6,0-41.4,0
		c0,10.2,0,20.5,0,30.7c13.8,0,27.6,0,41.4,0c0,1.5,0,3.1,0,4.6c-15.4,0-30.8,0-46.1,0C436.7,62.2,436.7,37.1,436.8,11.9
		 M513.4,11.9c8.2,0,16.4,0,24.6,0c9.3,0,18.3,4.2,24.4,11.2c10.1,11.6,11.9,29.1,6.1,43.1c-4.7,11.6-16.1,20.6-28.7,21.1
		c-8.8,0.2-17.6,0-26.4,0.1C513.4,62.2,513.4,37.1,513.4,11.9 M518,16.5c0,22.1,0,44.2,0,66.2c11.5-0.7,24.3,2.3,34.6-4.4
		c13.3-8.4,17.3-26.7,12.5-41C562,27.3,553.4,18.9,542.9,17C534.6,15.9,526.3,16.8,518,16.5 M455.3,122.1c10.3-1.4,20.9,2.7,28,10.2
		c10.6,11.2,13.5,28.4,9,42.9c-2.9,9.5-9.5,17.9-18.3,22.5c-10.5,5.4-23.9,4.5-33.4-2.5c-20.2-14.5-21.5-47.6-3.6-64.4
		C441.9,126.1,448.4,122.8,455.3,122.1 M452.3,127.4c-6.8,1.8-12.7,6.3-16.7,12c-9.4,13.5-8.9,33.2,1.4,46.1
		c4.9,6.1,12.1,10.4,19.9,11c7.7,0.7,15.6-2.2,21.2-7.5c15.7-14.4,15.2-42.7-1.4-56.2C470.1,127.2,460.7,125.1,452.3,127.4
		 M538.2,127.9c9.8-7.2,23.7-7.9,34.3-2c4.5,2.4,8.2,6,11.4,10c-1.3,0.9-2.5,1.9-3.8,2.8c-4.9-6.4-12.1-11.2-20.2-11.9
		c-9.3-1.2-18.8,3-24.8,10.2c-10.2,12.3-11.2,31-3.2,44.6c5,8.8,14.6,15.1,24.9,14.9c14.6,0,27-13.9,26.4-28.4c-8.9,0-17.8,0-26.8,0
		c0-1.6,0-3.2,0-4.8c10.5,0,20.9,0,31.4,0c0,12,0,24,0,36c-1.6,0-3.2,0-4.8,0c0-4.4,0-8.9,0-13.3c-3.9,5.7-9.2,10.7-15.7,13.1
		c-11.2,4.4-24.5,1.2-33-7.2C516.7,175.2,518.1,142.3,538.2,127.9 M786.6,124.4c12.5-5.8,30.4-1.4,35.7,12.3c-1.5,0.5-3,0.9-4.4,1.4
		c-6-13.8-27.3-15.3-36.5-4c-3.1,3.7-3.7,9.2-1.4,13.3c2.5,4.6,7.3,7.6,12.4,8.8c7,2,14.7,1.9,21.2,5.7c6.1,3.4,11.2,9.5,11.5,16.7
		c0.5,6.1-2.7,12.1-7.3,15.9c-9.5,8-24,8.8-34.7,2.9c-5.2-2.7-9.1-7.5-10.9-13c1.5-0.4,3-0.9,4.5-1.3c4.5,12.5,20.9,16.3,32.2,11.4
		c6.1-2.5,11.7-8,11.6-15c0-6.9-5.6-12.4-11.7-14.8c-7.9-2.9-16.8-2.5-24.3-6.6c-5.9-3.3-10.7-9.5-10.5-16.5
		C773.8,133.9,779.7,127.3,786.6,124.4 M348,123.8c10.6,0,21.3,0,32,0c4.2-0.1,8.5,1.3,11.8,4c10,8.2,9.4,26-1.6,33.1
		c-3.6,2.6-8.1,2.9-12.4,2.9c7.9,11.8,15.8,23.7,23.6,35.5c-1.9,0-3.7,0-5.6,0c-7.9-11.9-15.8-23.7-23.6-35.6c-6.5,0-13,0-19.6,0
		c0,11.9,0,23.8,0,35.6c-1.5,0-3.1,0-4.6,0C348,174.2,348,149,348,123.8 M352.6,128.5c0,10.2,0,20.4,0,30.6c8.7,0,17.5,0,26.2,0
		c3,0,6.1-0.3,8.6-1.9c8.9-5.7,9-20.6,0.4-26.5c-2.3-1.7-5.2-2.2-7.9-2.2C370.8,128.5,361.7,128.5,352.6,128.5 M618.2,123.8
		c15.4,0,30.8,0,46.1,0c0,1.6,0,3.2,0,4.8c-13.8,0-27.6,0-41.4,0c0,10.3,0,20.5,0,30.7c13.8,0,27.6,0,41.4,0c0,1.5,0,3.1,0,4.6
		c-13.8,0-27.6,0-41.4,0c0,10.3,0,20.5,0,30.8c13.8,0,27.6,0,41.4,0c0,1.6,0,3.2,0,4.7c-15.4,0-30.8,0-46.1,0
		C618.2,174.2,618.2,149,618.2,123.8 M694.9,123.8c10.7,0,21.4,0,32.1,0c4.5-0.1,9,1.5,12.3,4.5c9.4,8.4,8.6,25.7-2.1,32.6
		c-3.6,2.6-8.2,2.9-12.4,2.9c7.9,11.8,15.8,23.7,23.6,35.5c-1.9,0-3.7,0-5.6,0c-7.9-11.9-15.7-23.8-23.7-35.6c-6.5,0-13,0-19.6,0
		c0,11.9,0,23.7,0,35.6c-1.6,0-3.1,0-4.6,0C694.9,174.2,694.9,149,694.9,123.8 M699.5,128.5c0,10.2,0,20.4,0,30.6
		c8.8,0,17.6,0,26.4,0c3.1,0,6.5-0.4,9.1-2.3c8.3-6,8.3-20.3-0.2-26.2c-2.3-1.7-5.1-2.2-7.9-2.1
		C717.8,128.5,708.6,128.5,699.5,128.5 M355.3,240.1c9.3-7,22.3-8,33-3.9c6.3,2.4,11.7,7.2,14.2,13.6c-4.2,1.6-8.5,3.1-12.7,4.6
		c-5.3-7.8-16.8-8.7-24.6-4.5c-2.8,1.3-5.4,4.2-4.3,7.5c1.7,3.8,5.8,5.6,9.6,6.5c7.9,1.9,16.4,2.1,23.5,6.5c7,4,12.4,11.7,11.7,20
		c-0.3,7.4-5.3,13.8-11.5,17.5c-11.7,7-27.6,6.8-39-0.7c-4.5-2.9-7.9-7.4-9.8-12.5c4.3-1.3,8.7-2.6,13-3.9c2.7,5.1,8.3,7.7,13.8,8.3
		c5.9,0.6,12.2-0.6,16.8-4.5c2.1-1.8,3.9-5,2.5-7.8c-2-3.8-6.1-6-10.1-6.9c-7.7-1.8-15.9-2-22.8-6c-6.3-3.5-11.5-9.9-11.6-17.4
		C346.5,250.1,350.2,243.9,355.3,240.1 M1002.6,239.4c11-7.5,26.6-7.5,37.7-0.1c3.9,2.5,6.8,6.3,8.5,10.6c-4.2,1.5-8.5,3.1-12.7,4.6
		c-6.2-8.9-20.9-9.2-28.2-1.7c-2.9,3.6,0.6,8,4.1,9.6c8.1,3.6,17.4,2.7,25.4,6.6c7.6,3.5,14.3,10.8,14.5,19.6
		c0.5,8.2-4.8,15.6-11.7,19.5c-11.8,6.9-27.6,6.7-39-1c-4.5-2.9-7.8-7.4-9.6-12.3c4.3-1.4,8.7-2.6,13-3.9c2.6,5,8.1,7.6,13.4,8.2
		c5.9,0.7,12.3-0.4,17-4.3c2-1.7,3.9-4.5,2.9-7.2c-1.4-3.8-5.2-6-8.9-7.2c-7.9-2.2-16.6-2.1-24-6.2c-6.5-3.5-11.9-10-12-17.6
		C992.8,249.6,997,243.2,1002.6,239.4 M429.5,235.8c22.5,0,44.9,0,67.4,0c0,4.5,0,9.1,0,13.6c-8.9,0-17.8,0-26.8,0
		c0,20.6,0,41.2,0,61.9c-4.6,0-9.2,0-13.8,0c0-20.6,0-41.2,0-61.9c-9,0-17.9,0-26.9,0C429.5,244.8,429.5,240.3,429.5,235.8
		 M527.4,235.8c4.6,0,9.2,0,13.8,0c0,16,0,31.9,0,47.9c0,3.8,1.6,7.6,4.3,10.3c6.3,5.9,16.1,6.9,24,4.1c6.1-2,11.1-7.7,10.9-14.3
		c0.1-16,0-31.9,0-47.9c4.6,0,9.2,0,13.7,0c0,16.3,0.1,32.6,0,48.8c-0.1,9.3-5.5,18-13.2,22.9c-11.6,7.4-27.6,7.6-39.4,0.5
		c-8.2-4.9-13.9-13.8-14-23.5C527.3,268.3,527.4,252,527.4,235.8 M624.5,235.8c9.5,0,19,0,28.5,0c9.4,0,18.7,3.8,25.4,10.4
		c13.4,12.9,14.7,35.8,3.6,50.5c-6.5,8.8-17.2,14.3-28.1,14.5c-9.8,0.1-19.6,0-29.3,0C624.5,286.1,624.5,260.9,624.5,235.8
		 M638.3,297.5c5.2,0,10.5,0.1,15.7,0c6.5-0.3,12.9-3.6,16.8-8.8c5.8-7.6,6.5-18.6,2.1-27c-3.5-6.7-10.5-11.4-18-12
		c-5.5-0.5-11.1-0.1-16.7-0.2C638.2,265.4,638.3,281.5,638.3,297.5 M718.6,235.8c17.7,0,35.4,0,53.1,0c0,4.5,0,9.1,0,13.6
		c-13.2,0-26.3,0-39.5,0c0,5.8,0,11.5,0,17.2c13.2,0,26.3,0,39.5,0c0,4.6,0,9.2,0,13.8c-13.2,0-26.3,0-39.5,0c0,5.7,0,11.4,0,17.1
		c13.2,0,26.3,0,39.5,0c0,4.6,0,9.2,0,13.8c-17.7,0-35.4,0-53.1,0C718.6,286.1,718.6,260.9,718.6,235.8 M802.1,235.8
		c5.1,0,10.2,0,15.2,0c12.5,17.9,25,35.7,37.5,53.5c0-17.8,0-35.7,0-53.6c4.6,0,9.2,0,13.8,0c0,25.2,0,50.3,0,75.5
		c-5.1,0-10.2,0-15.2,0c-12.5-17.9-25-35.7-37.5-53.6c0,17.9,0,35.7,0,53.6c-4.6,0-9.2,0-13.7,0
		C802.1,286.1,802.1,260.9,802.1,235.8 M899.1,235.8c22.5,0,44.9,0,67.4,0c0,4.5,0,9.1,0,13.6c-8.9,0-17.8,0-26.8,0
		c0,20.6,0,41.2,0,61.9c-4.6,0-9.2,0-13.7,0c0-20.6,0-41.2,0-61.9c-9,0-17.9,0-26.9,0C899.1,244.8,899.1,240.3,899.1,235.8
		 M1087.3,235.7c4.8,0,9.6,0,14.5,0c1.2,12.7-3.9,25.6-13.3,34.2c-2.1-2-4.3-4-6.4-6C1086.6,255.3,1088.6,245.4,1087.3,235.7
		 M356.4,351.2c8.8-6,20.5-6.9,30.5-3.6c6.9,2.3,13,7.3,15.7,14.1c-4.2,1.6-8.5,3.1-12.8,4.6c-5.8-8.4-18.7-8.9-26.5-3.2
		c-2.8,1.8-3.7,6-1.2,8.4c4.6,4.9,11.8,4.9,17.9,6.2c8.4,1.2,16.9,4.8,21.9,11.9c4.6,6.1,5.1,14.8,1.3,21.4
		c-3.9,6.8-11.2,11.1-18.6,13c-9.8,2.3-20.8,1-29.2-4.6c-4.6-3-8-7.4-9.9-12.5c4.3-1.3,8.7-2.6,13-3.9c2.9,5.6,9.4,8.2,15.4,8.4
		c5.8,0.3,12.1-1.2,16.2-5.6c1.9-1.9,2.7-5,1.2-7.4c-2.5-4.1-7.4-6-12-6.8c-7.9-1.5-16.4-2.1-23.1-7.1c-5.4-3.8-9.5-10.1-9.2-16.9
		C346.9,360.9,351,354.9,356.4,351.2 M465.2,346c10.5-1.4,21.5,1.8,29.4,8.9c14.2,12.5,17.2,35.1,7.8,51.3
		c-4.7,8.2-12.5,14.7-21.6,17.4c-10.9,3.2-23.2,1.4-32.4-5.5c-12.2-8.8-17.9-24.9-15.4-39.5C435.2,362.3,448.7,347.8,465.2,346
		 M464.2,360.1c-7.4,1.8-13.6,7.7-16.2,14.8c-3.6,9.7-2,21.6,5.3,29.2c7.7,8.4,21.8,9.5,30.8,2.6c12.7-9.5,13.5-30.6,1.9-41.2
		C480.3,360.2,471.8,358.2,464.2,360.1 M563.3,347.1c14.2-4.1,30.4,1,39.5,12.7c-3.5,2.9-7.1,5.7-10.6,8.6c-3.3-3.6-7.2-6.7-12-8
		c-8.4-2.5-18.2,0.1-24,6.6c-10.6,11.4-8.7,32.2,4.7,40.7c9.8,6.5,24,3.9,31.3-5.3c3.6,2.9,7.1,5.7,10.7,8.6
		c-11.3,14.8-34,18.5-49.5,8.2c-15-9.5-21.1-29.5-15.9-46.1C541,360.8,550.9,350.5,563.3,347.1 M631.4,347.6c4.5,0,9.1,0,13.6,0
		c0,25.2,0,50.3,0,75.5c-4.5,0-9.1,0-13.6,0C631.4,398,631.4,372.8,631.4,347.6 M676.6,347.6c17.7,0,35.3,0,53,0c0,4.6,0,9.2,0,13.8
		c-13.1,0-26.2,0-39.4,0c0,5.8,0,11.5,0,17.2c13.1,0,26.3,0,39.4,0c0,4.5,0,9.1,0,13.6c-13.1,0-26.2,0-39.4,0c0,5.7,0,11.5,0,17.2
		c13.1,0,26.2,0,39.4,0c0,4.5,0,9.1,0,13.6c-17.7,0-35.3,0-53,0C676.6,398,676.6,372.8,676.6,347.6 M760.1,347.6c22.5,0,45,0,67.5,0
		c0,4.6,0,9.2,0,13.8c-9,0-17.9,0-26.9,0c0,20.6,0,41.2,0,61.7c-4.6,0-9.1,0-13.6,0c0-20.6,0-41.2,0-61.7c-9,0-18,0-27,0
		C760.1,356.8,760.1,352.2,760.1,347.6 M852.4,347.6c5.7,0,11.4,0,17.1,0c6.4,8.7,12.9,17.5,19.3,26.2c6.5-8.7,13-17.5,19.5-26.2
		c5.7,0,11.4,0,17.1,0c-9.9,13.4-19.9,26.8-29.8,40.2c0,11.8,0,23.5,0,35.3c-4.6,0-9.1,0-13.6,0c-0.1-11.8,0.3-23.5-0.2-35.2
		C872.3,374.2,862.1,361.1,852.4,347.6L852.4,347.6z"/>
	<path fill="#F8D845" d="M115.5,160.6c26.9,0,53.8,0,80.8,0c0,90.1,0,180.2,0,270.4c-26.9,0-53.8,0-80.7,0
		C115.5,340.9,115.5,250.8,115.5,160.6L115.5,160.6z"/>
	<path fill="#28A3AD" d="M0,307.4c26.9,0,53.8,0,80.8,0c0,41.2,0,82.4,0,123.6c-26.9,0-53.8,0-80.8,0C0,389.8,0,348.6,0,307.4
		L0,307.4z"/>
</g>
</svg>
