<svg id="Layer_1" data-name="Layer 1" xmlns="http://www.w3.org/2000/svg" viewBox="0 0 49.25 49.25"><title>Icons</title><path d="M25.82,14.13a7.35,7.35,0,0,1,5,3.3.8.8,0,0,0,.5.46.74.74,0,0,0,.61-.05.77.77,0,0,0,.34-.54.76.76,0,0,0-.14-.6,8.69,8.69,0,0,0-6.4-4.09l-.33,0V9.85a.76.76,0,1,0-1.52,0v2.68l-.34,0a8,8,0,0,0-4.24,1.62A6.07,6.07,0,0,0,17,18.94a5,5,0,0,0,2.52,4.4A18.36,18.36,0,0,0,23,24.82l.89.32v10l-.44-.08a7.51,7.51,0,0,1-5-3.34.81.81,0,0,0-.5-.46.85.85,0,0,0-.26,0,.68.68,0,0,0-.35.09.77.77,0,0,0-.33.54.76.76,0,0,0,.14.6,8.73,8.73,0,0,0,6.4,4.13l.33,0V39.4a.76.76,0,1,0,1.52,0V36.72l.33,0A8.12,8.12,0,0,0,30,35a6,6,0,0,0,2.24-4.72,5.1,5.1,0,0,0-2.52-4.44,18.37,18.37,0,0,0-3.41-1.48l-.89-.32v-10Zm-2,9.39-.5-.18a18.4,18.4,0,0,1-3-1.31,3.08,3.08,0,0,1-1.78-3.09,4.39,4.39,0,0,1,1.7-3.56,7.11,7.11,0,0,1,3.17-1.29l.42-.05Zm2,2.34a18.36,18.36,0,0,1,3,1.31,3.14,3.14,0,0,1,1.78,3.13A4.35,4.35,0,0,1,29,33.83a6.52,6.52,0,0,1-3.16,1.29l-.43.06V25.69Z" style="fill:#8bc052"/><path d="M24.63,0A24.63,24.63,0,1,0,49.25,24.63,24.65,24.65,0,0,0,24.63,0Zm0,47.73a23.1,23.1,0,1,1,23.1-23.1A23.13,23.13,0,0,1,24.63,47.73Z" style="fill:#8bc052"/></svg>