<svg id="Layer_1" data-name="Layer 1" xmlns="http://www.w3.org/2000/svg" viewBox="0 0 49.25 49.25"><title>Icons</title><path d="M38.32,21.07H36.75a.52.52,0,0,1-.49-.38,11.39,11.39,0,0,0-.62-1.49.56.56,0,0,1,.09-.62l1.12-1.12a2.05,2.05,0,0,0,0-2.9l-2.13-2.13a2,2,0,0,0-2.9,0l-1.12,1.12a.55.55,0,0,1-.6.09A11.53,11.53,0,0,0,28.55,13a.52.52,0,0,1-.36-.48V11a2,2,0,0,0-.56-1.5,2,2,0,0,0-1.47-.61h-3a2,2,0,0,0-2.07,2.07v1.57a.52.52,0,0,1-.38.49,11.4,11.4,0,0,0-1.49.62.56.56,0,0,1-.62-.08l-1.12-1.12a2,2,0,0,0-2.9,0l-2.13,2.13a2.05,2.05,0,0,0,0,2.9l1.12,1.12a.55.55,0,0,1,.1.6A11.33,11.33,0,0,0,13,20.68a.52.52,0,0,1-.49.36H11a2.1,2.1,0,0,0-2.09,2.1v3a2,2,0,0,0,2.07,2.07H12.5a.52.52,0,0,1,.49.38,11.27,11.27,0,0,0,.63,1.49.56.56,0,0,1-.09.63l-1.12,1.12a2.06,2.06,0,0,0,0,2.9l2.13,2.13a2,2,0,0,0,2.9,0l1.12-1.12a.58.58,0,0,1,.6-.09,11.49,11.49,0,0,0,1.53.64.51.51,0,0,1,.36.48v1.57a2.07,2.07,0,0,0,2.07,2.07h3a2.07,2.07,0,0,0,2.07-2.07V36.77a.52.52,0,0,1,.38-.49,11.34,11.34,0,0,0,1.49-.62.56.56,0,0,1,.63.08l1.12,1.12a2,2,0,0,0,2.9,0l2.13-2.13a2.06,2.06,0,0,0,0-2.9l-1.12-1.12a.55.55,0,0,1-.1-.6,11.56,11.56,0,0,0,.64-1.53.52.52,0,0,1,.48-.36h1.57a2.07,2.07,0,0,0,2.07-2.07v-3A2.07,2.07,0,0,0,38.32,21.07Zm-3.46,7h0a9,9,0,0,1-.55,1.31,2.1,2.1,0,0,0,.36,2.39l1.12,1.12a.5.5,0,0,1,0,.73l-2.13,2.13a.56.56,0,0,1-.72,0l-1.13-1.13a2.1,2.1,0,0,0-2.39-.36c-.41.21-.86.38-1.31.55a2.12,2.12,0,0,0-1.42,2v1.57a.54.54,0,0,1-.52.52h-3a.54.54,0,0,1-.52-.52V36.8a2.12,2.12,0,0,0-1.42-2,9,9,0,0,1-1.31-.55,2,2,0,0,0-.9-.21,2.23,2.23,0,0,0-1.49.58l-1.15,1.12a.55.55,0,0,1-.72,0l-2.11-2.14a.5.5,0,0,1,0-.73l1.12-1.12A2.09,2.09,0,0,0,15,29.4c-.21-.42-.39-.89-.55-1.3a2.13,2.13,0,0,0-2-1.43H10.93a.54.54,0,0,1-.52-.52v-3a.54.54,0,0,1,.52-.52H12.5a2.12,2.12,0,0,0,2-1.42A8.78,8.78,0,0,1,15,19.89a2.09,2.09,0,0,0-.36-2.39l-1.12-1.16a.5.5,0,0,1,0-.73l2.13-2.13a.56.56,0,0,1,.72,0l1.13,1.13a2.1,2.1,0,0,0,2.39.36c.41-.21.87-.38,1.31-.55a2.12,2.12,0,0,0,1.42-2V10.87a.54.54,0,0,1,.52-.48h3a.54.54,0,0,1,.52.52v1.57a2.11,2.11,0,0,0,1.42,2,8.81,8.81,0,0,1,1.31.55,2.1,2.1,0,0,0,2.39-.36l1.12-1.12a.56.56,0,0,1,.72,0l2.14,2.14a.5.5,0,0,1,0,.73L34.67,17.5a2.09,2.09,0,0,0-.36,2.39c.21.42.39.9.55,1.31a2.12,2.12,0,0,0,2,1.42h1.57a.54.54,0,0,1,.52.52v3a.54.54,0,0,1-.52.52H36.82A2.11,2.11,0,0,0,34.86,28.08Z" style="fill:#8bc052"/><path d="M24.66,17.93a6.72,6.72,0,1,0,6.72,6.71A6.72,6.72,0,0,0,24.66,17.93Zm5.17,6.71a5.17,5.17,0,1,1-5.17-5.17A5.17,5.17,0,0,1,29.83,24.64Z" style="fill:#8bc052"/><path d="M24.63,0A24.63,24.63,0,1,0,49.25,24.63,24.65,24.65,0,0,0,24.63,0Zm0,47.73a23.1,23.1,0,1,1,23.1-23.1A23.13,23.13,0,0,1,24.63,47.73Z" style="fill:#8bc052"/></svg>