<svg id="Layer_1" data-name="Layer 1" xmlns="http://www.w3.org/2000/svg" viewBox="0 0 49.75 49.75"><path d="M34.67,11.24H15a3.9,3.9,0,0,0-3.84,3.92V28.21a4,4,0,0,0,3.92,3.92h2.45L16.4,39.49a1,1,0,0,0,1.74.74l6.23-8.11H34.67a3.89,3.89,0,0,0,3.92-3.81V15.15A4,4,0,0,0,34.67,11.24Zm2,17.07a1.93,1.93,0,0,1-2,1.86H23.9a1,1,0,0,0-.78.38L18.92,36l.72-4.73a1,1,0,0,0-.83-1.11H15.08a2,2,0,0,1-2-2V15.15a2,2,0,0,1,1.89-2H34.67a2,2,0,0,1,2,2Z" style="fill:#8bc052;stroke:#8bc052;stroke-miterlimit:10;stroke-width:0.25px"/><path d="M24.88.25A24.63,24.63,0,1,0,49.5,24.88,24.65,24.65,0,0,0,24.88.25Zm0,47.73A23.1,23.1,0,1,1,48,24.88,23.13,23.13,0,0,1,24.88,48Z" style="fill:#8bc052;stroke:#8bc052;stroke-miterlimit:10;stroke-width:0.5px"/></svg>