<svg id="Layer_1" data-name="Layer 1" xmlns="http://www.w3.org/2000/svg" viewBox="0 0 49.25 49.25"><title>Icons</title><path d="M37.56,17.23,28.8,9h0a.84.84,0,0,0-.53-.19H14.92a1.45,1.45,0,0,0-1.47,1.47V39a1.45,1.45,0,0,0,1.47,1.47h21.4A1.45,1.45,0,0,0,37.79,39V17.8A.81.81,0,0,0,37.56,17.23Zm-7.91,1.32h6.61V38.92L15,39V10.29H27.48v6.08A2.14,2.14,0,0,0,29.64,18.54Zm-.58-2.13V11.33l6,5.71H29.68A.6.6,0,0,1,29.06,16.41Z" style="fill:#8bc052;stroke:#8bc052;stroke-miterlimit:10;stroke-width:0.5px"/><rect x="17.32" y="24.24" width="8.02" height="1.54" style="fill:#8bc052;stroke:#8bc052;stroke-miterlimit:10;stroke-width:0.5px"/><rect x="17.32" y="29.11" width="16.3" height="1.54" style="fill:#8bc052;stroke:#8bc052;stroke-miterlimit:10;stroke-width:0.5px"/><rect x="17.32" y="33.98" width="16.3" height="1.54" style="fill:#8bc052;stroke:#8bc052;stroke-miterlimit:10;stroke-width:0.5px"/><path d="M24.63,0A24.63,24.63,0,1,0,49.25,24.63,24.65,24.65,0,0,0,24.63,0Zm0,47.73a23.1,23.1,0,1,1,23.1-23.1A23.13,23.13,0,0,1,24.63,47.73Z" style="fill:#8bc052;stroke:#8bc052;stroke-miterlimit:10;stroke-width:0.5px"/></svg>