<?xml version="1.0" encoding="utf-8"?>
<!-- Generator: Adobe Illustrator 22.0.1, SVG Export Plug-In . SVG Version: 6.00 Build 0)  -->
<svg version="1.1" id="Artifical_Intelligence_-_Unlocking_Possibilities"
	 xmlns="http://www.w3.org/2000/svg" xmlns:xlink="http://www.w3.org/1999/xlink" x="0px" y="0px" viewBox="0 0 469.6 39.5"
	 enable-background="new 0 0 469.6 39.5" xml:space="preserve">
<g id="Colour">
	
		<linearGradient id="SVGID_1_" gradientUnits="userSpaceOnUse" x1="93.3952" y1="102.7799" x2="442.166" y2="-41.6858" gradientTransform="matrix(1 0 0 -1 0 42)">
		<stop  offset="0" style="stop-color:#008AB5"/>
		<stop  offset="1" style="stop-color:#E32683"/>
	</linearGradient>
	<path fill="url(#SVGID_1_)" d="M76.7,19.8c-0.8,0.4-2.1,0.1-2.6-1l-0.9-2h-7.6l-0.9,2c-0.5,1.1-1.7,1.4-2.6,1c-1-0.4-1.5-1.6-1-2.6
		l6.5-14.5c0.2-0.5,0.6-0.8,1-1c0.5-0.2,1.1-0.2,1.6,0s0.8,0.6,1,1l6.5,14.5C78.1,18.1,77.7,19.3,76.7,19.8z M71.4,12.8l-2-4.5
		l-2,4.5H71.4z M95.6,19.5c-0.9,0.5-2.1,0.4-2.7-0.7l-3.5-6H89v5c0,1.1-0.9,2-2,2s-2-0.9-2-2V3.3c0-1.1,0.9-2,2-2h3.9
		c3.2,0,5.7,2.6,5.7,5.7c0,2.2-1.2,4.1-3,5l2.8,4.7C96.8,17.7,96.5,18.9,95.6,19.5z M90.8,5.3h-1.9v3.5h1.9c1,0,1.8-0.8,1.8-1.7
		C92.5,6.1,91.8,5.3,90.8,5.3z M116.2,3.6c0,1.1-0.9,2-2,2h-1.9V18c0,1.1-0.9,2-2,2s-2-0.9-2-2V5.6h-1.9c-1.1,0-2-0.9-2-2s0.9-2,2-2
		h7.8C115.3,1.6,116.2,2.5,116.2,3.6z M127.5,19.8c-1.1,0-2-0.9-2-2V3.3c0-1.1,0.9-2,2-2c1.1,0,2,0.9,2,2v14.5
		C129.5,18.9,128.6,19.8,127.5,19.8z M149,10.7c0,1-0.8,1.8-1.7,1.8h-4V18c0,1.1-0.9,2-2,2s-2-0.9-2-2V3.4c0-1.1,0.9-2,2-2h6.2
		c1.1,0,2,0.9,2,2s-0.9,2-2,2h-4.2V9h4C148.2,9,149,9.8,149,10.7z M158,20c-1.1,0-2-0.9-2-2V3.5c0-1.1,0.9-2,2-2s2,0.9,2,2V18
		C160,19.1,159.1,20,158,20z M177.3,20.2c-5.2,0-9.4-4.2-9.4-9.4s4.2-9.4,9.4-9.4c2.1,0,4,0.6,5.7,1.9c0.9,0.7,1,1.9,0.4,2.8
		c-0.7,0.9-1.9,1-2.8,0.3c-0.9-0.7-2.1-1.1-3.3-1.1c-3,0-5.4,2.5-5.4,5.4c0,3,2.4,5.4,5.4,5.4c1.2,0,2.3-0.4,3.3-1.1
		c0.9-0.6,2.1-0.5,2.8,0.4s0.5,2.1-0.4,2.8C181.4,19.5,179.4,20.2,177.3,20.2z M195.2,20c-1.1,0-2-0.9-2-2V3.5c0-1.1,0.9-2,2-2
		s2,0.9,2,2V18C197.1,19.1,196.3,20,195.2,20z M221.9,19.9c-0.8,0.4-2.1,0.1-2.6-1l-0.9-2h-7.6l-0.9,2c-0.5,1.1-1.8,1.4-2.6,1
		c-1-0.4-1.5-1.6-1-2.6l6.5-14.5c0.2-0.5,0.6-0.8,1-1c0.5-0.2,1.1-0.2,1.6,0s0.8,0.6,1,1l6.5,14.5C223.4,18.2,222.9,19.4,221.9,19.9
		z M216.6,12.9l-2-4.5l-2,4.5H216.6z M239.6,19.8h-6.2c-1.1,0-2-0.9-2-2V3.3c0-1.1,0.9-2,2-2s2,0.9,2,2v12.5h4.2c1.1,0,2,0.9,2,2
		C241.6,18.9,240.7,19.8,239.6,19.8z M262.5,19.3c-1.1,0-2-0.9-2-2V2.8c0-1.1,0.9-2,2-2s2,0.9,2,2v14.5
		C264.5,18.4,263.6,19.3,262.5,19.3z M286.3,2.8v14.5c0,1.8-2.2,2.6-3.5,1.4c-0.2-0.2-0.5-0.6-0.7-0.9c-0.3-0.5-6.1-8.9-6.4-9.4v9
		c0,1.1-0.9,2-2,2s-2-0.9-2-2V2.8c0-1.1,0.9-2,2-2c0.7,0,1.2,0.3,1.6,0.8s4.6,6.7,7,10.2v-9c0-1.1,0.9-2,2-2
		C285.4,0.8,286.3,1.7,286.3,2.8z M304.6,2.8c0,1.1-0.9,2-2,2h-1.9v12.5c0,1.1-0.9,2-2,2s-2-0.9-2-2V4.8h-1.9c-1.1,0-2-0.9-2-2
		s0.9-2,2-2h7.8C303.7,0.8,304.6,1.7,304.6,2.8z M321.3,17.3c0,1.1-0.9,2-2,2h-6.2c-1.1,0-2-0.9-2-2V2.8c0-1.1,0.9-2,2-2h6.2
		c1.1,0,2,0.9,2,2s-0.9,2-2,2h-4.2v3.5h4c1,0,1.7,0.8,1.7,1.7c0,1-0.8,1.8-1.7,1.8h-4v3.5h4.2C320.4,15.3,321.3,16.2,321.3,17.3z
		 M336.6,19.3h-6.2c-1.1,0-2-0.9-2-2V2.8c0-1.1,0.9-2,2-2s2,0.9,2,2v12.5h4.2c1.1,0,2,0.9,2,2C338.6,18.4,337.7,19.3,336.6,19.3z
		 M353.4,19.3h-6.2c-1.1,0-2-0.9-2-2V2.8c0-1.1,0.9-2,2-2s2,0.9,2,2v12.5h4.2c1.1,0,2,0.9,2,2C355.4,18.4,354.5,19.3,353.4,19.3z
		 M363.9,19.3c-1.1,0-2-0.9-2-2V2.8c0-1.1,0.9-2,2-2s2,0.9,2,2v14.5C365.9,18.4,365,19.3,363.9,19.3z M391,10.5
		c-0.1,2.4-1,4.7-2.7,6.3c-1.7,1.7-4,2.7-6.4,2.7c-2.5,0-4.8-1-6.6-2.8c-1.7-1.8-2.6-4.1-2.6-6.6c0-5.2,4.2-9.4,9.4-9.4
		c1.6,0,3.1,0.4,4.5,1.1c1,0.5,1.3,1.7,0.8,2.7s-1.8,1.3-2.7,0.8c-0.8-0.4-1.7-0.7-2.6-0.7c-3,0-5.4,2.5-5.4,5.4
		c0,1.5,0.5,2.8,1.5,3.8s2.3,1.6,3.7,1.6c2.3,0,4.2-1.5,4.9-3.6h-4.6c-0.9,0-1.7-0.8-1.7-1.7c0-1,0.8-1.8,1.7-1.8h6.9
		C390.2,8.4,391.1,9.3,391,10.5z M408.2,17.3c0,1.1-0.9,2-2,2H400c-1.1,0-2-0.9-2-2V2.8c0-1.1,0.9-2,2-2h6.2c1.1,0,2,0.9,2,2
		s-0.9,2-2,2H402v3.5h4c1,0,1.7,0.8,1.7,1.7c0,1-0.8,1.8-1.7,1.8h-4v3.5h4.2C407.3,15.3,408.2,16.2,408.2,17.3z M429.8,2.8v14.5
		c0,1.8-2.2,2.6-3.5,1.4c-0.2-0.2-0.5-0.6-0.7-0.9c-0.3-0.5-6.1-8.9-6.4-9.4v9c0,1.1-0.9,2-2,2s-2-0.9-2-2V2.8c0-1.1,0.9-2,2-2
		c0.7,0,1.2,0.3,1.6,0.8s4.6,6.7,7,10.2v-9c0-1.1,0.9-2,2-2C428.9,0.8,429.8,1.7,429.8,2.8z M445.8,19.5c-5.2,0-9.4-4.2-9.4-9.4
		s4.2-9.4,9.4-9.4c2.1,0,4,0.6,5.7,1.9c0.9,0.7,1,1.9,0.4,2.8c-0.7,0.9-1.9,1-2.8,0.3s-2.1-1.1-3.3-1.1c-3,0-5.4,2.5-5.4,5.4
		c0,3,2.4,5.4,5.4,5.4c1.2,0,2.3-0.4,3.3-1.1c0.9-0.6,2.1-0.5,2.8,0.4c0.7,0.9,0.5,2.1-0.4,2.8C449.9,18.8,447.9,19.5,445.8,19.5z
		 M469.5,17.3c0,1.1-0.9,2-2,2h-6.2c-1.1,0-2-0.9-2-2V2.8c0-1.1,0.9-2,2-2h6.2c1.1,0,2,0.9,2,2s-0.9,2-2,2h-4.2v3.5h4
		c1,0,1.7,0.8,1.7,1.7c0,1-0.8,1.8-1.7,1.8h-4v3.5h4.2C468.6,15.3,469.5,16.2,469.5,17.3z"/>
	<g opacity="0.5">
		<path d="M259.6,35.5v-5.2h2v5.1c0,1.5,0.7,2.2,2,2.2c1.2,0,2-0.7,2-2.2v-5.2h2v5.1c0,2.8-1.5,4.1-4,4.1
			C261.1,39.5,259.6,38.2,259.6,35.5z"/>
		<path d="M270.8,30.3h1.8l4.3,5.6v-5.6h2v9.1h-1.7l-4.4-5.8v5.8h-2L270.8,30.3L270.8,30.3z"/>
		<path d="M282.4,30.3h2v7.3h4.5v1.8h-6.5V30.3z"/>
		<path d="M290.8,34.9L290.8,34.9c0-2.6,2-4.7,4.8-4.7s4.8,2.1,4.8,4.7l0,0c0,2.6-2,4.7-4.8,4.7C292.8,39.5,290.8,37.4,290.8,34.9z
			 M298.4,34.9L298.4,34.9c0-1.6-1.1-2.9-2.8-2.9c-1.6,0-2.7,1.3-2.7,2.8l0,0c0,1.6,1.1,2.9,2.8,2.9S298.4,36.4,298.4,34.9z"/>
		<path d="M303.2,34.9L303.2,34.9c0-2.6,1.9-4.7,4.7-4.7c1.7,0,2.7,0.6,3.6,1.4l-1.3,1.5c-0.7-0.6-1.4-1-2.3-1
			c-1.5,0-2.6,1.3-2.6,2.8l0,0c0,1.6,1.1,2.9,2.6,2.9c1,0,1.7-0.4,2.4-1.1l1.3,1.3c-0.9,1-2,1.6-3.7,1.6
			C305.2,39.5,303.2,37.5,303.2,34.9z"/>
		<path d="M314.5,30.3h2v4l3.7-4h2.4l-3.7,3.9l3.9,5.2h-2.4l-2.8-3.9l-1.1,1.1v2.8h-2V30.3z"/>
		<path d="M325.4,30.3h2v9.1h-2V30.3z"/>
		<path d="M330.9,30.3h1.8l4.3,5.6v-5.6h2v9.1h-1.7l-4.4-5.8v5.8h-2L330.9,30.3L330.9,30.3z"/>
		<path d="M342.1,34.9L342.1,34.9c0-2.6,2-4.7,4.8-4.7c1.6,0,2.6,0.4,3.6,1.2l-1.3,1.5c-0.7-0.6-1.3-0.9-2.4-0.9
			c-1.5,0-2.6,1.3-2.6,2.8l0,0c0,1.7,1.1,2.9,2.8,2.9c0.7,0,1.4-0.2,1.9-0.5v-1.3h-2v-1.7h4v4c-0.9,0.8-2.2,1.4-3.9,1.4
			C344,39.5,342.1,37.6,342.1,34.9z"/>
		<path d="M359.2,30.3h3.7c2.2,0,3.5,1.3,3.5,3.1l0,0c0,2.1-1.6,3.2-3.7,3.2h-1.5v2.7h-2V30.3z M362.8,34.9c1,0,1.6-0.6,1.6-1.4l0,0
			c0-0.9-0.6-1.4-1.6-1.4h-1.5v2.8C361.3,34.9,362.8,34.9,362.8,34.9z"/>
		<path d="M368.8,34.9L368.8,34.9c0-2.6,2-4.7,4.8-4.7s4.8,2.1,4.8,4.7l0,0c0,2.6-2,4.7-4.8,4.7C370.8,39.5,368.8,37.4,368.8,34.9z
			 M376.4,34.9L376.4,34.9c0-1.6-1.1-2.9-2.8-2.9c-1.6,0-2.7,1.3-2.7,2.8l0,0c0,1.6,1.1,2.9,2.8,2.9S376.4,36.4,376.4,34.9z"/>
		<path d="M380.8,38.1l1.2-1.4c0.8,0.7,1.7,1.1,2.7,1.1c0.8,0,1.3-0.3,1.3-0.9l0,0c0-0.5-0.3-0.8-1.8-1.2c-1.8-0.5-3-1-3-2.8l0,0
			c0-1.7,1.3-2.7,3.2-2.7c1.3,0,2.5,0.4,3.4,1.2l-1,1.5c-0.8-0.6-1.6-0.9-2.4-0.9s-1.2,0.4-1.2,0.8l0,0c0,0.6,0.4,0.8,2,1.2
			c1.8,0.5,2.9,1.1,2.9,2.7l0,0c0,1.8-1.4,2.8-3.3,2.8C383.3,39.5,381.9,39,380.8,38.1z"/>
		<path d="M390.3,38.1l1.2-1.4c0.8,0.7,1.7,1.1,2.7,1.1c0.8,0,1.3-0.3,1.3-0.9l0,0c0-0.5-0.3-0.8-1.8-1.2c-1.8-0.5-3-1-3-2.8l0,0
			c0-1.7,1.3-2.7,3.2-2.7c1.3,0,2.5,0.4,3.4,1.2l-1,1.5c-0.8-0.6-1.6-0.9-2.4-0.9s-1.2,0.4-1.2,0.8l0,0c0,0.6,0.4,0.8,2,1.2
			c1.8,0.5,2.9,1.1,2.9,2.7l0,0c0,1.8-1.4,2.8-3.3,2.8C392.8,39.5,391.4,39,390.3,38.1z"/>
		<path d="M400.7,30.3h2v9.1h-2V30.3z"/>
		<path d="M406.2,30.3h4.2c1,0,1.9,0.3,2.4,0.8c0.4,0.4,0.6,0.9,0.6,1.5l0,0c0,1-0.5,1.6-1.2,2c1.1,0.4,1.7,1,1.7,2.2l0,0
			c0,1.7-1.4,2.5-3.4,2.5h-4.3L406.2,30.3L406.2,30.3z M410,34c0.9,0,1.4-0.3,1.4-1l0,0c0-0.6-0.5-0.9-1.3-0.9h-2V34H410z
			 M410.6,37.6c0.9,0,1.4-0.3,1.4-1l0,0c0-0.6-0.5-1-1.5-1h-2.3v2H410.6z"/>
		<path d="M417,30.3h2v9.1h-2V30.3z"/>
		<path d="M422.6,30.3h2v7.3h4.5v1.8h-6.5V30.3z"/>
		<path d="M432,30.3h2v9.1h-2V30.3z"/>
		<path d="M439.7,32.1H437v-1.8h7.5v1.8h-2.8v7.3h-2V32.1z"/>
		<path d="M447.4,30.3h2v9.1h-2V30.3z"/>
		<path d="M453,30.3h6.9v1.8H455v1.8h4.3v1.8H455v1.9h4.9v1.8H453V30.3z"/>
		<path d="M462.4,38.1l1.2-1.4c0.8,0.7,1.7,1.1,2.7,1.1c0.8,0,1.3-0.3,1.3-0.9l0,0c0-0.5-0.3-0.8-1.8-1.2c-1.8-0.5-3-1-3-2.8l0,0
			c0-1.7,1.3-2.7,3.2-2.7c1.3,0,2.5,0.4,3.4,1.2l-1,1.5c-0.8-0.6-1.6-0.9-2.4-0.9s-1.2,0.4-1.2,0.8l0,0c0,0.6,0.4,0.8,2,1.2
			c1.8,0.5,2.9,1.1,2.9,2.7l0,0c0,1.8-1.4,2.8-3.3,2.8C464.9,39.5,463.5,39,462.4,38.1z"/>
	</g>
	<g>
		
			<linearGradient id="SVGID_2_" gradientUnits="userSpaceOnUse" x1="3.1251" y1="38.8447" x2="39.9732" y2="23.5817" gradientTransform="matrix(1 0 0 -1 0 42)">
			<stop  offset="0" style="stop-color:#008AB5"/>
			<stop  offset="1" style="stop-color:#E32683"/>
		</linearGradient>
		<path fill="url(#SVGID_2_)" d="M23.9,10.8c0,1.9-1.5,3.4-3.4,3.4s-3.4-1.5-3.4-3.4s1.5-3.4,3.4-3.4C22.4,7.4,23.9,8.9,23.9,10.8z
			 M43.1,10.8L40,14c-4.9,4.9-11.5,7.6-18.3,7.6l0,0l0,0l0,0c-7,0-13.7-2.7-18.5-7.6L0,10.8c0,0,0,0,0-0.1l3.2-3.2
			C8.1,2.7,14.6,0,21.5,0l0,0l0,0l0,0c7,0,13.6,2.7,18.5,7.6L43.1,10.8C43.2,10.8,43.2,10.8,43.1,10.8z M29.4,9.1
			c0-3.2-2.6-7.1-8.8-7.1c-4.9,0-8.8,4-8.8,8.8c0,4.9,4,8.8,8.8,8.8c1.6,0,3-0.4,4.3-1.1c0.5,0.5,1.2,0.8,1.9,0.8
			c1.4,0,2.6-1.2,2.6-2.6C29.4,16.7,29.4,9.1,29.4,9.1z"/>
	</g>
</g>
</svg>
