<?xml version="1.0" encoding="utf-8"?>
<!-- Generator: Adobe Illustrator 22.0.1, SVG Export Plug-In . SVG Version: 6.00 Build 0)  -->
<svg version="1.1" id="Best_Corporate_Relations_1_"
	 xmlns="http://www.w3.org/2000/svg" xmlns:xlink="http://www.w3.org/1999/xlink" x="0px" y="0px" viewBox="0 0 575.9 305.3"
	 style="enable-background:new 0 0 575.9 305.3;" xml:space="preserve">
<style type="text/css">
	.st0{fill:none;}
	.st1{fill:#B59141;}
</style>
<g id="Best_Corporate_Relations">
	<g>
		<path class="st0" d="M237.2,192.5h-2.1v9.7h2.1c1.4,0,2.2-0.7,2.2-2.7v-4.3C239.4,193.1,238.6,192.5,237.2,192.5z"/>
		<path class="st0" d="M145.5,79c-1.9,1.4-3.7,3.3-4.1,5.7c-0.3,2.7,1.1,5.3,3.3,6.8c4.1,3,9.1,4.6,13.7,6.8
			c1.3,0.6,2.8,1.5,2.9,3.1c0.4,1.8-0.9,3.5-2.5,4.1c-2.5,1.1-5.4,0.9-8.1,0.6c-3.1-0.5-6.1-1.2-9.1-2c0,1.8,0,3.7,0,5.5
			c5.7,1,11.6,1.7,17.5,1.1c3.9-0.6,8-2,10.5-5.1c1.7-2,1.7-4.9,0.9-7.2c-0.6-1.7-2-3-3.4-4c-3.7-2.5-8.1-3.9-12.1-5.7
			c-1.4-0.7-3-1.4-3.9-2.8c-0.6-1-0.3-2.3,0.6-3c1.4-1.3,3.4-1.8,5.3-1.8c3.8,0,7.5,0.9,11.1,2c0-3,0-6,0-9c-4.2,1.8-9,3-13.6,1.9
			c-3.5-0.8-6.4-3.4-7.7-6.7c-1.5-3.7-1.3-8.1,0.3-11.7c1-2.3,2.8-4.6,5.3-5.3c5.1-1.6,10.6-0.4,15.5,1.4c0-1.8,0-3.6,0-5.4
			c-4.8-1-9.8-1.6-14.7-1.2c-3,0.2-6.1,1-8.6,2.8c-3.9,2.8-6,7.4-6.6,12.1c-0.3,3.5,0.2,7.2,1.6,10.5
			C140.5,75.2,142.9,77.4,145.5,79z"/>
		<path class="st0" d="M429.8,109.6h0.2c0,0.6,0.1,1.2,0.1,1.8l0.3-0.2l-0.1,0.4h0.4v0.3c0.1,0,0.2,0,0.3,0c0.5,0.2,1.1,0.3,1.7,0.3
			v-0.3c0.3-0.1,0.6-0.3,0.9-0.4c0.4-0.8,0.4-1.8,0.4-2.7c0-0.2,0-0.7,0-0.9c0.4-1.8-0.1-3.7-0.1-5.5c-0.2-0.3-0.5-0.6-0.7-0.9
			c-0.7-0.1-1.5-0.1-2.2,0c-0.2,0.3-0.5,0.5-0.7,0.7c0,0.4-0.1,0.8-0.1,1.2H430C429.8,105.5,429.8,107.6,429.8,109.6z"/>
		<path class="st0" d="M269.1,192.5H267v8.8h1.8c1.7,0,2.7-0.7,2.7-3v-2.8C271.4,193.4,270.7,192.5,269.1,192.5z"/>
		<path class="st0" d="M223.1,198.2v-2.8c0-2-0.7-3-2.3-3h-2.2v8.8h1.8C222,201.3,223.1,200.5,223.1,198.2z"/>
		<polygon class="st0" points="285.4,193.4 283.2,208 287.6,208 		"/>
		<path class="st0" d="M226.2,87.2c0.4-0.9,0.5-2.1-0.1-3c-0.9-0.7-2.2-0.4-3.3-0.5c-0.1,1.4,0,2.8,0,4.2
			C223.8,87.8,225.4,88.3,226.2,87.2z"/>
		<path class="st0" d="M250.4,195v15.5c0,2,0.9,2.8,2.3,2.8s2.3-0.8,2.3-2.8V195c0-2.1-0.9-2.8-2.3-2.8S250.4,192.9,250.4,195z"/>
		<path class="st0" d="M423.5,105.2c0-0.1-0.1-0.3-0.2-0.4h0.3c0-0.7,0-1.4,0-2.1h-0.4c0-0.1,0.1-0.3,0.2-0.4
			c-1.1-0.7-2.3-0.7-3.6-0.6c0,1.5,0,2.9,0,4.4C421.2,105.9,422.5,106.1,423.5,105.2z"/>
		<path class="st0" d="M400.9,93.8c1,0.8,2.8,0.3,3.1-1.1c0.3-1.9,0.1-3.8,0.1-5.8c0-0.9,0.1-2-0.5-2.8c-0.5-0.7-1.4-0.7-2.1-0.5
			c-0.9,0.2-1.4,1-1.4,1.9c-0.1,2,0,4,0,6C400.1,92.3,400.1,93.3,400.9,93.8z"/>
		<path class="st0" d="M413.2,105.3l0.2-0.1c0-0.1-0.1-0.4-0.1-0.5h0.3c0-0.7,0-1.4,0-2.1h-0.2c-0.1-0.3-0.3-0.5-0.4-0.8
			c-1-0.3-2.1-0.3-3.2-0.3c0,1.4,0.1,2.9-0.2,4.3C410.8,105.8,412.2,106.2,413.2,105.3z"/>
		<path class="st0" d="M123,197v-1.6c0-2-0.7-3-2.3-3h-2.2v7.6h1.8C122,200,123,199.3,123,197z"/>
		<path class="st0" d="M192,241.5c-2.6,0-4.3,1.4-4.3,5.2V275c0,3.8,1.7,5.2,4.3,5.2s4.3-1.4,4.3-5.2v-28.3
			C196.3,242.9,194.6,241.5,192,241.5z"/>
		<path class="st0" d="M204.3,192.1c-1.4,0-2.3,0.8-2.3,2.8v15.5c0,2,0.9,2.8,2.3,2.8c1.4,0,2.3-0.8,2.3-2.8V195
			C206.7,192.9,205.8,192.1,204.3,192.1z"/>
		<path class="st0" d="M399.6,110.8c0,0.1-0.1,0.3-0.1,0.4c0.2,0.2,0.5,0.5,0.8,0.7c0.1,0,0.2,0,0.3,0.1c0.4,0.1,0.8,0.2,1.2,0.3
			c0.4-0.3,0.9-0.5,1.3-0.7c0-0.1-0.1-0.3-0.1-0.4h0.4c0.1-2.3,0-4.5,0.1-6.8c0-0.8,0.1-1.6-0.5-2.3c-0.6-0.8-1.7-0.5-2.6-0.4
			c-0.2,0.2-0.4,0.4-0.7,0.7c-0.2,0.6-0.3,1.1-0.3,1.8c0,2.3,0,4.5,0,6.8L399.6,110.8z"/>
		<path class="st0" d="M375.3,107.2c0,1.3,0,2.6,0.1,3.9c0.2,0.2,0.4,0.5,0.7,0.7c0.6,0.2,1.2,0.3,1.9,0.4v-0.4
			c0.1,0,0.4,0.1,0.5,0.2l0.1-0.2c0.5-0.5,0.7-1.2,0.7-1.9h0.1c0-2,0-4,0-5.9c-0.1-0.6-0.2-1.1-0.3-1.6c-0.2-0.3-0.4-0.5-0.7-0.7
			c-0.9-0.2-1.8-0.1-2.6,0.3c-0.7,1.6-0.3,3.4-0.4,5.1l-1.7,0.1l0,0H375.3z"/>
		<polygon class="st0" points="383.6,193.4 381.4,208 385.8,208 		"/>
		<path class="st0" d="M343.4,111.1c0,0.1-0.1,0.3-0.1,0.4c0.4,0.2,0.9,0.5,1.3,0.7c0.4-0.1,0.8-0.1,1.2-0.3c0.1,0,0.2,0,0.3-0.1
			c0.1-0.1,0.3-0.2,0.4-0.3c0.1-0.1,0.2-0.3,0.3-0.4c0-0.1,0.1-0.2,0.1-0.3c0.4-2.7,0.1-5.5,0.2-8.3h-0.3c0-0.1,0.1-0.4,0.2-0.6
			h-0.4v-0.3l-0.3,0.1l0.1-0.3c-0.8-0.1-1.6-0.1-2.4,0l0.1,0.2c-0.2,0.1-0.5,0.3-0.6,0.4c-0.2,0.6-0.3,1.2-0.3,1.8
			c0,2.4,0,4.7,0.1,7.1L343.4,111.1z"/>
		<path class="st0" d="M422.7,192.1c-1.4,0-2.3,0.8-2.3,2.8v15.5c0,2,0.9,2.8,2.3,2.8s2.3-0.8,2.3-2.8V195
			C425,192.9,424.1,192.1,422.7,192.1z"/>
		<path class="st0" d="M292.3,108.1h-0.2c0-0.4-0.1-0.9-0.1-1.3c-0.1-0.5-0.3-1-0.4-1.4c-0.1-0.5-0.1-1.1-0.2-1.6h-0.2
			c0-0.5-0.1-1-0.1-1.5c-0.1,0-0.4,0-0.5,0c0,0.2,0,0.7,0,1h-0.2c-0.1,0.5-0.1,1.1-0.2,1.6s-0.2,0.9-0.3,1.4
			c-0.2,0.9-0.4,1.8-0.5,2.7c1,0,2,0,3,0C292.3,108.8,292.3,108.3,292.3,108.1z"/>
		<path class="st0" d="M413.8,260.4c-2.6,0-4.3,1.4-4.3,5.2v9.4c0,3.8,1.6,5.1,4.3,5.1s4.3-1.3,4.3-5.1v-9.4
			C418.1,261.8,416.5,260.4,413.8,260.4z"/>
		<path class="st0" d="M321.7,105.5l0.2,0.1c0.1-0.4,0.3-0.7,0.4-1c0-0.7,0-1.4-0.2-2.1c0-0.1-0.1-0.2-0.1-0.3
			c-0.4-0.2-0.8-0.4-1.2-0.6c-0.8,0-1.5,0-2.3,0c0,1.4,0,2.9,0,4.4C319.6,105.9,320.7,106,321.7,105.5z"/>
		<path class="st0" d="M302.3,101.8c-0.9-0.4-1.9-0.2-2.8-0.3c-0.1,0.1-0.2,0.2-0.3,0.3c0,3.4,0,6.7,0,10.1c1,0,2.1,0,3.1-0.1v-0.3
			c0.1,0,0.4,0.1,0.5,0.1v-0.3c0.1-0.4,0.3-0.7,0.4-1.1h0.1c0-2,0-4,0-5.9c0-0.8-0.3-1.5-0.5-2.2h-0.3v-0.3
			C302.6,101.8,302.4,101.8,302.3,101.8z"/>
		<path class="st0" d="M308.2,92.7c0.2,1.5,2.3,1.9,3.3,0.9c0.8-0.8,0.5-1.9,0.6-2.9c-0.1-2,0.1-4-0.2-5.9c-0.3-1.2-1.6-1.4-2.6-1.1
			c-1.1,0.3-1.2,1.7-1.2,2.7C308.1,88.5,307.9,90.6,308.2,92.7z"/>
		<path class="st0" d="M354.3,241.5c-2.6,0-4.3,1.4-4.3,5.2V275c0,3.8,1.6,5.2,4.3,5.2s4.3-1.4,4.3-5.2v-28.3
			C358.6,242.9,356.9,241.5,354.3,241.5z"/>
		<path class="st0" d="M358.8,87.6c0.9-0.6,0.7-1.9,0.5-2.9c-0.7-1.3-2.4-0.9-3.6-1c0,1.4,0,2.8,0,4.2
			C356.7,87.9,357.9,88.1,358.8,87.6z"/>
		<path class="st0" d="M338.3,192.5h-2.2v8.8h1.8c1.7,0,2.7-0.7,2.7-3v-2.8C340.6,193.4,339.9,192.5,338.3,192.5z"/>
		<path class="st0" d="M275,92.6c0.2-1.8,0-3.6,0.1-5.4c0-1,0.1-2.1-0.4-3c-0.5-0.8-1.5-0.8-2.3-0.6c-0.8,0.2-1.3,1-1.3,1.8
			c-0.1,1.7,0,3.5,0,5.2c0,0.9,0,1.8,0.3,2.6C272.3,94.7,274.8,94.3,275,92.6z"/>
		<path class="st0" d="M253.9,87.6c0.9-0.7,0.7-2,0.5-2.9c-0.7-1.3-2.4-0.9-3.6-1c0,1.4,0,2.8,0,4.2C251.9,87.9,253,88.1,253.9,87.6
			z"/>
		<path class="st0" d="M120.5,204.1h-2v8.8h2.6c1.5,0,2.3-0.7,2.3-2.8v-2.5C123.4,205,122.6,204.1,120.5,204.1z"/>
		<path class="st1" d="M542.9,203c0.3-0.1,0.6-0.4,0.7-0.7c0.2-0.4,2-2.9,2.3-3.4c6.6,1.7,12.7-2.7,16.5-7.3
			c4.7-5.4,7.7-11.3,10.5-18c1.4-3.3,3.3-9.1,2.8-13.1c-0.6,0.2-1.2,0.3-1.8,0.5c-4.3,1.5-11.3,5-18.2,13c-5.9,6.9-8.7,13.8-10.7,24
			c-0.5,0.6-0.9,1.1-1.4,1.6c3-11.8,4.4-24.3,4.5-37.3c0.3-0.2,0.5-0.6,0.6-1c0.2-0.4,1.4-3.2,1.6-3.8c6.7-0.4,11.2-6.7,13.7-12.4
			c3-6.7,4.6-13.1,5.6-20.5c0.5-3.6,0.8-9.9-0.1-14c-0.6,0.4-1.1,0.7-1.6,1.1c-3.8,2.8-10.1,8.5-14.7,18.4c-4,8.6-4.6,16.3-4,26.7
			c-0.4,0.8-0.8,1.5-1.2,2.3c0-7.2-0.4-14.6-1.1-22.1c-0.4-4.7-1.1-9.3-1.9-13.9c0.5,0,0.7-0.7,0.7-1.3c0.1-0.5,0.8-3.4,0.8-4
			c6.1-2.6,8.8-8.8,9.9-14.9c1.3-7.1,1.3-14.5,0.7-21.8c-0.3-3.6-1.4-9.6-3.1-13.1c-0.4,0.5-0.8,1-1.2,1.5
			c-6,7.1-9.8,15.9-10.3,26.1c-0.4,7.2,0.7,14,2.8,21.4c-0.2,1.2-0.5,2.3-0.7,3.5c-2.2-11.6-5.7-22.8-10.1-33.4
			c0.3-0.3,0.3-0.8,0.2-1.3c0-0.4-0.1-3.5-0.2-4.1c5.3-4,6.8-11,6.6-17.3c-0.2-7.2-1.7-14.3-3.7-21.1c-1-3.4-3.3-8.9-5.6-11.8
			c-0.3,0.6-0.6,1.2-0.9,1.8c-2.2,4.4-4.9,11.3-4.7,22.3c0.1,9.5,2.5,17.7,7,25.3c0,1,0.1,2.3,0.1,3.5c-5-11.3-11.1-21.9-18.2-31.7
			c0.2-0.3,0.1-0.8,0-1.3c-0.1-0.6-0.4-3.2-0.6-3.9c4.4-3.5,4.8-12.2,3.4-18c-0.7-4-2.1-7.7-3.8-11.3c-3.3-6.6-7.2-12.4-12.7-16.8
			c-0.2,0.7-0.3,1.3-0.4,1.9c-0.9,5.3-1.1,12.7,0.8,22.2c2,9,5.5,15.6,11.7,22.2c0.2,1.3,0.3,2.4,0.5,3.6
			c-6.1-8.2-12.9-15.8-20.2-22.8c-0.1-0.1-0.1-0.1-0.2-0.1c0-0.1,0-0.2-0.2-0.3c-1-0.9-2-1.7-3-2.5c0.9-5-1.4-10.2-5.9-14.4
			C477.9,4.8,470,3.3,461.8,0c-0.4-0.2-0.7-0.3-1.1-0.5c0,0.3,0.1,0.6,0.2,0.9c1.5,5.8,4.8,12.2,8.8,16.5c1.7,2,3.7,3.6,5.7,5
			c4.6,3,9.4,4.5,14.4,4.5c0.9,0.8,1.6,1.3,2.6,2.2c0.4,0.3,0.5,0.4,0.7,0.3c-0.2,0.1-0.2,0-0.1,0.2c5.6,5.2,10.9,10.9,15.8,17.1
			c-1-0.1-2.1-0.2-3.1-0.4c-2-6.5-7.8-9.3-13.1-10.4c-6.3-1.3-13.3,0.7-20.8,1.7c-0.4,0.1-0.8,0.1-1.2,0.1c0.1,0.2,0.3,0.4,0.5,0.7
			c3.1,4.3,8,8.2,12.8,10.1c3.2,1.4,7,2.1,10.8,2c4-0.1,7.3-1,10.7-3.3c0.5,0.2,3.5,1,4.1,0.5c6.4,8.3,12.1,17.4,17,27
			c-1.1-0.4-2.3-0.6-3.3-1.1c-0.4-4.6-3-8.9-8.1-11.8c-7.8-4.1-16.7-3.5-25-4.2c-0.4,0-0.8-0.1-1.2-0.1c0.1,0.2,0.3,0.5,0.4,0.7
			c2.8,4.8,7.3,10,11.9,13c3.1,2.1,6.9,3.6,10.7,4.4c4,0.7,7.4,0.3,11.1-1.1c0.5,0.3,3.7,1.9,4.1,1.4l0,0
			c5.6,11.2,10,23.2,13.2,35.6c-0.9-0.6-1.9-1.1-2.7-1.8c0.3-5.1-0.8-10.2-5.4-15.1c-7.1-6.9-16.5-9.2-25.1-12.8
			c-0.4-0.2-0.8-0.4-1.2-0.5c0.1,0.3,0.1,0.6,0.2,0.9c1.7,5.9,5.1,12.8,9.2,17.4c2.7,3.1,6.3,6.1,10,8.1c3.9,2.1,7.6,2.8,11.8,2.6
			c0.4,0.4,2.8,2.6,3.7,2.8c2.8,11.4,4.5,23,5.1,34.7c0.1,2,0.2,4,0.2,6c-0.8-0.9-1.7-1.8-2.3-2.8c1.4-4.7,0.8-11.4-2.7-17.8
			c-5.5-9.4-13.5-13.9-21.3-20.5c-0.3-0.3-0.7-0.7-1-1c0,0.3-0.1,0.6,0,1c0.2,6.4,1.8,14.5,4.9,20.5c1.9,4.1,4.8,8.2,8.1,11.6
			c3.5,3.5,7.1,5.4,11.3,6.7c0.4,0.6,2.2,3.7,3.1,4.1c0.1,13.8-1.3,27.1-4.2,39.8c-0.5-1.2-1.1-2.6-1.6-3.8
			c2.6-2.5,3.5-9.4,1.4-16.7c-3.5-10.6-11.3-18.6-17.6-27.5c-0.3-0.4-0.6-0.8-0.9-1.2c-0.1,0.3-0.1,0.6-0.2,1
			c-1.1,6.2-1,14.4,0.7,21.2c1.1,4.5,3.1,9.4,5.7,13.6c2.7,4.5,5.8,7.5,9.7,10c0.3,0.8,1.6,4.5,2.4,5.2
			c-3.3,13.9-8.2,26.9-14.5,38.7c-0.2-1.2-0.4-2.6-0.5-3.8c2.9-1.9,5.2-7.9,5.7-15.4c-0.5-11.3-5.6-21.5-9.6-32.1
			c-0.1-0.5-0.3-1-0.5-1.5c-0.2,0.2-0.3,0.5-0.4,0.8c-2.7,5.6-4.8,13.4-4.9,20.4c-0.2,4.6,0.5,10,1.8,14.9c1.4,5.1,3.5,9.1,6.6,12.9
			c0,0.6,0.3,3.2,0.8,4.8c0.1,0.2,0.1,0.4,0.2,0.6c-6.1,11-13.5,20.8-21.9,29.2c0-1.2,0.1-2.4,0.3-3.6c3.3-1,7.6-6,9.5-12.8
			c2.3-10.9-0.2-22.1-1.4-33.6c-0.1-0.5-0.1-1-0.1-1.6c-0.2,0.2-0.5,0.4-0.7,0.6c-4,4.3-8,11.1-9.8,17.6c-1.3,4.3-2,9.6-2,14.8
			c0.1,5.4,1.1,9.9,3.1,14.5c-0.1,0.7-0.2,3.2-0.2,4.9c0,0.1,0,0.3,0,0.5c-9,8.7-19.2,15.7-30.3,20.6c0.2-1,0.4-1.9,0.8-2.9
			c3.2,0.7,8.6-3.3,12.3-8.5c5-9,5.5-19.6,7.5-30.4c0.1-0.5,0.2-1,0.3-1.5c-0.2,0.1-0.5,0.2-0.8,0.3c-4.8,2.4-10.2,6.7-13.7,11.9
			c-2.4,3.4-4.6,8.1-5.9,12.8c-1.3,4.9-1.4,9.6-0.7,14.6c-0.3,0.5-0.7,2.6-1.1,4.2c0,0.1,0,0.1-0.1,0.2s-0.3,0.1-0.4,0.2
			c-7.9,3.3-16.2,5.9-24.8,7.2c-0.6,0.8-1,1.9-1,3c8.4-1.2,16.4-3.3,24-6.3c0.1,0.1,0.2,0.1,0.3,0.2c1.2,0.3,3.2,0.6,4.3,0.9
			c3.2,7.2,10.5,9.8,16.1,10.5c6.8,1,12.9,0.3,19.1-1.4c3.1-0.8,8.5-2.8,10.8-5.7c-0.5-0.5-1-0.9-1.6-1.4c-3.9-3.1-11-8.1-20.9-9.5
			c-8.6-1.2-15.1,0.9-23.3,5.8c-0.8-0.1-1.6-0.2-2.3-0.4c10.7-4.6,20.5-11,29.3-18.9h0.1c1.2-0.1,3.1-0.4,4.3-0.6
			c4.6,5.9,12.1,6.1,17.6,5c6.6-1.1,12.3-3.7,17.7-7.3c2.8-1.7,7.4-5.3,9-8.8c-0.5-0.3-1.2-0.6-1.8-0.8c-4.4-1.8-12.6-4.3-22.3-2.5
			c-8.4,1.5-14.2,5.6-20.4,12.8c-0.7,0.1-1.4,0.2-2.1,0.2c8.5-8,16-17.4,22.4-28c0.3,0.1,0.7-0.1,1-0.4c0.3-0.3,2.7-1.7,3.2-2.1
			c5.9,3.8,14.4,1.5,19.2-1.6c6.3-3.9,17.7-16,18.8-25.2c-0.7,0-1.3-0.1-1.9-0.1c-4.5,0-11.6,0.1-20,5.5
			c-7.4,4.6-12.2,10.9-16.7,20.2c-0.7,0.4-1.4,0.8-2.1,1.2c6.2-10.7,11.3-22.6,15.2-35.3C542.4,204.8,542.6,203.9,542.9,203z"/>
		<path class="st1" d="M129.7,296.5c-8.6-1.3-16.9-3.9-24.8-7.2c-0.1-0.1-0.3-0.1-0.4-0.2c0-0.1,0-0.1-0.1-0.2
			c-0.4-1.6-0.8-3.7-1.1-4.2c0.6-4.9,0.6-9.6-0.7-14.6c-1.3-4.7-3.5-9.4-5.9-12.8c-3.5-5.2-8.9-9.5-13.7-11.9
			c-0.3-0.1-0.5-0.2-0.8-0.3c0.1,0.5,0.2,0.9,0.3,1.5C84.4,257.3,85,268,90,277c3.6,5.2,9.1,9.3,12.3,8.5c0.5,1,0.6,1.9,0.8,2.9
			c-11.1-4.9-21.3-11.9-30.3-20.6c0-0.2,0-0.3,0-0.5c0-1.7-0.1-4.2-0.2-4.9c2-4.6,3-9.1,3.1-14.5c0-5.1-0.7-10.4-2-14.8
			c-1.9-6.6-5.9-13.3-9.8-17.6c-0.2-0.2-0.5-0.4-0.7-0.6c0,0.6,0,1.1-0.1,1.6c-1.2,11.5-3.7,22.7-1.4,33.6c2,6.8,6.3,11.7,9.5,12.8
			c0.2,1.2,0.2,2.4,0.3,3.6c-8.4-8.4-15.8-18.2-21.9-29.2c0.1-0.2,0.1-0.4,0.2-0.6c0.4-1.6,0.7-4.2,0.8-4.8c3-3.8,5.1-7.8,6.6-12.9
			c1.4-5,2-10.3,1.9-14.9c-0.2-7-2.2-14.9-4.9-20.4c-0.2-0.2-0.3-0.5-0.4-0.8c-0.2,0.5-0.3,1-0.5,1.5c-4.1,10.6-9.1,20.8-9.6,32.1
			c0.5,7.4,2.7,13.5,5.7,15.4c-0.1,1.2-0.2,2.5-0.5,3.8c-6.3-11.8-11.3-24.8-14.5-38.7c0.8-0.7,2.1-4.4,2.4-5.2
			c3.9-2.5,7.1-5.6,9.7-10c2.6-4.2,4.6-9.2,5.7-13.6c1.7-6.7,1.7-15,0.7-21.2c-0.1-0.3-0.1-0.6-0.2-1c-0.3,0.4-0.6,0.8-0.9,1.2
			c-6.3,8.8-14.1,16.8-17.6,27.5c-2.1,7.2-1.2,14.2,1.4,16.7c-0.5,1.2-1.1,2.6-1.6,3.8c-2.8-12.7-4.3-26-4.2-39.8
			c0.9-0.4,2.8-3.5,3.1-4.1c4.2-1.2,7.9-3.2,11.3-6.7c3.3-3.4,6.2-7.5,8.1-11.6c3-6,4.7-14.1,4.9-20.5c0-0.4,0-0.7,0-1
			c-0.4,0.3-0.7,0.7-1,1c-7.8,6.5-15.8,11.1-21.3,20.5c-3.4,6.4-4.1,13.1-2.7,17.8c-0.7,1-1.5,1.9-2.3,2.8c0-2,0.1-4,0.2-6
			c0.6-11.7,2.3-23.4,5.1-34.7c1-0.2,3.3-2.4,3.7-2.8c4.1,0.2,7.9-0.5,11.8-2.6c3.7-2,7.3-5,10-8.1c4.1-4.7,7.5-11.6,9.2-17.4
			c0.1-0.3,0.2-0.6,0.2-0.9c-0.4,0.2-0.8,0.4-1.2,0.5c-8.6,3.6-18,5.9-25.1,12.8c-4.6,4.8-5.8,10-5.4,15.1c-0.8,0.6-1.8,1.2-2.7,1.8
			c3.2-12.4,7.6-24.4,13.2-35.6l0,0c0.5,0.5,3.6-1.1,4.1-1.4c3.7,1.4,7.1,1.8,11,1.1c3.8-0.7,7.6-2.3,10.7-4.4
			c4.6-3,9.1-8.2,11.9-13c0.1-0.2,0.2-0.5,0.4-0.7c-0.4,0-0.7,0.1-1.2,0.1c-8.3,0.7-17.2,0.1-25,4.2c-5.1,3-7.7,7.3-8.1,11.8
			c-1,0.4-2.2,0.7-3.3,1.1c4.9-9.7,10.5-18.7,17-27c0.6,0.5,3.5-0.3,4.1-0.5c3.4,2.3,6.8,3.2,10.8,3.3c3.8,0.1,7.6-0.6,10.8-2
			c4.8-1.9,9.7-5.8,12.8-10.1c0.2-0.2,0.4-0.4,0.5-0.7c-0.4,0-0.8,0-1.2-0.1c-7.5-1-14.5-3-20.8-1.7c-5.3,1.1-11,3.9-13.1,10.4
			c-1,0.2-2.1,0.3-3.1,0.4c4.9-6.2,10.1-11.9,15.8-17.1c0.1-0.2,0.1-0.1-0.1-0.2c0.3,0.1,0.3,0,0.7-0.3c0.9-0.8,1.6-1.3,2.6-2.2
			c5.1,0,9.9-1.5,14.4-4.5c2-1.4,4-3,5.7-5c4-4.4,7.3-10.7,8.8-16.5c0.1-0.3,0.1-0.6,0.2-0.9c-0.4,0.2-0.7,0.3-1.1,0.5
			c-8.7,3.5-16.6,5-23.2,11.4c-4.5,4.2-6.8,9.4-5.9,14.4c-1,0.8-2.1,1.6-3,2.5c-0.1,0.1-0.2,0.2-0.2,0.3c0,0-0.1,0-0.2,0.1
			c-7.4,7-14.1,14.6-20.2,22.8c0.2-1.2,0.3-2.3,0.5-3.6C68.3,41.5,71.8,35,73.8,26c2-9.4,1.7-16.9,0.8-22.2
			c-0.1-0.6-0.3-1.3-0.4-1.9C68.6,6.2,64.8,12,61.5,18.6c-1.7,3.6-3.1,7.2-3.8,11.3c-1.4,5.9-1,14.5,3.4,18
			c-0.2,0.8-0.5,3.4-0.6,3.9s-0.2,1,0,1.3C53.4,63,47.2,73.6,42.3,84.9c0-1.2,0.1-2.4,0.1-3.5c4.5-7.6,6.9-15.9,7-25.3
			c0.2-10.9-2.5-17.9-4.7-22.3c-0.3-0.6-0.6-1.2-0.9-1.8c-2.4,2.9-4.6,8.4-5.6,11.8c-2.1,6.8-3.6,13.9-3.7,21.1
			c-0.2,6.3,1.3,13.3,6.6,17.3c0,0.6-0.2,3.7-0.2,4.1c-0.1,0.4-0.1,1,0.2,1.3C36.7,98.2,33.3,109.3,31,121c-0.2-1.1-0.5-2.3-0.7-3.5
			c2-7.4,3.1-14.1,2.8-21.4c-0.6-10.2-4.4-19-10.3-26.1c-0.4-0.5-0.8-1.1-1.2-1.5c-1.7,3.5-2.8,9.5-3.1,13.1
			c-0.6,7.3-0.6,14.6,0.7,21.8c1.1,6.1,3.8,12.2,9.9,14.9c0.1,0.6,0.8,3.6,0.8,4c0,0.6,0.2,1.2,0.7,1.3c-0.8,4.6-1.5,9.2-1.9,13.9
			c-0.7,7.5-1.1,14.9-1.1,22.1c-0.4-0.7-0.8-1.4-1.2-2.3c0.6-10.5,0-18.1-4-26.7c-4.5-9.9-10.8-15.6-14.7-18.4
			c-0.5-0.4-1-0.8-1.6-1.1c-0.9,4-0.6,10.3-0.1,14c1,7.4,2.6,13.9,5.6,20.5c2.5,5.7,7.1,12,13.7,12.4c0.2,0.6,1.4,3.3,1.6,3.8
			c0.1,0.4,0.3,0.8,0.6,1c0.2,13,1.5,25.5,4.5,37.3c-0.4-0.5-0.9-1.1-1.4-1.6c-1.9-10.3-4.8-17.1-10.7-24
			c-6.8-7.9-13.9-11.5-18.2-13c-0.6-0.2-1.2-0.3-1.8-0.5c-0.4,4,1.4,9.7,2.8,13.1c2.8,6.7,5.8,12.6,10.5,18c3.9,4.6,10,9,16.5,7.3
			c0.3,0.5,2.1,3,2.3,3.4c0.2,0.3,0.5,0.6,0.7,0.7c0.2,0.9,0.5,1.7,0.8,2.6c3.9,12.7,9,24.5,15.2,35.3c-0.7-0.4-1.4-0.7-2.1-1.2
			c-4.5-9.3-9.3-15.6-16.7-20.2c-8.4-5.4-15.5-5.5-20-5.5c-0.6,0-1.2,0-1.9,0.1c1.1,9.2,12.5,21.3,18.8,25.2
			c4.8,3.1,13.3,5.5,19.2,1.6c0.5,0.4,2.9,1.8,3.2,2.1s0.7,0.5,1,0.4c6.4,10.6,13.9,20,22.4,28c-0.7-0.1-1.4-0.1-2.1-0.2
			c-6.2-7.2-12-11.3-20.4-12.8c-9.7-1.8-18,0.7-22.3,2.5c-0.6,0.2-1.2,0.5-1.8,0.8c1.6,3.5,6.1,7.1,9,8.8c5.5,3.6,11.1,6.2,17.7,7.3
			c5.5,1.1,12.9,0.8,17.6-5c1.2,0.2,3.1,0.5,4.3,0.6h0.1c8.8,7.9,18.6,14.3,29.3,18.9c-0.7,0.2-1.5,0.3-2.3,0.4
			c-8.2-4.8-14.7-7-23.3-5.8c-9.9,1.4-17,6.3-20.9,9.5c-0.6,0.5-1.1,0.9-1.6,1.4c2.4,2.9,7.7,4.9,10.8,5.7
			c6.2,1.7,12.3,2.4,19.1,1.4c5.6-0.7,12.9-3.3,16.1-10.5c1.1-0.3,3.1-0.6,4.3-0.9c0.1,0,0.2-0.1,0.3-0.2c7.6,3,15.5,5.2,24,6.3
			C130.7,298.4,130.3,297.3,129.7,296.5z"/>
		<path class="st1" d="M127.5,196v-1c0-4.4-2-6.6-6.7-6.6H114v28.7h7.1c4.5,0,6.8-2.4,6.8-6.8V208c0-3-0.9-5.2-3.4-6.2
			C126.6,200.8,127.5,198.9,127.5,196z M118.5,192.5h2.2c1.6,0,2.3,0.9,2.3,3v1.6c0,2.3-1,3-2.7,3h-1.8V192.5z M123.4,210.1
			c0,2.1-0.8,2.8-2.3,2.8h-2.6v-8.8h2c2,0,2.9,0.8,2.9,3.5V210.1z"/>
		<polygon class="st1" points="130.6,217.1 142.9,217.1 142.9,213 135.2,213 135.2,204.6 141.3,204.6 141.3,200.5 135.2,200.5 
			135.2,192.5 142.9,192.5 142.9,188.4 130.6,188.4 		"/>
		<path class="st1" d="M158.5,210.2c0-8.2-8.8-9.3-8.8-15.2c0-2.1,0.8-2.8,2.3-2.8c1.4,0,2.3,0.8,2.3,2.8v1.2h4.3v-0.9
			c0-4.6-2.3-7.2-6.6-7.2c-4.4,0-6.6,2.6-6.6,7.2c0,8.2,8.8,9.3,8.8,15.2c0,2-0.9,2.8-2.3,2.8c-1.4,0-2.3-0.7-2.3-2.8v-2H145v1.8
			c0,4.6,2.3,7.2,6.7,7.2C156.2,217.4,158.5,214.8,158.5,210.2z"/>
		<polygon class="st1" points="169,217.1 169,192.5 173.7,192.5 173.7,188.4 159.8,188.4 159.8,192.5 164.5,192.5 164.5,217.1 		"/>
		<path class="st1" d="M195.1,198v-2.8c0-4.6-2.3-7.2-6.7-7.2s-6.7,2.6-6.7,7.2v14.9c0,4.6,2.3,7.2,6.7,7.2s6.7-2.6,6.7-7.2v-3.8
			h-4.3v4.1c0,2-0.9,2.8-2.3,2.8c-1.4,0-2.3-0.7-2.3-2.8V195c0-2.1,0.9-2.8,2.3-2.8c1.4,0,2.3,0.8,2.3,2.8v3.1h4.3V198z"/>
		<path class="st1" d="M204.3,188c-4.4,0-6.8,2.6-6.8,7.2v14.9c0,4.6,2.4,7.2,6.8,7.2s6.8-2.6,6.8-7.2v-14.9
			C211.2,190.7,208.7,188,204.3,188z M206.7,210.5c0,2-0.9,2.8-2.3,2.8c-1.4,0-2.3-0.8-2.3-2.8V195c0-2.1,0.9-2.8,2.3-2.8
			c1.4,0,2.3,0.8,2.3,2.8V210.5z"/>
		<path class="st1" d="M218.6,205.4h1.6c2.1,0,3,1,3,3.6v4.5c0,2.3,0.2,2.8,0.4,3.5h4.6c-0.5-1.1-0.5-2.1-0.5-3.5v-4.4
			c0-3-0.7-5.2-3-6.1c2-0.9,3-2.9,3-5.8V195c0-4.4-2-6.6-6.7-6.6h-6.8v28.7h4.5v-11.7H218.6z M218.6,192.5h2.2c1.6,0,2.3,0.9,2.3,3
			v2.8c0,2.3-1,3-2.7,3h-1.8V192.5z"/>
		<path class="st1" d="M243.9,199.2v-3.7c0-4.6-2.2-7.1-6.7-7.1h-6.6v28.7h4.5v-10.8h2.1C241.7,206.3,243.9,203.8,243.9,199.2z
			 M239.4,199.5c0,2-0.8,2.7-2.2,2.7h-2.1v-9.7h2.1c1.4,0,2.2,0.7,2.2,2.7V199.5z"/>
		<path class="st1" d="M245.9,195.2v14.9c0,4.6,2.4,7.2,6.8,7.2s6.8-2.6,6.8-7.2v-14.9c0-4.6-2.4-7.2-6.8-7.2
			C248.3,188,245.9,190.7,245.9,195.2z M255,195v15.5c0,2-0.9,2.8-2.3,2.8s-2.3-0.8-2.3-2.8V195c0-2.1,0.9-2.8,2.3-2.8
			S255,192.9,255,195z"/>
		<path class="st1" d="M276,209.1c0-3-0.7-5.2-3-6.1c2-0.9,3-2.9,3-5.8V195c0-4.4-2-6.6-6.7-6.6h-6.8v28.7h4.5v-11.7h1.6
			c2.1,0,3,1,3,3.6v4.5c0,2.3,0.2,2.8,0.4,3.5h4.6c-0.5-1.1-0.5-2.1-0.5-3.5v-4.4H276z M271.4,198.2c0,2.3-1,3-2.7,3H267v-8.8h2.2
			c1.6,0,2.3,0.9,2.3,3v2.8H271.4z"/>
		<path class="st1" d="M282.7,211.9h5.5l0.8,5.2h4.6l-4.6-28.7h-6.6l-4.6,28.7h4.1L282.7,211.9z M285.4,193.4l2.2,14.5h-4.3
			L285.4,193.4z"/>
		<polygon class="st1" points="294.3,192.5 299,192.5 299,217.1 303.5,217.1 303.5,192.5 308.3,192.5 308.3,188.4 294.3,188.4 		"/>
		<polygon class="st1" points="322.5,213 314.7,213 314.7,204.6 320.9,204.6 320.9,200.5 314.7,200.5 314.7,192.5 322.5,192.5 
			322.5,188.4 310.2,188.4 310.2,217.1 322.5,217.1 		"/>
		<path class="st1" d="M345.2,213.6v-4.4c0-3-0.7-5.2-3-6.1c2-0.9,3-2.9,3-5.8V195c0-4.4-2-6.6-6.7-6.6h-6.8v28.7h4.5v-11.7h1.6
			c2,0,3,1,3,3.6v4.5c0,2.3,0.2,2.8,0.4,3.5h4.6C345.2,216,345.2,215,345.2,213.6z M340.6,198.2c0,2.3-1,3-2.7,3h-1.8v-8.8h2.2
			c1.6,0,2.3,0.9,2.3,3V198.2z"/>
		<polygon class="st1" points="360.4,192.5 360.4,188.4 348.1,188.4 348.1,217.1 360.4,217.1 360.4,213 352.7,213 352.7,204.6 
			358.8,204.6 358.8,200.5 352.7,200.5 352.7,192.5 		"/>
		<polygon class="st1" points="367.7,188.4 363.2,188.4 363.2,217.1 375.2,217.1 375.2,213 367.7,213 		"/>
		<path class="st1" d="M380.9,211.9h5.5l0.8,5.2h4.6l-4.6-28.7h-6.6l-4.6,28.7h4.1L380.9,211.9z M383.6,193.4l2.2,14.5h-4.3
			L383.6,193.4z"/>
		<polygon class="st1" points="401.7,217.1 401.7,192.5 406.4,192.5 406.4,188.4 392.5,188.4 392.5,192.5 397.2,192.5 397.2,217.1 
					"/>
		<rect x="408.4" y="188.4" class="st1" width="4.5" height="28.7"/>
		<path class="st1" d="M422.7,188c-4.4,0-6.8,2.6-6.8,7.2v14.9c0,4.6,2.4,7.2,6.8,7.2s6.8-2.6,6.8-7.2v-14.9
			C429.5,190.7,427.1,188,422.7,188z M425,210.5c0,2-0.9,2.8-2.3,2.8s-2.3-0.8-2.3-2.8V195c0-2.1,0.9-2.8,2.3-2.8s2.3,0.8,2.3,2.8
			V210.5z"/>
		<polygon class="st1" points="446.7,188.4 442.7,188.4 442.7,205.5 438.1,188.4 432.4,188.4 432.4,217.1 436.5,217.1 436.5,196.3 
			442.1,217.1 446.7,217.1 		"/>
		<path class="st1" d="M462.7,196.1v-0.9c0-4.6-2.3-7.2-6.6-7.2s-6.6,2.6-6.6,7.2c0,8.2,8.8,9.3,8.8,15.2c0,2-0.9,2.8-2.3,2.8
			s-2.3-0.7-2.3-2.8v-2h-4.3v1.8c0,4.6,2.3,7.2,6.7,7.2s6.7-2.6,6.7-7.2c0-8.2-8.8-9.3-8.8-15.2c0-2.1,0.8-2.8,2.3-2.8
			c1.4,0,2.3,0.8,2.3,2.8v1.2h4.1V196.1z"/>
		<path class="st1" d="M162.8,234c-8.1,0-12.3,4.8-12.3,13.2v5.1h7.8v-5.6c0-3.8,1.7-5.2,4.3-5.2s4.3,1.3,4.3,6
			c0,15.1-16.3,17.7-16.3,33.1v6.4h23.8v-7.5h-15.6c-0.1-0.4-0.1-0.8-0.1-1.1c0-8.6,16.4-14.8,16.4-31.3
			C175.1,238.8,170.9,234,162.8,234z"/>
		<path class="st1" d="M192,234c-8.1,0-12.5,4.8-12.5,13.2v27.3c0,8.4,4.4,13.2,12.5,13.2s12.5-4.8,12.5-13.2v-27.3
			C204.5,238.8,200.1,234,192,234z M196.3,275c0,3.8-1.6,5.2-4.3,5.2c-2.6,0-4.3-1.4-4.3-5.2v-28.3c0-3.8,1.7-5.2,4.3-5.2
			s4.3,1.4,4.3,5.2V275z"/>
		<path class="st1" d="M215,241.2v5.8h6.4v40h8.2v-52.5H224C222.8,238.1,221.3,241.2,215,241.2z"/>
		<path class="st1" d="M254.6,250.8c-3.3,0-5.7,1.3-7.2,3.8l0.7-12.5h14.3v-7.5h-21.8l-1.5,30.4h7.8v-1.6c0-3.8,1.6-5.2,4.3-5.2
			c2.6,0,4.3,1.4,4.3,5.2V275c0,3.8-1.7,5.1-4.3,5.1s-4.3-1.3-4.3-5.1v-4.9h-7.8v4.3c0,8.4,4.2,13.2,12.3,13.2s12.3-4.8,12.3-13.2
			v-11.7C263.8,255,260.7,250.8,254.6,250.8z"/>
		<rect x="280.5" y="257.1" class="st1" width="15" height="7.5"/>
		<path class="st1" d="M325,234c-8.1,0-12.3,4.8-12.3,13.2v5.1h7.8v-5.6c0-3.8,1.7-5.2,4.3-5.2s4.3,1.3,4.3,6
			c0,15.1-16.3,17.7-16.3,33.1v6.4h23.8v-7.5H321c-0.1-0.4-0.1-0.8-0.1-1.1c0-8.6,16.4-14.8,16.4-31.3
			C337.3,238.8,333.1,234,325,234z"/>
		<path class="st1" d="M354.3,234c-8.1,0-12.5,4.8-12.5,13.2v27.3c0,8.4,4.4,13.2,12.5,13.2s12.5-4.8,12.5-13.2v-27.3
			C366.8,238.8,362.4,234,354.3,234z M358.6,275c0,3.8-1.7,5.2-4.3,5.2s-4.3-1.4-4.3-5.2v-28.3c0-3.8,1.6-5.2,4.3-5.2
			s4.3,1.4,4.3,5.2V275z"/>
		<path class="st1" d="M377.2,241.2v5.8h6.4v40h8.2v-52.5h-5.5C385,238.1,383.6,241.2,377.2,241.2z"/>
		<path class="st1" d="M417.2,252.9c-3.7,0-6.2,1.6-7.6,4.6v-9.6c0-5,1.6-6.4,4.6-6.4c2.6,0,4.3,1.4,4.3,5.2v1.9h7.8v-1.4
			c0-8.4-4.2-13.2-12.3-13.2c-8.6,0-12.6,4.8-12.6,13.6v26.8c0,8.4,4.4,13.2,12.5,13.2s12.5-4.8,12.5-13.2v-9.6
			C426.4,257.1,423.3,252.9,417.2,252.9z M418.1,275c0,3.8-1.7,5.1-4.3,5.1s-4.3-1.3-4.3-5.1v-9.4c0-3.8,1.6-5.2,4.3-5.2
			s4.3,1.4,4.3,5.2V275z"/>
		<path class="st1" d="M237.7,82.2c-0.6,0-1.3,0-1.9,0c-0.7,1.9-1.3,3.8-2.1,5.7c-0.7-1.9-1.3-3.8-2-5.7c-0.7,0-1.4,0-2.2,0
			c1,2.6,2.1,5.1,3,7.7c0.1,1.9,0,3.7,0,5.6c0.6,0,1.3,0,2,0c0-1.9-0.1-3.8,0.1-5.6C235.7,87.3,236.8,84.8,237.7,82.2z"/>
		<path class="st1" d="M146,36.2c4.8-2.9,10-5.1,15.3-6.9c6-2.1,12.3-3.4,18.6-3.9c4.6-0.4,9.2-0.7,13.8-0.4
			c8.7,0.4,17.4,1.8,25.4,5.2c3.3,1.4,6.5,3.3,9.2,5.8c2.4,2.4,4.6,5.2,5.8,8.4c1.3,3.4,1.4,7.3,0.2,10.8c-1.6,5-5.1,9.2-9.1,12.6
			c-4,3.5-8.8,5.9-13.7,8c-7.5,3.1-15.3,5.5-23.1,7.3c1.3,2.5,2.9,4.9,4.7,7.2c2.3,3,4.8,5.8,7.7,8.1c3.6,2.9,7.6,5.3,11.6,7.7
			c6.3,3.5,13,6.1,19.9,8c3.9,1,7.7,2.1,11.7,2.6c-6.2-2.2-12.2-4.8-18-7.9c-4.6-2.4-9-5.3-12.9-8.7c-5.7-5.1-10.7-11.1-14.6-17.7
			c8.8-0.6,17.6-2.3,25.8-5.7c5.9-2.5,11.5-5.7,16-10.2c3.6-3.6,6.3-8.2,7.1-13.3c0.9-5.8-1.1-11.7-4.4-16.4
			c-4.8-6.9-12.1-11.6-19.7-14.9c-9.8-4.1-20.5-6.3-31.1-6c-11.4,0.3-22.6,3.1-32.9,7.7c-6.3,2.8-12.3,6.1-17.8,10.1
			c-2.2,1.5-4,3.5-5.8,5.4c-4.6,5-8.4,10.8-10.3,17.4C130.8,48.3,137.8,41.3,146,36.2z"/>
		<path class="st1" d="M380.8,93.9c-1.5,0-2.9,0-4.4,0c0-1.5,0-3,0-4.5c1.3,0,2.7,0,4,0c0-0.5,0-1,0-1.6c-1.3,0-2.7,0-4,0
			c0-1.4,0-2.8,0-4.1c1.4,0,2.8,0,4.2,0c0-0.5,0-1,0-1.5c-2,0-4.1,0-6.1,0c0,4.4,0,8.8,0,13.3c2.1,0,4.2,0,6.3,0
			C380.8,95,380.8,94.5,380.8,93.9z"/>
		<path class="st1" d="M134,115.1c1.2,0.1,2.5,0.1,3.7,0.1c6,0,11.9,0,17.9,0.1c3.1,0.1,6.2-0.6,9.2-1.5c2.9-0.9,5.9-2.4,7.8-4.9
			c1.3-1.8,2.2-4.1,2.4-6.3c0-24,0-48,0-72c-4.1,0.7-8.2,1.6-12.2,2.7c-8.6,2.6-16.9,6.9-23.2,13.5c-2.5,2.5-4.3,5.7-5.1,9.1
			c-0.8,3.1-0.5,6.3-0.5,9.5c0,9.6-0.1,19.2,0,28.8C134,101.1,133.8,108.1,134,115.1z M137.8,61.9c0.6-4.6,2.7-9.3,6.6-12.1
			c2.5-1.8,5.6-2.6,8.6-2.8c4.9-0.4,9.9,0.2,14.7,1.2c0,1.8,0,3.6,0,5.4c-4.9-1.8-10.4-3-15.5-1.4c-2.5,0.7-4.3,3-5.3,5.3
			c-1.6,3.7-1.9,8-0.3,11.7c1.3,3.3,4.3,5.9,7.7,6.7c4.6,1.1,9.4-0.1,13.6-1.9c0,3,0,6,0,9c-3.6-1.1-7.3-2-11.1-2
			c-1.9,0-3.9,0.5-5.3,1.8c-0.8,0.7-1.2,2-0.6,3c0.9,1.4,2.5,2.1,3.9,2.8c4.1,1.8,8.4,3.2,12.1,5.7c1.5,1,2.9,2.3,3.4,4
			c0.8,2.3,0.8,5.2-0.9,7.2c-2.5,3.2-6.6,4.6-10.5,5.1c-5.8,0.6-11.7-0.1-17.5-1.1c0-1.8,0-3.7,0-5.5c3,0.8,6.1,1.5,9.1,2
			c2.7,0.3,5.6,0.6,8.1-0.6c1.6-0.7,2.9-2.4,2.5-4.1c-0.2-1.6-1.7-2.4-2.9-3.1c-4.6-2.2-9.6-3.7-13.7-6.8c-2.1-1.5-3.6-4.2-3.3-6.8
			c0.4-2.4,2.3-4.2,4.1-5.7c-2.6-1.5-5-3.7-6.2-6.6C138,69.1,137.5,65.4,137.8,61.9z"/>
		<path class="st1" d="M445.4,95.5c0.6,0,1.2,0,1.9,0c0.1-1.9-0.1-3.7,0.1-5.6c0.9-2.6,2-5.1,3-7.7c-0.6,0-1.3,0-1.9,0
			c-0.7,1.9-1.3,3.8-2.1,5.7c-0.6-1.9-1.3-3.8-1.9-5.7c-0.7,0-1.4,0-2.2,0c1,2.6,2.1,5.1,3,7.7C445.5,91.7,445.4,93.6,445.4,95.5z"
			/>
		<path class="st1" d="M421.1,95.5c0-4.4,0-8.8,0-13.3c-0.6,0-1.2,0-1.9,0c0,4.4,0,8.8,0,13.3C419.9,95.5,420.5,95.5,421.1,95.5z"/>
		<path class="st1" d="M246.3,95.5c0-0.5,0-1,0-1.6c-1.4,0-2.9,0-4.3,0c0-1.5,0-3,0-4.5c1.3,0,2.6,0,4,0c0-0.5,0-1,0-1.6
			c-1.3,0-2.6,0-4,0c0-1.4,0-2.8,0-4.2c1.4,0,2.8,0,4.2,0c0-0.5,0-1,0-1.5c-2.1,0-4.1,0-6.2,0c0.1,4.4,0.1,8.8,0,13.2
			C242.1,95.5,244.2,95.5,246.3,95.5z"/>
		<path class="st1" d="M317,95.5c0.6,0,1.2,0,1.8,0c0-3.8-0.1-7.5,0-11.3c0.9,3.8,1.8,7.5,2.7,11.3c0.6,0,1.2,0,1.8,0
			c0.9-3.7,1.9-7.5,2.7-11.2c0.2,3.7,0,7.5,0.1,11.2c0.6,0,1.2,0,1.8,0c0-4.4,0-8.8,0-13.3c-1,0-2,0-3,0c-0.8,3.5-1.6,7-2.4,10.4
			c-0.8-3.5-1.6-7-2.4-10.4c-1,0-2.1,0-3.1,0C317,86.7,317,91.1,317,95.5z"/>
		<path class="st1" d="M298,95.4c1.3,0.4,3,0.4,4.1-0.4c1.2-0.9,1.1-2.5,1.2-3.8c-0.6,0-1.2,0-1.8,0c-0.1,0.7-0.1,1.5-0.4,2.2
			c-0.6,1.2-2.6,1.1-3-0.1c-0.3-0.9-0.2-1.9-0.2-2.8c0-1.8-0.1-3.6,0-5.5c0.2-1.3,1.9-1.7,2.9-1.1c0.7,0.5,0.6,1.5,0.7,2.3
			c0.6,0,1.2,0,1.8,0c0-0.9,0-1.9-0.4-2.7c-0.5-0.8-1.5-1.2-2.4-1.3c-1.3-0.1-2.7,0-3.6,0.9s-0.9,2.2-0.9,3.3c0,2,0,4,0,6.1
			C296,93.7,296.7,95.1,298,95.4z"/>
		<path class="st1" d="M332.7,95.5c0-3.8,0-7.6,0-11.4c0.9,3.8,1.8,7.6,2.8,11.4c0.6,0,1.2,0,1.9,0c0.9-3.8,1.8-7.6,2.7-11.3
			c0.1,3.8,0,7.6,0,11.4c0.6,0,1.2,0,1.8,0c0-4.4,0-8.8,0-13.3c-1,0-2,0-3.1,0c-0.8,3.5-1.6,6.9-2.4,10.4c-0.9-3.4-1.6-6.9-2.4-10.4
			c-1,0-2.1,0-3.1,0c0,4.4,0,8.8,0,13.3C331.5,95.5,332.1,95.5,332.7,95.5z"/>
		<path class="st1" d="M424.1,95.5c2.1,0,4.2,0,6.3,0c0-0.5,0-1,0-1.5c-1.5,0-2.9,0-4.4,0c0-1.5,0-3,0-4.5c1.3,0,2.6,0,4,0
			c0-0.5,0-1,0-1.6c-1.3,0-2.6,0-4,0c0-1.4,0-2.8,0-4.2c1.4,0,2.8,0,4.2,0c0-0.5,0-1,0-1.5c-2.1,0-4.1,0-6.2,0
			C424.2,86.7,424.2,91.1,424.1,95.5z"/>
		<path class="st1" d="M306.2,91c0.1,1.4,0,3.1,1.3,4c1.2,0.7,2.7,0.7,4.1,0.5c1.2-0.2,2.3-1.2,2.3-2.5c0.2-2.1,0.1-4.3,0.1-6.4
			c-0.1-1.3,0-2.8-1.1-3.7c-1.2-1-3-1-4.5-0.6c-1,0.3-1.9,1-2.1,2.1C306,86.6,306.2,88.8,306.2,91z M308.1,86.4c0-1,0.1-2.3,1.2-2.7
			c1-0.3,2.4,0,2.6,1.1c0.3,1.9,0.1,3.9,0.2,5.9c-0.1,1,0.2,2.1-0.6,2.9c-1,1-3.1,0.6-3.3-0.9C307.9,90.6,308.1,88.5,308.1,86.4z"/>
		<path class="st1" d="M366.3,95.4c1.4,0.3,3,0.4,4.1-0.5s1.1-2.5,1.1-3.8c-0.6,0-1.2,0-1.9,0c-0.1,0.7,0,1.5-0.3,2.1
			c-0.5,1.2-2.6,1.1-3.1-0.1c-0.3-0.9-0.1-1.8-0.1-2.8c0-1.8-0.1-3.7,0-5.5c0.2-1.3,1.9-1.6,2.9-1.1c0.7,0.5,0.6,1.5,0.7,2.3
			c0.6,0,1.2,0,1.8,0c0-1,0.1-2-0.5-2.9c-0.6-0.8-1.6-1.1-2.5-1.1c-1.3-0.1-2.7,0.1-3.5,1.1c-0.9,0.9-0.7,2.3-0.8,3.5
			c0,2-0.1,4.1,0.1,6.1C364.4,93.9,365.1,95.1,366.3,95.4z"/>
		<path class="st1" d="M409.3,93.6c0.3,1.1,1.3,1.9,2.5,2c1.3,0.2,3,0.1,3.9-1c0.8-1,0.7-2.3,0.7-3.4c-0.6,0-1.2,0-1.8,0
			c-0.1,0.8-0.1,1.7-0.5,2.4c-0.7,1-2.5,0.7-2.9-0.4c-0.2-0.8-0.1-1.6-0.1-2.4c0-1.9,0-3.8,0-5.7c0.1-1.3,1.8-1.7,2.8-1.2
			c0.8,0.5,0.6,1.6,0.7,2.3c0.6,0,1.2,0,1.8,0c0-1,0.1-2.3-0.6-3.1c-0.9-1-2.4-1-3.7-0.9c-1.2,0.1-2.4,0.8-2.7,2
			c-0.4,1.6-0.2,3.3-0.3,4.9C409.1,90.5,408.9,92.1,409.3,93.6z"/>
		<path class="st1" d="M351.2,93.9c-1.5,0-2.9,0-4.4,0c0-1.5,0-3,0-4.5c1.3,0,2.6,0,3.9,0c0-0.5,0-1,0-1.6c-1.3,0-2.6,0-3.9,0
			c0-1.4,0-2.8,0-4.1c1.4,0,2.8,0,4.2,0c0-0.5,0-1,0-1.5c-2.1,0-4.1,0-6.1,0c0,4.4,0,8.8,0,13.3c2.1,0,4.2,0,6.3,0
			C351.2,95,351.2,94.5,351.2,93.9z"/>
		<path class="st1" d="M355.7,89.5c1.1,0.1,2.7-0.3,3.2,1c0.4,1.6,0.2,3.4,0.6,5.1c0.7,0,1.3,0,2,0c-0.4-1.5-0.4-3-0.5-4.6
			c0-0.6-0.1-1.4-0.7-1.8c-0.4-0.2-0.9-0.3-1.3-0.5c0.8-0.2,1.7-0.4,2-1.2c0.5-1.1,0.5-2.5,0.1-3.7c-0.4-1.1-1.6-1.5-2.6-1.5
			c-1.5,0-3.1,0-4.6,0c0,4.4,0,8.8,0,13.3c0.6,0,1.3,0,1.9,0C355.7,93.5,355.7,91.5,355.7,89.5z M355.7,83.7c1.2,0.1,2.9-0.4,3.6,1
			c0.2,0.9,0.4,2.2-0.5,2.9c-0.9,0.6-2.1,0.3-3.1,0.4C355.7,86.5,355.7,85.1,355.7,83.7z"/>
		<path class="st1" d="M398.5,93.7c0.2,1,1.1,1.6,2.1,1.8c1.3,0.3,2.8,0.3,4.1-0.4c1-0.6,1.3-1.8,1.3-2.9c0-2,0-4,0-6.1
			c0-1.1-0.1-2.4-1.1-3.2c-1.2-0.9-2.8-1-4.2-0.7c-0.9,0.3-1.9,0.8-2.2,1.8c-0.4,1.1-0.3,2.3-0.3,3.5
			C398.3,89.6,398,91.7,398.5,93.7z M400.1,85.5c0-0.8,0.5-1.7,1.4-1.9c0.7-0.1,1.6-0.1,2.1,0.5c0.6,0.8,0.5,1.9,0.5,2.8
			c-0.1,1.9,0.1,3.9-0.1,5.8c-0.2,1.3-2,1.8-3.1,1.1c-0.8-0.4-0.8-1.4-0.8-2.2C400.1,89.5,400.1,87.5,400.1,85.5z"/>
		<path class="st1" d="M269.7,94.2c0.7,1.3,2.4,1.5,3.8,1.5s3-0.6,3.3-2.1c0.4-1.9,0.2-3.8,0.2-5.7c0-1.5,0.2-3.2-0.7-4.6
			c-1.2-1.3-3.1-1.4-4.7-1c-0.9,0.3-1.8,0.9-2.1,1.9c-0.4,1.5-0.2,3-0.2,4.5C269.3,90.5,268.9,92.4,269.7,94.2z M271.1,85.5
			c0-0.8,0.5-1.6,1.3-1.8c0.8-0.2,1.8-0.1,2.3,0.6c0.5,0.9,0.3,2,0.4,3c0,1.8,0.1,3.6-0.1,5.4c-0.2,1.7-2.7,2-3.6,0.7
			c-0.4-0.8-0.3-1.7-0.3-2.6C271.1,89,271,87.2,271.1,85.5z"/>
		<path class="st1" d="M435.6,95.5c0.6,0,1.2,0,1.9,0c0-3.9,0-7.8,0-11.8c1,0,2.1,0,3.1,0c0-0.5,0-1,0-1.5c-2.7,0-5.4,0-8.1,0
			c0,0.5,0,1,0,1.5c1,0,2.1,0,3.1,0C435.6,87.7,435.6,91.6,435.6,95.5z"/>
		<path class="st1" d="M261.3,93.6c-0.6-0.7-0.5-1.8-0.6-2.7c-0.6,0-1.3,0-1.9,0.1c0.1,1.2-0.1,2.5,0.7,3.5c0.8,1,2.1,1.2,3.3,1.2
			c1.3,0,2.7-0.4,3.4-1.6c0.6-1.2,0.7-2.8,0.1-4c-0.7-1.4-2.3-1.8-3.5-2.5c-1-0.5-2-1.4-1.7-2.6c0.1-1.3,1.7-1.6,2.7-1.2
			c0.9,0.4,0.8,1.5,0.9,2.3c0.6,0,1.2,0,1.8,0c-0.1-1,0-2-0.5-2.8c-0.5-0.7-1.4-1-2.3-1.1c-1.3-0.1-2.7-0.1-3.7,0.9s-1,2.7-0.6,3.9
			c0.8,1.9,3.1,2.3,4.6,3.5c0.8,0.5,1,1.6,0.7,2.5C264.2,94.3,262.2,94.5,261.3,93.6z"/>
		<path class="st1" d="M250.8,95.5c0-2,0-4,0-6c1.1,0,2.7-0.3,3.2,1c0.4,1.6,0.1,3.4,0.6,5c0.7,0,1.3,0,2,0
			c-0.5-1.8-0.3-3.7-0.7-5.5c-0.1-0.9-1.1-1.1-1.9-1.3c0.8-0.2,1.7-0.4,2-1.2c0.5-1.2,0.5-2.7,0-3.9c-0.4-1-1.5-1.4-2.5-1.4
			c-1.5,0-3.1,0-4.6,0c0,4.4,0,8.8,0,13.3C249.6,95.5,250.2,95.5,250.8,95.5z M250.8,83.7c1.2,0.1,2.9-0.4,3.6,1
			c0.2,0.9,0.3,2.2-0.5,2.9c-0.9,0.6-2,0.3-3.1,0.3C250.8,86.5,250.8,85.1,250.8,83.7z"/>
		<path class="st1" d="M225.9,90.6c0.3,1.6,0.1,3.3,0.5,4.9c0.7,0,1.3,0,2,0c-0.6-1.8-0.3-3.7-0.7-5.6c-0.2-0.9-1.2-1-1.9-1.2
			c0.8-0.2,1.6-0.4,2-1.1c0.6-1.2,0.6-2.7,0.1-3.9c-0.4-0.9-1.4-1.4-2.4-1.4c-1.6-0.1-3.2,0-4.8,0c0,4.4,0,8.8,0,13.3
			c0.6,0,1.3,0,1.9,0c-0.1-2,0.1-4-0.1-6C223.8,89.5,225.6,89.2,225.9,90.6z M222.7,87.9c0-1.4,0-2.8,0-4.2c1.1,0.1,2.4-0.2,3.3,0.5
			c0.6,0.8,0.5,2,0.1,3C225.4,88.3,223.8,87.8,222.7,87.9z"/>
		<path class="st1" d="M393.6,95.3c2.1-0.7,2.4-3.4,1.6-5.1c-1-1.9-3.4-2.1-4.8-3.5c-0.8-0.8-0.7-2.5,0.5-2.9c0.6-0.2,1.3-0.2,1.8,0
			c0.8,0.5,0.7,1.5,0.8,2.3c0.6,0,1.3,0,1.9,0c-0.1-1.2,0-2.8-1.2-3.5s-2.8-0.6-4.2-0.3c-2.2,0.6-2.6,3.6-1.4,5.3
			c1.2,1.5,3.3,1.9,4.6,3.2c0.8,0.9,0.6,2.8-0.7,3.2c-0.9,0.3-2.1,0.3-2.6-0.6c-0.3-0.7-0.3-1.6-0.4-2.3c-0.6,0-1.2,0-1.8-0.1
			c0,1.3-0.2,2.8,0.8,3.7C390,95.9,392,95.8,393.6,95.3z"/>
		<path class="st1" d="M281.7,84.3c1.2,3.7,2.3,7.5,3.5,11.2c1,0,1.9,0,2.9,0c0-4.4,0-8.8,0-13.3c-0.6,0-1.2,0-1.8,0
			c0,3.7,0.1,7.5,0,11.2c-1.1-3.7-2.3-7.5-3.4-11.2c-1,0-1.9,0-2.9,0c0,4.4,0,8.8,0,13.3c0.6,0,1.1,0,1.7,0
			C281.7,91.8,281.6,88,281.7,84.3z"/>
		<path class="st1" d="M276.1,113.3c0-0.5,0-0.9,0-1.4c-1.3,0-2.6,0-4,0c0.1-3.9,0-7.8,0-11.6c-0.5,0-1.1,0-1.6,0
			c0.1,4.4,0,8.7,0,13.1C272.5,113.3,274.3,113.3,276.1,113.3z"/>
		<path class="st1" d="M316.8,113.3c0.6,0,1.2,0,1.7,0c0-2,0-4,0-6c0.8,0,1.6,0,2.4,0v0.4c0.1,0,0.3-0.1,0.4-0.2
			c0.2,0.4,0.3,0.8,0.5,1.2h0.1c0,1.3,0,2.6,0.2,3.9c0,0.2,0.1,0.5,0.1,0.7c0.6,0,1.2,0,1.9,0c-0.1-0.2-0.3-0.7-0.4-0.9
			c0-0.9-0.1-1.7-0.1-2.6h-0.2c0-1,0-2-0.4-2.8c-0.4-0.1-0.7-0.1-1.1-0.1c0-0.1,0-0.3,0-0.4c1-0.3,1.7-1,2-2c0-0.7,0-1.4,0-2
			c-0.2-0.7-0.6-1.3-1-1.9c-2-0.7-4.1-0.2-6.2-0.4C316.8,104.6,316.8,109,316.8,113.3z M318.5,101.5c0.8,0,1.5,0,2.3,0
			c0.4,0.2,0.8,0.4,1.2,0.6c0,0.1,0.1,0.2,0.1,0.3c0.2,0.7,0.2,1.4,0.2,2.1c-0.1,0.3-0.3,0.7-0.4,1l-0.2-0.1c-1,0.5-2.1,0.4-3.2,0.4
			C318.5,104.4,318.5,103,318.5,101.5z"/>
		<path class="st1" d="M326.7,102.2c0,0.7,0,1.3,0,2c0.2,0.3,0.3,0.6,0.5,0.9c0,0.1,0,0.2,0,0.2c0.1,0.1,0.2,0.3,0.3,0.4
			c0.9,0.8,2,1.3,3,1.9c0.6,0.4,1.1,0.8,1.6,1.3c0.1,0.9,0.1,1.8-0.3,2.6c-0.2,0.1-0.6,0.3-0.7,0.5c-0.8,0.3-1.6,0.1-2.4-0.2
			c-0.2-0.5-0.4-1-0.6-1.5c0-0.5,0-0.9,0-1.4c-0.5,0-1.1,0-1.6,0c0,0.8,0,1.6,0.1,2.4c0.2,0.6,0.6,1.1,1.1,1.6
			c1.1,0.5,2.3,0.4,3.4,0.4c1.2,0,2.2-0.8,2.6-1.9c0.3-1.2,0.2-2.4-0.2-3.5c-0.6-0.7-1.4-1.3-2.2-1.7c-0.3-0.1-0.6-0.3-0.9-0.4
			c-0.6-0.4-1.3-0.8-1.8-1.4c-0.4-0.6-0.3-1.4-0.3-2.1h0.4c0-0.1-0.1-0.3-0.1-0.5c0.8-0.4,1.7-0.5,2.7-0.4c0.3,0.4,0.5,0.8,0.8,1.2
			c0,0.4,0,0.8-0.1,1.2c0.6,0,1.2,0,1.8,0c-0.1-0.7-0.2-1.5-0.3-2.2c-0.2-0.8-0.9-1.1-1.5-1.6c-1.4-0.1-2.9-0.2-4.2,0.5
			C327.3,101.1,327,101.7,326.7,102.2z"/>
		<path class="st1" d="M440,104.5c-0.1-0.7-0.1-1.4-0.3-2c-0.1-0.7-0.1-1.5-0.2-2.2c-0.6-0.1-1.1-0.1-1.7-0.2
			c0.1,0.6,0.1,1.2,0.3,1.8c0.1,0.6,0.2,1.2,0.3,1.7c0.2,1.6,0.6,3.2,0.7,4.8h0.1c0,1.2,0.3,2.4,0.6,3.6c0,0.4,0.1,0.9,0.1,1.3
			c0.7,0,1.4,0,2.1,0c0-0.1,0-0.3,0-0.4c0.2-0.7,0.2-1.4,0.3-2c0.1-0.7,0.2-1.4,0.4-2c0.1-0.6,0.1-1.2,0.2-1.7
			c0.3-1.4,0.5-2.8,0.6-4.2c0.1,0,0.3,0,0.5,0c0,0.7,0.1,1.5,0.3,2.2c0.1,0.5,0.1,1.1,0.1,1.6h0.1c0,0.7,0.1,1.5,0.3,2.2
			c0.1,0.5,0.1,1.1,0.1,1.6l0.2-0.1c0,0.7,0.1,1.5,0.3,2.2c0,0.2,0,0.5,0.1,0.7c0.7,0,1.3,0,2,0c0.1-0.9,0.3-1.8,0.4-2.8
			c0.2-1.2,0.5-2.4,0.5-3.6h0.1c0-0.5,0.1-1.1,0.1-1.6c0.3-1.1,0.4-2.1,0.6-3.2c0.1-0.6,0.2-1.3,0.3-1.9c-0.5,0-1.1,0-1.6,0
			c-0.2,0.8-0.3,1.7-0.3,2.5c-0.1,0.7-0.2,1.3-0.3,2c-0.2,1.2-0.4,2.5-0.6,3.7c-0.2,0.8-0.2,1.7-0.3,2.6c-0.1-0.4-0.3-1.1-0.4-1.4
			c-0.1-0.7-0.1-1.4-0.3-2c-0.2-1.3-0.4-2.7-0.6-4c-0.1-0.7-0.1-1.4-0.3-2c-0.1-0.5-0.1-0.9-0.1-1.4c-0.7,0-1.5,0-2.2,0
			c0,0.6-0.1,1.1-0.1,1.7c-0.2,0.7-0.2,1.4-0.3,2.2h-0.2c0,0.7-0.1,1.4-0.1,2.1l-0.2-0.1c0,0.6-0.1,1.3-0.2,1.9
			c-0.2,0.6-0.2,1.3-0.3,1.9H441c-0.1,0.3-0.2,0.6-0.3,0.9c-0.1-1.4-0.3-2.8-0.6-4.2C440.2,105.9,440.1,105.2,440,104.5z"/>
		<path class="st1" d="M278.5,113.3c2,0,4,0,6,0c0-0.5,0-1,0-1.4c-1.4,0-2.9,0-4.3,0c0-1.6,0-3.1,0-4.7c1.3,0,2.5,0,3.8,0
			c0-0.5,0-1,0-1.4c-1.3,0-2.5,0-3.8,0c0-1.4,0-2.9,0-4.3c1.4,0,2.7,0,4.1,0c0-0.4,0-0.9,0-1.3c-1.9,0-3.9,0-5.8,0
			C278.5,104.6,278.5,109,278.5,113.3z"/>
		<path class="st1" d="M418.2,113.3c0.6,0,1.2,0,1.8,0c0-2,0-4,0-6.1c1,0,2,0.1,2.9,0.4c0,0.1,0,0.2,0,0.3c1,1.7,0.3,3.7,0.8,5.4
			c0.6,0,1.3,0,1.9,0c-0.1-0.2-0.3-0.5-0.4-0.7c-0.1-1-0.1-2-0.3-2.9c0-0.9,0.1-1.9-0.6-2.7l-0.1-0.1c-0.2,0-0.7,0-0.9,0
			c0-0.1,0-0.3,0-0.4c0.6-0.2,1.2-0.6,1.7-1.1c0-0.4,0.1-0.9,0.1-1.3h0.2c0-0.4-0.1-0.9-0.1-1.3c-0.1-0.8-0.4-1.5-0.9-2.1l-0.1-0.1
			c-2-0.7-4.1-0.2-6.1-0.4C418.2,104.6,418.2,109,418.2,113.3z M419.9,101.5c1.2,0,2.5-0.1,3.6,0.6c0,0.1-0.1,0.3-0.2,0.4h0.4
			c0,0.7,0,1.4,0,2.1h-0.3c0,0.1,0.1,0.3,0.2,0.4c-1,0.9-2.4,0.7-3.6,0.7C419.9,104.4,419.9,103,419.9,101.5z"/>
		<path class="st1" d="M287.6,109.4c-0.2,0.9-0.5,1.8-0.6,2.7l-0.1-0.1c-0.1,0.4-0.1,0.8-0.2,1.2c0.5,0,1.1,0,1.6,0
			c0.1-0.5,0.3-1.1,0.4-1.6c0.1-0.4,0.2-0.8,0.2-1.2c0.1-0.1,0.2-0.2,0.3-0.3c1.2,0,2.3,0,3.5,0c0,0.1-0.1,0.3-0.2,0.5h0.3
			c0.1,0.9,0.3,1.8,0.4,2.6c0.6,0,1.2,0,1.8,0c-0.1-0.4-0.2-0.9-0.3-1.3c-0.3-1.3-0.5-2.5-0.9-3.7c0-0.3-0.1-0.8-0.1-1h-0.1
			c-0.1-0.9-0.3-1.8-0.6-2.7c0-0.3-0.1-0.7-0.1-1h-0.1c-0.1-1.1-0.4-2.2-0.7-3.3c-0.8,0-1.6,0-2.3,0c-0.1,0.6-0.3,1.1-0.4,1.7
			c-0.1,0.5-0.2,1-0.3,1.4c-0.1,0.4-0.2,0.8-0.3,1.2c-0.1,0.4-0.1,0.8-0.2,1.2c-0.1,0.4-0.2,0.8-0.3,1.2c-0.1,0.5-0.2,0.9-0.3,1.4
			C287.7,108.7,287.7,109.1,287.6,109.4z M289.8,106.2c0.1-0.5,0.2-1,0.3-1.4c0.1-0.5,0.1-1.1,0.2-1.6h0.2c0-0.2,0-0.7,0-1
			c0.1,0,0.4,0,0.5,0c0,0.5,0.1,1,0.1,1.5h0.2c0,0.5,0.1,1.1,0.2,1.6s0.3,1,0.4,1.4c0,0.4,0.1,0.9,0.1,1.3h0.2c0,0.2,0,0.6,0,0.9
			c-1,0-2,0-3,0C289.4,108,289.6,107.1,289.8,106.2z"/>
		<path class="st1" d="M314,113.3c0-0.5,0-0.9,0-1.4c-1.4,0-2.8,0-4.2,0c0-1.6,0-3.1,0-4.7c1.3,0,2.6,0,3.8,0c0-0.5,0-0.9,0-1.4
			c-1.3,0-2.6,0-3.8,0c0-1.4,0-2.9,0-4.3c1.4,0,2.7,0,4.1,0c0-0.4,0-0.9,0-1.3c-2,0-3.9,0-5.9,0c0,4.4,0,8.7,0,13.1
			C310.1,113.3,312,113.3,314,113.3z"/>
		<path class="st1" d="M428.4,101.9c-0.2,3.2-0.2,6.3,0,9.5c0.1,0.3,0.2,0.6,0.3,0.9c0.3,0.3,0.6,0.5,0.8,0.8c0.1,0,0.2,0.1,0.3,0.1
			c0.7,0.2,1.5,0.3,2.2,0.5l-0.1-0.2c0.8,0,1.5-0.1,2.3-0.4c0.3-0.3,0.6-0.6,1-1c0.5-1.3,0.3-2.7,0.3-4.1c0-2,0.1-4.1-0.1-6.1
			c-0.4-0.5-0.8-1-1.2-1.4c-0.3-0.1-0.6-0.2-0.9-0.4c-0.9-0.1-1.9-0.2-2.9,0c-0.2,0-0.5,0.1-0.6,0.2
			C429.3,100.8,428.8,101.3,428.4,101.9z M430.1,102.3c0.3-0.2,0.5-0.5,0.7-0.7c0.7-0.1,1.5-0.1,2.2,0c0.2,0.3,0.5,0.6,0.7,0.9
			c0,1.8,0.4,3.7,0.1,5.5c0,0.2,0,0.7,0,0.9c0,0.9,0,1.8-0.4,2.7c-0.3,0.1-0.6,0.3-0.9,0.4v0.3c-0.6,0-1.1-0.1-1.7-0.3
			c-0.1,0-0.2,0-0.3,0v-0.3h-0.4l0.1-0.4l-0.3,0.2c0-0.6-0.1-1.2-0.1-1.8h-0.2c0-2,0-4,0-6.1h0.2C430,103.1,430.1,102.7,430.1,102.3
			z"/>
		<path class="st1" d="M297.7,100.3c0,4.4,0,8.7,0,13.1c1.7,0,3.5,0,5.3,0l0.1-0.1c1-0.3,1.8-1.1,1.9-2.1c0.2-2,0-4,0.2-6
			c-0.1-1-0.1-2.1-0.2-3.1c-0.7-0.7-1.3-1.5-2.4-1.6C300.9,100.2,299.3,100.3,297.7,100.3z M302.9,102.1c0.2,0.7,0.6,1.4,0.5,2.2
			c0,2,0,4,0,5.9h-0.1c-0.1,0.4-0.3,0.7-0.4,1.1v0.3c-0.1,0-0.4-0.1-0.5-0.1v0.3c-1,0.1-2.1,0.1-3.1,0.1c0-3.4,0-6.7,0-10.1
			c0.1-0.1,0.2-0.2,0.3-0.3c0.9,0,1.9-0.1,2.8,0.3c0.1,0,0.2,0,0.3,0v0.3L302.9,102.1z"/>
		<path class="st1" d="M397.6,110.3c0.1,1,0.3,2.2,1.3,2.7c1.4,0.7,3,0.4,4.5,0.3c0.6-0.5,1.1-1.1,1.5-1.8c0.1-3.1,0.1-6.1,0-9.2
			c-0.4-1-1.2-1.7-2.1-2.1c-1.2-0.1-2.4-0.2-3.6,0.2l-0.1,0.1c-0.4,0.4-0.9,0.8-1.3,1.2c-0.1,0.6-0.1,1.3-0.2,1.9l-0.1-0.1
			C397.6,105.8,397.5,108,397.6,110.3z M399.6,102.2c0.2-0.2,0.4-0.4,0.7-0.7c0.8,0,2-0.4,2.6,0.4c0.5,0.6,0.5,1.5,0.5,2.3
			c0,2.3,0,4.5-0.1,6.8h-0.4c0,0.1,0.1,0.3,0.1,0.4c-0.4,0.2-0.9,0.5-1.3,0.7c-0.4-0.1-0.8-0.2-1.2-0.3c-0.1,0-0.2,0-0.3-0.1
			c-0.3-0.2-0.5-0.5-0.8-0.7c0-0.1,0.1-0.3,0.1-0.4h-0.3c0-2.3,0-4.5,0-6.8C399.2,103.4,399.4,102.8,399.6,102.2z"/>
		<path class="st1" d="M373.5,107.1L373.5,107.1L373.5,107.1z"/>
		<path class="st1" d="M375.7,101.9c0.8-0.4,1.7-0.5,2.6-0.3c0.2,0.2,0.5,0.5,0.7,0.7c0.1,0.5,0.2,1.1,0.3,1.6c0,2,0,4,0,5.9h-0.1
			c0,0.7-0.2,1.4-0.7,1.9l-0.1,0.2c-0.1,0-0.4-0.1-0.5-0.2v0.4c-0.6,0-1.3-0.1-1.9-0.4c-0.2-0.2-0.5-0.5-0.7-0.7
			c-0.2-1.3-0.1-2.6-0.1-3.9l-1.7-0.1c0,1.4,0,2.9,0.1,4.3c0.3,0.6,0.7,1.2,1.2,1.7c0.1,0,0.2,0,0.3,0c0.8,0.3,1.7,0.4,2.5,0.5v-0.2
			c0.5,0,1.1-0.1,1.6-0.1c0.6-0.4,1.1-0.9,1.5-1.6l0.1-0.1c0.1-2.9,0.1-5.9,0-8.8c0-1-0.7-1.7-1.3-2.3c-0.3-0.1-0.7-0.1-1-0.2V100
			c-0.9,0-1.8,0-2.7,0c-0.7,0.4-1.4,0.8-1.9,1.4c-0.5,1.3-0.3,2.7-0.3,4.1c0,0.5,0,1,0,1.4l1.7-0.1
			C375.3,105.3,374.9,103.5,375.7,101.9z"/>
		<path class="st1" d="M385.8,100c0,0.1,0,0.2,0,0.3l0,0C385.8,100.2,385.8,100.1,385.8,100z"/>
		<path class="st1" d="M386.6,105.8h0.1c0.1,0.5,0.1,1.1,0.3,1.6c0,0.3,0.1,0.7,0.1,1h0.2c0,0.4,0,0.8,0.1,1.2l0.2-0.1
			c0.1,0.5,0.1,1.1,0.2,1.6c0.1,0.4,0.2,0.8,0.4,1.2c0,0.3,0.1,0.7,0.1,1c0.6,0,1.2,0,1.8,0c0.3-1.3,0.7-2.7,0.9-4.1l0.1,0.1
			c0-0.4,0.1-0.7,0.1-1.1c0.1-0.4,0.2-0.8,0.3-1.2c0.2-0.9,0.5-1.8,0.6-2.7h0.2c0-0.5,0.1-1,0.1-1.5l0.5-0.1c-0.1,3.5,0,7,0,10.5
			c0.5,0,1,0,1.6,0c0-4.4,0-8.7,0-13.1c-0.8,0-1.6,0-2.4,0l-0.1-0.5c-0.4,1-0.6,2-0.8,3c-0.1,0.4-0.2,0.8-0.3,1.2
			c-0.1,0.5-0.2,0.9-0.3,1.4c-0.1,0.5-0.2,1.1-0.2,1.6L390,107c0,0.4-0.1,0.7-0.1,1.1c-0.2,0.7-0.4,1.5-0.5,2.2
			c-0.1,0-0.3,0-0.4-0.1c0-1-0.3-2-0.5-3c-0.1-0.5-0.2-1-0.4-1.4c0-0.3-0.1-0.7-0.1-1h-0.1c-0.1-0.9-0.3-1.8-0.6-2.7
			c-0.1-0.6-0.2-1.1-0.2-1.7c-0.4,0-0.8,0-1.1,0c0.1,1.1,0,2.2,0.2,3.3C386.3,104.4,386.5,105.1,386.6,105.8z"/>
		<path class="st1" d="M384,113.3c0.6,0,1.1,0,1.7,0c0.1-4.3-0.2-8.7,0.2-13c-0.6,0-1.2,0-1.9,0C384,104.6,384,109,384,113.3z"/>
		<path class="st1" d="M409.7,113.3c0-0.4,0-0.8-0.1-1.2h0.2c0-1,0-2,0-2.9l-1.7-0.1c0,1.4,0,2.8,0,4.2
			C408.6,113.3,409.2,113.3,409.7,113.3z"/>
		<path class="st1" d="M353.5,113.3c0-2,0-4,0-6.1c1.3,0,2.6,0,4,0c0-0.5,0-0.9,0-1.4c-1.3,0-2.6,0-3.9,0c0-1.4,0-2.9,0-4.3
			c1.3,0,2.7,0,4,0c0-0.3,0-1,0-1.3c-1.9,0-3.7,0-5.6,0c0,0.8,0,1.5,0,2.3c0,3.6,0,7.2,0,10.8C352.4,113.3,352.9,113.3,353.5,113.3z
			"/>
		<path class="st1" d="M409.8,107.3c1,0,2,0,3,0.4c0,0.1,0,0.2,0,0.3c0.2,0.4,0.4,0.8,0.5,1.2c0,1.4-0.1,2.9,0.3,4.3
			c0.6,0,1.2,0,1.8,0c-0.4-1-0.4-2.1-0.4-3.2h-0.2c0-1,0.1-1.9-0.3-2.8c-0.1-0.1-0.3-0.3-0.5-0.3c-0.5-0.2-1.1-0.3-1.6-0.5
			c0.5-0.1,1.1-0.1,1.6-0.2c0.7-0.6,1.1-1.3,1.1-2.2h0.1c0-0.3,0-0.9,0-1.2h-0.1c0-0.9-0.3-1.6-0.9-2.3c-2-0.8-4.2-0.2-6.2-0.4
			c0,3,0,5.9,0,8.9l1.7-0.1C409.8,108.4,409.8,107.9,409.8,107.3z M409.8,101.5c1.1,0,2.1,0,3.2,0.3c0.1,0.3,0.3,0.5,0.4,0.8h0.2
			c0,0.7,0,1.4,0,2.1h-0.3c0,0.1,0.1,0.4,0.1,0.5l-0.2,0.1c-1,0.9-2.4,0.6-3.6,0.6C409.9,104.4,409.8,103,409.8,101.5z"/>
		<path class="st1" d="M341.3,110.7h0.1c0.1,0.4,0.2,0.9,0.3,1.4c0,0.1,0.1,0.2,0.1,0.2c0.2,0.2,0.5,0.5,0.7,0.7
			c0.8,0.3,1.7,0.4,2.6,0.5c0.5-0.1,1.1-0.2,1.6-0.3l0,0c0.6-0.3,1.1-0.8,1.6-1.3c0.1-0.5,0.1-1.1,0.2-1.6h0.1
			c-0.1-2.6,0.2-5.3-0.1-7.9c0-1.2-1.1-1.9-2-2.4c-1-0.1-2.1-0.1-3.1,0c-0.4,0.2-0.7,0.4-1.1,0.6h-0.1c-0.4,0.6-0.7,1.1-1,1.8
			C341.3,105.2,341.3,108,341.3,110.7z M343.3,102.2c0.2-0.1,0.5-0.3,0.6-0.4l-0.1-0.2c0.8-0.1,1.6-0.1,2.4,0l-0.1,0.3l0.3-0.1v0.3
			h0.4c0,0.1-0.1,0.4-0.2,0.6h0.3c-0.1,2.8,0.2,5.6-0.2,8.3c0,0.1,0,0.2-0.1,0.3c-0.1,0.1-0.2,0.3-0.3,0.4c-0.1,0.1-0.3,0.2-0.4,0.3
			c-0.1,0-0.2,0-0.3,0.1c-0.4,0.1-0.8,0.2-1.2,0.3c-0.4-0.3-0.9-0.5-1.3-0.7c0-0.1,0.1-0.3,0.1-0.4h-0.4c-0.1-2.4,0-4.7-0.1-7.1
			C343,103.3,343.1,102.7,343.3,102.2z"/>
		<path class="st1" d="M408.1,109.2C408.1,109.1,408.1,109.1,408.1,109.2h-0.3H408.1z"/>
		<path class="st1" d="M372.1,100.3c-2.6,0-5.2,0-7.8,0c0,0.4,0,0.9,0,1.3c1,0,2,0,3,0c0,3.9,0,7.9,0,11.8c0.6,0,1.2,0,1.7,0
			c0-3.9,0-7.9,0-11.8c1,0,2.1,0,3.1,0C372.1,101.1,372.1,100.7,372.1,100.3z"/>
		<polygon class="st1" points="461.1,153.1 461.1,152.1 114.8,152.1 114.8,152.6 114.8,153.1 		"/>
	</g>
</g>
</svg>
