<?xml version="1.0" encoding="utf-8"?>
<!-- Generator: Adobe Illustrator 22.1.0, SVG Export Plug-In . SVG Version: 6.00 Build 0)  -->
<svg version="1.1" id="Best_Professional_Event_1_" xmlns="http://www.w3.org/2000/svg" xmlns:xlink="http://www.w3.org/1999/xlink"
	 x="0px" y="0px" viewBox="0 0 575.9 305.3" style="enable-background:new 0 0 575.9 305.3;" xml:space="preserve">
<style type="text/css">
	.st0{fill:#B59141;}
</style>
<path class="st0" d="M316.4,57.6c-3.5,0-6.9,0-10.4,0c0-2.6,0-5.1,0-7.7c3.5,0,6.9,0,10.4,0c0-0.4,0-0.8,0-1.2c-3.5,0-6.9,0-10.4,0
	c0-2.6,0-5.1,0-7.7c3.5,0,6.9,0,10.4,0c0-0.4,0-0.8,0-1.2c-3.9,0-7.7,0-11.6,0c0,6.3,0,12.6,0,18.9c3.9,0,7.7,0,11.6,0
	C316.4,58.4,316.4,58,316.4,57.6z"/>
<path class="st0" d="M295.3,79.9c0,1.7-1.2,3.1-2.7,3.6c-2,0.7-4.4,0.5-6-1c-0.7-0.7-1.1-1.6-1.1-2.6c0-4,0-8,0-12
	c-1.2,0-2.3,0-3.4,0c0,4.1,0,8.2,0,12.2c0,2.4,1.5,4.7,3.5,5.9c3,1.8,7,1.7,9.9-0.1c1.9-1.2,3.3-3.4,3.3-5.8c0-4.1,0-8.2,0-12.2
	c-1.2,0-2.3,0-3.4,0C295.3,71.9,295.3,75.9,295.3,79.9z"/>
<path class="st0" d="M291,95.8c-3.1,0.8-5.6,3.4-6.5,6.5c-1.3,4.2,0.2,9.2,4,11.6c3.9,2.6,9.6,1.6,12.4-2c-0.9-0.7-1.8-1.4-2.7-2.2
	c-1.8,2.3-5.4,3-7.8,1.3c-3.4-2.1-3.8-7.3-1.2-10.2c1.5-1.7,3.9-2.3,6-1.7c1.2,0.3,2.2,1.1,3,2c0.9-0.7,1.8-1.4,2.7-2.2
	C298.6,96,294.6,94.7,291,95.8z"/>
<path class="st0" d="M306.4,67.9c0,6.3,0,12.6,0,18.9c2.4,0,4.9,0,7.3,0c2.7-0.1,5.4-1.4,7-3.6c2.8-3.7,2.5-9.4-0.9-12.7
	c-1.7-1.7-4-2.6-6.4-2.6C311.1,67.9,308.7,67.9,306.4,67.9z M318.5,74.4c1.1,2.1,0.9,4.9-0.5,6.8c-1,1.3-2.6,2.1-4.2,2.2
	c-1.3,0-2.6,0-3.9,0c0-4,0-8,0-12.1c1.4,0,2.8-0.1,4.2,0.1C315.9,71.5,317.6,72.7,318.5,74.4z"/>
<path class="st0" d="M266.5,95.5c-4.2,0.5-7.5,4.1-8.1,8.1c-0.6,3.7,0.8,7.7,3.9,9.9c2.3,1.7,5.4,2.2,8.1,1.4
	c2.3-0.7,4.2-2.3,5.4-4.3c2.4-4,1.6-9.7-2-12.8C271.8,95.9,269.1,95.2,266.5,95.5z M271.2,110.7c-2.3,1.7-5.8,1.5-7.7-0.7
	c-1.8-1.9-2.2-4.9-1.3-7.3c0.7-1.8,2.2-3.3,4.1-3.7c1.9-0.5,4,0,5.4,1.3C274.5,103.1,274.4,108.4,271.2,110.7z"/>
<path class="st0" d="M243.8,30.7c0.4,0,0.8,0,1.2,0c0-5.9,0-11.8,0-17.8c2.2,0,4.5,0,6.7,0c0-0.4,0-0.8,0-1.2c-4.9,0-9.8,0-14.6,0
	c0,0.4,0,0.8,0,1.2c2.2,0,4.5,0,6.7,0C243.8,18.9,243.8,24.8,243.8,30.7z"/>
<path class="st0" d="M257.5,71.3c2.2,0,4.5,0,6.7,0c0,5.2,0,10.3,0,15.5c1.1,0,2.3,0,3.4,0c0-5.2,0-10.3,0-15.5c2.2,0,4.5,0,6.7,0
	c0-1.1,0-2.3,0-3.4c-5.6,0-11.3,0-16.9,0C257.5,69,257.5,70.2,257.5,71.3z"/>
<path class="st0" d="M260.2,57.7c2.4,1.7,5.8,2,8.4,0.6c2.2-1.1,3.9-3.3,4.6-5.6c1.1-3.6,0.4-7.9-2.3-10.7c-1.8-1.9-4.4-2.9-7-2.6
	c-1.7,0.2-3.3,1-4.6,2.2C254.9,45.8,255.2,54.1,260.2,57.7z M259,43.7c1-1.4,2.5-2.6,4.2-3c2.1-0.6,4.5,0,6.1,1.3
	c4.2,3.4,4.3,10.5,0.4,14.1c-1.4,1.3-3.4,2.1-5.3,1.9c-2-0.1-3.8-1.2-5-2.7C256.8,52.1,256.7,47.1,259,43.7z"/>
<path class="st0" d="M284.8,40.9c-5,3.6-5.4,11.8-1,16.1c2.1,2.1,5.5,2.9,8.3,1.8c1.6-0.6,3-1.9,3.9-3.3c0,1.1,0,2.2,0,3.3
	c0.4,0,0.8,0,1.2,0c0-3,0-6,0-9c-2.6,0-5.2,0-7.9,0c0,0.4,0,0.8,0,1.2c2.2,0,4.5,0,6.7,0c0.2,3.6-2.9,7.1-6.6,7.1
	c-2.6,0-5-1.5-6.2-3.7c-2-3.4-1.8-8.1,0.8-11.2c1.5-1.8,3.9-2.9,6.2-2.6c2,0.2,3.8,1.4,5.1,3c0.3-0.2,0.6-0.5,0.9-0.7
	c-0.8-1-1.7-1.9-2.9-2.5C290.7,38.9,287.2,39.1,284.8,40.9z"/>
<path class="st0" d="M292.3,25.4c1.4-3.5,1-7.9-1.5-10.8c-1.5-1.7-3.8-2.8-6.1-2.8c-2.1,0-4.1,0-6.2,0c0,6.3,0,12.6,0,18.9
	c2.2,0,4.4,0,6.6,0C288.3,30.6,291.1,28.3,292.3,25.4z M279.7,29.5c0-5.5,0-11.1,0-16.6c2.1,0.1,4.2-0.1,6.2,0.1
	c2.6,0.5,4.8,2.6,5.6,5.1c1.2,3.6,0.2,8.2-3.1,10.3C285.8,30.1,282.6,29.4,279.7,29.5z"/>
<path class="st0" d="M270.9,29.5c-3.5,0-6.9,0-10.4,0c0-2.6,0-5.1,0-7.7c3.5,0,6.9,0,10.4,0c0-0.4,0-0.8,0-1.2c-3.5,0-6.9,0-10.4,0
	c0-2.6,0-5.1,0-7.7c3.5,0,6.9,0,10.4,0c0-0.4,0-0.8,0-1.2c-3.9,0-7.7,0-11.6,0c0,6.3,0,12.6,0,18.9c3.9,0,7.7,0,11.6,0
	C270.9,30.3,270.9,29.9,270.9,29.5z"/>
<path class="st0" d="M422.6,76.5c2.3-2.2,3.6-5.4,3.3-8.6c-1.2,0-2.4,0-3.6,0c0.3,2.4-0.2,4.9-1.3,7.1
	C421.5,75.5,422.1,76,422.6,76.5z"/>
<path class="st0" d="M325.2,49.9c1.6,0,3.3,0,4.9,0c2,3,3.9,6,5.9,8.9c0.5,0,0.9,0,1.4,0c-2-3-3.9-5.9-5.9-8.9
	c1.1,0,2.2-0.1,3.1-0.7c2.7-1.7,2.9-6.1,0.5-8.2c-0.8-0.8-2-1.1-3.1-1.1c-2.7,0-5.4,0-8,0c0,6.3,0,12.6,0,19
	c0.4-0.1,0.8-0.1,1.2-0.1C325.2,55.8,325.2,52.8,325.2,49.9z M325.2,41c2.3,0,4.6,0,6.9,0c0.7,0,1.4,0.1,2,0.5
	c2.1,1.5,2.1,5.1,0,6.6c-0.6,0.5-1.5,0.6-2.3,0.6c-2.2,0-4.4,0-6.6,0C325.2,46.1,325.2,43.6,325.2,41z"/>
<path class="st0" d="M352.6,57.6c-2.8,1.2-6.9,0.3-8.1-2.9c-0.4,0.1-0.7,0.2-1.1,0.3c0.5,1.4,1.4,2.6,2.7,3.3
	c2.7,1.5,6.3,1.3,8.7-0.7c1.2-1,2-2.4,1.8-4c-0.1-1.8-1.4-3.3-2.9-4.2c-1.6-0.9-3.6-0.9-5.3-1.4c-1.3-0.3-2.5-1-3.1-2.2
	c-0.6-1-0.4-2.4,0.3-3.3c2.3-2.8,7.6-2.4,9.1,1c0.4-0.1,0.7-0.2,1.1-0.4c-1.3-3.4-5.8-4.5-8.9-3.1c-1.7,0.7-3.2,2.4-3.2,4.3
	c-0.1,1.8,1.1,3.3,2.6,4.1c1.9,1,4.1,0.9,6.1,1.7c1.5,0.6,2.9,2,2.9,3.7C355.5,55.6,354.1,56.9,352.6,57.6z"/>
<path class="st0" d="M332.7,99.4c0-1.1,0-2.3,0-3.4c-4.4,0-8.9,0-13.3,0c0,6.3,0,12.6,0,18.9c4.4,0,8.9,0,13.3,0c0-1.1,0-2.3,0-3.4
	c-3.3,0-6.6,0-9.9,0c0-1.4,0-2.9,0-4.3c3.3,0,6.6,0,9.9,0c0-1.1,0-2.3,0-3.4c-3.3,0-6.6,0-9.9,0c0-1.4,0-2.9,0-4.3
	C326.1,99.4,329.4,99.4,332.7,99.4z"/>
<path class="st0" d="M350.9,67.9c0,6.3,0,12.6,0,18.9c1.1,0,2.3,0,3.4,0c0-4.5,0-9,0-13.4c3.1,4.5,6.3,9,9.4,13.4c1.3,0,2.5,0,3.8,0
	c0-6.3,0-12.6,0-18.9c-1.2,0-2.3,0-3.4,0c0,4.5,0,8.9,0,13.4c-3.1-4.5-6.3-8.9-9.4-13.4C353.4,67.9,352.1,67.9,350.9,67.9z"/>
<path class="st0" d="M330,86.8c4.4,0,8.9,0,13.3,0c0-1.2,0-2.3,0-3.4c-3.3,0-6.6,0-9.9,0c0-1.4,0-2.9,0-4.3c3.3,0,6.6,0,9.9,0
	c0-1.1,0-2.3,0-3.4c-3.3,0-6.6,0-9.9,0c0-1.4,0-2.9,0-4.3c3.3-0.1,6.6-0.1,9.9-0.1c0-1.1,0-2.3,0-3.4c-4.4,0-8.9,0-13.3,0
	C330,74.2,330,80.5,330,86.8z"/>
<path class="st0" d="M370.8,106c0.1,2.9,0,5.9,0,8.8c1.1,0,2.3,0,3.4,0c0-2.9,0-5.9,0-8.8c2.5-3.4,5-6.7,7.5-10.1
	c-1.4,0-2.9,0-4.3,0c-1.6,2.2-3.2,4.4-4.9,6.6c-1.6-2.2-3.2-4.4-4.8-6.6c-1.4,0-2.9,0-4.3,0C365.9,99.3,368.5,102.6,370.8,106z"/>
<path class="st0" d="M405,83.8c-1.3-0.2-2.7-0.8-3.4-2.1c-1.1,0.3-2.2,0.6-3.3,1c0.5,1.2,1.3,2.4,2.4,3.1c2.8,1.9,6.8,2,9.8,0.2
	c1.7-1,3.1-2.8,2.9-4.9c0-2.2-1.7-4-3.6-4.9c-2-1-4.3-0.8-6.4-1.7c-0.9-0.4-1.8-1.5-1-2.4c1.8-1.9,5.5-1.8,7.1,0.4
	c1.1-0.4,2.1-0.8,3.2-1.2c-0.4-1.1-1.2-2-2.1-2.7c-2.8-1.8-6.7-1.8-9.4,0c-1.4,1-2.5,2.6-2.4,4.3c0,1.9,1.4,3.5,3,4.4
	c1.8,1,4,1,6,1.6c0.9,0.3,1.9,0.9,2.2,1.8c0.2,0.9-0.2,1.6-0.7,2C408.1,83.7,406.5,83.9,405,83.8z"/>
<path class="st0" d="M350.5,114.8c0-5.2,0-10.3,0-15.5c2.2,0,4.5,0,6.7,0c0-1.1,0-2.3,0-3.4c-5.6,0-11.3,0-16.9,0c0,1.1,0,2.3,0,3.4
	c2.3,0,4.5,0,6.8,0c0,5.2,0,10.3,0,15.5C348.3,114.8,349.4,114.8,350.5,114.8z"/>
<path class="st0" d="M381.9,86.8c1.1,0,2.3,0,3.4,0c0-5.2,0-10.3,0-15.5c2.2,0,4.5,0,6.7,0c0-1.1,0-2.3,0-3.4c-5.6,0-11.3,0-16.9,0
	c0,1.1,0,2.3,0,3.4c2.2,0,4.5,0,6.7,0C381.9,76.5,381.9,81.6,381.9,86.8z"/>
<path class="st0" d="M542.9,203c0.3-0.1,0.6-0.4,0.7-0.7c0.2-0.4,2-2.9,2.3-3.4c6.6,1.7,12.7-2.7,16.5-7.3c4.7-5.4,7.7-11.3,10.5-18
	c1.4-3.3,3.3-9.1,2.8-13.1c-0.6,0.2-1.2,0.3-1.8,0.5c-4.3,1.5-11.3,5-18.2,13c-5.9,6.9-8.7,13.8-10.7,24c-0.5,0.6-0.9,1.1-1.4,1.6
	c3-11.8,4.4-24.3,4.5-37.3c0.3-0.2,0.5-0.6,0.6-1c0.2-0.4,1.4-3.2,1.6-3.8c6.7-0.4,11.2-6.7,13.7-12.4c3-6.7,4.6-13.1,5.6-20.5
	c0.5-3.6,0.8-9.9-0.1-14c-0.6,0.4-1.1,0.7-1.6,1.1c-3.8,2.8-10.1,8.5-14.7,18.4c-4,8.6-4.6,16.3-4,26.7c-0.4,0.8-0.8,1.5-1.2,2.3
	c0-7.2-0.4-14.6-1.1-22.1c-0.4-4.7-1.1-9.3-1.9-13.9c0.5,0,0.7-0.7,0.7-1.3c0.1-0.5,0.8-3.4,0.8-4c6.1-2.6,8.8-8.8,9.9-14.9
	c1.3-7.1,1.3-14.5,0.7-21.8c-0.3-3.6-1.4-9.6-3.1-13.1c-0.4,0.5-0.8,1-1.2,1.5c-6,7.1-9.8,15.9-10.3,26.1c-0.4,7.2,0.7,14,2.8,21.4
	c-0.2,1.2-0.5,2.3-0.7,3.5c-2.2-11.6-5.7-22.8-10.1-33.4c0.3-0.3,0.3-0.8,0.2-1.3c0-0.4-0.1-3.5-0.2-4.1c5.3-4,6.8-11,6.6-17.3
	c-0.2-7.2-1.7-14.3-3.7-21.1c-1-3.4-3.3-8.9-5.6-11.8c-0.3,0.6-0.6,1.2-0.9,1.8c-2.2,4.4-4.9,11.3-4.7,22.3c0.1,9.5,2.5,17.7,7,25.3
	c0,1,0.1,2.3,0.1,3.5c-5-11.3-11.1-21.9-18.2-31.7c0.2-0.3,0.1-0.8,0-1.3c-0.1-0.6-0.4-3.2-0.6-3.9c4.4-3.5,4.8-12.2,3.4-18
	c-0.7-4-2.1-7.7-3.8-11.3c-3.3-6.6-7.2-12.4-12.7-16.8c-0.2,0.7-0.3,1.3-0.4,1.9c-0.9,5.3-1.1,12.7,0.8,22.2c2,9,5.5,15.6,11.7,22.2
	c0.2,1.3,0.3,2.4,0.5,3.6c-6.1-8.2-12.9-15.8-20.2-22.8c-0.1-0.1-0.1-0.1-0.2-0.1c0-0.1,0-0.2-0.2-0.3c-1-0.9-2-1.7-3-2.5
	c0.9-5-1.4-10.2-5.9-14.4C477.9,4.8,470,3.3,461.8,0c-0.4-0.2-0.7-0.3-1.1-0.5c0,0.3,0.1,0.6,0.2,0.9c1.5,5.8,4.8,12.2,8.8,16.5
	c1.7,2,3.7,3.6,5.7,5c4.6,3,9.4,4.5,14.4,4.5c0.9,0.8,1.6,1.3,2.6,2.2c0.4,0.3,0.5,0.4,0.7,0.3c-0.2,0.1-0.2,0-0.1,0.2
	c5.6,5.2,10.9,10.9,15.8,17.1c-1-0.1-2.1-0.2-3.1-0.4c-2-6.5-7.8-9.3-13.1-10.4c-6.3-1.3-13.3,0.7-20.8,1.7
	c-0.4,0.1-0.8,0.1-1.2,0.1c0.1,0.2,0.3,0.4,0.5,0.7c3.1,4.3,8,8.2,12.8,10.1c3.2,1.4,7,2.1,10.8,2c4-0.1,7.3-1,10.7-3.3
	c0.5,0.2,3.5,1,4.1,0.5c6.4,8.3,12.1,17.4,17,27c-1.1-0.4-2.3-0.6-3.3-1.1c-0.4-4.6-3-8.9-8.1-11.8c-7.8-4.1-16.7-3.5-25-4.2
	c-0.4,0-0.8-0.1-1.2-0.1c0.1,0.2,0.3,0.5,0.4,0.7c2.8,4.8,7.3,10,11.9,13c3.1,2.1,6.9,3.6,10.7,4.4c4,0.7,7.4,0.3,11.1-1.1
	c0.5,0.3,3.7,1.9,4.1,1.4c5.6,11.2,10,23.2,13.2,35.6c-0.9-0.6-1.9-1.1-2.7-1.8c0.3-5.1-0.8-10.2-5.4-15.1
	c-7.1-6.9-16.5-9.2-25.1-12.8c-0.4-0.2-0.8-0.4-1.2-0.5c0.1,0.3,0.1,0.6,0.2,0.9c1.7,5.9,5.1,12.8,9.2,17.4c2.7,3.1,6.3,6.1,10,8.1
	c3.9,2.1,7.6,2.8,11.8,2.6c0.4,0.4,2.8,2.6,3.7,2.8c2.8,11.4,4.5,23,5.1,34.7c0.1,2,0.2,4,0.2,6c-0.8-0.9-1.7-1.8-2.3-2.8
	c1.4-4.7,0.8-11.4-2.7-17.8c-5.5-9.4-13.5-13.9-21.3-20.5c-0.3-0.3-0.7-0.7-1-1c0,0.3-0.1,0.6,0,1c0.2,6.4,1.8,14.5,4.9,20.5
	c1.9,4.1,4.8,8.2,8.1,11.6c3.5,3.5,7.1,5.4,11.3,6.7c0.4,0.6,2.2,3.7,3.1,4.1c0.1,13.8-1.3,27.1-4.2,39.8c-0.5-1.2-1.1-2.6-1.6-3.8
	c2.6-2.5,3.5-9.4,1.4-16.7c-3.5-10.6-11.3-18.6-17.6-27.5c-0.3-0.4-0.6-0.8-0.9-1.2c-0.1,0.3-0.1,0.6-0.2,1
	c-1.1,6.2-1,14.4,0.7,21.2c1.1,4.5,3.1,9.4,5.7,13.6c2.7,4.5,5.8,7.5,9.7,10c0.3,0.8,1.6,4.5,2.4,5.2c-3.3,13.9-8.2,26.9-14.5,38.7
	c-0.2-1.2-0.4-2.6-0.5-3.8c2.9-1.9,5.2-7.9,5.7-15.4c-0.5-11.3-5.6-21.5-9.6-32.1c-0.1-0.5-0.3-1-0.5-1.5c-0.2,0.2-0.3,0.5-0.4,0.8
	c-2.7,5.6-4.8,13.4-4.9,20.4c-0.2,4.6,0.5,10,1.8,14.9c1.4,5.1,3.5,9.1,6.6,12.9c0,0.6,0.3,3.2,0.8,4.8c0.1,0.2,0.1,0.4,0.2,0.6
	c-6.1,11-13.5,20.8-21.9,29.2c0-1.2,0.1-2.4,0.3-3.6c3.3-1,7.6-6,9.5-12.8c2.3-10.9-0.2-22.1-1.4-33.6c-0.1-0.5-0.1-1-0.1-1.6
	c-0.2,0.2-0.5,0.4-0.7,0.6c-4,4.3-8,11.1-9.8,17.6c-1.3,4.3-2,9.6-2,14.8c0.1,5.4,1.1,9.9,3.1,14.5c-0.1,0.7-0.2,3.2-0.2,4.9
	c0,0.1,0,0.3,0,0.5c-9,8.7-19.2,15.7-30.3,20.6c0.2-1,0.4-1.9,0.8-2.9c3.2,0.7,8.6-3.3,12.3-8.5c5-9,5.5-19.6,7.5-30.4
	c0.1-0.5,0.2-1,0.3-1.5c-0.2,0.1-0.5,0.2-0.8,0.3c-4.8,2.4-10.2,6.7-13.7,11.9c-2.4,3.4-4.6,8.1-5.9,12.8c-1.3,4.9-1.4,9.6-0.7,14.6
	c-0.3,0.5-0.7,2.6-1.1,4.2c0,0.1,0,0.1-0.1,0.2s-0.3,0.1-0.4,0.2c-7.9,3.3-16.2,5.9-24.8,7.2c-0.6,0.8-1,1.9-1,3
	c8.4-1.2,16.4-3.3,24-6.3c0.1,0.1,0.2,0.1,0.3,0.2c1.2,0.3,3.2,0.6,4.3,0.9c3.2,7.2,10.5,9.8,16.1,10.5c6.8,1,12.9,0.3,19.1-1.4
	c3.1-0.8,8.5-2.8,10.8-5.7c-0.5-0.5-1-0.9-1.6-1.4c-3.9-3.1-11-8.1-20.9-9.5c-8.6-1.2-15.1,0.9-23.3,5.8c-0.8-0.1-1.6-0.2-2.3-0.4
	c10.7-4.6,20.5-11,29.3-18.9h0.1c1.2-0.1,3.1-0.4,4.3-0.6c4.6,5.9,12.1,6.1,17.6,5c6.6-1.1,12.3-3.7,17.7-7.3c2.8-1.7,7.4-5.3,9-8.8
	c-0.5-0.3-1.2-0.6-1.8-0.8c-4.4-1.8-12.6-4.3-22.3-2.5c-8.4,1.5-14.2,5.6-20.4,12.8c-0.7,0.1-1.4,0.2-2.1,0.2c8.5-8,16-17.4,22.4-28
	c0.3,0.1,0.7-0.1,1-0.4s2.7-1.7,3.2-2.1c5.9,3.8,14.4,1.5,19.2-1.6c6.3-3.9,17.7-16,18.8-25.2c-0.7,0-1.3-0.1-1.9-0.1
	c-4.5,0-11.6,0.1-20,5.5c-7.4,4.6-12.2,10.9-16.7,20.2c-0.7,0.4-1.4,0.8-2.1,1.2c6.2-10.7,11.3-22.6,15.2-35.3
	C542.4,204.8,542.6,203.9,542.9,203z"/>
<path class="st0" d="M243.2,83.8c-1.4-0.1-2.8-0.8-3.5-2.1c-1.1,0.3-2.2,0.6-3.3,1c0.5,1.3,1.3,2.4,2.5,3.1c2.9,1.9,6.8,1.9,9.8,0.2
	c1.6-0.9,2.8-2.5,2.9-4.4c0.2-2.1-1.2-4-2.9-5c-1.8-1.1-3.9-1.2-5.9-1.6c-1-0.2-2-0.7-2.4-1.6c-0.3-0.8,0.4-1.6,1.1-1.9
	c2-1.1,4.8-0.8,6.2,1.1c1.1-0.4,2.1-0.8,3.2-1.2c-0.6-1.6-2-2.8-3.6-3.4c-2.7-1-5.9-0.8-8.3,1c-1.3,1-2.2,2.5-2.1,4.2
	c0,1.9,1.3,3.5,2.9,4.4c1.7,1,3.8,1.1,5.7,1.5c1,0.2,2,0.8,2.5,1.7c0.3,0.6-0.1,1.4-0.6,1.9C246.2,83.7,244.7,84,243.2,83.8z"/>
<path class="st0" d="M104.9,289.3c-0.1-0.1-0.3-0.1-0.4-0.2c0-0.1,0-0.1-0.1-0.2c-0.4-1.6-0.8-3.7-1.1-4.2c0.6-4.9,0.6-9.6-0.7-14.6
	c-1.3-4.7-3.5-9.4-5.9-12.8c-3.5-5.2-8.9-9.5-13.7-11.9c-0.3-0.1-0.5-0.2-0.8-0.3c0.1,0.5,0.2,0.9,0.3,1.5C84.4,257.3,85,268,90,277
	c3.6,5.2,9.1,9.3,12.3,8.5c0.5,1,0.6,1.9,0.8,2.9c-11.1-4.9-21.3-11.9-30.3-20.6c0-0.2,0-0.3,0-0.5c0-1.7-0.1-4.2-0.2-4.9
	c2-4.6,3-9.1,3.1-14.5c0-5.1-0.7-10.4-2-14.8c-1.9-6.6-5.9-13.3-9.8-17.6c-0.2-0.2-0.5-0.4-0.7-0.6c0,0.6,0,1.1-0.1,1.6
	c-1.2,11.5-3.7,22.7-1.4,33.6c2,6.8,6.3,11.7,9.5,12.8c0.2,1.2,0.2,2.4,0.3,3.6c-8.4-8.4-15.8-18.2-21.9-29.2
	c0.1-0.2,0.1-0.4,0.2-0.6c0.4-1.6,0.7-4.2,0.8-4.8c3-3.8,5.1-7.8,6.6-12.9c1.4-5,2-10.3,1.9-14.9c-0.2-7-2.2-14.9-4.9-20.4
	c-0.2-0.2-0.3-0.5-0.4-0.8c-0.2,0.5-0.3,1-0.5,1.5c-4.1,10.6-9.1,20.8-9.6,32.1c0.5,7.4,2.7,13.5,5.7,15.4c-0.1,1.2-0.2,2.5-0.5,3.8
	c-6.3-11.8-11.3-24.8-14.5-38.7c0.8-0.7,2.1-4.4,2.4-5.2c3.9-2.5,7.1-5.6,9.7-10c2.6-4.2,4.6-9.2,5.7-13.6c1.7-6.7,1.7-15,0.7-21.2
	c-0.1-0.3-0.1-0.6-0.2-1c-0.3,0.4-0.6,0.8-0.9,1.2c-6.3,8.8-14.1,16.8-17.6,27.5c-2.1,7.2-1.2,14.2,1.4,16.7
	c-0.5,1.2-1.1,2.6-1.6,3.8c-2.8-12.7-4.3-26-4.2-39.8c0.9-0.4,2.8-3.5,3.1-4.1c4.2-1.2,7.9-3.2,11.3-6.7c3.3-3.4,6.2-7.5,8.1-11.6
	c3-6,4.7-14.1,4.9-20.5c0-0.4,0-0.7,0-1c-0.4,0.3-0.7,0.7-1,1c-7.8,6.5-15.8,11.1-21.3,20.5c-3.4,6.4-4.1,13.1-2.7,17.8
	c-0.7,1-1.5,1.9-2.3,2.8c0-2,0.1-4,0.2-6c0.6-11.7,2.3-23.4,5.1-34.7c1-0.2,3.3-2.4,3.7-2.8c4.1,0.2,7.9-0.5,11.8-2.6
	c3.7-2,7.3-5,10-8.1c4.1-4.7,7.5-11.6,9.2-17.4c0.1-0.3,0.2-0.6,0.2-0.9c-0.4,0.2-0.8,0.4-1.2,0.5c-8.6,3.6-18,5.9-25.1,12.8
	c-4.6,4.8-5.8,10-5.4,15.1c-0.8,0.6-1.8,1.2-2.7,1.8c3.2-12.4,7.6-24.4,13.2-35.6c0.5,0.5,3.6-1.1,4.1-1.4c3.7,1.4,7.1,1.8,11,1.1
	c3.8-0.7,7.6-2.3,10.7-4.4c4.6-3,9.1-8.2,11.9-13c0.1-0.2,0.2-0.5,0.4-0.7c-0.4,0-0.7,0.1-1.2,0.1c-8.3,0.7-17.2,0.1-25,4.2
	c-5.1,3-7.7,7.3-8.1,11.8c-1,0.4-2.2,0.7-3.3,1.1c4.9-9.7,10.5-18.7,17-27c0.6,0.5,3.5-0.3,4.1-0.5c3.4,2.3,6.8,3.2,10.8,3.3
	c3.8,0.1,7.6-0.6,10.8-2c4.8-1.9,9.7-5.8,12.8-10.1c0.2-0.2,0.4-0.4,0.5-0.7c-0.4,0-0.8,0-1.2-0.1c-7.5-1-14.5-3-20.8-1.7
	c-5.3,1.1-11,3.9-13.1,10.4c-1,0.2-2.1,0.3-3.1,0.4c4.9-6.2,10.1-11.9,15.8-17.1c0.1-0.2,0.1-0.1-0.1-0.2c0.3,0.1,0.3,0,0.7-0.3
	c0.9-0.8,1.6-1.3,2.6-2.2c5.1,0,9.9-1.5,14.4-4.5c2-1.4,4-3,5.7-5c4-4.4,7.3-10.7,8.8-16.5c0.1-0.3,0.1-0.6,0.2-0.9
	c-0.4,0.2-0.7,0.3-1.1,0.5c-8.7,3.5-16.6,5-23.2,11.4c-4.5,4.2-6.8,9.4-5.9,14.4c-1,0.8-2.1,1.6-3,2.5c-0.1,0.1-0.2,0.2-0.2,0.3
	c0,0-0.1,0-0.2,0.1c-7.4,7-14.1,14.6-20.2,22.8c0.2-1.2,0.3-2.3,0.5-3.6C68.3,41.5,71.8,35,73.8,26c2-9.4,1.7-16.9,0.8-22.2
	c-0.1-0.6-0.3-1.3-0.4-1.9C68.6,6.2,64.8,12,61.5,18.6c-1.7,3.6-3.1,7.2-3.8,11.3c-1.4,5.9-1,14.5,3.4,18c-0.2,0.8-0.5,3.4-0.6,3.9
	s-0.2,1,0,1.3C53.4,63,47.2,73.6,42.3,84.9c0-1.2,0.1-2.4,0.1-3.5c4.5-7.6,6.9-15.9,7-25.3c0.2-10.9-2.5-17.9-4.7-22.3
	c-0.3-0.6-0.6-1.2-0.9-1.8c-2.4,2.9-4.6,8.4-5.6,11.8c-2.1,6.8-3.6,13.9-3.7,21.1c-0.2,6.3,1.3,13.3,6.6,17.3c0,0.6-0.2,3.7-0.2,4.1
	c-0.1,0.4-0.1,1,0.2,1.3C36.7,98.2,33.3,109.3,31,121c-0.2-1.1-0.5-2.3-0.7-3.5c2-7.4,3.1-14.1,2.8-21.4c-0.6-10.2-4.4-19-10.3-26.1
	c-0.4-0.5-0.8-1.1-1.2-1.5c-1.7,3.5-2.8,9.5-3.1,13.1c-0.6,7.3-0.6,14.6,0.7,21.8c1.1,6.1,3.8,12.2,9.9,14.9c0.1,0.6,0.8,3.6,0.8,4
	c0,0.6,0.2,1.2,0.7,1.3c-0.8,4.6-1.5,9.2-1.9,13.9c-0.7,7.5-1.1,14.9-1.1,22.1c-0.4-0.7-0.8-1.4-1.2-2.3c0.6-10.5,0-18.1-4-26.7
	c-4.5-9.9-10.8-15.6-14.7-18.4c-0.5-0.4-1-0.8-1.6-1.1c-0.9,4-0.6,10.3-0.1,14c1,7.4,2.6,13.9,5.6,20.5c2.5,5.7,7.1,12,13.7,12.4
	c0.2,0.6,1.4,3.3,1.6,3.8c0.1,0.4,0.3,0.8,0.6,1c0.2,13,1.5,25.5,4.5,37.3c-0.4-0.5-0.9-1.1-1.4-1.6c-1.9-10.3-4.8-17.1-10.7-24
	c-6.8-7.9-13.9-11.5-18.2-13c-0.6-0.2-1.2-0.3-1.8-0.5c-0.4,4,1.4,9.7,2.8,13.1c2.8,6.7,5.8,12.6,10.5,18c3.9,4.6,10,9,16.5,7.3
	c0.3,0.5,2.1,3,2.3,3.4c0.2,0.3,0.5,0.6,0.7,0.7c0.2,0.9,0.5,1.7,0.8,2.6c3.9,12.7,9,24.5,15.2,35.3c-0.7-0.4-1.4-0.7-2.1-1.2
	c-4.5-9.3-9.3-15.6-16.7-20.2c-8.4-5.4-15.5-5.5-20-5.5c-0.6,0-1.2,0-1.9,0.1c1.1,9.2,12.5,21.3,18.8,25.2
	c4.8,3.1,13.3,5.5,19.2,1.6c0.5,0.4,2.9,1.8,3.2,2.1s0.7,0.5,1,0.4c6.4,10.6,13.9,20,22.4,28c-0.7-0.1-1.4-0.1-2.1-0.2
	c-6.2-7.2-12-11.3-20.4-12.8c-9.7-1.8-18,0.7-22.3,2.5c-0.6,0.2-1.2,0.5-1.8,0.8c1.6,3.5,6.1,7.1,9,8.8c5.5,3.6,11.1,6.2,17.7,7.3
	c5.5,1.1,12.9,0.8,17.6-5c1.2,0.2,3.1,0.5,4.3,0.6h0.1c8.8,7.9,18.6,14.3,29.3,18.9c-0.7,0.2-1.5,0.3-2.3,0.4
	c-8.2-4.8-14.7-7-23.3-5.8c-9.9,1.4-17,6.3-20.9,9.5c-0.6,0.5-1.1,0.9-1.6,1.4c2.4,2.9,7.7,4.9,10.8,5.7c6.2,1.7,12.3,2.4,19.1,1.4
	c5.6-0.7,12.9-3.3,16.1-10.5c1.1-0.3,3.1-0.6,4.3-0.9c0.1,0,0.2-0.1,0.3-0.2c7.6,3,15.5,5.2,24,6.3c0.2-1.7-0.2-2.8-0.8-3.6
	C121.1,295.2,112.8,292.6,104.9,289.3z"/>
<path class="st0" d="M238.2,49.9c1.6,0,3.3,0,4.9,0c2,3,3.9,6,5.9,8.9c0.5,0,0.9,0,1.4,0c-2-3-3.9-5.9-5.9-8.9
	c1.1,0,2.2-0.1,3.1-0.7c2.7-1.8,2.9-6.3,0.4-8.3c-0.8-0.7-1.9-1-3-1c-2.7,0-5.3,0-8,0c0,6.3,0,12.6,0,19c0.5-0.1,0.9-0.1,1.2-0.1
	C238.2,55.8,238.2,52.8,238.2,49.9z M238.2,41c2.3,0,4.6,0,6.8,0c0.7,0,1.4,0.1,2,0.5c2.2,1.5,2.1,5.2-0.1,6.7
	c-0.6,0.4-1.4,0.5-2.2,0.5c-2.2,0-4.4,0-6.6,0C238.2,46.1,238.2,43.6,238.2,41z"/>
<path class="st0" d="M238.8,113.9c2.1,1.4,4.9,1.7,7.3,1.2c1.9-0.5,3.7-1.5,4.7-3.2c1-1.6,0.8-3.8-0.3-5.3c-1.3-1.8-3.4-2.7-5.5-3
	c-1.5-0.3-3.3-0.3-4.5-1.6c-0.6-0.6-0.4-1.6,0.3-2.1c2-1.4,5.2-1.3,6.6,0.8c1.1-0.4,2.1-0.8,3.2-1.2c-0.7-1.7-2.2-3-3.9-3.5
	c-2.5-0.8-5.4-0.6-7.6,0.9c-1.3,0.9-2.4,2.4-2.4,4.1c-0.1,1.7,1,3.3,2.3,4.2c1.7,1.2,3.8,1.4,5.8,1.8c1.1,0.2,2.4,0.7,3,1.7
	c0.4,0.6,0.2,1.4-0.3,1.9c-0.9,1-2.5,1.3-4,1.3s-3.1-0.7-3.9-2.1c-1.1,0.3-2.2,0.6-3.3,1C236.8,112.1,237.6,113.2,238.8,113.9z"/>
<rect x="149.9" y="85.8" class="st0" width="20.2" height="31"/>
<rect x="178.9" y="49.1" class="st0" width="20.2" height="67.7"/>
<rect x="207.8" y="8.8" class="st0" width="20.2" height="108"/>
<rect x="308.1" y="95.9" class="st0" width="3.4" height="18.9"/>
<polygon class="st0" points="114.8,152.1 114.8,153.1 461.1,153.1 461.1,152.6 461.1,152.1 "/>
<path class="st0" d="M120.2,195.8v1c0,3-0.9,4.8-2.9,5.8c2.4,0.9,3.4,3.1,3.4,6.1v2.3c0,4.4-2.3,6.8-6.8,6.8h-7.1v-28.7h6.8
	C118.2,189.2,120.2,191.4,120.2,195.8z M111.2,193.3v7.6h1.8c1.7,0,2.7-0.7,2.7-3v-1.6c0-2-0.7-3-2.3-3H111.2z M111.2,205v8.8h2.6
	c1.5,0,2.3-0.7,2.3-2.8v-2.5c0-2.7-0.9-3.5-2.9-3.5H111.2z"/>
<path class="st0" d="M127.8,201.3h6.2v4.1h-6.2v8.4h7.8v4.1h-12.3v-28.7h12.3v4.1h-7.8V201.3z"/>
<path class="st0" d="M144.5,188.9c4.4,0,6.6,2.6,6.6,7.2v0.9h-4.3v-1.2c0-2-0.8-2.8-2.3-2.8s-2.3,0.8-2.3,2.8c0,5.9,8.8,7,8.8,15.2
	c0,4.6-2.3,7.2-6.7,7.2s-6.7-2.6-6.7-7.2v-1.8h4.3v2.1c0,2,0.9,2.8,2.3,2.8c1.4,0,2.3-0.7,2.3-2.8c0-5.9-8.8-7-8.8-15.2
	C137.8,191.5,140.1,188.9,144.5,188.9z"/>
<path class="st0" d="M152.4,189.2h13.9v4.1h-4.7v24.6h-4.5v-24.6h-4.7V189.2z"/>
<path class="st0" d="M174.3,196.1c0-4.6,2.4-7.2,6.8-7.2s6.8,2.6,6.8,7.2V211c0,4.6-2.4,7.2-6.8,7.2s-6.8-2.6-6.8-7.2V196.1z
	 M178.8,211.3c0,2,0.9,2.8,2.3,2.8c1.4,0,2.3-0.8,2.3-2.8v-15.5c0-2-0.9-2.8-2.3-2.8c-1.4,0-2.3,0.8-2.3,2.8V211.3z"/>
<path class="st0" d="M195.2,189.2v22.1c0,2,0.9,2.8,2.3,2.8c1.4,0,2.3-0.7,2.3-2.8v-22.1h4.3v21.9c0,4.6-2.3,7.2-6.7,7.2
	s-6.7-2.6-6.7-7.2v-21.9H195.2z"/>
<path class="st0" d="M205.9,189.2h13.9v4.1h-4.7v24.6h-4.5v-24.6h-4.7V189.2z"/>
<path class="st0" d="M231.3,217.9c-0.2-0.7-0.4-1.2-0.4-3.5v-4.5c0-2.7-0.9-3.6-3-3.6h-1.6V218h-4.5v-28.7h6.8
	c4.7,0,6.7,2.2,6.7,6.6v2.3c0,3-0.9,4.9-3,5.8c2.3,0.9,3,3.1,3,6.1v4.4c0,1.4,0,2.4,0.5,3.5h-4.5V217.9z M226.4,193.3v8.8h1.8
	c1.7,0,2.7-0.7,2.7-3v-2.8c0-2-0.7-3-2.3-3H226.4z"/>
<path class="st0" d="M242.8,201.3h6.2v4.1h-6.2v8.4h7.8v4.1h-12.3v-28.7h12.3v4.1h-7.8V201.3z"/>
<path class="st0" d="M268,217.9h-4.6l-0.8-5.2h-5.5l-0.8,5.2h-4.1l4.6-28.7h6.6L268,217.9z M257.7,208.8h4.3l-2.2-14.5L257.7,208.8z
	"/>
<path class="st0" d="M283.2,207.2v3.8c0,4.6-2.3,7.2-6.7,7.2s-6.7-2.6-6.7-7.2v-14.9c0-4.6,2.3-7.2,6.7-7.2s6.7,2.6,6.7,7.2v2.8
	h-4.3v-3.1c0-2-0.9-2.8-2.3-2.8s-2.3,0.8-2.3,2.8v15.5c0,2,0.9,2.8,2.3,2.8s2.3-0.7,2.3-2.8v-4.1H283.2z"/>
<path class="st0" d="M290.4,217.9h-4.5v-28.7h4.5v12.3h5.1v-12.3h4.6v28.7h-4.6v-12.3h-5.1V217.9z"/>
<path class="st0" d="M308.5,189.2h13.9v4.1h-4.7v24.6h-4.5v-24.6h-4.7L308.5,189.2L308.5,189.2z"/>
<path class="st0" d="M324,196.1c0-4.6,2.4-7.2,6.8-7.2s6.8,2.6,6.8,7.2V211c0,4.6-2.4,7.2-6.8,7.2s-6.8-2.6-6.8-7.2V196.1z
	 M328.5,211.3c0,2,0.9,2.8,2.3,2.8s2.3-0.8,2.3-2.8v-15.5c0-2-0.9-2.8-2.3-2.8s-2.3,0.8-2.3,2.8V211.3z"/>
<path class="st0" d="M353,188.9c4.4,0,6.6,2.6,6.6,7.2v0.9h-4.3v-1.2c0-2-0.8-2.8-2.3-2.8s-2.3,0.8-2.3,2.8c0,5.9,8.8,7,8.8,15.2
	c0,4.6-2.3,7.2-6.7,7.2s-6.7-2.6-6.7-7.2v-1.8h4.3v2.1c0,2,0.9,2.8,2.3,2.8s2.3-0.7,2.3-2.8c0-5.9-8.8-7-8.8-15.2
	C346.4,191.5,348.7,188.9,353,188.9z"/>
<path class="st0" d="M361,189.2h13.9v4.1h-4.7v24.6h-4.5v-24.6H361V189.2z"/>
<path class="st0" d="M381.2,189.2v22.1c0,2,0.9,2.8,2.3,2.8s2.3-0.7,2.3-2.8v-22.1h4.3v21.9c0,4.6-2.3,7.2-6.7,7.2s-6.7-2.6-6.7-7.2
	v-21.9H381.2z"/>
<path class="st0" d="M393.2,189.2h7.1c4.5,0,6.7,2.5,6.7,7.1v14.5c0,4.6-2.2,7.1-6.7,7.1h-7.1V189.2z M397.7,193.3v20.5h2.5
	c1.4,0,2.3-0.7,2.3-2.8v-14.9c0-2-0.9-2.8-2.3-2.8H397.7z"/>
<path class="st0" d="M414.5,201.3h6.2v4.1h-6.2v8.4h7.8v4.1H410v-28.7h12.3v4.1h-7.8V201.3z"/>
<path class="st0" d="M429.1,197.2V218H425v-28.7h5.7l4.6,17.2v-17.2h4V218h-4.6L429.1,197.2z"/>
<path class="st0" d="M441.2,189.2h13.9v4.1h-4.7v24.6h-4.5v-24.6h-4.7L441.2,189.2L441.2,189.2z"/>
<path class="st0" d="M463.2,188.9c4.4,0,6.6,2.6,6.6,7.2v0.9h-4.3v-1.2c0-2-0.8-2.8-2.3-2.8s-2.3,0.8-2.3,2.8c0,5.9,8.8,7,8.8,15.2
	c0,4.6-2.3,7.2-6.7,7.2s-6.7-2.6-6.7-7.2v-1.8h4.3v2.1c0,2,0.9,2.8,2.3,2.8s2.3-0.7,2.3-2.8c0-5.9-8.8-7-8.8-15.2
	C456.6,191.5,458.8,188.9,463.2,188.9z"/>
<path class="st0" d="M162.8,241.5c-2.6,0-4.3,1.4-4.3,5.2v5.6h-7.8v-5.1c0-8.4,4.2-13.2,12.3-13.2s12.3,4.8,12.3,13.2
	c0,16.5-16.4,22.6-16.4,31.3c0,0.4,0,0.8,0.1,1.1h15.6v7.5h-23.8v-6.5c0-15.4,16.3-18,16.3-33.1C167,242.7,165.4,241.5,162.8,241.5z
	"/>
<path class="st0" d="M179.7,247.2c0-8.4,4.4-13.2,12.5-13.2s12.5,4.8,12.5,13.2v27.3c0,8.4-4.4,13.2-12.5,13.2s-12.5-4.8-12.5-13.2
	V247.2z M188,275c0,3.8,1.7,5.2,4.3,5.2s4.3-1.4,4.3-5.2v-28.3c0-3.7-1.6-5.2-4.3-5.2s-4.3,1.4-4.3,5.2V275z"/>
<path class="st0" d="M215.2,241.2c6.4,0,7.8-3.1,9.1-6.6h5.5v52.5h-8.2v-40h-6.4L215.2,241.2L215.2,241.2z"/>
<path class="st0" d="M264,234.6v7.2l-12.1,45.3h-8.2l12.1-45h-16.4v-7.5H264z"/>
<path class="st0" d="M280.7,257.1h15v7.5h-15V257.1z"/>
<path class="st0" d="M325.1,241.5c-2.6,0-4.3,1.4-4.3,5.2v5.6H313v-5.1c0-8.4,4.2-13.2,12.3-13.2s12.3,4.8,12.3,13.2
	c0,16.5-16.4,22.6-16.4,31.3c0,0.4,0,0.8,0.1,1.1h15.6v7.5H313v-6.5c0-15.4,16.3-18,16.3-33.1C329.3,242.7,327.7,241.5,325.1,241.5z
	"/>
<path class="st0" d="M342,247.2c0-8.4,4.4-13.2,12.5-13.2s12.5,4.8,12.5,13.2v27.3c0,8.4-4.4,13.2-12.5,13.2s-12.5-4.8-12.5-13.2
	V247.2z M350.3,275c0,3.8,1.7,5.2,4.3,5.2s4.3-1.4,4.3-5.2v-28.3c0-3.7-1.6-5.2-4.3-5.2s-4.3,1.4-4.3,5.2V275z"/>
<path class="st0" d="M377.5,241.2c6.4,0,7.8-3.1,9.1-6.6h5.5v52.5h-8.2v-40h-6.4V241.2z"/>
<path class="st0" d="M413.9,287.7c-8.3,0-12.9-4.8-12.9-13.2v-4.1c0-5,1.5-8.9,5.1-10.9c-3.5-1.9-5.1-5.4-5.1-10.6v-1.7
	c0-8.4,4.6-13.2,12.9-13.2s12.9,4.8,12.9,13.2v1.7c0,5.2-1.7,8.7-5.1,10.6c3.6,2,5.1,5.9,5.1,10.9v4.1
	C426.8,282.9,422.3,287.7,413.9,287.7z M409.3,250.4c0,4.2,2,5.5,4.7,5.5c2.6,0,4.6-1.3,4.6-5.5v-2.9c0-4.7-2-6-4.6-6
	s-4.7,1.3-4.7,6V250.4z M413.9,280.2c2.6,0,4.6-1.3,4.6-5.9v-4.9c0-4.1-1.7-5.9-4.6-5.9s-4.7,1.8-4.7,5.9v4.9
	C409.3,278.9,411.3,280.2,413.9,280.2z"/>
</svg>
