<?xml version="1.0" encoding="utf-8"?>
<!-- Generator: Adobe Illustrator 22.0.1, SVG Export Plug-In . SVG Version: 6.00 Build 0)  -->
<svg version="1.1" id="Course_Union_of_the_Year_2004_1_"
	 xmlns="http://www.w3.org/2000/svg" xmlns:xlink="http://www.w3.org/1999/xlink" x="0px" y="0px" viewBox="0 0 575.9 305.3"
	 style="enable-background:new 0 0 575.9 305.3;" xml:space="preserve">
<style type="text/css">
	.st0{fill:none;}
	.st1{fill:#B59141;}
</style>
<g id="Course_Union_of_the_Year_2004">
	<g>
		<polygon class="st0" points="170.5,105.6 170.5,103 160.6,103 160.6,115.4 170.6,115.4 170.6,112.8 163.7,112.8 163.7,110.3 
			169.8,110.3 169.8,108 163.7,108 163.7,105.6 		"/>
		<path class="st0" d="M193,113.1l0.9,2.3h3.3l-5.3-12.5h-3.1l-5.3,12.5h3.2l0.9-2.3H193z M190.4,107.5l1.1,2.8h-2.2L190.4,107.5z"
			/>
		<polygon class="st0" points="150.6,115.4 153.7,115.4 153.7,110.7 158.4,103 155,103 152.2,107.9 149.4,103 145.9,103 
			150.6,110.7 		"/>
		<path class="st0" d="M177.8,113.1c-1.5,0-2.8-0.5-4.1-1.5l-1.7,2c1.5,1.2,3.5,1.9,5.7,1.9c3.1,0,5-1.5,5-3.9
			c0-2.3-1.8-3.2-4.6-3.8l0,0c-1.8-0.4-2.4-0.7-2.4-1.5c0-0.5,0.4-1.1,1.5-1.1s2.4,0.4,3.5,1.2l1.5-2.1c-1.4-1-3-1.5-5-1.5
			c-2.8,0-4.7,1.6-4.7,3.9s1.6,3.2,4.7,3.8c1.6,0.4,2.3,0.7,2.3,1.5C179.5,112.3,179.3,113.1,177.8,113.1z"/>
		<path class="st0" d="M207,106.8v-3.5c-0.8-0.3-1.7-0.5-2.6-0.5c-3.7,0-6.5,2.8-6.5,6.4c0,3.7,2.7,6.4,6.4,6.4c1.1,0,2-0.2,2.8-0.5
			v-3.5c-0.6,0.7-1.4,1.2-2.7,1.2c-1.9,0-3.3-1.6-3.3-3.7s1.4-3.7,3.3-3.7C205.3,105.5,206.2,105.9,207,106.8z"/>
		<path class="st0" d="M142.3,115.4h3.5l-3-4.3l0.3-0.1c1.1-0.5,2.5-1.5,2.5-3.7l0,0c0-1.2-0.3-2.1-1.1-2.8c-0.9-0.9-2.2-1.3-4-1.3
			h-5.8v12.4h3.1v-3.9h1.9L142.3,115.4z M137.8,105.6h2.6c1.4,0,2.2,0.6,2.2,1.8l0,0c0,1.1-0.8,1.8-2.1,1.8h-2.6L137.8,105.6
			L137.8,105.6z"/>
		<path class="st0" d="M192,241.5c-2.6,0-4.3,1.4-4.3,5.2V275c0,3.8,1.6,5.2,4.3,5.2s4.3-1.4,4.3-5.2v-28.3
			C196.3,242.9,194.6,241.5,192,241.5z"/>
		<path class="st0" d="M175.7,193.5h-2.2v8.8h1.8c1.7,0,2.7-0.7,2.7-3v-2.8C178,194.4,177.3,193.5,175.7,193.5z"/>
		<path class="st0" d="M183.7,37.9c0.1,5.4,2.4,13.2,9.1,12.8c6.2,0.8,10.8-3.8,13.3-8.8c0.8-3.8,0.3-7.7-0.6-11.4
			c-2.3-4.6-6-9-10.8-11.2c-2.1-1.3-0.6,2.6-1.2,3.8c-0.4,2.7-0.5,5.6,0.2,8.3c-0.3,4,6.7,2.1,4.6,6.8c-1.2,1.8-4.1,1.3-5.8,0.5
			c-3.8-3.1-2.6-8.8-2.8-13.1c-0.1-2.2,0-4.5,0.3-6.7c-1.3,1.1-1.8,2.8-2.5,4.3c-1.7,4-2.8,8.2-3.5,12.5
			C184.2,36.1,184.2,36.8,183.7,37.9z"/>
		<path class="st0" d="M142.9,193.1c-1.4,0-2.3,0.8-2.3,2.8v15.5c0,2,0.9,2.8,2.3,2.8c1.4,0,2.3-0.8,2.3-2.8V196
			C145.2,193.9,144.3,193.1,142.9,193.1z"/>
		<path class="st0" d="M142,107.4L142,107.4c0-1.1-0.9-1.3-1.7-1.3h-2.1v2.6h2.1C141.4,108.7,142,108.2,142,107.4z"/>
		<path class="st0" d="M403.7,100.2c0.9,0,1.6-0.4,2.1-1.3s0.7-1.9,0.7-3.3s-0.3-2.7-0.9-4s-1.5-1.9-2.7-1.9c-0.6,0-1.2,0.2-1.7,0.6
			c-0.8,0.7-1.2,2-1.2,3.8c0,1.4,0.3,2.8,1,4.1C401.6,99.6,402.5,100.2,403.7,100.2z"/>
		<path class="st0" d="M368,90c-0.9,0-1.6,0.4-2.1,1.2c-0.3,0.4-0.4,1-0.6,1.7h5.2c-0.1-0.8-0.2-1.4-0.5-1.8
			C369.6,90.3,369,90,368,90z"/>
		<path class="st0" d="M365.6,66c-0.4-0.7-1.1-1.1-2-1.1s-1.6,0.4-2.1,1.2c-0.3,0.4-0.4,1-0.6,1.7h5.2C366,67,365.8,66.4,365.6,66z"
			/>
		<path class="st0" d="M352.5,74.4c0.6,0,1.1-0.2,1.5-0.6s0.6-0.7,0.6-1.1v-5.2c0-1.1-0.3-1.8-0.8-2.2s-1.1-0.7-1.7-0.7
			c-1,0-1.8,0.5-2.4,1.4s-0.9,2-0.9,3.4c0,1.3,0.3,2.5,0.9,3.5C350.3,73.9,351.3,74.4,352.5,74.4z"/>
		<path class="st0" d="M221.7,241.5c-2.6,0-4.3,1.4-4.3,5.2V275c0,3.8,1.6,5.2,4.3,5.2c2.6,0,4.3-1.4,4.3-5.2v-28.3
			C226,242.9,224.3,241.5,221.7,241.5z"/>
		<path class="st0" d="M235,63.3c0-1.4-0.6-2.4-1.8-3c-0.6-0.3-1.5-0.4-2.5-0.4c-0.7,0-1.1,0.1-1.3,0.2c-0.2,0.1-0.2,0.3-0.2,0.7V67
			c1.8-0.1,3.1-0.3,3.9-0.6C234.3,65.9,235,64.8,235,63.3z"/>
		<path class="st0" d="M248.2,89.7c-1,0-1.8,0.5-2.4,1.4c-0.6,0.9-0.9,2-0.9,3.4c0,1.3,0.3,2.5,0.9,3.5c0.6,1,1.5,1.5,2.7,1.5
			c0.6,0,1.1-0.2,1.5-0.6s0.6-0.7,0.6-1.1v-5.2c0-1.1-0.3-1.8-0.8-2.2S248.7,89.7,248.2,89.7z"/>
		<polygon class="st0" points="229.5,94.1 235.3,94.1 232.4,87.2 		"/>
		<path class="st0" d="M288.1,75.2c0.9,0,1.6-0.4,2.1-1.3s0.7-1.9,0.7-3.3s-0.3-2.7-0.9-4s-1.5-1.9-2.7-1.9c-0.6,0-1.2,0.2-1.7,0.6
			c-0.8,0.7-1.2,2-1.2,3.8c0,1.4,0.3,2.8,1,4.1C286,74.6,286.9,75.2,288.1,75.2z"/>
		<path class="st0" d="M259.4,66c-0.4-0.7-1.1-1.1-2-1.1s-1.6,0.4-2.1,1.2c-0.3,0.4-0.4,1-0.6,1.7h5.2C259.7,67,259.6,66.4,259.4,66
			z"/>
		<path class="st0" d="M328.6,97.3c0,0.7,0.2,1.3,0.7,1.6c0.3,0.2,0.7,0.3,1.1,0.3c0.5,0,1.1-0.2,1.5-0.5s0.7-0.7,0.7-1.1v-3.9
			c-0.9,0.3-1.7,0.7-2.3,1C329.2,95.5,328.6,96.3,328.6,97.3z"/>
		<path class="st0" d="M354.3,241.5c-2.6,0-4.3,1.4-4.3,5.2V275c0,3.8,1.7,5.2,4.3,5.2c2.6,0,4.3-1.4,4.3-5.2v-28.3
			C358.6,242.9,356.9,241.5,354.3,241.5z"/>
		<polygon class="st0" points="415.8,270 415.8,250.3 407.5,270 		"/>
		<path class="st0" d="M384,241.5c-2.6,0-4.3,1.4-4.3,5.2V275c0,3.8,1.7,5.2,4.3,5.2s4.3-1.4,4.3-5.2v-28.3
			C388.3,242.9,386.6,241.5,384,241.5z"/>
		<path class="st0" d="M270.3,193.1c-1.4,0-2.3,0.8-2.3,2.8v15.5c0,2,0.9,2.8,2.3,2.8s2.3-0.8,2.3-2.8V196
			C272.7,193.9,271.8,193.1,270.3,193.1z"/>
		<path class="st0" d="M310.4,193.1c-1.4,0-2.3,0.8-2.3,2.8v15.5c0,2,0.9,2.8,2.3,2.8s2.3-0.8,2.3-2.8V196
			C312.8,193.9,311.9,193.1,310.4,193.1z"/>
		<polygon class="st0" points="429.8,209 434.2,209 432,194.4 		"/>
		<path class="st0" d="M451.2,199.2v-2.8c0-2-0.7-3-2.3-3h-2.2v8.8h1.8C450.2,202.3,451.2,201.5,451.2,199.2z"/>
		<path class="st1" d="M542.9,203c0.3-0.1,0.6-0.4,0.7-0.7c0.2-0.4,2-2.9,2.3-3.4c6.6,1.7,12.7-2.7,16.5-7.3
			c4.7-5.4,7.7-11.3,10.5-18c1.4-3.3,3.3-9.1,2.8-13.1c-0.6,0.2-1.2,0.3-1.8,0.5c-4.3,1.5-11.3,5-18.2,13c-5.9,6.9-8.7,13.8-10.7,24
			c-0.5,0.6-0.9,1.1-1.4,1.6c3-11.8,4.4-24.3,4.5-37.3c0.3-0.2,0.5-0.6,0.6-1c0.2-0.4,1.4-3.2,1.6-3.8c6.7-0.4,11.2-6.7,13.7-12.4
			c3-6.7,4.6-13.1,5.6-20.5c0.5-3.6,0.8-9.9-0.1-14c-0.6,0.4-1.1,0.7-1.6,1.1c-3.8,2.8-10.1,8.5-14.7,18.4c-4,8.6-4.6,16.3-4,26.7
			c-0.4,0.8-0.8,1.5-1.2,2.3c0-7.2-0.4-14.6-1.1-22.1c-0.4-4.7-1.1-9.3-1.9-13.9c0.5,0,0.7-0.7,0.7-1.3c0.1-0.5,0.8-3.4,0.8-4
			c6.1-2.6,8.8-8.8,9.9-14.9c1.3-7.1,1.3-14.5,0.7-21.8c-0.3-3.6-1.4-9.6-3.1-13.1c-0.4,0.5-0.8,1-1.2,1.5
			c-6,7.1-9.8,15.9-10.3,26.1c-0.4,7.2,0.7,14,2.8,21.4c-0.2,1.2-0.5,2.3-0.7,3.5c-2.2-11.6-5.7-22.8-10.1-33.4
			c0.3-0.3,0.3-0.8,0.2-1.3c0-0.4-0.1-3.5-0.2-4.1c5.3-4,6.8-11,6.6-17.3c-0.2-7.2-1.7-14.3-3.7-21.1c-1-3.4-3.3-8.9-5.6-11.8
			c-0.3,0.6-0.6,1.2-0.9,1.8c-2.2,4.4-4.9,11.3-4.7,22.3c0.1,9.5,2.5,17.7,7,25.3c0,1,0.1,2.3,0.1,3.5c-5-11.3-11.1-21.9-18.2-31.7
			c0.2-0.3,0.1-0.8,0-1.3c-0.1-0.6-0.4-3.2-0.6-3.9c4.4-3.5,4.8-12.2,3.4-18c-0.7-4-2.1-7.7-3.8-11.3c-3.3-6.6-7.2-12.4-12.7-16.8
			c-0.2,0.7-0.3,1.3-0.4,1.9c-0.9,5.3-1.1,12.7,0.8,22.2c2,9,5.5,15.6,11.7,22.2c0.2,1.3,0.3,2.4,0.5,3.6
			c-6.1-8.2-12.9-15.8-20.2-22.8c-0.1-0.1-0.1-0.1-0.2-0.1c0-0.1,0-0.2-0.2-0.3c-1-0.9-2-1.7-3-2.5c0.9-5-1.4-10.2-5.9-14.4
			C477.9,4.8,470,3.3,461.8,0c-0.4-0.2-0.7-0.3-1.1-0.5c0,0.3,0.1,0.6,0.2,0.9c1.5,5.8,4.8,12.2,8.8,16.5c1.7,2,3.7,3.6,5.7,5
			c4.6,3,9.4,4.5,14.4,4.5c0.9,0.8,1.6,1.3,2.6,2.2c0.4,0.3,0.5,0.4,0.7,0.3c-0.2,0.1-0.2,0-0.1,0.2c5.6,5.2,10.9,10.9,15.8,17.1
			c-1-0.1-2.1-0.2-3.1-0.4c-2-6.5-7.8-9.3-13.1-10.4c-6.3-1.3-13.3,0.7-20.8,1.7c-0.4,0.1-0.8,0.1-1.2,0.1c0.1,0.2,0.3,0.4,0.5,0.7
			c3.1,4.3,8,8.2,12.8,10.1c3.2,1.4,7,2.1,10.8,2c4-0.1,7.3-1,10.7-3.3c0.5,0.2,3.5,1,4.1,0.5c6.4,8.3,12.1,17.4,17,27
			c-1.1-0.4-2.3-0.6-3.3-1.1c-0.4-4.6-3-8.9-8.1-11.8c-7.8-4.1-16.7-3.5-25-4.2c-0.4,0-0.8-0.1-1.2-0.1c0.1,0.2,0.3,0.5,0.4,0.7
			c2.8,4.8,7.3,10,11.9,13c3.1,2.1,6.9,3.6,10.7,4.4c4,0.7,7.4,0.3,11.1-1.1c0.5,0.3,3.7,1.9,4.1,1.4l0,0
			c5.6,11.2,10,23.2,13.2,35.6c-0.9-0.6-1.9-1.1-2.7-1.8c0.3-5.1-0.8-10.2-5.4-15.1c-7.1-6.9-16.5-9.2-25.1-12.8
			c-0.4-0.2-0.8-0.4-1.2-0.5c0.1,0.3,0.1,0.6,0.2,0.9c1.7,5.9,5.1,12.8,9.2,17.4c2.7,3.1,6.3,6.1,10,8.1c3.9,2.1,7.6,2.8,11.8,2.6
			c0.4,0.4,2.8,2.6,3.7,2.8c2.8,11.4,4.5,23,5.1,34.7c0.1,2,0.2,4,0.2,6c-0.8-0.9-1.7-1.8-2.3-2.8c1.4-4.7,0.8-11.4-2.7-17.8
			c-5.5-9.4-13.5-13.9-21.3-20.5c-0.3-0.3-0.7-0.7-1-1c0,0.3-0.1,0.6,0,1c0.2,6.4,1.8,14.5,4.9,20.5c1.9,4.1,4.8,8.2,8.1,11.6
			c3.5,3.5,7.1,5.4,11.3,6.7c0.4,0.6,2.2,3.7,3.1,4.1c0.1,13.8-1.3,27.1-4.2,39.8c-0.5-1.2-1.1-2.6-1.6-3.8
			c2.6-2.5,3.5-9.4,1.4-16.7c-3.5-10.6-11.3-18.6-17.6-27.5c-0.3-0.4-0.6-0.8-0.9-1.2c-0.1,0.3-0.1,0.6-0.2,1
			c-1.1,6.2-1,14.4,0.7,21.2c1.1,4.5,3.1,9.4,5.7,13.6c2.7,4.5,5.8,7.5,9.7,10c0.3,0.8,1.6,4.5,2.4,5.2
			c-3.3,13.9-8.2,26.9-14.5,38.7c-0.2-1.2-0.4-2.6-0.5-3.8c2.9-1.9,5.2-7.9,5.7-15.4c-0.5-11.3-5.6-21.5-9.6-32.1
			c-0.1-0.5-0.3-1-0.5-1.5c-0.2,0.2-0.3,0.5-0.4,0.8c-2.7,5.6-4.8,13.4-4.9,20.4c-0.2,4.6,0.5,10,1.8,14.9c1.4,5.1,3.5,9.1,6.6,12.9
			c0,0.6,0.3,3.2,0.8,4.8c0.1,0.2,0.1,0.4,0.2,0.6c-6.1,11-13.5,20.8-21.9,29.2c0-1.2,0.1-2.4,0.3-3.6c3.3-1,7.6-6,9.5-12.8
			c2.3-10.9-0.2-22.1-1.4-33.6c-0.1-0.5-0.1-1-0.1-1.6c-0.2,0.2-0.5,0.4-0.7,0.6c-4,4.3-8,11.1-9.8,17.6c-1.3,4.3-2,9.6-2,14.8
			c0.1,5.4,1.1,9.9,3.1,14.5c-0.1,0.7-0.2,3.2-0.2,4.9c0,0.1,0,0.3,0,0.5c-9,8.7-19.2,15.7-30.3,20.6c0.2-1,0.4-1.9,0.8-2.9
			c3.2,0.7,8.6-3.3,12.3-8.5c5-9,5.5-19.6,7.5-30.4c0.1-0.5,0.2-1,0.3-1.5c-0.2,0.1-0.5,0.2-0.8,0.3c-4.8,2.4-10.2,6.7-13.7,11.9
			c-2.4,3.4-4.6,8.1-5.9,12.8c-1.3,4.9-1.4,9.6-0.7,14.6c-0.3,0.5-0.7,2.6-1.1,4.2c0,0.1,0,0.1-0.1,0.2s-0.3,0.1-0.4,0.2
			c-7.9,3.3-16.2,5.9-24.8,7.2c-0.6,0.8-1,1.9-1,3c8.4-1.2,16.4-3.3,24-6.3c0.1,0.1,0.2,0.1,0.3,0.2c1.2,0.3,3.2,0.6,4.3,0.9
			c3.2,7.2,10.5,9.8,16.1,10.5c6.8,1,12.9,0.3,19.1-1.4c3.1-0.8,8.5-2.8,10.8-5.7c-0.5-0.5-1-0.9-1.6-1.4c-3.9-3.1-11-8.1-20.9-9.5
			c-8.6-1.2-15.1,0.9-23.3,5.8c-0.8-0.1-1.6-0.2-2.3-0.4c10.7-4.6,20.5-11,29.3-18.9h0.1c1.2-0.1,3.1-0.4,4.3-0.6
			c4.6,5.9,12.1,6.1,17.6,5c6.6-1.1,12.3-3.7,17.7-7.3c2.8-1.7,7.4-5.3,9-8.8c-0.5-0.3-1.2-0.6-1.8-0.8c-4.4-1.8-12.6-4.3-22.3-2.5
			c-8.4,1.5-14.2,5.6-20.4,12.8c-0.7,0.1-1.4,0.2-2.1,0.2c8.5-8,16-17.4,22.4-28c0.3,0.1,0.7-0.1,1-0.4c0.3-0.3,2.7-1.7,3.2-2.1
			c5.9,3.8,14.4,1.5,19.2-1.6c6.3-3.9,17.7-16,18.8-25.2c-0.7,0-1.3-0.1-1.9-0.1c-4.5,0-11.6,0.1-20,5.5
			c-7.4,4.6-12.2,10.9-16.7,20.2c-0.7,0.4-1.4,0.8-2.1,1.2c6.2-10.7,11.3-22.6,15.2-35.3C542.4,204.8,542.6,203.9,542.9,203z"/>
		<path class="st1" d="M129.7,296.5c-8.6-1.3-16.9-3.9-24.8-7.2c-0.1-0.1-0.3-0.1-0.4-0.2c0-0.1,0-0.1-0.1-0.2
			c-0.4-1.6-0.8-3.7-1.1-4.2c0.6-4.9,0.6-9.6-0.7-14.6c-1.3-4.7-3.5-9.4-5.9-12.8c-3.5-5.2-8.9-9.5-13.7-11.9
			c-0.3-0.1-0.5-0.2-0.8-0.3c0.1,0.5,0.2,0.9,0.3,1.5C84.4,257.3,85,268,90,277c3.6,5.2,9.1,9.3,12.3,8.5c0.5,1,0.6,1.9,0.8,2.9
			c-11.1-4.9-21.3-11.9-30.3-20.6c0-0.2,0-0.3,0-0.5c0-1.7-0.1-4.2-0.2-4.9c2-4.6,3-9.1,3.1-14.5c0-5.1-0.7-10.4-2-14.8
			c-1.9-6.6-5.9-13.3-9.8-17.6c-0.2-0.2-0.5-0.4-0.7-0.6c0,0.6,0,1.1-0.1,1.6c-1.2,11.5-3.7,22.7-1.4,33.6c2,6.8,6.3,11.7,9.5,12.8
			c0.2,1.2,0.2,2.4,0.3,3.6c-8.4-8.4-15.8-18.2-21.9-29.2c0.1-0.2,0.1-0.4,0.2-0.6c0.4-1.6,0.7-4.2,0.8-4.8c3-3.8,5.1-7.8,6.6-12.9
			c1.4-5,2-10.3,1.9-14.9c-0.2-7-2.2-14.9-4.9-20.4c-0.2-0.2-0.3-0.5-0.4-0.8c-0.2,0.5-0.3,1-0.5,1.5c-4.1,10.6-9.1,20.8-9.6,32.1
			c0.5,7.4,2.7,13.5,5.7,15.4c-0.1,1.2-0.2,2.5-0.5,3.8c-6.3-11.8-11.3-24.8-14.5-38.7c0.8-0.7,2.1-4.4,2.4-5.2
			c3.9-2.5,7.1-5.6,9.7-10c2.6-4.2,4.6-9.2,5.7-13.6c1.7-6.7,1.7-15,0.7-21.2c-0.1-0.3-0.1-0.6-0.2-1c-0.3,0.4-0.6,0.8-0.9,1.2
			c-6.3,8.8-14.1,16.8-17.6,27.5c-2.1,7.2-1.2,14.2,1.4,16.7c-0.5,1.2-1.1,2.6-1.6,3.8c-2.8-12.7-4.3-26-4.2-39.8
			c0.9-0.4,2.8-3.5,3.1-4.1c4.2-1.2,7.9-3.2,11.3-6.7c3.3-3.4,6.2-7.5,8.1-11.6c3-6,4.7-14.1,4.9-20.5c0-0.4,0-0.7,0-1
			c-0.4,0.3-0.7,0.7-1,1c-7.8,6.5-15.8,11.1-21.3,20.5c-3.4,6.4-4.1,13.1-2.7,17.8c-0.7,1-1.5,1.9-2.3,2.8c0-2,0.1-4,0.2-6
			c0.6-11.7,2.3-23.4,5.1-34.7c1-0.2,3.3-2.4,3.7-2.8c4.1,0.2,7.9-0.5,11.8-2.6c3.7-2,7.3-5,10-8.1c4.1-4.7,7.5-11.6,9.2-17.4
			c0.1-0.3,0.2-0.6,0.2-0.9c-0.4,0.2-0.8,0.4-1.2,0.5c-8.6,3.6-18,5.9-25.1,12.8c-4.6,4.8-5.8,10-5.4,15.1c-0.8,0.6-1.8,1.2-2.7,1.8
			c3.2-12.4,7.6-24.4,13.2-35.6l0,0c0.5,0.5,3.6-1.1,4.1-1.4c3.7,1.4,7.1,1.8,11,1.1c3.8-0.7,7.6-2.3,10.7-4.4
			c4.6-3,9.1-8.2,11.9-13c0.1-0.2,0.2-0.5,0.4-0.7c-0.4,0-0.7,0.1-1.2,0.1c-8.3,0.7-17.2,0.1-25,4.2c-5.1,3-7.7,7.3-8.1,11.8
			c-1,0.4-2.2,0.7-3.3,1.1c4.9-9.7,10.5-18.7,17-27c0.6,0.5,3.5-0.3,4.1-0.5c3.4,2.3,6.8,3.2,10.8,3.3c3.8,0.1,7.6-0.6,10.8-2
			c4.8-1.9,9.7-5.8,12.8-10.1c0.2-0.2,0.4-0.4,0.5-0.7c-0.4,0-0.8,0-1.2-0.1c-7.5-1-14.5-3-20.8-1.7c-5.3,1.1-11,3.9-13.1,10.4
			c-1,0.2-2.1,0.3-3.1,0.4c4.9-6.2,10.1-11.9,15.8-17.1c0.1-0.2,0.1-0.1-0.1-0.2c0.3,0.1,0.3,0,0.7-0.3c0.9-0.8,1.6-1.3,2.6-2.2
			c5.1,0,9.9-1.5,14.4-4.5c2-1.4,4-3,5.7-5c4-4.4,7.3-10.7,8.8-16.5c0.1-0.3,0.1-0.6,0.2-0.9c-0.4,0.2-0.7,0.3-1.1,0.5
			c-8.7,3.5-16.6,5-23.2,11.4c-4.5,4.2-6.8,9.4-5.9,14.4c-1,0.8-2.1,1.6-3,2.5c-0.1,0.1-0.2,0.2-0.2,0.3c0,0-0.1,0-0.2,0.1
			c-7.4,7-14.1,14.6-20.2,22.8c0.2-1.2,0.3-2.3,0.5-3.6C68.3,41.5,71.8,35,73.8,26c2-9.4,1.7-16.9,0.8-22.2
			c-0.1-0.6-0.3-1.3-0.4-1.9C68.6,6.2,64.8,12,61.5,18.6c-1.7,3.6-3.1,7.2-3.8,11.3c-1.4,5.9-1,14.5,3.4,18
			c-0.2,0.8-0.5,3.4-0.6,3.9s-0.2,1,0,1.3C53.4,63,47.2,73.6,42.3,84.9c0-1.2,0.1-2.4,0.1-3.5c4.5-7.6,6.9-15.9,7-25.3
			c0.2-10.9-2.5-17.9-4.7-22.3c-0.3-0.6-0.6-1.2-0.9-1.8c-2.4,2.9-4.6,8.4-5.6,11.8c-2.1,6.8-3.6,13.9-3.7,21.1
			c-0.2,6.3,1.3,13.3,6.6,17.3c0,0.6-0.2,3.7-0.2,4.1c-0.1,0.4-0.1,1,0.2,1.3C36.7,98.2,33.3,109.3,31,121c-0.2-1.1-0.5-2.3-0.7-3.5
			c2-7.4,3.1-14.1,2.8-21.4c-0.6-10.2-4.4-19-10.3-26.1c-0.4-0.5-0.8-1.1-1.2-1.5c-1.7,3.5-2.8,9.5-3.1,13.1
			c-0.6,7.3-0.6,14.6,0.7,21.8c1.1,6.1,3.8,12.2,9.9,14.9c0.1,0.6,0.8,3.6,0.8,4c0,0.6,0.2,1.2,0.7,1.3c-0.8,4.6-1.5,9.2-1.9,13.9
			c-0.7,7.5-1.1,14.9-1.1,22.1c-0.4-0.7-0.8-1.4-1.2-2.3c0.6-10.5,0-18.1-4-26.7c-4.5-9.9-10.8-15.6-14.7-18.4
			c-0.5-0.4-1-0.8-1.6-1.1c-0.9,4-0.6,10.3-0.1,14c1,7.4,2.6,13.9,5.6,20.5c2.5,5.7,7.1,12,13.7,12.4c0.2,0.6,1.4,3.3,1.6,3.8
			c0.1,0.4,0.3,0.8,0.6,1c0.2,13,1.5,25.5,4.5,37.3c-0.4-0.5-0.9-1.1-1.4-1.6c-1.9-10.3-4.8-17.1-10.7-24
			c-6.8-7.9-13.9-11.5-18.2-13c-0.6-0.2-1.2-0.3-1.8-0.5c-0.4,4,1.4,9.7,2.8,13.1c2.8,6.7,5.8,12.6,10.5,18c3.9,4.6,10,9,16.5,7.3
			c0.3,0.5,2.1,3,2.3,3.4c0.2,0.3,0.5,0.6,0.7,0.7c0.2,0.9,0.5,1.7,0.8,2.6c3.9,12.7,9,24.5,15.2,35.3c-0.7-0.4-1.4-0.7-2.1-1.2
			c-4.5-9.3-9.3-15.6-16.7-20.2c-8.4-5.4-15.5-5.5-20-5.5c-0.6,0-1.2,0-1.9,0.1c1.1,9.2,12.5,21.3,18.8,25.2
			c4.8,3.1,13.3,5.5,19.2,1.6c0.5,0.4,2.9,1.8,3.2,2.1s0.7,0.5,1,0.4c6.4,10.6,13.9,20,22.4,28c-0.7-0.1-1.4-0.1-2.1-0.2
			c-6.2-7.2-12-11.3-20.4-12.8c-9.7-1.8-18,0.7-22.3,2.5c-0.6,0.2-1.2,0.5-1.8,0.8c1.6,3.5,6.1,7.1,9,8.8c5.5,3.6,11.1,6.2,17.7,7.3
			c5.5,1.1,12.9,0.8,17.6-5c1.2,0.2,3.1,0.5,4.3,0.6h0.1c8.8,7.9,18.6,14.3,29.3,18.9c-0.7,0.2-1.5,0.3-2.3,0.4
			c-8.2-4.8-14.7-7-23.3-5.8c-9.9,1.4-17,6.3-20.9,9.5c-0.6,0.5-1.1,0.9-1.6,1.4c2.4,2.9,7.7,4.9,10.8,5.7
			c6.2,1.7,12.3,2.4,19.1,1.4c5.6-0.7,12.9-3.3,16.1-10.5c1.1-0.3,3.1-0.6,4.3-0.9c0.1,0,0.2-0.1,0.3-0.2c7.6,3,15.5,5.2,24,6.3
			C130.7,298.4,130.3,297.3,129.7,296.5z"/>
		<path class="st1" d="M127,189c-4.4,0-6.7,2.6-6.7,7.2v14.9c0,4.6,2.3,7.2,6.7,7.2s6.7-2.6,6.7-7.2v-3.8h-4.3v4.1
			c0,2-0.9,2.8-2.3,2.8c-1.4,0-2.3-0.7-2.3-2.8V196c0-2.1,0.9-2.8,2.3-2.8c1.4,0,2.3,0.8,2.3,2.8v3.1h4.3v-2.8
			C133.7,191.7,131.4,189,127,189z"/>
		<path class="st1" d="M142.9,189c-4.4,0-6.8,2.6-6.8,7.2v14.9c0,4.6,2.4,7.2,6.8,7.2s6.8-2.6,6.8-7.2v-14.9
			C149.8,191.7,147.3,189,142.9,189z M145.2,211.5c0,2-0.9,2.8-2.3,2.8c-1.4,0-2.3-0.8-2.3-2.8V196c0-2.1,0.9-2.8,2.3-2.8
			c1.4,0,2.3,0.8,2.3,2.8V211.5z"/>
		<path class="st1" d="M152.5,189.4v21.9c0,4.6,2.3,7.2,6.7,7.2s6.7-2.6,6.7-7.2v-21.9h-4.3v22.1c0,2-0.9,2.8-2.3,2.8
			s-2.3-0.7-2.3-2.8v-22.1H152.5z"/>
		<path class="st1" d="M182.5,214.6v-4.4c0-3-0.7-5.2-3-6.1c2-0.9,3-2.9,3-5.8V196c0-4.4-2-6.6-6.7-6.6H169v28.7h4.5v-11.7h1.6
			c2,0,3,1,3,3.6v4.5c0,2.3,0.2,2.8,0.4,3.5h4.6C182.5,217,182.5,216,182.5,214.6z M178,199.2c0,2.3-1,3-2.7,3h-1.8v-8.8h2.2
			c1.6,0,2.3,0.9,2.3,3V199.2z"/>
		<path class="st1" d="M184.8,209.4v1.8c0,4.6,2.3,7.2,6.7,7.2s6.7-2.6,6.7-7.2c0-8.2-8.8-9.3-8.8-15.2c0-2.1,0.8-2.8,2.3-2.8
			s2.3,0.8,2.3,2.8v1.2h4.3v-0.9c0-4.6-2.3-7.2-6.6-7.2s-6.6,2.6-6.6,7.2c0,8.2,8.8,9.3,8.8,15.2c0,2-0.9,2.8-2.3,2.8
			s-2.3-0.7-2.3-2.8v-2h-4.5V209.4z"/>
		<polygon class="st1" points="213.1,193.5 213.1,189.4 200.8,189.4 200.8,218.1 213.1,218.1 213.1,214 205.3,214 205.3,205.6 
			211.5,205.6 211.5,201.5 205.3,201.5 205.3,193.5 		"/>
		<path class="st1" d="M231.2,211.5c0,2-0.9,2.8-2.3,2.8s-2.3-0.7-2.3-2.8v-22.1H222v21.9c0,4.6,2.3,7.2,6.7,7.2s6.7-2.6,6.7-7.2
			v-21.9h-4.3v22.1H231.2z"/>
		<polygon class="st1" points="242.6,197.3 248.2,218.1 252.8,218.1 252.8,189.4 248.8,189.4 248.8,206.5 244.2,189.4 238.5,189.4 
			238.5,218.1 242.6,218.1 		"/>
		<rect x="256.1" y="189.4" class="st1" width="4.5" height="28.7"/>
		<path class="st1" d="M270.3,189c-4.4,0-6.8,2.6-6.8,7.2v14.9c0,4.6,2.4,7.2,6.8,7.2s6.8-2.6,6.8-7.2v-14.9
			C277.2,191.7,274.8,189,270.3,189z M272.7,211.5c0,2-0.9,2.8-2.3,2.8s-2.3-0.8-2.3-2.8V196c0-2.1,0.9-2.8,2.3-2.8s2.3,0.8,2.3,2.8
			V211.5z"/>
		<polygon class="st1" points="284.1,197.3 289.7,218.1 294.4,218.1 294.4,189.4 290.3,189.4 290.3,206.5 285.7,189.4 280,189.4 
			280,218.1 284.1,218.1 		"/>
		<path class="st1" d="M317.3,211.2v-14.9c0-4.6-2.4-7.2-6.8-7.2s-6.8,2.6-6.8,7.2v14.9c0,4.6,2.4,7.2,6.8,7.2
			S317.3,215.8,317.3,211.2z M312.8,211.5c0,2-0.9,2.8-2.3,2.8s-2.3-0.8-2.3-2.8V196c0-2.1,0.9-2.8,2.3-2.8s2.3,0.8,2.3,2.8V211.5z"
			/>
		<polygon class="st1" points="332.1,193.5 332.1,189.4 320.2,189.4 320.2,218.1 324.7,218.1 324.7,206.2 330.5,206.2 330.5,202.1 
			324.7,202.1 324.7,193.5 		"/>
		<polygon class="st1" points="344,218.1 348.6,218.1 348.6,193.5 353.3,193.5 353.3,189.4 339.3,189.4 339.3,193.5 344,193.5 		"/>
		<polygon class="st1" points="364.9,201.7 359.7,201.7 359.7,189.4 355.2,189.4 355.2,218.1 359.7,218.1 359.7,205.8 364.9,205.8 
			364.9,218.1 369.5,218.1 369.5,189.4 364.9,189.4 		"/>
		<polygon class="st1" points="385,193.5 385,189.4 372.7,189.4 372.7,218.1 385,218.1 385,214 377.3,214 377.3,205.6 383.4,205.6 
			383.4,201.5 377.3,201.5 377.3,193.5 		"/>
		<polygon class="st1" points="402.9,218.1 402.9,208.5 408.6,189.4 404.3,189.4 400.9,202.4 397.4,189.4 392.7,189.4 398.4,208.5 
			398.4,218.1 		"/>
		<polygon class="st1" points="422.7,193.5 422.7,189.4 410.4,189.4 410.4,218.1 422.7,218.1 422.7,214 414.9,214 414.9,205.6 
			421.1,205.6 421.1,201.5 414.9,201.5 414.9,193.5 		"/>
		<path class="st1" d="M428.9,189.4l-4.6,28.7h4.1l0.8-5.2h5.5l0.8,5.2h4.6l-4.6-28.7H428.9z M429.8,209l2.2-14.5l2.2,14.5H429.8z"
			/>
		<path class="st1" d="M446.7,206.4h1.6c2,0,3,1,3,3.6v4.5c0,2.3,0.2,2.8,0.4,3.5h4.6c-0.5-1.1-0.5-2.1-0.5-3.5v-4.4
			c0-3-0.7-5.2-3-6.1c2-0.9,3-2.9,3-5.8V196c0-4.4-2-6.6-6.7-6.6h-6.8v28.7h4.5v-11.7H446.7z M446.7,193.5h2.2c1.6,0,2.3,0.9,2.3,3
			v2.8c0,2.3-1,3-2.7,3h-1.8V193.5z"/>
		<path class="st1" d="M162.8,234c-8.1,0-12.3,4.8-12.3,13.2v5.1h7.8v-5.6c0-3.8,1.7-5.2,4.3-5.2s4.3,1.3,4.3,6
			c0,15.1-16.3,17.7-16.3,33.1v6.4h23.8v-7.5h-15.6c-0.1-0.4-0.1-0.8-0.1-1.1c0-8.6,16.4-14.8,16.4-31.3
			C175.1,238.8,170.9,234,162.8,234z"/>
		<path class="st1" d="M192,234c-8.1,0-12.5,4.8-12.5,13.2v27.3c0,8.4,4.4,13.2,12.5,13.2s12.5-4.8,12.5-13.2v-27.3
			C204.5,238.8,200.1,234,192,234z M196.3,275c0,3.8-1.7,5.2-4.3,5.2s-4.3-1.4-4.3-5.2v-28.3c0-3.8,1.6-5.2,4.3-5.2s4.3,1.4,4.3,5.2
			V275z"/>
		<path class="st1" d="M221.7,234c-8.1,0-12.5,4.8-12.5,13.2v27.3c0,8.4,4.4,13.2,12.5,13.2s12.5-4.8,12.5-13.2v-27.3
			C234.2,238.8,229.8,234,221.7,234z M226,275c0,3.8-1.7,5.2-4.3,5.2s-4.3-1.4-4.3-5.2v-28.3c0-3.8,1.6-5.2,4.3-5.2
			c2.6,0,4.3,1.4,4.3,5.2V275z"/>
		<path class="st1" d="M251.4,234c-8.1,0-12.3,4.8-12.3,13.2v2.9h7.8v-3.4c0-3.8,1.6-5.2,4.3-5.2s4.3,1.3,4.3,6v2.9
			c0,4.2-1.9,5.5-4.9,5.5h-3.2v7.5h2.8c3.8,0,5.4,1.8,5.4,6.7v4.1c0,4.6-1.6,5.9-4.3,5.9s-4.3-1.4-4.3-5.2V270h-7.8v4.3
			c0,8.4,4.2,13.2,12.3,13.2s12.3-4.8,12.3-13.2v-4.1c0-5.3-1.7-9.2-5.8-11c4-1.6,5.8-5.2,5.8-10.8V247
			C263.7,238.8,259.5,234,251.4,234z"/>
		<rect x="280.5" y="257.1" class="st1" width="15" height="7.5"/>
		<path class="st1" d="M325,234c-8.1,0-12.3,4.8-12.3,13.2v5.1h7.8v-5.6c0-3.8,1.7-5.2,4.3-5.2c2.6,0,4.3,1.3,4.3,6
			c0,15.1-16.3,17.7-16.3,33.1v6.4h23.8v-7.5H321c-0.1-0.4-0.1-0.8-0.1-1.1c0-8.6,16.4-14.8,16.4-31.3
			C337.3,238.8,333.1,234,325,234z"/>
		<path class="st1" d="M354.3,234c-8.1,0-12.5,4.8-12.5,13.2v27.3c0,8.4,4.4,13.2,12.5,13.2s12.5-4.8,12.5-13.2v-27.3
			C366.8,238.8,362.4,234,354.3,234z M358.6,275c0,3.8-1.6,5.2-4.3,5.2c-2.6,0-4.3-1.4-4.3-5.2v-28.3c0-3.8,1.7-5.2,4.3-5.2
			c2.6,0,4.3,1.4,4.3,5.2V275z"/>
		<path class="st1" d="M384,234c-8.1,0-12.5,4.8-12.5,13.2v27.3c0,8.4,4.4,13.2,12.5,13.2s12.5-4.8,12.5-13.2v-27.3
			C396.5,238.8,392.1,234,384,234z M388.3,275c0,3.8-1.7,5.2-4.3,5.2s-4.3-1.4-4.3-5.2v-28.3c0-3.8,1.7-5.2,4.3-5.2s4.3,1.4,4.3,5.2
			V275z"/>
		<path class="st1" d="M423.9,234.6h-9l-15,35.5v7.5h15.9v9.5h8.1v-9.5h3.9V270h-3.9V234.6z M415.8,270h-8.3l8.3-19.7V270z"/>
		<polygon class="st1" points="461.1,153.1 461.1,152.1 114.8,152.1 114.8,152.6 114.8,153.1 		"/>
		<polygon class="st1" points="190.4,107.5 189.3,110.3 191.5,110.3 		"/>
		<path class="st1" d="M134.3,47c0,3.7,0,7.4,0,11.2c0,3.7,0,7.4,0,11.1c0,4.8,0,9.6,0,14.4c0,5.8,0,11.6,0,17.5h72.9
			c0-2.9,0-5.9,0.1-8.8c-0.8-1.7-1.3-3.6-2.3-5.2c-2.8-6.2-7.9-11.8-14.7-13.4c-1.2-0.3-0.4-1.7-0.4-2.6c0.1-0.6,0.3-1.1,0.4-1.7
			c0.3-1.8,0.4-3.6,0.5-5.3c-0.2-1.8-0.9-5.9-3.3-4c1.5,3.6,0.3,7.4-1,11c-0.1,0.3-0.3,0.8-0.3,1c0,0.6-0.4,1.1-1,1.4
			c-4.5,4.3-10.6,6.5-16.1,9.2c-0.2,0.6-0.9,1-1.5,0.8c-0.9,0.6-1.8,1.2-2.7,1.8c-0.4,0.5-0.7,1-1.1,1.5c-0.4,0.1-0.8,0.3-1.2,0.4
			c-4.5,4.6-14.5,3.2-15.8-3.8c0.7-4.7,3.4-8.9,5.3-13.3c2-3.4,2.2-7.3,2.3-11.1c1.7-3.8,3.2-7.6,4.6-11.5c0-3.4-1.7-6.8-0.9-10.3
			c0.9-4,2.3-8,4.6-11.4c5.7-6.8,14.7-12.3,23.8-9.6c-0.6,1.9-2.3,3.3-2.9,5.2c-1.3,1.9-1.4,5.2-3.9,5.9c-6.1,1.3-9.7,8-9.1,13.8
			c0.5,2,5.7,3.1,3.9-0.6c0-3.4,2.2-6.2,4.3-8.6c1.2-0.7,0.6,1,0.8,1.6c-0.2,1.2-0.4,2.4-0.6,3.7c0.1,1.6,0,3.2,0,4.8
			c-0.3,5.8,3.7,10.8,8.5,13.7c9.9,4,21.8-3.2,23.9-13.4c1.1-4.3,0.5-8.8-0.7-12.9c-0.2-3.5-3.7-5.5-4.8-8.6
			c-3.1-3.1-6.7-6.1-10.9-7.6c0.1-1.6,0.2-3.3,0.3-4.9c-2.8-1-3.9,1.8-5.6,3.2c-9.4-1.5-20-0.7-27,6.6c-1.8,1.8-3.8,3.5-4.9,5.9
			c-2.4,3.2-3.7,6.9-4.3,10.8c-6.3,0.9-12.9-0.4-19.2,0.6c0,0.6,0.1,1.3,0.1,1.9C134.3,40.5,134.3,43.7,134.3,47z M190,18.8
			c-0.3,2.2-0.4,4.5-0.3,6.7c0.2,4.3-1,10,2.8,13.1c1.7,0.8,4.5,1.3,5.8-0.5c2.2-4.6-4.8-2.8-4.6-6.8c-0.7-2.7-0.6-5.6-0.2-8.3
			c0.7-1.2-0.9-5.1,1.2-3.8c4.8,2.2,8.5,6.5,10.8,11.2c0.9,3.7,1.4,7.7,0.6,11.4c-2.6,5.1-7.1,9.6-13.3,8.8c-6.7,0.4-9-7.4-9.1-12.8
			c0.4-1.2,0.5-1.9,0.3-2.3c0.6-4.3,1.8-8.5,3.5-12.5C188.2,21.6,188.7,19.9,190,18.8z"/>
		<path class="st1" d="M161.1,59.1c-1.1,1.2-2.3,2.4-3,3.9c2.6,2.6,5.6,0.1,5.8-3C165.3,58.1,162.3,57.8,161.1,59.1z"/>
		<path class="st1" d="M152.7,82.5c1.8-3.8-2.9-2-3.2-0.3c0.1,0.8,0.1,1.7,0,2.6C150.5,88.3,152,83.9,152.7,82.5z"/>
		<path class="st1" d="M138.2,111.9h1.2l2.6,3.9h4.7l-3.2-4.6c1.6-0.8,2.5-2.2,2.5-4l0,0c0-1.3-0.4-2.4-1.2-3.1
			c-0.9-1-2.4-1.5-4.3-1.5h-6.3v13.3h4V111.9z M137.8,115.4h-3.1V103h5.8c1.8,0,3.2,0.4,4,1.3c0.7,0.7,1.1,1.6,1.1,2.8l0,0
			c0,2.2-1.4,3.2-2.5,3.7l-0.3,0.1l3,4.3h-3.5l-2.6-3.9h-1.9V115.4z"/>
		<path class="st1" d="M142.5,107.4L142.5,107.4c0-1.1-0.8-1.8-2.2-1.8h-2.6v3.5h2.6C141.7,109.1,142.5,108.5,142.5,107.4z
			 M138.2,106.1h2.1c0.8,0,1.7,0.2,1.7,1.3l0,0c0,0.8-0.6,1.3-1.7,1.3h-2.1V106.1z"/>
		<path class="st1" d="M154.2,115.8v-5l5.1-8.3h-4.5l-2.5,4.4l-2.5-4.4h-4.6l5.1,8.3v5H154.2z M145.9,103h3.5l2.8,4.9l2.8-4.9h3.4
			l-4.7,7.7v4.7h-3.1v-4.6L145.9,103z"/>
		<path class="st1" d="M170.9,106v-3.5h-10.8v13.3H171v-3.5h-6.9v-1.6h6.2v-3.3h-6.2V106H170.9z M169.8,108v2.3h-6.2v2.5h6.9v2.6
			h-9.9V103h9.9v2.6h-6.8v2.4H169.8z"/>
		<path class="st1" d="M177.8,112.6c-1.4,0-2.8-0.5-4-1.5l-0.2-0.1l-2.3,2.7l0.2,0.1c1.6,1.4,3.8,2.2,6.2,2.2c3.3,0,5.4-1.7,5.4-4.4
			c0-2.8-2.4-3.7-5-4.2c-1.8-0.4-2-0.6-2-1.1c0-0.4,0.4-0.6,1.1-0.6c1.1,0,2.3,0.4,3.5,1.2l0.2,0.1l2-2.9l-0.2-0.1
			c-1.5-1.2-3.2-1.8-5.4-1.8c-3.1,0-5.2,1.7-5.2,4.4c0,2.9,2.4,3.7,5,4.3c1.8,0.4,2,0.7,2,1C179,112.5,178.2,112.6,177.8,112.6z
			 M177.1,110.5c-3-0.7-4.7-1.5-4.7-3.8s1.9-3.9,4.7-3.9c2,0,3.6,0.5,5,1.5l-1.5,2.1c-1.1-0.8-2.4-1.2-3.5-1.2s-1.5,0.6-1.5,1.1
			c0,0.8,0.6,1.1,2.4,1.5l0,0c2.8,0.6,4.6,1.5,4.6,3.8c0,2.4-1.9,3.9-5,3.9c-2.2,0-4.2-0.7-5.7-1.9l1.7-2c1.3,1,2.7,1.5,4.1,1.5
			c1.5,0,1.7-0.8,1.7-1.1C179.5,111.2,178.7,110.9,177.1,110.5z"/>
		<path class="st1" d="M188,113.5h4.6l0.9,2.3h4.3l-5.6-13.2l-0.1-0.1h-3.7l-5.7,13.4h4.2L188,113.5z M183.6,115.4l5.3-12.5h3.1
			l5.3,12.5H194l-0.9-2.3h-5.3l-0.9,2.3H183.6z"/>
		<path class="st1" d="M204.3,106c1,0,1.8,0.4,2.6,1.4l0.1,0.2l0.4-0.3v-4.4l-0.1-0.1c-0.9-0.4-1.9-0.6-3-0.6c-4,0-7,3-7,6.9
			c0,3.8,3,6.9,6.8,6.9c1.2,0,2.2-0.2,3.1-0.6l0.1-0.1v-4.5l-0.3-0.2l-0.1,0.2c-0.7,0.9-1.5,1.5-2.7,1.5c-1.6,0-2.8-1.3-2.8-3.2
			C201.5,107.3,202.7,106,204.3,106z M201,109.2c0,2.1,1.4,3.7,3.3,3.7c1.2,0,2-0.5,2.7-1.2v3.5c-0.8,0.4-1.7,0.5-2.8,0.5
			c-3.6,0-6.4-2.8-6.4-6.4c0-3.7,2.8-6.4,6.5-6.4c1,0,1.8,0.2,2.6,0.5v3.5c-0.8-0.9-1.6-1.2-2.7-1.2
			C202.4,105.5,201,107.1,201,109.2z"/>
		<path class="st1" d="M231.4,75.1c-0.9-0.1-1.6-0.2-1.8-0.5c-0.3-0.2-0.4-0.8-0.4-1.8v-4.9l1.1-0.1l6.3,7.7h4V75
			c-0.5,0-0.9-0.2-1.2-0.3c-0.3-0.2-0.6-0.5-1-0.8l-5.2-6.3c1.4-0.2,2.5-0.7,3.3-1.3c0.8-0.7,1.2-1.6,1.2-2.9c0-1.9-0.9-3.1-2.7-3.8
			c-1-0.4-2.2-0.5-3.6-0.5h-6.9v0.5c0.9,0.1,1.5,0.2,1.8,0.5s0.4,0.8,0.4,1.7v10.8c0,1-0.1,1.7-0.4,2s-0.8,0.5-1.8,0.6v0.5h6.9
			L231.4,75.1L231.4,75.1z M229.1,60.8c0-0.4,0.1-0.6,0.2-0.7c0.2-0.1,0.6-0.2,1.3-0.2c1.1,0,1.9,0.1,2.5,0.4c1.2,0.5,1.8,1.5,1.8,3
			c0,1.5-0.7,2.5-2,3.1c-0.8,0.3-2.1,0.5-3.9,0.6L229.1,60.8L229.1,60.8z"/>
		<path class="st1" d="M241.8,66.2l3.8,8.3c0,0.1,0.1,0.2,0.1,0.3s0,0.2,0,0.3c0,0.4-0.2,1.1-0.7,2.2s-1,1.7-1.4,1.7
			c-0.2,0-0.5-0.1-0.9-0.2c-0.4-0.2-0.7-0.2-0.9-0.2c-0.4,0-0.7,0.1-0.9,0.3c-0.2,0.2-0.4,0.5-0.4,0.8c0,0.5,0.2,0.9,0.6,1.1
			c0.4,0.2,0.8,0.3,1.3,0.3c0.9,0,1.7-0.4,2.3-1.2c0.6-0.8,1.2-2.1,1.9-3.8l3.8-10.2c0.1-0.3,0.3-0.6,0.4-0.8
			c0.2-0.2,0.4-0.3,0.8-0.4v-0.3h-3.4v0.3h0.4c0.2,0,0.4,0.1,0.6,0.2c0.1,0.1,0.2,0.3,0.2,0.5c0,0.1,0,0.2-0.1,0.5s-0.1,0.4-0.1,0.4
			l-2.3,6.2l-2.8-6.1c-0.1-0.2-0.2-0.4-0.2-0.5s-0.1-0.2-0.1-0.4c0-0.3,0.2-0.5,0.6-0.6c0.2-0.1,0.5-0.1,0.9-0.1v-0.3h-5.2v0.3
			c0.4,0.1,0.7,0.2,0.9,0.4C241.3,65.2,241.5,65.6,241.8,66.2z"/>
		<path class="st1" d="M257.6,75.8c1.3,0,2.4-0.4,3.4-1.3c0.9-0.9,1.5-1.8,1.9-2.9l-0.4-0.1c-0.5,0.8-1,1.5-1.6,1.9
			s-1.3,0.7-2.2,0.7c-1.1,0-2-0.4-2.7-1.3s-1.2-2.2-1.3-4.1h7.8c0-1.5-0.4-2.6-1.3-3.4s-1.9-1.2-3-1.2c-1.6,0-2.8,0.6-3.8,1.8
			c-1,1.2-1.5,2.6-1.5,4.2c0,1.5,0.4,2.8,1.3,4C254.9,75.2,256.1,75.8,257.6,75.8z M255.2,66.2c0.5-0.8,1.2-1.2,2.1-1.2
			s1.6,0.4,2,1.1c0.2,0.4,0.4,1,0.5,1.8h-5.2C254.8,67.2,255,66.6,255.2,66.2z"/>
		<path class="st1" d="M269.6,75.1c-0.8,0-1.3-0.1-1.6-0.4c-0.3-0.3-0.5-0.8-0.5-1.5v-5.5c0-0.5,0.2-1,0.6-1.4
			c0.4-0.5,0.8-0.7,1-0.7s0.4,0.1,0.7,0.4s0.6,0.4,0.9,0.4s0.6-0.1,0.8-0.3c0.2-0.2,0.3-0.5,0.3-0.8c0-0.4-0.1-0.7-0.4-0.9
			c-0.3-0.2-0.6-0.4-1-0.4c-0.5,0-1,0.2-1.5,0.6s-1,1-1.5,1.7v-2c0-0.1,0-0.2,0-0.3c0,0,0-0.1-0.1-0.1c-0.4,0.2-0.8,0.4-1.3,0.5
			c-0.2,0.1-0.5,0.2-1,0.4c-0.5,0.2-1,0.3-1.4,0.5v0.4c0.1,0,0.3-0.1,0.4-0.1s0.2,0,0.3,0c0.4,0,0.7,0.2,0.8,0.5s0.2,0.9,0.2,1.7
			v5.5c0,0.7-0.1,1.1-0.4,1.3c-0.2,0.2-0.7,0.3-1.5,0.4v0.4h6v-0.3H269.6z"/>
		<path class="st1" d="M275.9,70.7l1.4,0.8c0.5,0.3,0.9,0.6,1.1,0.9s0.3,0.6,0.3,1c0,0.5-0.2,1-0.5,1.3c-0.4,0.3-0.8,0.5-1.4,0.5
			c-1.1,0-1.9-0.5-2.5-1.4c-0.3-0.5-0.6-1.2-0.8-2.1h-0.4v3.9h0.3c0-0.1,0.1-0.2,0.2-0.2s0.2-0.1,0.3-0.1c0.1,0,0.5,0.1,1.1,0.2
			c0.6,0.2,1.2,0.2,1.7,0.2c1.2,0,2.1-0.3,2.8-0.9s1.1-1.4,1.1-2.4c0-1.3-0.9-2.4-2.6-3.3l-1.6-0.9c-1.1-0.6-1.7-1.3-1.7-2
			c0-0.5,0.2-0.9,0.5-1.2s0.8-0.5,1.3-0.5c1,0,1.7,0.4,2.2,1.2c0.3,0.4,0.5,1.1,0.7,1.8h0.4l-0.1-3.4h-0.3c0,0.1-0.1,0.2-0.2,0.2
			s-0.2,0.1-0.3,0.1c-0.1,0-0.4-0.1-0.9-0.2c-0.5-0.2-1-0.2-1.4-0.2c-1,0-1.8,0.3-2.5,0.9s-1,1.3-1,2.2c0,0.7,0.2,1.4,0.7,1.9
			C274.2,69.6,274.9,70.1,275.9,70.7z"/>
		<path class="st1" d="M287.7,75.9c1.6,0,3-0.6,4-1.8s1.5-2.6,1.5-4.2c0-1.8-0.5-3.2-1.6-4.2c-1.1-1.1-2.4-1.6-4-1.6s-2.9,0.6-4,1.7
			s-1.5,2.5-1.5,4.1c0,1.7,0.5,3.2,1.6,4.3C284.8,75.3,286.2,75.9,287.7,75.9z M285.6,65.4c0.5-0.4,1-0.6,1.7-0.6
			c1.2,0,2.1,0.6,2.7,1.9s0.9,2.6,0.9,4s-0.2,2.5-0.7,3.3s-1.2,1.3-2.1,1.3c-1.2,0-2.1-0.6-2.7-1.9c-0.7-1.3-1-2.6-1-4.1
			C284.4,67.5,284.8,66.2,285.6,65.4z"/>
		<path class="st1" d="M294.9,65.6c0.5,0,0.8,0.2,1,0.5c0.1,0.2,0.1,0.6,0.1,1.1v6.2c0,0.7-0.1,1.2-0.3,1.4
			c-0.2,0.2-0.6,0.4-1.2,0.4v0.3h5.3v-0.3c-0.6,0-1-0.1-1.2-0.3c-0.3-0.2-0.4-0.6-0.4-1.2v-6.8c0.4-0.4,0.8-0.7,1.1-0.9
			c0.5-0.3,1-0.5,1.5-0.5c0.7,0,1.2,0.2,1.4,0.7c0.3,0.5,0.4,1,0.4,1.7v5.2c0,0.8-0.1,1.4-0.4,1.6s-0.7,0.4-1.2,0.5v0.3h5.2v-0.3
			c-0.5,0-0.9-0.1-1.2-0.4c-0.2-0.3-0.4-0.7-0.4-1.3v-5.7c0-1.6-0.4-2.7-1.3-3.3c-0.5-0.3-1-0.5-1.5-0.5c-0.7,0-1.3,0.2-2,0.6
			c-0.4,0.3-1,0.7-1.8,1.4v-1.8c0-0.1,0-0.1,0-0.2c0,0,0-0.1-0.1-0.1l-1.1,0.4c-1.2,0.4-2,0.7-2.4,0.8v0.4c0.1,0,0.2,0,0.3,0
			C294.8,65.6,294.8,65.6,294.9,65.6z"/>
		<path class="st1" d="M315.1,75.8c0-0.2,0.1-0.4,0.2-0.6s0.3-0.3,0.6-0.3c0.1,0,0.6,0.1,1.4,0.4s1.7,0.4,2.4,0.4
			c1.5,0,2.8-0.4,3.8-1.3s1.5-2,1.5-3.3c0-1-0.3-1.8-0.8-2.5c-0.6-0.7-1.5-1.5-2.9-2.3l-2.2-1.4c-0.8-0.5-1.4-1-1.8-1.5
			s-0.6-1-0.6-1.6c0-0.7,0.3-1.3,0.8-1.7s1.1-0.6,1.8-0.6c0.9,0,1.8,0.3,2.7,1c0.9,0.6,1.6,1.8,2,3.4h0.6l-0.5-5.3h-0.5
			c-0.1,0.3-0.2,0.5-0.3,0.6c-0.1,0.1-0.3,0.2-0.6,0.2c-0.1,0-0.6-0.1-1.4-0.4c-0.8-0.3-1.5-0.4-2.1-0.4c-1.4,0-2.5,0.4-3.3,1.3
			c-0.8,0.8-1.3,1.9-1.3,3.1c0,1,0.4,1.8,1.1,2.6c0.4,0.4,0.9,0.8,1.5,1.2l2.1,1.3c1.2,0.8,2,1.3,2.4,1.7c0.6,0.6,0.9,1.3,0.9,2.1
			c0,0.9-0.3,1.6-0.9,2.1s-1.3,0.8-2.1,0.8c-1.5,0-2.7-0.6-3.7-1.7c-0.6-0.7-1.1-1.6-1.5-2.7h-0.6l0.7,5.3h0.6V75.8z"/>
		<path class="st1" d="M327.1,65.2h1.3v7.4c0,0.8,0.1,1.5,0.3,1.9c0.3,0.9,1,1.3,2,1.3c0.4,0,0.9-0.1,1.4-0.4
			c0.5-0.2,0.9-0.6,1.3-1.2l0.3-0.4l-0.3-0.3c-0.3,0.3-0.5,0.5-0.7,0.7s-0.5,0.2-0.8,0.2c-0.6,0-1-0.3-1.1-0.8
			c-0.1-0.3-0.2-0.8-0.2-1.4v-7h2.5v-0.9h-2.5v-3c0-0.1,0-0.2,0-0.2s-0.1,0-0.2,0c-0.9,1.2-1.5,2-1.8,2.3c-0.2,0.3-0.7,0.7-1.2,1.1
			c-0.2,0.2-0.3,0.3-0.3,0.3S327,64.9,327,65C326.9,65,327,65.1,327.1,65.2C327,65.1,327,65.1,327.1,65.2z"/>
		<path class="st1" d="M335.4,66.2v6.3c0,1.2,0.3,2,1,2.5c0.6,0.5,1.3,0.8,2,0.8c0.8,0,1.5-0.2,2.2-0.7c0.5-0.3,1-0.8,1.5-1.5v2v0.1
			c0,0,0,0.1,0.1,0.1c0.7-0.3,1.2-0.5,1.4-0.5c0.5-0.2,0.9-0.3,1.1-0.3c0.2-0.1,0.5-0.2,1-0.3v-0.3c-0.6,0-1.1-0.1-1.3-0.3
			c-0.2-0.2-0.3-0.6-0.3-1.1v-8.6h-3.9v0.4c0.7,0,1.2,0.2,1.5,0.4s0.4,0.6,0.4,1.2v6.7c-0.3,0.4-0.6,0.6-0.9,0.8
			c-0.5,0.4-1.1,0.5-1.6,0.5c-0.8,0-1.4-0.3-1.7-0.9c-0.2-0.3-0.2-0.8-0.2-1.3v-7.8h-3.6v0.3c0.6,0.1,1,0.2,1.1,0.3
			C335.2,65.1,335.4,65.5,335.4,66.2z"/>
		<path class="st1" d="M351.3,75.8c0.8,0,1.5-0.2,2.1-0.5c0.3-0.2,0.7-0.6,1.2-1.1v1.5l0.1,0.1l1.9-0.7c1.1-0.4,1.7-0.6,1.8-0.6V74
			c-0.1,0-0.2,0-0.3,0c-0.1,0-0.2,0-0.3,0c-0.6,0-0.9-0.1-1-0.3c-0.1-0.2-0.2-0.6-0.2-1.1v-10c0-0.5,0-1,0-1.5s0-1,0-1.4v-1.3h-0.1
			c-0.3,0.1-0.5,0.2-0.6,0.2c-0.3,0.1-0.6,0.2-1,0.3s-0.7,0.2-1.1,0.3l-1,0.3V60c0.3,0,0.4,0,0.5,0s0.2,0,0.3,0
			c0.4,0,0.7,0.1,0.8,0.3c0.1,0.2,0.2,0.5,0.2,1v3.9c-0.3-0.3-0.6-0.5-0.9-0.7c-0.5-0.3-1-0.4-1.6-0.4c-1.5,0-2.7,0.6-3.8,1.9
			c-1,1.3-1.5,2.8-1.5,4.5c0,1.4,0.4,2.6,1.3,3.7S350,75.8,351.3,75.8z M349.7,66c0.6-0.9,1.4-1.4,2.4-1.4c0.5,0,1.1,0.2,1.7,0.7
			s0.8,1.2,0.8,2.2v5.2c0,0.3-0.2,0.7-0.6,1.1s-0.9,0.6-1.5,0.6c-1.2,0-2.1-0.5-2.7-1.5s-0.9-2.2-0.9-3.5
			C348.8,68.1,349.1,67,349.7,66z"/>
		<path class="st1" d="M363.9,75.8c1.3,0,2.4-0.4,3.4-1.3c0.9-0.9,1.5-1.8,1.9-2.9l-0.4-0.1c-0.5,0.8-1,1.5-1.6,1.9
			s-1.3,0.7-2.2,0.7c-1.1,0-2-0.4-2.7-1.3s-1.2-2.2-1.3-4.1h7.8c0-1.5-0.4-2.6-1.3-3.4s-1.9-1.2-3-1.2c-1.6,0-2.8,0.6-3.8,1.8
			c-1,1.2-1.5,2.6-1.5,4.2c0,1.5,0.4,2.8,1.3,4C361.2,75.2,362.3,75.8,363.9,75.8z M361.5,66.2c0.5-0.8,1.2-1.2,2.1-1.2
			s1.6,0.4,2,1.1c0.2,0.4,0.4,1,0.5,1.8h-5.2C361,67.2,361.2,66.6,361.5,66.2z"/>
		<path class="st1" d="M370.6,65.6c0.5,0,0.8,0.2,1,0.5c0.1,0.2,0.1,0.6,0.1,1.1v6.2c0,0.7-0.1,1.2-0.3,1.4
			c-0.2,0.2-0.6,0.4-1.2,0.4v0.3h5.3v-0.3c-0.6,0-1-0.1-1.2-0.3c-0.3-0.2-0.4-0.6-0.4-1.2v-6.8c0.4-0.4,0.8-0.7,1.1-0.9
			c0.5-0.3,1-0.5,1.5-0.5c0.7,0,1.2,0.2,1.4,0.7c0.3,0.5,0.4,1,0.4,1.7v5.2c0,0.8-0.1,1.4-0.4,1.6s-0.7,0.4-1.2,0.5v0.3h5.2v-0.3
			c-0.5,0-0.9-0.1-1.2-0.4c-0.2-0.3-0.4-0.7-0.4-1.3v-5.7c0-1.6-0.4-2.7-1.3-3.3c-0.5-0.3-1-0.5-1.5-0.5c-0.7,0-1.3,0.2-2,0.6
			c-0.4,0.3-1,0.7-1.8,1.4v-1.8c0-0.1,0-0.1,0-0.2c0,0,0-0.1-0.1-0.1l-1.1,0.4c-1.2,0.4-2,0.7-2.4,0.8v0.4c0.1,0,0.2,0,0.3,0
			C370.4,65.6,370.5,65.6,370.6,65.6z"/>
		<path class="st1" d="M382.6,65.2h1.3v7.4c0,0.8,0.1,1.5,0.3,1.9c0.3,0.9,1,1.3,2,1.3c0.4,0,0.9-0.1,1.4-0.4
			c0.5-0.2,0.9-0.6,1.3-1.2l0.3-0.4l-0.3-0.3c-0.3,0.3-0.5,0.5-0.7,0.7s-0.5,0.2-0.8,0.2c-0.6,0-1-0.3-1.1-0.8
			c-0.1-0.3-0.2-0.8-0.2-1.4v-7h2.5v-0.9h-2.5v-3c0-0.1,0-0.2,0-0.2s-0.1,0-0.2,0c-0.9,1.2-1.5,2-1.8,2.3c-0.2,0.3-0.7,0.7-1.2,1.1
			c-0.2,0.2-0.3,0.3-0.3,0.3s-0.1,0.1-0.1,0.2C382.5,65,382.5,65.1,382.6,65.2C382.5,65.1,382.6,65.1,382.6,65.2z"/>
		<path class="st1" d="M393.3,70.7l1.4,0.8c0.5,0.3,0.9,0.6,1.1,0.9s0.3,0.6,0.3,1c0,0.5-0.2,1-0.5,1.3c-0.4,0.3-0.8,0.5-1.4,0.5
			c-1.1,0-1.9-0.5-2.5-1.4c-0.3-0.5-0.6-1.2-0.8-2.1h-0.4v3.9h0.3c0-0.1,0.1-0.2,0.2-0.2s0.2-0.1,0.3-0.1c0.1,0,0.5,0.1,1.1,0.2
			c0.6,0.2,1.2,0.2,1.7,0.2c1.2,0,2.1-0.3,2.8-0.9s1.1-1.4,1.1-2.4c0-1.3-0.9-2.4-2.6-3.3l-1.6-0.9c-1.1-0.6-1.7-1.3-1.7-2
			c0-0.5,0.2-0.9,0.5-1.2s0.8-0.5,1.3-0.5c1,0,1.7,0.4,2.2,1.2c0.3,0.4,0.5,1.1,0.7,1.8h0.4l-0.1-3.4h-0.3c0,0.1-0.1,0.2-0.2,0.2
			s-0.2,0.1-0.3,0.1c-0.1,0-0.4-0.1-0.9-0.2c-0.5-0.2-1-0.2-1.4-0.2c-1,0-1.8,0.3-2.5,0.9s-1,1.3-1,2.2c0,0.7,0.2,1.4,0.7,1.9
			C391.6,69.6,392.3,70.1,393.3,70.7z"/>
		<path class="st1" d="M402.5,61.4c0.1,0,0.4,0,0.8-0.1c0.1,0,0.2,0,0.2,0.1s0.1,0.1,0.1,0.2c0,0.5-0.2,1-0.6,1.5s-0.9,0.9-1.5,1.2
			l0.2,0.5c0.7-0.3,1.3-0.8,1.9-1.5c0.6-0.7,0.9-1.5,0.9-2.3c0-0.6-0.2-1.2-0.6-1.6c-0.4-0.4-0.9-0.6-1.4-0.6s-0.9,0.2-1.2,0.5
			c-0.2,0.3-0.4,0.6-0.4,0.9c0,0.4,0.1,0.8,0.4,1S402.2,61.4,402.5,61.4z"/>
		<path class="st1" d="M235.4,100.1v0.5h6.4v-0.5c-0.6-0.1-1-0.2-1.3-0.5s-0.6-0.8-1-1.7l-6.2-14.2h-0.5L227.6,96
			c-0.8,1.8-1.3,3-1.7,3.4c-0.3,0.4-0.8,0.7-1.4,0.7v0.5h5v-0.5c-0.6,0-1-0.1-1.2-0.2c-0.3-0.2-0.5-0.5-0.5-0.9
			c0-0.2,0.1-0.5,0.2-0.9c0.1-0.4,0.5-1.4,1.2-3h6.6l1,2.4c0.1,0.3,0.3,0.7,0.3,1c0.1,0.3,0.1,0.5,0.1,0.6c0,0.4-0.1,0.6-0.3,0.7
			C236.6,99.9,236.2,100,235.4,100.1z M229.5,94.1l2.9-6.9l2.9,6.9H229.5z"/>
		<path class="st1" d="M250,84.3l-1,0.3V85c0.3,0,0.4,0,0.5,0s0.2,0,0.3,0c0.4,0,0.7,0.1,0.8,0.3c0.1,0.2,0.2,0.5,0.2,1v3.9
			c-0.3-0.3-0.6-0.5-0.9-0.7c-0.5-0.3-1-0.4-1.6-0.4c-1.5,0-2.7,0.6-3.8,1.9c-1,1.3-1.5,2.8-1.5,4.5c0,1.4,0.4,2.6,1.3,3.7
			s2,1.6,3.4,1.6c0.8,0,1.5-0.2,2.1-0.5c0.3-0.2,0.7-0.6,1.2-1.1v1.5l0.1,0.1l1.9-0.7c1.1-0.4,1.7-0.6,1.8-0.6V99
			c-0.1,0-0.2,0-0.3,0s-0.2,0-0.3,0c-0.6,0-0.9-0.1-1-0.3c-0.1-0.2-0.2-0.6-0.2-1.1v-10c0-0.5,0-1,0-1.5s0-1,0-1.4v-1.3h-0.1
			c-0.3,0.1-0.5,0.2-0.6,0.2c-0.3,0.1-0.6,0.2-1,0.3C250.7,84.1,250.4,84.2,250,84.3z M250.7,97.8c0,0.3-0.2,0.7-0.6,1.1
			s-0.9,0.6-1.5,0.6c-1.2,0-2.1-0.5-2.7-1.5c-0.6-1-0.9-2.2-0.9-3.5s0.3-2.4,0.9-3.4c0.6-0.9,1.4-1.4,2.4-1.4c0.5,0,1.1,0.2,1.7,0.7
			s0.8,1.2,0.8,2.2L250.7,97.8L250.7,97.8z"/>
		<path class="st1" d="M269.3,89.1c-0.8,0-1.6,0.3-2.4,0.8c-0.4,0.3-1,0.7-1.6,1.4c-0.2-0.5-0.4-0.9-0.6-1.3c-0.5-0.6-1.2-0.9-2-0.9
			c-0.6,0-1.2,0.1-1.8,0.4c-0.6,0.3-1.3,0.8-2.1,1.5v-1.6c0-0.1,0-0.2,0-0.2s0-0.1-0.1-0.1c0,0-0.4,0.1-1.1,0.4s-1.2,0.5-1.6,0.6
			l-0.9,0.3v0.4c0.1,0,0.2-0.1,0.3-0.1s0.2,0,0.4,0c0.4,0,0.6,0.1,0.8,0.3c0.2,0.2,0.2,0.6,0.2,1.2v6.3c0,0.7-0.2,1.2-0.5,1.4
			c-0.2,0.2-0.6,0.3-1.3,0.3v0.3h5.6v-0.3c-0.7,0-1.2-0.1-1.4-0.4c-0.2-0.2-0.3-0.7-0.3-1.3v-6.7c0.4-0.4,0.8-0.8,1.3-1.1
			c0.5-0.3,1-0.4,1.5-0.4c0.9,0,1.4,0.4,1.7,1.2c0.2,0.5,0.2,1.3,0.2,2.6v3.4c0,1.1-0.1,1.8-0.3,2.1c-0.2,0.3-0.7,0.5-1.5,0.6v0.3
			h5.6v-0.3c-0.7,0-1.2-0.2-1.5-0.5c-0.2-0.3-0.3-0.8-0.3-1.5V92c0.4-0.4,0.8-0.8,1.1-1c0.5-0.3,1-0.5,1.6-0.5c0.9,0,1.5,0.3,1.8,1
			c0.2,0.4,0.3,1,0.3,1.7v5.3c0,0.7-0.1,1.1-0.3,1.3c-0.2,0.2-0.7,0.4-1.4,0.4v0.3h5.5v-0.3c-0.7-0.1-1.1-0.2-1.4-0.4
			c-0.3-0.2-0.4-0.6-0.4-1.2v-5.1c0-1.3-0.1-2.3-0.4-2.9C271.5,89.6,270.6,89.1,269.3,89.1z"/>
		<path class="st1" d="M276.3,99.7c-0.2,0.2-0.8,0.4-1.6,0.4v0.3h5.9v-0.3c-0.8-0.1-1.3-0.2-1.5-0.5c-0.2-0.2-0.3-0.8-0.3-1.7v-8.8
			c0-0.1,0-0.1,0-0.2c-0.1,0-0.2,0-0.4,0.1c-0.6,0.2-1.6,0.6-3,1l-0.5,0.2v0.4c0.4-0.1,0.7-0.2,0.7-0.2c0.1,0,0.2,0,0.3,0
			c0.4,0,0.6,0.2,0.8,0.5c0.1,0.2,0.1,0.6,0.1,1.1v6C276.6,98.9,276.5,99.5,276.3,99.7z"/>
		<path class="st1" d="M278.4,85.7c0.2-0.2,0.4-0.5,0.4-0.9s-0.1-0.7-0.4-0.9s-0.5-0.4-0.9-0.4s-0.7,0.1-0.9,0.4s-0.4,0.6-0.4,0.9
			s0.1,0.6,0.4,0.9s0.5,0.4,0.9,0.4C277.8,86,278.1,85.9,278.4,85.7z"/>
		<path class="st1" d="M282,90.6c0.5,0,0.8,0.2,1,0.5c0.1,0.2,0.1,0.6,0.1,1.1v6.2c0,0.7-0.1,1.2-0.3,1.4c-0.2,0.2-0.6,0.4-1.2,0.4
			v0.3h5.3v-0.3c-0.6,0-1-0.1-1.2-0.3c-0.3-0.2-0.4-0.6-0.4-1.2v-6.8c0.4-0.4,0.8-0.7,1.1-0.9c0.5-0.3,1-0.5,1.5-0.5
			c0.7,0,1.2,0.2,1.4,0.7c0.3,0.5,0.4,1,0.4,1.7v5.2c0,0.8-0.1,1.4-0.4,1.6s-0.7,0.4-1.2,0.5v0.3h5.2v-0.3c-0.5,0-0.9-0.1-1.2-0.4
			c-0.2-0.3-0.4-0.7-0.4-1.3v-5.7c0-1.6-0.4-2.7-1.3-3.3c-0.5-0.3-1-0.5-1.5-0.5c-0.7,0-1.3,0.2-2,0.6c-0.4,0.3-1,0.7-1.8,1.4v-1.8
			c0-0.1,0-0.1,0-0.2c0,0,0-0.1-0.1-0.1l-1.1,0.4c-1.2,0.4-2,0.7-2.4,0.8v0.4c0.1,0,0.2,0,0.3,0C281.9,90.6,281.9,90.6,282,90.6z"/>
		<path class="st1" d="M296,83.9c-0.2,0.3-0.4,0.6-0.4,0.9s0.1,0.6,0.4,0.9s0.5,0.4,0.9,0.4s0.6-0.1,0.9-0.4s0.4-0.5,0.4-0.9
			s-0.1-0.7-0.4-0.9s-0.5-0.4-0.9-0.4C296.6,83.5,296.3,83.6,296,83.9z"/>
		<path class="st1" d="M300,100.2c-0.8-0.1-1.3-0.2-1.5-0.5c-0.2-0.2-0.3-0.8-0.3-1.7v-8.8c0-0.1,0-0.1,0-0.2c-0.1,0-0.2,0-0.4,0.1
			c-0.6,0.2-1.6,0.6-3,1l-0.5,0.2v0.4c0.4-0.1,0.7-0.2,0.7-0.2c0.1,0,0.2,0,0.3,0c0.4,0,0.6,0.2,0.8,0.5c0.1,0.2,0.1,0.6,0.1,1.1V98
			c0,1-0.1,1.5-0.3,1.8c-0.2,0.2-0.8,0.4-1.6,0.4v0.3h5.9v-0.3H300z"/>
		<path class="st1" d="M302.8,89.9c-0.7,0.6-1,1.3-1,2.2c0,0.7,0.2,1.4,0.7,1.9s1.2,1.1,2.2,1.6l1.4,0.8c0.5,0.3,0.9,0.6,1.1,0.9
			s0.3,0.6,0.3,1c0,0.5-0.2,1-0.5,1.3c-0.4,0.3-0.8,0.5-1.4,0.5c-1.1,0-1.9-0.5-2.5-1.4c-0.3-0.5-0.6-1.2-0.8-2.1h-0.4v3.9h0.3
			c0-0.1,0.1-0.2,0.2-0.2s0.2-0.1,0.3-0.1c0.1,0,0.5,0.1,1.1,0.2c0.6,0.2,1.2,0.2,1.7,0.2c1.2,0,2.1-0.3,2.8-0.9s1.1-1.4,1.1-2.4
			c0-1.3-0.9-2.4-2.6-3.3l-1.6-0.9c-1.1-0.6-1.7-1.3-1.7-2c0-0.5,0.2-0.9,0.5-1.2s0.8-0.5,1.3-0.5c1,0,1.7,0.4,2.2,1.2
			c0.3,0.4,0.5,1.1,0.7,1.8h0.4l-0.1-3.4H308c0,0.1-0.1,0.2-0.2,0.2s-0.2,0.1-0.3,0.1c-0.1,0-0.4-0.1-0.9-0.2
			c-0.5-0.2-1-0.2-1.4-0.2C304.3,89,303.4,89.3,302.8,89.9z"/>
		<path class="st1" d="M310.7,90.2h1.3v7.4c0,0.8,0.1,1.5,0.3,1.9c0.3,0.9,1,1.3,2,1.3c0.4,0,0.9-0.1,1.4-0.4
			c0.5-0.2,0.9-0.6,1.3-1.2l0.3-0.4l-0.3-0.3c-0.3,0.3-0.5,0.5-0.7,0.7s-0.5,0.2-0.8,0.2c-0.6,0-1-0.3-1.1-0.8
			c-0.1-0.3-0.2-0.8-0.2-1.4v-7h2.5v-0.9h-2.5v-3c0-0.1,0-0.2,0-0.2s-0.1,0-0.2,0c-0.9,1.2-1.5,2-1.8,2.3c-0.2,0.3-0.7,0.7-1.2,1.1
			c-0.2,0.2-0.3,0.3-0.3,0.3s-0.1,0.1-0.1,0.2C310.6,90,310.6,90.1,310.7,90.2C310.6,90.1,310.7,90.1,310.7,90.2z"/>
		<path class="st1" d="M322.7,89.6c-0.5,0.4-1,1-1.5,1.7v-2c0-0.1,0-0.2,0-0.3c0,0,0-0.1-0.1-0.1c-0.4,0.2-0.8,0.4-1.3,0.5
			c-0.2,0.1-0.5,0.2-1,0.4c-0.5,0.2-1,0.3-1.4,0.5v0.4c0.1,0,0.3-0.1,0.4-0.1s0.2,0,0.3,0c0.4,0,0.7,0.2,0.8,0.5s0.2,0.9,0.2,1.7
			v5.5c0,0.7-0.1,1.1-0.4,1.3c-0.2,0.2-0.7,0.3-1.5,0.4v0.4h6V100c-0.8,0-1.3-0.1-1.6-0.4c-0.3-0.3-0.5-0.8-0.5-1.5v-5.5
			c0-0.5,0.2-1,0.6-1.4c0.4-0.5,0.8-0.7,1-0.7s0.4,0.1,0.7,0.4s0.6,0.4,0.9,0.4s0.6-0.1,0.8-0.3c0.2-0.2,0.3-0.5,0.3-0.8
			c0-0.4-0.1-0.7-0.4-0.9c-0.3-0.2-0.6-0.4-1-0.4C323.7,89,323.2,89.2,322.7,89.6z"/>
		<path class="st1" d="M328.2,95.1c-1.2,0.8-1.8,1.8-1.8,3c0,0.8,0.3,1.4,0.8,1.9s1.1,0.7,1.8,0.7c0.7,0,1.4-0.2,2.1-0.7
			c0.4-0.3,1-0.7,1.6-1.2c0,0.5,0.2,0.9,0.4,1.3c0.2,0.4,0.6,0.5,1.2,0.5c0.5,0,0.9-0.2,1.4-0.5c0.3-0.2,0.6-0.5,0.8-0.8v-0.6
			c-0.3,0.2-0.5,0.4-0.6,0.4c-0.1,0.1-0.3,0.1-0.5,0.1c-0.3,0-0.6-0.2-0.7-0.5c-0.1-0.2-0.1-0.5-0.1-1v-4.9c0-1.1-0.2-1.9-0.5-2.5
			c-0.6-1-1.6-1.5-3.2-1.5c-1.4,0-2.4,0.3-3.1,0.9s-1.1,1.2-1.1,1.8c0,0.3,0.1,0.6,0.3,0.8c0.2,0.2,0.5,0.4,0.8,0.4
			c0.2,0,0.4-0.1,0.6-0.2c0.3-0.2,0.5-0.5,0.5-1c0-0.1,0-0.2-0.1-0.4c0-0.2-0.1-0.4-0.1-0.5c0-0.4,0.2-0.7,0.6-0.9
			c0.4-0.2,0.8-0.3,1.2-0.3c0.9,0,1.4,0.3,1.7,0.8c0.2,0.3,0.2,0.9,0.2,1.7v1C330.5,94,329,94.7,328.2,95.1z M332.7,97.6
			c0,0.5-0.2,0.8-0.7,1.1s-1,0.5-1.5,0.5c-0.4,0-0.7-0.1-1.1-0.3c-0.5-0.3-0.7-0.9-0.7-1.6c0-0.9,0.6-1.7,1.8-2.5
			c0.6-0.4,1.4-0.7,2.3-1L332.7,97.6L332.7,97.6z"/>
		<path class="st1" d="M338.7,99.5c0.3,0.9,1,1.3,2,1.3c0.4,0,0.9-0.1,1.4-0.4c0.5-0.2,0.9-0.6,1.3-1.2l0.3-0.4l-0.3-0.3
			c-0.3,0.3-0.5,0.5-0.7,0.7s-0.5,0.2-0.8,0.2c-0.6,0-1-0.3-1.1-0.8c-0.1-0.3-0.2-0.8-0.2-1.4v-7h2.5v-0.9h-2.5v-3
			c0-0.1,0-0.2,0-0.2s-0.1,0-0.2,0c-0.9,1.2-1.5,2-1.8,2.3c-0.2,0.3-0.7,0.7-1.2,1.1c-0.2,0.2-0.3,0.3-0.3,0.3S337,89.9,337,90v0.1
			c0,0,0.1,0,0.1,0.1h1.3v7.4C338.4,98.4,338.5,99,338.7,99.5z"/>
		<path class="st1" d="M346.9,86c0.4,0,0.6-0.1,0.9-0.4s0.4-0.5,0.4-0.9s-0.1-0.7-0.4-0.9s-0.5-0.4-0.9-0.4s-0.7,0.1-0.9,0.4
			s-0.4,0.6-0.4,0.9s0.1,0.6,0.4,0.9S346.6,86,346.9,86z"/>
		<path class="st1" d="M345.7,99.7c-0.2,0.2-0.8,0.4-1.6,0.4v0.3h5.9v-0.3c-0.8-0.1-1.3-0.2-1.5-0.5c-0.2-0.2-0.3-0.8-0.3-1.7v-8.8
			c0-0.1,0-0.1,0-0.2c-0.1,0-0.2,0-0.4,0.1c-0.6,0.2-1.6,0.6-3,1l-0.5,0.2v0.4c0.4-0.1,0.7-0.2,0.7-0.2c0.1,0,0.2,0,0.3,0
			c0.4,0,0.6,0.2,0.8,0.5c0.1,0.2,0.1,0.6,0.1,1.1v6C346.1,98.9,345.9,99.5,345.7,99.7z"/>
		<path class="st1" d="M360.2,90.4c0,0.2,0,0.4-0.1,0.7c-0.1,0.3-0.2,0.6-0.3,0.8l-2.2,5.4l-2.6-6.1c-0.1-0.2-0.2-0.4-0.2-0.5
			s-0.1-0.2-0.1-0.4c0-0.3,0.1-0.5,0.3-0.5c0.2-0.1,0.5-0.1,0.9-0.2v-0.4H351v0.4c0.4,0,0.7,0.1,0.9,0.3c0.3,0.3,0.7,0.8,1,1.5
			l3.7,8.9c0.1,0.1,0.1,0.3,0.2,0.3s0.1,0.1,0.2,0.1s0.1,0,0.2-0.1c0-0.1,0.1-0.2,0.2-0.3l3.5-8.8c0.3-0.8,0.6-1.4,0.8-1.6
			c0.2-0.2,0.5-0.4,0.9-0.4v-0.4H359v0.4c0.3,0,0.6,0.1,0.7,0.1C360,89.9,360.2,90.1,360.2,90.4z"/>
		<path class="st1" d="M371.8,90.3c-0.9-0.8-1.9-1.2-3-1.2c-1.6,0-2.8,0.6-3.8,1.8c-1,1.2-1.5,2.6-1.5,4.2c0,1.5,0.4,2.8,1.3,4
			c0.8,1.2,2,1.7,3.5,1.7c1.3,0,2.4-0.4,3.4-1.3c0.9-0.9,1.5-1.8,1.9-2.9l-0.4-0.1c-0.5,0.8-1,1.5-1.6,1.9s-1.3,0.7-2.2,0.7
			c-1.1,0-2-0.4-2.7-1.3s-1.2-2.2-1.3-4.1h7.8C373.1,92.2,372.6,91.1,371.8,90.3z M365.4,92.9c0.1-0.7,0.3-1.2,0.6-1.7
			c0.5-0.8,1.2-1.2,2.1-1.2s1.6,0.4,2,1.1c0.2,0.4,0.4,1,0.5,1.8C370.6,92.9,365.4,92.9,365.4,92.9z"/>
		<path class="st1" d="M381,92.4c0,2.4,0.7,4.4,2.2,5.9c1.6,1.7,3.7,2.6,6.4,2.6c1.6,0,3.2-0.4,4.6-1.3c0.8-0.5,1.5-1.1,2.1-1.8
			l-0.5-0.5c-0.7,0.7-1.4,1.2-2.1,1.6c-1.1,0.6-2.3,0.9-3.6,0.9c-1.8,0-3.3-0.7-4.4-2c-1.2-1.3-1.8-3.1-1.8-5.3
			c0-2.4,0.6-4.3,1.7-5.7c1.1-1.4,2.5-2.1,4.3-2.1c1.7,0,3.1,0.6,4.1,1.9c0.5,0.7,1,1.6,1.3,2.7h0.6l-0.2-5.6h-0.5
			c-0.1,0.3-0.2,0.5-0.4,0.6s-0.4,0.2-0.7,0.2c-0.1,0-0.6-0.1-1.6-0.4s-1.9-0.4-2.8-0.4c-2.6,0-4.7,0.9-6.3,2.6
			C381.8,87.9,381,90,381,92.4z"/>
		<path class="st1" d="M399.3,99.2c1.1,1.1,2.4,1.7,4,1.7s3-0.6,4-1.8s1.5-2.6,1.5-4.2c0-1.8-0.5-3.2-1.6-4.2
			c-1.1-1.1-2.4-1.6-4-1.6s-2.9,0.6-4,1.7s-1.5,2.5-1.5,4.1C397.7,96.6,398.2,98,399.3,99.2z M401.2,90.4c0.5-0.4,1-0.6,1.7-0.6
			c1.2,0,2.1,0.6,2.7,1.9s0.9,2.6,0.9,4s-0.2,2.5-0.7,3.3s-1.2,1.3-2.1,1.3c-1.2,0-2.1-0.6-2.7-1.9c-0.7-1.3-1-2.6-1-4.1
			C400,92.5,400.4,91.2,401.2,90.4z"/>
		<path class="st1" d="M411.3,91.2v6.3c0,1.2,0.3,2,1,2.5c0.6,0.5,1.3,0.8,2,0.8c0.8,0,1.5-0.2,2.2-0.7c0.5-0.3,1-0.8,1.5-1.5v2v0.1
			c0,0,0,0.1,0.1,0.1c0.7-0.3,1.2-0.5,1.4-0.5c0.5-0.2,0.9-0.3,1.1-0.3c0.2-0.1,0.5-0.2,1-0.3v-0.3c-0.6,0-1.1-0.1-1.3-0.3
			c-0.2-0.2-0.3-0.6-0.3-1.1v-8.6h-4v0.4c0.7,0,1.2,0.2,1.5,0.4s0.4,0.6,0.4,1.2v6.7c-0.3,0.4-0.6,0.6-0.9,0.8
			c-0.5,0.4-1.1,0.5-1.6,0.5c-0.8,0-1.4-0.3-1.7-0.9c-0.2-0.3-0.2-0.8-0.2-1.3v-7.8h-3.6v0.3c0.6,0.1,1,0.2,1.1,0.3
			C411.2,90.1,411.3,90.5,411.3,91.2z"/>
		<path class="st1" d="M423,90.6c0.5,0,0.8,0.2,1,0.5c0.1,0.2,0.1,0.6,0.1,1.1v6.2c0,0.7-0.1,1.2-0.3,1.4c-0.2,0.2-0.6,0.4-1.2,0.4
			v0.3h5.3v-0.3c-0.6,0-1-0.1-1.2-0.3c-0.3-0.2-0.4-0.6-0.4-1.2v-6.8c0.4-0.4,0.8-0.7,1.1-0.9c0.5-0.3,1-0.5,1.5-0.5
			c0.7,0,1.2,0.2,1.4,0.7c0.3,0.5,0.4,1,0.4,1.7v5.2c0,0.8-0.1,1.4-0.4,1.6s-0.7,0.4-1.2,0.5v0.3h5.2v-0.3c-0.5,0-0.9-0.1-1.2-0.4
			c-0.2-0.3-0.4-0.7-0.4-1.3v-5.7c0-1.6-0.4-2.7-1.3-3.3c-0.5-0.3-1-0.5-1.5-0.5c-0.7,0-1.3,0.2-2,0.6c-0.4,0.3-1,0.7-1.8,1.4v-1.8
			c0-0.1,0-0.1,0-0.2c0,0,0-0.1-0.1-0.1l-1.1,0.4c-1.2,0.4-2,0.7-2.4,0.8v0.4c0.1,0,0.2,0,0.3,0C422.8,90.6,422.9,90.6,423,90.6z"/>
		<path class="st1" d="M440,100.8c1.3,0,2.4-0.5,3.4-1.6c0.5-0.6,1-1.3,1.5-2.3l-0.3-0.2c-0.5,0.7-0.9,1.2-1.3,1.5
			c-0.7,0.6-1.4,0.8-2.3,0.8c-1.2,0-2.1-0.5-2.9-1.5c-0.7-1-1.1-2.1-1.1-3.3c0-1.3,0.3-2.4,1-3.2c0.6-0.8,1.4-1.2,2.3-1.2
			c0.4,0,0.8,0.1,1.1,0.3c0.3,0.2,0.4,0.5,0.5,0.9l0.1,0.6c0.1,0.4,0.3,0.7,0.5,0.9c0.2,0.2,0.5,0.3,0.8,0.3c0.4,0,0.7-0.1,0.9-0.3
			s0.3-0.5,0.3-0.7c0-0.6-0.4-1.2-1.1-1.7s-1.6-0.8-2.6-0.8c-1.6,0-3,0.6-4,1.8c-1.1,1.2-1.6,2.7-1.6,4.3c0,1.7,0.5,3.1,1.5,4.1
			S438.7,100.8,440,100.8z"/>
		<path class="st1" d="M452.1,100.2c-0.8-0.1-1.3-0.2-1.5-0.5c-0.2-0.2-0.3-0.8-0.3-1.7v-8.8c0-0.1,0-0.1,0-0.2
			c-0.1,0-0.2,0-0.4,0.1c-0.6,0.2-1.6,0.6-3,1l-0.5,0.2v0.4c0.4-0.1,0.7-0.2,0.7-0.2c0.1,0,0.2,0,0.3,0c0.4,0,0.6,0.2,0.8,0.5
			c0.1,0.2,0.1,0.6,0.1,1.1V98c0,1-0.1,1.5-0.3,1.8c-0.2,0.2-0.8,0.4-1.6,0.4v0.3h5.9v-0.3H452.1z"/>
		<path class="st1" d="M449,86c0.4,0,0.6-0.1,0.9-0.4s0.4-0.5,0.4-0.9s-0.1-0.7-0.4-0.9s-0.5-0.4-0.9-0.4s-0.7,0.1-0.9,0.4
			s-0.4,0.6-0.4,0.9s0.1,0.6,0.4,0.9S448.6,86,449,86z"/>
		<path class="st1" d="M453.9,84.8c0.5,0,0.8,0.2,1,0.5c0.1,0.2,0.1,0.6,0.1,1.1v11.9c0,0.7-0.1,1.1-0.4,1.4
			c-0.3,0.2-0.8,0.4-1.5,0.5v0.3h5.9v-0.3c-0.8-0.1-1.3-0.2-1.5-0.4c-0.2-0.2-0.4-0.7-0.4-1.4V83.8c0-0.2,0-0.3,0-0.3s0-0.1-0.1-0.1
			c-1.5,0.5-2.9,0.9-4,1.2V85c0.2,0,0.4-0.1,0.5-0.1C453.7,84.8,453.8,84.8,453.9,84.8z"/>
	</g>
</g>
</svg>
