<?xml version="1.0" encoding="utf-8"?>
<!-- Generator: Adobe Illustrator 22.0.1, SVG Export Plug-In . SVG Version: 6.00 Build 0)  -->
<svg version="1.1" xmlns="http://www.w3.org/2000/svg" xmlns:xlink="http://www.w3.org/1999/xlink" x="0px" y="0px"
	 viewBox="0 0 271.2 271.1" style="enable-background:new 0 0 271.2 271.1;" xml:space="preserve">
<style type="text/css">
	.st0{fill:#FFFFFF;}
	.st1{fill:#FFCC33;}
</style>
<g id="Layer_1">
	<g>
		<path class="st0" d="M146.8,140.9v18.9h6v-38.2H144L133.1,152h-0.2l-10.6-30.4h-8.8v38.2h5.7v-18.6c0-4.1-0.1-8.6-0.4-13.3h0.2
			l11.1,31.9h5.5L147,128h0.2c-0.1,0.6-0.2,2.5-0.2,5.5S146.8,139,146.8,140.9z"/>
		<path class="st0" d="M93.9,182.5c0.7,0,1.3,0.1,1.9,0.3c0.6,0.2,1.2,0.4,1.8,0.7l1-2.2c-1.4-0.7-3-1.1-4.6-1.1c-1.6,0-3,0.3-4.2,1
			s-2.1,1.7-2.7,2.9c-0.6,1.3-0.9,2.8-0.9,4.5c0,2.7,0.6,4.8,1.9,6.2s3.1,2.2,5.5,2.2c1.6,0,3.1-0.2,4.4-0.7v-2.3
			c-0.7,0.2-1.4,0.4-2,0.5s-1.3,0.2-2,0.2c-1.6,0-2.8-0.5-3.7-1.5c-0.9-1-1.3-2.6-1.3-4.6c0-1.9,0.4-3.4,1.3-4.5
			S92.3,182.5,93.9,182.5z"/>
		<path class="st0" d="M117.2,185.2c0-1.6-0.5-2.8-1.5-3.6s-2.6-1.2-4.7-1.2h-4.6v16.4h2.7v-6.6h2.7l3.9,6.6h3.1l-4.6-7.3
			C116.1,188.7,117.2,187.3,117.2,185.2z M110.8,188.1H109v-5.4h1.8c1.2,0,2.1,0.2,2.7,0.6s0.9,1.1,0.9,2c0,0.9-0.3,1.6-0.8,2.1
			S112.1,188.1,110.8,188.1z"/>
		<path class="st0" d="M148.6,180.5h-5.1v16.4h4.6c2.8,0,5-0.7,6.5-2.2s2.3-3.5,2.3-6.2c0-2.6-0.7-4.5-2.2-5.9
			C153.2,181.2,151.2,180.5,148.6,180.5z M148.1,194.6h-1.9v-11.9h2.3c3.7,0,5.5,2,5.5,5.9C154,192.6,152,194.6,148.1,194.6z"/>
		<path class="st0" d="M69.6,156.9c2.4-1.9,3.6-4.6,3.6-8.1c0-2.5-0.6-4.6-1.9-6c-1.3-1.5-3.2-2.5-5.9-3v-0.3c2.2-0.4,3.8-1.3,5-2.8
			s1.7-3.3,1.7-5.6c0-3.3-1.2-5.7-3.5-7.3c-2.3-1.5-6.1-2.3-11.4-2.3H45.8v38.2h13.8C63.8,159.8,67.2,158.9,69.6,156.9z M52,126.9
			h5.4c2.8,0,4.9,0.4,6.2,1.2c1.3,0.8,1.9,2.1,1.9,3.9c0,2-0.6,3.4-1.8,4.2c-1.2,0.8-3.1,1.2-5.7,1.2h-6V126.9z M52,154.6v-12.1h6.3
			c2.8,0,4.8,0.5,6.2,1.4c1.4,1,2,2.4,2,4.4c0,2.2-0.7,3.7-2,4.7c-1.3,1-3.3,1.5-5.9,1.5H52z"/>
		<polygon class="st0" points="89.1,159.8 95.4,159.8 95.4,127 106.6,127 106.6,121.6 77.9,121.6 77.9,127 89.1,127 		"/>
		<path class="st0" d="M51.4,180.4l-6.1,16.5h2.8l1.6-4.6H56l1.6,4.6h2.9l-6.1-16.5H51.4z M50.5,190l1.5-4.3c0.4-1.1,0.7-2.1,0.9-3
			c0.1,0.3,0.2,0.8,0.4,1.4c0.2,0.6,0.4,1.1,0.5,1.4l1.5,4.5H50.5z"/>
		<path class="st0" d="M74.5,182.5c0.7,0,1.3,0.1,1.9,0.3c0.6,0.2,1.2,0.4,1.8,0.7l1-2.2c-1.4-0.7-3-1.1-4.6-1.1c-1.6,0-3,0.3-4.2,1
			s-2.1,1.7-2.7,2.9c-0.6,1.3-0.9,2.8-0.9,4.5c0,2.7,0.6,4.8,1.9,6.2s3.1,2.2,5.5,2.2c1.6,0,3.1-0.2,4.4-0.7v-2.3
			c-0.7,0.2-1.4,0.4-2,0.5s-1.3,0.2-2,0.2c-1.6,0-2.8-0.5-3.7-1.5c-0.9-1-1.3-2.6-1.3-4.6c0-1.9,0.4-3.4,1.3-4.5
			S72.9,182.5,74.5,182.5z"/>
		<polygon class="st0" points="125.8,196.9 135.1,196.9 135.1,194.6 128.5,194.6 128.5,189.4 134.7,189.4 134.7,187.2 128.5,187.2 
			128.5,182.7 135.1,182.7 135.1,180.5 125.8,180.5 		"/>
		<path class="st0" d="M207,123.5c-2.8,1.6-4.9,3.9-6.3,6.8c-1.5,3-2.2,6.5-2.2,10.4c0,6.3,1.5,11.2,4.5,14.5
			c3,3.4,7.3,5.1,12.9,5.1c3.8,0,7.2-0.6,10.2-1.7v-5.4c-1.6,0.5-3.2,0.9-4.7,1.2c-1.5,0.3-3.1,0.5-4.7,0.5c-3.7,0-6.6-1.2-8.6-3.6
			c-2-2.4-3-5.9-3-10.6c0-4.5,1-8,3.1-10.5c2.1-2.5,4.9-3.8,8.5-3.8c1.6,0,3.1,0.2,4.5,0.7c1.4,0.5,2.8,1,4.1,1.6l2.2-5.2
			c-3.3-1.6-6.9-2.5-10.8-2.5C213,121.1,209.8,121.9,207,123.5z"/>
		<path class="st0" d="M46.6,169.2c0,0.5-0.1,1.4-0.2,1.9c60.1,0.1,120.3,0,180.4,0c0-0.5-0.1-1.5-0.1-2
			C166.7,169.2,106.6,169.1,46.6,169.2z"/>
		<path class="st0" d="M217.6,180.5h-5.1v16.4h4.6c2.8,0,5-0.7,6.5-2.2s2.3-3.5,2.3-6.2c0-2.6-0.7-4.5-2.2-5.9
			C222.3,181.2,220.2,180.5,217.6,180.5z M217.2,194.6h-1.9v-11.9h2.3c3.7,0,5.5,2,5.5,5.9C223.1,192.6,221.1,194.6,217.2,194.6z"/>
		<path class="st0" d="M111,87.6c4.6,6.5,8,13.7,11.5,20.9c3-1.9,6.2-3.4,9.1-5.5c2.2-2.7,3.3-6,5.2-8.9c5.4-8.6,12-16.5,19.3-23.6
			c10.6-10.9,22.8-20.1,36-27.6c-0.2-0.8-0.7-2.4-0.9-3.2c-1.7,0.6-3.3,1.2-5,2c-19.6,10-36.9,24-51.4,40.5c-3,3.5-5.5,7.3-8.7,10.6
			c-3.2-5.1-5.8-11-11-14.3c-4-2.5-9-0.3-12.1,2.7C106,82.9,109,84.7,111,87.6z"/>
		<path class="st0" d="M202.7,33c-23.4-15.6-52.4-22.3-80.4-19.3C89.6,17,58.7,34.4,38.7,60.4C25.4,77.4,16.9,98.1,14,119.6
			c-1,9.6-0.9,19.3-0.3,29c1.1,11.4,4.1,22.5,8.3,33.2c11.6,29,34.9,53,63.4,65.8c16.8,7.5,35.3,11.2,53.7,10.6
			c25.6-0.6,51-9.5,71.2-25.3c24.8-18.7,41.8-47.5,46.5-78.2c2.6-17.7,1.7-36-3.3-53.1C245.3,73.6,227.1,48.8,202.7,33z M251,147.6
			c-1.8,17.4-7.7,34.3-16.9,49.2c-14.3,22.7-36.3,40.6-61.9,48.9c-16.5,5.8-34.2,6.9-51.5,5c-27.7-3.6-54-17.5-72.3-38.6
			c-19-21.3-29.6-50-28.9-78.5c0.2-24.2,8.6-48.2,23.1-67.5c18.4-25,47.3-41.7,78-45.7c16.5-1.7,33.4-0.8,49.3,4.3
			c27.9,8.5,52,28.2,66.4,53.5C248.3,99.1,253.6,123.7,251,147.6z"/>
		<polygon class="st0" points="175.2,182.8 180,182.8 180,196.9 182.7,196.9 182.7,182.8 187.5,182.8 187.5,180.5 175.2,180.5 		"/>
		<path class="st0" d="M173.2,121.5l-14.3,38.3h6.6l3.7-10.6h14.6l3.8,10.6h6.6L180,121.5H173.2z M171.1,143.8l3.4-10
			c0.9-2.5,1.6-4.9,2.1-7c0.2,0.7,0.5,1.8,1,3.3c0.5,1.5,0.8,2.6,1.1,3.3l3.6,10.4H171.1z"/>
		<polygon class="st0" points="194.9,196.9 204.2,196.9 204.2,194.6 197.6,194.6 197.6,189.4 203.8,189.4 203.8,187.2 197.6,187.2 
			197.6,182.7 204.2,182.7 204.2,180.5 194.9,180.5 		"/>
		<rect x="165.2" y="180.5" class="st0" width="2.7" height="16.4"/>
		<path class="st1" d="M270.7,126.6c-0.5-8.5-1.7-17-4-25.1c-9.2-36.8-35-68.8-68.5-86.2c-24.8-12.9-53.8-18-81.5-13.9
			c-29.3,3.8-57,18-77.7,39.1C20.6,59,7.9,83,2.7,108.6c-3.9,19.5-3.6,40,1.2,59.3c7.8,32.6,28.5,61.8,56.3,80.4
			c27,18,60.5,26,92.7,21.6c32.5-3.8,63.1-20.3,84.5-44.9c17.9-20.1,29.3-45.7,32.6-72.4C270.7,144,272,135.2,270.7,126.6z
			 M256.7,154.6c-4.7,30.7-21.7,59.5-46.5,78.2c-20.2,15.7-45.6,24.7-71.2,25.3c-18.4,0.6-36.9-3.1-53.7-10.6
			c-28.5-12.7-51.8-36.8-63.4-65.8c-4.2-10.6-7.2-21.8-8.3-33.2c-0.6-9.6-0.7-19.4,0.3-29c2.9-21.4,11.4-42.1,24.8-59.2
			c20-26,50.9-43.3,83.6-46.7c28-3,56.9,3.7,80.4,19.3c24.4,15.8,42.6,40.6,50.6,68.5C258.4,118.7,259.2,137,256.7,154.6z"/>
		<path class="st1" d="M113.5,183.3c-0.6-0.4-1.5-0.6-2.7-0.6H109v5.4h1.9c1.3,0,2.2-0.2,2.7-0.7s0.8-1.2,0.8-2.1
			C114.4,184.4,114.1,183.7,113.5,183.3z"/>
		<path class="st1" d="M66.6,148.3c0-2-0.7-3.5-2-4.4c-1.4-1-3.4-1.4-6.2-1.4H52v12.1h6.6c2.6,0,4.6-0.5,5.9-1.5
			C65.9,152.1,66.6,150.5,66.6,148.3z"/>
		<path class="st1" d="M148.5,182.7h-2.3v11.9h1.9c4,0,5.9-2,5.9-6C154,184.7,152.2,182.7,148.5,182.7z"/>
		<path class="st1" d="M53.3,184.1c-0.2-0.6-0.3-1.1-0.4-1.4c-0.2,0.9-0.5,1.9-0.9,3l-1.5,4.3h4.8l-1.5-4.5
			C53.6,185.2,53.5,184.8,53.3,184.1z"/>
		<path class="st1" d="M177.5,130.2c-0.5-1.5-0.8-2.6-1-3.3c-0.5,2.1-1.2,4.5-2.1,7l-3.4,10h11.1l-3.6-10.4
			C178.3,132.8,178,131.7,177.5,130.2z"/>
		<path class="st1" d="M217.6,182.7h-2.3v11.9h1.9c4,0,5.9-2,5.9-6C223.1,184.7,221.2,182.7,217.6,182.7z"/>
		<path class="st1" d="M63.7,136.2c1.2-0.8,1.8-2.2,1.8-4.2c0-1.8-0.6-3.1-1.9-3.9c-1.3-0.8-3.4-1.2-6.2-1.2H52v10.6h6
			C60.6,137.4,62.5,137,63.7,136.2z"/>
		<path class="st1" d="M170,24.7c-15.9-5.1-32.8-6-49.3-4.3c-30.7,3.9-59.7,20.7-78,45.7c-14.6,19.3-22.9,43.3-23.1,67.5
			c-0.7,28.5,9.9,57.2,28.9,78.5c18.3,21.1,44.6,35,72.3,38.6c17.3,1.8,35,0.8,51.5-5c25.6-8.3,47.6-26.2,61.9-48.9
			c9.1-14.9,15-31.8,16.9-49.2c2.6-23.9-2.7-48.5-14.6-69.3C222,53,197.9,33.3,170,24.7z M115.1,78.5c5.2,3.3,7.8,9.2,11,14.3
			c3.2-3.3,5.7-7.1,8.7-10.6c14.5-16.5,31.8-30.6,51.4-40.5c1.6-0.8,3.3-1.4,5-2c0.2,0.8,0.7,2.4,0.9,3.2
			c-13.2,7.5-25.4,16.8-36,27.6c-7.3,7.1-13.9,15-19.3,23.6c-1.9,2.9-3,6.2-5.2,8.9c-2.9,2.1-6.1,3.6-9.1,5.5
			c-3.5-7.1-6.9-14.4-11.5-20.9c-2-2.9-5-4.7-8-6.4C106,78.2,111,76,115.1,78.5z M194.3,159.8h-6.6l-3.8-10.6h-14.6l-3.7,10.6h-6.6
			l14.3-38.3h6.8L194.3,159.8z M147,128l-11.5,31.8H130l-11.1-31.9h-0.2c0.3,4.7,0.4,9.2,0.4,13.3v18.6h-5.7v-38.2h8.8l10.6,30.4
			h0.2l10.9-30.4h8.8v38.2h-6v-18.9c0-1.9,0-4.4,0.1-7.4s0.2-4.9,0.2-5.5H147z M77.9,121.6h28.7v5.4H95.4v32.8h-6.2V127H77.9V121.6z
			 M45.8,121.6h11.3c5.3,0,9.1,0.8,11.4,2.3c2.3,1.5,3.5,4,3.5,7.3c0,2.2-0.6,4.1-1.7,5.6s-2.8,2.4-5,2.8v0.3c2.7,0.5,4.7,1.5,5.9,3
			c1.3,1.5,1.9,3.5,1.9,6c0,3.4-1.2,6.1-3.6,8.1c-2.4,1.9-5.7,2.9-10,2.9H45.8V121.6z M57.6,196.9l-1.6-4.6h-6.3l-1.6,4.6h-2.8
			l6.1-16.5h2.9l6.1,16.5H57.6z M70.8,193.3c0.8,1,2.1,1.5,3.7,1.5c0.7,0,1.4-0.1,2-0.2s1.3-0.3,2-0.5v2.3c-1.3,0.5-2.7,0.7-4.4,0.7
			c-2.4,0-4.2-0.7-5.5-2.2s-1.9-3.5-1.9-6.2c0-1.7,0.3-3.2,0.9-4.5c0.6-1.3,1.5-2.3,2.7-2.9s2.6-1,4.2-1c1.7,0,3.2,0.4,4.6,1.1
			l-1,2.2c-0.6-0.3-1.1-0.5-1.8-0.7c-0.6-0.2-1.3-0.3-1.9-0.3c-1.5,0-2.8,0.5-3.6,1.6s-1.3,2.6-1.3,4.5
			C69.5,190.7,69.9,192.2,70.8,193.3z M90.2,193.3c0.8,1,2.1,1.5,3.7,1.5c0.7,0,1.4-0.1,2-0.2s1.3-0.3,2-0.5v2.3
			c-1.3,0.5-2.7,0.7-4.4,0.7c-2.4,0-4.2-0.7-5.5-2.2s-1.9-3.5-1.9-6.2c0-1.7,0.3-3.2,0.9-4.5c0.6-1.3,1.5-2.3,2.7-2.9s2.6-1,4.2-1
			c1.7,0,3.2,0.4,4.6,1.1l-1,2.2c-0.6-0.3-1.1-0.5-1.8-0.7c-0.6-0.2-1.3-0.3-1.9-0.3c-1.5,0-2.8,0.5-3.6,1.6s-1.3,2.6-1.3,4.5
			C88.9,190.7,89.3,192.2,90.2,193.3z M115.6,196.9l-3.9-6.6H109v6.6h-2.7v-16.4h4.6c2.1,0,3.7,0.4,4.7,1.2s1.5,2,1.5,3.6
			c0,2-1.1,3.5-3.2,4.4l4.6,7.3H115.6z M135.1,182.7h-6.6v4.5h6.2v2.2h-6.2v5.2h6.6v2.3h-9.3v-16.4h9.3V182.7z M154.6,194.7
			c-1.5,1.4-3.7,2.2-6.5,2.2h-4.6v-16.4h5.1c2.6,0,4.6,0.7,6.1,2.1c1.5,1.4,2.2,3.4,2.2,5.9C156.8,191.2,156.1,193.3,154.6,194.7z
			 M167.9,196.9h-2.7v-16.4h2.7V196.9z M187.5,182.8h-4.8v14.1H180v-14.1h-4.8v-2.3h12.3V182.8z M204.2,182.7h-6.6v4.5h6.2v2.2h-6.2
			v5.2h6.6v2.3h-9.3v-16.4h9.3V182.7z M223.7,194.7c-1.5,1.4-3.7,2.2-6.5,2.2h-4.6v-16.4h5.1c2.6,0,4.6,0.7,6.1,2.1
			c1.5,1.4,2.2,3.4,2.2,5.9C225.9,191.2,225.2,193.3,223.7,194.7z M46.4,171.1c0-0.5,0.1-1.4,0.2-1.9c60.1,0,120.1,0,180.2,0
			c0,0.5,0.1,1.5,0.1,2C166.7,171.1,106.5,171.2,46.4,171.1z M225.3,128.7c-1.3-0.6-2.7-1.1-4.1-1.6c-1.4-0.5-2.9-0.7-4.5-0.7
			c-3.6,0-6.4,1.3-8.5,3.8c-2.1,2.5-3.1,6.1-3.1,10.5c0,4.7,1,8.2,3,10.6c2,2.4,4.8,3.6,8.6,3.6c1.6,0,3.2-0.2,4.7-0.5
			c1.5-0.3,3.1-0.7,4.7-1.2v5.4c-3,1.1-6.4,1.7-10.2,1.7c-5.6,0-9.9-1.7-12.9-5.1c-3-3.4-4.5-8.2-4.5-14.5c0-4,0.7-7.4,2.2-10.4
			c1.5-3,3.6-5.3,6.3-6.8s6-2.4,9.7-2.4c3.9,0,7.5,0.8,10.8,2.5L225.3,128.7z"/>
	</g>
</g>
<g id="Layer_2">
</g>
</svg>
