<?xml version="1.0" encoding="utf-8"?>
<!-- Generator: Adobe Illustrator 22.0.1, SVG Export Plug-In . SVG Version: 6.00 Build 0)  -->
<svg version="1.1" id="Layer_1" xmlns="http://www.w3.org/2000/svg" xmlns:xlink="http://www.w3.org/1999/xlink" x="0px" y="0px"
	 viewBox="0 0 250 500" enable-background="new 0 0 250 500" xml:space="preserve">
<g>
	<path fill="none" d="M35.4,76.2c0.4,0,0.7,0,1.1,0l0,0C36.1,76.2,35.7,76.2,35.4,76.2z"/>
	<path fill="none" d="M69.6,472.1C69.6,472.1,69.6,472.1,69.6,472.1C69.6,472.1,69.6,472.1,69.6,472.1
		C69.6,472.1,69.6,472.1,69.6,472.1z"/>
	<path fill="none" d="M49.8,85.3c-0.3,0.2-0.6,0.3-0.8,0.5C49.3,85.6,49.6,85.5,49.8,85.3L49.8,85.3z"/>
	<path fill="none" d="M54.6,472.2c-2.1,0-4.1-0.1-6.2-0.1C50.4,472.2,52.5,472.2,54.6,472.2z"/>
	<path fill="none" d="M55.5,472.2C55.5,472.2,55.5,472.2,55.5,472.2C55.5,472.2,55.4,472.2,55.5,472.2
		C55.4,472.2,55.5,472.2,55.5,472.2z"/>
	<path fill="#EBEBEB" d="M196.1,82c-1-0.7-2-1.4-3-2.2s-1.9-1.6-2.8-2.5c-1.4-1.3-2.6-2.7-3.7-4.2c-0.3-0.5-0.7-1-1-1.5
		c-1.3-2-2.4-4.3-3.1-6.7c-0.1-0.4-0.2-0.8-0.3-1.2c-0.1-0.7-0.3-1.4-0.4-2.2c-0.2-1-0.3-2.1-0.4-3.1c0-1.2,0-2.3,0-3.4
		s0.1-2.2,0.3-3.2c0.1-0.7,0.2-1.4,0.4-2.1c0.7-3.1,2-6.1,3.8-8.8c0.3-0.4,0.6-0.9,1-1.3c2.5-3.2,5.9-5.6,9.6-7.2c2.2-1,4.6-1.6,7-2
		c0.5,0,1-0.1,1.6-0.1c1.6,0,3.2,0.2,4.7,0.6c0.6,0.1,1.1,0.3,1.7,0.5c0.7,0.2,1.4,0.5,2.1,0.8c2,0.9,3.9,2.1,5.6,3.6
		c0.7,0.7,1.4,1.4,2.1,2.1c0.6,0.8,1.2,1.6,1.7,2.5c3.6,6,5,14.3,0.7,20.3c-0.2,0.3-0.5,0.6-0.7,0.9c-0.5,0.6-1.1,1.1-1.7,1.6
		c-2.1,1.6-4.6,2.4-7.2,2.5c-0.3,0-0.7-0.1-1-0.1c-0.6-0.1-1.3-0.2-1.9-0.4c-1.2-0.4-2.4-0.9-3.4-1.6c-3.7-2.7-6.8-7.2-5.5-11.9
		c0.2-1,0.6-1.9,1.1-2.7c0.3-0.6,0.8-1,1.2-1.5c0.4-0.5,1-0.9,1.5-1.2c1.1-0.7,2.3-1.2,3.6-1.4c0.4-0.1,0.9-0.2,1.3-0.2
		c0.9,0,1.8,0.2,2.6,0.5c0.8,0.2,1.4,0.6,2,1c1.8,1.3,3.1,3.4,4.6,5.1c0-0.4-0.1-0.8-0.2-1.2c0.3,0.4,0.6,0.8,1,1.2
		c-0.2-2.2-0.8-4.4-1.7-6.4c-0.4-0.6-0.7-1.3-1.1-1.9c-1-1.6-2.3-2.9-3.8-3.9c-0.9-0.6-1.9-1.1-3-1.4c-1.5-0.4-2.9-0.6-4.4-0.5
		c-10.2-0.2-19.8,10.1-18.1,20.4c0.7,5.1,4.1,9.4,7.9,12.7c4.4,3.7,10.1,5.6,15.8,5.8c3.6,0.2,7.3-0.2,10.7-1.4c3-1.1,5.8-2.8,8.1-5
		c0.7-0.6,1.3-1.3,1.9-2c0.8-0.9,1.5-1.9,2.1-2.9c0.4-0.7,0.8-1.4,1.1-2.1c0.2-0.4,0.4-0.8,0.5-1.1c0.1-0.3,0.3-0.7,0.4-1.1
		c0.2-0.3,0.3-0.7,0.4-1.1c1.2-3.2,1.8-6.7,2-10.1c0-0.5,0-1,0-1.5c0-1.3-0.1-2.6-0.2-3.9c-0.4-3.1-1.1-6.2-2.2-9.2
		c-0.2-0.6-0.4-1.1-0.6-1.6c-0.5-1-1-2-1.5-3s-1.1-2-1.7-2.9c-1.6-2.4-3.4-4.5-5.4-6.4c-0.9-0.7-1.7-1.4-2.6-2.1
		c-2.3-1.7-4.7-3.1-7.4-4.1c-6.2-2-12.7-2.7-19.1-2.7c-1.1,0-2.2,0-3.3,0.1c-40.8,0.6-81.5,0.4-122.3,0.3c-0.3,0-0.7,0-1,0
		c-1.7-0.1-3.3-0.1-5-0.1c-4.4,0-8.8,0.1-13.2,0.4c-2.6,0.2-16.2-0.3-20.4,1.2c-1,0.4-2,0.8-2.9,1.2c-1.4,0.7-2.8,1.4-4.1,2.3
		c-3.1,2-5.9,4.5-8.2,7.3c-1,1.2-1.9,2.5-2.8,3.8c-0.3,0.4-0.6,0.9-0.8,1.4c-0.6,1.2-1.2,2.4-1.7,3.6C11.9,37.1,11,41,10.8,45
		c0,0.7-0.1,1.3-0.1,2s0,1.3,0,2c0.1,3.3,0.7,6.6,1.7,9.8c0.2,0.6,0.4,1.3,0.6,1.9c0.2,0.4,0.3,0.9,0.5,1.3c0.4,0.9,0.8,1.7,1.3,2.5
		s1,1.6,1.6,2.4c3.2,4.2,7.8,7.3,13,8.5c1.9,0.5,4,0.7,6,0.8c0.4,0,0.7,0,1.1,0l0,0c6.1,0.1,12.3-1.7,17-5.5c1.7-1.4,3.2-3,4.4-4.8
		c0.5-0.6,0.8-1.2,1.2-1.8c0.9-1.5,1.5-3.1,2-4.7c0.2-0.5,0.3-1,0.4-1.5c0.1-0.6,0.2-1.3,0.3-1.9v-0.1c0-0.3,0-0.7,0-1
		c0-0.3-0.1-0.7-0.1-1c-0.2-2.7-1.1-5.2-2.5-7.4c-0.3-0.5-0.7-1.1-1.1-1.6c-0.6-0.8-1.3-1.5-2-2.2c-0.5-0.5-1-0.9-1.5-1.3
		c-0.5-0.5-1-0.8-1.6-1.2c-0.5-0.4-1.1-0.7-1.7-1c-0.9-0.4-1.8-0.8-2.7-1.1c-1.2-0.4-2.5-0.7-3.8-0.8c-0.2,0-0.5,0-0.8,0
		c-0.1,0-0.1,0-0.2,0c-0.7-0.1-1.4,0-2.1,0.1c-0.6,0-1.1,0.1-1.7,0.1c-0.6,0.1-1.2,0.3-1.7,0.6s-1.1,0.5-1.6,0.8
		c-0.3,0.2-0.7,0.4-1,0.6c-0.6,0.5-1.2,1-1.7,1.5c-2.6,2.7-4.2,6.6-4.9,10.4c0.3-0.3,0.6-0.6,0.9-0.9c0,0,0.1-0.1,0.1-0.1
		c-0.1,0.3-0.2,0.7-0.2,1c0.3-0.3,0.6-0.6,0.9-0.9c0.9-1,1.8-2,2.8-2.9c0.7-0.6,1.4-1.1,2.1-1.6c0.7-0.4,1.5-0.8,2.4-1
		c0.5-0.1,1-0.2,1.5-0.2c1.2,0.1,2.3,0.4,3.4,0.8c1.1,0.5,2,1.2,2.9,2c1.1,1.1,2,2.5,2.4,3.9c0.1,0.4,0.2,0.7,0.3,1.1
		c0.2,1.1,0.2,2.3-0.2,3.5c-0.9,2.8-2.7,5.4-5,7.1c-0.4,0.3-0.7,0.5-1.1,0.7c-0.5,0.3-1.1,0.6-1.6,0.8c-0.4,0.2-0.9,0.3-1.3,0.4
		c-0.4,0.1-0.9,0.2-1.4,0.3c-0.3,0.1-0.6,0.1-0.8,0.1c-1.4,0-2.9-0.3-4.2-0.8c-0.7-0.3-1.4-0.6-2.1-1c-0.4-0.2-0.8-0.4-1.2-0.7
		c-0.6-0.4-1.1-0.8-1.6-1.3c-0.5-0.4-1-1-1.4-1.5C25,58,24,55.4,24,52.6c-0.1-1.5,0.1-3.1,0.4-4.7c0.2-1.1,0.5-2.1,0.8-3.1
		c0.2-0.5,0.4-1,0.6-1.5c0.6-1.5,1.4-2.9,2.3-4.2c0.3-0.5,0.7-0.9,1-1.3c0.7-0.8,1.4-1.6,2.2-2.3c0.4-0.3,0.8-0.7,1.2-1
		c0.3-0.2,0.7-0.5,1-0.7c0.5-0.3,1-0.6,1.5-0.9c0.5-0.3,1-0.6,1.6-0.8c0.5-0.3,1.1-0.5,1.6-0.7c1.2-0.4,2.4-0.7,3.6-0.9
		c0.4-0.1,0.7-0.2,1.1-0.2c0.6-0.1,1.2-0.1,1.8-0.1c0.6,0,1.2,0,1.9,0.1c1.1,0.1,2.2,0.3,3.3,0.6c1.5,0.4,3.1,0.9,4.5,1.5
		c0.7,0.3,1.3,0.6,1.9,1c1.2,0.7,2.4,1.4,3.5,2.3c0.4,0.3,0.8,0.7,1.2,1c0.5,0.4,0.9,0.8,1.3,1.2c1,1.1,1.8,2.3,2.6,3.6
		c0.3,0.4,0.5,0.8,0.7,1.3c0.3,0.6,0.6,1.2,0.9,1.8c0.5,1.2,1,2.4,1.3,3.7c0.4,1.3,0.6,2.5,0.8,3.8s0.3,2.6,0.3,3.9
		c0,2-0.1,3.9-0.5,5.9c-0.4,1.9-0.9,3.8-1.7,5.6c-1.8,5.6-5.9,10-10.6,13.6c-2,1.5-4.1,2.9-6.3,4.2l0,0c-0.3,0.2-0.6,0.3-0.8,0.5
		c0.4,0,0.9,0,1.5-0.1l0.5,0.3c0.3-0.1,0.5-0.3,0.8-0.4c3.2,0,8,0,13.9,0c1.3,0,2.7,0,4.1,0c5.7,0,12.2,0,19.3,0h0
		c1.8,0,3.6,0,5.4,0c1,0,1.9,0,2.8,0c1.8,0,3.7,0,5.6,0c4.7,0,9.5,0,14.4,0c2.9,0,5.9,0,8.8,0h0c2,0,4,0,5.9,0c1,0,1.9,0,2.9,0
		c2,0,3.9,0,5.8,0c1.9,0,3.8,0,5.7,0c5.7,0,11.1,0,16.3,0c1.8,0,3.5,0,5.1,0h0c0.8,0,1.6,0,2.4,0c2.4,0,4.7,0,6.9,0h0
		c2.2,0,4.2,0,6.2,0c1.3,0,2.5,0,3.7,0.1c4.6,0,8.2,0,10.6,0v-0.1c0.1,0,0.1,0,0.2,0c1,0,2.8,0.1,3.8,0.1c-0.2-0.1-0.3-0.2-0.4-0.3
		h0.6c-1.4-0.8-2.8-1.7-4.2-2.5C197.1,82.7,196.6,82.3,196.1,82z M169,53.7c0,0.7,0.1,1.5,0.1,2.2c0.1,1.5,0.2,2.9,0.4,4.4
		c0.4,2.9,0.9,5.8,1.7,8.6c-24.1,0.1-48.1-0.2-72.2,0c-1.7-0.1-3.4-0.1-5.1-0.1c-1.7,0-3.4,0-5.1,0c-1.7,0-3.4,0-5.1-0.1
		c-1.7-0.1-3.4-0.2-5.1-0.4c2.6-7.1,3.3-14.8,2.2-22.3c-0.1-0.6-0.2-1.3-0.3-1.9c-0.1-0.6-0.2-1.1-0.3-1.7c-0.6-2.9-1.5-5.6-2.6-8.3
		C85.5,34,93.4,34,101.3,34c23.7,0,47.4,0,71.1,0.1c-1,2.6-1.8,5.2-2.3,7.9c-0.2,1-0.4,1.9-0.5,2.9C169.1,47.8,168.9,50.8,169,53.7z
		"/>
	<path fill="#D9D9D9" d="M246.8,28c-2.8-5.6-5.9-11.2-10.6-15.4c-9.3-8.7-22.3-12.4-34.9-12.3c-44.4,0-88.8,0-133.3,0
		C53.8,0,38.8-1.1,25.5,4.9C14.9,9.6,6.5,18.8,2.8,29.8c-4.4,12.6-3.6,27,2.8,38.7c4.7,9,13.2,16.1,23.2,18.2
		c6.7,1.7,13.6,0.1,20.2-0.9c0.3-0.2,0.6-0.3,0.8-0.5c2.1-1.3,4.3-2.7,6.3-4.2c4.7-3.6,8.8-8,10.6-13.6c0.8-1.8,1.3-3.7,1.7-5.6
		c0.4-2,0.5-3.9,0.5-5.9c0-1.3-0.1-2.6-0.3-3.9s-0.4-2.5-0.8-3.8c-0.3-1.3-0.8-2.5-1.3-3.7c-0.3-0.6-0.6-1.2-0.9-1.8
		c-0.2-0.5-0.4-0.9-0.7-1.3c-0.8-1.3-1.6-2.5-2.6-3.6c-0.4-0.4-0.8-0.8-1.3-1.2c-0.4-0.3-0.8-0.7-1.2-1c-1.1-0.9-2.3-1.6-3.5-2.3
		c-0.6-0.4-1.2-0.7-1.9-1c-1.4-0.6-3-1.1-4.5-1.5c-1.1-0.3-2.2-0.5-3.3-0.6c-0.7-0.1-1.3-0.1-1.9-0.1c-0.6,0-1.2,0-1.8,0.1
		c-0.4,0-0.7,0.1-1.1,0.2c-1.2,0.2-2.4,0.5-3.6,0.9c-0.5,0.2-1.1,0.4-1.6,0.7c-0.6,0.2-1.1,0.5-1.6,0.8c-0.5,0.3-1,0.6-1.5,0.9
		c-0.3,0.2-0.7,0.5-1,0.7c-0.4,0.3-0.8,0.7-1.2,1c-0.8,0.7-1.5,1.5-2.2,2.3c-0.3,0.4-0.7,0.8-1,1.3c-0.9,1.3-1.7,2.7-2.3,4.2
		c-0.2,0.5-0.4,1-0.6,1.5c-0.3,1-0.6,2-0.8,3.1c-0.3,1.6-0.5,3.2-0.4,4.7c0,2.8,1,5.4,2.7,7.6c0.4,0.5,0.9,1.1,1.4,1.5
		c0.5,0.5,1,0.9,1.6,1.3c0.4,0.3,0.8,0.5,1.2,0.7c0.7,0.4,1.4,0.7,2.1,1c1.3,0.5,2.8,0.8,4.2,0.8c0.3,0,0.5,0,0.8-0.1
		c0.5-0.1,1-0.2,1.4-0.3c0.4-0.1,0.9-0.2,1.3-0.4c0.5-0.2,1.1-0.5,1.6-0.8c0.4-0.2,0.7-0.4,1.1-0.7c2.3-1.7,4.1-4.3,5-7.1
		c0.4-1.2,0.4-2.4,0.2-3.5c-0.1-0.4-0.2-0.7-0.3-1.1c-0.4-1.4-1.3-2.8-2.4-3.9c-0.9-0.8-1.8-1.5-2.9-2c-1.1-0.5-2.2-0.8-3.4-0.8
		c-0.5,0-1,0.1-1.5,0.2c-0.9,0.2-1.7,0.6-2.4,1c-0.7,0.5-1.4,1-2.1,1.6c-1,0.9-1.9,1.9-2.8,2.9c-0.3,0.3-0.6,0.6-0.9,0.9
		c0.1-0.3,0.1-0.7,0.2-1c0,0-0.1,0.1-0.1,0.1c-0.3,0.3-0.6,0.6-0.9,0.9c0.7-3.8,2.3-7.7,4.9-10.4c0.5-0.5,1.1-1,1.7-1.5
		c0.3-0.2,0.7-0.4,1-0.6c0.5-0.3,1.1-0.5,1.6-0.8s1.1-0.5,1.7-0.6c0.6-0.1,1.1-0.1,1.7-0.1c0.7-0.1,1.4-0.1,2.1-0.1
		c0.1,0,0.1,0,0.2,0c0.3,0,0.6,0,0.8,0c1.3,0.1,2.6,0.4,3.8,0.8c0.9,0.3,1.8,0.7,2.7,1.1c0.6,0.3,1.2,0.6,1.7,1
		c0.6,0.4,1.1,0.7,1.6,1.2c0.5,0.4,1,0.8,1.5,1.3c0.7,0.7,1.4,1.4,2,2.2c0.4,0.5,0.8,1.1,1.1,1.6c1.4,2.2,2.3,4.7,2.5,7.4
		c0,0.3,0.1,0.7,0.1,1c0,0.3,0,0.7,0,1V56c-0.1,0.6-0.2,1.3-0.3,1.9c-0.1,0.5-0.2,1-0.4,1.5c-0.5,1.6-1.1,3.2-2,4.7
		c-0.4,0.6-0.7,1.2-1.2,1.8c-1.2,1.8-2.7,3.4-4.4,4.8c-4.7,3.8-10.9,5.6-17,5.5c-0.4,0-0.7,0-1.1,0c-2-0.1-4-0.3-6-0.8
		c-5.2-1.2-9.8-4.3-13-8.5c-0.6-0.8-1.1-1.6-1.6-2.4s-0.9-1.6-1.3-2.5c-0.2-0.4-0.3-0.9-0.5-1.3c-0.2-0.6-0.4-1.3-0.6-1.9
		c-1-3.2-1.6-6.5-1.7-9.8c0-0.7,0-1.3,0-2s0.1-1.3,0.1-2c0.2-4,1.1-7.9,2.6-11.6c0.5-1.2,1.1-2.4,1.7-3.6c0.2-0.5,0.5-1,0.8-1.4
		c0.9-1.3,1.8-2.6,2.8-3.8c2.3-2.8,5.1-5.3,8.2-7.3c1.3-0.9,2.7-1.6,4.1-2.3c0.9-0.4,1.9-0.8,2.9-1.2c4.2-1.5,17.8-1,20.4-1.2
		c4.4-0.3,8.8-0.4,13.2-0.4c1.7,0,3.3,0,5,0.1c0.3,0,0.7,0,1,0c40.8,0.1,81.5,0.3,122.3-0.3c1.1,0,2.2-0.1,3.3-0.1
		c6.5-0.1,12.9,0.7,19.1,2.7c2.7,1,5.1,2.4,7.4,4.1c0.9,0.7,1.7,1.4,2.6,2.1c2,1.9,3.8,4,5.4,6.4c0.6,0.9,1.2,1.9,1.7,2.9s1,2,1.5,3
		c0.2,0.5,0.4,1,0.6,1.6c1.1,3,1.8,6.1,2.2,9.2c0.1,1.3,0.2,2.6,0.2,3.9c0,0.5,0,1,0,1.5c-0.2,3.4-0.8,6.9-2,10.1
		c-0.1,0.4-0.2,0.8-0.4,1.1c-0.1,0.4-0.3,0.8-0.4,1.1c-0.1,0.3-0.3,0.7-0.5,1.1c-0.3,0.7-0.7,1.4-1.1,2.1c-0.6,1-1.3,2-2.1,2.9
		c-0.6,0.7-1.2,1.4-1.9,2c-2.3,2.2-5.1,3.9-8.1,5c-3.4,1.2-7.1,1.6-10.7,1.4c-5.7-0.2-11.4-2.1-15.8-5.8c-3.8-3.3-7.2-7.6-7.9-12.7
		c-1.7-10.3,7.9-20.6,18.1-20.4c1.4,0,2.9,0.1,4.4,0.5c1.1,0.3,2.1,0.8,3,1.4c1.5,1,2.8,2.3,3.8,3.9c0.4,0.6,0.7,1.3,1.1,1.9
		c0.9,2,1.5,4.2,1.7,6.4c-0.3-0.4-0.6-0.8-1-1.2c0.1,0.4,0.1,0.8,0.2,1.2c-1.5-1.7-2.8-3.8-4.6-5.1c-0.6-0.4-1.2-0.8-2-1
		c-0.8-0.3-1.7-0.5-2.6-0.5c-0.4,0-0.9,0.1-1.3,0.2c-1.3,0.2-2.5,0.7-3.6,1.4c-0.5,0.3-1.1,0.7-1.5,1.2c-0.4,0.5-0.9,0.9-1.2,1.5
		c-0.5,0.8-0.9,1.7-1.1,2.7c-1.3,4.7,1.8,9.2,5.5,11.9c1,0.7,2.2,1.2,3.4,1.6c0.6,0.2,1.3,0.3,1.9,0.4c0.3,0,0.7,0.1,1,0.1
		c2.6-0.1,5.1-0.9,7.2-2.5c0.6-0.5,1.2-1,1.7-1.6c0.2-0.3,0.5-0.6,0.7-0.9c4.3-6,2.9-14.3-0.7-20.3c-0.5-0.9-1.1-1.7-1.7-2.5
		c-0.7-0.7-1.4-1.4-2.1-2.1c-1.7-1.5-3.6-2.7-5.6-3.6c-0.7-0.3-1.4-0.6-2.1-0.8c-0.6-0.2-1.1-0.4-1.7-0.5c-1.5-0.4-3.1-0.6-4.7-0.6
		c-0.5,0-1,0-1.6,0.1c-2.4,0.4-4.8,1-7,2c-3.7,1.6-7.1,4-9.6,7.2c-0.4,0.4-0.7,0.9-1,1.3c-1.8,2.7-3.1,5.7-3.8,8.8
		c-0.2,0.7-0.3,1.4-0.4,2.1c-0.2,1-0.3,2.1-0.3,3.2s0,2.2,0,3.4c0.1,1,0.2,2.1,0.4,3.1c0.1,0.8,0.3,1.5,0.4,2.2
		c0.1,0.4,0.2,0.8,0.3,1.2c0.7,2.4,1.8,4.7,3.1,6.7c0.3,0.5,0.7,1,1,1.5c1.1,1.5,2.3,2.9,3.7,4.2c0.9,0.9,1.8,1.7,2.8,2.5
		s2,1.5,3,2.2c0.5,0.3,1,0.7,1.5,1c1.4,0.9,2.8,1.7,4.2,2.5c0.2,0.1,0.4,0.2,0.6,0.4c6.7,1.2,13.6,2.7,20.3,0.9
		c10-2.1,18.4-9.4,22.8-18.5C251.2,55.9,251.5,41,246.8,28z"/>
	<path fill="#D9D9D9" d="M170,42c0.5-2.7,1.3-5.3,2.3-7.9C148.7,34,125,34,101.3,34c-7.9,0-15.8,0-23.7,0.1c1.1,2.7,2,5.4,2.6,8.3
		c0.1,0.6,0.2,1.1,0.3,1.7c0.1,0.6,0.2,1.3,0.3,1.9c1.1,7.5,0.5,15.1-2.2,22.3c1.7,0.2,3.4,0.3,5.1,0.4c1.7,0.1,3.4,0.1,5.1,0.1
		c1.7,0,3.4,0,5.1,0c1.7,0,3.4,0,5.1,0.1c24.1-0.2,48.1,0.1,72.2,0c-0.8-2.8-1.3-5.7-1.7-8.6c-0.2-1.5-0.3-2.9-0.4-4.4
		c0-0.7-0.1-1.5-0.1-2.2c-0.1-2.9,0.1-5.9,0.5-8.8C169.7,43.9,169.8,42.9,170,42z"/>
	<path fill="#D9D9D9" d="M183.3,85.7c-2,0-4,0-6.2,0h0c-2.2,0-4.5,0-6.9,0c-0.8,0-1.6,0-2.4,0h0c-1.6,0-3.3,0-5.1,0
		c-5.2,0-10.6,0-16.3,0c-1.9,0-3.8,0-5.7,0c-1.9,0-3.8,0-5.8,0c-1,0-1.9,0-2.9,0c-1.9,0-3.9,0-5.9,0h0c-2.9,0-5.9,0-8.8,0
		c-4.9,0-9.7,0-14.4,0c-1.9,0-3.8,0-5.6,0c-0.9,0-1.8,0-2.8,0c-1.8,0-3.6,0-5.4,0h0c-7.1,0-13.6,0-19.3,0c-1.4,0-2.8,0-4.1,0
		c-5.9,0-10.7,0-13.9,0c-0.3,0.1-0.5,0.3-0.8,0.4c-4.6,2.3-8.7,6.5-8.7,11.9c-0.6,7,5.4,13.3,12.3,13.5c23.5,0,46.9,0,70.4,0
		c23.4,0,46.9,0,70.3,0.1c6.9-0.3,13-6.5,12.5-13.5c0-5.9-4.8-10.5-10-12.3c-0.1,0-0.1,0-0.2,0c-2.4,0-6,0-10.6,0
		C185.8,85.7,184.6,85.7,183.3,85.7z"/>
	<path fill="#D9D9D9" d="M48.2,472.1c0,0,0.1,0,0.1,0c2.1,0,4.1,0.1,6.2,0.1c0,0,0.1,0,0.1,0c0.3,0,0.5,0,0.7,0c0,0,0.1,0,0.1,0
		c4.7-0.1,9.4-0.1,14.1-0.1c0,0,0,0,0,0c0,0,0,0,0.1,0c0,0,0,0,0,0c1.7,0,3.3,0,5,0c6.4,0,12.8,0,19.2,0c12.8,0,25.6,0,38.4,0
		c12.8,0,25.6,0,38.4,0c12.8,0,25.5,0,38.3-0.1c-1.6-6.7-7.1-11.7-13.7-13.4c0,0,0,0-0.1,0c-3-0.5-6.2-0.6-9.3-0.6
		c-1.6,0-3.1,0-4.7,0.1c-1.6,0.1-3.1,0.1-4.7,0.2c-40.6,0.1-81.3-0.2-122,0.2c-6.7,1.7-11.2,7.4-13.7,13.5c0,0,0.1,0,0.1,0
		C43.3,472,45.8,472.1,48.2,472.1z"/>
	<path fill="#EBEBEB" d="M216.6,485.8c0.4,0,0.6,0,0.6,0c0.1,0,0.2,0,0.2,0c4.5-1.5,6.2-7.4,3.2-10.9c-2.7-3.6-7.6-2.7-11.5-2.8
		c-12.8,0-25.6,0-38.4,0c0,0,0,0,0,0c-12.8,0-25.6,0-38.4,0c-12.8,0-25.6,0-38.4,0c-6.4,0-12.8,0-19.2,0c-1.7,0-3.3,0-5,0
		c0,0,0,0,0,0c0,0-0.1,0-0.1,0c-4.7,0-9.4,0-14.1,0.1c0,0,0,0,0,0c0,0-0.1,0-0.1,0c-0.2,0-0.4,0-0.7,0c0,0-0.1,0-0.1,0
		c-2.1,0-4.1,0-6.2-0.1c0,0-0.1,0-0.1,0c-2.4,0-4.9-0.1-7.3-0.1c0,0-0.1,0-0.1,0c-2.9,0-5.8-0.2-8.6,0.8c-3.8,1.4-4.9,6.2-3.4,9.9
		c1.1,2.5,2.6,3.3,3.5,3.6c0.4,0,0.7,0,0.7,0S205.6,485.7,216.6,485.8z"/>
	<path fill="#D7D7DA" d="M217.4,485.8c-0.1,0-0.2,0-0.2,0c0,0-0.2,0-0.6,0c-11-0.1-183.6,0.5-183.6,0.5s-0.3,0-0.7,0
		c-1.3,0-4.1-0.1-5.6,0.3c-3.5,0.9-5.6,5.1-4.5,8.5c0.1,0.2,0.2,0.4,0.3,0.6c1.5,2.6,4.4,4.1,7.4,4.2c8.3,0,16.6,0,24.8,0.1
		c5,0,10,0,15.1,0c3.9,0,7.6,0,11.5,0h0.1h12.5c0,0,0.1,0,0.1,0h11.5h12.4h11.8H142h11.8c4.1,0,8.1,0,12.2,0c4,0,7.9,0,11.9,0h17.4
		c7.8,0,15.6,0,23.4,0c2.5-0.1,5.4,0,7.2-1.9c2.5-2.3,2.9-6.4,0.9-9.1C224.8,485.9,220.6,486.5,217.4,485.8z"/>
	<path fill="#EBEBEB" d="M54.7,111.5c0,37.1,0,136.6,0,257.5h-0.1c0,40.8,0,72,0,89.4c40.6-0.4,81.3-0.1,122-0.2
		c1.6-0.1,3.1-0.1,4.7-0.2c1.6-0.1,3.1-0.1,4.7-0.1c3.1,0,6.3,0.2,9.4,0.6c0,0,0,0,0.1,0c0-68.2,0-117.7,0-128c0-0.4,0-1.3,0-1.8
		c-0.1-72.3-0.2-144.7-0.1-217.1c0,0-0.1,0-0.1,0c-23.4-0.1-46.9-0.1-70.3-0.1C101.6,111.5,78.1,111.5,54.7,111.5z M169.4,127.9
		c0-3.3,2.7-6,6-6s6,2.7,6,6v316.2c0,3.3-2.7,6-6,6s-6-2.7-6-6V127.9z M80.6,444.1c0,3.3-2.7,6-6,6s-6-2.7-6-6V127.9
		c0-3.3,2.7-6,6-6s6,2.7,6,6V444.1z M105.8,444.1c0,3.3-2.7,6-6,6s-6-2.7-6-6V127.9c0-3.3,2.7-6,6-6s6,2.7,6,6V444.1z M144.2,127.9
		c0-3.3,2.7-6,6-6s6,2.7,6,6v316.2c0,3.3-2.7,6-6,6s-6-2.7-6-6V127.9z M131,127.9v316.2c0,3.3-2.7,6-6,6s-6-2.7-6-6V127.9
		c0-3.3,2.7-6,6-6S131,124.6,131,127.9z"/>
	<path fill="#C4C4C4" d="M74.6,121.9c-3.3,0-6,2.7-6,6v316.2c0,3.3,2.7,6,6,6s6-2.7,6-6V127.9C80.6,124.6,77.9,121.9,74.6,121.9z"/>
	<path fill="#C4C4C4" d="M99.8,121.9c-3.3,0-6,2.7-6,6v316.2c0,3.3,2.7,6,6,6s6-2.7,6-6V127.9C105.8,124.6,103.1,121.9,99.8,121.9z"
		/>
	<path fill="#C4C4C4" d="M119,127.9v316.2c0,3.3,2.7,6,6,6s6-2.7,6-6V127.9c0-3.3-2.7-6-6-6S119,124.6,119,127.9z"/>
	<path fill="#C4C4C4" d="M150.2,450.1c3.3,0,6-2.7,6-6V127.9c0-3.3-2.7-6-6-6s-6,2.7-6,6v316.2C144.2,447.4,146.9,450.1,150.2,450.1
		z"/>
	<path fill="#C4C4C4" d="M175.4,450.1c3.3,0,6-2.7,6-6V127.9c0-3.3-2.7-6-6-6s-6,2.7-6,6v316.2C169.4,447.4,172.1,450.1,175.4,450.1
		z"/>
</g>
</svg>
