<?xml version="1.0" encoding="utf-8"?>
<!-- Generator: Adobe Illustrator 22.0.1, SVG Export Plug-In . SVG Version: 6.00 Build 0)  -->
<svg version="1.1" id="Layer_5" xmlns="http://www.w3.org/2000/svg" xmlns:xlink="http://www.w3.org/1999/xlink" x="0px" y="0px"
	 viewBox="0 0 144 144" style="enable-background:new 0 0 144 144;" xml:space="preserve">
<style type="text/css">
	.st0{fill:#153E35;}
	.st1{fill:#00594E;}
	.st2{fill:#C8A977;}
	.st3{fill:#101820;}
	.st4{fill:#C8C8C8;}
	.st5{fill:#D9D8D6;}
</style>
<g>
	<path class="st0" d="M142,38.8L142,38.8V17.6v-0.1v-0.2L142,2H2v11.3v6.5v14.4v5.5v36.7h7.2v36H2V142h0v-7.2l7.2,7.2H45v-10.8H21.6
		c-4,0-7.2-3.2-7.2-7.2v-17.2c0-1.4-1.2-2.6-2.6-2.6h0c-1.4,0-2.6-1.2-2.6-2.6V52.8c0-1.4,1.2-2.6,2.6-2.6c1.4,0,2.6-1.2,2.6-2.6
		V21.2c0-4,3.2-7.2,7.2-7.2h100.8c4,0,7.2,3.2,7.2,7.2v26.4c0,1.4,1.2,2.6,2.6,2.6h0c1.4,0,2.6,1.2,2.6,2.6v48.8
		c0,1.4-1.2,2.6-2.6,2.6h0c-1.4,0-2.6,1.2-2.6,2.6V124c0,4-3.2,7.2-7.2,7.2H99V142h43L142,38.8z M5.7,9.3c-2,0-3.6-1.6-3.6-3.6
		s1.6-3.6,3.6-3.6s3.6,1.6,3.6,3.6S7.7,9.3,5.7,9.3z M18.4,3.8c0-1,0.8-1.8,1.8-1.8c1,0,1.8,0.8,1.8,1.8c0,1-0.8,1.8-1.8,1.8
		C19.2,5.6,18.4,4.8,18.4,3.8z M22.2,9.2c-1,0-1.8-0.8-1.8-1.8c0-1,0.8-1.8,1.8-1.8c1,0,1.8,0.8,1.8,1.8C24,8.4,23.2,9.2,22.2,9.2z
		 M22.4,3.8c0-1,0.8-1.8,1.8-1.8S26,2.8,26,3.8c0,1-0.8,1.8-1.8,1.8S22.4,4.8,22.4,3.8z M26.2,9.2c-1,0-1.8-0.8-1.8-1.8
		c0-1,0.8-1.8,1.8-1.8c1,0,1.8,0.8,1.8,1.8C28,8.4,27.2,9.2,26.2,9.2z M26.4,3.8c0-1,0.8-1.8,1.8-1.8c1,0,1.8,0.8,1.8,1.8
		c0,1-0.8,1.8-1.8,1.8C27.2,5.6,26.4,4.8,26.4,3.8z M30.1,9.2c-1,0-1.8-0.8-1.8-1.8c0-1,0.8-1.8,1.8-1.8s1.8,0.8,1.8,1.8
		C31.9,8.4,31.1,9.2,30.1,9.2z M30.3,3.8c0-1,0.8-1.8,1.8-1.8c1,0,1.8,0.8,1.8,1.8c0,1-0.8,1.8-1.8,1.8C31.1,5.6,30.3,4.8,30.3,3.8z
		 M34.1,9.2c-1,0-1.8-0.8-1.8-1.8c0-1,0.8-1.8,1.8-1.8c1,0,1.8,0.8,1.8,1.8C35.9,8.4,35.1,9.2,34.1,9.2z M34.3,3.8
		c0-1,0.8-1.8,1.8-1.8c1,0,1.8,0.8,1.8,1.8c0,1-0.8,1.8-1.8,1.8C35.1,5.6,34.3,4.8,34.3,3.8z M38.1,9.2c-1,0-1.8-0.8-1.8-1.8
		c0-1,0.8-1.8,1.8-1.8c1,0,1.8,0.8,1.8,1.8C39.9,8.4,39,9.2,38.1,9.2z M38.2,3.8C38.2,2.8,39,2,40,2c1,0,1.8,0.8,1.8,1.8
		c0,1-0.8,1.8-1.8,1.8C39,5.6,38.2,4.8,38.2,3.8z M42,9.2c-1,0-1.8-0.8-1.8-1.8c0-1,0.8-1.8,1.8-1.8c1,0,1.8,0.8,1.8,1.8
		C43.8,8.4,43,9.2,42,9.2z M42.2,3.8C42.2,2.8,43,2,44,2c1,0,1.8,0.8,1.8,1.8c0,1-0.8,1.8-1.8,1.8C43,5.6,42.2,4.8,42.2,3.8z
		 M46,9.2c-1,0-1.8-0.8-1.8-1.8c0-1,0.8-1.8,1.8-1.8c1,0,1.8,0.8,1.8,1.8C47.8,8.4,47,9.2,46,9.2z M46.2,3.8C46.2,2.8,47,2,48,2
		c1,0,1.8,0.8,1.8,1.8c0,1-0.8,1.8-1.8,1.8C47,5.6,46.2,4.8,46.2,3.8z M49.9,9.2c-1,0-1.8-0.8-1.8-1.8c0-1,0.8-1.8,1.8-1.8
		c1,0,1.8,0.8,1.8,1.8C51.7,8.4,50.9,9.2,49.9,9.2z M50.1,3.8c0-1,0.8-1.8,1.8-1.8c1,0,1.8,0.8,1.8,1.8c0,1-0.8,1.8-1.8,1.8
		C50.9,5.6,50.1,4.8,50.1,3.8z M53.9,9.2c-1,0-1.8-0.8-1.8-1.8c0-1,0.8-1.8,1.8-1.8c1,0,1.8,0.8,1.8,1.8C55.7,8.4,54.9,9.2,53.9,9.2
		z M54.1,3.8c0-1,0.8-1.8,1.8-1.8c1,0,1.8,0.8,1.8,1.8c0,1-0.8,1.8-1.8,1.8C54.9,5.6,54.1,4.8,54.1,3.8z M57.9,9.2
		c-1,0-1.8-0.8-1.8-1.8c0-1,0.8-1.8,1.8-1.8c1,0,1.8,0.8,1.8,1.8C59.7,8.4,58.8,9.2,57.9,9.2z M58,3.8c0-1,0.8-1.8,1.8-1.8
		c1,0,1.8,0.8,1.8,1.8c0,1-0.8,1.8-1.8,1.8C58.8,5.6,58,4.8,58,3.8z M61.8,9.2c-1,0-1.8-0.8-1.8-1.8c0-1,0.8-1.8,1.8-1.8
		c1,0,1.8,0.8,1.8,1.8C63.6,8.4,62.8,9.2,61.8,9.2z M62,3.8c0-1,0.8-1.8,1.8-1.8c1,0,1.8,0.8,1.8,1.8c0,1-0.8,1.8-1.8,1.8
		C62.8,5.6,62,4.8,62,3.8z M65.8,9.2c-1,0-1.8-0.8-1.8-1.8c0-1,0.8-1.8,1.8-1.8c1,0,1.8,0.8,1.8,1.8C67.6,8.4,66.8,9.2,65.8,9.2z
		 M66,3.8c0-1,0.8-1.8,1.8-1.8c1,0,1.8,0.8,1.8,1.8c0,1-0.8,1.8-1.8,1.8C66.8,5.6,66,4.8,66,3.8z M69.7,9.2c-1,0-1.8-0.8-1.8-1.8
		c0-1,0.8-1.8,1.8-1.8c1,0,1.8,0.8,1.8,1.8C71.5,8.4,70.7,9.2,69.7,9.2z M69.9,3.8c0-1,0.8-1.8,1.8-1.8c1,0,1.8,0.8,1.8,1.8
		c0,1-0.8,1.8-1.8,1.8C70.7,5.6,69.9,4.8,69.9,3.8z M73.7,9.2c-1,0-1.8-0.8-1.8-1.8c0-1,0.8-1.8,1.8-1.8s1.8,0.8,1.8,1.8
		C75.5,8.4,74.7,9.2,73.7,9.2z M140.1,2.2c1,0,1.8,0.8,1.8,1.8c0,1-0.8,1.8-1.8,1.8c-1,0-1.8-0.8-1.8-1.8
		C138.3,3,139.1,2.2,140.1,2.2z M140,31.7c1,0,1.8,0.8,1.8,1.8c0,1-0.8,1.8-1.8,1.8c-1,0-1.8-0.8-1.8-1.8
		C138.2,32.5,139,31.7,140,31.7z M136.4,33.7c1,0,1.8,0.8,1.8,1.8c0,1-0.8,1.8-1.8,1.8c-1,0-1.8-0.8-1.8-1.8
		C134.6,34.5,135.4,33.7,136.4,33.7z M136.4,41.2c-1,0-1.8-0.8-1.8-1.8c0-1,0.8-1.8,1.8-1.8c1,0,1.8,0.8,1.8,1.8
		C138.2,40.4,137.4,41.2,136.4,41.2z M140,35.7c1,0,1.8,0.8,1.8,1.8c0,1-0.8,1.8-1.8,1.8c-1,0-1.8-0.8-1.8-1.8
		C138.2,36.5,139,35.7,140,35.7z M140.1,141.9c-1,0-1.8-0.8-1.8-1.8c0-1,0.8-1.8,1.8-1.8c1,0,1.8,0.8,1.8,1.8
		C141.9,141.1,141.1,141.9,140.1,141.9z"/>
	<path class="st1" d="M144,38.7V17.6c0-0.1,0-0.2,0-0.3c0-3.4,0-17.2,0-17.2H0v13.3v6.5v14.4v5.5V144h144C144,144,144,55.6,144,38.7
		C144,38.7,144,38.7,144,38.7z M99,142H45v0H9.2l0,0H2v0h0v-29.6h7.2v-36H2V39.7v-5.5V19.8v-6.5V2h140l0,15.2v0.2v0.1v21.1v0.1
		l0,103.2L99,142L99,142z"/>
	<path class="st2" d="M5.7,2.1c-2,0-3.6,1.6-3.6,3.6s1.6,3.6,3.6,3.6s3.6-1.6,3.6-3.6S7.7,2.1,5.7,2.1z"/>
	<polygon class="st2" points="2,142 2,142 9.2,142 9.2,142 2,134.8 	"/>
	<path class="st2" d="M22,3.8c0-1-0.8-1.8-1.8-1.8c-1,0-1.8,0.8-1.8,1.8c0,1,0.8,1.8,1.8,1.8C21.2,5.6,22,4.8,22,3.8z"/>
	<path class="st2" d="M22.2,5.6c-1,0-1.8,0.8-1.8,1.8c0,1,0.8,1.8,1.8,1.8c1,0,1.8-0.8,1.8-1.8C24,6.4,23.2,5.6,22.2,5.6z"/>
	<circle class="st2" cx="24.2" cy="3.8" r="1.8"/>
	<path class="st2" d="M30,3.8c0-1-0.8-1.8-1.8-1.8c-1,0-1.8,0.8-1.8,1.8c0,1,0.8,1.8,1.8,1.8C29.1,5.6,30,4.8,30,3.8z"/>
	<path class="st2" d="M30.1,5.6c-1,0-1.8,0.8-1.8,1.8c0,1,0.8,1.8,1.8,1.8s1.8-0.8,1.8-1.8C31.9,6.4,31.1,5.6,30.1,5.6z"/>
	<path class="st2" d="M26.2,5.6c-1,0-1.8,0.8-1.8,1.8c0,1,0.8,1.8,1.8,1.8c1,0,1.8-0.8,1.8-1.8C28,6.4,27.2,5.6,26.2,5.6z"/>
	<path class="st2" d="M33.9,3.8c0-1-0.8-1.8-1.8-1.8c-1,0-1.8,0.8-1.8,1.8c0,1,0.8,1.8,1.8,1.8C33.1,5.6,33.9,4.8,33.9,3.8z"/>
	<path class="st2" d="M34.1,5.6c-1,0-1.8,0.8-1.8,1.8c0,1,0.8,1.8,1.8,1.8c1,0,1.8-0.8,1.8-1.8C35.9,6.4,35.1,5.6,34.1,5.6z"/>
	<circle class="st2" cx="36.1" cy="3.8" r="1.8"/>
	<path class="st2" d="M41.8,3.8C41.8,2.8,41,2,40,2c-1,0-1.8,0.8-1.8,1.8c0,1,0.8,1.8,1.8,1.8C41,5.6,41.8,4.8,41.8,3.8z"/>
	<path class="st2" d="M42,5.6c-1,0-1.8,0.8-1.8,1.8c0,1,0.8,1.8,1.8,1.8c1,0,1.8-0.8,1.8-1.8C43.8,6.4,43,5.6,42,5.6z"/>
	<path class="st2" d="M38.1,5.6c-1,0-1.8,0.8-1.8,1.8c0,1,0.8,1.8,1.8,1.8c1,0,1.8-0.8,1.8-1.8C39.9,6.4,39,5.6,38.1,5.6z"/>
	<circle class="st2" cx="44" cy="3.8" r="1.8"/>
	<path class="st2" d="M46,5.6c-1,0-1.8,0.8-1.8,1.8c0,1,0.8,1.8,1.8,1.8c1,0,1.8-0.8,1.8-1.8C47.8,6.4,47,5.6,46,5.6z"/>
	<circle class="st2" cx="48" cy="3.8" r="1.8"/>
	<path class="st2" d="M53.7,3.8c0-1-0.8-1.8-1.8-1.8c-1,0-1.8,0.8-1.8,1.8c0,1,0.8,1.8,1.8,1.8C52.9,5.6,53.7,4.8,53.7,3.8z"/>
	<path class="st2" d="M53.9,5.6c-1,0-1.8,0.8-1.8,1.8c0,1,0.8,1.8,1.8,1.8c1,0,1.8-0.8,1.8-1.8C55.7,6.4,54.9,5.6,53.9,5.6z"/>
	<path class="st2" d="M49.9,5.6c-1,0-1.8,0.8-1.8,1.8c0,1,0.8,1.8,1.8,1.8c1,0,1.8-0.8,1.8-1.8C51.7,6.4,50.9,5.6,49.9,5.6z"/>
	<circle class="st2" cx="55.9" cy="3.8" r="1.8"/>
	<path class="st2" d="M57.9,5.6c-1,0-1.8,0.8-1.8,1.8c0,1,0.8,1.8,1.8,1.8c1,0,1.8-0.8,1.8-1.8C59.7,6.4,58.8,5.6,57.9,5.6z"/>
	<circle class="st2" cx="59.8" cy="3.8" r="1.8"/>
	<path class="st2" d="M65.6,3.8c0-1-0.8-1.8-1.8-1.8c-1,0-1.8,0.8-1.8,1.8c0,1,0.8,1.8,1.8,1.8C64.8,5.6,65.6,4.8,65.6,3.8z"/>
	<path class="st3" d="M92.6,131.2c-1.4,0-2.6-1.2-2.6-2.6V126H54v2.6c0,1.4-1.2,2.6-2.6,2.6H45V142v0h54v0v-10.8H92.6z"/>
	<path class="st4" d="M54,128.6V126H25.2c-4,0-7.2-3.2-7.2-7.2V25.2c0-4,3.2-7.2,7.2-7.2h93.6c4,0,7.2,3.2,7.2,7.2v93.6
		c0,4-3.2,7.2-7.2,7.2H90v2.6c0,1.4,1.2,2.6,2.6,2.6H99h23.4c4,0,7.2-3.2,7.2-7.2v-17.2c0-1.4,1.2-2.6,2.6-2.6h0
		c1.4,0,2.6-1.2,2.6-2.6V52.8c0-1.4-1.2-2.6-2.6-2.6h0c-1.4,0-2.6-1.2-2.6-2.6V21.2c0-4-3.2-7.2-7.2-7.2H21.6c-4,0-7.2,3.2-7.2,7.2
		v26.4c0,1.4-1.2,2.6-2.6,2.6c-1.4,0-2.6,1.2-2.6,2.6v48.8c0,1.4,1.2,2.6,2.6,2.6h0c1.4,0,2.6,1.2,2.6,2.6V124c0,4,3.2,7.2,7.2,7.2
		H45h6.4C52.8,131.2,54,130,54,128.6z"/>
	<path class="st2" d="M65.8,5.6c-1,0-1.8,0.8-1.8,1.8c0,1,0.8,1.8,1.8,1.8c1,0,1.8-0.8,1.8-1.8C67.6,6.4,66.8,5.6,65.8,5.6z"/>
	<path class="st2" d="M61.8,5.6c-1,0-1.8,0.8-1.8,1.8c0,1,0.8,1.8,1.8,1.8c1,0,1.8-0.8,1.8-1.8C63.6,6.4,62.8,5.6,61.8,5.6z"/>
	<circle class="st2" cx="67.8" cy="3.8" r="1.8"/>
	<path class="st2" d="M69.7,5.6c-1,0-1.8,0.8-1.8,1.8c0,1,0.8,1.8,1.8,1.8c1,0,1.8-0.8,1.8-1.8C71.5,6.4,70.7,5.6,69.7,5.6z"/>
	<circle class="st2" cx="71.7" cy="3.8" r="1.8"/>
	<path class="st2" d="M73.7,5.6c-1,0-1.8,0.8-1.8,1.8c0,1,0.8,1.8,1.8,1.8s1.8-0.8,1.8-1.8C75.5,6.4,74.7,5.6,73.7,5.6z"/>
	<circle class="st2" cx="140.1" cy="4" r="1.8"/>
	<circle class="st2" cx="140.1" cy="140.1" r="1.8"/>
	<polygon class="st5" points="76.6,25.9 74.3,30 78.1,30.4 	"/>
	<path class="st5" d="M60.1,112.7l-0.7,2.9l2.7,0.6c1.2,0.3,2.1-0.1,2.4-1l0,0c0.2-0.9-0.4-1.6-1.8-1.9L60.1,112.7z"/>
	<path class="st5" d="M88.7,30.4L88.7,30.4c0.3-1-0.2-1.8-1.5-2.3l-2.5-0.8l-1.1,3.2l2.4,0.8C87.3,31.7,88.3,31.4,88.7,30.4z"/>
	<path class="st5" d="M118.8,126c4,0,7.2-3.2,7.2-7.2V25.2c0-4-3.2-7.2-7.2-7.2H25.2c-4,0-7.2,3.2-7.2,7.2v93.6c0,4,3.2,7.2,7.2,7.2
		H54h36H118.8z M50.9,69.2v-1.7h6.9v1.7h-2.5v6.6h-1.8v-6.6H50.9z M36,67.5c0,0,4.1-10.1,15.8-10.1c12.6,0,14.5,6.8,14.5,6.8l-2,0
		c0,0-3-5.2-13.4-5.2C40.1,59,36,67.5,36,67.5z M44.5,67.5v8.3h-1.8v-8.3H44.5z M65.4,115.5L65.4,115.5c-0.3,1.4-1.7,2-3.5,1.6
		l-3.6-0.9l1.9-8.2l3.5,0.8c0.9,0.2,1.6,0.7,2,1.2c0.3,0.4,0.3,0.9,0.2,1.4l0,0c-0.3,1.1-1,1.5-1.7,1.6
		C65,113.7,65.7,114.4,65.4,115.5z M108,75.8c0,0-3.3,10.8-17.8,10.8c-17.5,0-19.5-7.5-19.5-7.5l2,0c0,0,3,5.9,18.3,5.9
		C104.7,85,108,75.8,108,75.8z M92.6,75.8l3.6-8.4h1.7l3.6,8.4h-1.9l-2.5-6.2l-2.5,6.2H92.6z M78.6,117.8l-0.9,0.2l-1.8-8.2l0.9-0.2
		l3.9,3.8l2-5.1l0.9-0.2l1.8,8.2l-0.9,0.2l-1.4-6.7l-2.1,5l0,0l-3.9-3.8L78.6,117.8z M74.3,109.9l0,0.9l-2.8-0.1l-0.2,7.5l-1,0
		l0.2-7.5l-2.8-0.1l0-0.9L74.3,109.9z M101.5,36c8.6,7.9,13.9,19.3,13.9,31.9c0,17.7-10.7,33-25.9,39.7V107
		c15-6.7,25.4-21.8,25.4-39.2c0-12.4-5.3-23.6-13.7-31.4L101.5,36z M98.6,32.7l-0.4,0.7l-4.4-2.6l-1.4,2.5l4,2.3l-0.4,0.7l-4-2.3
		l-1.5,2.5l4.5,2.6L94.5,40l-5.3-3.1l4.2-7.3L98.6,32.7z M84.1,26.1l3.4,1.1c1,0.3,1.7,0.9,2,1.6c0.3,0.5,0.3,1.2,0.1,1.8l0,0
		c-0.4,1.3-1.6,1.8-2.9,1.6l1.4,4.1l-1.1-0.4l-1.3-3.9l-2.3-0.8l-1,3.1l-0.9-0.3L84.1,26.1z M82.7,67.4c1.2,0,2,0,2.9,0V69
		c-0.8,0-2.2,0-2.9,0c-0.9,0-1.1,0.4-1.1,0.9s0.2,0.9,1.8,0.9c1.7,0,2.6,1,2.6,2.5v0c0,1.6-1.3,2.6-3,2.6c-1.3,0-2.2,0-3.2,0v-1.6
		c0.8,0,2.3,0,3.2,0c1.1,0,1.2-0.5,1.2-1c0-0.4-0.1-0.9-1.7-0.9c-1.7,0-2.8-0.9-2.8-2.5v0C79.8,68.4,81,67.4,82.7,67.4z M76.3,24.8
		l0.9,0.1l3,8.8l-1-0.1l-0.8-2.3l-4.6-0.5l-1.2,2.1l-1-0.1L76.3,24.8z M70.7,67.5h2v8.3h-1.8v-5.4l-2.3,3.5h0l-2.3-3.5v5.4h-1.8
		v-8.3h1.3v0h0.7l2.2,3.5L70.7,67.5z M66.1,24.9l0.2,0.8l-5,1l0.6,2.8l4.5-0.9l0.2,0.8l-4.5,0.9l0.6,2.9l5.1-1l0.2,0.8l-6,1.2
		l-1.6-8.2L66.1,24.9z M46.5,31.8l5.2,5.2l-1-7.3l0.7-0.3l5.2,5.3l-0.9-7.3l0.9-0.4l1.1,8.9l-0.7,0.4L51.8,31l0.9,7.1L52,38.5
		l-6.4-6.3L46.5,31.8z M28.5,67.8c0-12.6,5.4-24,14-32l0.3,0.4C34.4,44.2,29,55.4,29,67.8c0,17.9,11,33.3,26.6,39.7v0.5
		C39.8,101.6,28.5,86,28.5,67.8z"/>
	<path class="st5" d="M63.4,109.7l-2.5-0.6l-0.7,2.8l2.4,0.6c1.1,0.3,2-0.1,2.2-1l0,0C65.1,110.6,64.6,110,63.4,109.7z"/>
	<rect x="42.6" y="67.5" class="st0" width="1.8" height="8.3"/>
	<polygon class="st0" points="55.2,75.8 55.2,69.2 57.7,69.2 57.7,67.5 50.9,67.5 50.9,69.2 53.4,69.2 53.4,75.8 	"/>
	<polygon class="st0" points="65.7,67.5 65.7,67.5 64.4,67.5 64.4,75.8 66.2,75.8 66.2,70.4 68.5,73.9 68.5,73.9 70.9,70.4 
		70.9,75.8 72.7,75.8 72.7,67.5 70.7,67.5 68.5,71 66.3,67.5 	"/>
	<path class="st0" d="M79.8,69.9c0,1.6,1.1,2.5,2.8,2.5c1.5,0,1.7,0.4,1.7,0.9c0,0.4-0.1,1-1.2,1c-0.9,0-2.4,0-3.2,0v1.6
		c1,0,1.9,0,3.2,0c1.8,0,3-0.9,3-2.6v0c0-1.4-0.9-2.5-2.6-2.5c-1.6,0-1.8-0.5-1.8-0.9s0.2-0.9,1.1-0.9c0.7,0,2.1,0,2.9,0v-1.6
		c-0.9,0-1.7,0-2.9,0C81,67.4,79.8,68.4,79.8,69.9L79.8,69.9z"/>
	<polygon class="st0" points="99.5,75.8 101.4,75.8 97.8,67.5 96.1,67.5 92.6,75.8 94.4,75.8 96.9,69.6 	"/>
	<path class="st0" d="M64.4,64.2l2,0c0,0-2-6.8-14.5-6.8C40.1,57.4,36,67.5,36,67.5S40.1,59,51,59C61.4,59,64.4,64.2,64.4,64.2z"/>
	<path class="st0" d="M72.7,79.1l-2,0c0,0,2,7.5,19.5,7.5c14.5,0,17.8-10.8,17.8-10.8S104.7,85,91,85C75.6,85,72.7,79.1,72.7,79.1z"
		/>
	<path class="st2" d="M140,35.3c1,0,1.8-0.8,1.8-1.8c0-1-0.8-1.8-1.8-1.8c-1,0-1.8,0.8-1.8,1.8C138.2,34.5,139,35.3,140,35.3z"/>
	<path class="st2" d="M136.4,37.3c1,0,1.8-0.8,1.8-1.8c0-1-0.8-1.8-1.8-1.8c-1,0-1.8,0.8-1.8,1.8C134.6,36.5,135.4,37.3,136.4,37.3z
		"/>
	<circle class="st2" cx="140" cy="37.5" r="1.8"/>
	<path class="st2" d="M136.4,37.6c-1,0-1.8,0.8-1.8,1.8c0,1,0.8,1.8,1.8,1.8c1,0,1.8-0.8,1.8-1.8C138.2,38.4,137.4,37.6,136.4,37.6z
		"/>
	<path class="st0" d="M65.9,111.6L65.9,111.6c0.1-0.5,0-1-0.2-1.5c-0.4-0.6-1-1-2-1.2l-3.5-0.8l-1.9,8.2l3.6,0.9
		c1.8,0.4,3.2-0.1,3.5-1.5l0,0c0.3-1.1-0.4-1.9-1.3-2.4C64.8,113,65.6,112.6,65.9,111.6z M64.5,115.3L64.5,115.3
		c-0.2,0.9-1.1,1.3-2.4,1l-2.7-0.6l0.7-2.9l2.6,0.6C64.1,113.7,64.7,114.4,64.5,115.3z M64.9,111.5L64.9,111.5c-0.2,1-1.1,1.3-2.2,1
		l-2.4-0.6l0.7-2.8l2.5,0.6C64.6,110,65.1,110.6,64.9,111.5z"/>
	<polygon class="st0" points="67.7,110.6 70.6,110.7 70.4,118.2 71.3,118.2 71.5,110.7 74.3,110.7 74.3,109.9 67.8,109.7 	"/>
	<polygon class="st0" points="81.2,114.9 83.2,109.9 84.7,116.5 85.6,116.3 83.8,108.1 82.9,108.3 80.9,113.5 76.9,109.6 76,109.8 
		77.7,118 78.6,117.8 77.2,111.2 81.1,114.9 	"/>
	<polygon class="st0" points="52.8,38.1 51.8,31 56.9,36.1 57.6,35.7 56.6,26.8 55.7,27.3 56.6,34.6 51.4,29.3 50.7,29.7 51.8,37 
		46.5,31.8 45.6,32.2 52,38.5 	"/>
	<polygon class="st0" points="67.7,33.2 67.6,32.3 62.5,33.3 61.9,30.4 66.4,29.5 66.2,28.7 61.7,29.6 61.2,26.8 66.2,25.8 
		66.1,24.9 60.1,26.1 61.7,34.3 	"/>
	<path class="st0" d="M73.8,30.8l4.6,0.5l0.8,2.3l1,0.1l-3-8.8l-0.9-0.1l-4.7,8l1,0.1L73.8,30.8z M76.6,25.9l1.5,4.5L74.3,30
		L76.6,25.9z"/>
	<path class="st0" d="M83.4,31.3l2.3,0.8l1.3,3.9l1.1,0.4l-1.4-4.1c1.3,0.2,2.5-0.3,2.9-1.6l0,0c0.2-0.6,0.2-1.3-0.1-1.8
		c-0.3-0.7-1-1.2-2-1.6l-3.4-1.1l-2.7,8l0.9,0.3L83.4,31.3z M84.7,27.2l2.5,0.8c1.3,0.4,1.8,1.3,1.5,2.3l0,0c-0.3,1-1.4,1.4-2.6,1
		l-2.4-0.8L84.7,27.2z"/>
	<polygon class="st0" points="94.5,40 94.9,39.3 90.4,36.7 91.9,34.1 95.9,36.4 96.3,35.7 92.3,33.4 93.8,30.9 98.2,33.5 98.6,32.7 
		93.4,29.7 89.2,36.9 	"/>
	<path class="st0" d="M55.7,107.6C40.1,101.1,29,85.8,29,67.8c0-12.4,5.3-23.7,13.8-31.5l-0.3-0.4c-8.6,7.9-14,19.3-14,32
		c0,18.2,11.2,33.8,27.1,40.3V107.6z"/>
	<path class="st0" d="M115,67.8c0,17.4-10.4,32.5-25.4,39.2v0.5c15.2-6.8,25.9-22,25.9-39.7c0-12.6-5.4-23.9-13.9-31.9l-0.3,0.4
		C109.7,44.3,115,55.5,115,67.8z"/>
</g>
</svg>
