<?xml version="1.0" encoding="utf-8"?>
<!-- Generator: Adobe Illustrator 22.0.1, SVG Export Plug-In . SVG Version: 6.00 Build 0)  -->
<svg version="1.1" id="WITM_Logo" xmlns="http://www.w3.org/2000/svg" xmlns:xlink="http://www.w3.org/1999/xlink" x="0px" y="0px"
	 viewBox="0 0 137.9 144" enable-background="new 0 0 137.9 144" xml:space="preserve">
<g>
	<path opacity="0.5" fill="#387BF4" d="M121.4,53.6c4.3,3.7,7.8,7.6,10.5,11.6c6.3-11.6,7.6-22.8,2.7-31.5
		c-3.1-5.4-8.4-9.1-15.1-11.3C122.9,30.6,123.5,41.5,121.4,53.6z"/>
	<path opacity="0.5" fill="#387BF4" d="M25.7,92.4c-5.6-3.7-10.4-7.7-14.4-11.9c-3.2,8.8-3.1,17.2,0.8,23.9c3,5.2,8.1,9,14.5,11.1
		C24.8,108.9,24.5,101,25.7,92.4z"/>
	<path opacity="0.5" fill="#00CCCC" d="M90,7.9c-4.6-3.4-9.6-5.4-14.9-5.4c-1.6,0-3.2,0.2-4.8,0.5c3.8,1.8,7.5,4.5,11.1,7.8
		C84.3,9.5,87.2,8.5,90,7.9z"/>
	<path opacity="0.5" fill="#00CCCC" d="M65.7,132c-3.3,1.4-6.5,2.5-9.6,3c5.6,5.7,12.1,9,19,9c6.6,0,12.9-3,18.4-8.4
		c-1.4,0.8-2.9,1.3-4.5,1.8C81.5,139.4,73.4,137.3,65.7,132z"/>
	<path opacity="0.5" fill="#890CB2" d="M100.9,20.3c6.9-0.3,13.2,0.3,18.6,2.1c-2.2-5.4-5.7-9.7-10.3-12.4
		C103.7,6.8,97.1,6.3,90,7.9C94,10.9,97.7,15.2,100.9,20.3z"/>
	<path opacity="0.5" fill="#890CB2" d="M26.6,115.6c2,7.6,6,13.6,11.9,17c5.1,3,11.2,3.7,17.7,2.5c-4.3-4.4-8.1-10.2-11.2-17.2
		C38.1,118.1,31.9,117.3,26.6,115.6z"/>
	<path opacity="0.5" fill="#387BF4" d="M45,117.8c-2.4-5.4-4.4-11.5-5.9-18c-4.8-2.3-9.3-4.7-13.4-7.4c-1.2,8.6-0.9,16.5,0.9,23.2
		C31.9,117.3,38.1,118.1,45,117.8z"/>
	<path opacity="0.5" fill="#890CB2" d="M45,117.8c-2.4-5.4-4.4-11.5-5.9-18c-4.8-2.3-9.3-4.7-13.4-7.4c-1.2,8.6-0.9,16.5,0.9,23.2
		C31.9,117.3,38.1,118.1,45,117.8z"/>
	<path opacity="0.5" fill="#387BF4" d="M100.9,20.3c4.3,7,7.8,15.7,10.1,25.5c3.8,2.4,7.4,5,10.5,7.7c2.1-12,1.5-22.9-1.9-31.2
		C114.1,20.7,107.8,20,100.9,20.3z"/>
	<path opacity="0.5" fill="#890CB2" d="M100.9,20.3c4.3,7,7.8,15.7,10.1,25.5c3.8,2.4,7.4,5,10.5,7.7c2.1-12,1.5-22.9-1.9-31.2
		C114.1,20.7,107.8,20,100.9,20.3z"/>
	<path opacity="0.5" fill="#00CCCC" d="M51.1,117.4c-2.1,0.2-4.1,0.4-6.1,0.5c3.1,6.9,6.9,12.8,11.2,17.2c3.1-0.6,6.3-1.6,9.6-3
		C60.6,128.4,55.6,123.5,51.1,117.4z"/>
	<path opacity="0.5" fill="#890CB2" d="M51.1,117.4c-2.1,0.2-4.1,0.4-6.1,0.5c3.1,6.9,6.9,12.8,11.2,17.2c3.1-0.6,6.3-1.6,9.6-3
		C60.6,128.4,55.6,123.5,51.1,117.4z"/>
	<path opacity="0.5" fill="#00CCCC" d="M90.8,21.5c3.5-0.6,6.8-1,10.1-1.2C97.7,15.2,94,10.9,90,7.9c-2.8,0.6-5.7,1.6-8.6,3
		C84.7,13.9,87.9,17.4,90.8,21.5z"/>
	<path opacity="0.5" fill="#890CB2" d="M90.8,21.5c3.5-0.6,6.8-1,10.1-1.2C97.7,15.2,94,10.9,90,7.9c-2.8,0.6-5.7,1.6-8.6,3
		C84.7,13.9,87.9,17.4,90.8,21.5z"/>
	<path opacity="0.5" fill="#387BF4" d="M111,45.8c-2.3-9.8-5.7-18.5-10.1-25.5c-3.2,0.2-6.6,0.5-10.1,1.2c4.1,5.5,7.8,12,10.9,19.1
		C105,42.3,108.1,44,111,45.8z"/>
	<path opacity="0.5" fill="#00CCCC" d="M111,45.8c-2.3-9.8-5.7-18.5-10.1-25.5c-3.2,0.2-6.6,0.5-10.1,1.2c4.1,5.5,7.8,12,10.9,19.1
		C105,42.3,108.1,44,111,45.8z"/>
	<path opacity="0.5" fill="#890CB2" d="M111,45.8c-2.3-9.8-5.7-18.5-10.1-25.5c-3.2,0.2-6.6,0.5-10.1,1.2c4.1,5.5,7.8,12,10.9,19.1
		C105,42.3,108.1,44,111,45.8z"/>
	<path opacity="0.5" fill="#387BF4" d="M39.1,99.8c1.5,6.5,3.4,12.6,5.9,18c2-0.1,4-0.2,6.1-0.5c-3.6-4.9-7-10.4-10-16.6
		C40.4,100.4,39.8,100.1,39.1,99.8z"/>
	<path opacity="0.5" fill="#00CCCC" d="M39.1,99.8c1.5,6.5,3.4,12.6,5.9,18c2-0.1,4-0.2,6.1-0.5c-3.6-4.9-7-10.4-10-16.6
		C40.4,100.4,39.8,100.1,39.1,99.8z"/>
	<path opacity="0.5" fill="#890CB2" d="M39.1,99.8c1.5,6.5,3.4,12.6,5.9,18c2-0.1,4-0.2,6.1-0.5c-3.6-4.9-7-10.4-10-16.6
		C40.4,100.4,39.8,100.1,39.1,99.8z"/>
	<path opacity="0.5" fill="#00CCCC" d="M131.9,65.2c-2.2,4.1-5.1,8.3-8.5,12.3c3.4,8.4,5.1,16.5,4.8,23.6c4.4-3.5,7.5-7.7,8.9-12.7
		C139.2,80.9,137.2,72.9,131.9,65.2z"/>
	<path opacity="0.5" fill="#00CCCC" d="M14.3,34.9C7.4,38.8,2.6,44.1,0.8,50.7c-2.7,9.6,1.5,20.2,10.5,29.9c1.9-5.4,5.1-11,9.2-16.6
		C15.7,53.5,13.5,43.4,14.3,34.9z"/>
	<path opacity="0.5" fill="#387BF4" d="M121.4,53.6c-0.7,4.3-1.8,8.7-3.3,13.2c2.1,3.6,3.8,7.2,5.3,10.8c3.4-4.1,6.3-8.2,8.5-12.3
		C129.2,61.2,125.7,57.3,121.4,53.6z"/>
	<path opacity="0.5" fill="#00CCCC" d="M121.4,53.6c-0.7,4.3-1.8,8.7-3.3,13.2c2.1,3.6,3.8,7.2,5.3,10.8c3.4-4.1,6.3-8.2,8.5-12.3
		C129.2,61.2,125.7,57.3,121.4,53.6z"/>
	<path opacity="0.5" fill="#387BF4" d="M25.7,92.4c0.6-4.5,1.6-9.3,3-14.1c-3.2-4.8-6-9.6-8.2-14.4c-4.2,5.5-7.3,11.1-9.2,16.6
		C15.2,84.7,20.1,88.7,25.7,92.4z"/>
	<path opacity="0.5" fill="#00CCCC" d="M25.7,92.4c0.6-4.5,1.6-9.3,3-14.1c-3.2-4.8-6-9.6-8.2-14.4c-4.2,5.5-7.3,11.1-9.2,16.6
		C15.2,84.7,20.1,88.7,25.7,92.4z"/>
	<path opacity="0.5" fill="#387BF4" d="M35.7,87.6c-2.5-3.1-4.9-6.2-7-9.3c-1.4,4.8-2.4,9.6-3,14.1c4.1,2.7,8.6,5.2,13.4,7.4
		c-0.5-2.1-0.9-4.3-1.2-6.4C37.1,91.5,36.4,89.6,35.7,87.6z"/>
	<path opacity="0.5" fill="#890CB2" d="M35.7,87.6c-2.5-3.1-4.9-6.2-7-9.3c-1.4,4.8-2.4,9.6-3,14.1c4.1,2.7,8.6,5.2,13.4,7.4
		c-0.5-2.1-0.9-4.3-1.2-6.4C37.1,91.5,36.4,89.6,35.7,87.6z"/>
	<path opacity="0.5" fill="#00CCCC" d="M35.7,87.6c-2.5-3.1-4.9-6.2-7-9.3c-1.4,4.8-2.4,9.6-3,14.1c4.1,2.7,8.6,5.2,13.4,7.4
		c-0.5-2.1-0.9-4.3-1.2-6.4C37.1,91.5,36.4,89.6,35.7,87.6z"/>
	<path opacity="0.5" fill="#387BF4" d="M118.2,66.7c1.4-4.5,2.5-8.9,3.3-13.2c-3.1-2.7-6.6-5.3-10.5-7.7c1,4.1,1.7,8.4,2.2,12.9
		C115,61.4,116.7,64.1,118.2,66.7z"/>
	<path opacity="0.5" fill="#890CB2" d="M118.2,66.7c1.4-4.5,2.5-8.9,3.3-13.2c-3.1-2.7-6.6-5.3-10.5-7.7c1,4.1,1.7,8.4,2.2,12.9
		C115,61.4,116.7,64.1,118.2,66.7z"/>
	<path opacity="0.5" fill="#00CCCC" d="M118.2,66.7c1.4-4.5,2.5-8.9,3.3-13.2c-3.1-2.7-6.6-5.3-10.5-7.7c1,4.1,1.7,8.4,2.2,12.9
		C115,61.4,116.7,64.1,118.2,66.7z"/>
	<path opacity="0.5" fill="#387BF4" d="M37.9,93.4c0.4,2.2,0.8,4.3,1.2,6.4c0.7,0.3,1.3,0.6,2,0.9C40,98.4,38.9,95.9,37.9,93.4z"/>
	<path opacity="0.5" fill="#00CCCC" d="M37.9,93.4c0.4,2.2,0.8,4.3,1.2,6.4c0.7,0.3,1.3,0.6,2,0.9C40,98.4,38.9,95.9,37.9,93.4z"/>
	<path opacity="0.5" fill="#890CB2" d="M37.9,93.4c0.4,2.2,0.8,4.3,1.2,6.4c0.7,0.3,1.3,0.6,2,0.9C40,98.4,38.9,95.9,37.9,93.4z"/>
	<path opacity="0.5" fill="#00CCCC" d="M37.9,93.4c0.4,2.2,0.8,4.3,1.2,6.4c0.7,0.3,1.3,0.6,2,0.9C40,98.4,38.9,95.9,37.9,93.4z"/>
	<path opacity="0.5" fill="#387BF4" d="M104.7,47.8c3.1,3.6,6,7.2,8.5,10.9c-0.5-4.5-1.3-8.8-2.2-12.9c-2.9-1.8-6-3.6-9.2-5.2
		C102.8,43,103.8,45.4,104.7,47.8z"/>
	<path opacity="0.5" fill="#00CCCC" d="M104.7,47.8c3.1,3.6,6,7.2,8.5,10.9c-0.5-4.5-1.3-8.8-2.2-12.9c-2.9-1.8-6-3.6-9.2-5.2
		C102.8,43,103.8,45.4,104.7,47.8z"/>
	<path opacity="0.5" fill="#890CB2" d="M104.7,47.8c3.1,3.6,6,7.2,8.5,10.9c-0.5-4.5-1.3-8.8-2.2-12.9c-2.9-1.8-6-3.6-9.2-5.2
		C102.8,43,103.8,45.4,104.7,47.8z"/>
	<path opacity="0.5" fill="#00CCCC" d="M104.7,47.8c3.1,3.6,6,7.2,8.5,10.9c-0.5-4.5-1.3-8.8-2.2-12.9c-2.9-1.8-6-3.6-9.2-5.2
		C102.8,43,103.8,45.4,104.7,47.8z"/>
	<path opacity="0.5" fill="#890CB2" d="M37.8,12c-6.7,0.5-12.4,2.7-16.6,7c-4.1,4.1-6.3,9.6-6.9,16c4.7-2.6,10.3-4.6,16.6-5.8
		C32.4,22.4,34.7,16.6,37.8,12z"/>
	<path opacity="0.5" fill="#890CB2" d="M103.7,126c7.1-0.3,13.2-2.6,17.6-7c4.5-4.5,6.8-10.7,7-17.9c-4.6,3.6-10.7,6.4-17.9,8.1
		C108.9,115.7,106.7,121.4,103.7,126z"/>
	<path opacity="0.5" fill="#00CCCC" d="M20.6,64c2.5-3.3,5.3-6.5,8.5-9.7c-0.5-9.1,0.1-17.7,1.8-25.1c-6.3,1.2-11.9,3.2-16.6,5.8
		C13.5,43.4,15.7,53.5,20.6,64z"/>
	<path opacity="0.5" fill="#890CB2" d="M20.6,64c2.5-3.3,5.3-6.5,8.5-9.7c-0.5-9.1,0.1-17.7,1.8-25.1c-6.3,1.2-11.9,3.2-16.6,5.8
		C13.5,43.4,15.7,53.5,20.6,64z"/>
	<path opacity="0.5" fill="#00CCCC" d="M123.4,77.5c-3,3.6-6.5,7.2-10.3,10.6c-0.2,1.8-0.5,3.6-0.8,5.4c-0.2,5.6-0.9,10.9-2,15.7
		c7.1-1.8,13.2-4.5,17.9-8.1C128.5,94,126.9,85.9,123.4,77.5z"/>
	<path opacity="0.5" fill="#890CB2" d="M123.4,77.5c-3,3.6-6.5,7.2-10.3,10.6c-0.2,1.8-0.5,3.6-0.8,5.4c-0.2,5.6-0.9,10.9-2,15.7
		c7.1-1.8,13.2-4.5,17.9-8.1C128.5,94,126.9,85.9,123.4,77.5z"/>
	<path opacity="0.5" fill="#387BF4" d="M29.1,54.2c-3.2,3.2-6,6.4-8.5,9.7c2.2,4.7,4.9,9.6,8.2,14.4c0.7-2.5,1.5-5,2.5-7.5
		C30.1,65.2,29.4,59.6,29.1,54.2z"/>
	<path opacity="0.5" fill="#00CCCC" d="M29.1,54.2c-3.2,3.2-6,6.4-8.5,9.7c2.2,4.7,4.9,9.6,8.2,14.4c0.7-2.5,1.5-5,2.5-7.5
		C30.1,65.2,29.4,59.6,29.1,54.2z"/>
	<path opacity="0.5" fill="#890CB2" d="M29.1,54.2c-3.2,3.2-6,6.4-8.5,9.7c2.2,4.7,4.9,9.6,8.2,14.4c0.7-2.5,1.5-5,2.5-7.5
		C30.1,65.2,29.4,59.6,29.1,54.2z"/>
	<path opacity="0.5" fill="#387BF4" d="M113.9,78c-0.1,3.4-0.4,6.8-0.8,10c3.8-3.4,7.3-7,10.3-10.6c-1.4-3.5-3.2-7.2-5.3-10.8
		C117,70.5,115.6,74.2,113.9,78z"/>
	<path opacity="0.5" fill="#00CCCC" d="M113.9,78c-0.1,3.4-0.4,6.8-0.8,10c3.8-3.4,7.3-7,10.3-10.6c-1.4-3.5-3.2-7.2-5.3-10.8
		C117,70.5,115.6,74.2,113.9,78z"/>
	<path opacity="0.5" fill="#890CB2" d="M113.9,78c-0.1,3.4-0.4,6.8-0.8,10c3.8-3.4,7.3-7,10.3-10.6c-1.4-3.5-3.2-7.2-5.3-10.8
		C117,70.5,115.6,74.2,113.9,78z"/>
	<path opacity="0.5" fill="#00CCCC" d="M112.4,93.5c0.3-1.8,0.5-3.6,0.8-5.4c-0.2,0.2-0.5,0.4-0.7,0.6
		C112.5,90.3,112.4,91.9,112.4,93.5z"/>
	<path opacity="0.5" fill="#00CCCC" d="M112.4,93.5c0.3-1.8,0.5-3.6,0.8-5.4c-0.2,0.2-0.5,0.4-0.7,0.6
		C112.5,90.3,112.4,91.9,112.4,93.5z"/>
	<path opacity="0.5" fill="#890CB2" d="M112.4,93.5c0.3-1.8,0.5-3.6,0.8-5.4c-0.2,0.2-0.5,0.4-0.7,0.6
		C112.5,90.3,112.4,91.9,112.4,93.5z"/>
	<path opacity="0.5" fill="#387BF4" d="M112.2,81.9c0.2,2.3,0.3,4.6,0.3,6.8c0.2-0.2,0.5-0.4,0.7-0.6c0.4-3.3,0.6-6.6,0.8-10
		C113.4,79.3,112.8,80.6,112.2,81.9z"/>
	<path opacity="0.5" fill="#00CCCC" d="M112.2,81.9c0.2,2.3,0.3,4.6,0.3,6.8c0.2-0.2,0.5-0.4,0.7-0.6c0.4-3.3,0.6-6.6,0.8-10
		C113.4,79.3,112.8,80.6,112.2,81.9z"/>
	<path opacity="0.5" fill="#00CCCC" d="M112.2,81.9c0.2,2.3,0.3,4.6,0.3,6.8c0.2-0.2,0.5-0.4,0.7-0.6c0.4-3.3,0.6-6.6,0.8-10
		C113.4,79.3,112.8,80.6,112.2,81.9z"/>
	<path opacity="0.5" fill="#890CB2" d="M112.2,81.9c0.2,2.3,0.3,4.6,0.3,6.8c0.2-0.2,0.5-0.4,0.7-0.6c0.4-3.3,0.6-6.6,0.8-10
		C113.4,79.3,112.8,80.6,112.2,81.9z"/>
	<path opacity="0.5" fill="#387BF4" d="M114,73.3c0,1.6,0,3.2-0.1,4.8c1.7-3.8,3.1-7.6,4.3-11.3c-1.5-2.7-3.2-5.3-5-8
		C113.7,63.4,114,68.3,114,73.3z"/>
	<path opacity="0.5" fill="#890CB2" d="M114,73.3c0,1.6,0,3.2-0.1,4.8c1.7-3.8,3.1-7.6,4.3-11.3c-1.5-2.7-3.2-5.3-5-8
		C113.7,63.4,114,68.3,114,73.3z"/>
	<path opacity="0.5" fill="#00CCCC" d="M114,73.3c0,1.6,0,3.2-0.1,4.8c1.7-3.8,3.1-7.6,4.3-11.3c-1.5-2.7-3.2-5.3-5-8
		C113.7,63.4,114,68.3,114,73.3z"/>
	<path opacity="0.5" fill="#890CB2" d="M114,73.3c0,1.6,0,3.2-0.1,4.8c1.7-3.8,3.1-7.6,4.3-11.3c-1.5-2.7-3.2-5.3-5-8
		C113.7,63.4,114,68.3,114,73.3z"/>
	<path opacity="0.5" fill="#387BF4" d="M33.1,79.1c-0.7-2.8-1.4-5.5-1.9-8.3c-0.9,2.5-1.8,5-2.5,7.5c2.1,3.1,4.5,6.2,7,9.3
		C34.8,84.9,33.9,82,33.1,79.1z"/>
	<path opacity="0.5" fill="#890CB2" d="M33.1,79.1c-0.7-2.8-1.4-5.5-1.9-8.3c-0.9,2.5-1.8,5-2.5,7.5c2.1,3.1,4.5,6.2,7,9.3
		C34.8,84.9,33.9,82,33.1,79.1z"/>
	<path opacity="0.5" fill="#00CCCC" d="M33.1,79.1c-0.7-2.8-1.4-5.5-1.9-8.3c-0.9,2.5-1.8,5-2.5,7.5c2.1,3.1,4.5,6.2,7,9.3
		C34.8,84.9,33.9,82,33.1,79.1z"/>
	<path opacity="0.5" fill="#890CB2" d="M33.1,79.1c-0.7-2.8-1.4-5.5-1.9-8.3c-0.9,2.5-1.8,5-2.5,7.5c2.1,3.1,4.5,6.2,7,9.3
		C34.8,84.9,33.9,82,33.1,79.1z"/>
	<path opacity="0.5" fill="#387BF4" d="M113.2,58.8c-2.5-3.7-5.4-7.3-8.5-10.9c1.3,3.6,2.5,7.3,3.5,11.2c2.1,7.8,3.4,15.5,3.9,22.9
		c0.6-1.3,1.2-2.6,1.8-3.8c0.1-1.6,0.1-3.2,0.1-4.8C114,68.3,113.7,63.4,113.2,58.8z"/>
	<path opacity="0.5" fill="#00CCCC" d="M113.2,58.8c-2.5-3.7-5.4-7.3-8.5-10.9c1.3,3.6,2.5,7.3,3.5,11.2c2.1,7.8,3.4,15.5,3.9,22.9
		c0.6-1.3,1.2-2.6,1.8-3.8c0.1-1.6,0.1-3.2,0.1-4.8C114,68.3,113.7,63.4,113.2,58.8z"/>
	<path opacity="0.5" fill="#890CB2" d="M113.2,58.8c-2.5-3.7-5.4-7.3-8.5-10.9c1.3,3.6,2.5,7.3,3.5,11.2c2.1,7.8,3.4,15.5,3.9,22.9
		c0.6-1.3,1.2-2.6,1.8-3.8c0.1-1.6,0.1-3.2,0.1-4.8C114,68.3,113.7,63.4,113.2,58.8z"/>
	<path opacity="0.5" fill="#00CCCC" d="M113.2,58.8c-2.5-3.7-5.4-7.3-8.5-10.9c1.3,3.6,2.5,7.3,3.5,11.2c2.1,7.8,3.4,15.5,3.9,22.9
		c0.6-1.3,1.2-2.6,1.8-3.8c0.1-1.6,0.1-3.2,0.1-4.8C114,68.3,113.7,63.4,113.2,58.8z"/>
	<path opacity="0.5" fill="#890CB2" d="M113.2,58.8c-2.5-3.7-5.4-7.3-8.5-10.9c1.3,3.6,2.5,7.3,3.5,11.2c2.1,7.8,3.4,15.5,3.9,22.9
		c0.6-1.3,1.2-2.6,1.8-3.8c0.1-1.6,0.1-3.2,0.1-4.8C114,68.3,113.7,63.4,113.2,58.8z"/>
	<path opacity="0.5" fill="#387BF4" d="M101,126c-2.3,3.7-4.8,7-7.5,9.6c4-2.1,7.4-5.4,10.2-9.7C102.8,126,101.9,126,101,126z"/>
	<path opacity="0.5" fill="#387BF4" d="M54.1,13.8c4.8-5.6,10.3-9.4,16.3-10.7c-6-3-12.2-3.9-18-2.3C46.5,2.3,41.6,6.3,37.8,12
		C42.8,11.6,48.3,12.2,54.1,13.8z"/>
	<path opacity="0.5" fill="#00CCCC" d="M54.1,13.8c4.5,1.2,9.2,3,13.9,5.3c4.5-3.5,9-6.2,13.4-8.2c-3.6-3.3-7.3-5.9-11.1-7.8
		C64.4,4.4,58.9,8.2,54.1,13.8z"/>
	<path opacity="0.5" fill="#387BF4" d="M54.1,13.8c4.5,1.2,9.2,3,13.9,5.3c4.5-3.5,9-6.2,13.4-8.2c-3.6-3.3-7.3-5.9-11.1-7.8
		C64.4,4.4,58.9,8.2,54.1,13.8z"/>
	<path opacity="0.5" fill="#00CCCC" d="M101,126c-6-0.1-12.5-1.5-19.4-4.1c-5.3,4.3-10.7,7.7-15.9,10.1c7.7,5.3,15.8,7.4,23.3,5.4
		c1.6-0.4,3.1-1,4.5-1.8C96.2,133,98.7,129.7,101,126z"/>
	<path opacity="0.5" fill="#387BF4" d="M101,126c-6-0.1-12.5-1.5-19.4-4.1c-5.3,4.3-10.7,7.7-15.9,10.1c7.7,5.3,15.8,7.4,23.3,5.4
		c1.6-0.4,3.1-1,4.5-1.8C96.2,133,98.7,129.7,101,126z"/>
	<path opacity="0.5" fill="#00CCCC" d="M90.8,21.5c-3-4.1-6.1-7.6-9.4-10.6c-4.4,2-9,4.8-13.4,8.2c3.3,1.6,6.6,3.5,10,5.6
		C82.3,23.3,86.7,22.2,90.8,21.5z"/>
	<path opacity="0.5" fill="#890CB2" d="M90.8,21.5c-3-4.1-6.1-7.6-9.4-10.6c-4.4,2-9,4.8-13.4,8.2c3.3,1.6,6.6,3.5,10,5.6
		C82.3,23.3,86.7,22.2,90.8,21.5z"/>
	<path opacity="0.5" fill="#387BF4" d="M90.8,21.5c-3-4.1-6.1-7.6-9.4-10.6c-4.4,2-9,4.8-13.4,8.2c3.3,1.6,6.6,3.5,10,5.6
		C82.3,23.3,86.7,22.2,90.8,21.5z"/>
	<path opacity="0.5" fill="#00CCCC" d="M51.1,117.4c4.6,6.1,9.5,11.1,14.7,14.6c5.3-2.3,10.7-5.7,15.9-10.1
		c-5.1-1.9-10.3-4.5-15.5-7.7C61,115.7,55.9,116.8,51.1,117.4z"/>
	<path opacity="0.5" fill="#890CB2" d="M51.1,117.4c4.6,6.1,9.5,11.1,14.7,14.6c5.3-2.3,10.7-5.7,15.9-10.1
		c-5.1-1.9-10.3-4.5-15.5-7.7C61,115.7,55.9,116.8,51.1,117.4z"/>
	<path opacity="0.5" fill="#387BF4" d="M51.1,117.4c4.6,6.1,9.5,11.1,14.7,14.6c5.3-2.3,10.7-5.7,15.9-10.1
		c-5.1-1.9-10.3-4.5-15.5-7.7C61,115.7,55.9,116.8,51.1,117.4z"/>
	<path opacity="0.5" fill="#387BF4" d="M54,105.6c-4.5-1.4-8.8-3.1-12.9-4.9c3,6.2,6.3,11.7,10,16.6c4.8-0.6,9.9-1.6,15.1-3.1
		C62.1,111.7,58,108.8,54,105.6z"/>
	<path opacity="0.5" fill="#00CCCC" d="M54,105.6c-4.5-1.4-8.8-3.1-12.9-4.9c3,6.2,6.3,11.7,10,16.6c4.8-0.6,9.9-1.6,15.1-3.1
		C62.1,111.7,58,108.8,54,105.6z"/>
	<path opacity="0.5" fill="#890CB2" d="M54,105.6c-4.5-1.4-8.8-3.1-12.9-4.9c3,6.2,6.3,11.7,10,16.6c4.8-0.6,9.9-1.6,15.1-3.1
		C62.1,111.7,58,108.8,54,105.6z"/>
	<path opacity="0.5" fill="#387BF4" d="M54,105.6c-4.5-1.4-8.8-3.1-12.9-4.9c3,6.2,6.3,11.7,10,16.6c4.8-0.6,9.9-1.6,15.1-3.1
		C62.1,111.7,58,108.8,54,105.6z"/>
	<path opacity="0.5" fill="#387BF4" d="M94.3,37.2c2.6,1.1,5.1,2.2,7.5,3.4c-3.2-7.2-6.9-13.6-10.9-19.1c-4.2,0.7-8.5,1.8-12.9,3.2
		C83.5,28.2,89,32.4,94.3,37.2z"/>
	<path opacity="0.5" fill="#00CCCC" d="M94.3,37.2c2.6,1.1,5.1,2.2,7.5,3.4c-3.2-7.2-6.9-13.6-10.9-19.1c-4.2,0.7-8.5,1.8-12.9,3.2
		C83.5,28.2,89,32.4,94.3,37.2z"/>
	<path opacity="0.5" fill="#890CB2" d="M94.3,37.2c2.6,1.1,5.1,2.2,7.5,3.4c-3.2-7.2-6.9-13.6-10.9-19.1c-4.2,0.7-8.5,1.8-12.9,3.2
		C83.5,28.2,89,32.4,94.3,37.2z"/>
	<path opacity="0.5" fill="#387BF4" d="M94.3,37.2c2.6,1.1,5.1,2.2,7.5,3.4c-3.2-7.2-6.9-13.6-10.9-19.1c-4.2,0.7-8.5,1.8-12.9,3.2
		C83.5,28.2,89,32.4,94.3,37.2z"/>
	<path opacity="0.5" fill="#387BF4" d="M35.7,87.6c0.7,2,1.4,3.9,2.1,5.8c-0.2-1.3-0.4-2.6-0.6-3.9C36.8,88.9,36.2,88.2,35.7,87.6z"
		/>
	<path opacity="0.5" fill="#890CB2" d="M35.7,87.6c0.7,2,1.4,3.9,2.1,5.8c-0.2-1.3-0.4-2.6-0.6-3.9C36.8,88.9,36.2,88.2,35.7,87.6z"
		/>
	<path opacity="0.5" fill="#00CCCC" d="M35.7,87.6c0.7,2,1.4,3.9,2.1,5.8c-0.2-1.3-0.4-2.6-0.6-3.9C36.8,88.9,36.2,88.2,35.7,87.6z"
		/>
	<path opacity="0.5" fill="#387BF4" d="M35.7,87.6c0.7,2,1.4,3.9,2.1,5.8c-0.2-1.3-0.4-2.6-0.6-3.9C36.8,88.9,36.2,88.2,35.7,87.6z"
		/>
	<path opacity="0.5" fill="#387BF4" d="M104.7,47.8c-0.9-2.5-1.9-4.9-2.9-7.2c-2.4-1.2-4.9-2.4-7.5-3.4c1.5,1.4,3,2.8,4.5,4.2
		C100.8,43.5,102.8,45.7,104.7,47.8z"/>
	<path opacity="0.5" fill="#00CCCC" d="M104.7,47.8c-0.9-2.5-1.9-4.9-2.9-7.2c-2.4-1.2-4.9-2.4-7.5-3.4c1.5,1.4,3,2.8,4.5,4.2
		C100.8,43.5,102.8,45.7,104.7,47.8z"/>
	<path opacity="0.5" fill="#890CB2" d="M104.7,47.8c-0.9-2.5-1.9-4.9-2.9-7.2c-2.4-1.2-4.9-2.4-7.5-3.4c1.5,1.4,3,2.8,4.5,4.2
		C100.8,43.5,102.8,45.7,104.7,47.8z"/>
	<path opacity="0.5" fill="#00CCCC" d="M104.7,47.8c-0.9-2.5-1.9-4.9-2.9-7.2c-2.4-1.2-4.9-2.4-7.5-3.4c1.5,1.4,3,2.8,4.5,4.2
		C100.8,43.5,102.8,45.7,104.7,47.8z"/>
	<path opacity="0.5" fill="#387BF4" d="M104.7,47.8c-0.9-2.5-1.9-4.9-2.9-7.2c-2.4-1.2-4.9-2.4-7.5-3.4c1.5,1.4,3,2.8,4.5,4.2
		C100.8,43.5,102.8,45.7,104.7,47.8z"/>
	<path opacity="0.5" fill="#387BF4" d="M37.3,89.5c0.2,1.3,0.4,2.6,0.6,3.9c1,2.5,2.1,5,3.2,7.4c4.1,1.8,8.4,3.4,12.9,4.9
		c-3.5-2.8-6.9-5.9-10.2-9.2C41.5,94.1,39.3,91.8,37.3,89.5z"/>
	<path opacity="0.5" fill="#00CCCC" d="M37.3,89.5c0.2,1.3,0.4,2.6,0.6,3.9c1,2.5,2.1,5,3.2,7.4c4.1,1.8,8.4,3.4,12.9,4.9
		c-3.5-2.8-6.9-5.9-10.2-9.2C41.5,94.1,39.3,91.8,37.3,89.5z"/>
	<path opacity="0.5" fill="#890CB2" d="M37.3,89.5c0.2,1.3,0.4,2.6,0.6,3.9c1,2.5,2.1,5,3.2,7.4c4.1,1.8,8.4,3.4,12.9,4.9
		c-3.5-2.8-6.9-5.9-10.2-9.2C41.5,94.1,39.3,91.8,37.3,89.5z"/>
	<path opacity="0.5" fill="#00CCCC" d="M37.3,89.5c0.2,1.3,0.4,2.6,0.6,3.9c1,2.5,2.1,5,3.2,7.4c4.1,1.8,8.4,3.4,12.9,4.9
		c-3.5-2.8-6.9-5.9-10.2-9.2C41.5,94.1,39.3,91.8,37.3,89.5z"/>
	<path opacity="0.5" fill="#387BF4" d="M37.3,89.5c0.2,1.3,0.4,2.6,0.6,3.9c1,2.5,2.1,5,3.2,7.4c4.1,1.8,8.4,3.4,12.9,4.9
		c-3.5-2.8-6.9-5.9-10.2-9.2C41.5,94.1,39.3,91.8,37.3,89.5z"/>
	<path opacity="0.5" fill="#890CB2" d="M45.5,27.6c2.5-5.3,5.4-10,8.6-13.8c-5.8-1.6-11.3-2.2-16.3-1.8c-3.1,4.7-5.4,10.5-6.9,17.1
		C35.4,28.2,40.3,27.7,45.5,27.6z"/>
	<path opacity="0.5" fill="#387BF4" d="M45.5,27.6c2.5-5.3,5.4-10,8.6-13.8c-5.8-1.6-11.3-2.2-16.3-1.8c-3.1,4.7-5.4,10.5-6.9,17.1
		C35.4,28.2,40.3,27.7,45.5,27.6z"/>
	<path opacity="0.5" fill="#890CB2" d="M108.5,109.7c-2,6.1-4.5,11.6-7.4,16.3c0.9,0,1.8,0,2.6,0c3-4.6,5.3-10.3,6.8-16.8
		C109.8,109.4,109.1,109.5,108.5,109.7z"/>
	<path opacity="0.5" fill="#387BF4" d="M108.5,109.7c-2,6.1-4.5,11.6-7.4,16.3c0.9,0,1.8,0,2.6,0c3-4.6,5.3-10.3,6.8-16.8
		C109.8,109.4,109.1,109.5,108.5,109.7z"/>
	<path opacity="0.5" fill="#00CCCC" d="M81.7,121.9c6.8,2.6,13.4,4,19.4,4.1c2.9-4.7,5.4-10.2,7.4-16.3c-4.9,1.1-10.3,1.7-15.9,1.8
		C89,115.4,85.4,118.9,81.7,121.9z"/>
	<path opacity="0.5" fill="#890CB2" d="M81.7,121.9c6.8,2.6,13.4,4,19.4,4.1c2.9-4.7,5.4-10.2,7.4-16.3c-4.9,1.1-10.3,1.7-15.9,1.8
		C89,115.4,85.4,118.9,81.7,121.9z"/>
	<path opacity="0.5" fill="#387BF4" d="M81.7,121.9c6.8,2.6,13.4,4,19.4,4.1c2.9-4.7,5.4-10.2,7.4-16.3c-4.9,1.1-10.3,1.7-15.9,1.8
		C89,115.4,85.4,118.9,81.7,121.9z"/>
	<path opacity="0.5" fill="#00CCCC" d="M58,28.1c3.3-3.4,6.6-6.4,10-9c-4.7-2.3-9.4-4.1-13.9-5.3c-3.2,3.8-6.1,8.5-8.6,13.8
		C49.5,27.5,53.7,27.7,58,28.1z"/>
	<path opacity="0.5" fill="#890CB2" d="M58,28.1c3.3-3.4,6.6-6.4,10-9c-4.7-2.3-9.4-4.1-13.9-5.3c-3.2,3.8-6.1,8.5-8.6,13.8
		C49.5,27.5,53.7,27.7,58,28.1z"/>
	<path opacity="0.5" fill="#387BF4" d="M58,28.1c3.3-3.4,6.6-6.4,10-9c-4.7-2.3-9.4-4.1-13.9-5.3c-3.2,3.8-6.1,8.5-8.6,13.8
		C49.5,27.5,53.7,27.7,58,28.1z"/>
	<path opacity="0.5" fill="#00CCCC" d="M92.5,111.5c-5.1,0.1-10.4-0.2-15.9-0.9c-3.5,1.4-7,2.6-10.4,3.6c5.2,3.2,10.4,5.8,15.5,7.7
		C85.4,118.9,89,115.4,92.5,111.5z"/>
	<path opacity="0.5" fill="#890CB2" d="M92.5,111.5c-5.1,0.1-10.4-0.2-15.9-0.9c-3.5,1.4-7,2.6-10.4,3.6c5.2,3.2,10.4,5.8,15.5,7.7
		C85.4,118.9,89,115.4,92.5,111.5z"/>
	<path opacity="0.5" fill="#890CB2" d="M92.5,111.5c-5.1,0.1-10.4-0.2-15.9-0.9c-3.5,1.4-7,2.6-10.4,3.6c5.2,3.2,10.4,5.8,15.5,7.7
		C85.4,118.9,89,115.4,92.5,111.5z"/>
	<path opacity="0.5" fill="#387BF4" d="M92.5,111.5c-5.1,0.1-10.4-0.2-15.9-0.9c-3.5,1.4-7,2.6-10.4,3.6c5.2,3.2,10.4,5.8,15.5,7.7
		C85.4,118.9,89,115.4,92.5,111.5z"/>
	<path opacity="0.5" fill="#00CCCC" d="M58,28.1c2.7,0.3,5.4,0.6,8.2,1.1c4-1.7,7.9-3.2,11.8-4.5c-3.3-2.1-6.7-4-10-5.6
		C64.6,21.7,61.2,24.7,58,28.1z"/>
	<path opacity="0.5" fill="#890CB2" d="M58,28.1c2.7,0.3,5.4,0.6,8.2,1.1c4-1.7,7.9-3.2,11.8-4.5c-3.3-2.1-6.7-4-10-5.6
		C64.6,21.7,61.2,24.7,58,28.1z"/>
	<path opacity="0.5" fill="#890CB2" d="M58,28.1c2.7,0.3,5.4,0.6,8.2,1.1c4-1.7,7.9-3.2,11.8-4.5c-3.3-2.1-6.7-4-10-5.6
		C64.6,21.7,61.2,24.7,58,28.1z"/>
	<path opacity="0.5" fill="#387BF4" d="M58,28.1c2.7,0.3,5.4,0.6,8.2,1.1c4-1.7,7.9-3.2,11.8-4.5c-3.3-2.1-6.7-4-10-5.6
		C64.6,21.7,61.2,24.7,58,28.1z"/>
	<path opacity="0.5" fill="#387BF4" d="M54,105.6c4,3.2,8.1,6.1,12.2,8.6c3.4-1,6.9-2.2,10.4-3.6c-5.9-0.7-11.9-1.9-18-3.6
		C57,106.6,55.5,106.1,54,105.6z"/>
	<path opacity="0.5" fill="#00CCCC" d="M54,105.6c4,3.2,8.1,6.1,12.2,8.6c3.4-1,6.9-2.2,10.4-3.6c-5.9-0.7-11.9-1.9-18-3.6
		C57,106.6,55.5,106.1,54,105.6z"/>
	<path opacity="0.5" fill="#890CB2" d="M54,105.6c4,3.2,8.1,6.1,12.2,8.6c3.4-1,6.9-2.2,10.4-3.6c-5.9-0.7-11.9-1.9-18-3.6
		C57,106.6,55.5,106.1,54,105.6z"/>
	<path opacity="0.5" fill="#890CB2" d="M54,105.6c4,3.2,8.1,6.1,12.2,8.6c3.4-1,6.9-2.2,10.4-3.6c-5.9-0.7-11.9-1.9-18-3.6
		C57,106.6,55.5,106.1,54,105.6z"/>
	<path opacity="0.5" fill="#387BF4" d="M54,105.6c4,3.2,8.1,6.1,12.2,8.6c3.4-1,6.9-2.2,10.4-3.6c-5.9-0.7-11.9-1.9-18-3.6
		C57,106.6,55.5,106.1,54,105.6z"/>
	<path opacity="0.5" fill="#387BF4" d="M94.3,37.2c-5.3-4.8-10.8-9-16.3-12.5c-3.9,1.2-7.8,2.7-11.8,4.5c4.3,0.7,8.7,1.7,13.1,2.9
		C84.5,33.5,89.5,35.2,94.3,37.2z"/>
	<path opacity="0.5" fill="#00CCCC" d="M94.3,37.2c-5.3-4.8-10.8-9-16.3-12.5c-3.9,1.2-7.8,2.7-11.8,4.5c4.3,0.7,8.7,1.7,13.1,2.9
		C84.5,33.5,89.5,35.2,94.3,37.2z"/>
	<path opacity="0.5" fill="#890CB2" d="M94.3,37.2c-5.3-4.8-10.8-9-16.3-12.5c-3.9,1.2-7.8,2.7-11.8,4.5c4.3,0.7,8.7,1.7,13.1,2.9
		C84.5,33.5,89.5,35.2,94.3,37.2z"/>
	<path opacity="0.5" fill="#890CB2" d="M94.3,37.2c-5.3-4.8-10.8-9-16.3-12.5c-3.9,1.2-7.8,2.7-11.8,4.5c4.3,0.7,8.7,1.7,13.1,2.9
		C84.5,33.5,89.5,35.2,94.3,37.2z"/>
	<path opacity="0.5" fill="#387BF4" d="M94.3,37.2c-5.3-4.8-10.8-9-16.3-12.5c-3.9,1.2-7.8,2.7-11.8,4.5c4.3,0.7,8.7,1.7,13.1,2.9
		C84.5,33.5,89.5,35.2,94.3,37.2z"/>
	<path opacity="0.5" fill="#00CCCC" d="M110.4,109.2c1.1-4.8,1.8-10.1,2-15.7c-0.9,5.7-2.3,11.2-3.9,16.2
		C109.1,109.5,109.8,109.4,110.4,109.2z"/>
	<path opacity="0.5" fill="#890CB2" d="M110.4,109.2c1.1-4.8,1.8-10.1,2-15.7c-0.9,5.7-2.3,11.2-3.9,16.2
		C109.1,109.5,109.8,109.4,110.4,109.2z"/>
	<path opacity="0.5" fill="#387BF4" d="M110.4,109.2c1.1-4.8,1.8-10.1,2-15.7c-0.9,5.7-2.3,11.2-3.9,16.2
		C109.1,109.5,109.8,109.4,110.4,109.2z"/>
	<path opacity="0.5" fill="#00CCCC" d="M45.5,27.6c-5.1,0.1-10,0.6-14.6,1.5c-1.7,7.5-2.3,16-1.8,25.1c3.2-3.1,6.6-6.2,10.4-9.1
		C41,38.7,43,32.8,45.5,27.6z"/>
	<path opacity="0.5" fill="#890CB2" d="M45.5,27.6c-5.1,0.1-10,0.6-14.6,1.5c-1.7,7.5-2.3,16-1.8,25.1c3.2-3.1,6.6-6.2,10.4-9.1
		C41,38.7,43,32.8,45.5,27.6z"/>
	<path opacity="0.5" fill="#387BF4" d="M45.5,27.6c-5.1,0.1-10,0.6-14.6,1.5c-1.7,7.5-2.3,16-1.8,25.1c3.2-3.1,6.6-6.2,10.4-9.1
		C41,38.7,43,32.8,45.5,27.6z"/>
	<path opacity="0.5" fill="#387BF4" d="M37.3,57.1c0.5-4.2,1.3-8.2,2.2-12.1c-3.8,2.9-7.3,6-10.4,9.1c0.3,5.4,1,10.9,2.1,16.6
		C32.9,66.3,34.9,61.7,37.3,57.1z"/>
	<path opacity="0.5" fill="#00CCCC" d="M37.3,57.1c0.5-4.2,1.3-8.2,2.2-12.1c-3.8,2.9-7.3,6-10.4,9.1c0.3,5.4,1,10.9,2.1,16.6
		C32.9,66.3,34.9,61.7,37.3,57.1z"/>
	<path opacity="0.5" fill="#890CB2" d="M37.3,57.1c0.5-4.2,1.3-8.2,2.2-12.1c-3.8,2.9-7.3,6-10.4,9.1c0.3,5.4,1,10.9,2.1,16.6
		C32.9,66.3,34.9,61.7,37.3,57.1z"/>
	<path opacity="0.5" fill="#387BF4" d="M37.3,57.1c0.5-4.2,1.3-8.2,2.2-12.1c-3.8,2.9-7.3,6-10.4,9.1c0.3,5.4,1,10.9,2.1,16.6
		C32.9,66.3,34.9,61.7,37.3,57.1z"/>
	<path opacity="0.5" fill="#00CCCC" d="M49.3,38.2c2.8-3.7,5.7-7,8.7-10.1c-4.3-0.4-8.5-0.6-12.5-0.5c-2.4,5.2-4.5,11.1-6,17.5
		C42.5,42.7,45.8,40.4,49.3,38.2z"/>
	<path opacity="0.5" fill="#00CCCC" d="M49.3,38.2c2.8-3.7,5.7-7,8.7-10.1c-4.3-0.4-8.5-0.6-12.5-0.5c-2.4,5.2-4.5,11.1-6,17.5
		C42.5,42.7,45.8,40.4,49.3,38.2z"/>
	<path opacity="0.5" fill="#890CB2" d="M49.3,38.2c2.8-3.7,5.7-7,8.7-10.1c-4.3-0.4-8.5-0.6-12.5-0.5c-2.4,5.2-4.5,11.1-6,17.5
		C42.5,42.7,45.8,40.4,49.3,38.2z"/>
	<path opacity="0.5" fill="#387BF4" d="M49.3,38.2c2.8-3.7,5.7-7,8.7-10.1c-4.3-0.4-8.5-0.6-12.5-0.5c-2.4,5.2-4.5,11.1-6,17.5
		C42.5,42.7,45.8,40.4,49.3,38.2z"/>
	<path opacity="0.5" fill="#00CCCC" d="M112.4,88.7c-2.3,2-4.7,4-7.3,5.9c-3.9,6.2-8.2,11.9-12.7,16.9c5.7-0.1,11-0.7,15.9-1.8
		c1.7-5,3-10.5,3.9-16.2C112.4,91.9,112.5,90.3,112.4,88.7z"/>
	<path opacity="0.5" fill="#00CCCC" d="M112.4,88.7c-2.3,2-4.7,4-7.3,5.9c-3.9,6.2-8.2,11.9-12.7,16.9c5.7-0.1,11-0.7,15.9-1.8
		c1.7-5,3-10.5,3.9-16.2C112.4,91.9,112.5,90.3,112.4,88.7z"/>
	<path opacity="0.5" fill="#890CB2" d="M112.4,88.7c-2.3,2-4.7,4-7.3,5.9c-3.9,6.2-8.2,11.9-12.7,16.9c5.7-0.1,11-0.7,15.9-1.8
		c1.7-5,3-10.5,3.9-16.2C112.4,91.9,112.5,90.3,112.4,88.7z"/>
	<path opacity="0.5" fill="#387BF4" d="M112.4,88.7c-2.3,2-4.7,4-7.3,5.9c-3.9,6.2-8.2,11.9-12.7,16.9c5.7-0.1,11-0.7,15.9-1.8
		c1.7-5,3-10.5,3.9-16.2C112.4,91.9,112.5,90.3,112.4,88.7z"/>
	<path opacity="0.5" fill="#387BF4" d="M49.3,38.2c-3.4,2.2-6.7,4.5-9.8,6.9c-0.9,3.9-1.7,7.9-2.2,12.1c0.9-1.8,1.9-3.5,2.9-5.3
		C43,47,46,42.4,49.3,38.2z"/>
	<path opacity="0.5" fill="#00CCCC" d="M49.3,38.2c-3.4,2.2-6.7,4.5-9.8,6.9c-0.9,3.9-1.7,7.9-2.2,12.1c0.9-1.8,1.9-3.5,2.9-5.3
		C43,47,46,42.4,49.3,38.2z"/>
	<path opacity="0.5" fill="#00CCCC" d="M49.3,38.2c-3.4,2.2-6.7,4.5-9.8,6.9c-0.9,3.9-1.7,7.9-2.2,12.1c0.9-1.8,1.9-3.5,2.9-5.3
		C43,47,46,42.4,49.3,38.2z"/>
	<path opacity="0.5" fill="#890CB2" d="M49.3,38.2c-3.4,2.2-6.7,4.5-9.8,6.9c-0.9,3.9-1.7,7.9-2.2,12.1c0.9-1.8,1.9-3.5,2.9-5.3
		C43,47,46,42.4,49.3,38.2z"/>
	<path opacity="0.5" fill="#387BF4" d="M49.3,38.2c-3.4,2.2-6.7,4.5-9.8,6.9c-0.9,3.9-1.7,7.9-2.2,12.1c0.9-1.8,1.9-3.5,2.9-5.3
		C43,47,46,42.4,49.3,38.2z"/>
	<path opacity="0.5" fill="#387BF4" d="M105.2,94.6c2.5-1.9,5-3.9,7.3-5.9c0-2.2-0.1-4.5-0.3-6.8c-1.4,3-3,5.9-4.7,8.8
		C106.7,92,106,93.3,105.2,94.6z"/>
	<path opacity="0.5" fill="#00CCCC" d="M105.2,94.6c2.5-1.9,5-3.9,7.3-5.9c0-2.2-0.1-4.5-0.3-6.8c-1.4,3-3,5.9-4.7,8.8
		C106.7,92,106,93.3,105.2,94.6z"/>
	<path opacity="0.5" fill="#00CCCC" d="M105.2,94.6c2.5-1.9,5-3.9,7.3-5.9c0-2.2-0.1-4.5-0.3-6.8c-1.4,3-3,5.9-4.7,8.8
		C106.7,92,106,93.3,105.2,94.6z"/>
	<path opacity="0.5" fill="#890CB2" d="M105.2,94.6c2.5-1.9,5-3.9,7.3-5.9c0-2.2-0.1-4.5-0.3-6.8c-1.4,3-3,5.9-4.7,8.8
		C106.7,92,106,93.3,105.2,94.6z"/>
	<path opacity="0.5" fill="#387BF4" d="M105.2,94.6c2.5-1.9,5-3.9,7.3-5.9c0-2.2-0.1-4.5-0.3-6.8c-1.4,3-3,5.9-4.7,8.8
		C106.7,92,106,93.3,105.2,94.6z"/>
	<path opacity="0.5" fill="#387BF4" d="M36.3,73.3c0-3.9,0.2-7.7,0.5-11.4l-0.4-1.4h0.6c0.1-1.1,0.2-2.2,0.4-3.3
		c-2.4,4.6-4.4,9.2-6.1,13.7c0.5,2.7,1.2,5.5,1.9,8.3c0.8,2.9,1.6,5.7,2.6,8.5c0.5,0.6,1,1.2,1.6,1.9C36.6,84.3,36.3,78.8,36.3,73.3
		z"/>
	<path opacity="0.5" fill="#890CB2" d="M36.3,73.3c0-3.9,0.2-7.7,0.5-11.4l-0.4-1.4h0.6c0.1-1.1,0.2-2.2,0.4-3.3
		c-2.4,4.6-4.4,9.2-6.1,13.7c0.5,2.7,1.2,5.5,1.9,8.3c0.8,2.9,1.6,5.7,2.6,8.5c0.5,0.6,1,1.2,1.6,1.9C36.6,84.3,36.3,78.8,36.3,73.3
		z"/>
	<path opacity="0.5" fill="#00CCCC" d="M36.3,73.3c0-3.9,0.2-7.7,0.5-11.4l-0.4-1.4h0.6c0.1-1.1,0.2-2.2,0.4-3.3
		c-2.4,4.6-4.4,9.2-6.1,13.7c0.5,2.7,1.2,5.5,1.9,8.3c0.8,2.9,1.6,5.7,2.6,8.5c0.5,0.6,1,1.2,1.6,1.9C36.6,84.3,36.3,78.8,36.3,73.3
		z"/>
	<path opacity="0.5" fill="#890CB2" d="M36.3,73.3c0-3.9,0.2-7.7,0.5-11.4l-0.4-1.4h0.6c0.1-1.1,0.2-2.2,0.4-3.3
		c-2.4,4.6-4.4,9.2-6.1,13.7c0.5,2.7,1.2,5.5,1.9,8.3c0.8,2.9,1.6,5.7,2.6,8.5c0.5,0.6,1,1.2,1.6,1.9C36.6,84.3,36.3,78.8,36.3,73.3
		z"/>
	<path opacity="0.5" fill="#387BF4" d="M36.3,73.3c0-3.9,0.2-7.7,0.5-11.4l-0.4-1.4h0.6c0.1-1.1,0.2-2.2,0.4-3.3
		c-2.4,4.6-4.4,9.2-6.1,13.7c0.5,2.7,1.2,5.5,1.9,8.3c0.8,2.9,1.6,5.7,2.6,8.5c0.5,0.6,1,1.2,1.6,1.9C36.6,84.3,36.3,78.8,36.3,73.3
		z"/>
	<path opacity="0.5" fill="#00CCCC" d="M66.2,29.2c-2.8-0.5-5.5-0.8-8.2-1.1c-3,3.1-5.9,6.5-8.7,10.1c1.5-1,3.1-1.9,4.6-2.8
		C58,33.1,62.1,31,66.2,29.2z"/>
	<path opacity="0.5" fill="#890CB2" d="M66.2,29.2c-2.8-0.5-5.5-0.8-8.2-1.1c-3,3.1-5.9,6.5-8.7,10.1c1.5-1,3.1-1.9,4.6-2.8
		C58,33.1,62.1,31,66.2,29.2z"/>
	<path opacity="0.5" fill="#00CCCC" d="M66.2,29.2c-2.8-0.5-5.5-0.8-8.2-1.1c-3,3.1-5.9,6.5-8.7,10.1c1.5-1,3.1-1.9,4.6-2.8
		C58,33.1,62.1,31,66.2,29.2z"/>
	<path opacity="0.5" fill="#890CB2" d="M66.2,29.2c-2.8-0.5-5.5-0.8-8.2-1.1c-3,3.1-5.9,6.5-8.7,10.1c1.5-1,3.1-1.9,4.6-2.8
		C58,33.1,62.1,31,66.2,29.2z"/>
	<path opacity="0.5" fill="#387BF4" d="M66.2,29.2c-2.8-0.5-5.5-0.8-8.2-1.1c-3,3.1-5.9,6.5-8.7,10.1c1.5-1,3.1-1.9,4.6-2.8
		C58,33.1,62.1,31,66.2,29.2z"/>
	<path opacity="0.5" fill="#00CCCC" d="M76.6,110.6c5.5,0.7,10.8,1,15.9,0.9c4.5-5,8.8-10.7,12.7-16.9c-3.9,2.9-8,5.6-12.4,8.2
		C87.4,105.8,82,108.4,76.6,110.6z"/>
	<path opacity="0.5" fill="#890CB2" d="M76.6,110.6c5.5,0.7,10.8,1,15.9,0.9c4.5-5,8.8-10.7,12.7-16.9c-3.9,2.9-8,5.6-12.4,8.2
		C87.4,105.8,82,108.4,76.6,110.6z"/>
	<path opacity="0.5" fill="#00CCCC" d="M76.6,110.6c5.5,0.7,10.8,1,15.9,0.9c4.5-5,8.8-10.7,12.7-16.9c-3.9,2.9-8,5.6-12.4,8.2
		C87.4,105.8,82,108.4,76.6,110.6z"/>
	<path opacity="0.5" fill="#890CB2" d="M76.6,110.6c5.5,0.7,10.8,1,15.9,0.9c4.5-5,8.8-10.7,12.7-16.9c-3.9,2.9-8,5.6-12.4,8.2
		C87.4,105.8,82,108.4,76.6,110.6z"/>
	<path opacity="0.5" fill="#387BF4" d="M76.6,110.6c5.5,0.7,10.8,1,15.9,0.9c4.5-5,8.8-10.7,12.7-16.9c-3.9,2.9-8,5.6-12.4,8.2
		C87.4,105.8,82,108.4,76.6,110.6z"/>
	<path opacity="0.5" fill="#387BF4" d="M104.7,47.8c-1.9-2.2-3.9-4.3-6-6.4c-1.5-1.5-3-2.9-4.5-4.2c-4.7-2-9.7-3.7-14.9-5.1
		c-4.4-1.2-8.8-2.2-13.1-2.9c-4.1,1.8-8.2,3.9-12.3,6.2c-1.6,0.9-3.1,1.8-4.6,2.8C46,42.4,43,47,40.2,51.9c-1,1.8-2,3.5-2.9,5.3
		c-0.1,1.1-0.3,2.2-0.4,3.3h2.7c0.3,0,0.6,0.1,0.8,0.2c0.2,0.2,0.4,0.4,0.4,0.6l2.3,8.6c0.1,0.3,0.1,0.6,0.2,0.9
		c0.1,0.3,0.1,0.7,0.2,1c0.1-0.7,0.3-1.3,0.5-1.9l2.7-8.6c0.1-0.2,0.2-0.4,0.4-0.6c0.2-0.2,0.5-0.3,0.8-0.3h1.1
		c0.3,0,0.6,0.1,0.8,0.2c0.2,0.2,0.4,0.4,0.5,0.6l2.7,8.6c0.2,0.5,0.4,1.1,0.5,1.8c0.1-0.3,0.1-0.7,0.2-1c0.1-0.3,0.1-0.6,0.2-0.8
		l2.3-8.6c0.1-0.2,0.2-0.4,0.4-0.6c0.2-0.2,0.5-0.3,0.8-0.3h3L55.4,77h-3.5l-3.1-10.3c-0.1-0.2-0.1-0.3-0.2-0.5
		c-0.1-0.2-0.1-0.4-0.2-0.6c-0.1,0.2-0.1,0.4-0.2,0.6c-0.1,0.2-0.1,0.4-0.2,0.5L44.9,77h-3.5l-4.7-15.2c-0.3,3.7-0.5,7.5-0.5,11.4
		c0,5.6,0.4,11,1,16.2c2,2.4,4.2,4.7,6.4,6.9c3.3,3.3,6.8,6.4,10.2,9.2c1.5,0.5,3.1,0.9,4.6,1.4c6.1,1.7,12.1,2.9,18,3.6
		c5.4-2.2,10.8-4.8,16.2-7.9c4.4-2.5,8.6-5.3,12.4-8.2c0.8-1.3,1.6-2.5,2.3-3.8c1.7-2.9,3.2-5.9,4.7-8.8c-0.5-7.4-1.8-15.1-3.9-22.9
		C107.2,55.2,106,51.4,104.7,47.8z M66,77h-3.9V60.4H66V77z M81.1,63.5h-4.7V77h-3.8V63.5h-4.7v-3h13.2V63.5z M101.7,77h-3.4v-9.5
		c0-0.2,0-0.5,0-0.7c0-0.3,0-0.5,0.1-0.8L94,74.5c-0.1,0.3-0.3,0.5-0.6,0.6c-0.2,0.1-0.5,0.2-0.8,0.2h-0.5c-0.3,0-0.6-0.1-0.8-0.2
		c-0.2-0.1-0.4-0.3-0.6-0.6L86.4,66c0,0.3,0,0.5,0.1,0.8c0,0.3,0,0.5,0,0.7V77h-3.4V60.4H86c0.2,0,0.3,0,0.4,0c0.1,0,0.2,0,0.3,0.1
		c0.1,0,0.2,0.1,0.3,0.2c0.1,0.1,0.2,0.2,0.2,0.3l4.3,8.4c0.2,0.3,0.3,0.6,0.4,0.9c0.1,0.3,0.3,0.6,0.4,1c0.1-0.3,0.3-0.7,0.4-1
		c0.1-0.3,0.3-0.6,0.4-0.9l4.3-8.4c0.1-0.1,0.2-0.3,0.2-0.3c0.1-0.1,0.2-0.1,0.3-0.2c0.1,0,0.2-0.1,0.3-0.1c0.1,0,0.3,0,0.4,0h2.9
		V77z"/>
	<path opacity="0.5" fill="#00CCCC" d="M104.7,47.8c-1.9-2.2-3.9-4.3-6-6.4c-1.5-1.5-3-2.9-4.5-4.2c-4.7-2-9.7-3.7-14.9-5.1
		c-4.4-1.2-8.8-2.2-13.1-2.9c-4.1,1.8-8.2,3.9-12.3,6.2c-1.6,0.9-3.1,1.8-4.6,2.8C46,42.4,43,47,40.2,51.9c-1,1.8-2,3.5-2.9,5.3
		c-0.1,1.1-0.3,2.2-0.4,3.3h2.7c0.3,0,0.6,0.1,0.8,0.2c0.2,0.2,0.4,0.4,0.4,0.6l2.3,8.6c0.1,0.3,0.1,0.6,0.2,0.9
		c0.1,0.3,0.1,0.7,0.2,1c0.1-0.7,0.3-1.3,0.5-1.9l2.7-8.6c0.1-0.2,0.2-0.4,0.4-0.6c0.2-0.2,0.5-0.3,0.8-0.3h1.1
		c0.3,0,0.6,0.1,0.8,0.2c0.2,0.2,0.4,0.4,0.5,0.6l2.7,8.6c0.2,0.5,0.4,1.1,0.5,1.8c0.1-0.3,0.1-0.7,0.2-1c0.1-0.3,0.1-0.6,0.2-0.8
		l2.3-8.6c0.1-0.2,0.2-0.4,0.4-0.6c0.2-0.2,0.5-0.3,0.8-0.3h3L55.4,77h-3.5l-3.1-10.3c-0.1-0.2-0.1-0.3-0.2-0.5
		c-0.1-0.2-0.1-0.4-0.2-0.6c-0.1,0.2-0.1,0.4-0.2,0.6c-0.1,0.2-0.1,0.4-0.2,0.5L44.9,77h-3.5l-4.7-15.2c-0.3,3.7-0.5,7.5-0.5,11.4
		c0,5.6,0.4,11,1,16.2c2,2.4,4.2,4.7,6.4,6.9c3.3,3.3,6.8,6.4,10.2,9.2c1.5,0.5,3.1,0.9,4.6,1.4c6.1,1.7,12.1,2.9,18,3.6
		c5.4-2.2,10.8-4.8,16.2-7.9c4.4-2.5,8.6-5.3,12.4-8.2c0.8-1.3,1.6-2.5,2.3-3.8c1.7-2.9,3.2-5.9,4.7-8.8c-0.5-7.4-1.8-15.1-3.9-22.9
		C107.2,55.2,106,51.4,104.7,47.8z M66,77h-3.9V60.4H66V77z M81.1,63.5h-4.7V77h-3.8V63.5h-4.7v-3h13.2V63.5z M101.7,77h-3.4v-9.5
		c0-0.2,0-0.5,0-0.7c0-0.3,0-0.5,0.1-0.8L94,74.5c-0.1,0.3-0.3,0.5-0.6,0.6c-0.2,0.1-0.5,0.2-0.8,0.2h-0.5c-0.3,0-0.6-0.1-0.8-0.2
		c-0.2-0.1-0.4-0.3-0.6-0.6L86.4,66c0,0.3,0,0.5,0.1,0.8c0,0.3,0,0.5,0,0.7V77h-3.4V60.4H86c0.2,0,0.3,0,0.4,0c0.1,0,0.2,0,0.3,0.1
		c0.1,0,0.2,0.1,0.3,0.2c0.1,0.1,0.2,0.2,0.2,0.3l4.3,8.4c0.2,0.3,0.3,0.6,0.4,0.9c0.1,0.3,0.3,0.6,0.4,1c0.1-0.3,0.3-0.7,0.4-1
		c0.1-0.3,0.3-0.6,0.4-0.9l4.3-8.4c0.1-0.1,0.2-0.3,0.2-0.3c0.1-0.1,0.2-0.1,0.3-0.2c0.1,0,0.2-0.1,0.3-0.1c0.1,0,0.3,0,0.4,0h2.9
		V77z"/>
	<path opacity="0.5" fill="#890CB2" d="M104.7,47.8c-1.9-2.2-3.9-4.3-6-6.4c-1.5-1.5-3-2.9-4.5-4.2c-4.7-2-9.7-3.7-14.9-5.1
		c-4.4-1.2-8.8-2.2-13.1-2.9c-4.1,1.8-8.2,3.9-12.3,6.2c-1.6,0.9-3.1,1.8-4.6,2.8C46,42.4,43,47,40.2,51.9c-1,1.8-2,3.5-2.9,5.3
		c-0.1,1.1-0.3,2.2-0.4,3.3h2.7c0.3,0,0.6,0.1,0.8,0.2c0.2,0.2,0.4,0.4,0.4,0.6l2.3,8.6c0.1,0.3,0.1,0.6,0.2,0.9
		c0.1,0.3,0.1,0.7,0.2,1c0.1-0.7,0.3-1.3,0.5-1.9l2.7-8.6c0.1-0.2,0.2-0.4,0.4-0.6c0.2-0.2,0.5-0.3,0.8-0.3h1.1
		c0.3,0,0.6,0.1,0.8,0.2c0.2,0.2,0.4,0.4,0.5,0.6l2.7,8.6c0.2,0.5,0.4,1.1,0.5,1.8c0.1-0.3,0.1-0.7,0.2-1c0.1-0.3,0.1-0.6,0.2-0.8
		l2.3-8.6c0.1-0.2,0.2-0.4,0.4-0.6c0.2-0.2,0.5-0.3,0.8-0.3h3L55.4,77h-3.5l-3.1-10.3c-0.1-0.2-0.1-0.3-0.2-0.5
		c-0.1-0.2-0.1-0.4-0.2-0.6c-0.1,0.2-0.1,0.4-0.2,0.6c-0.1,0.2-0.1,0.4-0.2,0.5L44.9,77h-3.5l-4.7-15.2c-0.3,3.7-0.5,7.5-0.5,11.4
		c0,5.6,0.4,11,1,16.2c2,2.4,4.2,4.7,6.4,6.9c3.3,3.3,6.8,6.4,10.2,9.2c1.5,0.5,3.1,0.9,4.6,1.4c6.1,1.7,12.1,2.9,18,3.6
		c5.4-2.2,10.8-4.8,16.2-7.9c4.4-2.5,8.6-5.3,12.4-8.2c0.8-1.3,1.6-2.5,2.3-3.8c1.7-2.9,3.2-5.9,4.7-8.8c-0.5-7.4-1.8-15.1-3.9-22.9
		C107.2,55.2,106,51.4,104.7,47.8z M66,77h-3.9V60.4H66V77z M81.1,63.5h-4.7V77h-3.8V63.5h-4.7v-3h13.2V63.5z M101.7,77h-3.4v-9.5
		c0-0.2,0-0.5,0-0.7c0-0.3,0-0.5,0.1-0.8L94,74.5c-0.1,0.3-0.3,0.5-0.6,0.6c-0.2,0.1-0.5,0.2-0.8,0.2h-0.5c-0.3,0-0.6-0.1-0.8-0.2
		c-0.2-0.1-0.4-0.3-0.6-0.6L86.4,66c0,0.3,0,0.5,0.1,0.8c0,0.3,0,0.5,0,0.7V77h-3.4V60.4H86c0.2,0,0.3,0,0.4,0c0.1,0,0.2,0,0.3,0.1
		c0.1,0,0.2,0.1,0.3,0.2c0.1,0.1,0.2,0.2,0.2,0.3l4.3,8.4c0.2,0.3,0.3,0.6,0.4,0.9c0.1,0.3,0.3,0.6,0.4,1c0.1-0.3,0.3-0.7,0.4-1
		c0.1-0.3,0.3-0.6,0.4-0.9l4.3-8.4c0.1-0.1,0.2-0.3,0.2-0.3c0.1-0.1,0.2-0.1,0.3-0.2c0.1,0,0.2-0.1,0.3-0.1c0.1,0,0.3,0,0.4,0h2.9
		V77z"/>
	<path opacity="0.5" fill="#00CCCC" d="M104.7,47.8c-1.9-2.2-3.9-4.3-6-6.4c-1.5-1.5-3-2.9-4.5-4.2c-4.7-2-9.7-3.7-14.9-5.1
		c-4.4-1.2-8.8-2.2-13.1-2.9c-4.1,1.8-8.2,3.9-12.3,6.2c-1.6,0.9-3.1,1.8-4.6,2.8C46,42.4,43,47,40.2,51.9c-1,1.8-2,3.5-2.9,5.3
		c-0.1,1.1-0.3,2.2-0.4,3.3h2.7c0.3,0,0.6,0.1,0.8,0.2c0.2,0.2,0.4,0.4,0.4,0.6l2.3,8.6c0.1,0.3,0.1,0.6,0.2,0.9
		c0.1,0.3,0.1,0.7,0.2,1c0.1-0.7,0.3-1.3,0.5-1.9l2.7-8.6c0.1-0.2,0.2-0.4,0.4-0.6c0.2-0.2,0.5-0.3,0.8-0.3h1.1
		c0.3,0,0.6,0.1,0.8,0.2c0.2,0.2,0.4,0.4,0.5,0.6l2.7,8.6c0.2,0.5,0.4,1.1,0.5,1.8c0.1-0.3,0.1-0.7,0.2-1c0.1-0.3,0.1-0.6,0.2-0.8
		l2.3-8.6c0.1-0.2,0.2-0.4,0.4-0.6c0.2-0.2,0.5-0.3,0.8-0.3h3L55.4,77h-3.5l-3.1-10.3c-0.1-0.2-0.1-0.3-0.2-0.5
		c-0.1-0.2-0.1-0.4-0.2-0.6c-0.1,0.2-0.1,0.4-0.2,0.6c-0.1,0.2-0.1,0.4-0.2,0.5L44.9,77h-3.5l-4.7-15.2c-0.3,3.7-0.5,7.5-0.5,11.4
		c0,5.6,0.4,11,1,16.2c2,2.4,4.2,4.7,6.4,6.9c3.3,3.3,6.8,6.4,10.2,9.2c1.5,0.5,3.1,0.9,4.6,1.4c6.1,1.7,12.1,2.9,18,3.6
		c5.4-2.2,10.8-4.8,16.2-7.9c4.4-2.5,8.6-5.3,12.4-8.2c0.8-1.3,1.6-2.5,2.3-3.8c1.7-2.9,3.2-5.9,4.7-8.8c-0.5-7.4-1.8-15.1-3.9-22.9
		C107.2,55.2,106,51.4,104.7,47.8z M66,77h-3.9V60.4H66V77z M81.1,63.5h-4.7V77h-3.8V63.5h-4.7v-3h13.2V63.5z M101.7,77h-3.4v-9.5
		c0-0.2,0-0.5,0-0.7c0-0.3,0-0.5,0.1-0.8L94,74.5c-0.1,0.3-0.3,0.5-0.6,0.6c-0.2,0.1-0.5,0.2-0.8,0.2h-0.5c-0.3,0-0.6-0.1-0.8-0.2
		c-0.2-0.1-0.4-0.3-0.6-0.6L86.4,66c0,0.3,0,0.5,0.1,0.8c0,0.3,0,0.5,0,0.7V77h-3.4V60.4H86c0.2,0,0.3,0,0.4,0c0.1,0,0.2,0,0.3,0.1
		c0.1,0,0.2,0.1,0.3,0.2c0.1,0.1,0.2,0.2,0.2,0.3l4.3,8.4c0.2,0.3,0.3,0.6,0.4,0.9c0.1,0.3,0.3,0.6,0.4,1c0.1-0.3,0.3-0.7,0.4-1
		c0.1-0.3,0.3-0.6,0.4-0.9l4.3-8.4c0.1-0.1,0.2-0.3,0.2-0.3c0.1-0.1,0.2-0.1,0.3-0.2c0.1,0,0.2-0.1,0.3-0.1c0.1,0,0.3,0,0.4,0h2.9
		V77z"/>
	<path opacity="0.5" fill="#890CB2" d="M104.7,47.8c-1.9-2.2-3.9-4.3-6-6.4c-1.5-1.5-3-2.9-4.5-4.2c-4.7-2-9.7-3.7-14.9-5.1
		c-4.4-1.2-8.8-2.2-13.1-2.9c-4.1,1.8-8.2,3.9-12.3,6.2c-1.6,0.9-3.1,1.8-4.6,2.8C46,42.4,43,47,40.2,51.9c-1,1.8-2,3.5-2.9,5.3
		c-0.1,1.1-0.3,2.2-0.4,3.3h2.7c0.3,0,0.6,0.1,0.8,0.2c0.2,0.2,0.4,0.4,0.4,0.6l2.3,8.6c0.1,0.3,0.1,0.6,0.2,0.9
		c0.1,0.3,0.1,0.7,0.2,1c0.1-0.7,0.3-1.3,0.5-1.9l2.7-8.6c0.1-0.2,0.2-0.4,0.4-0.6c0.2-0.2,0.5-0.3,0.8-0.3h1.1
		c0.3,0,0.6,0.1,0.8,0.2c0.2,0.2,0.4,0.4,0.5,0.6l2.7,8.6c0.2,0.5,0.4,1.1,0.5,1.8c0.1-0.3,0.1-0.7,0.2-1c0.1-0.3,0.1-0.6,0.2-0.8
		l2.3-8.6c0.1-0.2,0.2-0.4,0.4-0.6c0.2-0.2,0.5-0.3,0.8-0.3h3L55.4,77h-3.5l-3.1-10.3c-0.1-0.2-0.1-0.3-0.2-0.5
		c-0.1-0.2-0.1-0.4-0.2-0.6c-0.1,0.2-0.1,0.4-0.2,0.6c-0.1,0.2-0.1,0.4-0.2,0.5L44.9,77h-3.5l-4.7-15.2c-0.3,3.7-0.5,7.5-0.5,11.4
		c0,5.6,0.4,11,1,16.2c2,2.4,4.2,4.7,6.4,6.9c3.3,3.3,6.8,6.4,10.2,9.2c1.5,0.5,3.1,0.9,4.6,1.4c6.1,1.7,12.1,2.9,18,3.6
		c5.4-2.2,10.8-4.8,16.2-7.9c4.4-2.5,8.6-5.3,12.4-8.2c0.8-1.3,1.6-2.5,2.3-3.8c1.7-2.9,3.2-5.9,4.7-8.8c-0.5-7.4-1.8-15.1-3.9-22.9
		C107.2,55.2,106,51.4,104.7,47.8z M66,77h-3.9V60.4H66V77z M81.1,63.5h-4.7V77h-3.8V63.5h-4.7v-3h13.2V63.5z M101.7,77h-3.4v-9.5
		c0-0.2,0-0.5,0-0.7c0-0.3,0-0.5,0.1-0.8L94,74.5c-0.1,0.3-0.3,0.5-0.6,0.6c-0.2,0.1-0.5,0.2-0.8,0.2h-0.5c-0.3,0-0.6-0.1-0.8-0.2
		c-0.2-0.1-0.4-0.3-0.6-0.6L86.4,66c0,0.3,0,0.5,0.1,0.8c0,0.3,0,0.5,0,0.7V77h-3.4V60.4H86c0.2,0,0.3,0,0.4,0c0.1,0,0.2,0,0.3,0.1
		c0.1,0,0.2,0.1,0.3,0.2c0.1,0.1,0.2,0.2,0.2,0.3l4.3,8.4c0.2,0.3,0.3,0.6,0.4,0.9c0.1,0.3,0.3,0.6,0.4,1c0.1-0.3,0.3-0.7,0.4-1
		c0.1-0.3,0.3-0.6,0.4-0.9l4.3-8.4c0.1-0.1,0.2-0.3,0.2-0.3c0.1-0.1,0.2-0.1,0.3-0.2c0.1,0,0.2-0.1,0.3-0.1c0.1,0,0.3,0,0.4,0h2.9
		V77z"/>
	<path opacity="0.5" fill="#387BF4" d="M104.7,47.8c-1.9-2.2-3.9-4.3-6-6.4c-1.5-1.5-3-2.9-4.5-4.2c-4.7-2-9.7-3.7-14.9-5.1
		c-4.4-1.2-8.8-2.2-13.1-2.9c-4.1,1.8-8.2,3.9-12.3,6.2c-1.6,0.9-3.1,1.8-4.6,2.8C46,42.4,43,47,40.2,51.9c-1,1.8-2,3.5-2.9,5.3
		c-0.1,1.1-0.3,2.2-0.4,3.3h2.7c0.3,0,0.6,0.1,0.8,0.2c0.2,0.2,0.4,0.4,0.4,0.6l2.3,8.6c0.1,0.3,0.1,0.6,0.2,0.9
		c0.1,0.3,0.1,0.7,0.2,1c0.1-0.7,0.3-1.3,0.5-1.9l2.7-8.6c0.1-0.2,0.2-0.4,0.4-0.6c0.2-0.2,0.5-0.3,0.8-0.3h1.1
		c0.3,0,0.6,0.1,0.8,0.2c0.2,0.2,0.4,0.4,0.5,0.6l2.7,8.6c0.2,0.5,0.4,1.1,0.5,1.8c0.1-0.3,0.1-0.7,0.2-1c0.1-0.3,0.1-0.6,0.2-0.8
		l2.3-8.6c0.1-0.2,0.2-0.4,0.4-0.6c0.2-0.2,0.5-0.3,0.8-0.3h3L55.4,77h-3.5l-3.1-10.3c-0.1-0.2-0.1-0.3-0.2-0.5
		c-0.1-0.2-0.1-0.4-0.2-0.6c-0.1,0.2-0.1,0.4-0.2,0.6c-0.1,0.2-0.1,0.4-0.2,0.5L44.9,77h-3.5l-4.7-15.2c-0.3,3.7-0.5,7.5-0.5,11.4
		c0,5.6,0.4,11,1,16.2c2,2.4,4.2,4.7,6.4,6.9c3.3,3.3,6.8,6.4,10.2,9.2c1.5,0.5,3.1,0.9,4.6,1.4c6.1,1.7,12.1,2.9,18,3.6
		c5.4-2.2,10.8-4.8,16.2-7.9c4.4-2.5,8.6-5.3,12.4-8.2c0.8-1.3,1.6-2.5,2.3-3.8c1.7-2.9,3.2-5.9,4.7-8.8c-0.5-7.4-1.8-15.1-3.9-22.9
		C107.2,55.2,106,51.4,104.7,47.8z M66,77h-3.9V60.4H66V77z M81.1,63.5h-4.7V77h-3.8V63.5h-4.7v-3h13.2V63.5z M101.7,77h-3.4v-9.5
		c0-0.2,0-0.5,0-0.7c0-0.3,0-0.5,0.1-0.8L94,74.5c-0.1,0.3-0.3,0.5-0.6,0.6c-0.2,0.1-0.5,0.2-0.8,0.2h-0.5c-0.3,0-0.6-0.1-0.8-0.2
		c-0.2-0.1-0.4-0.3-0.6-0.6L86.4,66c0,0.3,0,0.5,0.1,0.8c0,0.3,0,0.5,0,0.7V77h-3.4V60.4H86c0.2,0,0.3,0,0.4,0c0.1,0,0.2,0,0.3,0.1
		c0.1,0,0.2,0.1,0.3,0.2c0.1,0.1,0.2,0.2,0.2,0.3l4.3,8.4c0.2,0.3,0.3,0.6,0.4,0.9c0.1,0.3,0.3,0.6,0.4,1c0.1-0.3,0.3-0.7,0.4-1
		c0.1-0.3,0.3-0.6,0.4-0.9l4.3-8.4c0.1-0.1,0.2-0.3,0.2-0.3c0.1-0.1,0.2-0.1,0.3-0.2c0.1,0,0.2-0.1,0.3-0.1c0.1,0,0.3,0,0.4,0h2.9
		V77z"/>
	<path fill="#FFFFFF" d="M36.8,61.9L41.5,77h3.5l3.2-10.3c0.1-0.2,0.1-0.3,0.2-0.5c0.1-0.2,0.1-0.4,0.2-0.6c0.1,0.2,0.1,0.4,0.2,0.6
		c0.1,0.2,0.1,0.4,0.2,0.5L51.9,77h3.5l5.1-16.6h-3c-0.3,0-0.6,0.1-0.8,0.3c-0.2,0.2-0.4,0.4-0.4,0.6l-2.3,8.6
		c-0.1,0.3-0.1,0.5-0.2,0.8c-0.1,0.3-0.1,0.6-0.2,1c-0.1-0.7-0.3-1.3-0.5-1.8l-2.7-8.6c-0.1-0.2-0.3-0.4-0.5-0.6
		c-0.2-0.2-0.5-0.2-0.8-0.2H48c-0.3,0-0.6,0.1-0.8,0.3c-0.2,0.2-0.4,0.4-0.4,0.6L44,69.9c-0.2,0.6-0.4,1.2-0.5,1.9
		c-0.1-0.3-0.1-0.7-0.2-1c-0.1-0.3-0.1-0.6-0.2-0.9l-2.3-8.6c-0.1-0.3-0.2-0.5-0.4-0.6c-0.2-0.2-0.5-0.2-0.8-0.2h-2.7h-0.6
		L36.8,61.9z"/>
	<rect x="62.1" y="60.4" fill="#FFFFFF" width="3.9" height="16.6"/>
	<polygon fill="#FFFFFF" points="67.9,63.5 72.6,63.5 72.6,77 76.5,77 76.5,63.5 81.1,63.5 81.1,60.4 67.9,60.4 	"/>
	<path fill="#FFFFFF" d="M98.3,60.5c-0.1,0-0.2,0-0.3,0.1c-0.1,0-0.2,0.1-0.3,0.2c-0.1,0.1-0.2,0.2-0.2,0.3l-4.3,8.4
		c-0.2,0.3-0.3,0.6-0.4,0.9c-0.1,0.3-0.3,0.6-0.4,1c-0.1-0.3-0.3-0.6-0.4-1c-0.1-0.3-0.3-0.6-0.4-0.9L87.3,61
		c-0.1-0.1-0.2-0.3-0.2-0.3c-0.1-0.1-0.2-0.1-0.3-0.2c-0.1,0-0.2-0.1-0.3-0.1c-0.1,0-0.3,0-0.4,0h-2.9V77h3.4v-9.5
		c0-0.2,0-0.5,0-0.7c0-0.3,0-0.5-0.1-0.8l4.4,8.5c0.1,0.3,0.3,0.5,0.6,0.6c0.2,0.1,0.5,0.2,0.8,0.2h0.5c0.3,0,0.6-0.1,0.8-0.2
		c0.2-0.1,0.4-0.3,0.6-0.6l4.4-8.5c0,0.3-0.1,0.5-0.1,0.8c0,0.3,0,0.5,0,0.7V77h3.4V60.4h-2.9C98.6,60.4,98.4,60.5,98.3,60.5z"/>
</g>
</svg>
