<?xml version="1.0" encoding="utf-8"?>
<!-- Generator: Adobe Illustrator 16.0.0, SVG Export Plug-In . SVG Version: 6.00 Build 0)  -->
<!DOCTYPE svg PUBLIC "-//W3C//DTD SVG 1.1//EN" "http://www.w3.org/Graphics/SVG/1.1/DTD/svg11.dtd">
<svg version="1.1" id="Layer_1" xmlns="http://www.w3.org/2000/svg" xmlns:xlink="http://www.w3.org/1999/xlink" x="0px" y="0px"
	 width="1014px" height="403.951px" viewBox="0 0 1014 403.951" enable-background="new 0 0 1014 403.951" xml:space="preserve">
<g>
	<path fill-rule="evenodd" clip-rule="evenodd" fill="none" d="M507.438,401.951c-165.313,0-330.625-0.015-495.938,0.094
		c-3.749,0.003-4.597-0.845-4.594-4.594c0.113-127.984,0.113-255.968,0-383.952C6.902,9.751,7.751,8.905,11.5,8.907
		c330.625,0.101,661.25,0.101,991.875,0c3.749-0.002,4.598,0.844,4.595,4.592c-0.114,127.984-0.114,255.967,0,383.952
		c0.003,3.749-0.846,4.597-4.595,4.594C838.063,401.937,672.75,401.951,507.438,401.951z M458.441,302.603
		c0.995,1.486,1.953,3.001,2.994,4.455c9.064,12.678,19.817,23.765,31.717,33.794c35.987,30.334,78.578,43.387,124.555,46.979
		c11.521,0.9,23.147,0.451,34.81-1.468c18.57-3.059,36.483-7.791,53.406-15.965c34.485-16.656,62.059-41.611,85.197-71.753
		c12.39-16.14,22.798-33.647,34.333-50.38c2.21-3.205,4.488-5.175,8.838-5.155c38.487,0.171,76.976,0.137,115.463,0.038
		c3.586-0.01,5.809,1.24,7.767,4.208c7.427,11.267,15.108,22.363,22.627,33.569c1.809,2.694,3.919,4.986,6.877,6.354
		c4.652,2.151,9.07,1.496,13.254-1.312c4.156-2.789,3.994-6.976,3.573-11.211c-0.243-2.441-1.855-4.244-3.152-6.161
		c-30.893-45.681-61.789-91.356-92.709-137.017c-8.794-12.986-24.068-13.075-32.929,0.028
		c-30.142,44.578-60.146,89.251-90.213,133.879c-22.438,33.303-50.067,61.323-84.27,82.621
		c-32.333,20.135-67.59,28.808-105.467,25.521c-43.676-3.788-81.177-22.143-114.298-50.259
		C473.073,316.797,466.015,309.566,458.441,302.603z M509.793,161.751c1.586,2.525,1.024,4.564,1.026,6.481
		c0.041,36.151,0.006,72.303,0.054,108.455c0.012,8.841,3.824,12.46,12.583,12.314c8.604-0.144,12.504-3.982,12.51-12.625
		c0.031-45.98,0.016-91.962,0.004-137.942c0-1.33-0.035-2.674-0.226-3.986c-1.191-8.207-7.752-13.177-16.02-12.106
		c-6.05,0.784-10.949,3.478-14.741,8.428c-32.816,42.837-65.7,85.622-98.561,128.426c-3.639,4.739-3.661,4.773-7.334,0.123
		c-18.991-24.047-37.961-48.112-56.946-72.166c-15.064-19.086-30.094-38.2-45.236-57.224c-5.319-6.682-14.37-9.378-21.501-6.54
		c-7.6,3.025-8.273,9.706-8.367,16.602c-0.005,0.333-0.002,0.666-0.002,1c0,43.98-0.006,87.963,0.018,131.943
		c0.001,2.324,0.124,4.665,0.425,6.967c0.675,5.145,3.854,7.914,8.816,8.837c10.221,1.901,15.782-2.574,15.787-12.784
		c0.018-35.985-0.002-71.97,0.036-107.955c0.002-1.854-0.538-3.875,0.876-5.965c0.777,0.905,1.331,1.499,1.827,2.138
		c13.802,17.748,27.611,35.49,41.392,53.255c16.129,20.792,32.159,41.66,48.373,62.385c9.815,12.547,25.632,12.618,35.283-0.005
		c27.112-35.458,54.029-71.066,81.035-106.607C503.707,169.511,506.586,165.878,509.793,161.751z M682.381,123.787
		c-17.327,0-34.656,0.012-51.984-0.007c-6.169-0.007-12.337,0.04-18.42,1.2c-12.677,2.419-24.681,6.08-32.107,17.932
		c-6.401,10.214-7.304,39.335-1.626,49.961c4.396,8.231,11.905,12.395,20.173,15.385c12.549,4.54,25.754,5.33,38.899,5.582
		c19.654,0.376,39.32,0.042,58.979,0.2c8.054,0.064,15.963,1.348,23.184,5.219c6.02,3.228,9.618,8.054,9.456,15.226
		c-0.104,4.663,0.033,9.331-0.029,13.995c-0.103,7.746-3.695,12.85-10.959,15.589c-5.679,2.142-11.571,2.967-17.638,2.962
		c-36.655-0.029-73.311,0-109.967,0.015c-1.999,0.001-4.006-0.052-5.995,0.104c-7.66,0.599-10.816,3.922-10.551,10.988
		c0.253,6.725,3.609,9.809,11.14,9.815c37.821,0.036,75.645,0.209,113.464-0.121c12.672-0.11,25.295-1.815,36.922-7.561
		c10.736-5.305,17.515-13.593,18.868-25.799c1.051-9.469,1.178-18.943-0.213-28.386c-1.146-7.778-5.065-14.026-11.126-18.921
		c-5.667-4.576-12.201-7.464-19.205-9.284c-10.202-2.653-20.583-3.837-31.129-4.037c-23.474-0.443-46.981,1.206-70.422-0.981
		c-17.11-1.596-22.063-7.131-22.056-24.105c0.008-17.259,6.782-24.243,24.016-24.72c2.498-0.069,4.998-0.044,7.497-0.045
		c35.989-0.014,71.979-0.015,107.968-0.057c2.486-0.003,5.028-0.029,7.447-0.523c5.224-1.069,7.92-4.694,7.85-10.014
		c-0.079-5.959-4.062-9.567-10.953-9.588C723.369,123.752,702.875,123.79,682.381,123.787z M369.468,130.195
		c-0.842-1.589-1.627-3.211-2.536-4.762c-13.168-22.449-29.285-42.426-49.229-59.278c-34.213-28.908-73.916-44.091-118.385-46.032
		c-36.256-1.584-71.323,4.763-104.499,20.095C70.706,51.362,48.265,64.855,31.484,86.068c-10.44,13.199-18.184,28.069-18.396,45.011
		c-0.608,48.634-0.226,97.28-0.211,145.922c0.002,6.54,2.952,10.082,9.378,11.483c10.263,2.238,16.691-2.786,16.699-13.23
		c0.034-44.645,0.15-89.288-0.089-133.93c-0.052-9.793,2.308-18.741,6.217-27.495c14.027-31.406,38.38-51.919,69.54-64.695
		c38.629-15.838,78.819-19.111,119.691-11.762c45.892,8.251,84.3,30.062,114.578,65.836
		C356.214,111.859,362.253,121.395,369.468,130.195z M152.898,123.79c-26.312,0-52.624-0.03-78.936,0.019
		c-7.527,0.014-10.33,2.984-10.123,10.341c0.188,6.719,3.511,9.786,11.076,9.813c19.484,0.069,38.968,0.021,58.453,0.031
		c7.36,0.004,7.373,0.017,7.374,7.521c0.006,41.799-0.012,83.599,0.02,125.399c0.006,8.535,3.657,12.067,12.209,12.09
		c9.143,0.024,13.046-3.825,13.051-13.067c0.023-40.301-0.014-80.602,0.025-120.902c0.012-12.263-1.338-11,10.88-11.031
		c18.152-0.047,36.304,0.038,54.456-0.047c7.432-0.035,10.506-2.9,10.753-9.52c0.287-7.686-2.484-10.625-10.301-10.635
		C205.522,123.765,179.21,123.787,152.898,123.79z"/>
	<path fill-rule="evenodd" clip-rule="evenodd" fill="#A1B042" d="M458.441,302.603c7.573,6.964,14.632,14.194,22.373,20.768
		c33.121,28.116,70.622,46.471,114.298,50.259c37.877,3.286,73.134-5.387,105.467-25.521c34.202-21.298,61.832-49.318,84.27-82.621
		c30.067-44.628,60.071-89.301,90.213-133.879c8.86-13.104,24.135-13.015,32.929-0.028c30.92,45.66,61.816,91.336,92.709,137.017
		c1.297,1.917,2.909,3.72,3.152,6.161c0.421,4.235,0.583,8.422-3.573,11.211c-4.184,2.808-8.602,3.463-13.254,1.312
		c-2.958-1.368-5.068-3.66-6.877-6.354c-7.519-11.206-15.2-22.303-22.627-33.569c-1.958-2.968-4.181-4.218-7.767-4.208
		c-38.487,0.099-76.976,0.133-115.463-0.038c-4.35-0.02-6.628,1.95-8.838,5.155c-11.535,16.732-21.943,34.24-34.333,50.38
		c-23.139,30.142-50.712,55.097-85.197,71.753c-16.923,8.174-34.836,12.906-53.406,15.965c-11.662,1.919-23.288,2.368-34.81,1.468
		c-45.977-3.592-88.567-16.645-124.555-46.979c-11.899-10.029-22.652-21.116-31.717-33.794
		C460.395,305.604,459.437,304.089,458.441,302.603z M891.872,222.864c14.645,0,29.289-0.056,43.934,0.041
		c3.548,0.022,4.592-0.569,2.38-4.054c-14.631-23.033-29.148-46.14-43.646-69.257c-1.653-2.636-2.845-3.376-4.859-0.237
		c-14.735,22.968-29.595,45.854-44.336,68.818c-2.632,4.101-2.271,4.651,2.593,4.668
		C862.581,222.896,877.227,222.862,891.872,222.864z"/>
	<path fill-rule="evenodd" clip-rule="evenodd" fill="#A1B042" d="M509.793,161.751c-3.207,4.127-6.086,7.76-8.889,11.449
		c-27.006,35.541-53.923,71.149-81.035,106.607c-9.651,12.623-25.468,12.552-35.283,0.005
		c-16.214-20.725-32.244-41.593-48.373-62.385c-13.78-17.765-27.59-35.507-41.392-53.255c-0.497-0.639-1.05-1.232-1.827-2.138
		c-1.414,2.09-0.874,4.11-0.876,5.965c-0.038,35.985-0.018,71.97-0.036,107.955c-0.004,10.21-5.566,14.686-15.787,12.784
		c-4.962-0.923-8.142-3.692-8.816-8.837c-0.302-2.302-0.424-4.643-0.425-6.967c-0.024-43.98-0.018-87.963-0.018-131.943
		c0-0.334-0.003-0.667,0.002-1c0.094-6.896,0.767-13.576,8.367-16.602c7.131-2.838,16.182-0.143,21.501,6.54
		c15.143,19.024,30.172,38.138,45.236,57.224c18.985,24.054,37.955,48.119,56.946,72.166c3.673,4.65,3.695,4.616,7.334-0.123
		c32.86-42.805,65.744-85.589,98.561-128.426c3.792-4.95,8.691-7.644,14.741-8.428c8.268-1.071,14.828,3.899,16.02,12.106
		c0.19,1.312,0.226,2.656,0.226,3.986c0.012,45.98,0.027,91.961-0.004,137.942c-0.006,8.643-3.905,12.481-12.51,12.625
		c-8.759,0.146-12.571-3.474-12.583-12.314c-0.048-36.152-0.013-72.304-0.054-108.455
		C510.817,166.315,511.379,164.276,509.793,161.751z"/>
	<path fill-rule="evenodd" clip-rule="evenodd" fill="#A1B042" d="M682.381,123.788c20.494,0.002,40.988-0.036,61.482,0.022
		c6.892,0.021,10.874,3.628,10.953,9.588c0.07,5.32-2.626,8.945-7.85,10.014c-2.419,0.494-4.961,0.521-7.447,0.523
		c-35.989,0.042-71.979,0.043-107.968,0.057c-2.499,0.001-4.999-0.024-7.497,0.045c-17.233,0.478-24.008,7.461-24.016,24.72
		c-0.008,16.975,4.945,22.51,22.056,24.105c23.44,2.188,46.948,0.538,70.422,0.981c10.546,0.2,20.927,1.384,31.129,4.037
		c7.004,1.82,13.538,4.708,19.205,9.284c6.061,4.895,9.979,11.143,11.126,18.921c1.391,9.442,1.264,18.917,0.213,28.386
		c-1.354,12.206-8.132,20.494-18.868,25.799c-11.627,5.745-24.25,7.45-36.922,7.561c-37.819,0.33-75.643,0.157-113.464,0.121
		c-7.53-0.007-10.887-3.091-11.14-9.815c-0.266-7.066,2.891-10.39,10.551-10.988c1.989-0.155,3.996-0.103,5.995-0.104
		c36.656-0.015,73.312-0.044,109.967-0.015c6.066,0.005,11.959-0.82,17.638-2.962c7.264-2.739,10.856-7.843,10.959-15.589
		c0.063-4.664-0.075-9.332,0.029-13.995c0.162-7.172-3.437-11.998-9.456-15.226c-7.221-3.871-15.13-5.154-23.184-5.219
		c-19.659-0.158-39.325,0.176-58.979-0.2c-13.146-0.252-26.351-1.042-38.899-5.582c-8.268-2.99-15.777-7.153-20.173-15.385
		c-5.678-10.626-4.775-39.748,1.626-49.961c7.427-11.852,19.431-15.513,32.107-17.932c6.083-1.16,12.251-1.207,18.42-1.2
		C647.725,123.799,665.054,123.787,682.381,123.788z"/>
	<path fill-rule="evenodd" clip-rule="evenodd" fill="#A1B042" d="M369.468,130.195c-7.215-8.8-13.254-18.336-20.577-26.987
		c-30.278-35.774-68.686-57.585-114.578-65.836c-40.873-7.349-81.062-4.076-119.691,11.762
		c-31.16,12.776-55.513,33.289-69.54,64.695c-3.91,8.754-6.27,17.702-6.217,27.495c0.239,44.642,0.123,89.285,0.089,133.93
		c-0.008,10.444-6.436,15.469-16.699,13.23c-6.426-1.401-9.376-4.943-9.378-11.483c-0.014-48.642-0.397-97.288,0.211-145.922
		c0.212-16.942,7.956-31.812,18.396-45.011C48.265,64.855,70.706,51.362,94.82,40.218c33.175-15.332,68.242-21.679,104.499-20.095
		c44.469,1.941,84.172,17.125,118.385,46.032c19.944,16.852,36.062,36.829,49.229,59.278
		C367.841,126.983,368.626,128.606,369.468,130.195z"/>
	<path fill-rule="evenodd" clip-rule="evenodd" fill="#A1B042" d="M152.898,123.788c26.313-0.001,52.625-0.023,78.937,0.013
		c7.817,0.01,10.588,2.949,10.301,10.635c-0.247,6.62-3.321,9.485-10.753,9.52c-18.151,0.085-36.303,0-54.456,0.047
		c-12.218,0.031-10.869-1.232-10.88,11.031c-0.04,40.301-0.002,80.602-0.025,120.902c-0.005,9.242-3.908,13.092-13.051,13.067
		c-8.552-0.022-12.203-3.555-12.209-12.09c-0.031-41.8-0.014-83.6-0.02-125.399c-0.001-7.504-0.014-7.517-7.374-7.521
		c-19.484-0.01-38.969,0.038-58.453-0.031c-7.565-0.027-10.888-3.094-11.076-9.813c-0.207-7.356,2.595-10.327,10.123-10.341
		C100.274,123.76,126.586,123.79,152.898,123.788z"/>
	<path fill-rule="evenodd" clip-rule="evenodd" fill="none" d="M891.872,222.863c-14.646-0.001-29.291,0.032-43.936-0.02
		c-4.863-0.017-5.225-0.567-2.593-4.668c14.741-22.964,29.601-45.851,44.336-68.818c2.015-3.139,3.206-2.398,4.859,0.237
		c14.498,23.117,29.016,46.224,43.646,69.257c2.212,3.484,1.168,4.076-2.38,4.054C921.161,222.809,906.517,222.864,891.872,222.863z
		"/>
</g>
</svg>
